<svg width="791" height="222" viewBox="0 0 791 222" fill="none" xmlns="http://www.w3.org/2000/svg">
<g opacity="0.4">
<line x1="746.5" y1="80" x2="746.5" y2="142" stroke="white"/>
<line x1="710.949" y1="80" x2="710.949" y2="142" stroke="white"/>
<line x1="675.4" y1="80" x2="675.4" y2="142" stroke="white"/>
<line x1="639.85" y1="80" x2="639.85" y2="142" stroke="white"/>
<line x1="604.301" y1="80" x2="604.301" y2="142" stroke="white"/>
<line x1="568.75" y1="80" x2="568.75" y2="142" stroke="white"/>
<line x1="533.199" y1="80" x2="533.199" y2="142" stroke="white"/>
<line x1="497.65" y1="80" x2="497.65" y2="142" stroke="white"/>
<line x1="462.1" y1="80" x2="462.1" y2="142" stroke="white"/>
<line x1="426.551" y1="80" x2="426.551" y2="142" stroke="white"/>
<line x1="391" y1="80" x2="391" y2="142" stroke="white"/>
<line x1="355.449" y1="80" x2="355.449" y2="142" stroke="white"/>
<line x1="319.9" y1="80" x2="319.9" y2="142" stroke="white"/>
<line x1="284.35" y1="80" x2="284.35" y2="142" stroke="white"/>
<line x1="248.801" y1="80" x2="248.801" y2="142" stroke="white"/>
<line x1="213.25" y1="80" x2="213.25" y2="142" stroke="white"/>
<line x1="177.699" y1="80" x2="177.699" y2="142" stroke="white"/>
<line x1="142.15" y1="80" x2="142.15" y2="142" stroke="white"/>
<line x1="106.6" y1="80" x2="106.6" y2="142" stroke="white"/>
<line x1="71.0508" y1="80" x2="71.0508" y2="142" stroke="white"/>
<line x1="35.5" y1="80" x2="35.5" y2="142" stroke="white"/>
</g>
<g filter="url(#filter0_dd_3794_6663)">
<rect x="747" y="96" width="30" height="498" rx="8" transform="rotate(90 747 96)" fill="#38BCE2"/>
</g>
<g filter="url(#filter1_dd_3794_6663)">
<rect x="262" y="96" width="30" height="226" rx="8" transform="rotate(90 262 96)" fill="#FF5441"/>
</g>
<path d="M29.3892 19L29.3892 9.586H31.3692L31.3692 13.33L35.7432 13.33V9.586H37.7232V19H35.7432V15.04L31.3692 15.04V19H29.3892ZM40.1118 19V9.586H42.1638L45.4038 15.4L48.6618 9.586H50.6778V19H48.7878V12.376L46.0158 17.326H44.7738L41.9838 12.376V19H40.1118ZM57.2793 19.18C56.5353 19.18 55.8693 19.054 55.2813 18.802C54.6933 18.538 54.1833 18.178 53.7513 17.722C53.3313 17.266 53.0073 16.75 52.7793 16.174C52.5513 15.586 52.4373 14.962 52.4373 14.302C52.4373 13.642 52.5513 13.018 52.7793 12.43C53.0073 11.842 53.3313 11.326 53.7513 10.882C54.1833 10.426 54.6933 10.072 55.2813 9.82C55.8813 9.556 56.5473 9.424 57.2793 9.424C58.0113 9.424 58.6713 9.556 59.2593 9.82C59.8593 10.072 60.3693 10.426 60.7893 10.882C61.2213 11.326 61.5513 11.842 61.7793 12.43C62.0073 13.018 62.1213 13.642 62.1213 14.302C62.1213 14.962 62.0073 15.586 61.7793 16.174C61.5513 16.75 61.2213 17.266 60.7893 17.722C60.3693 18.178 59.8593 18.538 59.2593 18.802C58.6713 19.054 58.0113 19.18 57.2793 19.18ZM54.4713 14.32C54.4713 14.92 54.5973 15.46 54.8493 15.94C55.1013 16.42 55.4373 16.798 55.8573 17.074C56.2773 17.35 56.7513 17.488 57.2793 17.488C57.7953 17.488 58.2633 17.35 58.6833 17.074C59.1153 16.786 59.4573 16.402 59.7093 15.922C59.9613 15.43 60.0873 14.89 60.0873 14.302C60.0873 13.702 59.9613 13.162 59.7093 12.682C59.4573 12.202 59.1153 11.824 58.6833 11.548C58.2633 11.26 57.7953 11.116 57.2793 11.116C56.7513 11.116 56.2773 11.26 55.8573 11.548C55.4373 11.836 55.1013 12.22 54.8493 12.7C54.5973 13.168 54.4713 13.708 54.4713 14.32ZM63.1215 19.09V17.326C63.4215 17.326 63.6915 17.254 63.9315 17.11C64.1715 16.954 64.3815 16.702 64.5615 16.354C64.7415 15.994 64.8855 15.496 64.9935 14.86C65.1015 14.224 65.1735 13.414 65.2095 12.43L65.3355 9.586L72.0495 9.586V19H70.0695V11.332H67.0815L67.0455 12.61C66.9975 13.87 66.8835 14.92 66.7035 15.76C66.5235 16.588 66.2715 17.248 65.9475 17.74C65.6355 18.22 65.2395 18.568 64.7595 18.784C64.2915 18.988 63.7455 19.09 63.1215 19.09ZM74.4243 19V9.586H76.4043V12.682L78.6543 12.682C79.7703 12.682 80.6163 12.964 81.1923 13.528C81.7803 14.092 82.0743 14.836 82.0743 15.76C82.0743 16.384 81.9483 16.942 81.6963 17.434C81.4443 17.926 81.0723 18.31 80.5803 18.586C80.1003 18.862 79.5003 19 78.7803 19H74.4243ZM76.4043 17.47H78.4743C78.8703 17.47 79.1883 17.398 79.4283 17.254C79.6683 17.098 79.8483 16.894 79.9683 16.642C80.0883 16.378 80.1483 16.096 80.1483 15.796C80.1483 15.496 80.0943 15.226 79.9863 14.986C79.8783 14.734 79.6983 14.536 79.4463 14.392C79.2063 14.236 78.8763 14.158 78.4563 14.158L76.4043 14.158V17.47ZM93.948 6.22L85.182 19L82.986 19L91.752 6.22H93.948ZM94.8851 19.09V17.326C95.1851 17.326 95.4551 17.254 95.6951 17.11C95.9351 16.954 96.1451 16.702 96.3251 16.354C96.5051 15.994 96.6491 15.496 96.7571 14.86C96.8651 14.224 96.9371 13.414 96.9731 12.43L97.0991 9.586L103.813 9.586V19H101.833V11.332L98.8451 11.332L98.8091 12.61C98.7611 13.87 98.6471 14.92 98.4671 15.76C98.2871 16.588 98.0351 17.248 97.7111 17.74C97.3991 18.22 97.0031 18.568 96.5231 18.784C96.0551 18.988 95.5091 19.09 94.8851 19.09Z" fill="white"/>
<path opacity="0.4" d="M740.479 60L740.479 57.34L735.593 57.34L735.593 56.486L740.773 50.06L741.431 50.06L741.431 56.472L742.663 56.472L742.663 57.34L741.431 57.34L741.431 60L740.479 60ZM736.615 56.472L740.563 56.472L740.563 51.544L736.615 56.472ZM747.988 60.14C747.316 60.1213 746.724 59.958 746.21 59.65C745.697 59.342 745.268 58.9407 744.922 58.446C744.577 57.942 744.316 57.4007 744.138 56.822C743.961 56.234 743.872 55.66 743.872 55.1C743.872 54.5027 743.966 53.9053 744.152 53.308C744.348 52.7107 744.624 52.1693 744.978 51.684C745.342 51.1893 745.776 50.7973 746.28 50.508C746.784 50.2093 747.354 50.06 747.988 50.06C748.67 50.06 749.262 50.2187 749.766 50.536C750.28 50.8533 750.709 51.264 751.054 51.768C751.4 52.272 751.656 52.818 751.824 53.406C752.002 53.994 752.09 54.5587 752.09 55.1C752.09 55.7067 751.992 56.3087 751.796 56.906C751.61 57.494 751.339 58.0307 750.984 58.516C750.63 59.0013 750.196 59.3933 749.682 59.692C749.178 59.9813 748.614 60.1307 747.988 60.14ZM744.866 55.1C744.885 55.5853 744.96 56.0753 745.09 56.57C745.23 57.0553 745.431 57.5033 745.692 57.914C745.954 58.3153 746.271 58.642 746.644 58.894C747.027 59.1367 747.475 59.258 747.988 59.258C748.511 59.258 748.968 59.1273 749.36 58.866C749.752 58.6047 750.074 58.264 750.326 57.844C750.588 57.4147 750.784 56.962 750.914 56.486C751.045 56.0007 751.11 55.5387 751.11 55.1C751.11 54.6147 751.04 54.1293 750.9 53.644C750.76 53.1493 750.555 52.7013 750.284 52.3C750.014 51.8893 749.687 51.5627 749.304 51.32C748.922 51.068 748.483 50.942 747.988 50.942C747.456 50.942 746.994 51.0773 746.602 51.348C746.21 51.6093 745.884 51.95 745.622 52.37C745.37 52.79 745.179 53.2427 745.048 53.728C744.927 54.204 744.866 54.6613 744.866 55.1Z" fill="white"/>
<path opacity="0.4" d="M668.985 60.126C668.397 60.126 667.865 60.028 667.389 59.832C666.913 59.636 666.526 59.3653 666.227 59.02C665.928 58.6747 665.742 58.2733 665.667 57.816L666.255 57.284C666.274 57.6013 666.4 57.914 666.633 58.222C666.866 58.5207 667.184 58.7633 667.585 58.95C667.996 59.1367 668.462 59.23 668.985 59.23C669.452 59.23 669.872 59.1507 670.245 58.992C670.628 58.824 670.926 58.6 671.141 58.32C671.365 58.0307 671.477 57.6947 671.477 57.312C671.477 56.9013 671.346 56.5513 671.085 56.262C670.824 55.9633 670.455 55.7347 669.979 55.576C669.503 55.4173 668.938 55.338 668.285 55.338L667.809 55.338L667.809 54.512L668.285 54.512C669.19 54.512 669.904 54.3627 670.427 54.064C670.95 53.7653 671.211 53.3173 671.211 52.72C671.211 52.328 671.104 51.9873 670.889 51.698C670.684 51.4087 670.404 51.1847 670.049 51.026C669.704 50.8673 669.326 50.788 668.915 50.788C668.299 50.788 667.772 50.9233 667.333 51.194C666.894 51.4647 666.586 51.8007 666.409 52.202L665.751 51.558C665.928 51.222 666.176 50.9327 666.493 50.69C666.82 50.4473 667.188 50.2607 667.599 50.13C668.019 49.9993 668.453 49.934 668.901 49.934C669.536 49.934 670.1 50.0553 670.595 50.298C671.099 50.5407 671.491 50.8673 671.771 51.278C672.06 51.6887 672.205 52.16 672.205 52.692C672.205 53.0653 672.13 53.4013 671.981 53.7C671.832 53.9893 671.612 54.2367 671.323 54.442C671.034 54.638 670.679 54.7873 670.259 54.89C670.698 54.974 671.08 55.1373 671.407 55.38C671.743 55.6227 672 55.9213 672.177 56.276C672.364 56.6213 672.457 57.004 672.457 57.424C672.457 57.984 672.294 58.4647 671.967 58.866C671.65 59.2673 671.23 59.58 670.707 59.804C670.184 60.0187 669.61 60.126 668.985 60.126ZM680.997 56.724C680.997 57.3493 680.838 57.9233 680.521 58.446C680.213 58.9593 679.793 59.37 679.261 59.678C678.729 59.986 678.132 60.14 677.469 60.14C676.778 60.14 676.162 59.9767 675.621 59.65C675.089 59.314 674.669 58.8333 674.361 58.208C674.053 57.5827 673.899 56.8407 673.899 55.982C673.899 54.6287 674.053 53.5133 674.361 52.636C674.669 51.7493 675.098 51.0867 675.649 50.648C676.2 50.2093 676.839 49.99 677.567 49.99C678.23 49.99 678.822 50.158 679.345 50.494C679.868 50.8207 680.264 51.2687 680.535 51.838L679.919 52.398C679.723 51.922 679.41 51.544 678.981 51.264C678.561 50.9747 678.09 50.83 677.567 50.83C677.016 50.83 676.536 51.0027 676.125 51.348C675.714 51.6933 675.392 52.188 675.159 52.832C674.935 53.476 674.823 54.2553 674.823 55.17C674.963 54.806 675.168 54.4887 675.439 54.218C675.71 53.9473 676.027 53.7373 676.391 53.588C676.764 53.4387 677.161 53.364 677.581 53.364C678.216 53.364 678.79 53.5133 679.303 53.812C679.826 54.1107 680.236 54.5167 680.535 55.03C680.843 55.534 680.997 56.0987 680.997 56.724ZM677.497 59.3C677.964 59.3 678.393 59.1833 678.785 58.95C679.177 58.7167 679.49 58.404 679.723 58.012C679.966 57.62 680.087 57.1907 680.087 56.724C680.087 56.2573 679.966 55.828 679.723 55.436C679.49 55.044 679.177 54.7313 678.785 54.498C678.393 54.2647 677.964 54.148 677.497 54.148C677.021 54.148 676.582 54.2647 676.181 54.498C675.789 54.7313 675.476 55.044 675.243 55.436C675.01 55.8187 674.893 56.248 674.893 56.724C674.893 57.1907 675.01 57.62 675.243 58.012C675.486 58.404 675.803 58.7167 676.195 58.95C676.587 59.1833 677.021 59.3 677.497 59.3Z" fill="white"/>
<path opacity="0.4" d="M598.434 60.126C597.846 60.126 597.314 60.028 596.838 59.832C596.362 59.636 595.975 59.3653 595.676 59.02C595.378 58.6747 595.191 58.2733 595.116 57.816L595.704 57.284C595.723 57.6013 595.849 57.914 596.082 58.222C596.316 58.5207 596.633 58.7633 597.034 58.95C597.445 59.1367 597.912 59.23 598.434 59.23C598.901 59.23 599.321 59.1507 599.694 58.992C600.077 58.824 600.376 58.6 600.59 58.32C600.814 58.0307 600.926 57.6947 600.926 57.312C600.926 56.9013 600.796 56.5513 600.534 56.262C600.273 55.9633 599.904 55.7347 599.428 55.576C598.952 55.4173 598.388 55.338 597.734 55.338L597.258 55.338L597.258 54.512L597.734 54.512C598.64 54.512 599.354 54.3627 599.876 54.064C600.399 53.7653 600.66 53.3173 600.66 52.72C600.66 52.328 600.553 51.9873 600.338 51.698C600.133 51.4087 599.853 51.1847 599.498 51.026C599.153 50.8673 598.775 50.788 598.364 50.788C597.748 50.788 597.221 50.9233 596.782 51.194C596.344 51.4647 596.036 51.8007 595.858 52.202L595.2 51.558C595.378 51.222 595.625 50.9327 595.942 50.69C596.269 50.4473 596.638 50.2607 597.048 50.13C597.468 49.9993 597.902 49.934 598.35 49.934C598.985 49.934 599.55 50.0553 600.044 50.298C600.548 50.5407 600.94 50.8673 601.22 51.278C601.51 51.6887 601.654 52.16 601.654 52.692C601.654 53.0653 601.58 53.4013 601.43 53.7C601.281 53.9893 601.062 54.2367 600.772 54.442C600.483 54.638 600.128 54.7873 599.708 54.89C600.147 54.974 600.53 55.1373 600.856 55.38C601.192 55.6227 601.449 55.9213 601.626 56.276C601.813 56.6213 601.906 57.004 601.906 57.424C601.906 57.984 601.743 58.4647 601.416 58.866C601.099 59.2673 600.679 59.58 600.156 59.804C599.634 60.0187 599.06 60.126 598.434 60.126ZM603.292 60C603.283 59.412 603.329 58.894 603.432 58.446C603.535 57.998 603.689 57.6013 603.894 57.256C604.109 56.9107 604.365 56.612 604.664 56.36C604.963 56.0987 605.299 55.87 605.672 55.674C606.027 55.478 606.395 55.3007 606.778 55.142C607.161 54.974 607.515 54.792 607.842 54.596C608.169 54.4 608.43 54.162 608.626 53.882C608.831 53.5927 608.934 53.2333 608.934 52.804C608.934 52.4493 608.855 52.1227 608.696 51.824C608.547 51.5253 608.313 51.2873 607.996 51.11C607.679 50.9233 607.277 50.83 606.792 50.83C606.316 50.83 605.891 50.9093 605.518 51.068C605.154 51.2267 604.846 51.418 604.594 51.642C604.351 51.866 604.155 52.0713 604.006 52.258L603.376 51.642C603.432 51.5767 603.544 51.4507 603.712 51.264C603.889 51.0773 604.123 50.8813 604.412 50.676C604.711 50.4707 605.061 50.298 605.462 50.158C605.873 50.0087 606.349 49.934 606.89 49.934C607.581 49.934 608.155 50.0693 608.612 50.34C609.069 50.6013 609.41 50.9467 609.634 51.376C609.867 51.8053 609.984 52.2767 609.984 52.79C609.984 53.2847 609.886 53.7047 609.69 54.05C609.503 54.386 609.256 54.6707 608.948 54.904C608.649 55.128 608.323 55.324 607.968 55.492C607.623 55.66 607.296 55.8187 606.988 55.968C606.391 56.2387 605.915 56.5047 605.56 56.766C605.205 57.0273 604.939 57.2887 604.762 57.55C604.594 57.8113 604.482 58.0727 604.426 58.334C604.37 58.5953 604.337 58.8613 604.328 59.132L609.998 59.132L609.998 60L603.292 60Z" fill="white"/>
<path opacity="0.4" d="M524.356 60C524.346 59.412 524.393 58.894 524.496 58.446C524.598 57.998 524.752 57.6013 524.958 57.256C525.172 56.9107 525.429 56.612 525.728 56.36C526.026 56.0987 526.362 55.87 526.736 55.674C527.09 55.478 527.459 55.3007 527.842 55.142C528.224 54.974 528.579 54.792 528.906 54.596C529.232 54.4 529.494 54.162 529.69 53.882C529.895 53.5927 529.998 53.2333 529.998 52.804C529.998 52.4493 529.918 52.1227 529.76 51.824C529.61 51.5253 529.377 51.2873 529.06 51.11C528.742 50.9233 528.341 50.83 527.856 50.83C527.38 50.83 526.955 50.9093 526.582 51.068C526.218 51.2267 525.91 51.418 525.658 51.642C525.415 51.866 525.219 52.0713 525.07 52.258L524.44 51.642C524.496 51.5767 524.608 51.4507 524.776 51.264C524.953 51.0773 525.186 50.8813 525.476 50.676C525.774 50.4707 526.124 50.298 526.526 50.158C526.936 50.0087 527.412 49.934 527.954 49.934C528.644 49.934 529.218 50.0693 529.676 50.34C530.133 50.6013 530.474 50.9467 530.698 51.376C530.931 51.8053 531.048 52.2767 531.048 52.79C531.048 53.2847 530.95 53.7047 530.754 54.05C530.567 54.386 530.32 54.6707 530.012 54.904C529.713 55.128 529.386 55.324 529.032 55.492C528.686 55.66 528.36 55.8187 528.052 55.968C527.454 56.2387 526.978 56.5047 526.624 56.766C526.269 57.0273 526.003 57.2887 525.826 57.55C525.658 57.8113 525.546 58.0727 525.49 58.334C525.434 58.5953 525.401 58.8613 525.392 59.132L531.062 59.132L531.062 60L524.356 60ZM539.42 57.242C539.42 57.8207 539.257 58.3247 538.93 58.754C538.613 59.1833 538.188 59.5193 537.656 59.762C537.134 59.9953 536.56 60.112 535.934 60.112C535.272 60.112 534.684 59.9813 534.17 59.72C533.657 59.4493 533.251 59.0947 532.952 58.656C532.663 58.2173 532.518 57.7273 532.518 57.186C532.518 56.766 532.616 56.388 532.812 56.052C533.018 55.7067 533.27 55.4173 533.568 55.184C533.876 54.9507 534.189 54.7827 534.506 54.68C534.217 54.5587 533.946 54.4 533.694 54.204C533.442 53.9987 533.242 53.7607 533.092 53.49C532.943 53.2193 532.868 52.9207 532.868 52.594C532.868 52.1833 532.957 51.824 533.134 51.516C533.321 51.1987 533.564 50.9327 533.862 50.718C534.161 50.494 534.492 50.3307 534.856 50.228C535.23 50.116 535.603 50.06 535.976 50.06C536.34 50.06 536.704 50.116 537.068 50.228C537.442 50.3307 537.778 50.4893 538.076 50.704C538.384 50.9187 538.627 51.1847 538.804 51.502C538.991 51.81 539.084 52.1693 539.084 52.58C539.084 52.9067 539.005 53.21 538.846 53.49C538.697 53.7607 538.496 53.9987 538.244 54.204C537.992 54.4 537.717 54.5587 537.418 54.68C537.782 54.8013 538.114 54.988 538.412 55.24C538.72 55.4827 538.963 55.772 539.14 56.108C539.327 56.444 539.42 56.822 539.42 57.242ZM538.454 57.172C538.454 56.836 538.38 56.542 538.23 56.29C538.09 56.0287 537.894 55.8093 537.642 55.632C537.4 55.4547 537.129 55.3193 536.83 55.226C536.541 55.1327 536.247 55.086 535.948 55.086C535.547 55.086 535.155 55.1747 534.772 55.352C534.399 55.52 534.091 55.7627 533.848 56.08C533.615 56.388 533.498 56.7567 533.498 57.186C533.498 57.5127 533.568 57.802 533.708 58.054C533.858 58.306 534.054 58.5253 534.296 58.712C534.539 58.8893 534.805 59.0247 535.094 59.118C535.393 59.2113 535.692 59.258 535.99 59.258C536.392 59.258 536.779 59.174 537.152 59.006C537.535 58.8287 537.848 58.5813 538.09 58.264C538.333 57.9467 538.454 57.5827 538.454 57.172ZM533.82 52.636C533.82 52.9907 533.928 53.2987 534.142 53.56C534.366 53.812 534.646 54.0033 534.982 54.134C535.318 54.2647 535.645 54.33 535.962 54.33C536.298 54.33 536.63 54.2647 536.956 54.134C537.292 53.994 537.568 53.798 537.782 53.546C538.006 53.2847 538.118 52.972 538.118 52.608C538.118 52.2533 538.016 51.95 537.81 51.698C537.605 51.446 537.334 51.2547 536.998 51.124C536.672 50.9933 536.322 50.928 535.948 50.928C535.594 50.928 535.248 50.998 534.912 51.138C534.586 51.2687 534.32 51.4647 534.114 51.726C533.918 51.978 533.82 52.2813 533.82 52.636Z" fill="white"/>
<path opacity="0.4" d="M453.928 60C453.919 59.412 453.965 58.894 454.068 58.446C454.171 57.998 454.325 57.6013 454.53 57.256C454.745 56.9107 455.001 56.612 455.3 56.36C455.599 56.0987 455.935 55.87 456.308 55.674C456.663 55.478 457.031 55.3007 457.414 55.142C457.797 54.974 458.151 54.792 458.478 54.596C458.805 54.4 459.066 54.162 459.262 53.882C459.467 53.5927 459.57 53.2333 459.57 52.804C459.57 52.4493 459.491 52.1227 459.332 51.824C459.183 51.5253 458.949 51.2873 458.632 51.11C458.315 50.9233 457.913 50.83 457.428 50.83C456.952 50.83 456.527 50.9093 456.154 51.068C455.79 51.2267 455.482 51.418 455.23 51.642C454.987 51.866 454.791 52.0713 454.642 52.258L454.012 51.642C454.068 51.5767 454.18 51.4507 454.348 51.264C454.525 51.0773 454.759 50.8813 455.048 50.676C455.347 50.4707 455.697 50.298 456.098 50.158C456.509 50.0087 456.985 49.934 457.526 49.934C458.217 49.934 458.791 50.0693 459.248 50.34C459.705 50.6013 460.046 50.9467 460.27 51.376C460.503 51.8053 460.62 52.2767 460.62 52.79C460.62 53.2847 460.522 53.7047 460.326 54.05C460.139 54.386 459.892 54.6707 459.584 54.904C459.285 55.128 458.959 55.324 458.604 55.492C458.259 55.66 457.932 55.8187 457.624 55.968C457.027 56.2387 456.551 56.5047 456.196 56.766C455.841 57.0273 455.575 57.2887 455.398 57.55C455.23 57.8113 455.118 58.0727 455.062 58.334C455.006 58.5953 454.973 58.8613 454.964 59.132L460.634 59.132L460.634 60L453.928 60ZM466.422 60L466.422 57.34L461.536 57.34L461.536 56.486L466.716 50.06L467.374 50.06L467.374 56.472L468.606 56.472L468.606 57.34L467.374 57.34L467.374 60L466.422 60ZM462.558 56.472L466.506 56.472L466.506 51.544L462.558 56.472Z" fill="white"/>
<path opacity="0.4" d="M382.319 60C382.31 59.412 382.357 58.894 382.459 58.446C382.562 57.998 382.716 57.6013 382.921 57.256C383.136 56.9107 383.393 56.612 383.691 56.36C383.99 56.0987 384.326 55.87 384.699 55.674C385.054 55.478 385.423 55.3007 385.805 55.142C386.188 54.974 386.543 54.792 386.869 54.596C387.196 54.4 387.457 54.162 387.653 53.882C387.859 53.5927 387.961 53.2333 387.961 52.804C387.961 52.4493 387.882 52.1227 387.723 51.824C387.574 51.5253 387.341 51.2873 387.023 51.11C386.706 50.9233 386.305 50.83 385.819 50.83C385.343 50.83 384.919 50.9093 384.545 51.068C384.181 51.2267 383.873 51.418 383.621 51.642C383.379 51.866 383.183 52.0713 383.033 52.258L382.403 51.642C382.459 51.5767 382.571 51.4507 382.739 51.264C382.917 51.0773 383.15 50.8813 383.439 50.676C383.738 50.4707 384.088 50.298 384.489 50.158C384.9 50.0087 385.376 49.934 385.917 49.934C386.608 49.934 387.182 50.0693 387.639 50.34C388.097 50.6013 388.437 50.9467 388.661 51.376C388.895 51.8053 389.011 52.2767 389.011 52.79C389.011 53.2847 388.913 53.7047 388.717 54.05C388.531 54.386 388.283 54.6707 387.975 54.904C387.677 55.128 387.35 55.324 386.995 55.492C386.65 55.66 386.323 55.8187 386.015 55.968C385.418 56.2387 384.942 56.5047 384.587 56.766C384.233 57.0273 383.967 57.2887 383.789 57.55C383.621 57.8113 383.509 58.0727 383.453 58.334C383.397 58.5953 383.365 58.8613 383.355 59.132L389.025 59.132L389.025 60L382.319 60ZM394.57 60.14C393.898 60.1213 393.306 59.958 392.792 59.65C392.279 59.342 391.85 58.9407 391.504 58.446C391.159 57.942 390.898 57.4007 390.72 56.822C390.543 56.234 390.454 55.66 390.454 55.1C390.454 54.5027 390.548 53.9053 390.734 53.308C390.93 52.7107 391.206 52.1693 391.56 51.684C391.924 51.1893 392.358 50.7973 392.862 50.508C393.366 50.2093 393.936 50.06 394.57 50.06C395.252 50.06 395.844 50.2187 396.348 50.536C396.862 50.8533 397.291 51.264 397.636 51.768C397.982 52.272 398.238 52.818 398.406 53.406C398.584 53.994 398.672 54.5587 398.672 55.1C398.672 55.7067 398.574 56.3087 398.378 56.906C398.192 57.494 397.921 58.0307 397.566 58.516C397.212 59.0013 396.778 59.3933 396.264 59.692C395.76 59.9813 395.196 60.1307 394.57 60.14ZM391.448 55.1C391.467 55.5853 391.542 56.0753 391.672 56.57C391.812 57.0553 392.013 57.5033 392.274 57.914C392.536 58.3153 392.853 58.642 393.226 58.894C393.609 59.1367 394.057 59.258 394.57 59.258C395.093 59.258 395.55 59.1273 395.942 58.866C396.334 58.6047 396.656 58.264 396.908 57.844C397.17 57.4147 397.366 56.962 397.496 56.486C397.627 56.0007 397.692 55.5387 397.692 55.1C397.692 54.6147 397.622 54.1293 397.482 53.644C397.342 53.1493 397.137 52.7013 396.866 52.3C396.596 51.8893 396.269 51.5627 395.886 51.32C395.504 51.068 395.065 50.942 394.57 50.942C394.038 50.942 393.576 51.0773 393.184 51.348C392.792 51.6093 392.466 51.95 392.204 52.37C391.952 52.79 391.761 53.2427 391.63 53.728C391.509 54.204 391.448 54.6613 391.448 55.1Z" fill="white"/>
<path opacity="0.4" d="M318.215 59.132L318.215 60L313.581 60L313.581 59.132L315.471 59.132L315.471 50.998C315.387 51.11 315.261 51.236 315.093 51.376C314.934 51.5067 314.748 51.6373 314.533 51.768C314.318 51.8893 314.099 51.992 313.875 52.076C313.651 52.16 313.446 52.202 313.259 52.202L313.259 51.306C313.511 51.306 313.763 51.2407 314.015 51.11C314.267 50.97 314.5 50.816 314.715 50.648C314.939 50.4707 315.116 50.312 315.247 50.172C315.387 50.0227 315.462 49.9433 315.471 49.934L316.437 49.934L316.437 59.132L318.215 59.132ZM326.321 56.724C326.321 57.3493 326.162 57.9233 325.845 58.446C325.537 58.9593 325.117 59.37 324.585 59.678C324.053 59.986 323.456 60.14 322.793 60.14C322.102 60.14 321.486 59.9767 320.945 59.65C320.413 59.314 319.993 58.8333 319.685 58.208C319.377 57.5827 319.223 56.8407 319.223 55.982C319.223 54.6287 319.377 53.5133 319.685 52.636C319.993 51.7493 320.422 51.0867 320.973 50.648C321.524 50.2093 322.163 49.99 322.891 49.99C323.554 49.99 324.146 50.158 324.669 50.494C325.192 50.8207 325.588 51.2687 325.859 51.838L325.243 52.398C325.047 51.922 324.734 51.544 324.305 51.264C323.885 50.9747 323.414 50.83 322.891 50.83C322.34 50.83 321.86 51.0027 321.449 51.348C321.038 51.6933 320.716 52.188 320.483 52.832C320.259 53.476 320.147 54.2553 320.147 55.17C320.287 54.806 320.492 54.4887 320.763 54.218C321.034 53.9473 321.351 53.7373 321.715 53.588C322.088 53.4387 322.485 53.364 322.905 53.364C323.54 53.364 324.114 53.5133 324.627 53.812C325.15 54.1107 325.56 54.5167 325.859 55.03C326.167 55.534 326.321 56.0987 326.321 56.724ZM322.821 59.3C323.288 59.3 323.717 59.1833 324.109 58.95C324.501 58.7167 324.814 58.404 325.047 58.012C325.29 57.62 325.411 57.1907 325.411 56.724C325.411 56.2573 325.29 55.828 325.047 55.436C324.814 55.044 324.501 54.7313 324.109 54.498C323.717 54.2647 323.288 54.148 322.821 54.148C322.345 54.148 321.906 54.2647 321.505 54.498C321.113 54.7313 320.8 55.044 320.567 55.436C320.334 55.8187 320.217 56.248 320.217 56.724C320.217 57.1907 320.334 57.62 320.567 58.012C320.81 58.404 321.127 58.7167 321.519 58.95C321.911 59.1833 322.345 59.3 322.821 59.3Z" fill="white"/>
<path d="M247.961 58.306L247.961 60L242.333 60L242.333 58.306L244.265 58.306L244.265 51.838C244.191 51.95 244.065 52.076 243.887 52.216C243.719 52.3467 243.523 52.4773 243.299 52.608C243.085 52.7293 242.861 52.832 242.627 52.916C242.403 53 242.198 53.042 242.011 53.042L242.011 51.306C242.263 51.306 242.52 51.2407 242.781 51.11C243.043 50.9793 243.285 50.83 243.509 50.662C243.733 50.494 243.911 50.34 244.041 50.2C244.181 50.0507 244.256 49.9713 244.265 49.962L246.183 49.962L246.183 58.306L247.961 58.306ZM248.846 60C248.846 59.4307 248.884 58.9313 248.958 58.502C249.033 58.0633 249.15 57.676 249.308 57.34C249.476 56.9947 249.691 56.6913 249.952 56.43C250.214 56.1687 250.536 55.9213 250.918 55.688C251.245 55.5013 251.581 55.3193 251.926 55.142C252.281 54.9647 252.608 54.778 252.906 54.582C253.214 54.386 253.462 54.162 253.648 53.91C253.844 53.658 253.942 53.35 253.942 52.986C253.942 52.706 253.882 52.468 253.76 52.272C253.648 52.0667 253.48 51.908 253.256 51.796C253.042 51.684 252.78 51.628 252.472 51.628C252.118 51.628 251.786 51.6933 251.478 51.824C251.18 51.9453 250.909 52.0993 250.666 52.286C250.433 52.4633 250.232 52.6407 250.064 52.818L248.888 51.586C249.019 51.4367 249.196 51.2687 249.42 51.082C249.654 50.8953 249.929 50.7133 250.246 50.536C250.573 50.3587 250.942 50.214 251.352 50.102C251.763 49.99 252.216 49.934 252.71 49.934C253.438 49.934 254.05 50.0647 254.544 50.326C255.039 50.578 255.412 50.928 255.664 51.376C255.926 51.8147 256.056 52.3233 256.056 52.902C256.056 53.322 255.986 53.6953 255.846 54.022C255.716 54.3393 255.534 54.6193 255.3 54.862C255.067 55.1047 254.806 55.324 254.516 55.52C254.227 55.7067 253.928 55.8887 253.62 56.066C253.135 56.3273 252.743 56.556 252.444 56.752C252.146 56.948 251.908 57.13 251.73 57.298C251.562 57.466 251.432 57.634 251.338 57.802C251.254 57.9607 251.18 58.1287 251.114 58.306L256.07 58.306L256.07 60L248.846 60Z" fill="#FF5441"/>
<path d="M182.016 57.06C182.016 57.676 181.848 58.2127 181.512 58.67C181.185 59.1273 180.746 59.4867 180.196 59.748C179.645 60 179.043 60.126 178.39 60.126C177.727 60.126 177.12 59.9907 176.57 59.72C176.028 59.4493 175.594 59.0807 175.268 58.614C174.95 58.138 174.792 57.5967 174.792 56.99C174.792 56.6167 174.871 56.2807 175.03 55.982C175.188 55.674 175.384 55.4127 175.618 55.198C175.86 54.974 176.103 54.8013 176.346 54.68C176.122 54.568 175.912 54.4187 175.716 54.232C175.529 54.0453 175.38 53.8307 175.268 53.588C175.156 53.3453 175.1 53.0887 175.1 52.818C175.1 52.3793 175.198 51.9873 175.394 51.642C175.59 51.2967 175.851 51.0073 176.178 50.774C176.504 50.5313 176.859 50.354 177.242 50.242C177.634 50.1207 178.021 50.06 178.404 50.06C178.777 50.06 179.16 50.1207 179.552 50.242C179.944 50.354 180.303 50.5267 180.63 50.76C180.956 50.9933 181.218 51.2827 181.414 51.628C181.619 51.964 181.722 52.356 181.722 52.804C181.722 53.0653 181.661 53.322 181.54 53.574C181.428 53.8167 181.274 54.036 181.078 54.232C180.891 54.4187 180.676 54.568 180.434 54.68C180.704 54.82 180.961 55.002 181.204 55.226C181.446 55.45 181.642 55.716 181.792 56.024C181.941 56.332 182.016 56.6773 182.016 57.06ZM180.112 56.948C180.112 56.7053 180.065 56.4953 179.972 56.318C179.878 56.1313 179.748 55.9773 179.58 55.856C179.412 55.7253 179.225 55.6273 179.02 55.562C178.814 55.4967 178.604 55.464 178.39 55.464C178.091 55.464 177.811 55.5247 177.55 55.646C177.298 55.7673 177.092 55.94 176.934 56.164C176.775 56.388 176.696 56.6493 176.696 56.948C176.696 57.172 176.742 57.3773 176.836 57.564C176.938 57.7413 177.069 57.8953 177.228 58.026C177.396 58.1567 177.578 58.2593 177.774 58.334C177.979 58.3993 178.189 58.432 178.404 58.432C178.702 58.432 178.982 58.3667 179.244 58.236C179.505 58.1053 179.715 57.928 179.874 57.704C180.032 57.48 180.112 57.228 180.112 56.948ZM177.004 52.874C177.004 53.126 177.074 53.3407 177.214 53.518C177.354 53.6953 177.531 53.8307 177.746 53.924C177.97 54.008 178.189 54.05 178.404 54.05C178.628 54.05 178.842 54.0033 179.048 53.91C179.262 53.8167 179.44 53.686 179.58 53.518C179.729 53.3407 179.804 53.1213 179.804 52.86C179.804 52.6267 179.738 52.426 179.608 52.258C179.477 52.09 179.304 51.9593 179.09 51.866C178.884 51.7727 178.651 51.726 178.39 51.726C178.147 51.726 177.918 51.7727 177.704 51.866C177.489 51.9593 177.316 52.0947 177.186 52.272C177.064 52.44 177.004 52.6407 177.004 52.874Z" fill="#FF5441"/>
<path d="M108.148 60L108.148 57.746L103.962 57.746L103.962 56.066L108.736 50.06L110.024 50.06L110.024 56.052L111.256 56.052L111.256 57.746L110.024 57.746L110.024 60L108.148 60ZM105.852 56.052L108.358 56.052L108.358 52.888L105.852 56.052Z" fill="#FF5441"/>
<path d="M36.9918 60.14C36.2918 60.1307 35.6711 59.972 35.1298 59.664C34.5885 59.356 34.1358 58.95 33.7718 58.446C33.4078 57.942 33.1325 57.4007 32.9458 56.822C32.7685 56.234 32.6798 55.66 32.6798 55.1C32.6798 54.5027 32.7778 53.9053 32.9738 53.308C33.1698 52.7107 33.4545 52.1693 33.8278 51.684C34.2105 51.1893 34.6678 50.7973 35.1998 50.508C35.7318 50.2093 36.3291 50.06 36.9918 50.06C37.7105 50.06 38.3358 50.2187 38.8678 50.536C39.4091 50.8533 39.8618 51.264 40.2258 51.768C40.5898 52.272 40.8605 52.818 41.0378 53.406C41.2245 53.994 41.3178 54.5587 41.3178 55.1C41.3178 55.7067 41.2198 56.3087 41.0238 56.906C40.8278 57.494 40.5385 58.0307 40.1558 58.516C39.7825 59.0013 39.3298 59.3933 38.7978 59.692C38.2658 59.9813 37.6638 60.1307 36.9918 60.14ZM34.6258 55.1C34.6351 55.492 34.6865 55.884 34.7798 56.276C34.8825 56.6587 35.0271 57.0133 35.2138 57.34C35.4098 57.6667 35.6571 57.9327 35.9558 58.138C36.2545 58.334 36.5998 58.432 36.9918 58.432C37.4118 58.432 37.7711 58.3247 38.0698 58.11C38.3685 57.8953 38.6111 57.62 38.7978 57.284C38.9938 56.948 39.1385 56.5887 39.2318 56.206C39.3251 55.8233 39.3718 55.4547 39.3718 55.1C39.3718 54.708 39.3205 54.3207 39.2178 53.938C39.1245 53.546 38.9751 53.1867 38.7698 52.86C38.5738 52.5333 38.3265 52.272 38.0278 52.076C37.7385 51.8707 37.3931 51.768 36.9918 51.768C36.5811 51.768 36.2265 51.8753 35.9278 52.09C35.6291 52.3047 35.3818 52.58 35.1858 52.916C34.9991 53.252 34.8591 53.6113 34.7658 53.994C34.6725 54.3767 34.6258 54.7453 34.6258 55.1Z" fill="#FF5441"/>
<path opacity="0.4" d="M727.67 171.132L727.67 172L723.036 172L723.036 171.132L724.926 171.132L724.926 162.998C724.842 163.11 724.716 163.236 724.548 163.376C724.389 163.507 724.203 163.637 723.988 163.768C723.773 163.889 723.554 163.992 723.33 164.076C723.106 164.16 722.901 164.202 722.714 164.202L722.714 163.306C722.966 163.306 723.218 163.241 723.47 163.11C723.722 162.97 723.955 162.816 724.17 162.648C724.394 162.471 724.571 162.312 724.702 162.172C724.842 162.023 724.917 161.943 724.926 161.934L725.892 161.934L725.892 171.132L727.67 171.132ZM733.494 171.132L733.494 172L728.86 172L728.86 171.132L730.75 171.132L730.75 162.998C730.666 163.11 730.54 163.236 730.372 163.376C730.214 163.507 730.027 163.637 729.812 163.768C729.598 163.889 729.378 163.992 729.154 164.076C728.93 164.16 728.725 164.202 728.538 164.202L728.538 163.306C728.79 163.306 729.042 163.241 729.294 163.11C729.546 162.97 729.78 162.816 729.994 162.648C730.218 162.471 730.396 162.312 730.526 162.172C730.666 162.023 730.741 161.943 730.75 161.934L731.716 161.934L731.716 171.132L733.494 171.132ZM738.521 172.14C737.849 172.121 737.257 171.958 736.743 171.65C736.23 171.342 735.801 170.941 735.455 170.446C735.11 169.942 734.849 169.401 734.671 168.822C734.494 168.234 734.405 167.66 734.405 167.1C734.405 166.503 734.499 165.905 734.685 165.308C734.881 164.711 735.157 164.169 735.511 163.684C735.875 163.189 736.309 162.797 736.813 162.508C737.317 162.209 737.887 162.06 738.521 162.06C739.203 162.06 739.795 162.219 740.299 162.536C740.813 162.853 741.242 163.264 741.587 163.768C741.933 164.272 742.189 164.818 742.357 165.406C742.535 165.994 742.623 166.559 742.623 167.1C742.623 167.707 742.525 168.309 742.329 168.906C742.143 169.494 741.872 170.031 741.517 170.516C741.163 171.001 740.729 171.393 740.215 171.692C739.711 171.981 739.147 172.131 738.521 172.14ZM735.399 167.1C735.418 167.585 735.493 168.075 735.623 168.57C735.763 169.055 735.964 169.503 736.225 169.914C736.487 170.315 736.804 170.642 737.177 170.894C737.56 171.137 738.008 171.258 738.521 171.258C739.044 171.258 739.501 171.127 739.893 170.866C740.285 170.605 740.607 170.264 740.859 169.844C741.121 169.415 741.317 168.962 741.447 168.486C741.578 168.001 741.643 167.539 741.643 167.1C741.643 166.615 741.573 166.129 741.433 165.644C741.293 165.149 741.088 164.701 740.817 164.3C740.547 163.889 740.22 163.563 739.837 163.32C739.455 163.068 739.016 162.942 738.521 162.942C737.989 162.942 737.527 163.077 737.135 163.348C736.743 163.609 736.417 163.95 736.155 164.37C735.903 164.79 735.712 165.243 735.581 165.728C735.46 166.204 735.399 166.661 735.399 167.1ZM748.092 172.14C747.42 172.121 746.827 171.958 746.314 171.65C745.8 171.342 745.371 170.941 745.026 170.446C744.68 169.942 744.419 169.401 744.242 168.822C744.064 168.234 743.976 167.66 743.976 167.1C743.976 166.503 744.069 165.905 744.256 165.308C744.452 164.711 744.727 164.169 745.082 163.684C745.446 163.189 745.88 162.797 746.384 162.508C746.888 162.209 747.457 162.06 748.092 162.06C748.773 162.06 749.366 162.219 749.87 162.536C750.383 162.853 750.812 163.264 751.158 163.768C751.503 164.272 751.76 164.818 751.928 165.406C752.105 165.994 752.194 166.559 752.194 167.1C752.194 167.707 752.096 168.309 751.9 168.906C751.713 169.494 751.442 170.031 751.088 170.516C750.733 171.001 750.299 171.393 749.786 171.692C749.282 171.981 748.717 172.131 748.092 172.14ZM744.97 167.1C744.988 167.585 745.063 168.075 745.194 168.57C745.334 169.055 745.534 169.503 745.796 169.914C746.057 170.315 746.374 170.642 746.748 170.894C747.13 171.137 747.578 171.258 748.092 171.258C748.614 171.258 749.072 171.127 749.464 170.866C749.856 170.605 750.178 170.264 750.43 169.844C750.691 169.415 750.887 168.962 751.018 168.486C751.148 168.001 751.214 167.539 751.214 167.1C751.214 166.615 751.144 166.129 751.004 165.644C750.864 165.149 750.658 164.701 750.388 164.3C750.117 163.889 749.79 163.563 749.408 163.32C749.025 163.068 748.586 162.942 748.092 162.942C747.56 162.942 747.098 163.077 746.706 163.348C746.314 163.609 745.987 163.95 745.726 164.37C745.474 164.79 745.282 165.243 745.152 165.728C745.03 166.204 744.97 166.661 744.97 167.1Z" fill="white"/>
<path opacity="0.4" d="M656.523 171.132L656.523 172L651.889 172L651.889 171.132L653.779 171.132L653.779 162.998C653.695 163.11 653.569 163.236 653.401 163.376C653.243 163.507 653.056 163.637 652.841 163.768C652.627 163.889 652.407 163.992 652.183 164.076C651.959 164.16 651.754 164.202 651.567 164.202L651.567 163.306C651.819 163.306 652.071 163.241 652.323 163.11C652.575 162.97 652.809 162.816 653.023 162.648C653.247 162.471 653.425 162.312 653.555 162.172C653.695 162.023 653.77 161.943 653.779 161.934L654.745 161.934L654.745 171.132L656.523 171.132ZM661.551 172.14C660.879 172.121 660.286 171.958 659.773 171.65C659.259 171.342 658.83 170.941 658.485 170.446C658.139 169.942 657.878 169.401 657.701 168.822C657.523 168.234 657.435 167.66 657.435 167.1C657.435 166.503 657.528 165.905 657.715 165.308C657.911 164.711 658.186 164.169 658.541 163.684C658.905 163.189 659.339 162.797 659.843 162.508C660.347 162.209 660.916 162.06 661.551 162.06C662.232 162.06 662.825 162.219 663.329 162.536C663.842 162.853 664.271 163.264 664.617 163.768C664.962 164.272 665.219 164.818 665.387 165.406C665.564 165.994 665.653 166.559 665.653 167.1C665.653 167.707 665.555 168.309 665.359 168.906C665.172 169.494 664.901 170.031 664.547 170.516C664.192 171.001 663.758 171.393 663.245 171.692C662.741 171.981 662.176 172.131 661.551 172.14ZM658.429 167.1C658.447 167.585 658.522 168.075 658.653 168.57C658.793 169.055 658.993 169.503 659.255 169.914C659.516 170.315 659.833 170.642 660.207 170.894C660.589 171.137 661.037 171.258 661.551 171.258C662.073 171.258 662.531 171.127 662.923 170.866C663.315 170.605 663.637 170.264 663.889 169.844C664.15 169.415 664.346 168.962 664.477 168.486C664.607 168.001 664.673 167.539 664.673 167.1C664.673 166.615 664.603 166.129 664.463 165.644C664.323 165.149 664.117 164.701 663.847 164.3C663.576 163.889 663.249 163.563 662.867 163.32C662.484 163.068 662.045 162.942 661.551 162.942C661.019 162.942 660.557 163.077 660.165 163.348C659.773 163.609 659.446 163.95 659.185 164.37C658.933 164.79 658.741 165.243 658.611 165.728C658.489 166.204 658.429 166.661 658.429 167.1ZM671.121 172.14C670.449 172.121 669.856 171.958 669.343 171.65C668.83 171.342 668.4 170.941 668.055 170.446C667.71 169.942 667.448 169.401 667.271 168.822C667.094 168.234 667.005 167.66 667.005 167.1C667.005 166.503 667.098 165.905 667.285 165.308C667.481 164.711 667.756 164.169 668.111 163.684C668.475 163.189 668.909 162.797 669.413 162.508C669.917 162.209 670.486 162.06 671.121 162.06C671.802 162.06 672.395 162.219 672.899 162.536C673.412 162.853 673.842 163.264 674.187 163.768C674.532 164.272 674.789 164.818 674.957 165.406C675.134 165.994 675.223 166.559 675.223 167.1C675.223 167.707 675.125 168.309 674.929 168.906C674.742 169.494 674.472 170.031 674.117 170.516C673.762 171.001 673.328 171.393 672.815 171.692C672.311 171.981 671.746 172.131 671.121 172.14ZM667.999 167.1C668.018 167.585 668.092 168.075 668.223 168.57C668.363 169.055 668.564 169.503 668.825 169.914C669.086 170.315 669.404 170.642 669.777 170.894C670.16 171.137 670.608 171.258 671.121 171.258C671.644 171.258 672.101 171.127 672.493 170.866C672.885 170.605 673.207 170.264 673.459 169.844C673.72 169.415 673.916 168.962 674.047 168.486C674.178 168.001 674.243 167.539 674.243 167.1C674.243 166.615 674.173 166.129 674.033 165.644C673.893 165.149 673.688 164.701 673.417 164.3C673.146 163.889 672.82 163.563 672.437 163.32C672.054 163.068 671.616 162.942 671.121 162.942C670.589 162.942 670.127 163.077 669.735 163.348C669.343 163.609 669.016 163.95 668.755 164.37C668.503 164.79 668.312 165.243 668.181 165.728C668.06 166.204 667.999 166.661 667.999 167.1ZM680.691 172.14C680.019 172.121 679.427 171.958 678.913 171.65C678.4 171.342 677.971 170.941 677.625 170.446C677.28 169.942 677.019 169.401 676.841 168.822C676.664 168.234 676.575 167.66 676.575 167.1C676.575 166.503 676.669 165.905 676.855 165.308C677.051 164.711 677.327 164.169 677.681 163.684C678.045 163.189 678.479 162.797 678.983 162.508C679.487 162.209 680.057 162.06 680.691 162.06C681.373 162.06 681.965 162.219 682.469 162.536C682.983 162.853 683.412 163.264 683.757 163.768C684.103 164.272 684.359 164.818 684.527 165.406C684.705 165.994 684.793 166.559 684.793 167.1C684.793 167.707 684.695 168.309 684.499 168.906C684.313 169.494 684.042 170.031 683.687 170.516C683.333 171.001 682.899 171.393 682.385 171.692C681.881 171.981 681.317 172.131 680.691 172.14ZM677.569 167.1C677.588 167.585 677.663 168.075 677.793 168.57C677.933 169.055 678.134 169.503 678.395 169.914C678.657 170.315 678.974 170.642 679.347 170.894C679.73 171.137 680.178 171.258 680.691 171.258C681.214 171.258 681.671 171.127 682.063 170.866C682.455 170.605 682.777 170.264 683.029 169.844C683.291 169.415 683.487 168.962 683.617 168.486C683.748 168.001 683.813 167.539 683.813 167.1C683.813 166.615 683.743 166.129 683.603 165.644C683.463 165.149 683.258 164.701 682.987 164.3C682.717 163.889 682.39 163.563 682.007 163.32C681.625 163.068 681.186 162.942 680.691 162.942C680.159 162.942 679.697 163.077 679.305 163.348C678.913 163.609 678.587 163.95 678.325 164.37C678.073 164.79 677.882 165.243 677.751 165.728C677.63 166.204 677.569 166.661 677.569 167.1Z" fill="white"/>
<path opacity="0.4" d="M587.283 165.406C587.283 164.771 587.437 164.197 587.745 163.684C588.053 163.161 588.473 162.751 589.005 162.452C589.546 162.144 590.144 161.99 590.797 161.99C591.506 161.99 592.127 162.158 592.659 162.494C593.191 162.821 593.606 163.292 593.905 163.908C594.213 164.524 594.367 165.266 594.367 166.134C594.367 167.487 594.213 168.607 593.905 169.494C593.606 170.381 593.182 171.043 592.631 171.482C592.08 171.921 591.436 172.14 590.699 172.14C590.046 172.14 589.458 171.977 588.935 171.65C588.412 171.314 588.016 170.857 587.745 170.278L588.347 169.732C588.552 170.199 588.865 170.577 589.285 170.866C589.714 171.146 590.19 171.286 590.713 171.286C591.264 171.286 591.744 171.118 592.155 170.782C592.566 170.437 592.883 169.942 593.107 169.298C593.34 168.654 593.457 167.875 593.457 166.96C593.326 167.315 593.121 167.632 592.841 167.912C592.57 168.183 592.248 168.393 591.875 168.542C591.511 168.691 591.119 168.766 590.699 168.766C590.064 168.766 589.486 168.617 588.963 168.318C588.45 168.019 588.039 167.613 587.731 167.1C587.432 166.587 587.283 166.022 587.283 165.406ZM590.783 162.816C590.316 162.816 589.887 162.933 589.495 163.166C589.103 163.399 588.79 163.712 588.557 164.104C588.324 164.496 588.207 164.925 588.207 165.392C588.207 165.868 588.324 166.302 588.557 166.694C588.79 167.077 589.103 167.389 589.495 167.632C589.896 167.865 590.33 167.982 590.797 167.982C591.273 167.982 591.707 167.865 592.099 167.632C592.491 167.389 592.804 167.077 593.037 166.694C593.28 166.302 593.401 165.873 593.401 165.406C593.401 164.939 593.28 164.51 593.037 164.118C592.794 163.726 592.477 163.413 592.085 163.18C591.693 162.937 591.259 162.816 590.783 162.816ZM599.891 172.14C599.219 172.121 598.626 171.958 598.113 171.65C597.599 171.342 597.17 170.941 596.825 170.446C596.479 169.942 596.218 169.401 596.041 168.822C595.863 168.234 595.775 167.66 595.775 167.1C595.775 166.503 595.868 165.905 596.055 165.308C596.251 164.711 596.526 164.169 596.881 163.684C597.245 163.189 597.679 162.797 598.183 162.508C598.687 162.209 599.256 162.06 599.891 162.06C600.572 162.06 601.165 162.219 601.669 162.536C602.182 162.853 602.611 163.264 602.957 163.768C603.302 164.272 603.559 164.818 603.727 165.406C603.904 165.994 603.993 166.559 603.993 167.1C603.993 167.707 603.895 168.309 603.699 168.906C603.512 169.494 603.241 170.031 602.887 170.516C602.532 171.001 602.098 171.393 601.585 171.692C601.081 171.981 600.516 172.131 599.891 172.14ZM596.769 167.1C596.787 167.585 596.862 168.075 596.993 168.57C597.133 169.055 597.333 169.503 597.595 169.914C597.856 170.315 598.173 170.642 598.547 170.894C598.929 171.137 599.377 171.258 599.891 171.258C600.413 171.258 600.871 171.127 601.263 170.866C601.655 170.605 601.977 170.264 602.229 169.844C602.49 169.415 602.686 168.962 602.817 168.486C602.947 168.001 603.013 167.539 603.013 167.1C603.013 166.615 602.943 166.129 602.803 165.644C602.663 165.149 602.457 164.701 602.187 164.3C601.916 163.889 601.589 163.563 601.207 163.32C600.824 163.068 600.385 162.942 599.891 162.942C599.359 162.942 598.897 163.077 598.505 163.348C598.113 163.609 597.786 163.95 597.525 164.37C597.273 164.79 597.081 165.243 596.951 165.728C596.829 166.204 596.769 166.661 596.769 167.1ZM609.461 172.14C608.789 172.121 608.196 171.958 607.683 171.65C607.17 171.342 606.74 170.941 606.395 170.446C606.05 169.942 605.788 169.401 605.611 168.822C605.434 168.234 605.345 167.66 605.345 167.1C605.345 166.503 605.438 165.905 605.625 165.308C605.821 164.711 606.096 164.169 606.451 163.684C606.815 163.189 607.249 162.797 607.753 162.508C608.257 162.209 608.826 162.06 609.461 162.06C610.142 162.06 610.735 162.219 611.239 162.536C611.752 162.853 612.182 163.264 612.527 163.768C612.872 164.272 613.129 164.818 613.297 165.406C613.474 165.994 613.563 166.559 613.563 167.1C613.563 167.707 613.465 168.309 613.269 168.906C613.082 169.494 612.812 170.031 612.457 170.516C612.102 171.001 611.668 171.393 611.155 171.692C610.651 171.981 610.086 172.131 609.461 172.14ZM606.339 167.1C606.358 167.585 606.432 168.075 606.563 168.57C606.703 169.055 606.904 169.503 607.165 169.914C607.426 170.315 607.744 170.642 608.117 170.894C608.5 171.137 608.948 171.258 609.461 171.258C609.984 171.258 610.441 171.127 610.833 170.866C611.225 170.605 611.547 170.264 611.799 169.844C612.06 169.415 612.256 168.962 612.387 168.486C612.518 168.001 612.583 167.539 612.583 167.1C612.583 166.615 612.513 166.129 612.373 165.644C612.233 165.149 612.028 164.701 611.757 164.3C611.486 163.889 611.16 163.563 610.777 163.32C610.394 163.068 609.956 162.942 609.461 162.942C608.929 162.942 608.467 163.077 608.075 163.348C607.683 163.609 607.356 163.95 607.095 164.37C606.843 164.79 606.652 165.243 606.521 165.728C606.4 166.204 606.339 166.661 606.339 167.1Z" fill="white"/>
<path opacity="0.4" d="M530.064 169.242C530.064 169.821 529.901 170.325 529.574 170.754C529.257 171.183 528.832 171.519 528.3 171.762C527.777 171.995 527.203 172.112 526.578 172.112C525.915 172.112 525.327 171.981 524.814 171.72C524.301 171.449 523.895 171.095 523.596 170.656C523.307 170.217 523.162 169.727 523.162 169.186C523.162 168.766 523.26 168.388 523.456 168.052C523.661 167.707 523.913 167.417 524.212 167.184C524.52 166.951 524.833 166.783 525.15 166.68C524.861 166.559 524.59 166.4 524.338 166.204C524.086 165.999 523.885 165.761 523.736 165.49C523.587 165.219 523.512 164.921 523.512 164.594C523.512 164.183 523.601 163.824 523.778 163.516C523.965 163.199 524.207 162.933 524.506 162.718C524.805 162.494 525.136 162.331 525.5 162.228C525.873 162.116 526.247 162.06 526.62 162.06C526.984 162.06 527.348 162.116 527.712 162.228C528.085 162.331 528.421 162.489 528.72 162.704C529.028 162.919 529.271 163.185 529.448 163.502C529.635 163.81 529.728 164.169 529.728 164.58C529.728 164.907 529.649 165.21 529.49 165.49C529.341 165.761 529.14 165.999 528.888 166.204C528.636 166.4 528.361 166.559 528.062 166.68C528.426 166.801 528.757 166.988 529.056 167.24C529.364 167.483 529.607 167.772 529.784 168.108C529.971 168.444 530.064 168.822 530.064 169.242ZM529.098 169.172C529.098 168.836 529.023 168.542 528.874 168.29C528.734 168.029 528.538 167.809 528.286 167.632C528.043 167.455 527.773 167.319 527.474 167.226C527.185 167.133 526.891 167.086 526.592 167.086C526.191 167.086 525.799 167.175 525.416 167.352C525.043 167.52 524.735 167.763 524.492 168.08C524.259 168.388 524.142 168.757 524.142 169.186C524.142 169.513 524.212 169.802 524.352 170.054C524.501 170.306 524.697 170.525 524.94 170.712C525.183 170.889 525.449 171.025 525.738 171.118C526.037 171.211 526.335 171.258 526.634 171.258C527.035 171.258 527.423 171.174 527.796 171.006C528.179 170.829 528.491 170.581 528.734 170.264C528.977 169.947 529.098 169.583 529.098 169.172ZM524.464 164.636C524.464 164.991 524.571 165.299 524.786 165.56C525.01 165.812 525.29 166.003 525.626 166.134C525.962 166.265 526.289 166.33 526.606 166.33C526.942 166.33 527.273 166.265 527.6 166.134C527.936 165.994 528.211 165.798 528.426 165.546C528.65 165.285 528.762 164.972 528.762 164.608C528.762 164.253 528.659 163.95 528.454 163.698C528.249 163.446 527.978 163.255 527.642 163.124C527.315 162.993 526.965 162.928 526.592 162.928C526.237 162.928 525.892 162.998 525.556 163.138C525.229 163.269 524.963 163.465 524.758 163.726C524.562 163.978 524.464 164.281 524.464 164.636ZM535.549 172.14C534.877 172.121 534.284 171.958 533.771 171.65C533.257 171.342 532.828 170.941 532.483 170.446C532.137 169.942 531.876 169.401 531.699 168.822C531.521 168.234 531.433 167.66 531.433 167.1C531.433 166.503 531.526 165.905 531.713 165.308C531.909 164.711 532.184 164.169 532.539 163.684C532.903 163.189 533.337 162.797 533.841 162.508C534.345 162.209 534.914 162.06 535.549 162.06C536.23 162.06 536.823 162.219 537.327 162.536C537.84 162.853 538.269 163.264 538.615 163.768C538.96 164.272 539.217 164.818 539.385 165.406C539.562 165.994 539.651 166.559 539.651 167.1C539.651 167.707 539.553 168.309 539.357 168.906C539.17 169.494 538.899 170.031 538.545 170.516C538.19 171.001 537.756 171.393 537.243 171.692C536.739 171.981 536.174 172.131 535.549 172.14ZM532.427 167.1C532.445 167.585 532.52 168.075 532.651 168.57C532.791 169.055 532.991 169.503 533.253 169.914C533.514 170.315 533.831 170.642 534.205 170.894C534.587 171.137 535.035 171.258 535.549 171.258C536.071 171.258 536.529 171.127 536.921 170.866C537.313 170.605 537.635 170.264 537.887 169.844C538.148 169.415 538.344 168.962 538.475 168.486C538.605 168.001 538.671 167.539 538.671 167.1C538.671 166.615 538.601 166.129 538.461 165.644C538.321 165.149 538.115 164.701 537.845 164.3C537.574 163.889 537.247 163.563 536.865 163.32C536.482 163.068 536.043 162.942 535.549 162.942C535.017 162.942 534.555 163.077 534.163 163.348C533.771 163.609 533.444 163.95 533.183 164.37C532.931 164.79 532.739 165.243 532.609 165.728C532.487 166.204 532.427 166.661 532.427 167.1ZM545.119 172.14C544.447 172.121 543.854 171.958 543.341 171.65C542.828 171.342 542.398 170.941 542.053 170.446C541.708 169.942 541.446 169.401 541.269 168.822C541.092 168.234 541.003 167.66 541.003 167.1C541.003 166.503 541.096 165.905 541.283 165.308C541.479 164.711 541.754 164.169 542.109 163.684C542.473 163.189 542.907 162.797 543.411 162.508C543.915 162.209 544.484 162.06 545.119 162.06C545.8 162.06 546.393 162.219 546.897 162.536C547.41 162.853 547.84 163.264 548.185 163.768C548.53 164.272 548.787 164.818 548.955 165.406C549.132 165.994 549.221 166.559 549.221 167.1C549.221 167.707 549.123 168.309 548.927 168.906C548.74 169.494 548.47 170.031 548.115 170.516C547.76 171.001 547.326 171.393 546.813 171.692C546.309 171.981 545.744 172.131 545.119 172.14ZM541.997 167.1C542.016 167.585 542.09 168.075 542.221 168.57C542.361 169.055 542.562 169.503 542.823 169.914C543.084 170.315 543.402 170.642 543.775 170.894C544.158 171.137 544.606 171.258 545.119 171.258C545.642 171.258 546.099 171.127 546.491 170.866C546.883 170.605 547.205 170.264 547.457 169.844C547.718 169.415 547.914 168.962 548.045 168.486C548.176 168.001 548.241 167.539 548.241 167.1C548.241 166.615 548.171 166.129 548.031 165.644C547.891 165.149 547.686 164.701 547.415 164.3C547.144 163.889 546.818 163.563 546.435 163.32C546.052 163.068 545.614 162.942 545.119 162.942C544.587 162.942 544.125 163.077 543.733 163.348C543.341 163.609 543.014 163.95 542.753 164.37C542.501 164.79 542.31 165.243 542.179 165.728C542.058 166.204 541.997 166.661 541.997 167.1Z" fill="white"/>
<path opacity="0.4" d="M465.066 162.942L459.704 162.942L459.704 162.06L466.578 162.06L461.538 172L460.474 172L465.066 162.942ZM471.194 172.14C470.522 172.121 469.93 171.958 469.416 171.65C468.903 171.342 468.474 170.941 468.128 170.446C467.783 169.942 467.522 169.401 467.344 168.822C467.167 168.234 467.078 167.66 467.078 167.1C467.078 166.503 467.172 165.905 467.358 165.308C467.554 164.711 467.83 164.169 468.184 163.684C468.548 163.189 468.982 162.797 469.486 162.508C469.99 162.209 470.56 162.06 471.194 162.06C471.876 162.06 472.468 162.219 472.972 162.536C473.486 162.853 473.915 163.264 474.26 163.768C474.606 164.272 474.862 164.818 475.03 165.406C475.208 165.994 475.296 166.559 475.296 167.1C475.296 167.707 475.198 168.309 475.002 168.906C474.816 169.494 474.545 170.031 474.19 170.516C473.836 171.001 473.402 171.393 472.888 171.692C472.384 171.981 471.82 172.131 471.194 172.14ZM468.072 167.1C468.091 167.585 468.166 168.075 468.296 168.57C468.436 169.055 468.637 169.503 468.898 169.914C469.16 170.315 469.477 170.642 469.85 170.894C470.233 171.137 470.681 171.258 471.194 171.258C471.717 171.258 472.174 171.127 472.566 170.866C472.958 170.605 473.28 170.264 473.532 169.844C473.794 169.415 473.99 168.962 474.12 168.486C474.251 168.001 474.316 167.539 474.316 167.1C474.316 166.615 474.246 166.129 474.106 165.644C473.966 165.149 473.761 164.701 473.49 164.3C473.22 163.889 472.893 163.563 472.51 163.32C472.128 163.068 471.689 162.942 471.194 162.942C470.662 162.942 470.2 163.077 469.808 163.348C469.416 163.609 469.09 163.95 468.828 164.37C468.576 164.79 468.385 165.243 468.254 165.728C468.133 166.204 468.072 166.661 468.072 167.1ZM480.765 172.14C480.093 172.121 479.5 171.958 478.987 171.65C478.473 171.342 478.044 170.941 477.699 170.446C477.353 169.942 477.092 169.401 476.915 168.822C476.737 168.234 476.649 167.66 476.649 167.1C476.649 166.503 476.742 165.905 476.929 165.308C477.125 164.711 477.4 164.169 477.755 163.684C478.119 163.189 478.553 162.797 479.057 162.508C479.561 162.209 480.13 162.06 480.765 162.06C481.446 162.06 482.039 162.219 482.543 162.536C483.056 162.853 483.485 163.264 483.831 163.768C484.176 164.272 484.433 164.818 484.601 165.406C484.778 165.994 484.867 166.559 484.867 167.1C484.867 167.707 484.769 168.309 484.573 168.906C484.386 169.494 484.115 170.031 483.761 170.516C483.406 171.001 482.972 171.393 482.459 171.692C481.955 171.981 481.39 172.131 480.765 172.14ZM477.643 167.1C477.661 167.585 477.736 168.075 477.867 168.57C478.007 169.055 478.207 169.503 478.469 169.914C478.73 170.315 479.047 170.642 479.421 170.894C479.803 171.137 480.251 171.258 480.765 171.258C481.287 171.258 481.745 171.127 482.137 170.866C482.529 170.605 482.851 170.264 483.103 169.844C483.364 169.415 483.56 168.962 483.691 168.486C483.821 168.001 483.887 167.539 483.887 167.1C483.887 166.615 483.817 166.129 483.677 165.644C483.537 165.149 483.331 164.701 483.061 164.3C482.79 163.889 482.463 163.563 482.081 163.32C481.698 163.068 481.259 162.942 480.765 162.942C480.233 162.942 479.771 163.077 479.379 163.348C478.987 163.609 478.66 163.95 478.399 164.37C478.147 164.79 477.955 165.243 477.825 165.728C477.703 166.204 477.643 166.661 477.643 167.1Z" fill="white"/>
<path opacity="0.4" d="M402.675 168.724C402.675 169.349 402.516 169.923 402.199 170.446C401.891 170.959 401.471 171.37 400.939 171.678C400.407 171.986 399.809 172.14 399.147 172.14C398.456 172.14 397.84 171.977 397.299 171.65C396.767 171.314 396.347 170.833 396.039 170.208C395.731 169.583 395.577 168.841 395.577 167.982C395.577 166.629 395.731 165.513 396.039 164.636C396.347 163.749 396.776 163.087 397.327 162.648C397.877 162.209 398.517 161.99 399.245 161.99C399.907 161.99 400.5 162.158 401.023 162.494C401.545 162.821 401.942 163.269 402.213 163.838L401.597 164.398C401.401 163.922 401.088 163.544 400.659 163.264C400.239 162.975 399.767 162.83 399.245 162.83C398.694 162.83 398.213 163.003 397.803 163.348C397.392 163.693 397.07 164.188 396.837 164.832C396.613 165.476 396.501 166.255 396.501 167.17C396.641 166.806 396.846 166.489 397.117 166.218C397.387 165.947 397.705 165.737 398.069 165.588C398.442 165.439 398.839 165.364 399.259 165.364C399.893 165.364 400.467 165.513 400.981 165.812C401.503 166.111 401.914 166.517 402.213 167.03C402.521 167.534 402.675 168.099 402.675 168.724ZM399.175 171.3C399.641 171.3 400.071 171.183 400.463 170.95C400.855 170.717 401.167 170.404 401.401 170.012C401.643 169.62 401.765 169.191 401.765 168.724C401.765 168.257 401.643 167.828 401.401 167.436C401.167 167.044 400.855 166.731 400.463 166.498C400.071 166.265 399.641 166.148 399.175 166.148C398.699 166.148 398.26 166.265 397.859 166.498C397.467 166.731 397.154 167.044 396.921 167.436C396.687 167.819 396.571 168.248 396.571 168.724C396.571 169.191 396.687 169.62 396.921 170.012C397.163 170.404 397.481 170.717 397.873 170.95C398.265 171.183 398.699 171.3 399.175 171.3ZM408.072 172.14C407.4 172.121 406.808 171.958 406.294 171.65C405.781 171.342 405.352 170.941 405.006 170.446C404.661 169.942 404.4 169.401 404.222 168.822C404.045 168.234 403.956 167.66 403.956 167.1C403.956 166.503 404.05 165.905 404.236 165.308C404.432 164.711 404.708 164.169 405.062 163.684C405.426 163.189 405.86 162.797 406.364 162.508C406.868 162.209 407.438 162.06 408.072 162.06C408.754 162.06 409.346 162.219 409.85 162.536C410.364 162.853 410.793 163.264 411.138 163.768C411.484 164.272 411.74 164.818 411.908 165.406C412.086 165.994 412.174 166.559 412.174 167.1C412.174 167.707 412.076 168.309 411.88 168.906C411.694 169.494 411.423 170.031 411.068 170.516C410.714 171.001 410.28 171.393 409.766 171.692C409.262 171.981 408.698 172.131 408.072 172.14ZM404.95 167.1C404.969 167.585 405.044 168.075 405.174 168.57C405.314 169.055 405.515 169.503 405.776 169.914C406.038 170.315 406.355 170.642 406.728 170.894C407.111 171.137 407.559 171.258 408.072 171.258C408.595 171.258 409.052 171.127 409.444 170.866C409.836 170.605 410.158 170.264 410.41 169.844C410.672 169.415 410.868 168.962 410.998 168.486C411.129 168.001 411.194 167.539 411.194 167.1C411.194 166.615 411.124 166.129 410.984 165.644C410.844 165.149 410.639 164.701 410.368 164.3C410.098 163.889 409.771 163.563 409.388 163.32C409.006 163.068 408.567 162.942 408.072 162.942C407.54 162.942 407.078 163.077 406.686 163.348C406.294 163.609 405.968 163.95 405.706 164.37C405.454 164.79 405.263 165.243 405.132 165.728C405.011 166.204 404.95 166.661 404.95 167.1ZM417.642 172.14C416.97 172.121 416.378 171.958 415.864 171.65C415.351 171.342 414.922 170.941 414.576 170.446C414.231 169.942 413.97 169.401 413.792 168.822C413.615 168.234 413.526 167.66 413.526 167.1C413.526 166.503 413.62 165.905 413.806 165.308C414.002 164.711 414.278 164.169 414.632 163.684C414.996 163.189 415.43 162.797 415.934 162.508C416.438 162.209 417.008 162.06 417.642 162.06C418.324 162.06 418.916 162.219 419.42 162.536C419.934 162.853 420.363 163.264 420.708 163.768C421.054 164.272 421.31 164.818 421.478 165.406C421.656 165.994 421.744 166.559 421.744 167.1C421.744 167.707 421.646 168.309 421.45 168.906C421.264 169.494 420.993 170.031 420.638 170.516C420.284 171.001 419.85 171.393 419.336 171.692C418.832 171.981 418.268 172.131 417.642 172.14ZM414.52 167.1C414.539 167.585 414.614 168.075 414.744 168.57C414.884 169.055 415.085 169.503 415.346 169.914C415.608 170.315 415.925 170.642 416.298 170.894C416.681 171.137 417.129 171.258 417.642 171.258C418.165 171.258 418.622 171.127 419.014 170.866C419.406 170.605 419.728 170.264 419.98 169.844C420.242 169.415 420.438 168.962 420.568 168.486C420.699 168.001 420.764 167.539 420.764 167.1C420.764 166.615 420.694 166.129 420.554 165.644C420.414 165.149 420.209 164.701 419.938 164.3C419.668 163.889 419.341 163.563 418.958 163.32C418.576 163.068 418.137 162.942 417.642 162.942C417.11 162.942 416.648 163.077 416.256 163.348C415.864 163.609 415.538 163.95 415.276 164.37C415.024 164.79 414.833 165.243 414.702 165.728C414.581 166.204 414.52 166.661 414.52 167.1Z" fill="white"/>
<path opacity="0.4" d="M335.155 172.14C334.446 172.14 333.807 171.967 333.237 171.622C332.677 171.267 332.253 170.801 331.963 170.222L332.607 169.746C332.859 170.203 333.214 170.572 333.671 170.852C334.129 171.132 334.628 171.272 335.169 171.272C335.636 171.272 336.051 171.169 336.415 170.964C336.789 170.759 337.083 170.479 337.297 170.124C337.521 169.76 337.633 169.34 337.633 168.864C337.633 168.407 337.526 168.005 337.311 167.66C337.097 167.305 336.812 167.03 336.457 166.834C336.103 166.629 335.701 166.526 335.253 166.526C334.824 166.526 334.413 166.624 334.021 166.82C333.629 167.016 333.312 167.291 333.069 167.646L332.173 167.646L333.293 162.06L338.095 162.06L338.095 162.942L334.007 162.942L333.307 166.512C333.55 166.251 333.849 166.05 334.203 165.91C334.567 165.761 334.955 165.686 335.365 165.686C335.972 165.686 336.518 165.821 337.003 166.092C337.498 166.363 337.885 166.736 338.165 167.212C338.455 167.679 338.599 168.225 338.599 168.85C338.599 169.494 338.445 170.068 338.137 170.572C337.829 171.067 337.414 171.454 336.891 171.734C336.378 172.005 335.799 172.14 335.155 172.14ZM343.971 172.14C343.299 172.121 342.706 171.958 342.193 171.65C341.679 171.342 341.25 170.941 340.905 170.446C340.559 169.942 340.298 169.401 340.121 168.822C339.943 168.234 339.855 167.66 339.855 167.1C339.855 166.503 339.948 165.905 340.135 165.308C340.331 164.711 340.606 164.169 340.961 163.684C341.325 163.189 341.759 162.797 342.263 162.508C342.767 162.209 343.336 162.06 343.971 162.06C344.652 162.06 345.245 162.219 345.749 162.536C346.262 162.853 346.691 163.264 347.037 163.768C347.382 164.272 347.639 164.818 347.807 165.406C347.984 165.994 348.073 166.559 348.073 167.1C348.073 167.707 347.975 168.309 347.779 168.906C347.592 169.494 347.321 170.031 346.967 170.516C346.612 171.001 346.178 171.393 345.665 171.692C345.161 171.981 344.596 172.131 343.971 172.14ZM340.849 167.1C340.867 167.585 340.942 168.075 341.073 168.57C341.213 169.055 341.413 169.503 341.675 169.914C341.936 170.315 342.253 170.642 342.627 170.894C343.009 171.137 343.457 171.258 343.971 171.258C344.493 171.258 344.951 171.127 345.343 170.866C345.735 170.605 346.057 170.264 346.309 169.844C346.57 169.415 346.766 168.962 346.897 168.486C347.027 168.001 347.093 167.539 347.093 167.1C347.093 166.615 347.023 166.129 346.883 165.644C346.743 165.149 346.537 164.701 346.267 164.3C345.996 163.889 345.669 163.563 345.287 163.32C344.904 163.068 344.465 162.942 343.971 162.942C343.439 162.942 342.977 163.077 342.585 163.348C342.193 163.609 341.866 163.95 341.605 164.37C341.353 164.79 341.161 165.243 341.031 165.728C340.909 166.204 340.849 166.661 340.849 167.1ZM353.541 172.14C352.869 172.121 352.276 171.958 351.763 171.65C351.25 171.342 350.82 170.941 350.475 170.446C350.13 169.942 349.868 169.401 349.691 168.822C349.514 168.234 349.425 167.66 349.425 167.1C349.425 166.503 349.518 165.905 349.705 165.308C349.901 164.711 350.176 164.169 350.531 163.684C350.895 163.189 351.329 162.797 351.833 162.508C352.337 162.209 352.906 162.06 353.541 162.06C354.222 162.06 354.815 162.219 355.319 162.536C355.832 162.853 356.262 163.264 356.607 163.768C356.952 164.272 357.209 164.818 357.377 165.406C357.554 165.994 357.643 166.559 357.643 167.1C357.643 167.707 357.545 168.309 357.349 168.906C357.162 169.494 356.892 170.031 356.537 170.516C356.182 171.001 355.748 171.393 355.235 171.692C354.731 171.981 354.166 172.131 353.541 172.14ZM350.419 167.1C350.438 167.585 350.512 168.075 350.643 168.57C350.783 169.055 350.984 169.503 351.245 169.914C351.506 170.315 351.824 170.642 352.197 170.894C352.58 171.137 353.028 171.258 353.541 171.258C354.064 171.258 354.521 171.127 354.913 170.866C355.305 170.605 355.627 170.264 355.879 169.844C356.14 169.415 356.336 168.962 356.467 168.486C356.598 168.001 356.663 167.539 356.663 167.1C356.663 166.615 356.593 166.129 356.453 165.644C356.313 165.149 356.108 164.701 355.837 164.3C355.566 163.889 355.24 163.563 354.857 163.32C354.474 163.068 354.036 162.942 353.541 162.942C353.009 162.942 352.547 163.077 352.155 163.348C351.763 163.609 351.436 163.95 351.175 164.37C350.923 164.79 350.732 165.243 350.601 165.728C350.48 166.204 350.419 166.661 350.419 167.1Z" fill="white"/>
<path opacity="0.4" d="M272.786 172L272.786 169.34L267.9 169.34L267.9 168.486L273.08 162.06L273.738 162.06L273.738 168.472L274.97 168.472L274.97 169.34L273.738 169.34L273.738 172L272.786 172ZM268.922 168.472L272.87 168.472L272.87 163.544L268.922 168.472ZM280.295 172.14C279.623 172.121 279.03 171.958 278.517 171.65C278.004 171.342 277.574 170.941 277.229 170.446C276.884 169.942 276.622 169.401 276.445 168.822C276.268 168.234 276.179 167.66 276.179 167.1C276.179 166.503 276.272 165.905 276.459 165.308C276.655 164.711 276.93 164.169 277.285 163.684C277.649 163.189 278.083 162.797 278.587 162.508C279.091 162.209 279.66 162.06 280.295 162.06C280.976 162.06 281.569 162.219 282.073 162.536C282.586 162.853 283.016 163.264 283.361 163.768C283.706 164.272 283.963 164.818 284.131 165.406C284.308 165.994 284.397 166.559 284.397 167.1C284.397 167.707 284.299 168.309 284.103 168.906C283.916 169.494 283.646 170.031 283.291 170.516C282.936 171.001 282.502 171.393 281.989 171.692C281.485 171.981 280.92 172.131 280.295 172.14ZM277.173 167.1C277.192 167.585 277.266 168.075 277.397 168.57C277.537 169.055 277.738 169.503 277.999 169.914C278.26 170.315 278.578 170.642 278.951 170.894C279.334 171.137 279.782 171.258 280.295 171.258C280.818 171.258 281.275 171.127 281.667 170.866C282.059 170.605 282.381 170.264 282.633 169.844C282.894 169.415 283.09 168.962 283.221 168.486C283.352 168.001 283.417 167.539 283.417 167.1C283.417 166.615 283.347 166.129 283.207 165.644C283.067 165.149 282.862 164.701 282.591 164.3C282.32 163.889 281.994 163.563 281.611 163.32C281.228 163.068 280.79 162.942 280.295 162.942C279.763 162.942 279.301 163.077 278.909 163.348C278.517 163.609 278.19 163.95 277.929 164.37C277.677 164.79 277.486 165.243 277.355 165.728C277.234 166.204 277.173 166.661 277.173 167.1ZM289.865 172.14C289.193 172.121 288.6 171.958 288.087 171.65C287.574 171.342 287.144 170.941 286.799 170.446C286.454 169.942 286.192 169.401 286.015 168.822C285.838 168.234 285.749 167.66 285.749 167.1C285.749 166.503 285.842 165.905 286.029 165.308C286.225 164.711 286.5 164.169 286.855 163.684C287.219 163.189 287.653 162.797 288.157 162.508C288.661 162.209 289.23 162.06 289.865 162.06C290.546 162.06 291.139 162.219 291.643 162.536C292.156 162.853 292.586 163.264 292.931 163.768C293.276 164.272 293.533 164.818 293.701 165.406C293.878 165.994 293.967 166.559 293.967 167.1C293.967 167.707 293.869 168.309 293.673 168.906C293.486 169.494 293.216 170.031 292.861 170.516C292.506 171.001 292.072 171.393 291.559 171.692C291.055 171.981 290.49 172.131 289.865 172.14ZM286.743 167.1C286.762 167.585 286.836 168.075 286.967 168.57C287.107 169.055 287.308 169.503 287.569 169.914C287.83 170.315 288.148 170.642 288.521 170.894C288.904 171.137 289.352 171.258 289.865 171.258C290.388 171.258 290.845 171.127 291.237 170.866C291.629 170.605 291.951 170.264 292.203 169.844C292.464 169.415 292.66 168.962 292.791 168.486C292.922 168.001 292.987 167.539 292.987 167.1C292.987 166.615 292.917 166.129 292.777 165.644C292.637 165.149 292.432 164.701 292.161 164.3C291.89 163.889 291.564 163.563 291.181 163.32C290.798 163.068 290.36 162.942 289.865 162.942C289.333 162.942 288.871 163.077 288.479 163.348C288.087 163.609 287.76 163.95 287.499 164.37C287.247 164.79 287.056 165.243 286.925 165.728C286.804 166.204 286.743 166.661 286.743 167.1Z" fill="white"/>
<path d="M206.715 172.098C206.183 172.098 205.698 172.033 205.259 171.902C204.83 171.762 204.452 171.566 204.125 171.314C203.808 171.053 203.556 170.745 203.369 170.39L204.377 169.116C204.471 169.321 204.62 169.522 204.825 169.718C205.031 169.914 205.287 170.073 205.595 170.194C205.903 170.315 206.253 170.376 206.645 170.376C207.028 170.376 207.359 170.32 207.639 170.208C207.919 170.096 208.134 169.942 208.283 169.746C208.442 169.541 208.521 169.293 208.521 169.004C208.521 168.696 208.423 168.435 208.227 168.22C208.041 168.005 207.761 167.842 207.387 167.73C207.014 167.618 206.557 167.562 206.015 167.562L205.553 167.562L205.553 166.162L206.043 166.162C206.715 166.162 207.252 166.045 207.653 165.812C208.064 165.579 208.269 165.247 208.269 164.818C208.269 164.557 208.199 164.333 208.059 164.146C207.919 163.95 207.733 163.805 207.499 163.712C207.266 163.609 207.009 163.558 206.729 163.558C206.263 163.558 205.847 163.67 205.483 163.894C205.129 164.109 204.858 164.389 204.671 164.734L203.453 163.376C203.659 163.077 203.939 162.825 204.293 162.62C204.648 162.405 205.045 162.237 205.483 162.116C205.931 161.995 206.393 161.934 206.869 161.934C207.532 161.934 208.12 162.051 208.633 162.284C209.147 162.508 209.548 162.816 209.837 163.208C210.127 163.6 210.271 164.048 210.271 164.552C210.271 164.925 210.192 165.266 210.033 165.574C209.884 165.882 209.669 166.139 209.389 166.344C209.109 166.549 208.778 166.699 208.395 166.792C208.806 166.857 209.165 167.011 209.473 167.254C209.791 167.487 210.033 167.786 210.201 168.15C210.379 168.505 210.467 168.892 210.467 169.312C210.467 169.9 210.299 170.399 209.963 170.81C209.637 171.221 209.189 171.538 208.619 171.762C208.059 171.986 207.425 172.098 206.715 172.098ZM215.997 172.14C215.297 172.131 214.676 171.972 214.135 171.664C213.593 171.356 213.141 170.95 212.777 170.446C212.413 169.942 212.137 169.401 211.951 168.822C211.773 168.234 211.685 167.66 211.685 167.1C211.685 166.503 211.783 165.905 211.979 165.308C212.175 164.711 212.459 164.169 212.833 163.684C213.215 163.189 213.673 162.797 214.205 162.508C214.737 162.209 215.334 162.06 215.997 162.06C216.715 162.06 217.341 162.219 217.873 162.536C218.414 162.853 218.867 163.264 219.231 163.768C219.595 164.272 219.865 164.818 220.043 165.406C220.229 165.994 220.323 166.559 220.323 167.1C220.323 167.707 220.225 168.309 220.029 168.906C219.833 169.494 219.543 170.031 219.161 170.516C218.787 171.001 218.335 171.393 217.803 171.692C217.271 171.981 216.669 172.131 215.997 172.14ZM213.631 167.1C213.64 167.492 213.691 167.884 213.785 168.276C213.887 168.659 214.032 169.013 214.219 169.34C214.415 169.667 214.662 169.933 214.961 170.138C215.259 170.334 215.605 170.432 215.997 170.432C216.417 170.432 216.776 170.325 217.075 170.11C217.373 169.895 217.616 169.62 217.803 169.284C217.999 168.948 218.143 168.589 218.237 168.206C218.33 167.823 218.377 167.455 218.377 167.1C218.377 166.708 218.325 166.321 218.223 165.938C218.129 165.546 217.98 165.187 217.775 164.86C217.579 164.533 217.331 164.272 217.033 164.076C216.743 163.871 216.398 163.768 215.997 163.768C215.586 163.768 215.231 163.875 214.933 164.09C214.634 164.305 214.387 164.58 214.191 164.916C214.004 165.252 213.864 165.611 213.771 165.994C213.677 166.377 213.631 166.745 213.631 167.1ZM225.813 172.14C225.113 172.131 224.492 171.972 223.951 171.664C223.41 171.356 222.957 170.95 222.593 170.446C222.229 169.942 221.954 169.401 221.767 168.822C221.59 168.234 221.501 167.66 221.501 167.1C221.501 166.503 221.599 165.905 221.795 165.308C221.991 164.711 222.276 164.169 222.649 163.684C223.032 163.189 223.489 162.797 224.021 162.508C224.553 162.209 225.15 162.06 225.813 162.06C226.532 162.06 227.157 162.219 227.689 162.536C228.23 162.853 228.683 163.264 229.047 163.768C229.411 164.272 229.682 164.818 229.859 165.406C230.046 165.994 230.139 166.559 230.139 167.1C230.139 167.707 230.041 168.309 229.845 168.906C229.649 169.494 229.36 170.031 228.977 170.516C228.604 171.001 228.151 171.393 227.619 171.692C227.087 171.981 226.485 172.131 225.813 172.14ZM223.447 167.1C223.456 167.492 223.508 167.884 223.601 168.276C223.704 168.659 223.848 169.013 224.035 169.34C224.231 169.667 224.478 169.933 224.777 170.138C225.076 170.334 225.421 170.432 225.813 170.432C226.233 170.432 226.592 170.325 226.891 170.11C227.19 169.895 227.432 169.62 227.619 169.284C227.815 168.948 227.96 168.589 228.053 168.206C228.146 167.823 228.193 167.455 228.193 167.1C228.193 166.708 228.142 166.321 228.039 165.938C227.946 165.546 227.796 165.187 227.591 164.86C227.395 164.533 227.148 164.272 226.849 164.076C226.56 163.871 226.214 163.768 225.813 163.768C225.402 163.768 225.048 163.875 224.749 164.09C224.45 164.305 224.203 164.58 224.007 164.916C223.82 165.252 223.68 165.611 223.587 165.994C223.494 166.377 223.447 166.745 223.447 167.1Z" fill="#FF5441"/>
<path d="M138.544 172C138.544 171.431 138.581 170.931 138.656 170.502C138.73 170.063 138.847 169.676 139.006 169.34C139.174 168.995 139.388 168.691 139.65 168.43C139.911 168.169 140.233 167.921 140.616 167.688C140.942 167.501 141.278 167.319 141.624 167.142C141.978 166.965 142.305 166.778 142.604 166.582C142.912 166.386 143.159 166.162 143.346 165.91C143.542 165.658 143.64 165.35 143.64 164.986C143.64 164.706 143.579 164.468 143.458 164.272C143.346 164.067 143.178 163.908 142.954 163.796C142.739 163.684 142.478 163.628 142.17 163.628C141.815 163.628 141.484 163.693 141.176 163.824C140.877 163.945 140.606 164.099 140.364 164.286C140.13 164.463 139.93 164.641 139.762 164.818L138.586 163.586C138.716 163.437 138.894 163.269 139.118 163.082C139.351 162.895 139.626 162.713 139.944 162.536C140.27 162.359 140.639 162.214 141.05 162.102C141.46 161.99 141.913 161.934 142.408 161.934C143.136 161.934 143.747 162.065 144.242 162.326C144.736 162.578 145.11 162.928 145.362 163.376C145.623 163.815 145.754 164.323 145.754 164.902C145.754 165.322 145.684 165.695 145.544 166.022C145.413 166.339 145.231 166.619 144.998 166.862C144.764 167.105 144.503 167.324 144.214 167.52C143.924 167.707 143.626 167.889 143.318 168.066C142.832 168.327 142.44 168.556 142.142 168.752C141.843 168.948 141.605 169.13 141.428 169.298C141.26 169.466 141.129 169.634 141.036 169.802C140.952 169.961 140.877 170.129 140.812 170.306L145.768 170.306L145.768 172L138.544 172ZM151.387 172.14C150.687 172.131 150.067 171.972 149.525 171.664C148.984 171.356 148.531 170.95 148.167 170.446C147.803 169.942 147.528 169.401 147.341 168.822C147.164 168.234 147.075 167.66 147.075 167.1C147.075 166.503 147.173 165.905 147.369 165.308C147.565 164.711 147.85 164.169 148.223 163.684C148.606 163.189 149.063 162.797 149.595 162.508C150.127 162.209 150.725 162.06 151.387 162.06C152.106 162.06 152.731 162.219 153.263 162.536C153.805 162.853 154.257 163.264 154.621 163.768C154.985 164.272 155.256 164.818 155.433 165.406C155.62 165.994 155.713 166.559 155.713 167.1C155.713 167.707 155.615 168.309 155.419 168.906C155.223 169.494 154.934 170.031 154.551 170.516C154.178 171.001 153.725 171.393 153.193 171.692C152.661 171.981 152.059 172.131 151.387 172.14ZM149.021 167.1C149.031 167.492 149.082 167.884 149.175 168.276C149.278 168.659 149.423 169.013 149.609 169.34C149.805 169.667 150.053 169.933 150.351 170.138C150.65 170.334 150.995 170.432 151.387 170.432C151.807 170.432 152.167 170.325 152.465 170.11C152.764 169.895 153.007 169.62 153.193 169.284C153.389 168.948 153.534 168.589 153.627 168.206C153.721 167.823 153.767 167.455 153.767 167.1C153.767 166.708 153.716 166.321 153.613 165.938C153.52 165.546 153.371 165.187 153.165 164.86C152.969 164.533 152.722 164.272 152.423 164.076C152.134 163.871 151.789 163.768 151.387 163.768C150.977 163.768 150.622 163.875 150.323 164.09C150.025 164.305 149.777 164.58 149.581 164.916C149.395 165.252 149.255 165.611 149.161 165.994C149.068 166.377 149.021 166.745 149.021 167.1ZM161.204 172.14C160.504 172.131 159.883 171.972 159.342 171.664C158.8 171.356 158.348 170.95 157.984 170.446C157.62 169.942 157.344 169.401 157.158 168.822C156.98 168.234 156.892 167.66 156.892 167.1C156.892 166.503 156.99 165.905 157.186 165.308C157.382 164.711 157.666 164.169 158.04 163.684C158.422 163.189 158.88 162.797 159.412 162.508C159.944 162.209 160.541 162.06 161.204 162.06C161.922 162.06 162.548 162.219 163.08 162.536C163.621 162.853 164.074 163.264 164.438 163.768C164.802 164.272 165.072 164.818 165.25 165.406C165.436 165.994 165.53 166.559 165.53 167.1C165.53 167.707 165.432 168.309 165.236 168.906C165.04 169.494 164.75 170.031 164.368 170.516C163.994 171.001 163.542 171.393 163.01 171.692C162.478 171.981 161.876 172.131 161.204 172.14ZM158.838 167.1C158.847 167.492 158.898 167.884 158.992 168.276C159.094 168.659 159.239 169.013 159.426 169.34C159.622 169.667 159.869 169.933 160.168 170.138C160.466 170.334 160.812 170.432 161.204 170.432C161.624 170.432 161.983 170.325 162.282 170.11C162.58 169.895 162.823 169.62 163.01 169.284C163.206 168.948 163.35 168.589 163.444 168.206C163.537 167.823 163.584 167.455 163.584 167.1C163.584 166.708 163.532 166.321 163.43 165.938C163.336 165.546 163.187 165.187 162.982 164.86C162.786 164.533 162.538 164.272 162.24 164.076C161.95 163.871 161.605 163.768 161.204 163.768C160.793 163.768 160.438 163.875 160.14 164.09C159.841 164.305 159.594 164.58 159.398 164.916C159.211 165.252 159.071 165.611 158.978 165.994C158.884 166.377 158.838 166.745 158.838 167.1Z" fill="#FF5441"/>
<path d="M81.0774 170.306L81.0774 172L75.4494 172L75.4494 170.306L77.3814 170.306L77.3814 163.838C77.3067 163.95 77.1807 164.076 77.0034 164.216C76.8354 164.347 76.6394 164.477 76.4154 164.608C76.2007 164.729 75.9767 164.832 75.7434 164.916C75.5194 165 75.3141 165.042 75.1274 165.042L75.1274 163.306C75.3794 163.306 75.6361 163.241 75.8974 163.11C76.1587 162.979 76.4014 162.83 76.6254 162.662C76.8494 162.494 77.0267 162.34 77.1574 162.2C77.2974 162.051 77.3721 161.971 77.3814 161.962L79.2994 161.962L79.2994 170.306L81.0774 170.306ZM86.2887 172.14C85.5887 172.131 84.968 171.972 84.4267 171.664C83.8853 171.356 83.4327 170.95 83.0687 170.446C82.7047 169.942 82.4293 169.401 82.2427 168.822C82.0653 168.234 81.9767 167.66 81.9767 167.1C81.9767 166.503 82.0747 165.905 82.2707 165.308C82.4667 164.711 82.7513 164.169 83.1247 163.684C83.5073 163.189 83.9647 162.797 84.4967 162.508C85.0287 162.209 85.626 162.06 86.2887 162.06C87.0073 162.06 87.6327 162.219 88.1647 162.536C88.706 162.853 89.1587 163.264 89.5227 163.768C89.8867 164.272 90.1573 164.818 90.3347 165.406C90.5213 165.994 90.6147 166.559 90.6147 167.1C90.6147 167.707 90.5167 168.309 90.3207 168.906C90.1247 169.494 89.8353 170.031 89.4527 170.516C89.0793 171.001 88.6267 171.393 88.0947 171.692C87.5627 171.981 86.9607 172.131 86.2887 172.14ZM83.9227 167.1C83.932 167.492 83.9833 167.884 84.0767 168.276C84.1793 168.659 84.324 169.013 84.5107 169.34C84.7067 169.667 84.954 169.933 85.2527 170.138C85.5513 170.334 85.8967 170.432 86.2887 170.432C86.7087 170.432 87.068 170.325 87.3667 170.11C87.6653 169.895 87.908 169.62 88.0947 169.284C88.2907 168.948 88.4353 168.589 88.5287 168.206C88.622 167.823 88.6687 167.455 88.6687 167.1C88.6687 166.708 88.6173 166.321 88.5147 165.938C88.4213 165.546 88.272 165.187 88.0667 164.86C87.8707 164.533 87.6233 164.272 87.3247 164.076C87.0353 163.871 86.69 163.768 86.2887 163.768C85.878 163.768 85.5233 163.875 85.2247 164.09C84.926 164.305 84.6787 164.58 84.4827 164.916C84.296 165.252 84.156 165.611 84.0627 165.994C83.9693 166.377 83.9227 166.745 83.9227 167.1ZM96.1051 172.14C95.4051 172.131 94.7844 171.972 94.2431 171.664C93.7017 171.356 93.2491 170.95 92.8851 170.446C92.5211 169.942 92.2457 169.401 92.0591 168.822C91.8817 168.234 91.7931 167.66 91.7931 167.1C91.7931 166.503 91.8911 165.905 92.0871 165.308C92.2831 164.711 92.5677 164.169 92.9411 163.684C93.3237 163.189 93.7811 162.797 94.3131 162.508C94.8451 162.209 95.4424 162.06 96.1051 162.06C96.8237 162.06 97.4491 162.219 97.9811 162.536C98.5224 162.853 98.9751 163.264 99.3391 163.768C99.7031 164.272 99.9737 164.818 100.151 165.406C100.338 165.994 100.431 166.559 100.431 167.1C100.431 167.707 100.333 168.309 100.137 168.906C99.9411 169.494 99.6517 170.031 99.2691 170.516C98.8957 171.001 98.4431 171.393 97.9111 171.692C97.3791 171.981 96.7771 172.131 96.1051 172.14ZM93.7391 167.1C93.7484 167.492 93.7997 167.884 93.8931 168.276C93.9957 168.659 94.1404 169.013 94.3271 169.34C94.5231 169.667 94.7704 169.933 95.0691 170.138C95.3677 170.334 95.7131 170.432 96.1051 170.432C96.5251 170.432 96.8844 170.325 97.1831 170.11C97.4817 169.895 97.7244 169.62 97.9111 169.284C98.1071 168.948 98.2517 168.589 98.3451 168.206C98.4384 167.823 98.4851 167.455 98.4851 167.1C98.4851 166.708 98.4337 166.321 98.3311 165.938C98.2377 165.546 98.0884 165.187 97.8831 164.86C97.6871 164.533 97.4397 164.272 97.1411 164.076C96.8517 163.871 96.5064 163.768 96.1051 163.768C95.6944 163.768 95.3397 163.875 95.0411 164.09C94.7424 164.305 94.4951 164.58 94.2991 164.916C94.1124 165.252 93.9724 165.611 93.8791 165.994C93.7857 166.377 93.7391 166.745 93.7391 167.1Z" fill="#FF5441"/>
<path d="M32.9918 172.14C32.2918 172.131 31.6711 171.972 31.1298 171.664C30.5885 171.356 30.1358 170.95 29.7718 170.446C29.4078 169.942 29.1325 169.401 28.9458 168.822C28.7685 168.234 28.6798 167.66 28.6798 167.1C28.6798 166.503 28.7778 165.905 28.9738 165.308C29.1698 164.711 29.4545 164.169 29.8278 163.684C30.2105 163.189 30.6678 162.797 31.1998 162.508C31.7318 162.209 32.3291 162.06 32.9918 162.06C33.7105 162.06 34.3358 162.219 34.8678 162.536C35.4091 162.853 35.8618 163.264 36.2258 163.768C36.5898 164.272 36.8605 164.818 37.0378 165.406C37.2245 165.994 37.3178 166.559 37.3178 167.1C37.3178 167.707 37.2198 168.309 37.0238 168.906C36.8278 169.494 36.5385 170.031 36.1558 170.516C35.7825 171.001 35.3298 171.393 34.7978 171.692C34.2658 171.981 33.6638 172.131 32.9918 172.14ZM30.6258 167.1C30.6351 167.492 30.6865 167.884 30.7798 168.276C30.8825 168.659 31.0271 169.013 31.2138 169.34C31.4098 169.667 31.6571 169.933 31.9558 170.138C32.2545 170.334 32.5998 170.432 32.9918 170.432C33.4118 170.432 33.7711 170.325 34.0698 170.11C34.3685 169.895 34.6111 169.62 34.7978 169.284C34.9938 168.948 35.1385 168.589 35.2318 168.206C35.3251 167.823 35.3718 167.455 35.3718 167.1C35.3718 166.708 35.3205 166.321 35.2178 165.938C35.1245 165.546 34.9751 165.187 34.7698 164.86C34.5738 164.533 34.3265 164.272 34.0278 164.076C33.7385 163.871 33.3931 163.768 32.9918 163.768C32.5811 163.768 32.2265 163.875 31.9278 164.09C31.6291 164.305 31.3818 164.58 31.1858 164.916C30.9991 165.252 30.8591 165.611 30.7658 165.994C30.6725 166.377 30.6258 166.745 30.6258 167.1Z" fill="#FF5441"/>
<path d="M29.9146 215L29.9146 205.586H31.8946L31.8946 209.33H36.2686V205.586H38.2486V215H36.2686V211.04H31.8946V215H29.9146ZM40.6372 215V205.586H46.6492V207.332H42.6172V215H40.6372ZM58.4031 202.22L49.6371 215H47.4411L56.2071 202.22H58.4031ZM57.7372 217.25V213.254H57.9532C58.2052 213.254 58.4392 213.182 58.6552 213.038C58.8712 212.894 59.0632 212.648 59.2312 212.3C59.3992 211.94 59.5372 211.448 59.6452 210.824C59.7532 210.188 59.8192 209.39 59.8432 208.43L59.9512 205.586H66.6652V213.254H67.9612V217.25H66.2152V215H59.4652V217.25H57.7372ZM60.5632 213.254H64.6852V207.296H61.6972L61.6432 208.61C61.6072 209.522 61.5412 210.29 61.4452 210.914C61.3612 211.538 61.2412 212.036 61.0852 212.408C60.9412 212.78 60.7672 213.062 60.5632 213.254ZM68.8851 215.09V213.326C69.1851 213.326 69.4551 213.254 69.6951 213.11C69.9351 212.954 70.1451 212.702 70.3251 212.354C70.5051 211.994 70.6491 211.496 70.7571 210.86C70.8651 210.224 70.9371 209.414 70.9731 208.43L71.0991 205.586H77.8131V215H75.8331V207.332H72.8451L72.8091 208.61C72.7611 209.87 72.6471 210.92 72.4671 211.76C72.2871 212.588 72.0351 213.248 71.7111 213.74C71.3991 214.22 71.0031 214.568 70.5231 214.784C70.0551 214.988 69.5091 215.09 68.8851 215.09Z" fill="white"/>
<defs>
<filter id="filter0_dd_3794_6663" x="213" y="64" width="578" height="110" filterUnits="userSpaceOnUse" color-interpolation-filters="sRGB">
<feFlood flood-opacity="0" result="BackgroundImageFix"/>
<feColorMatrix in="SourceAlpha" type="matrix" values="0 0 0 0 0 0 0 0 0 0 0 0 0 0 0 0 0 0 127 0" result="hardAlpha"/>
<feOffset dx="4" dy="8"/>
<feGaussianBlur stdDeviation="20"/>
<feComposite in2="hardAlpha" operator="out"/>
<feColorMatrix type="matrix" values="0 0 0 0 0.219608 0 0 0 0 0.737255 0 0 0 0 0.886275 0 0 0 0.4 0"/>
<feBlend mode="normal" in2="BackgroundImageFix" result="effect1_dropShadow_3794_6663"/>
<feColorMatrix in="SourceAlpha" type="matrix" values="0 0 0 0 0 0 0 0 0 0 0 0 0 0 0 0 0 0 127 0" result="hardAlpha"/>
<feOffset dx="2" dy="4"/>
<feGaussianBlur stdDeviation="4"/>
<feComposite in2="hardAlpha" operator="out"/>
<feColorMatrix type="matrix" values="0 0 0 0 0.219608 0 0 0 0 0.737255 0 0 0 0 0.886275 0 0 0 0.2 0"/>
<feBlend mode="normal" in2="effect1_dropShadow_3794_6663" result="effect2_dropShadow_3794_6663"/>
<feBlend mode="normal" in="SourceGraphic" in2="effect2_dropShadow_3794_6663" result="shape"/>
</filter>
<filter id="filter1_dd_3794_6663" x="0" y="64" width="306" height="110" filterUnits="userSpaceOnUse" color-interpolation-filters="sRGB">
<feFlood flood-opacity="0" result="BackgroundImageFix"/>
<feColorMatrix in="SourceAlpha" type="matrix" values="0 0 0 0 0 0 0 0 0 0 0 0 0 0 0 0 0 0 127 0" result="hardAlpha"/>
<feOffset dx="4" dy="8"/>
<feGaussianBlur stdDeviation="20"/>
<feComposite in2="hardAlpha" operator="out"/>
<feColorMatrix type="matrix" values="0 0 0 0 1 0 0 0 0 0.329412 0 0 0 0 0.254902 0 0 0 0.4 0"/>
<feBlend mode="normal" in2="BackgroundImageFix" result="effect1_dropShadow_3794_6663"/>
<feColorMatrix in="SourceAlpha" type="matrix" values="0 0 0 0 0 0 0 0 0 0 0 0 0 0 0 0 0 0 127 0" result="hardAlpha"/>
<feOffset dx="2" dy="4"/>
<feGaussianBlur stdDeviation="4"/>
<feComposite in2="hardAlpha" operator="out"/>
<feColorMatrix type="matrix" values="0 0 0 0 1 0 0 0 0 0.329412 0 0 0 0 0.254902 0 0 0 0.2 0"/>
<feBlend mode="normal" in2="effect1_dropShadow_3794_6663" result="effect2_dropShadow_3794_6663"/>
<feBlend mode="normal" in="SourceGraphic" in2="effect2_dropShadow_3794_6663" result="shape"/>
</filter>
</defs>
</svg>
