<svg xmlns="http://www.w3.org/2000/svg" width="482" height="233" fill="none" viewBox="0 0 482 233"><g clip-path="url(#a)"><path fill="#fff" d="M72.17 229.14q-1.007-.028-1.778-.49a4.2 4.2 0 0 1-1.288-1.204 6 6 0 0 1-.784-1.624 6 6 0 0 1-.266-1.722q0-.896.28-1.792a5.8 5.8 0 0 1 .826-1.624 4.2 4.2 0 0 1 1.302-1.176 3.3 3.3 0 0 1 1.708-.448q1.022 0 1.778.476a4.3 4.3 0 0 1 1.288 1.232 5.6 5.6 0 0 1 .77 1.638 5.9 5.9 0 0 1 .266 1.694q0 .91-.294 1.806a5.6 5.6 0 0 1-.812 1.61 4.2 4.2 0 0 1-1.302 1.176 3.45 3.45 0 0 1-1.694.448m-3.122-5.04q.029.727.224 1.47.21.728.602 1.344.393.602.952.98.575.364 1.344.364.784 0 1.372-.392t.966-1.022q.393-.644.588-1.358.196-.728.196-1.386 0-.728-.21-1.456a4.6 4.6 0 0 0-.616-1.344 3.3 3.3 0 0 0-.98-.98 2.34 2.34 0 0 0-1.316-.378q-.798 0-1.386.406a3.3 3.3 0 0 0-.98 1.022 5.3 5.3 0 0 0-.756 2.73m103.208 2.142q0 .868-.49 1.512a3.2 3.2 0 0 1-1.274 1.008 4.2 4.2 0 0 1-1.722.35q-.994 0-1.764-.392a3.3 3.3 0 0 1-1.218-1.064 2.6 2.6 0 0 1-.434-1.47q0-.63.294-1.134.308-.518.756-.868.462-.35.938-.504-.434-.182-.812-.476a2.4 2.4 0 0 1-.602-.714 1.8 1.8 0 0 1-.224-.896q0-.616.266-1.078.28-.475.728-.798.448-.336.994-.49a3.9 3.9 0 0 1 1.12-.168q.546 0 1.092.168.56.154 1.008.476.462.323.728.798.28.462.28 1.078 0 .49-.238.91-.225.406-.602.714a3.5 3.5 0 0 1-.826.476q.546.182.994.56.462.364.728.868.28.504.28 1.134m-.966-.07a1.7 1.7 0 0 0-.224-.882 1.9 1.9 0 0 0-.588-.658 2.8 2.8 0 0 0-.812-.406 2.77 2.77 0 0 0-2.058.126 2.36 2.36 0 0 0-.924.728q-.35.462-.35 1.106 0 .49.21.868.224.378.588.658.363.266.798.406.447.14.896.14.601 0 1.162-.252.573-.266.938-.742.363-.476.364-1.092m-4.634-4.536q0 .532.322.924.336.378.84.574t.98.196q.504 0 .994-.196.504-.21.826-.588.336-.392.336-.938 0-.532-.308-.91a1.9 1.9 0 0 0-.812-.574 2.8 2.8 0 0 0-2.086.014 1.9 1.9 0 0 0-.798.588 1.44 1.44 0 0 0-.294.91m99.581 6.496V229h-4.634v-.868h1.89v-8.134q-.126.168-.378.378a5 5 0 0 1-.56.392 5 5 0 0 1-.658.308 1.8 1.8 0 0 1-.616.126v-.896q.378 0 .756-.196a5.4 5.4 0 0 0 1.232-.938l.224-.238h.966v9.198zm8.106-2.408a3.26 3.26 0 0 1-.476 1.722 3.51 3.51 0 0 1-3.052 1.694q-1.036 0-1.848-.49-.798-.504-1.26-1.442t-.462-2.226q0-2.03.462-3.346.462-1.33 1.288-1.988a3 3 0 0 1 1.918-.658q.994 0 1.778.504.784.49 1.19 1.344l-.616.56a2.43 2.43 0 0 0-.938-1.134 2.44 2.44 0 0 0-1.414-.434q-.826 0-1.442.518t-.966 1.484q-.336.966-.336 2.338a2.7 2.7 0 0 1 .616-.952q.406-.406.952-.63a3.2 3.2 0 0 1 1.19-.224q.952 0 1.722.448.784.449 1.232 1.218.462.756.462 1.694m-3.5 2.576q.7 0 1.288-.35a2.65 2.65 0 0 0 .938-.938q.364-.588.364-1.288t-.364-1.288a2.65 2.65 0 0 0-.938-.938 2.5 2.5 0 0 0-1.288-.35q-.714 0-1.316.35a2.65 2.65 0 0 0-.938.938q-.35.574-.35 1.288 0 .7.35 1.288.364.588.952.938a2.5 2.5 0 0 0 1.302.35m91.895.7a6.5 6.5 0 0 1 .14-1.554q.155-.672.462-1.19.322-.518.77-.896.448-.392 1.008-.686.532-.294 1.106-.532.574-.252 1.064-.546a2.5 2.5 0 0 0 .784-.714q.308-.434.308-1.078 0-.532-.238-.98a1.66 1.66 0 0 0-.7-.714q-.476-.28-1.204-.28-.714 0-1.274.238-.546.238-.924.574a6 6 0 0 0-.588.616l-.63-.616q.084-.098.336-.378.266-.28.7-.588a4.4 4.4 0 0 1 1.05-.518q.616-.224 1.428-.224 1.036 0 1.722.406.686.392 1.022 1.036.35.644.35 1.414 0 .743-.294 1.26a2.7 2.7 0 0 1-.742.854 5.7 5.7 0 0 1-.98.588l-.98.476q-.895.406-1.428.798t-.798.784q-.252.392-.336.784a4.5 4.5 0 0 0-.098.798h5.67V229zm12.494 0v-2.66h-4.886v-.854l5.18-6.426h.658v6.412h1.232v.868h-1.232V229zm-3.864-3.528h3.948v-4.928zm98.264 3.654q-.882 0-1.596-.294a3.04 3.04 0 0 1-1.162-.812 2.4 2.4 0 0 1-.56-1.204l.588-.532q.028.476.378.938.35.448.952.728.616.28 1.4.28.7 0 1.26-.238.574-.252.896-.672.336-.433.336-1.008 0-.617-.392-1.05-.392-.448-1.106-.686t-1.694-.238h-.476v-.826h.476q1.358 0 2.142-.448.784-.449.784-1.344 0-.588-.322-1.022a2 2 0 0 0-.84-.672 2.7 2.7 0 0 0-1.134-.238q-.924 0-1.582.406-.659.407-.924 1.008l-.658-.644q.266-.504.742-.868a3.7 3.7 0 0 1 1.106-.56q.63-.196 1.302-.196.952 0 1.694.364.756.364 1.176.98.434.616.434 1.414 0 .56-.224 1.008a2.1 2.1 0 0 1-.658.742 3.3 3.3 0 0 1-1.064.448q.658.126 1.148.49.504.364.77.896.28.518.28 1.148 0 .84-.49 1.442a3.15 3.15 0 0 1-1.26.938 4.5 4.5 0 0 1-1.722.322m4.858-.126a6.5 6.5 0 0 1 .14-1.554q.155-.672.462-1.19.322-.518.77-.896.448-.392 1.008-.686.532-.294 1.106-.532.574-.252 1.064-.546a2.5 2.5 0 0 0 .784-.714q.308-.434.308-1.078 0-.532-.238-.98a1.66 1.66 0 0 0-.7-.714q-.476-.28-1.204-.28-.714 0-1.274.238-.546.238-.924.574a6 6 0 0 0-.588.616l-.63-.616q.084-.098.336-.378.266-.28.7-.588a4.4 4.4 0 0 1 1.05-.518q.617-.224 1.428-.224 1.036 0 1.722.406.686.392 1.022 1.036.35.644.35 1.414 0 .743-.294 1.26a2.7 2.7 0 0 1-.742.854 5.7 5.7 0 0 1-.98.588l-.98.476q-.895.406-1.428.798t-.798.784q-.252.392-.336.784a4.5 4.5 0 0 0-.098.798h5.67V229z" opacity="0.4"/><path stroke="#fff" d="M34.953 45.5h16m-16 38.25h16m-16 38.25h16m-16 38.25h16m-16 38.25h447" opacity="0.4"/><path fill="#fff" d="M6.662 51v-2.66H1.776v-.854l5.18-6.426h.658v6.412h1.232v.868H7.614V51zm-3.864-3.528h3.948v-4.928zM14.17 51.14q-1.008-.028-1.778-.49a4.2 4.2 0 0 1-1.288-1.204 6 6 0 0 1-.784-1.624 6 6 0 0 1-.266-1.722q0-.896.28-1.792a5.8 5.8 0 0 1 .826-1.624 4.2 4.2 0 0 1 1.302-1.176 3.3 3.3 0 0 1 1.708-.448q1.022 0 1.778.476.77.476 1.288 1.232a5.6 5.6 0 0 1 .77 1.638 5.9 5.9 0 0 1 .266 1.694 5.8 5.8 0 0 1-.294 1.806 5.6 5.6 0 0 1-.812 1.61 4.2 4.2 0 0 1-1.302 1.176 3.45 3.45 0 0 1-1.694.448m-3.122-5.04q.029.728.224 1.47.21.727.602 1.344.393.602.952.98.575.364 1.344.364.784 0 1.372-.392t.966-1.022q.393-.644.588-1.358.196-.727.196-1.386 0-.727-.21-1.456a4.7 4.7 0 0 0-.616-1.344 3.3 3.3 0 0 0-.98-.98 2.34 2.34 0 0 0-1.316-.378q-.798 0-1.386.406a3.3 3.3 0 0 0-.98 1.022q-.378.63-.574 1.358a5.6 5.6 0 0 0-.182 1.372M5.197 89.126q-.882 0-1.596-.294a3 3 0 0 1-1.162-.812 2.4 2.4 0 0 1-.56-1.204l.588-.532q.027.476.378.938.35.448.952.728.615.28 1.4.28.699 0 1.26-.238.572-.252.896-.672a1.6 1.6 0 0 0 .336-1.008q0-.615-.392-1.05-.393-.448-1.106-.686t-1.694-.238H4.02v-.826h.476q1.358 0 2.142-.448.784-.449.784-1.344 0-.588-.322-1.022a2 2 0 0 0-.84-.672 2.7 2.7 0 0 0-1.134-.238q-.925 0-1.582.406-.66.406-.924 1.008l-.658-.644q.265-.504.742-.868a3.7 3.7 0 0 1 1.106-.56q.63-.195 1.302-.196.951 0 1.694.364.756.365 1.176.98.434.615.434 1.414 0 .56-.224 1.008-.226.435-.658.742-.435.294-1.064.448.657.126 1.148.49.503.364.77.896.28.518.28 1.148 0 .84-.49 1.442a3.15 3.15 0 0 1-1.26.938 4.5 4.5 0 0 1-1.722.322m8.973.014q-1.008-.028-1.778-.49a4.2 4.2 0 0 1-1.288-1.204 6 6 0 0 1-.784-1.624 6 6 0 0 1-.266-1.722q0-.896.28-1.792a5.8 5.8 0 0 1 .826-1.624 4.2 4.2 0 0 1 1.302-1.176 3.3 3.3 0 0 1 1.708-.448q1.022 0 1.778.476.77.476 1.288 1.232a5.6 5.6 0 0 1 .77 1.638 5.9 5.9 0 0 1 .266 1.694 5.8 5.8 0 0 1-.294 1.806 5.6 5.6 0 0 1-.812 1.61 4.2 4.2 0 0 1-1.302 1.176 3.45 3.45 0 0 1-1.694.448m-3.122-5.04q.029.727.224 1.47.21.728.602 1.344.393.602.952.98.575.364 1.344.364.784 0 1.372-.392t.966-1.022q.393-.645.588-1.358.196-.728.196-1.386 0-.727-.21-1.456a4.7 4.7 0 0 0-.616-1.344 3.3 3.3 0 0 0-.98-.98 2.34 2.34 0 0 0-1.316-.378q-.798 0-1.386.406a3.3 3.3 0 0 0-.98 1.022q-.378.63-.574 1.358a5.6 5.6 0 0 0-.182 1.372M1.92 127a6.5 6.5 0 0 1 .14-1.554q.153-.672.462-1.19.32-.518.77-.896.447-.392 1.008-.686.531-.294 1.106-.532.573-.252 1.064-.546.49-.294.784-.714.308-.434.308-1.078 0-.532-.238-.98a1.66 1.66 0 0 0-.7-.714q-.477-.28-1.204-.28-.714 0-1.274.238-.546.238-.924.574a6 6 0 0 0-.588.616l-.63-.616q.084-.098.336-.378.265-.28.7-.588a4.4 4.4 0 0 1 1.05-.518q.615-.224 1.428-.224 1.035 0 1.722.406.686.392 1.022 1.036.35.644.35 1.414 0 .742-.294 1.26a2.7 2.7 0 0 1-.742.854 5.7 5.7 0 0 1-.98.588l-.98.476q-.897.406-1.428.798-.533.392-.798.784-.252.392-.336.784a4.5 4.5 0 0 0-.098.798h5.67V127zm12.25.14q-1.008-.028-1.778-.49a4.2 4.2 0 0 1-1.288-1.204 6 6 0 0 1-.784-1.624 6 6 0 0 1-.266-1.722q0-.896.28-1.792a5.8 5.8 0 0 1 .826-1.624 4.2 4.2 0 0 1 1.302-1.176 3.3 3.3 0 0 1 1.708-.448q1.022 0 1.778.476a4.3 4.3 0 0 1 1.288 1.232 5.6 5.6 0 0 1 .77 1.638 5.9 5.9 0 0 1 .266 1.694q0 .91-.294 1.806a5.6 5.6 0 0 1-.812 1.61 4.2 4.2 0 0 1-1.302 1.176 3.45 3.45 0 0 1-1.694.448m-3.122-5.04q.029.727.224 1.47.21.728.602 1.344.393.602.952.98.575.364 1.344.364.784 0 1.372-.392t.966-1.022q.393-.644.588-1.358.196-.727.196-1.386 0-.728-.21-1.456a4.6 4.6 0 0 0-.616-1.344 3.3 3.3 0 0 0-.98-.98 2.34 2.34 0 0 0-1.316-.378q-.798 0-1.386.406a3.3 3.3 0 0 0-.98 1.022 5.3 5.3 0 0 0-.756 2.73m-1.905 42.032V165H4.51v-.868H6.4v-8.134q-.126.168-.378.378a5 5 0 0 1-.56.392 5 5 0 0 1-.658.308q-.336.126-.616.126v-.896q.378 0 .756-.196a5.4 5.4 0 0 0 1.232-.938l.224-.238h.966v9.198zm5.027 1.008q-1.008-.028-1.778-.49a4.2 4.2 0 0 1-1.288-1.204 6 6 0 0 1-.784-1.624 6 6 0 0 1-.266-1.722q0-.896.28-1.792a5.8 5.8 0 0 1 .826-1.624 4.2 4.2 0 0 1 1.302-1.176 3.3 3.3 0 0 1 1.708-.448q1.022 0 1.778.476a4.3 4.3 0 0 1 1.288 1.232 5.6 5.6 0 0 1 .77 1.638 5.9 5.9 0 0 1 .266 1.694q0 .91-.294 1.806a5.6 5.6 0 0 1-.812 1.61 4.2 4.2 0 0 1-1.302 1.176 3.45 3.45 0 0 1-1.694.448m-3.122-5.04q.029.727.224 1.47.21.728.602 1.344.393.602.952.98.575.364 1.344.364.784 0 1.372-.392t.966-1.022q.393-.644.588-1.358.196-.728.196-1.386 0-.728-.21-1.456a4.6 4.6 0 0 0-.616-1.344 3.3 3.3 0 0 0-.98-.98 2.34 2.34 0 0 0-1.316-.378q-.798 0-1.386.406a3.3 3.3 0 0 0-.98 1.022 5.3 5.3 0 0 0-.756 2.73m3.122 43.04q-1.008-.028-1.778-.49a4.2 4.2 0 0 1-1.288-1.204 6 6 0 0 1-.784-1.624 6 6 0 0 1-.266-1.722q0-.896.28-1.792a5.8 5.8 0 0 1 .826-1.624 4.2 4.2 0 0 1 1.302-1.176 3.3 3.3 0 0 1 1.708-.448q1.022 0 1.778.476a4.3 4.3 0 0 1 1.288 1.232 5.6 5.6 0 0 1 .77 1.638 5.9 5.9 0 0 1 .266 1.694q0 .91-.294 1.806a5.6 5.6 0 0 1-.812 1.61 4.2 4.2 0 0 1-1.302 1.176 3.45 3.45 0 0 1-1.694.448m-3.122-5.04q.029.727.224 1.47.21.728.602 1.344.393.602.952.98.575.364 1.344.364.784 0 1.372-.392t.966-1.022q.393-.644.588-1.358.196-.728.196-1.386 0-.728-.21-1.456a4.6 4.6 0 0 0-.616-1.344 3.3 3.3 0 0 0-.98-.98 2.34 2.34 0 0 0-1.316-.378q-.798 0-1.386.406a3.3 3.3 0 0 0-.98 1.022 5.3 5.3 0 0 0-.756 2.73" opacity="0.4"/><g filter="url(#b)"><path stroke="#006BD2" stroke-linecap="round" stroke-width="2" d="M67.058 189c-.682-35.975 1.635-107.925 16.35-107.925 18.395 0 55.183 75.297 71.534 75.799 16.35.501 3.065-91.862 20.438-91.862s23.504 71.28 132.848 80.316C354.214 149.344 333.776 62 358.302 62c24.525 0 23.504 70.277 123.651 78.308"/></g><path fill="#FF5441" d="M83.409 80.075c2.62 0 5.42 1.328 8.276 3.43.622.458 1.25.959 1.889 1.495h-3.238c-2.67-1.938-4.988-2.925-6.927-2.925-1.38 0-2.763.833-4.145 2.747L79.14 85h-2.375q.426-.723.877-1.349c1.56-2.16 3.468-3.576 5.767-3.576m91.97-16.063c2.545 0 4.778 1.313 6.906 3.36 2.124 2.044 4.266 4.94 6.627 8.35 1.917 2.768 4.001 5.903 6.37 9.278h-2.44c-2.059-2.964-3.891-5.71-5.574-8.14-2.365-3.415-4.407-6.158-6.37-8.047-1.96-1.887-3.72-2.801-5.519-2.801-1.628 0-3.054 1.052-4.31 3.434-1.256 2.381-2.205 5.86-2.926 10.156-.284 1.694-.529 3.5-.746 5.398h-2.013c.227-2.014.485-3.933.786-5.73.732-4.355 1.723-8.089 3.13-10.757 1.406-2.666 3.366-4.501 6.079-4.501M358.301 61c6.677 0 11.48 4.81 16.392 11.516 2.683 3.663 5.416 7.907 8.55 12.484h-2.423c-2.856-4.2-5.371-8.067-7.741-11.303C368.154 66.975 363.887 63 358.301 63c-2.709 0-4.8 1.183-6.521 3.364-1.755 2.224-3.105 5.468-4.219 9.488-.769 2.776-1.409 5.859-1.996 9.148h-2.029c.616-3.483 1.288-6.758 2.098-9.683 1.138-4.106 2.574-7.654 4.575-10.191 2.035-2.579 4.671-4.126 8.092-4.126M68.59 148a680 680 0 0 0-.588 37.511l.055 3.47-.003.102a1 1 0 0 1-1.99.038l-.006-.102-.055-3.479a682 682 0 0 1 .585-37.54zm93.999 0c-.519 2.138-1.139 4.006-1.892 5.517-1.301 2.608-3.157 4.437-5.787 4.356-2.384-.073-4.965-1.485-7.611-3.623-2.02-1.633-4.165-3.763-6.4-6.25h2.714c1.737 1.854 3.39 3.439 4.943 4.694 2.567 2.076 4.713 3.128 6.416 3.18 1.458.045 2.764-.903 3.935-3.25.619-1.242 1.155-2.798 1.621-4.624z" style="mix-blend-mode:hue"/></g><defs><clipPath id="a"><path fill="#fff" d="M.953 0h481v233h-481z"/></clipPath><filter id="b" width="497" height="209" x="29.9526" y="29" color-interpolation-filters="sRGB" filterUnits="userSpaceOnUse"><feFlood flood-opacity="0" result="BackgroundImageFix"/><feColorMatrix in="SourceAlpha" result="hardAlpha" values="0 0 0 0 0 0 0 0 0 0 0 0 0 0 0 0 0 0 127 0"/><feOffset dx="4" dy="8"/><feGaussianBlur stdDeviation="20"/><feComposite in2="hardAlpha" operator="out"/><feColorMatrix values="0 0 0 0 0.219608 0 0 0 0 0.737255 0 0 0 0 0.886275 0 0 0 0.4 0"/><feBlend in2="BackgroundImageFix" result="effect1_dropShadow_10_85"/><feColorMatrix in="SourceAlpha" result="hardAlpha" values="0 0 0 0 0 0 0 0 0 0 0 0 0 0 0 0 0 0 127 0"/><feOffset dx="2" dy="4"/><feGaussianBlur stdDeviation="4"/><feComposite in2="hardAlpha" operator="out"/><feColorMatrix values="0 0 0 0 0.219608 0 0 0 0 0.737255 0 0 0 0 0.886275 0 0 0 0.2 0"/><feBlend in2="effect1_dropShadow_10_85" result="effect2_dropShadow_10_85"/><feBlend in="SourceGraphic" in2="effect2_dropShadow_10_85" result="shape"/></filter></defs></svg>