<svg width="482" height="233" viewBox="0 0 482 233" fill="none" xmlns="http://www.w3.org/2000/svg">
<g clip-path="url(#clip0_10_85)">
<path opacity="0.4" d="M72.1703 229.14C71.4983 229.121 70.9057 228.958 70.3923 228.65C69.879 228.342 69.4497 227.941 69.1043 227.446C68.759 226.942 68.4977 226.401 68.3203 225.822C68.143 225.234 68.0543 224.66 68.0543 224.1C68.0543 223.503 68.1477 222.905 68.3343 222.308C68.5303 221.711 68.8057 221.169 69.1603 220.684C69.5243 220.189 69.9583 219.797 70.4623 219.508C70.9663 219.209 71.5357 219.06 72.1703 219.06C72.8517 219.06 73.4443 219.219 73.9483 219.536C74.4617 219.853 74.891 220.264 75.2363 220.768C75.5817 221.272 75.8383 221.818 76.0063 222.406C76.1837 222.994 76.2723 223.559 76.2723 224.1C76.2723 224.707 76.1743 225.309 75.9783 225.906C75.7917 226.494 75.521 227.031 75.1663 227.516C74.8117 228.001 74.3777 228.393 73.8643 228.692C73.3603 228.981 72.7957 229.131 72.1703 229.14ZM69.0483 224.1C69.067 224.585 69.1417 225.075 69.2723 225.57C69.4123 226.055 69.613 226.503 69.8743 226.914C70.1357 227.315 70.453 227.642 70.8263 227.894C71.209 228.137 71.657 228.258 72.1703 228.258C72.693 228.258 73.1503 228.127 73.5423 227.866C73.9343 227.605 74.2563 227.264 74.5083 226.844C74.7697 226.415 74.9657 225.962 75.0963 225.486C75.227 225.001 75.2923 224.539 75.2923 224.1C75.2923 223.615 75.2223 223.129 75.0823 222.644C74.9423 222.149 74.737 221.701 74.4663 221.3C74.1957 220.889 73.869 220.563 73.4863 220.32C73.1037 220.068 72.665 219.942 72.1703 219.942C71.6383 219.942 71.1763 220.077 70.7843 220.348C70.3923 220.609 70.0657 220.95 69.8043 221.37C69.5523 221.79 69.361 222.243 69.2303 222.728C69.109 223.204 69.0483 223.661 69.0483 224.1Z" fill="white"/>
<path opacity="0.4" d="M172.256 226.242C172.256 226.821 172.092 227.325 171.766 227.754C171.448 228.183 171.024 228.519 170.492 228.762C169.969 228.995 169.395 229.112 168.77 229.112C168.107 229.112 167.519 228.981 167.006 228.72C166.492 228.449 166.086 228.095 165.788 227.656C165.498 227.217 165.354 226.727 165.354 226.186C165.354 225.766 165.452 225.388 165.648 225.052C165.853 224.707 166.105 224.417 166.404 224.184C166.712 223.951 167.024 223.783 167.342 223.68C167.052 223.559 166.782 223.4 166.53 223.204C166.278 222.999 166.077 222.761 165.928 222.49C165.778 222.219 165.704 221.921 165.704 221.594C165.704 221.183 165.792 220.824 165.97 220.516C166.156 220.199 166.399 219.933 166.698 219.718C166.996 219.494 167.328 219.331 167.692 219.228C168.065 219.116 168.438 219.06 168.812 219.06C169.176 219.06 169.54 219.116 169.904 219.228C170.277 219.331 170.613 219.489 170.912 219.704C171.22 219.919 171.462 220.185 171.64 220.502C171.826 220.81 171.92 221.169 171.92 221.58C171.92 221.907 171.84 222.21 171.682 222.49C171.532 222.761 171.332 222.999 171.08 223.204C170.828 223.4 170.552 223.559 170.254 223.68C170.618 223.801 170.949 223.988 171.248 224.24C171.556 224.483 171.798 224.772 171.976 225.108C172.162 225.444 172.256 225.822 172.256 226.242ZM171.29 226.172C171.29 225.836 171.215 225.542 171.066 225.29C170.926 225.029 170.73 224.809 170.478 224.632C170.235 224.455 169.964 224.319 169.666 224.226C169.376 224.133 169.082 224.086 168.784 224.086C168.382 224.086 167.99 224.175 167.608 224.352C167.234 224.52 166.926 224.763 166.684 225.08C166.45 225.388 166.334 225.757 166.334 226.186C166.334 226.513 166.404 226.802 166.544 227.054C166.693 227.306 166.889 227.525 167.132 227.712C167.374 227.889 167.64 228.025 167.93 228.118C168.228 228.211 168.527 228.258 168.826 228.258C169.227 228.258 169.614 228.174 169.988 228.006C170.37 227.829 170.683 227.581 170.926 227.264C171.168 226.947 171.29 226.583 171.29 226.172ZM166.656 221.636C166.656 221.991 166.763 222.299 166.978 222.56C167.202 222.812 167.482 223.003 167.818 223.134C168.154 223.265 168.48 223.33 168.798 223.33C169.134 223.33 169.465 223.265 169.792 223.134C170.128 222.994 170.403 222.798 170.618 222.546C170.842 222.285 170.954 221.972 170.954 221.608C170.954 221.253 170.851 220.95 170.646 220.698C170.44 220.446 170.17 220.255 169.834 220.124C169.507 219.993 169.157 219.928 168.784 219.928C168.429 219.928 168.084 219.998 167.748 220.138C167.421 220.269 167.155 220.465 166.95 220.726C166.754 220.978 166.656 221.281 166.656 221.636Z" fill="white"/>
<path opacity="0.4" d="M266.237 228.132V229H261.603V228.132H263.493V219.998C263.409 220.11 263.283 220.236 263.115 220.376C262.956 220.507 262.77 220.637 262.555 220.768C262.34 220.889 262.121 220.992 261.897 221.076C261.673 221.16 261.468 221.202 261.281 221.202V220.306C261.533 220.306 261.785 220.241 262.037 220.11C262.289 219.97 262.522 219.816 262.737 219.648C262.961 219.471 263.138 219.312 263.269 219.172C263.409 219.023 263.484 218.943 263.493 218.934H264.459V228.132H266.237ZM274.343 225.724C274.343 226.349 274.184 226.923 273.867 227.446C273.559 227.959 273.139 228.37 272.607 228.678C272.075 228.986 271.478 229.14 270.815 229.14C270.124 229.14 269.508 228.977 268.967 228.65C268.435 228.314 268.015 227.833 267.707 227.208C267.399 226.583 267.245 225.841 267.245 224.982C267.245 223.629 267.399 222.513 267.707 221.636C268.015 220.749 268.444 220.087 268.995 219.648C269.546 219.209 270.185 218.99 270.913 218.99C271.576 218.99 272.168 219.158 272.691 219.494C273.214 219.821 273.61 220.269 273.881 220.838L273.265 221.398C273.069 220.922 272.756 220.544 272.327 220.264C271.907 219.975 271.436 219.83 270.913 219.83C270.362 219.83 269.882 220.003 269.471 220.348C269.06 220.693 268.738 221.188 268.505 221.832C268.281 222.476 268.169 223.255 268.169 224.17C268.309 223.806 268.514 223.489 268.785 223.218C269.056 222.947 269.373 222.737 269.737 222.588C270.11 222.439 270.507 222.364 270.927 222.364C271.562 222.364 272.136 222.513 272.649 222.812C273.172 223.111 273.582 223.517 273.881 224.03C274.189 224.534 274.343 225.099 274.343 225.724ZM270.843 228.3C271.31 228.3 271.739 228.183 272.131 227.95C272.523 227.717 272.836 227.404 273.069 227.012C273.312 226.62 273.433 226.191 273.433 225.724C273.433 225.257 273.312 224.828 273.069 224.436C272.836 224.044 272.523 223.731 272.131 223.498C271.739 223.265 271.31 223.148 270.843 223.148C270.367 223.148 269.928 223.265 269.527 223.498C269.135 223.731 268.822 224.044 268.589 224.436C268.356 224.819 268.239 225.248 268.239 225.724C268.239 226.191 268.356 226.62 268.589 227.012C268.832 227.404 269.149 227.717 269.541 227.95C269.933 228.183 270.367 228.3 270.843 228.3Z" fill="white"/>
<path opacity="0.4" d="M362.738 229C362.729 228.412 362.775 227.894 362.878 227.446C362.981 226.998 363.135 226.601 363.34 226.256C363.555 225.911 363.811 225.612 364.11 225.36C364.409 225.099 364.745 224.87 365.118 224.674C365.473 224.478 365.841 224.301 366.224 224.142C366.607 223.974 366.961 223.792 367.288 223.596C367.615 223.4 367.876 223.162 368.072 222.882C368.277 222.593 368.38 222.233 368.38 221.804C368.38 221.449 368.301 221.123 368.142 220.824C367.993 220.525 367.759 220.287 367.442 220.11C367.125 219.923 366.723 219.83 366.238 219.83C365.762 219.83 365.337 219.909 364.964 220.068C364.6 220.227 364.292 220.418 364.04 220.642C363.797 220.866 363.601 221.071 363.452 221.258L362.822 220.642C362.878 220.577 362.99 220.451 363.158 220.264C363.335 220.077 363.569 219.881 363.858 219.676C364.157 219.471 364.507 219.298 364.908 219.158C365.319 219.009 365.795 218.934 366.336 218.934C367.027 218.934 367.601 219.069 368.058 219.34C368.515 219.601 368.856 219.947 369.08 220.376C369.313 220.805 369.43 221.277 369.43 221.79C369.43 222.285 369.332 222.705 369.136 223.05C368.949 223.386 368.702 223.671 368.394 223.904C368.095 224.128 367.769 224.324 367.414 224.492C367.069 224.66 366.742 224.819 366.434 224.968C365.837 225.239 365.361 225.505 365.006 225.766C364.651 226.027 364.385 226.289 364.208 226.55C364.04 226.811 363.928 227.073 363.872 227.334C363.816 227.595 363.783 227.861 363.774 228.132H369.444V229H362.738ZM375.232 229V226.34H370.346V225.486L375.526 219.06H376.184V225.472H377.416V226.34H376.184V229H375.232ZM371.368 225.472H375.316V220.544L371.368 225.472Z" fill="white"/>
<path opacity="0.4" d="M469.632 229.126C469.044 229.126 468.512 229.028 468.036 228.832C467.56 228.636 467.173 228.365 466.874 228.02C466.575 227.675 466.389 227.273 466.314 226.816L466.902 226.284C466.921 226.601 467.047 226.914 467.28 227.222C467.513 227.521 467.831 227.763 468.232 227.95C468.643 228.137 469.109 228.23 469.632 228.23C470.099 228.23 470.519 228.151 470.892 227.992C471.275 227.824 471.573 227.6 471.788 227.32C472.012 227.031 472.124 226.695 472.124 226.312C472.124 225.901 471.993 225.551 471.732 225.262C471.471 224.963 471.102 224.735 470.626 224.576C470.15 224.417 469.585 224.338 468.932 224.338H468.456V223.512H468.932C469.837 223.512 470.551 223.363 471.074 223.064C471.597 222.765 471.858 222.317 471.858 221.72C471.858 221.328 471.751 220.987 471.536 220.698C471.331 220.409 471.051 220.185 470.696 220.026C470.351 219.867 469.973 219.788 469.562 219.788C468.946 219.788 468.419 219.923 467.98 220.194C467.541 220.465 467.233 220.801 467.056 221.202L466.398 220.558C466.575 220.222 466.823 219.933 467.14 219.69C467.467 219.447 467.835 219.261 468.246 219.13C468.666 218.999 469.1 218.934 469.548 218.934C470.183 218.934 470.747 219.055 471.242 219.298C471.746 219.541 472.138 219.867 472.418 220.278C472.707 220.689 472.852 221.16 472.852 221.692C472.852 222.065 472.777 222.401 472.628 222.7C472.479 222.989 472.259 223.237 471.97 223.442C471.681 223.638 471.326 223.787 470.906 223.89C471.345 223.974 471.727 224.137 472.054 224.38C472.39 224.623 472.647 224.921 472.824 225.276C473.011 225.621 473.104 226.004 473.104 226.424C473.104 226.984 472.941 227.465 472.614 227.866C472.297 228.267 471.877 228.58 471.354 228.804C470.831 229.019 470.257 229.126 469.632 229.126ZM474.49 229C474.481 228.412 474.527 227.894 474.63 227.446C474.733 226.998 474.887 226.601 475.092 226.256C475.307 225.911 475.563 225.612 475.862 225.36C476.161 225.099 476.497 224.87 476.87 224.674C477.225 224.478 477.593 224.301 477.976 224.142C478.359 223.974 478.713 223.792 479.04 223.596C479.367 223.4 479.628 223.162 479.824 222.882C480.029 222.593 480.132 222.233 480.132 221.804C480.132 221.449 480.053 221.123 479.894 220.824C479.745 220.525 479.511 220.287 479.194 220.11C478.877 219.923 478.475 219.83 477.99 219.83C477.514 219.83 477.089 219.909 476.716 220.068C476.352 220.227 476.044 220.418 475.792 220.642C475.549 220.866 475.353 221.071 475.204 221.258L474.574 220.642C474.63 220.577 474.742 220.451 474.91 220.264C475.087 220.077 475.321 219.881 475.61 219.676C475.909 219.471 476.259 219.298 476.66 219.158C477.071 219.009 477.547 218.934 478.088 218.934C478.779 218.934 479.353 219.069 479.81 219.34C480.267 219.601 480.608 219.947 480.832 220.376C481.065 220.805 481.182 221.277 481.182 221.79C481.182 222.285 481.084 222.705 480.888 223.05C480.701 223.386 480.454 223.671 480.146 223.904C479.847 224.128 479.521 224.324 479.166 224.492C478.821 224.66 478.494 224.819 478.186 224.968C477.589 225.239 477.113 225.505 476.758 225.766C476.403 226.027 476.137 226.289 475.96 226.55C475.792 226.811 475.68 227.073 475.624 227.334C475.568 227.595 475.535 227.861 475.526 228.132H481.196V229H474.49Z" fill="white"/>
<g opacity="0.4">
<line x1="34.9526" y1="45.5" x2="50.9526" y2="45.5" stroke="white"/>
<line x1="34.9526" y1="83.75" x2="50.9526" y2="83.75" stroke="white"/>
<line x1="34.9526" y1="122" x2="50.9526" y2="122" stroke="white"/>
<line x1="34.9526" y1="160.25" x2="50.9526" y2="160.25" stroke="white"/>
<line x1="34.9526" y1="198.5" x2="481.953" y2="198.5" stroke="white"/>
</g>
<path opacity="0.4" d="M6.66162 51L6.66162 48.34H1.77562V47.486L6.95562 41.06H7.61362L7.61362 47.472H8.84562V48.34H7.61362L7.61362 51H6.66162ZM2.79762 47.472H6.74562L6.74562 42.544L2.79762 47.472ZM14.1703 51.14C13.4983 51.1213 12.9057 50.958 12.3923 50.65C11.879 50.342 11.4497 49.9407 11.1043 49.446C10.759 48.942 10.4977 48.4007 10.3203 47.822C10.143 47.234 10.0543 46.66 10.0543 46.1C10.0543 45.5027 10.1477 44.9053 10.3343 44.308C10.5303 43.7107 10.8057 43.1693 11.1603 42.684C11.5243 42.1893 11.9583 41.7973 12.4623 41.508C12.9663 41.2093 13.5357 41.06 14.1703 41.06C14.8517 41.06 15.4443 41.2187 15.9483 41.536C16.4617 41.8533 16.891 42.264 17.2363 42.768C17.5817 43.272 17.8383 43.818 18.0063 44.406C18.1837 44.994 18.2723 45.5587 18.2723 46.1C18.2723 46.7067 18.1743 47.3087 17.9783 47.906C17.7917 48.494 17.521 49.0307 17.1663 49.516C16.8117 50.0013 16.3777 50.3933 15.8643 50.692C15.3603 50.9813 14.7957 51.1307 14.1703 51.14ZM11.0483 46.1C11.067 46.5853 11.1417 47.0753 11.2723 47.57C11.4123 48.0553 11.613 48.5033 11.8743 48.914C12.1357 49.3153 12.453 49.642 12.8263 49.894C13.209 50.1367 13.657 50.258 14.1703 50.258C14.693 50.258 15.1503 50.1273 15.5423 49.866C15.9343 49.6047 16.2563 49.264 16.5083 48.844C16.7697 48.4147 16.9657 47.962 17.0963 47.486C17.227 47.0007 17.2923 46.5387 17.2923 46.1C17.2923 45.6147 17.2223 45.1293 17.0823 44.644C16.9423 44.1493 16.737 43.7013 16.4663 43.3C16.1957 42.8893 15.869 42.5627 15.4863 42.32C15.1037 42.068 14.665 41.942 14.1703 41.942C13.6383 41.942 13.1763 42.0773 12.7843 42.348C12.3923 42.6093 12.0657 42.95 11.8043 43.37C11.5523 43.79 11.361 44.2427 11.2303 44.728C11.109 45.204 11.0483 45.6613 11.0483 46.1Z" fill="white"/>
<path opacity="0.4" d="M5.19654 89.126C4.60854 89.126 4.07654 89.028 3.60054 88.832C3.12454 88.636 2.73721 88.3653 2.43854 88.02C2.13988 87.6747 1.95321 87.2733 1.87854 86.816L2.46654 86.284C2.48521 86.6013 2.61121 86.914 2.84454 87.222C3.07788 87.5207 3.39521 87.7633 3.79654 87.95C4.20721 88.1367 4.67388 88.23 5.19654 88.23C5.66321 88.23 6.08321 88.1507 6.45654 87.992C6.83921 87.824 7.13788 87.6 7.35254 87.32C7.57654 87.0307 7.68854 86.6947 7.68854 86.312C7.68854 85.9013 7.55788 85.5513 7.29654 85.262C7.03521 84.9633 6.66654 84.7347 6.19054 84.576C5.71454 84.4173 5.14988 84.338 4.49654 84.338H4.02054V83.512H4.49654C5.40188 83.512 6.11588 83.3627 6.63854 83.064C7.16121 82.7653 7.42254 82.3173 7.42254 81.72C7.42254 81.328 7.31521 80.9873 7.10054 80.698C6.89521 80.4087 6.61521 80.1847 6.26054 80.026C5.91521 79.8673 5.53721 79.788 5.12654 79.788C4.51054 79.788 3.98321 79.9233 3.54454 80.194C3.10588 80.4647 2.79788 80.8007 2.62054 81.202L1.96254 80.558C2.13988 80.222 2.38721 79.9327 2.70454 79.69C3.03121 79.4473 3.39988 79.2607 3.81054 79.13C4.23054 78.9993 4.66454 78.934 5.11254 78.934C5.74721 78.934 6.31188 79.0553 6.80654 79.298C7.31054 79.5407 7.70254 79.8673 7.98254 80.278C8.27188 80.6887 8.41654 81.16 8.41654 81.692C8.41654 82.0653 8.34188 82.4013 8.19254 82.7C8.04321 82.9893 7.82388 83.2367 7.53454 83.442C7.24521 83.638 6.89054 83.7873 6.47054 83.89C6.90921 83.974 7.29188 84.1373 7.61854 84.38C7.95454 84.6227 8.21121 84.9213 8.38854 85.276C8.57521 85.6213 8.66854 86.004 8.66854 86.424C8.66854 86.984 8.50521 87.4647 8.17854 87.866C7.86121 88.2673 7.44121 88.58 6.91854 88.804C6.39588 89.0187 5.82188 89.126 5.19654 89.126ZM14.1703 89.14C13.4983 89.1213 12.9057 88.958 12.3923 88.65C11.879 88.342 11.4497 87.9407 11.1043 87.446C10.759 86.942 10.4977 86.4007 10.3203 85.822C10.143 85.234 10.0543 84.66 10.0543 84.1C10.0543 83.5027 10.1477 82.9053 10.3343 82.308C10.5303 81.7107 10.8057 81.1693 11.1603 80.684C11.5243 80.1893 11.9583 79.7973 12.4623 79.508C12.9663 79.2093 13.5357 79.06 14.1703 79.06C14.8517 79.06 15.4443 79.2187 15.9483 79.536C16.4617 79.8533 16.891 80.264 17.2363 80.768C17.5817 81.272 17.8383 81.818 18.0063 82.406C18.1837 82.994 18.2723 83.5587 18.2723 84.1C18.2723 84.7067 18.1743 85.3087 17.9783 85.906C17.7917 86.494 17.521 87.0307 17.1663 87.516C16.8117 88.0013 16.3777 88.3933 15.8643 88.692C15.3603 88.9813 14.7957 89.1307 14.1703 89.14ZM11.0483 84.1C11.067 84.5853 11.1417 85.0753 11.2723 85.57C11.4123 86.0553 11.613 86.5033 11.8743 86.914C12.1357 87.3153 12.453 87.642 12.8263 87.894C13.209 88.1367 13.657 88.258 14.1703 88.258C14.693 88.258 15.1503 88.1273 15.5423 87.866C15.9343 87.6047 16.2563 87.264 16.5083 86.844C16.7697 86.4147 16.9657 85.962 17.0963 85.486C17.227 85.0007 17.2923 84.5387 17.2923 84.1C17.2923 83.6147 17.2223 83.1293 17.0823 82.644C16.9423 82.1493 16.737 81.7013 16.4663 81.3C16.1957 80.8893 15.869 80.5627 15.4863 80.32C15.1037 80.068 14.665 79.942 14.1703 79.942C13.6383 79.942 13.1763 80.0773 12.7843 80.348C12.3923 80.6093 12.0657 80.95 11.8043 81.37C11.5523 81.79 11.361 82.2427 11.2303 82.728C11.109 83.204 11.0483 83.6613 11.0483 84.1Z" fill="white"/>
<path opacity="0.4" d="M1.91956 127C1.91023 126.412 1.95689 125.894 2.05956 125.446C2.16223 124.998 2.31623 124.601 2.52156 124.256C2.73623 123.911 2.99289 123.612 3.29156 123.36C3.59023 123.099 3.92623 122.87 4.29956 122.674C4.65423 122.478 5.02289 122.301 5.40556 122.142C5.78823 121.974 6.14289 121.792 6.46956 121.596C6.79623 121.4 7.05756 121.162 7.25356 120.882C7.45889 120.593 7.56156 120.233 7.56156 119.804C7.56156 119.449 7.48223 119.123 7.32356 118.824C7.17423 118.525 6.94089 118.287 6.62356 118.11C6.30623 117.923 5.90489 117.83 5.41956 117.83C4.94356 117.83 4.51889 117.909 4.14556 118.068C3.78156 118.227 3.47356 118.418 3.22156 118.642C2.97889 118.866 2.78289 119.071 2.63356 119.258L2.00356 118.642C2.05956 118.577 2.17156 118.451 2.33956 118.264C2.51689 118.077 2.75023 117.881 3.03956 117.676C3.33823 117.471 3.68823 117.298 4.08956 117.158C4.50023 117.009 4.97623 116.934 5.51756 116.934C6.20823 116.934 6.78223 117.069 7.23956 117.34C7.69689 117.601 8.03756 117.947 8.26156 118.376C8.49489 118.805 8.61156 119.277 8.61156 119.79C8.61156 120.285 8.51356 120.705 8.31756 121.05C8.13089 121.386 7.88356 121.671 7.57556 121.904C7.27689 122.128 6.95023 122.324 6.59556 122.492C6.25023 122.66 5.92356 122.819 5.61556 122.968C5.01823 123.239 4.54223 123.505 4.18756 123.766C3.83289 124.027 3.56689 124.289 3.38956 124.55C3.22156 124.811 3.10956 125.073 3.05356 125.334C2.99756 125.595 2.96489 125.861 2.95556 126.132H8.62556L8.62556 127H1.91956ZM14.1703 127.14C13.4983 127.121 12.9057 126.958 12.3923 126.65C11.879 126.342 11.4497 125.941 11.1043 125.446C10.759 124.942 10.4977 124.401 10.3203 123.822C10.143 123.234 10.0543 122.66 10.0543 122.1C10.0543 121.503 10.1477 120.905 10.3343 120.308C10.5303 119.711 10.8057 119.169 11.1603 118.684C11.5243 118.189 11.9583 117.797 12.4623 117.508C12.9663 117.209 13.5357 117.06 14.1703 117.06C14.8517 117.06 15.4443 117.219 15.9483 117.536C16.4617 117.853 16.891 118.264 17.2363 118.768C17.5817 119.272 17.8383 119.818 18.0063 120.406C18.1837 120.994 18.2723 121.559 18.2723 122.1C18.2723 122.707 18.1743 123.309 17.9783 123.906C17.7917 124.494 17.521 125.031 17.1663 125.516C16.8117 126.001 16.3777 126.393 15.8643 126.692C15.3603 126.981 14.7957 127.131 14.1703 127.14ZM11.0483 122.1C11.067 122.585 11.1417 123.075 11.2723 123.57C11.4123 124.055 11.613 124.503 11.8743 124.914C12.1357 125.315 12.453 125.642 12.8263 125.894C13.209 126.137 13.657 126.258 14.1703 126.258C14.693 126.258 15.1503 126.127 15.5423 125.866C15.9343 125.605 16.2563 125.264 16.5083 124.844C16.7697 124.415 16.9657 123.962 17.0963 123.486C17.227 123.001 17.2923 122.539 17.2923 122.1C17.2923 121.615 17.2223 121.129 17.0823 120.644C16.9423 120.149 16.737 119.701 16.4663 119.3C16.1957 118.889 15.869 118.563 15.4863 118.32C15.1037 118.068 14.665 117.942 14.1703 117.942C13.6383 117.942 13.1763 118.077 12.7843 118.348C12.3923 118.609 12.0657 118.95 11.8043 119.37C11.5523 119.79 11.361 120.243 11.2303 120.728C11.109 121.204 11.0483 121.661 11.0483 122.1Z" fill="white"/>
<path opacity="0.4" d="M9.14312 164.132L9.14312 165H4.50912V164.132H6.39912L6.39912 155.998C6.31512 156.11 6.18912 156.236 6.02112 156.376C5.86245 156.507 5.67579 156.637 5.46112 156.768C5.24645 156.889 5.02712 156.992 4.80312 157.076C4.57912 157.16 4.37379 157.202 4.18712 157.202V156.306C4.43912 156.306 4.69112 156.241 4.94312 156.11C5.19512 155.97 5.42845 155.816 5.64312 155.648C5.86712 155.471 6.04445 155.312 6.17512 155.172C6.31512 155.023 6.38979 154.943 6.39912 154.934H7.36512L7.36512 164.132H9.14312ZM14.1703 165.14C13.4983 165.121 12.9057 164.958 12.3923 164.65C11.879 164.342 11.4497 163.941 11.1043 163.446C10.759 162.942 10.4977 162.401 10.3203 161.822C10.143 161.234 10.0543 160.66 10.0543 160.1C10.0543 159.503 10.1477 158.905 10.3343 158.308C10.5303 157.711 10.8057 157.169 11.1603 156.684C11.5243 156.189 11.9583 155.797 12.4623 155.508C12.9663 155.209 13.5357 155.06 14.1703 155.06C14.8517 155.06 15.4443 155.219 15.9483 155.536C16.4617 155.853 16.891 156.264 17.2363 156.768C17.5817 157.272 17.8383 157.818 18.0063 158.406C18.1837 158.994 18.2723 159.559 18.2723 160.1C18.2723 160.707 18.1743 161.309 17.9783 161.906C17.7917 162.494 17.521 163.031 17.1663 163.516C16.8117 164.001 16.3777 164.393 15.8643 164.692C15.3603 164.981 14.7957 165.131 14.1703 165.14ZM11.0483 160.1C11.067 160.585 11.1417 161.075 11.2723 161.57C11.4123 162.055 11.613 162.503 11.8743 162.914C12.1357 163.315 12.453 163.642 12.8263 163.894C13.209 164.137 13.657 164.258 14.1703 164.258C14.693 164.258 15.1503 164.127 15.5423 163.866C15.9343 163.605 16.2563 163.264 16.5083 162.844C16.7697 162.415 16.9657 161.962 17.0963 161.486C17.227 161.001 17.2923 160.539 17.2923 160.1C17.2923 159.615 17.2223 159.129 17.0823 158.644C16.9423 158.149 16.737 157.701 16.4663 157.3C16.1957 156.889 15.869 156.563 15.4863 156.32C15.1037 156.068 14.665 155.942 14.1703 155.942C13.6383 155.942 13.1763 156.077 12.7843 156.348C12.3923 156.609 12.0657 156.95 11.8043 157.37C11.5523 157.79 11.361 158.243 11.2303 158.728C11.109 159.204 11.0483 159.661 11.0483 160.1Z" fill="white"/>
<path opacity="0.4" d="M14.1703 203.14C13.4983 203.121 12.9057 202.958 12.3923 202.65C11.879 202.342 11.4497 201.941 11.1043 201.446C10.759 200.942 10.4977 200.401 10.3203 199.822C10.143 199.234 10.0543 198.66 10.0543 198.1C10.0543 197.503 10.1477 196.905 10.3343 196.308C10.5303 195.711 10.8057 195.169 11.1603 194.684C11.5243 194.189 11.9583 193.797 12.4623 193.508C12.9663 193.209 13.5357 193.06 14.1703 193.06C14.8517 193.06 15.4443 193.219 15.9483 193.536C16.4617 193.853 16.891 194.264 17.2363 194.768C17.5817 195.272 17.8383 195.818 18.0063 196.406C18.1837 196.994 18.2723 197.559 18.2723 198.1C18.2723 198.707 18.1743 199.309 17.9783 199.906C17.7917 200.494 17.521 201.031 17.1663 201.516C16.8117 202.001 16.3777 202.393 15.8643 202.692C15.3603 202.981 14.7957 203.131 14.1703 203.14ZM11.0483 198.1C11.067 198.585 11.1417 199.075 11.2723 199.57C11.4123 200.055 11.613 200.503 11.8743 200.914C12.1357 201.315 12.453 201.642 12.8263 201.894C13.209 202.137 13.657 202.258 14.1703 202.258C14.693 202.258 15.1503 202.127 15.5423 201.866C15.9343 201.605 16.2563 201.264 16.5083 200.844C16.7697 200.415 16.9657 199.962 17.0963 199.486C17.227 199.001 17.2923 198.539 17.2923 198.1C17.2923 197.615 17.2223 197.129 17.0823 196.644C16.9423 196.149 16.737 195.701 16.4663 195.3C16.1957 194.889 15.869 194.563 15.4863 194.32C15.1037 194.068 14.665 193.942 14.1703 193.942C13.6383 193.942 13.1763 194.077 12.7843 194.348C12.3923 194.609 12.0657 194.95 11.8043 195.37C11.5523 195.79 11.361 196.243 11.2303 196.728C11.109 197.204 11.0483 197.661 11.0483 198.1Z" fill="white"/>
<g filter="url(#filter0_dd_10_85)">
<path d="M67.0577 189C66.3764 153.025 68.6928 81.0751 83.4083 81.0751C101.803 81.0751 138.591 156.372 154.942 156.874C171.292 157.375 158.007 65.0119 175.38 65.0119C192.752 65.0119 198.884 136.292 308.228 145.328C354.214 149.344 333.776 62 358.302 62C382.827 62 381.806 132.277 481.953 140.308" stroke="#006BD2" stroke-width="2" stroke-linecap="round"/>
</g>
<g style="mix-blend-mode:hue">
<path d="M83.4087 80.0752C86.0284 80.0753 88.8287 81.4033 91.6851 83.5059C92.3067 83.9634 92.9357 84.4635 93.5737 85H90.3364C87.6652 83.0616 85.3481 82.0753 83.4087 82.0752C82.029 82.0752 80.6457 82.9077 79.2642 84.8223C79.2223 84.8803 79.1818 84.9402 79.1401 85H76.7651C77.0492 84.5183 77.3414 84.0681 77.6421 83.6514C79.2011 81.4909 81.1097 80.0752 83.4087 80.0752ZM175.379 64.0117C177.924 64.0117 180.157 65.3249 182.285 67.3721C184.409 69.4161 186.551 72.3129 188.912 75.7217C190.829 78.4902 192.913 81.6253 195.282 85H192.842C190.783 82.0364 188.951 79.2899 187.268 76.8604C184.903 73.4455 182.861 70.7019 180.898 68.8125C178.938 66.9263 177.178 66.0117 175.379 66.0117C173.751 66.0119 172.325 67.0636 171.069 69.4463C169.813 71.8272 168.864 75.3062 168.143 79.6016C167.859 81.2956 167.614 83.1025 167.397 85H165.384C165.611 82.9858 165.869 81.0672 166.17 79.2705C166.902 74.9148 167.893 71.181 169.3 68.5127C170.706 65.8468 172.666 64.0119 175.379 64.0117ZM358.301 61C364.978 61 369.781 65.8104 374.693 72.5156C377.376 76.1789 380.109 80.4226 383.243 85H380.82C377.964 80.8003 375.449 76.9332 373.079 73.6973C368.154 66.9747 363.887 63 358.301 63C355.592 63.0001 353.501 64.1826 351.78 66.3643C350.025 68.5882 348.675 71.8321 347.561 75.8516C346.792 78.6276 346.152 81.711 345.565 85H343.536C344.152 81.517 344.824 78.242 345.634 75.3174C346.772 71.2114 348.208 67.6628 350.209 65.126C352.244 62.5471 354.88 61.0001 358.301 61Z" fill="#FF5441"/>
</g>
<g style="mix-blend-mode:hue">
<path d="M68.5892 148C67.994 161.477 67.8659 174.785 68.0022 185.511L68.0569 188.981L68.054 189.083C68.0125 189.588 67.5943 189.99 67.0765 190C66.5589 190.01 66.1255 189.624 66.0647 189.121L66.0579 189.019L66.0032 185.54C65.8667 174.81 65.9943 161.497 66.5882 148H68.5892ZM162.589 148C162.07 150.138 161.45 152.006 160.697 153.517C159.396 156.125 157.54 157.954 154.91 157.873C152.526 157.8 149.945 156.388 147.299 154.25C145.279 152.617 143.134 150.487 140.899 148H143.613C145.35 149.854 147.003 151.439 148.556 152.694C151.123 154.77 153.269 155.822 154.972 155.874C156.43 155.919 157.736 154.971 158.907 152.624C159.526 151.382 160.062 149.826 160.528 148H162.589Z" fill="#FF5441"/>
</g>
</g>
<defs>
<filter id="filter0_dd_10_85" x="29.9526" y="29" width="497" height="209" filterUnits="userSpaceOnUse" color-interpolation-filters="sRGB">
<feFlood flood-opacity="0" result="BackgroundImageFix"/>
<feColorMatrix in="SourceAlpha" type="matrix" values="0 0 0 0 0 0 0 0 0 0 0 0 0 0 0 0 0 0 127 0" result="hardAlpha"/>
<feOffset dx="4" dy="8"/>
<feGaussianBlur stdDeviation="20"/>
<feComposite in2="hardAlpha" operator="out"/>
<feColorMatrix type="matrix" values="0 0 0 0 0.219608 0 0 0 0 0.737255 0 0 0 0 0.886275 0 0 0 0.4 0"/>
<feBlend mode="normal" in2="BackgroundImageFix" result="effect1_dropShadow_10_85"/>
<feColorMatrix in="SourceAlpha" type="matrix" values="0 0 0 0 0 0 0 0 0 0 0 0 0 0 0 0 0 0 127 0" result="hardAlpha"/>
<feOffset dx="2" dy="4"/>
<feGaussianBlur stdDeviation="4"/>
<feComposite in2="hardAlpha" operator="out"/>
<feColorMatrix type="matrix" values="0 0 0 0 0.219608 0 0 0 0 0.737255 0 0 0 0 0.886275 0 0 0 0.2 0"/>
<feBlend mode="normal" in2="effect1_dropShadow_10_85" result="effect2_dropShadow_10_85"/>
<feBlend mode="normal" in="SourceGraphic" in2="effect2_dropShadow_10_85" result="shape"/>
</filter>
<clipPath id="clip0_10_85">
<rect width="481" height="233" fill="white" transform="translate(0.952637)"/>
</clipPath>
</defs>
</svg>
