<svg xmlns="http://www.w3.org/2000/svg" width="482" height="233" fill="none" viewBox="0 0 482 233"><g clip-path="url(#a)"><path stroke="#fff" d="M34.953 8.5h16m-16 38h16m-16 38h16m-16 38h16m-16 38h16m-16 38h447" opacity="0.4"/><path fill="#fff" d="M5.355 14.14q-1.065 0-1.918-.518a3.47 3.47 0 0 1-1.274-1.4l.644-.476q.378.686 1.064 1.106t1.498.42q.7 0 1.246-.308.56-.307.882-.84.336-.546.336-1.26 0-.686-.322-1.204-.323-.532-.854-.826a2.36 2.36 0 0 0-1.204-.308q-.644 0-1.232.294t-.952.826h-.896l1.12-5.586h4.802v.882H4.207l-.7 3.57a2.4 2.4 0 0 1 .896-.602q.546-.224 1.162-.224.91 0 1.638.406.742.406 1.162 1.12.434.7.434 1.638 0 .966-.462 1.722a3.25 3.25 0 0 1-1.246 1.162q-.77.406-1.736.406m8.815 0q-1.008-.028-1.778-.49a4.2 4.2 0 0 1-1.288-1.204 6 6 0 0 1-.784-1.624 6 6 0 0 1-.266-1.722q0-.896.28-1.792a5.8 5.8 0 0 1 .826-1.624 4.2 4.2 0 0 1 1.302-1.176 3.3 3.3 0 0 1 1.708-.448q1.022 0 1.778.476.77.476 1.288 1.232a5.6 5.6 0 0 1 .77 1.638 5.9 5.9 0 0 1 .266 1.694 5.8 5.8 0 0 1-.294 1.806 5.6 5.6 0 0 1-.812 1.61 4.2 4.2 0 0 1-1.302 1.176 3.45 3.45 0 0 1-1.694.448M11.048 9.1q.029.727.224 1.47.21.727.602 1.344.393.602.952.98.575.364 1.344.364.784 0 1.372-.392t.966-1.022q.393-.645.588-1.358.196-.727.196-1.386 0-.727-.21-1.456a4.7 4.7 0 0 0-.616-1.344 3.3 3.3 0 0 0-.98-.98 2.34 2.34 0 0 0-1.316-.378q-.798 0-1.386.406a3.3 3.3 0 0 0-.98 1.022q-.378.63-.574 1.358a5.6 5.6 0 0 0-.182 1.372M6.662 52v-2.66H1.776v-.854l5.18-6.426h.658v6.412h1.232v.868H7.614V52zm-3.864-3.528h3.948v-4.928zM14.17 52.14q-1.008-.028-1.778-.49a4.2 4.2 0 0 1-1.288-1.204 6 6 0 0 1-.784-1.624 6 6 0 0 1-.266-1.722q0-.896.28-1.792a5.8 5.8 0 0 1 .826-1.624 4.2 4.2 0 0 1 1.302-1.176 3.3 3.3 0 0 1 1.708-.448q1.022 0 1.778.476.77.476 1.288 1.232a5.6 5.6 0 0 1 .77 1.638 5.9 5.9 0 0 1 .266 1.694 5.8 5.8 0 0 1-.294 1.806 5.6 5.6 0 0 1-.812 1.61 4.2 4.2 0 0 1-1.302 1.176 3.45 3.45 0 0 1-1.694.448m-3.122-5.04q.029.728.224 1.47.21.727.602 1.344.393.602.952.98.575.364 1.344.364.784 0 1.372-.392t.966-1.022q.393-.644.588-1.358.196-.727.196-1.386 0-.727-.21-1.456a4.7 4.7 0 0 0-.616-1.344 3.3 3.3 0 0 0-.98-.98 2.34 2.34 0 0 0-1.316-.378q-.798 0-1.386.406a3.3 3.3 0 0 0-.98 1.022q-.378.63-.574 1.358a5.6 5.6 0 0 0-.182 1.372M5.197 90.126q-.882 0-1.596-.294a3 3 0 0 1-1.162-.812 2.4 2.4 0 0 1-.56-1.204l.588-.532q.027.476.378.938.35.448.952.728.615.28 1.4.28.699 0 1.26-.238.572-.252.896-.672a1.6 1.6 0 0 0 .336-1.008q0-.615-.392-1.05-.393-.448-1.106-.686t-1.694-.238H4.02v-.826h.476q1.358 0 2.142-.448.784-.449.784-1.344 0-.588-.322-1.022a2 2 0 0 0-.84-.672 2.7 2.7 0 0 0-1.134-.238q-.925 0-1.582.406-.66.406-.924 1.008l-.658-.644q.265-.504.742-.868a3.7 3.7 0 0 1 1.106-.56q.63-.195 1.302-.196.951 0 1.694.364.756.365 1.176.98.434.615.434 1.414 0 .56-.224 1.008-.226.435-.658.742-.435.294-1.064.448.657.126 1.148.49.503.364.77.896.28.518.28 1.148 0 .84-.49 1.442a3.15 3.15 0 0 1-1.26.938 4.5 4.5 0 0 1-1.722.322m8.973.014q-1.008-.028-1.778-.49a4.2 4.2 0 0 1-1.288-1.204 6 6 0 0 1-.784-1.624 6 6 0 0 1-.266-1.722q0-.896.28-1.792a5.8 5.8 0 0 1 .826-1.624 4.2 4.2 0 0 1 1.302-1.176 3.3 3.3 0 0 1 1.708-.448q1.022 0 1.778.476.77.476 1.288 1.232a5.6 5.6 0 0 1 .77 1.638 5.9 5.9 0 0 1 .266 1.694 5.8 5.8 0 0 1-.294 1.806 5.6 5.6 0 0 1-.812 1.61 4.2 4.2 0 0 1-1.302 1.176 3.45 3.45 0 0 1-1.694.448m-3.122-5.04q.029.727.224 1.47.21.728.602 1.344.393.602.952.98.575.364 1.344.364.784 0 1.372-.392t.966-1.022q.393-.645.588-1.358.196-.727.196-1.386 0-.727-.21-1.456a4.7 4.7 0 0 0-.616-1.344 3.3 3.3 0 0 0-.98-.98 2.34 2.34 0 0 0-1.316-.378q-.798 0-1.386.406a3.3 3.3 0 0 0-.98 1.022q-.378.63-.574 1.358a5.6 5.6 0 0 0-.182 1.372M1.92 128a6.5 6.5 0 0 1 .14-1.554q.153-.672.462-1.19.32-.518.77-.896.447-.392 1.008-.686.531-.294 1.106-.532.573-.252 1.064-.546.49-.294.784-.714.308-.434.308-1.078 0-.532-.238-.98a1.66 1.66 0 0 0-.7-.714q-.477-.28-1.204-.28-.714 0-1.274.238-.546.238-.924.574a6 6 0 0 0-.588.616l-.63-.616q.084-.098.336-.378.265-.28.7-.588a4.4 4.4 0 0 1 1.05-.518q.615-.224 1.428-.224 1.035 0 1.722.406.686.392 1.022 1.036.35.644.35 1.414 0 .742-.294 1.26a2.7 2.7 0 0 1-.742.854 5.7 5.7 0 0 1-.98.588l-.98.476q-.897.406-1.428.798-.533.392-.798.784-.252.392-.336.784a4.5 4.5 0 0 0-.098.798h5.67V128zm12.25.14q-1.008-.028-1.778-.49a4.2 4.2 0 0 1-1.288-1.204 6 6 0 0 1-.784-1.624 6 6 0 0 1-.266-1.722q0-.896.28-1.792a5.8 5.8 0 0 1 .826-1.624 4.2 4.2 0 0 1 1.302-1.176 3.3 3.3 0 0 1 1.708-.448q1.022 0 1.778.476a4.3 4.3 0 0 1 1.288 1.232 5.6 5.6 0 0 1 .77 1.638 5.9 5.9 0 0 1 .266 1.694q0 .91-.294 1.806a5.6 5.6 0 0 1-.812 1.61 4.2 4.2 0 0 1-1.302 1.176 3.45 3.45 0 0 1-1.694.448m-3.122-5.04q.029.727.224 1.47.21.728.602 1.344.393.602.952.98.575.364 1.344.364.784 0 1.372-.392t.966-1.022q.393-.644.588-1.358.196-.727.196-1.386 0-.728-.21-1.456a4.6 4.6 0 0 0-.616-1.344 3.3 3.3 0 0 0-.98-.98 2.34 2.34 0 0 0-1.316-.378q-.798 0-1.386.406a3.3 3.3 0 0 0-.98 1.022 5.3 5.3 0 0 0-.756 2.73m-1.905 42.032V166H4.51v-.868H6.4v-8.134q-.126.168-.378.378a5 5 0 0 1-.56.392 5 5 0 0 1-.658.308q-.336.126-.616.126v-.896q.378 0 .756-.196a5.4 5.4 0 0 0 1.232-.938l.224-.238h.966v9.198zm5.027 1.008q-1.008-.028-1.778-.49a4.2 4.2 0 0 1-1.288-1.204 6 6 0 0 1-.784-1.624 6 6 0 0 1-.266-1.722q0-.896.28-1.792a5.8 5.8 0 0 1 .826-1.624 4.2 4.2 0 0 1 1.302-1.176 3.3 3.3 0 0 1 1.708-.448q1.022 0 1.778.476a4.3 4.3 0 0 1 1.288 1.232 5.6 5.6 0 0 1 .77 1.638 5.9 5.9 0 0 1 .266 1.694q0 .91-.294 1.806a5.6 5.6 0 0 1-.812 1.61 4.2 4.2 0 0 1-1.302 1.176 3.45 3.45 0 0 1-1.694.448m-3.122-5.04q.029.727.224 1.47.21.728.602 1.344.393.602.952.98.575.364 1.344.364.784 0 1.372-.392t.966-1.022q.393-.644.588-1.358.196-.728.196-1.386 0-.728-.21-1.456a4.6 4.6 0 0 0-.616-1.344 3.3 3.3 0 0 0-.98-.98 2.34 2.34 0 0 0-1.316-.378q-.798 0-1.386.406a3.3 3.3 0 0 0-.98 1.022 5.3 5.3 0 0 0-.756 2.73m3.122 43.04q-1.008-.028-1.778-.49a4.2 4.2 0 0 1-1.288-1.204 6 6 0 0 1-.784-1.624 6 6 0 0 1-.266-1.722q0-.896.28-1.792a5.8 5.8 0 0 1 .826-1.624 4.2 4.2 0 0 1 1.302-1.176 3.3 3.3 0 0 1 1.708-.448q1.022 0 1.778.476a4.3 4.3 0 0 1 1.288 1.232 5.6 5.6 0 0 1 .77 1.638 5.9 5.9 0 0 1 .266 1.694q0 .91-.294 1.806a5.6 5.6 0 0 1-.812 1.61 4.2 4.2 0 0 1-1.302 1.176 3.45 3.45 0 0 1-1.694.448m-3.122-5.04q.029.727.224 1.47.21.728.602 1.344.393.602.952.98.575.364 1.344.364.784 0 1.372-.392t.966-1.022q.393-.644.588-1.358.196-.728.196-1.386 0-.728-.21-1.456a4.6 4.6 0 0 0-.616-1.344 3.3 3.3 0 0 0-.98-.98 2.34 2.34 0 0 0-1.316-.378q-.798 0-1.386.406a3.3 3.3 0 0 0-.98 1.022 5.3 5.3 0 0 0-.756 2.73m61.122 30.04q-1.007-.028-1.778-.49a4.2 4.2 0 0 1-1.288-1.204 6 6 0 0 1-.784-1.624 6 6 0 0 1-.266-1.722q0-.896.28-1.792a5.8 5.8 0 0 1 .826-1.624 4.2 4.2 0 0 1 1.302-1.176 3.3 3.3 0 0 1 1.708-.448q1.022 0 1.778.476a4.3 4.3 0 0 1 1.288 1.232 5.6 5.6 0 0 1 .77 1.638 5.9 5.9 0 0 1 .266 1.694q0 .91-.294 1.806a5.6 5.6 0 0 1-.812 1.61 4.2 4.2 0 0 1-1.302 1.176 3.45 3.45 0 0 1-1.694.448m-3.122-5.04q.029.727.224 1.47.21.728.602 1.344.393.602.952.98.575.364 1.344.364.784 0 1.372-.392t.966-1.022q.393-.644.588-1.358.196-.728.196-1.386 0-.728-.21-1.456a4.6 4.6 0 0 0-.616-1.344 3.3 3.3 0 0 0-.98-.98 2.34 2.34 0 0 0-1.316-.378q-.798 0-1.386.406a3.3 3.3 0 0 0-.98 1.022 5.3 5.3 0 0 0-.756 2.73m106.874 4.032V229h-4.634v-.868h1.89v-8.134q-.126.168-.378.378a5 5 0 0 1-.56.392 5 5 0 0 1-.658.308 1.8 1.8 0 0 1-.616.126v-.896q.378 0 .756-.196a5.3 5.3 0 0 0 1.232-.938l.224-.238h.966v9.198zm95.068.868a6.5 6.5 0 0 1 .14-1.554q.155-.672.462-1.19.322-.518.77-.896.448-.392 1.008-.686.532-.294 1.106-.532.574-.252 1.064-.546a2.5 2.5 0 0 0 .784-.714q.308-.434.308-1.078 0-.532-.238-.98a1.66 1.66 0 0 0-.7-.714q-.476-.28-1.204-.28-.714 0-1.274.238-.546.238-.924.574a6 6 0 0 0-.588.616l-.63-.616q.084-.098.336-.378.266-.28.7-.588a4.4 4.4 0 0 1 1.05-.518q.617-.224 1.428-.224 1.036 0 1.722.406.686.392 1.022 1.036.35.644.35 1.414 0 .743-.294 1.26a2.7 2.7 0 0 1-.742.854 5.7 5.7 0 0 1-.98.588l-.98.476q-.895.406-1.428.798t-.798.784q-.252.392-.336.784a4.5 4.5 0 0 0-.098.798h5.67V229zm105.527.126q-.882 0-1.596-.294a3.04 3.04 0 0 1-1.162-.812 2.4 2.4 0 0 1-.56-1.204l.588-.532q.028.476.378.938.35.448.952.728.616.28 1.4.28.7 0 1.26-.238.574-.252.896-.672.336-.433.336-1.008 0-.617-.392-1.05-.392-.448-1.106-.686t-1.694-.238h-.476v-.826h.476q1.357 0 2.142-.448.784-.449.784-1.344 0-.588-.322-1.022a2 2 0 0 0-.84-.672 2.7 2.7 0 0 0-1.134-.238q-.924 0-1.582.406-.659.407-.924 1.008l-.658-.644q.266-.504.742-.868a3.7 3.7 0 0 1 1.106-.56q.63-.196 1.302-.196.952 0 1.694.364.756.364 1.176.98.434.616.434 1.414 0 .56-.224 1.008a2.1 2.1 0 0 1-.658.742 3.3 3.3 0 0 1-1.064.448q.658.126 1.148.49.504.364.77.896.28.518.28 1.148 0 .84-.49 1.442a3.15 3.15 0 0 1-1.26.938 4.5 4.5 0 0 1-1.722.322M479.232 229v-2.66h-4.886v-.854l5.18-6.426h.658v6.412h1.232v.868h-1.232V229zm-3.864-3.528h3.948v-4.928z" opacity="0.4"/><g filter="url(#b)"><path stroke="#006BD2" stroke-linecap="round" stroke-width="2" d="M67.001 146c-.352-17.646 1.056-48.907 9.503-23.321 10.558 31.982 5.28 29.778 27.452 0 13.726-16.543 35.899 20.954 61.24 20.954 25.34 0 24.284-23.16 41.178-23.16s35.899 25.367 59.128 23.16c23.229-2.206 13.726-22.058 30.62-20.955s40.122 25.365 59.128 23.16c19.005-2.205 19.005-27.571 34.843-23.16s34.843 25.365 48.57 23.16 19.005-23.16 27.452-23.16c6.757 0 13.374 11.764 15.838 17.646"/></g><g filter="url(#c)"><path stroke="#006BD2" stroke-linecap="round" stroke-width="2" d="M67.001 107c-.352-17.646 1.056-48.907 9.503-23.321 10.558 31.982 5.28 29.778 27.452 0 13.726-16.543 35.899 20.954 61.24 20.954 25.34 0 24.284-23.16 41.178-23.16s35.899 25.367 59.128 23.16c23.229-2.206 13.726-22.058 30.62-20.955s40.122 25.365 59.128 23.16c19.005-2.205 19.005-27.571 34.843-23.16s34.843 25.365 48.57 23.16 19.005-23.16 27.452-23.16c6.757 0 13.374 11.764 15.838 17.646"/></g><path fill="#FF5441" d="M69.928 73.366a2.05 2.05 0 0 1 1.764-.277c.58.173 1.08.576 1.515 1.065.444.5.884 1.163 1.327 1.98.888 1.636 1.856 4.01 2.92 7.231L77.986 85h-2.104l-.329-1.008c-1.048-3.175-1.973-5.421-2.777-6.904-.403-.742-.76-1.262-1.065-1.606-.314-.353-.514-.453-.592-.476-.022-.007-.022-.016-.077.02-.097.065-.266.237-.473.615-.414.755-.801 2-1.137 3.682-.323 1.617-.583 3.55-.79 5.677h-2.008c.217-2.266.49-4.335.837-6.068.346-1.73.779-3.22 1.343-4.25.281-.514.64-.998 1.113-1.316m39.288 5.501c2.189-.62 4.471-.486 6.796.142 3.675.992 7.598 3.263 11.675 5.99h-3.68c-3.039-1.89-5.876-3.347-8.516-4.06-2.079-.56-3.98-.643-5.73-.147-1.737.492-3.416 1.58-5.021 3.509l-.516.699h-2.487q.689-.94 1.417-1.918l.015-.022.017-.02c1.821-2.196 3.834-3.55 6.03-4.173m97.158 1.605c4.463 0 8.99 1.672 13.56 4.041q.458.239.919.487h-4.497c-3.485-1.568-6.797-2.527-9.982-2.528-3.36 0-5.948.965-8.211 2.528h-3.22c2.977-2.638 6.493-4.527 11.431-4.528M287.306 85c2.042-1.681 4.794-2.586 8.881-2.32 2.945.193 6.041 1.055 9.222 2.32h-6.871a21 21 0 0 0-2.481-.324c-1.777-.116-3.215.014-4.404.324zm92.755-.69c2.766-1.964 6.047-2.78 10.301-1.595 1.956.545 3.948 1.333 5.96 2.285h-5.324q-.59-.195-1.174-.359c-2.84-.79-5.075-.545-7 .359h-3.656q.437-.365.893-.69m86.054-1.631c1.982 0 3.869.86 5.575 2.126l.254.195h-4.02a5.6 5.6 0 0 0-1.809-.321c-.542 0-1.08.11-1.625.32h-3.671c1.587-1.374 3.327-2.32 5.296-2.32" style="mix-blend-mode:hue"/></g><defs><filter id="b" width="497" height="115" x="29.9526" y="79.9999" color-interpolation-filters="sRGB" filterUnits="userSpaceOnUse"><feFlood flood-opacity="0" result="BackgroundImageFix"/><feColorMatrix in="SourceAlpha" result="hardAlpha" values="0 0 0 0 0 0 0 0 0 0 0 0 0 0 0 0 0 0 127 0"/><feOffset dx="4" dy="8"/><feGaussianBlur stdDeviation="20"/><feComposite in2="hardAlpha" operator="out"/><feColorMatrix values="0 0 0 0 0.219608 0 0 0 0 0.737255 0 0 0 0 0.886275 0 0 0 0.4 0"/><feBlend in2="BackgroundImageFix" result="effect1_dropShadow_10_86"/><feColorMatrix in="SourceAlpha" result="hardAlpha" values="0 0 0 0 0 0 0 0 0 0 0 0 0 0 0 0 0 0 127 0"/><feOffset dx="2" dy="4"/><feGaussianBlur stdDeviation="4"/><feComposite in2="hardAlpha" operator="out"/><feColorMatrix values="0 0 0 0 0.219608 0 0 0 0 0.737255 0 0 0 0 0.886275 0 0 0 0.2 0"/><feBlend in2="effect1_dropShadow_10_86" result="effect2_dropShadow_10_86"/><feBlend in="SourceGraphic" in2="effect2_dropShadow_10_86" result="shape"/></filter><filter id="c" width="497" height="115" x="29.9526" y="40.9999" color-interpolation-filters="sRGB" filterUnits="userSpaceOnUse"><feFlood flood-opacity="0" result="BackgroundImageFix"/><feColorMatrix in="SourceAlpha" result="hardAlpha" values="0 0 0 0 0 0 0 0 0 0 0 0 0 0 0 0 0 0 127 0"/><feOffset dx="4" dy="8"/><feGaussianBlur stdDeviation="20"/><feComposite in2="hardAlpha" operator="out"/><feColorMatrix values="0 0 0 0 0.219608 0 0 0 0 0.737255 0 0 0 0 0.886275 0 0 0 0.4 0"/><feBlend in2="BackgroundImageFix" result="effect1_dropShadow_10_86"/><feColorMatrix in="SourceAlpha" result="hardAlpha" values="0 0 0 0 0 0 0 0 0 0 0 0 0 0 0 0 0 0 127 0"/><feOffset dx="2" dy="4"/><feGaussianBlur stdDeviation="4"/><feComposite in2="hardAlpha" operator="out"/><feColorMatrix values="0 0 0 0 0.219608 0 0 0 0 0.737255 0 0 0 0 0.886275 0 0 0 0.2 0"/><feBlend in2="effect1_dropShadow_10_86" result="effect2_dropShadow_10_86"/><feBlend in="SourceGraphic" in2="effect2_dropShadow_10_86" result="shape"/></filter><clipPath id="a"><path fill="#fff" d="M.953 0h481v233h-481z"/></clipPath></defs></svg>