<svg xmlns="http://www.w3.org/2000/svg" width="482" height="233" fill="none" viewBox="0 0 482 233"><g clip-path="url(#a)"><path stroke="#fff" d="M34.953 45.5h16m-16 51h16m-16 51h16m-16 51h447" opacity="0.4"/><path fill="#fff" d="M6.662 51v-2.66H1.776v-.854l5.18-6.426h.658v6.412h1.232v.868H7.614V51zm-3.864-3.528h3.948v-4.928zM14.17 51.14q-1.008-.028-1.778-.49a4.2 4.2 0 0 1-1.288-1.204 6 6 0 0 1-.784-1.624 6 6 0 0 1-.266-1.722q0-.896.28-1.792a5.8 5.8 0 0 1 .826-1.624 4.2 4.2 0 0 1 1.302-1.176 3.3 3.3 0 0 1 1.708-.448q1.022 0 1.778.476.77.476 1.288 1.232a5.6 5.6 0 0 1 .77 1.638 5.9 5.9 0 0 1 .266 1.694 5.8 5.8 0 0 1-.294 1.806 5.6 5.6 0 0 1-.812 1.61 4.2 4.2 0 0 1-1.302 1.176 3.45 3.45 0 0 1-1.694.448m-3.122-5.04q.029.728.224 1.47.21.727.602 1.344.393.602.952.98.575.364 1.344.364.784 0 1.372-.392t.966-1.022q.393-.644.588-1.358.196-.727.196-1.386 0-.727-.21-1.456a4.7 4.7 0 0 0-.616-1.344 3.3 3.3 0 0 0-.98-.98 2.34 2.34 0 0 0-1.316-.378q-.798 0-1.386.406a3.3 3.3 0 0 0-.98 1.022q-.378.63-.574 1.358a5.6 5.6 0 0 0-.182 1.372M5.197 89.126q-.882 0-1.596-.294a3 3 0 0 1-1.162-.812 2.4 2.4 0 0 1-.56-1.204l.588-.532q.027.476.378.938.35.448.952.728.615.28 1.4.28.699 0 1.26-.238.572-.252.896-.672a1.6 1.6 0 0 0 .336-1.008q0-.615-.392-1.05-.393-.448-1.106-.686t-1.694-.238H4.02v-.826h.476q1.358 0 2.142-.448.784-.449.784-1.344 0-.588-.322-1.022a2 2 0 0 0-.84-.672 2.7 2.7 0 0 0-1.134-.238q-.925 0-1.582.406-.66.406-.924 1.008l-.658-.644q.265-.504.742-.868a3.7 3.7 0 0 1 1.106-.56q.63-.195 1.302-.196.951 0 1.694.364.756.365 1.176.98.434.615.434 1.414 0 .56-.224 1.008-.226.435-.658.742-.435.294-1.064.448.657.126 1.148.49.503.364.77.896.28.518.28 1.148 0 .84-.49 1.442a3.15 3.15 0 0 1-1.26.938 4.5 4.5 0 0 1-1.722.322m8.973.014q-1.008-.028-1.778-.49a4.2 4.2 0 0 1-1.288-1.204 6 6 0 0 1-.784-1.624 6 6 0 0 1-.266-1.722q0-.896.28-1.792a5.8 5.8 0 0 1 .826-1.624 4.2 4.2 0 0 1 1.302-1.176 3.3 3.3 0 0 1 1.708-.448q1.022 0 1.778.476.77.476 1.288 1.232a5.6 5.6 0 0 1 .77 1.638 5.9 5.9 0 0 1 .266 1.694 5.8 5.8 0 0 1-.294 1.806 5.6 5.6 0 0 1-.812 1.61 4.2 4.2 0 0 1-1.302 1.176 3.45 3.45 0 0 1-1.694.448m-3.122-5.04q.029.727.224 1.47.21.728.602 1.344.393.602.952.98.575.364 1.344.364.784 0 1.372-.392t.966-1.022q.393-.645.588-1.358.196-.728.196-1.386 0-.727-.21-1.456a4.7 4.7 0 0 0-.616-1.344 3.3 3.3 0 0 0-.98-.98 2.34 2.34 0 0 0-1.316-.378q-.798 0-1.386.406a3.3 3.3 0 0 0-.98 1.022q-.378.63-.574 1.358a5.6 5.6 0 0 0-.182 1.372M1.92 127a6.5 6.5 0 0 1 .14-1.554q.153-.672.462-1.19.32-.518.77-.896.447-.392 1.008-.686.531-.294 1.106-.532.573-.252 1.064-.546.49-.294.784-.714.308-.434.308-1.078 0-.532-.238-.98a1.66 1.66 0 0 0-.7-.714q-.477-.28-1.204-.28-.714 0-1.274.238-.546.238-.924.574a6 6 0 0 0-.588.616l-.63-.616q.084-.098.336-.378.265-.28.7-.588a4.4 4.4 0 0 1 1.05-.518q.615-.224 1.428-.224 1.035 0 1.722.406.686.392 1.022 1.036.35.644.35 1.414 0 .742-.294 1.26a2.7 2.7 0 0 1-.742.854 5.7 5.7 0 0 1-.98.588l-.98.476q-.897.406-1.428.798-.533.392-.798.784-.252.392-.336.784a4.5 4.5 0 0 0-.098.798h5.67V127zm12.25.14q-1.008-.028-1.778-.49a4.2 4.2 0 0 1-1.288-1.204 6 6 0 0 1-.784-1.624 6 6 0 0 1-.266-1.722q0-.896.28-1.792a5.8 5.8 0 0 1 .826-1.624 4.2 4.2 0 0 1 1.302-1.176 3.3 3.3 0 0 1 1.708-.448q1.022 0 1.778.476a4.3 4.3 0 0 1 1.288 1.232 5.6 5.6 0 0 1 .77 1.638 5.9 5.9 0 0 1 .266 1.694q0 .91-.294 1.806a5.6 5.6 0 0 1-.812 1.61 4.2 4.2 0 0 1-1.302 1.176 3.45 3.45 0 0 1-1.694.448m-3.122-5.04q.029.727.224 1.47.21.728.602 1.344.393.602.952.98.575.364 1.344.364.784 0 1.372-.392t.966-1.022q.393-.644.588-1.358.196-.727.196-1.386 0-.728-.21-1.456a4.6 4.6 0 0 0-.616-1.344 3.3 3.3 0 0 0-.98-.98 2.34 2.34 0 0 0-1.316-.378q-.798 0-1.386.406a3.3 3.3 0 0 0-.98 1.022 5.3 5.3 0 0 0-.756 2.73m-1.905 42.032V165H4.51v-.868H6.4v-8.134q-.126.168-.378.378a5 5 0 0 1-.56.392 5 5 0 0 1-.658.308q-.336.126-.616.126v-.896q.378 0 .756-.196a5.4 5.4 0 0 0 1.232-.938l.224-.238h.966v9.198zm5.027 1.008q-1.008-.028-1.778-.49a4.2 4.2 0 0 1-1.288-1.204 6 6 0 0 1-.784-1.624 6 6 0 0 1-.266-1.722q0-.896.28-1.792a5.8 5.8 0 0 1 .826-1.624 4.2 4.2 0 0 1 1.302-1.176 3.3 3.3 0 0 1 1.708-.448q1.022 0 1.778.476a4.3 4.3 0 0 1 1.288 1.232 5.6 5.6 0 0 1 .77 1.638 5.9 5.9 0 0 1 .266 1.694q0 .91-.294 1.806a5.6 5.6 0 0 1-.812 1.61 4.2 4.2 0 0 1-1.302 1.176 3.45 3.45 0 0 1-1.694.448m-3.122-5.04q.029.727.224 1.47.21.728.602 1.344.393.602.952.98.575.364 1.344.364.784 0 1.372-.392t.966-1.022q.393-.644.588-1.358.196-.728.196-1.386 0-.728-.21-1.456a4.6 4.6 0 0 0-.616-1.344 3.3 3.3 0 0 0-.98-.98 2.34 2.34 0 0 0-1.316-.378q-.798 0-1.386.406a3.3 3.3 0 0 0-.98 1.022 5.3 5.3 0 0 0-.756 2.73m3.122 43.04q-1.008-.028-1.778-.49a4.2 4.2 0 0 1-1.288-1.204 6 6 0 0 1-.784-1.624 6 6 0 0 1-.266-1.722q0-.896.28-1.792a5.8 5.8 0 0 1 .826-1.624 4.2 4.2 0 0 1 1.302-1.176 3.3 3.3 0 0 1 1.708-.448q1.022 0 1.778.476a4.3 4.3 0 0 1 1.288 1.232 5.6 5.6 0 0 1 .77 1.638 5.9 5.9 0 0 1 .266 1.694q0 .91-.294 1.806a5.6 5.6 0 0 1-.812 1.61 4.2 4.2 0 0 1-1.302 1.176 3.45 3.45 0 0 1-1.694.448m-3.122-5.04q.029.727.224 1.47.21.728.602 1.344.393.602.952.98.575.364 1.344.364.784 0 1.372-.392t.966-1.022q.393-.644.588-1.358.196-.728.196-1.386 0-.728-.21-1.456a4.6 4.6 0 0 0-.616-1.344 3.3 3.3 0 0 0-.98-.98 2.34 2.34 0 0 0-1.316-.378q-.798 0-1.386.406a3.3 3.3 0 0 0-.98 1.022 5.3 5.3 0 0 0-.756 2.73m61.122 31.04q-1.007-.028-1.778-.49a4.2 4.2 0 0 1-1.288-1.204 6 6 0 0 1-.784-1.624 6 6 0 0 1-.266-1.722q0-.896.28-1.792a5.8 5.8 0 0 1 .826-1.624 4.2 4.2 0 0 1 1.302-1.176 3.3 3.3 0 0 1 1.708-.448q1.022 0 1.778.476a4.3 4.3 0 0 1 1.288 1.232 5.6 5.6 0 0 1 .77 1.638 5.9 5.9 0 0 1 .266 1.694q0 .91-.294 1.806a5.6 5.6 0 0 1-.812 1.61 4.2 4.2 0 0 1-1.302 1.176 3.45 3.45 0 0 1-1.694.448m-3.122-5.04q.029.727.224 1.47.21.728.602 1.344.393.602.952.98.575.364 1.344.364.784 0 1.372-.392t.966-1.022q.393-.644.588-1.358.196-.728.196-1.386 0-.728-.21-1.456a4.6 4.6 0 0 0-.616-1.344 3.3 3.3 0 0 0-.98-.98 2.34 2.34 0 0 0-1.316-.378q-.798 0-1.386.406a3.3 3.3 0 0 0-.98 1.022 5.3 5.3 0 0 0-.756 2.73m103.719 5.026q-.882 0-1.596-.294a3.04 3.04 0 0 1-1.162-.812 2.4 2.4 0 0 1-.56-1.204l.588-.532q.029.476.378.938.35.448.952.728.616.28 1.4.28.7 0 1.26-.238.574-.252.896-.672.336-.433.336-1.008 0-.617-.392-1.05-.392-.448-1.106-.686t-1.694-.238h-.476v-.826h.476q1.358 0 2.142-.448.784-.449.784-1.344 0-.588-.322-1.022a2 2 0 0 0-.84-.672 2.7 2.7 0 0 0-1.134-.238q-.924 0-1.582.406-.659.407-.924 1.008l-.658-.644q.266-.504.742-.868a3.7 3.7 0 0 1 1.106-.56q.63-.196 1.302-.196.952 0 1.694.364.756.364 1.176.98.434.616.434 1.414 0 .56-.224 1.008a2.1 2.1 0 0 1-.658.742 3.3 3.3 0 0 1-1.064.448q.658.126 1.148.49.504.364.77.896.28.518.28 1.148 0 .84-.49 1.442a3.15 3.15 0 0 1-1.26.938 4.5 4.5 0 0 1-1.722.322m103.576-3.402a3.26 3.26 0 0 1-.476 1.722 3.51 3.51 0 0 1-3.052 1.694q-1.036 0-1.848-.49-.798-.504-1.26-1.442t-.462-2.226q0-2.03.462-3.346.462-1.33 1.288-1.988a3 3 0 0 1 1.918-.658q.994 0 1.778.504.784.49 1.19 1.344l-.616.56a2.43 2.43 0 0 0-.938-1.134 2.44 2.44 0 0 0-1.414-.434q-.826 0-1.442.518t-.966 1.484q-.336.966-.336 2.338a2.7 2.7 0 0 1 .616-.952q.406-.406.952-.63a3.2 3.2 0 0 1 1.19-.224q.952 0 1.722.448.784.449 1.232 1.218.462.756.462 1.694m-3.5 2.576q.7 0 1.288-.35a2.65 2.65 0 0 0 .938-.938q.364-.588.364-1.288t-.364-1.288a2.65 2.65 0 0 0-.938-.938 2.5 2.5 0 0 0-1.288-.35q-.714 0-1.316.35a2.65 2.65 0 0 0-.938.938q-.35.574-.35 1.288 0 .7.35 1.288.364.588.952.938a2.5 2.5 0 0 0 1.302.35m96.29-5.894q0-.952.462-1.722a3.33 3.33 0 0 1 1.26-1.232 3.56 3.56 0 0 1 1.792-.462q1.064 0 1.862.504.798.49 1.246 1.414.462.924.462 2.226 0 2.03-.462 3.36-.448 1.33-1.274 1.988t-1.932.658a3.26 3.26 0 0 1-1.764-.49 3.2 3.2 0 0 1-1.19-1.372l.602-.546q.308.7.938 1.134.644.42 1.428.42.826 0 1.442-.504.616-.518.952-1.484.35-.966.35-2.338a2.6 2.6 0 0 1-.616.952 2.8 2.8 0 0 1-.966.63 3.1 3.1 0 0 1-1.176.224 3.43 3.43 0 0 1-1.736-.448 3.43 3.43 0 0 1-1.232-1.218 3.3 3.3 0 0 1-.448-1.694m3.5-2.59q-.7 0-1.288.35a2.65 2.65 0 0 0-.938.938q-.35.588-.35 1.288 0 .714.35 1.302.35.574.938.938.601.35 1.302.35a2.5 2.5 0 0 0 1.302-.35q.588-.364.938-.938.364-.588.364-1.288t-.364-1.288a2.8 2.8 0 0 0-.952-.938 2.4 2.4 0 0 0-1.302-.364m100.905 8.316V229h-4.634v-.868h1.89v-8.134q-.126.168-.378.378a5 5 0 0 1-.56.392 5 5 0 0 1-.658.308q-.337.126-.616.126v-.896q.378 0 .756-.196a5.4 5.4 0 0 0 1.232-.938l.224-.238h.966v9.198zm.952.868a6.5 6.5 0 0 1 .14-1.554q.155-.672.462-1.19.322-.518.77-.896.448-.392 1.008-.686.532-.294 1.106-.532.574-.252 1.064-.546a2.5 2.5 0 0 0 .784-.714q.308-.434.308-1.078 0-.532-.238-.98a1.66 1.66 0 0 0-.7-.714q-.476-.28-1.204-.28-.714 0-1.274.238-.546.238-.924.574a6 6 0 0 0-.588.616l-.63-.616q.084-.098.336-.378.266-.28.7-.588a4.4 4.4 0 0 1 1.05-.518q.617-.224 1.428-.224 1.036 0 1.722.406.686.392 1.022 1.036.35.644.35 1.414 0 .743-.294 1.26a2.7 2.7 0 0 1-.742.854 5.7 5.7 0 0 1-.98.588l-.98.476q-.895.406-1.428.798t-.798.784q-.252.392-.336.784a4.5 4.5 0 0 0-.098.798h5.67V229z" opacity="0.4"/><g filter="url(#b)"><path stroke="#006BD2" stroke-linecap="round" stroke-width="2" d="M66.953 106.751c0-22.916 2.477-67.845 12.388-64.232 12.388 4.517 72.263 129.968 90.845 129.968 18.583 0 5.162-135.487 19.615-135.487s73.296 139 86.716 139c13.421 0 5.162-139 20.647-139s68.134 135.989 84.652 137.495C398.333 176 379.751 37 398.333 37c14.866 0 61.941 85.976 83.62 128.964"/></g><path fill="#FF5441" d="M284.809 148a294 294 0 0 1-.587 6.385c-.678 6.527-1.524 12.029-2.639 15.918-.555 1.937-1.196 3.547-1.961 4.692-.758 1.133-1.776 2.005-3.105 2.005-1.225 0-2.481-.763-3.683-1.807-1.244-1.081-2.618-2.633-4.096-4.556-2.961-3.852-6.443-9.326-10.263-15.851a449 449 0 0 1-3.886-6.786h2.296a437 437 0 0 0 3.317 5.776c3.809 6.506 7.239 11.892 10.122 15.642 1.443 1.877 2.724 3.312 3.823 4.267 1.142.991 1.917 1.315 2.37 1.315.348 0 .839-.215 1.442-1.117.596-.891 1.168-2.268 1.702-4.131 1.063-3.713 1.896-9.07 2.572-15.574.204-1.965.391-4.029.568-6.178zm105.248 0a229 229 0 0 1-.307 5.714c-.437 6.423-1.144 11.824-2.288 15.595-.569 1.879-1.273 3.443-2.173 4.528-.927 1.117-2.12 1.785-3.564 1.653-1.335-.121-2.701-.896-4.052-2.019-1.371-1.141-2.84-2.738-4.386-4.697-3.096-3.919-6.596-9.404-10.354-15.897a358 358 0 0 1-2.766-4.877h2.292a336 336 0 0 0 2.205 3.875c3.742 6.467 7.186 11.854 10.192 15.659 1.504 1.904 2.875 3.383 4.097 4.4 1.243 1.034 2.224 1.498 2.954 1.565.62.057 1.217-.185 1.843-.938.651-.786 1.259-2.055 1.798-3.832 1.075-3.543 1.772-8.754 2.206-15.151.121-1.778.219-3.641.302-5.578zm-209.615 0a174 174 0 0 1-.392 3.441c-.793 6.371-1.861 11.764-3.346 15.587-.743 1.91-1.614 3.497-2.662 4.62-1.065 1.142-2.351 1.839-3.856 1.839-1.43 0-2.942-.597-4.478-1.563-1.549-.975-3.211-2.381-4.959-4.129-3.499-3.498-7.448-8.469-11.669-14.4a280 280 0 0 1-3.736-5.395h2.417q1.496 2.193 2.948 4.235c4.199 5.9 8.072 10.765 11.454 14.146 1.691 1.691 3.234 2.984 4.61 3.849 1.388.874 2.52 1.257 3.413 1.257.818 0 1.606-.36 2.393-1.204.803-.861 1.563-2.185 2.26-3.979 1.394-3.586 2.439-8.779 3.227-15.11q.193-1.556.365-3.194zm293.39 0c2.469 4.712 4.787 9.198 6.907 13.358l1.214 2.395v3.21a1 1 0 0 1-.842-.46l-.051-.089-2.103-4.149A1333 1333 0 0 0 471.572 148zM77.334 41.422c.77-.186 1.562-.13 2.35.158l.189.075c.951.405 1.98 1.267 3.046 2.374 1.166 1.211 2.482 2.83 3.924 4.777 2.884 3.897 6.33 9.197 10.157 15.401 3.806 6.17 8.004 13.262 12.421 20.793H107.1c-4.193-7.143-8.174-13.86-11.802-19.743-3.82-6.192-7.23-11.433-10.063-15.26-1.417-1.916-2.676-3.457-3.757-4.58-.97-1.009-1.725-1.6-2.262-1.864l-.217-.094c-.45-.164-.841-.18-1.195-.094-.363.088-.752.298-1.166.676-.85.776-1.691 2.157-2.485 4.14-1.578 3.943-2.805 9.835-3.731 16.64-.859 6.303-1.45 13.322-1.84 20.179H66.58c.392-6.937.99-14.052 1.86-20.448.932-6.84 2.183-12.934 3.857-17.115.832-2.078 1.81-3.794 2.993-4.873.602-.55 1.283-.958 2.045-1.142M189.802 36c1.268 0 2.577.74 3.845 1.791 1.304 1.081 2.734 2.635 4.262 4.56 3.061 3.854 6.625 9.33 10.511 15.856 4.594 7.716 9.664 16.948 14.921 26.793h-2.267c-5.067-9.474-9.945-18.332-14.373-25.77-3.873-6.504-7.382-11.888-10.357-15.635-1.49-1.876-2.821-3.31-3.973-4.264-1.187-.984-2.031-1.33-2.569-1.331-.452 0-.981.247-1.582 1.098-.604.857-1.173 2.187-1.687 3.997-1.025 3.607-1.753 8.82-2.284 15.159-.643 7.671-.99 16.896-1.251 26.746h-2.001c.261-9.891.611-19.183 1.259-26.914.533-6.363 1.273-11.735 2.353-15.537.538-1.895 1.181-3.476 1.977-4.604.8-1.133 1.86-1.945 3.216-1.945m107.363 0c1.312 0 2.65.706 3.947 1.748 1.322 1.063 2.743 2.589 4.241 4.477 3.001 3.78 6.422 9.148 10.115 15.547 4.506 7.809 9.449 17.208 14.566 27.228h-2.249c-4.942-9.66-9.701-18.693-14.05-26.228-3.679-6.375-7.041-11.642-9.948-15.304-1.455-1.833-2.77-3.23-3.928-4.16-1.183-.95-2.071-1.308-2.694-1.308-.544 0-1.159.292-1.848 1.176-.693.89-1.362 2.26-1.988 4.116-1.249 3.701-2.239 9.05-3.044 15.55-.933 7.535-1.605 16.534-2.157 26.158h-2.003c.555-9.695 1.233-18.786 2.176-26.404.808-6.53 1.817-12.042 3.133-15.943.657-1.945 1.411-3.56 2.305-4.707.898-1.152 2.034-1.946 3.426-1.946m101.169 0c1.161 0 2.386.416 3.632 1.1 1.253.688 2.593 1.683 4.002 2.93 2.817 2.492 6.004 6.072 9.441 10.458 6.879 8.779 14.858 20.909 23.033 34.354l.096.158h-2.342c-7.972-13.068-15.705-24.782-22.361-33.277-3.406-4.346-6.506-7.819-9.193-10.196-1.343-1.188-2.56-2.082-3.639-2.675-1.087-.596-1.972-.852-2.669-.852-.805 0-1.565.361-2.314 1.219-.767.879-1.477 2.234-2.108 4.075-1.262 3.678-2.117 9.002-2.68 15.487-.655 7.553-.906 16.578-.976 26.219h-2c.07-9.68.322-18.77.984-26.392.566-6.522 1.437-12.045 2.78-15.962.671-1.957 1.485-3.586 2.494-4.743 1.029-1.177 2.301-1.903 3.82-1.903" style="mix-blend-mode:hue"/></g><defs><clipPath id="a"><path fill="#fff" d="M.953 0h481v233h-481z"/></clipPath><filter id="b" width="497" height="221" x="29.9526" y="4" color-interpolation-filters="sRGB" filterUnits="userSpaceOnUse"><feFlood flood-opacity="0" result="BackgroundImageFix"/><feColorMatrix in="SourceAlpha" result="hardAlpha" values="0 0 0 0 0 0 0 0 0 0 0 0 0 0 0 0 0 0 127 0"/><feOffset dx="4" dy="8"/><feGaussianBlur stdDeviation="20"/><feComposite in2="hardAlpha" operator="out"/><feColorMatrix values="0 0 0 0 0.219608 0 0 0 0 0.737255 0 0 0 0 0.886275 0 0 0 0.4 0"/><feBlend in2="BackgroundImageFix" result="effect1_dropShadow_10_87"/><feColorMatrix in="SourceAlpha" result="hardAlpha" values="0 0 0 0 0 0 0 0 0 0 0 0 0 0 0 0 0 0 127 0"/><feOffset dx="2" dy="4"/><feGaussianBlur stdDeviation="4"/><feComposite in2="hardAlpha" operator="out"/><feColorMatrix values="0 0 0 0 0.219608 0 0 0 0 0.737255 0 0 0 0 0.886275 0 0 0 0.2 0"/><feBlend in2="effect1_dropShadow_10_87" result="effect2_dropShadow_10_87"/><feBlend in="SourceGraphic" in2="effect2_dropShadow_10_87" result="shape"/></filter></defs></svg>