<svg width="482" height="233" viewBox="0 0 482 233" fill="none" xmlns="http://www.w3.org/2000/svg">
<g clip-path="url(#clip0_10_87)">
<g opacity="0.4">
<line x1="34.9526" y1="45.5" x2="50.9526" y2="45.5" stroke="white"/>
<line x1="34.9526" y1="96.5" x2="50.9526" y2="96.5" stroke="white"/>
<line x1="34.9526" y1="147.5" x2="50.9526" y2="147.5" stroke="white"/>
<line x1="34.9526" y1="198.5" x2="481.953" y2="198.5" stroke="white"/>
</g>
<path opacity="0.4" d="M6.66162 51L6.66162 48.34H1.77562V47.486L6.95562 41.06H7.61362L7.61362 47.472H8.84562V48.34H7.61362L7.61362 51H6.66162ZM2.79762 47.472H6.74562L6.74562 42.544L2.79762 47.472ZM14.1703 51.14C13.4983 51.1213 12.9057 50.958 12.3923 50.65C11.879 50.342 11.4497 49.9407 11.1043 49.446C10.759 48.942 10.4977 48.4007 10.3203 47.822C10.143 47.234 10.0543 46.66 10.0543 46.1C10.0543 45.5027 10.1477 44.9053 10.3343 44.308C10.5303 43.7107 10.8057 43.1693 11.1603 42.684C11.5243 42.1893 11.9583 41.7973 12.4623 41.508C12.9663 41.2093 13.5357 41.06 14.1703 41.06C14.8517 41.06 15.4443 41.2187 15.9483 41.536C16.4617 41.8533 16.891 42.264 17.2363 42.768C17.5817 43.272 17.8383 43.818 18.0063 44.406C18.1837 44.994 18.2723 45.5587 18.2723 46.1C18.2723 46.7067 18.1743 47.3087 17.9783 47.906C17.7917 48.494 17.521 49.0307 17.1663 49.516C16.8117 50.0013 16.3777 50.3933 15.8643 50.692C15.3603 50.9813 14.7957 51.1307 14.1703 51.14ZM11.0483 46.1C11.067 46.5853 11.1417 47.0753 11.2723 47.57C11.4123 48.0553 11.613 48.5033 11.8743 48.914C12.1357 49.3153 12.453 49.642 12.8263 49.894C13.209 50.1367 13.657 50.258 14.1703 50.258C14.693 50.258 15.1503 50.1273 15.5423 49.866C15.9343 49.6047 16.2563 49.264 16.5083 48.844C16.7697 48.4147 16.9657 47.962 17.0963 47.486C17.227 47.0007 17.2923 46.5387 17.2923 46.1C17.2923 45.6147 17.2223 45.1293 17.0823 44.644C16.9423 44.1493 16.737 43.7013 16.4663 43.3C16.1957 42.8893 15.869 42.5627 15.4863 42.32C15.1037 42.068 14.665 41.942 14.1703 41.942C13.6383 41.942 13.1763 42.0773 12.7843 42.348C12.3923 42.6093 12.0657 42.95 11.8043 43.37C11.5523 43.79 11.361 44.2427 11.2303 44.728C11.109 45.204 11.0483 45.6613 11.0483 46.1Z" fill="white"/>
<path opacity="0.4" d="M5.19654 89.126C4.60854 89.126 4.07654 89.028 3.60054 88.832C3.12454 88.636 2.73721 88.3653 2.43854 88.02C2.13988 87.6747 1.95321 87.2733 1.87854 86.816L2.46654 86.284C2.48521 86.6013 2.61121 86.914 2.84454 87.222C3.07788 87.5207 3.39521 87.7633 3.79654 87.95C4.20721 88.1367 4.67388 88.23 5.19654 88.23C5.66321 88.23 6.08321 88.1507 6.45654 87.992C6.83921 87.824 7.13788 87.6 7.35254 87.32C7.57654 87.0307 7.68854 86.6947 7.68854 86.312C7.68854 85.9013 7.55788 85.5513 7.29654 85.262C7.03521 84.9633 6.66654 84.7347 6.19054 84.576C5.71454 84.4173 5.14988 84.338 4.49654 84.338H4.02054V83.512H4.49654C5.40188 83.512 6.11588 83.3627 6.63854 83.064C7.16121 82.7653 7.42254 82.3173 7.42254 81.72C7.42254 81.328 7.31521 80.9873 7.10054 80.698C6.89521 80.4087 6.61521 80.1847 6.26054 80.026C5.91521 79.8673 5.53721 79.788 5.12654 79.788C4.51054 79.788 3.98321 79.9233 3.54454 80.194C3.10588 80.4647 2.79788 80.8007 2.62054 81.202L1.96254 80.558C2.13988 80.222 2.38721 79.9327 2.70454 79.69C3.03121 79.4473 3.39988 79.2607 3.81054 79.13C4.23054 78.9993 4.66454 78.934 5.11254 78.934C5.74721 78.934 6.31188 79.0553 6.80654 79.298C7.31054 79.5407 7.70254 79.8673 7.98254 80.278C8.27188 80.6887 8.41654 81.16 8.41654 81.692C8.41654 82.0653 8.34188 82.4013 8.19254 82.7C8.04321 82.9893 7.82388 83.2367 7.53454 83.442C7.24521 83.638 6.89054 83.7873 6.47054 83.89C6.90921 83.974 7.29188 84.1373 7.61854 84.38C7.95454 84.6227 8.21121 84.9213 8.38854 85.276C8.57521 85.6213 8.66854 86.004 8.66854 86.424C8.66854 86.984 8.50521 87.4647 8.17854 87.866C7.86121 88.2673 7.44121 88.58 6.91854 88.804C6.39588 89.0187 5.82188 89.126 5.19654 89.126ZM14.1703 89.14C13.4983 89.1213 12.9057 88.958 12.3923 88.65C11.879 88.342 11.4497 87.9407 11.1043 87.446C10.759 86.942 10.4977 86.4007 10.3203 85.822C10.143 85.234 10.0543 84.66 10.0543 84.1C10.0543 83.5027 10.1477 82.9053 10.3343 82.308C10.5303 81.7107 10.8057 81.1693 11.1603 80.684C11.5243 80.1893 11.9583 79.7973 12.4623 79.508C12.9663 79.2093 13.5357 79.06 14.1703 79.06C14.8517 79.06 15.4443 79.2187 15.9483 79.536C16.4617 79.8533 16.891 80.264 17.2363 80.768C17.5817 81.272 17.8383 81.818 18.0063 82.406C18.1837 82.994 18.2723 83.5587 18.2723 84.1C18.2723 84.7067 18.1743 85.3087 17.9783 85.906C17.7917 86.494 17.521 87.0307 17.1663 87.516C16.8117 88.0013 16.3777 88.3933 15.8643 88.692C15.3603 88.9813 14.7957 89.1307 14.1703 89.14ZM11.0483 84.1C11.067 84.5853 11.1417 85.0753 11.2723 85.57C11.4123 86.0553 11.613 86.5033 11.8743 86.914C12.1357 87.3153 12.453 87.642 12.8263 87.894C13.209 88.1367 13.657 88.258 14.1703 88.258C14.693 88.258 15.1503 88.1273 15.5423 87.866C15.9343 87.6047 16.2563 87.264 16.5083 86.844C16.7697 86.4147 16.9657 85.962 17.0963 85.486C17.227 85.0007 17.2923 84.5387 17.2923 84.1C17.2923 83.6147 17.2223 83.1293 17.0823 82.644C16.9423 82.1493 16.737 81.7013 16.4663 81.3C16.1957 80.8893 15.869 80.5627 15.4863 80.32C15.1037 80.068 14.665 79.942 14.1703 79.942C13.6383 79.942 13.1763 80.0773 12.7843 80.348C12.3923 80.6093 12.0657 80.95 11.8043 81.37C11.5523 81.79 11.361 82.2427 11.2303 82.728C11.109 83.204 11.0483 83.6613 11.0483 84.1Z" fill="white"/>
<path opacity="0.4" d="M1.91956 127C1.91023 126.412 1.95689 125.894 2.05956 125.446C2.16223 124.998 2.31623 124.601 2.52156 124.256C2.73623 123.911 2.99289 123.612 3.29156 123.36C3.59023 123.099 3.92623 122.87 4.29956 122.674C4.65423 122.478 5.02289 122.301 5.40556 122.142C5.78823 121.974 6.14289 121.792 6.46956 121.596C6.79623 121.4 7.05756 121.162 7.25356 120.882C7.45889 120.593 7.56156 120.233 7.56156 119.804C7.56156 119.449 7.48223 119.123 7.32356 118.824C7.17423 118.525 6.94089 118.287 6.62356 118.11C6.30623 117.923 5.90489 117.83 5.41956 117.83C4.94356 117.83 4.51889 117.909 4.14556 118.068C3.78156 118.227 3.47356 118.418 3.22156 118.642C2.97889 118.866 2.78289 119.071 2.63356 119.258L2.00356 118.642C2.05956 118.577 2.17156 118.451 2.33956 118.264C2.51689 118.077 2.75023 117.881 3.03956 117.676C3.33823 117.471 3.68823 117.298 4.08956 117.158C4.50023 117.009 4.97623 116.934 5.51756 116.934C6.20823 116.934 6.78223 117.069 7.23956 117.34C7.69689 117.601 8.03756 117.947 8.26156 118.376C8.49489 118.805 8.61156 119.277 8.61156 119.79C8.61156 120.285 8.51356 120.705 8.31756 121.05C8.13089 121.386 7.88356 121.671 7.57556 121.904C7.27689 122.128 6.95023 122.324 6.59556 122.492C6.25023 122.66 5.92356 122.819 5.61556 122.968C5.01823 123.239 4.54223 123.505 4.18756 123.766C3.83289 124.027 3.56689 124.289 3.38956 124.55C3.22156 124.811 3.10956 125.073 3.05356 125.334C2.99756 125.595 2.96489 125.861 2.95556 126.132H8.62556L8.62556 127H1.91956ZM14.1703 127.14C13.4983 127.121 12.9057 126.958 12.3923 126.65C11.879 126.342 11.4497 125.941 11.1043 125.446C10.759 124.942 10.4977 124.401 10.3203 123.822C10.143 123.234 10.0543 122.66 10.0543 122.1C10.0543 121.503 10.1477 120.905 10.3343 120.308C10.5303 119.711 10.8057 119.169 11.1603 118.684C11.5243 118.189 11.9583 117.797 12.4623 117.508C12.9663 117.209 13.5357 117.06 14.1703 117.06C14.8517 117.06 15.4443 117.219 15.9483 117.536C16.4617 117.853 16.891 118.264 17.2363 118.768C17.5817 119.272 17.8383 119.818 18.0063 120.406C18.1837 120.994 18.2723 121.559 18.2723 122.1C18.2723 122.707 18.1743 123.309 17.9783 123.906C17.7917 124.494 17.521 125.031 17.1663 125.516C16.8117 126.001 16.3777 126.393 15.8643 126.692C15.3603 126.981 14.7957 127.131 14.1703 127.14ZM11.0483 122.1C11.067 122.585 11.1417 123.075 11.2723 123.57C11.4123 124.055 11.613 124.503 11.8743 124.914C12.1357 125.315 12.453 125.642 12.8263 125.894C13.209 126.137 13.657 126.258 14.1703 126.258C14.693 126.258 15.1503 126.127 15.5423 125.866C15.9343 125.605 16.2563 125.264 16.5083 124.844C16.7697 124.415 16.9657 123.962 17.0963 123.486C17.227 123.001 17.2923 122.539 17.2923 122.1C17.2923 121.615 17.2223 121.129 17.0823 120.644C16.9423 120.149 16.737 119.701 16.4663 119.3C16.1957 118.889 15.869 118.563 15.4863 118.32C15.1037 118.068 14.665 117.942 14.1703 117.942C13.6383 117.942 13.1763 118.077 12.7843 118.348C12.3923 118.609 12.0657 118.95 11.8043 119.37C11.5523 119.79 11.361 120.243 11.2303 120.728C11.109 121.204 11.0483 121.661 11.0483 122.1Z" fill="white"/>
<path opacity="0.4" d="M9.14312 164.132L9.14312 165H4.50912V164.132H6.39912L6.39912 155.998C6.31512 156.11 6.18912 156.236 6.02112 156.376C5.86245 156.507 5.67579 156.637 5.46112 156.768C5.24645 156.889 5.02712 156.992 4.80312 157.076C4.57912 157.16 4.37379 157.202 4.18712 157.202V156.306C4.43912 156.306 4.69112 156.241 4.94312 156.11C5.19512 155.97 5.42845 155.816 5.64312 155.648C5.86712 155.471 6.04445 155.312 6.17512 155.172C6.31512 155.023 6.38979 154.943 6.39912 154.934H7.36512L7.36512 164.132H9.14312ZM14.1703 165.14C13.4983 165.121 12.9057 164.958 12.3923 164.65C11.879 164.342 11.4497 163.941 11.1043 163.446C10.759 162.942 10.4977 162.401 10.3203 161.822C10.143 161.234 10.0543 160.66 10.0543 160.1C10.0543 159.503 10.1477 158.905 10.3343 158.308C10.5303 157.711 10.8057 157.169 11.1603 156.684C11.5243 156.189 11.9583 155.797 12.4623 155.508C12.9663 155.209 13.5357 155.06 14.1703 155.06C14.8517 155.06 15.4443 155.219 15.9483 155.536C16.4617 155.853 16.891 156.264 17.2363 156.768C17.5817 157.272 17.8383 157.818 18.0063 158.406C18.1837 158.994 18.2723 159.559 18.2723 160.1C18.2723 160.707 18.1743 161.309 17.9783 161.906C17.7917 162.494 17.521 163.031 17.1663 163.516C16.8117 164.001 16.3777 164.393 15.8643 164.692C15.3603 164.981 14.7957 165.131 14.1703 165.14ZM11.0483 160.1C11.067 160.585 11.1417 161.075 11.2723 161.57C11.4123 162.055 11.613 162.503 11.8743 162.914C12.1357 163.315 12.453 163.642 12.8263 163.894C13.209 164.137 13.657 164.258 14.1703 164.258C14.693 164.258 15.1503 164.127 15.5423 163.866C15.9343 163.605 16.2563 163.264 16.5083 162.844C16.7697 162.415 16.9657 161.962 17.0963 161.486C17.227 161.001 17.2923 160.539 17.2923 160.1C17.2923 159.615 17.2223 159.129 17.0823 158.644C16.9423 158.149 16.737 157.701 16.4663 157.3C16.1957 156.889 15.869 156.563 15.4863 156.32C15.1037 156.068 14.665 155.942 14.1703 155.942C13.6383 155.942 13.1763 156.077 12.7843 156.348C12.3923 156.609 12.0657 156.95 11.8043 157.37C11.5523 157.79 11.361 158.243 11.2303 158.728C11.109 159.204 11.0483 159.661 11.0483 160.1Z" fill="white"/>
<path opacity="0.4" d="M14.1703 203.14C13.4983 203.121 12.9057 202.958 12.3923 202.65C11.879 202.342 11.4497 201.941 11.1043 201.446C10.759 200.942 10.4977 200.401 10.3203 199.822C10.143 199.234 10.0543 198.66 10.0543 198.1C10.0543 197.503 10.1477 196.905 10.3343 196.308C10.5303 195.711 10.8057 195.169 11.1603 194.684C11.5243 194.189 11.9583 193.797 12.4623 193.508C12.9663 193.209 13.5357 193.06 14.1703 193.06C14.8517 193.06 15.4443 193.219 15.9483 193.536C16.4617 193.853 16.891 194.264 17.2363 194.768C17.5817 195.272 17.8383 195.818 18.0063 196.406C18.1837 196.994 18.2723 197.559 18.2723 198.1C18.2723 198.707 18.1743 199.309 17.9783 199.906C17.7917 200.494 17.521 201.031 17.1663 201.516C16.8117 202.001 16.3777 202.393 15.8643 202.692C15.3603 202.981 14.7957 203.131 14.1703 203.14ZM11.0483 198.1C11.067 198.585 11.1417 199.075 11.2723 199.57C11.4123 200.055 11.613 200.503 11.8743 200.914C12.1357 201.315 12.453 201.642 12.8263 201.894C13.209 202.137 13.657 202.258 14.1703 202.258C14.693 202.258 15.1503 202.127 15.5423 201.866C15.9343 201.605 16.2563 201.264 16.5083 200.844C16.7697 200.415 16.9657 199.962 17.0963 199.486C17.227 199.001 17.2923 198.539 17.2923 198.1C17.2923 197.615 17.2223 197.129 17.0823 196.644C16.9423 196.149 16.737 195.701 16.4663 195.3C16.1957 194.889 15.869 194.563 15.4863 194.32C15.1037 194.068 14.665 193.942 14.1703 193.942C13.6383 193.942 13.1763 194.077 12.7843 194.348C12.3923 194.609 12.0657 194.95 11.8043 195.37C11.5523 195.79 11.361 196.243 11.2303 196.728C11.109 197.204 11.0483 197.661 11.0483 198.1Z" fill="white"/>
<path opacity="0.4" d="M72.1703 229.14C71.4983 229.121 70.9057 228.958 70.3923 228.65C69.879 228.342 69.4497 227.941 69.1043 227.446C68.759 226.942 68.4977 226.401 68.3203 225.822C68.143 225.234 68.0543 224.66 68.0543 224.1C68.0543 223.503 68.1477 222.905 68.3343 222.308C68.5303 221.711 68.8057 221.169 69.1603 220.684C69.5243 220.189 69.9583 219.797 70.4623 219.508C70.9663 219.209 71.5357 219.06 72.1703 219.06C72.8517 219.06 73.4443 219.219 73.9483 219.536C74.4617 219.853 74.891 220.264 75.2363 220.768C75.5817 221.272 75.8383 221.818 76.0063 222.406C76.1837 222.994 76.2723 223.559 76.2723 224.1C76.2723 224.707 76.1743 225.309 75.9783 225.906C75.7917 226.494 75.521 227.031 75.1663 227.516C74.8117 228.001 74.3777 228.393 73.8643 228.692C73.3603 228.981 72.7957 229.131 72.1703 229.14ZM69.0483 224.1C69.067 224.585 69.1417 225.075 69.2723 225.57C69.4123 226.055 69.613 226.503 69.8743 226.914C70.1357 227.315 70.453 227.642 70.8263 227.894C71.209 228.137 71.657 228.258 72.1703 228.258C72.693 228.258 73.1503 228.127 73.5423 227.866C73.9343 227.605 74.2563 227.264 74.5083 226.844C74.7697 226.415 74.9657 225.962 75.0963 225.486C75.227 225.001 75.2923 224.539 75.2923 224.1C75.2923 223.615 75.2223 223.129 75.0823 222.644C74.9423 222.149 74.737 221.701 74.4663 221.3C74.1957 220.889 73.869 220.563 73.4863 220.32C73.1037 220.068 72.665 219.942 72.1703 219.942C71.6383 219.942 71.1763 220.077 70.7843 220.348C70.3923 220.609 70.0657 220.95 69.8043 221.37C69.5523 221.79 69.361 222.243 69.2303 222.728C69.109 223.204 69.0483 223.661 69.0483 224.1Z" fill="white"/>
<path opacity="0.4" d="M172.767 229.126C172.179 229.126 171.647 229.028 171.171 228.832C170.695 228.636 170.308 228.365 170.009 228.02C169.71 227.675 169.524 227.273 169.449 226.816L170.037 226.284C170.056 226.601 170.182 226.914 170.415 227.222C170.648 227.521 170.966 227.763 171.367 227.95C171.778 228.137 172.244 228.23 172.767 228.23C173.234 228.23 173.654 228.151 174.027 227.992C174.41 227.824 174.708 227.6 174.923 227.32C175.147 227.031 175.259 226.695 175.259 226.312C175.259 225.901 175.128 225.551 174.867 225.262C174.606 224.963 174.237 224.735 173.761 224.576C173.285 224.417 172.72 224.338 172.067 224.338H171.591V223.512H172.067C172.972 223.512 173.686 223.363 174.209 223.064C174.732 222.765 174.993 222.317 174.993 221.72C174.993 221.328 174.886 220.987 174.671 220.698C174.466 220.409 174.186 220.185 173.831 220.026C173.486 219.867 173.108 219.788 172.697 219.788C172.081 219.788 171.554 219.923 171.115 220.194C170.676 220.465 170.368 220.801 170.191 221.202L169.533 220.558C169.71 220.222 169.958 219.933 170.275 219.69C170.602 219.447 170.97 219.261 171.381 219.13C171.801 218.999 172.235 218.934 172.683 218.934C173.318 218.934 173.882 219.055 174.377 219.298C174.881 219.541 175.273 219.867 175.553 220.278C175.842 220.689 175.987 221.16 175.987 221.692C175.987 222.065 175.912 222.401 175.763 222.7C175.614 222.989 175.394 223.237 175.105 223.442C174.816 223.638 174.461 223.787 174.041 223.89C174.48 223.974 174.862 224.137 175.189 224.38C175.525 224.623 175.782 224.921 175.959 225.276C176.146 225.621 176.239 226.004 176.239 226.424C176.239 226.984 176.076 227.465 175.749 227.866C175.432 228.267 175.012 228.58 174.489 228.804C173.966 229.019 173.392 229.126 172.767 229.126Z" fill="white"/>
<path opacity="0.4" d="M276.343 225.724C276.343 226.349 276.184 226.923 275.867 227.446C275.559 227.959 275.139 228.37 274.607 228.678C274.075 228.986 273.478 229.14 272.815 229.14C272.124 229.14 271.508 228.977 270.967 228.65C270.435 228.314 270.015 227.833 269.707 227.208C269.399 226.583 269.245 225.841 269.245 224.982C269.245 223.629 269.399 222.513 269.707 221.636C270.015 220.749 270.444 220.087 270.995 219.648C271.546 219.209 272.185 218.99 272.913 218.99C273.576 218.99 274.168 219.158 274.691 219.494C275.214 219.821 275.61 220.269 275.881 220.838L275.265 221.398C275.069 220.922 274.756 220.544 274.327 220.264C273.907 219.975 273.436 219.83 272.913 219.83C272.362 219.83 271.882 220.003 271.471 220.348C271.06 220.693 270.738 221.188 270.505 221.832C270.281 222.476 270.169 223.255 270.169 224.17C270.309 223.806 270.514 223.489 270.785 223.218C271.056 222.947 271.373 222.737 271.737 222.588C272.11 222.439 272.507 222.364 272.927 222.364C273.562 222.364 274.136 222.513 274.649 222.812C275.172 223.111 275.582 223.517 275.881 224.03C276.189 224.534 276.343 225.099 276.343 225.724ZM272.843 228.3C273.31 228.3 273.739 228.183 274.131 227.95C274.523 227.717 274.836 227.404 275.069 227.012C275.312 226.62 275.433 226.191 275.433 225.724C275.433 225.257 275.312 224.828 275.069 224.436C274.836 224.044 274.523 223.731 274.131 223.498C273.739 223.265 273.31 223.148 272.843 223.148C272.367 223.148 271.928 223.265 271.527 223.498C271.135 223.731 270.822 224.044 270.589 224.436C270.356 224.819 270.239 225.248 270.239 225.724C270.239 226.191 270.356 226.62 270.589 227.012C270.832 227.404 271.149 227.717 271.541 227.95C271.933 228.183 272.367 228.3 272.843 228.3Z" fill="white"/>
<path opacity="0.4" d="M369.133 222.406C369.133 221.771 369.287 221.197 369.595 220.684C369.903 220.161 370.323 219.751 370.855 219.452C371.396 219.144 371.994 218.99 372.647 218.99C373.356 218.99 373.977 219.158 374.509 219.494C375.041 219.821 375.456 220.292 375.755 220.908C376.063 221.524 376.217 222.266 376.217 223.134C376.217 224.487 376.063 225.607 375.755 226.494C375.456 227.381 375.032 228.043 374.481 228.482C373.93 228.921 373.286 229.14 372.549 229.14C371.896 229.14 371.308 228.977 370.785 228.65C370.262 228.314 369.866 227.857 369.595 227.278L370.197 226.732C370.402 227.199 370.715 227.577 371.135 227.866C371.564 228.146 372.04 228.286 372.563 228.286C373.114 228.286 373.594 228.118 374.005 227.782C374.416 227.437 374.733 226.942 374.957 226.298C375.19 225.654 375.307 224.875 375.307 223.96C375.176 224.315 374.971 224.632 374.691 224.912C374.42 225.183 374.098 225.393 373.725 225.542C373.361 225.691 372.969 225.766 372.549 225.766C371.914 225.766 371.336 225.617 370.813 225.318C370.3 225.019 369.889 224.613 369.581 224.1C369.282 223.587 369.133 223.022 369.133 222.406ZM372.633 219.816C372.166 219.816 371.737 219.933 371.345 220.166C370.953 220.399 370.64 220.712 370.407 221.104C370.174 221.496 370.057 221.925 370.057 222.392C370.057 222.868 370.174 223.302 370.407 223.694C370.64 224.077 370.953 224.389 371.345 224.632C371.746 224.865 372.18 224.982 372.647 224.982C373.123 224.982 373.557 224.865 373.949 224.632C374.341 224.389 374.654 224.077 374.887 223.694C375.13 223.302 375.251 222.873 375.251 222.406C375.251 221.939 375.13 221.51 374.887 221.118C374.644 220.726 374.327 220.413 373.935 220.18C373.543 219.937 373.109 219.816 372.633 219.816Z" fill="white"/>
<path opacity="0.4" d="M473.538 228.132V229H468.904V228.132H470.794V219.998C470.71 220.11 470.584 220.236 470.416 220.376C470.257 220.507 470.07 220.637 469.856 220.768C469.641 220.889 469.422 220.992 469.198 221.076C468.974 221.16 468.768 221.202 468.582 221.202V220.306C468.834 220.306 469.086 220.241 469.338 220.11C469.59 219.97 469.823 219.816 470.038 219.648C470.262 219.471 470.439 219.312 470.57 219.172C470.71 219.023 470.784 218.943 470.794 218.934H471.76V228.132H473.538ZM474.49 229C474.481 228.412 474.527 227.894 474.63 227.446C474.733 226.998 474.887 226.601 475.092 226.256C475.307 225.911 475.563 225.612 475.862 225.36C476.161 225.099 476.497 224.87 476.87 224.674C477.225 224.478 477.593 224.301 477.976 224.142C478.359 223.974 478.713 223.792 479.04 223.596C479.367 223.4 479.628 223.162 479.824 222.882C480.029 222.593 480.132 222.233 480.132 221.804C480.132 221.449 480.053 221.123 479.894 220.824C479.745 220.525 479.511 220.287 479.194 220.11C478.877 219.923 478.475 219.83 477.99 219.83C477.514 219.83 477.089 219.909 476.716 220.068C476.352 220.227 476.044 220.418 475.792 220.642C475.549 220.866 475.353 221.071 475.204 221.258L474.574 220.642C474.63 220.577 474.742 220.451 474.91 220.264C475.087 220.077 475.321 219.881 475.61 219.676C475.909 219.471 476.259 219.298 476.66 219.158C477.071 219.009 477.547 218.934 478.088 218.934C478.779 218.934 479.353 219.069 479.81 219.34C480.267 219.601 480.608 219.947 480.832 220.376C481.065 220.805 481.182 221.277 481.182 221.79C481.182 222.285 481.084 222.705 480.888 223.05C480.701 223.386 480.454 223.671 480.146 223.904C479.847 224.128 479.521 224.324 479.166 224.492C478.821 224.66 478.494 224.819 478.186 224.968C477.589 225.239 477.113 225.505 476.758 225.766C476.403 226.027 476.137 226.289 475.96 226.55C475.792 226.811 475.68 227.073 475.624 227.334C475.568 227.595 475.535 227.861 475.526 228.132H481.196V229H474.49Z" fill="white"/>
<g filter="url(#filter0_dd_10_87)">
<path d="M66.9526 106.751C66.9526 83.8348 69.4302 38.9065 79.3407 42.5195C91.7288 47.0358 151.604 172.487 170.186 172.487C188.769 172.487 175.348 37 189.801 37C204.254 37 263.097 176 276.517 176C289.938 176 281.679 37 297.164 37C312.649 37 365.298 172.989 381.816 174.495C398.333 176 379.751 37 398.333 37C413.199 37 460.274 122.976 481.953 165.964" stroke="#006BD2" stroke-width="2" stroke-linecap="round"/>
</g>
<g style="mix-blend-mode:hue">
<path d="M284.809 148C284.627 150.222 284.433 152.356 284.222 154.385C283.544 160.912 282.698 166.414 281.583 170.303C281.028 172.24 280.387 173.85 279.622 174.995C278.864 176.128 277.846 177 276.517 177C275.292 177 274.036 176.237 272.834 175.193C271.59 174.112 270.216 172.56 268.738 170.637C265.777 166.785 262.295 161.311 258.475 154.786C257.216 152.636 255.92 150.367 254.589 148H256.885C258.018 150.004 259.123 151.934 260.202 153.776C264.011 160.282 267.441 165.668 270.324 169.418C271.767 171.295 273.048 172.73 274.147 173.685C275.289 174.676 276.064 175 276.517 175C276.865 175 277.356 174.785 277.959 173.883C278.555 172.992 279.127 171.615 279.661 169.752C280.724 166.039 281.557 160.682 282.233 154.178C282.437 152.213 282.624 150.149 282.801 148H284.809ZM390.057 148C389.973 149.985 389.873 151.893 389.75 153.714C389.313 160.137 388.606 165.538 387.462 169.309C386.893 171.188 386.189 172.752 385.289 173.837C384.362 174.954 383.169 175.622 381.725 175.49C380.39 175.369 379.024 174.594 377.673 173.471C376.302 172.33 374.833 170.733 373.287 168.774C370.191 164.855 366.691 159.37 362.933 152.877C362.026 151.31 361.105 149.681 360.167 148H362.459C363.205 149.328 363.938 150.622 364.664 151.875C368.406 158.342 371.85 163.729 374.856 167.534C376.36 169.438 377.731 170.917 378.953 171.934C380.196 172.968 381.177 173.432 381.907 173.499C382.527 173.556 383.124 173.314 383.75 172.561C384.401 171.775 385.009 170.506 385.548 168.729C386.623 165.186 387.32 159.975 387.754 153.578C387.875 151.8 387.973 149.937 388.056 148H390.057ZM180.442 148C180.319 149.178 180.189 150.326 180.05 151.441C179.257 157.812 178.189 163.205 176.704 167.028C175.961 168.938 175.09 170.525 174.042 171.648C172.977 172.79 171.691 173.487 170.186 173.487C168.756 173.487 167.244 172.89 165.708 171.924C164.159 170.949 162.497 169.543 160.749 167.795C157.25 164.297 153.301 159.326 149.08 153.395C147.857 151.677 146.612 149.873 145.344 148H147.761C148.759 149.461 149.741 150.875 150.709 152.235C154.908 158.135 158.781 163 162.163 166.381C163.854 168.072 165.397 169.365 166.773 170.23C168.161 171.104 169.293 171.487 170.186 171.487C171.004 171.487 171.792 171.127 172.579 170.283C173.382 169.422 174.142 168.098 174.839 166.304C176.233 162.718 177.278 157.525 178.066 151.194C178.195 150.157 178.316 149.092 178.431 148H180.442ZM473.832 148C476.301 152.712 478.619 157.198 480.739 161.358L481.953 163.753V166.963C481.62 166.963 481.298 166.796 481.111 166.503L481.06 166.414L478.957 162.265C476.701 157.838 474.22 153.044 471.572 148H473.832Z" fill="#FF5441"/>
</g>
<g style="mix-blend-mode:hue">
<path d="M77.3337 41.4219C78.1041 41.2355 78.8956 41.2929 79.6833 41.5801L79.8728 41.6553C80.8244 42.0605 81.8529 42.9224 82.9187 44.0293C84.0846 45.2402 85.401 46.8582 86.8425 48.8057C89.7274 52.703 93.1733 58.0031 96.9998 64.207C100.806 70.3774 105.004 77.4688 109.421 85H107.1C102.907 77.8567 98.9259 71.1394 95.2976 65.2568C91.4786 59.0651 88.0683 53.8236 85.2351 49.9961C83.8177 48.0813 82.5594 46.5399 81.4783 45.417C80.5071 44.4083 79.7534 43.8176 79.2156 43.5527L78.9988 43.459C78.5481 43.2947 78.1579 43.2795 77.8035 43.3652C77.4406 43.4532 77.0516 43.6631 76.6375 44.041C75.7879 44.8165 74.9468 46.1979 74.1531 48.1807C72.5748 52.1235 71.3484 58.0158 70.4216 64.8213C69.5633 71.1238 68.9722 78.1434 68.5828 85H66.5789C66.9706 78.063 67.5682 70.9477 68.4392 64.5518C69.3706 57.7128 70.6221 51.6185 72.2957 47.4375C73.1278 45.3585 74.1061 43.643 75.2888 42.5635C75.8907 42.0142 76.5717 41.6064 77.3337 41.4219ZM189.802 36C191.07 36.0003 192.379 36.7394 193.647 37.791C194.951 38.8722 196.381 40.426 197.909 42.3506C200.97 46.2048 204.534 51.6808 208.42 58.207C213.014 65.9229 218.084 75.1552 223.341 85H221.074C216.007 75.5265 211.129 66.6676 206.701 59.2305C202.828 52.7258 199.319 47.342 196.344 43.5947C194.854 41.7189 193.523 40.2859 192.371 39.3311C191.184 38.3473 190.34 38.0003 189.802 38C189.35 38 188.821 38.2473 188.22 39.0977C187.616 39.9547 187.047 41.2849 186.533 43.0947C185.508 46.7019 184.78 51.9149 184.249 58.2539C183.606 65.9254 183.259 75.1498 182.998 85H180.997C181.258 75.1089 181.608 65.8172 182.256 58.0859C182.789 51.7234 183.529 46.351 184.609 42.5488C185.147 40.6543 185.79 39.0729 186.586 37.9453C187.386 36.8115 188.446 36 189.802 36ZM297.165 36C298.477 36.0003 299.815 36.706 301.112 37.748C302.434 38.8105 303.855 40.3366 305.353 42.2246C308.354 46.0047 311.775 51.3734 315.468 57.7715C319.974 65.5805 324.917 74.9798 330.034 85H327.785C322.843 75.3402 318.084 66.3074 313.735 58.7715C310.056 52.3974 306.694 47.1304 303.787 43.4678C302.332 41.6348 301.017 40.2379 299.859 39.3076C298.676 38.3575 297.788 38.0003 297.165 38C296.621 38 296.006 38.2925 295.317 39.1758C294.624 40.0651 293.955 41.4364 293.329 43.292C292.08 46.9933 291.09 52.3412 290.285 58.8418C289.352 66.3766 288.68 75.376 288.128 85H286.125C286.68 75.3049 287.358 66.214 288.301 58.5957C289.109 52.0653 290.118 46.5535 291.434 42.6533C292.091 40.7084 292.845 39.093 293.739 37.9463C294.637 36.7938 295.773 36 297.165 36ZM398.334 36C399.495 36.0001 400.72 36.4161 401.966 37.0996C403.219 37.7875 404.559 38.7829 405.968 40.0293C408.785 42.5222 411.972 46.1022 415.409 50.4883C422.288 59.2666 430.267 71.3969 438.442 84.8418C438.474 84.8944 438.506 84.9473 438.538 85H436.196C428.224 71.9321 420.491 60.2175 413.835 51.7227C410.429 47.3771 407.329 43.9041 404.642 41.5273C403.299 40.3393 402.082 39.445 401.003 38.8525C399.916 38.2561 399.031 38.0001 398.334 38C397.529 38 396.769 38.3613 396.02 39.2188C395.253 40.0977 394.543 41.4527 393.912 43.2939C392.65 46.972 391.795 52.296 391.232 58.7812C390.577 66.3343 390.326 75.3589 390.256 85H388.256C388.326 75.3201 388.578 66.2299 389.24 58.6084C389.806 52.0864 390.677 46.5629 392.02 42.6455C392.691 40.6893 393.505 39.0597 394.514 37.9033C395.543 36.7256 396.815 36 398.334 36Z" fill="#FF5441"/>
</g>
</g>
<defs>
<filter id="filter0_dd_10_87" x="29.9526" y="4" width="497" height="221" filterUnits="userSpaceOnUse" color-interpolation-filters="sRGB">
<feFlood flood-opacity="0" result="BackgroundImageFix"/>
<feColorMatrix in="SourceAlpha" type="matrix" values="0 0 0 0 0 0 0 0 0 0 0 0 0 0 0 0 0 0 127 0" result="hardAlpha"/>
<feOffset dx="4" dy="8"/>
<feGaussianBlur stdDeviation="20"/>
<feComposite in2="hardAlpha" operator="out"/>
<feColorMatrix type="matrix" values="0 0 0 0 0.219608 0 0 0 0 0.737255 0 0 0 0 0.886275 0 0 0 0.4 0"/>
<feBlend mode="normal" in2="BackgroundImageFix" result="effect1_dropShadow_10_87"/>
<feColorMatrix in="SourceAlpha" type="matrix" values="0 0 0 0 0 0 0 0 0 0 0 0 0 0 0 0 0 0 127 0" result="hardAlpha"/>
<feOffset dx="2" dy="4"/>
<feGaussianBlur stdDeviation="4"/>
<feComposite in2="hardAlpha" operator="out"/>
<feColorMatrix type="matrix" values="0 0 0 0 0.219608 0 0 0 0 0.737255 0 0 0 0 0.886275 0 0 0 0.2 0"/>
<feBlend mode="normal" in2="effect1_dropShadow_10_87" result="effect2_dropShadow_10_87"/>
<feBlend mode="normal" in="SourceGraphic" in2="effect2_dropShadow_10_87" result="shape"/>
</filter>
<clipPath id="clip0_10_87">
<rect width="481" height="233" fill="white" transform="translate(0.952637)"/>
</clipPath>
</defs>
</svg>
