<svg xmlns="http://www.w3.org/2000/svg" width="164" height="164" fill="none" viewBox="0 0 164 164"><rect width="164" height="164" fill="#fff" opacity="0.1" rx="20"/><path fill="#fff" d="M75.75 88.09q-1.386 0-2.502-.54a6.3 6.3 0 0 1-1.926-1.476 6.9 6.9 0 0 1-1.26-2.07 6.9 6.9 0 0 1-.432-2.394q0-1.278.468-2.43.468-1.17 1.296-2.07a6 6 0 0 1 1.944-1.44 5.6 5.6 0 0 1 2.448-.54q1.368 0 2.484.558 1.134.558 1.926 1.494.81.936 1.242 2.088.45 1.152.45 2.358 0 1.278-.468 2.448a6.7 6.7 0 0 1-1.278 2.07 6.1 6.1 0 0 1-1.962 1.422 5.7 5.7 0 0 1-2.43.522m.018-1.818q.972 0 1.728-.396a3.7 3.7 0 0 0 1.26-1.062q.522-.684.792-1.512.27-.846.27-1.692 0-.9-.288-1.746a4.4 4.4 0 0 0-.81-1.494 4 4 0 0 0-1.296-1.026 3.45 3.45 0 0 0-1.656-.396q-.972 0-1.728.396a3.8 3.8 0 0 0-1.278 1.08 5.1 5.1 0 0 0-.81 1.494 5.43 5.43 0 0 0 .018 3.438q.288.846.81 1.494.54.648 1.296 1.044a3.7 3.7 0 0 0 1.692.378m.252-2.718h1.944L81.852 88h-1.944zM83.94 88V75.22h5.562q.864 0 1.584.36t1.242.954q.54.594.828 1.332.306.738.306 1.512 0 .846-.306 1.62t-.882 1.332q-.558.558-1.314.81L93.966 88h-2.268l-2.772-4.446h-2.97V88zm2.016-6.228h3.528q.558 0 .99-.324a2.24 2.24 0 0 0 .684-.864q.252-.558.252-1.206 0-.666-.288-1.188a2.4 2.4 0 0 0-.756-.864q-.45-.324-.99-.324h-3.42z"/></svg>