<svg width="25" height="25" viewBox="0 0 25 25" fill="none" xmlns="http://www.w3.org/2000/svg">
<path fill-rule="evenodd" clip-rule="evenodd" d="M6.09498 19.1146C5.70446 18.7241 5.70446 18.0909 6.09498 17.7004L17.6112 6.18406C18.0018 5.79354 18.6349 5.79354 19.0255 6.18406C19.416 6.57458 19.416 7.20775 19.0255 7.59827L7.5092 19.1146C7.11867 19.5051 6.48551 19.5051 6.09498 19.1146Z" fill="white"/>
<path fill-rule="evenodd" clip-rule="evenodd" d="M7.72397 6.89178C7.72397 6.33949 8.17168 5.89178 8.72396 5.89178H18.3208C18.8731 5.89178 19.3208 6.33949 19.3208 6.89178V16.4887C19.3208 17.041 18.8731 17.4887 18.3208 17.4887C17.7686 17.4887 17.3208 17.041 17.3208 16.4887V7.89178H8.72396C8.17168 7.89178 7.72396 7.44406 7.72397 6.89178Z" fill="white"/>
</svg>
