<svg width="80" height="30" viewBox="0 0 80 30" fill="none" xmlns="http://www.w3.org/2000/svg">
<g clip-path="url(#clip0_1_145)">
<mask id="mask0_1_145" style="mask-type:luminance" maskUnits="userSpaceOnUse" x="0" y="0" width="80" height="30">
<path d="M79.3333 0.666382H0V29.3905H79.3333V0.666382Z" fill="white"/>
</mask>
<g mask="url(#mask0_1_145)">
<path fill-rule="evenodd" clip-rule="evenodd" d="M0 27.9542H8.8272V1.14508H0V27.9542Z" fill="white"/>
<path fill-rule="evenodd" clip-rule="evenodd" d="M20.0871 27.9542H28.9143V1.14508H20.0871V27.9542Z" fill="white"/>
<path fill-rule="evenodd" clip-rule="evenodd" d="M15.9002 1.14542H10.2319V13.6179H15.9002C17.7384 13.6179 18.6839 12.0475 18.6839 10.6119V4.15391C18.6839 2.71617 17.7384 1.14542 15.9002 1.14542Z" fill="white"/>
<path fill-rule="evenodd" clip-rule="evenodd" d="M15.9002 15.1511H10.2319V27.9544H15.9002C17.7384 27.9544 18.6839 26.343 18.6839 24.8676V18.2397C18.6839 16.7641 17.7384 15.1511 15.9002 15.1511Z" fill="white"/>
<path fill-rule="evenodd" clip-rule="evenodd" d="M35.4948 9.14422C36.4288 9.14422 37.0884 9.1062 37.4905 8.85876C37.8919 8.6118 38.1366 8.18306 38.1366 7.67628C38.1366 7.09143 37.8633 6.63725 37.3463 6.39041C36.9586 6.20816 36.4995 6.18283 35.9971 6.18283H34.9218V9.14422H35.4948ZM35.5525 5.03885C37.0598 5.03885 37.7346 4.72685 37.7346 3.75296C37.7346 2.59677 37.0305 2.37621 35.5525 2.37621H34.9218V5.03885H35.5525ZM33.2844 1.11584H35.8683C36.9586 1.11584 37.7768 1.15529 38.4089 1.58319C39.0405 1.99892 39.4133 2.71411 39.4133 3.545C39.4133 4.53282 38.8966 5.22091 37.9346 5.48125C39.1263 5.64976 39.8585 6.5201 39.8585 7.76813C39.8585 8.5337 39.5427 9.23532 39.0255 9.70304C38.2936 10.366 37.3184 10.4044 35.8831 10.4044H33.2844V1.11584Z" fill="white"/>
<path fill-rule="evenodd" clip-rule="evenodd" d="M41.5554 1.11584H47.2823V2.40211H43.2203V4.72685H47.2823V6.05238H43.2203V9.0534H47.2823V10.4044H41.5554V1.11584Z" fill="white"/>
<path fill-rule="evenodd" clip-rule="evenodd" d="M49.937 7.98733C50.1808 8.81937 50.8698 9.26138 51.9179 9.26138C52.9231 9.26138 53.5393 8.71596 53.5393 7.88433C53.5393 6.97415 52.779 6.75384 51.7176 6.28587C49.894 5.48088 48.8897 4.85661 48.8897 3.45439C48.8897 1.95992 50.1089 0.907135 51.9753 0.907135C53.4965 0.907135 54.5447 1.4663 54.9324 2.44024L53.6255 3.0512C53.2235 2.47949 52.7513 2.20695 52.1047 2.20695C51.2002 2.20695 50.6408 2.67448 50.6408 3.37569C50.6408 4.27174 51.4447 4.54486 52.5922 5.02531C54.4013 5.77913 55.2482 6.44165 55.2482 7.78017C55.2482 9.50786 53.9709 10.6511 51.8466 10.6511C50.0946 10.6511 48.9471 9.89728 48.6029 8.54629L49.937 7.98733Z" fill="white"/>
<path fill-rule="evenodd" clip-rule="evenodd" d="M57.0983 10.4043H58.7632V1.11569H57.0983V10.4043Z" fill="white"/>
<path fill-rule="evenodd" clip-rule="evenodd" d="M61.1603 0.751862L67.6763 6.42861C68.093 6.79336 68.4524 7.16927 68.7964 7.55948V1.1156H70.3317V10.7679L63.6868 4.98695C63.3129 4.66246 62.984 4.31126 62.6968 3.94733V10.4042H61.1603V0.751862Z" fill="white"/>
<path fill-rule="evenodd" clip-rule="evenodd" d="M73.4312 7.98733C73.6747 8.81937 74.3634 9.26138 75.4118 9.26138C76.4158 9.26138 77.0334 8.71596 77.0334 7.88433C77.0334 6.97415 76.2722 6.75384 75.2114 6.28587C73.3874 5.48088 72.3835 4.85661 72.3835 3.45439C72.3835 1.95992 73.6029 0.907135 75.4699 0.907135C76.991 0.907135 78.0387 1.4663 78.4258 2.44024L77.1202 3.0512C76.7174 2.47949 76.2434 2.20695 75.5992 2.20695C74.6944 2.20695 74.1343 2.67448 74.1343 3.37569C74.1343 4.27174 74.9392 4.54486 76.0868 5.02531C77.8958 5.77913 78.7411 6.44165 78.7411 7.78017C78.7411 9.50786 77.4642 10.6511 75.3407 10.6511C73.5899 10.6511 72.4402 9.89728 72.0962 8.54629L73.4312 7.98733Z" fill="white"/>
<path fill-rule="evenodd" clip-rule="evenodd" d="M36.9987 15.939V13.7508H37.6626V19.1445H36.9987V16.497H33.9485V19.1445H33.2844V13.7508H33.9485V15.939H36.9987Z" fill="white"/>
<path fill-rule="evenodd" clip-rule="evenodd" d="M38.8946 13.7508H41.9855V14.3088H39.5585V15.911H41.9131V16.4687H39.5585V18.5861H41.9855V19.1445H38.8946V13.7508Z" fill="white"/>
<path fill-rule="evenodd" clip-rule="evenodd" d="M45.2951 14.895L44.275 17.0554H46.2896L45.2951 14.895ZM44.0063 17.6129L43.2873 19.1445H42.5599L45.3103 13.4928L47.9889 19.1445H47.2539L46.551 17.6129H44.0063Z" fill="white"/>
<path fill-rule="evenodd" clip-rule="evenodd" d="M49.3022 18.5861H50.9465V19.1445H48.6389V13.7508H49.3022V18.5861Z" fill="white"/>
<path fill-rule="evenodd" clip-rule="evenodd" d="M52.5523 19.1445H51.8877V14.3088H50.4503V13.7508H54.0056V14.3088H52.5523V19.1445Z" fill="white"/>
<path fill-rule="evenodd" clip-rule="evenodd" d="M58.4291 15.939V13.7508H59.0935V19.1445H58.4291V16.497H55.3791V19.1445H54.7153V13.7508H55.3791V15.939H58.4291Z" fill="white"/>
<path fill-rule="evenodd" clip-rule="evenodd" d="M64.8694 14.9305C64.395 14.4873 63.7398 14.2148 63.0511 14.2148C61.7241 14.2148 60.6489 15.2597 60.6489 16.4466C60.6489 17.6343 61.7321 18.6783 63.0675 18.6783C63.7398 18.6783 64.395 18.3919 64.8694 17.9634V18.7074C64.3559 19.0431 63.7228 19.2365 63.0913 19.2365C61.4079 19.2365 59.9862 17.9989 59.9862 16.4686C59.9862 14.9233 61.3846 13.6576 63.0913 13.6576C63.7551 13.6576 64.34 13.8295 64.8694 14.187V14.9305Z" fill="white"/>
<path fill-rule="evenodd" clip-rule="evenodd" d="M68.1726 14.8949L67.1534 17.0552H69.1691L68.1726 14.8949ZM66.8848 17.6128L66.1665 19.1443H65.4388L68.189 13.4926L70.8672 19.1443H70.1327L69.429 17.6128H66.8848Z" fill="white"/>
<path fill-rule="evenodd" clip-rule="evenodd" d="M72.1803 16.2472H72.3869C73.1371 16.2472 73.897 16.1189 73.897 15.2813C73.897 14.3937 73.1768 14.3088 72.3794 14.3088H72.1803V16.2472ZM72.1803 19.1445H71.5176V13.7508H72.3794C73.5085 13.7508 74.5597 14.0223 74.5597 15.238C74.5597 16.0689 73.9838 16.6548 73.0667 16.7261L74.9632 19.1445H74.1493L72.3472 16.7766H72.1803V19.1445Z" fill="white"/>
<path fill-rule="evenodd" clip-rule="evenodd" d="M75.7373 13.743H78.8272V14.3008H76.4007V15.9029H78.7554V16.4611H76.4007V18.5781H78.8272V19.1363H75.7373V13.743Z" fill="white"/>
<path fill-rule="evenodd" clip-rule="evenodd" d="M33.2844 21.8862H78.7575V21.5017H33.2844V21.8862Z" fill="white"/>
<path d="M77.6037 25.4205C77.8472 25.4205 78.0551 25.4684 78.2281 25.5641C78.4046 25.6599 78.5386 25.7955 78.6303 25.971C78.7253 26.1434 78.7732 26.346 78.7732 26.579V26.8328H76.8316C76.8391 27.1232 76.9198 27.345 77.0751 27.4982C77.2337 27.6482 77.454 27.7232 77.7364 27.7232C77.9163 27.7232 78.0749 27.7089 78.2124 27.6801C78.3533 27.6482 78.4976 27.6035 78.646 27.5461V27.9147C78.5017 27.9722 78.3588 28.0136 78.2179 28.0392C78.0763 28.0679 77.9088 28.0823 77.7152 28.0823C77.4471 28.0823 77.2091 28.0328 77.0012 27.9339C76.7967 27.8349 76.636 27.6881 76.5197 27.4934C76.4069 27.2955 76.3508 27.0546 76.3508 26.7705C76.3508 26.4897 76.4014 26.2487 76.504 26.0476C76.61 25.8466 76.7564 25.6917 76.9431 25.5833C77.1332 25.4747 77.3534 25.4205 77.6037 25.4205ZM77.5989 25.7652C77.3767 25.7652 77.2002 25.8306 77.0696 25.9615C76.9431 26.0891 76.8672 26.2679 76.8425 26.4977H78.2863C78.2863 26.3508 78.2617 26.2231 78.2124 26.1147C78.1632 26.0061 78.0873 25.9215 77.9847 25.8609C77.8862 25.7971 77.7576 25.7652 77.5989 25.7652Z" fill="white"/>
<path d="M76.1237 25.7939H75.4097V28.0344H74.944V25.7939H74.4468V25.5976L74.944 25.454V25.3056C74.944 25.0854 74.9796 24.9067 75.05 24.7694C75.1239 24.6322 75.2299 24.5316 75.3673 24.4678C75.5048 24.404 75.6703 24.3721 75.8645 24.3721C75.9774 24.3721 76.0793 24.3816 76.1716 24.4008C76.2667 24.4167 76.3474 24.4359 76.4144 24.4582L76.2927 24.7886C76.2366 24.7726 76.1716 24.7566 76.0971 24.7407C76.0232 24.7248 75.9473 24.7168 75.87 24.7168C75.7148 24.7168 75.5985 24.7646 75.5205 24.8604C75.4467 24.9529 75.4097 25.0997 75.4097 25.3008V25.4684H76.1237V25.7939Z" fill="white"/>
<path d="M74.0454 25.4682V28.0343H73.5796V25.4682H74.0454ZM73.8176 24.506C73.8881 24.506 73.9503 24.5283 74.003 24.573C74.059 24.6145 74.0878 24.6815 74.0878 24.7741C74.0878 24.8635 74.059 24.9305 74.003 24.9751C73.9503 25.0198 73.8881 25.0422 73.8176 25.0422C73.7403 25.0422 73.6754 25.0198 73.622 24.9751C73.5694 24.9305 73.5427 24.8635 73.5427 24.7741C73.5427 24.6815 73.5694 24.6145 73.622 24.573C73.6754 24.5283 73.7403 24.506 73.8176 24.506Z" fill="white"/>
<path d="M72.8622 28.0343H72.3965V24.3959H72.8622V28.0343Z" fill="white"/>
<path d="M70.422 25.4205C70.4754 25.4205 70.5314 25.4236 70.5916 25.4301C70.6552 25.4332 70.7099 25.4397 70.7558 25.4492L70.6976 25.837C70.6518 25.8274 70.6005 25.8194 70.5438 25.8131C70.4911 25.8066 70.4398 25.8035 70.3906 25.8035C70.2811 25.8035 70.1772 25.8242 70.0787 25.8657C69.9795 25.9072 69.892 25.9663 69.814 26.0429C69.7367 26.1162 69.6745 26.2056 69.6287 26.311C69.587 26.4163 69.5658 26.5343 69.5658 26.6652V28.0344H69.1V25.4684H69.481L69.5336 25.9375H69.5548C69.615 25.8418 69.6875 25.7556 69.7716 25.679C69.8564 25.5992 69.9535 25.537 70.063 25.4923C70.1717 25.4444 70.2921 25.4205 70.422 25.4205Z" fill="white"/>
<path d="M68.5413 26.7466C68.5413 26.9604 68.5098 27.1503 68.4462 27.3163C68.3865 27.4791 68.2983 27.6179 68.1819 27.7328C68.0692 27.8477 67.9298 27.9354 67.7641 27.9961C67.6019 28.0535 67.4203 28.0823 67.2194 28.0823C67.0325 28.0823 66.8597 28.0535 66.7011 27.9961C66.5424 27.9354 66.4049 27.8477 66.2885 27.7328C66.1722 27.6179 66.0805 27.4791 66.0135 27.3163C65.9501 27.1503 65.9183 26.9604 65.9183 26.7466C65.9183 26.4625 65.9712 26.2231 66.077 26.0285C66.1827 25.8306 66.3344 25.6806 66.5318 25.5785C66.7292 25.4732 66.9638 25.4205 67.2353 25.4205C67.4926 25.4205 67.7183 25.4732 67.9122 25.5785C68.1096 25.6806 68.263 25.8306 68.3723 26.0285C68.4852 26.2231 68.5413 26.4625 68.5413 26.7466ZM66.3996 26.7466C66.3996 26.9477 66.4278 27.1232 66.4842 27.2732C66.5442 27.42 66.6358 27.5333 66.7593 27.6131C66.8826 27.6929 67.0395 27.7328 67.2299 27.7328C67.4203 27.7328 67.5773 27.6929 67.7007 27.6131C67.824 27.5333 67.914 27.42 67.9704 27.2732C68.0303 27.1232 68.0603 26.9477 68.0603 26.7466C68.0603 26.5423 68.0303 26.3684 67.9704 26.2248C67.9105 26.0812 67.8188 25.971 67.6954 25.8945C67.5755 25.8146 67.4186 25.7748 67.2247 25.7748C66.9355 25.7748 66.7258 25.8609 66.5953 26.0333C66.4648 26.2056 66.3996 26.4434 66.3996 26.7466Z" fill="white"/>
<path d="M65.6407 25.7939H64.9267V28.0344H64.4613V25.7939H63.9641V25.5976L64.4613 25.454V25.3056C64.4613 25.0854 64.4965 24.9067 64.567 24.7694C64.6411 24.6322 64.7469 24.5316 64.8844 24.4678C65.0219 24.404 65.1876 24.3721 65.3815 24.3721C65.4944 24.3721 65.5966 24.3816 65.6883 24.4008C65.7835 24.4167 65.8646 24.4359 65.9315 24.4582L65.81 24.7886C65.7535 24.7726 65.6883 24.7566 65.6142 24.7407C65.5402 24.7248 65.4644 24.7168 65.3868 24.7168C65.2317 24.7168 65.1153 24.7646 65.0377 24.8604C64.9637 24.9529 64.9267 25.0997 64.9267 25.3008V25.4684H65.6407V25.7939Z" fill="white"/>
<path d="M60.143 25.4205C60.3863 25.4205 60.5943 25.4684 60.7671 25.5641C60.9434 25.6599 61.0774 25.7955 61.1691 25.971C61.2643 26.1434 61.3119 26.346 61.3119 26.579V26.8328H59.3709C59.3779 27.1232 59.459 27.345 59.6141 27.4982C59.7728 27.6482 59.9932 27.7232 60.2753 27.7232C60.4551 27.7232 60.6137 27.7089 60.7513 27.6801C60.8923 27.6482 61.0369 27.6035 61.1849 27.5461V27.9147C61.0404 27.9722 60.8976 28.0136 60.7565 28.0392C60.6155 28.0679 60.448 28.0823 60.2541 28.0823C59.9861 28.0823 59.7481 28.0328 59.5401 27.9339C59.3356 27.8349 59.1751 27.6881 59.0588 27.4934C58.946 27.2955 58.8895 27.0546 58.8895 26.7705C58.8895 26.4897 58.9407 26.2487 59.0429 26.0476C59.1487 25.8466 59.295 25.6917 59.4819 25.5833C59.6723 25.4747 59.8927 25.4205 60.143 25.4205ZM60.1377 25.7652C59.9156 25.7652 59.7393 25.8306 59.6089 25.9615C59.4819 26.0891 59.4061 26.2679 59.3814 26.4977H60.8253C60.8253 26.3508 60.8006 26.2231 60.7513 26.1147C60.7019 26.0061 60.6261 25.9215 60.5238 25.8609C60.4251 25.7971 60.2964 25.7652 60.1377 25.7652Z" fill="white"/>
<path d="M56.8754 28.0822C56.5227 28.0822 56.2407 27.9721 56.0291 27.7519C55.8176 27.5285 55.7118 27.1965 55.7118 26.7561C55.7118 26.3157 55.8176 25.9838 56.0291 25.7603C56.2442 25.5338 56.528 25.4204 56.8806 25.4204C57.0287 25.4204 57.1574 25.438 57.2667 25.4731C57.3761 25.505 57.4713 25.5497 57.5523 25.6071C57.6334 25.6646 57.7021 25.7285 57.7586 25.7986H57.7903C57.7868 25.7572 57.7798 25.6965 57.7692 25.6167C57.7621 25.5338 57.7586 25.4683 57.7586 25.4204V24.3959H58.224V28.0343H57.8485L57.7798 27.6896H57.7586C57.7021 27.7631 57.6334 27.8301 57.5523 27.8907C57.4713 27.9482 57.3743 27.9945 57.2614 28.0295C57.1521 28.0647 57.0234 28.0822 56.8754 28.0822ZM56.9494 27.7327C57.2491 27.7327 57.4589 27.6593 57.5788 27.5125C57.7021 27.3625 57.7639 27.1375 57.7639 26.8375V26.7609C57.7639 26.4418 57.7057 26.1976 57.5894 26.0284C57.473 25.8561 57.2579 25.7699 56.9441 25.7699C56.6938 25.7699 56.5051 25.8609 56.3782 26.0428C56.2548 26.2216 56.1931 26.4625 56.1931 26.7657C56.1931 27.0721 56.2548 27.3099 56.3782 27.479C56.5051 27.6482 56.6955 27.7327 56.9494 27.7327Z" fill="white"/>
<path d="M55.151 25.4684V28.0344H54.6856V25.4684H55.151ZM54.9236 24.5062C54.9941 24.5062 55.0558 24.5285 55.1087 24.5732C55.1651 24.6146 55.1933 24.6817 55.1933 24.7743C55.1933 24.8636 55.1651 24.9306 55.1087 24.9753C55.0558 25.02 54.9941 25.0423 54.9236 25.0423C54.846 25.0423 54.7808 25.02 54.7279 24.9753C54.675 24.9306 54.6485 24.8636 54.6485 24.7743C54.6485 24.6817 54.675 24.6146 54.7279 24.5732C54.7808 24.5285 54.846 24.5062 54.9236 24.5062Z" fill="white"/>
<path d="M54.1269 27.3259C54.1269 27.4918 54.0811 27.6306 53.9893 27.7424C53.8977 27.8541 53.7672 27.9387 53.598 27.9961C53.4287 28.0535 53.2277 28.0823 52.9951 28.0823C52.7976 28.0823 52.6266 28.0679 52.482 28.0392C52.341 28.0105 52.2158 27.9705 52.1065 27.9195V27.5365C52.2194 27.5875 52.3551 27.6354 52.5137 27.6801C52.676 27.7216 52.8399 27.7424 53.0056 27.7424C53.2419 27.7424 53.4129 27.7089 53.5187 27.6418C53.6244 27.5716 53.6773 27.4791 53.6773 27.3642C53.6773 27.3003 53.6579 27.2428 53.6191 27.1918C53.5804 27.1407 53.5099 27.0896 53.4076 27.0386C53.3089 26.9875 53.1661 26.9301 52.9792 26.8663C52.7959 26.8024 52.639 26.7386 52.5085 26.6748C52.3781 26.6109 52.2775 26.5343 52.207 26.445C52.1365 26.3556 52.1012 26.2407 52.1012 26.1003C52.1012 25.8832 52.1982 25.7157 52.3921 25.5976C52.5896 25.4795 52.8469 25.4205 53.1643 25.4205C53.3371 25.4205 53.4975 25.4364 53.6456 25.4684C53.7972 25.4971 53.9383 25.5385 54.0687 25.5928L53.91 25.928C53.8325 25.896 53.7496 25.8689 53.6615 25.8466C53.5768 25.821 53.4904 25.8018 53.4023 25.7891C53.3142 25.7731 53.2243 25.7652 53.1325 25.7652C52.9421 25.7652 52.7959 25.7939 52.6936 25.8514C52.5949 25.9056 52.5455 25.9806 52.5455 26.0764C52.5455 26.1465 52.5685 26.2072 52.6143 26.2583C52.6601 26.3062 52.7359 26.354 52.8417 26.4019C52.951 26.4466 53.0955 26.5008 53.2753 26.5647C53.4552 26.6253 53.6085 26.6875 53.7355 26.7514C53.8624 26.8152 53.9594 26.8934 54.0264 26.986C54.0934 27.0753 54.1269 27.1886 54.1269 27.3259Z" fill="white"/>
<path d="M50.2537 25.4205C50.3066 25.4205 50.363 25.4236 50.423 25.4301C50.4864 25.4332 50.5411 25.4397 50.5869 25.4492L50.5287 25.837C50.4829 25.8274 50.4318 25.8194 50.3754 25.8131C50.3224 25.8066 50.2713 25.8035 50.222 25.8035C50.1127 25.8035 50.0087 25.8242 49.9099 25.8657C49.8112 25.9072 49.7231 25.9663 49.6455 26.0429C49.5679 26.1162 49.5062 26.2056 49.4604 26.311C49.418 26.4163 49.3969 26.5343 49.3969 26.6652V28.0344H48.9315V25.4684H49.3123L49.3652 25.9375H49.3863C49.4463 25.8418 49.5186 25.7556 49.6032 25.679C49.6878 25.5992 49.7847 25.537 49.894 25.4923C50.0034 25.4444 50.1233 25.4205 50.2537 25.4205Z" fill="white"/>
<path d="M48.2444 25.4684V28.0344H47.8636L47.7948 27.6945H47.7736C47.7137 27.7839 47.6361 27.8573 47.5409 27.9147C47.4457 27.9722 47.3418 28.0137 47.2289 28.0392C47.1161 28.0679 46.998 28.0823 46.8745 28.0823C46.6489 28.0823 46.4585 28.0504 46.3033 27.9865C46.1518 27.9195 46.0371 27.8174 45.9596 27.6801C45.882 27.543 45.8432 27.3658 45.8432 27.1487V25.4684H46.3139V27.12C46.3139 27.3243 46.3651 27.4775 46.4673 27.5796C46.5696 27.6818 46.7282 27.7328 46.9433 27.7328C47.1548 27.7328 47.3206 27.6977 47.4404 27.6275C47.5639 27.5541 47.6503 27.4488 47.6996 27.3115C47.7525 27.1711 47.7789 27.002 47.7789 26.8041V25.4684H48.2444Z" fill="white"/>
<path d="M45.2634 26.7466C45.2634 26.9604 45.2316 27.1503 45.1682 27.3163C45.1082 27.4791 45.0201 27.6179 44.9037 27.7328C44.7908 27.8477 44.6516 27.9354 44.4859 27.9961C44.3237 28.0535 44.1421 28.0823 43.9412 28.0823C43.7542 28.0823 43.5815 28.0535 43.4228 27.9961C43.2642 27.9354 43.1266 27.8477 43.0103 27.7328C42.894 27.6179 42.8022 27.4791 42.7353 27.3163C42.6718 27.1503 42.6401 26.9604 42.6401 26.7466C42.6401 26.4625 42.693 26.2231 42.7988 26.0285C42.9045 25.8306 43.0561 25.6806 43.2536 25.5785C43.451 25.4732 43.6855 25.4205 43.957 25.4205C44.2144 25.4205 44.4401 25.4732 44.634 25.5785C44.8314 25.6806 44.9848 25.8306 45.0941 26.0285C45.2069 26.2231 45.2634 26.4625 45.2634 26.7466ZM43.1214 26.7466C43.1214 26.9477 43.1495 27.1232 43.206 27.2732C43.2659 27.42 43.3576 27.5333 43.481 27.6131C43.6044 27.6929 43.7613 27.7328 43.9517 27.7328C44.1421 27.7328 44.299 27.6929 44.4224 27.6131C44.5458 27.5333 44.6357 27.42 44.6922 27.2732C44.7521 27.1232 44.7821 26.9477 44.7821 26.7466C44.7821 26.5423 44.7521 26.3684 44.6922 26.2248C44.6322 26.0812 44.5405 25.971 44.4172 25.8945C44.2973 25.8146 44.1403 25.7748 43.9464 25.7748C43.6573 25.7748 43.4475 25.8609 43.317 26.0333C43.1866 26.2056 43.1214 26.4434 43.1214 26.7466Z" fill="white"/>
<path d="M39.7855 25.4684H40.2827L40.8962 26.9285C40.9315 27.0147 40.9632 27.0977 40.9914 27.1775C41.0231 27.2573 41.0514 27.3355 41.0761 27.4121C41.1007 27.4855 41.1201 27.5573 41.1342 27.6275H41.1554C41.1765 27.5477 41.21 27.444 41.2559 27.3163C41.3017 27.1855 41.3493 27.0546 41.3987 26.9237L41.9751 25.4684H42.4776L41.2559 28.3887C41.1888 28.5483 41.1095 28.6871 41.0179 28.8052C40.9297 28.9265 40.8204 29.019 40.6899 29.0828C40.563 29.1499 40.4079 29.1834 40.2245 29.1834C40.1399 29.1834 40.0659 29.1786 40.0024 29.169C39.9389 29.1627 39.8843 29.1547 39.8385 29.1451V28.81C39.8772 28.8164 39.9231 28.8227 39.9759 28.8291C40.0324 28.8355 40.0906 28.8387 40.1505 28.8387C40.2598 28.8387 40.3532 28.8195 40.4308 28.7812C40.5119 28.7462 40.5806 28.6935 40.6371 28.6233C40.6935 28.5562 40.7411 28.4765 40.7799 28.3839L40.9279 28.044L39.7855 25.4684Z" fill="white"/>
<path d="M35.9773 25.4684H36.4745L37.088 26.9285C37.1232 27.0147 37.1549 27.0977 37.1832 27.1775C37.2149 27.2573 37.2431 27.3355 37.2678 27.4121C37.2925 27.4855 37.3118 27.5573 37.326 27.6275H37.3471C37.3683 27.5477 37.4018 27.444 37.4476 27.3163C37.4935 27.1855 37.5411 27.0546 37.5904 26.9237L38.1669 25.4684H38.6693L37.4476 28.3887C37.3806 28.5483 37.3013 28.6871 37.2096 28.8052C37.1214 28.9265 37.0121 29.019 36.8817 29.0828C36.7548 29.1499 36.5996 29.1834 36.4163 29.1834C36.3317 29.1834 36.2576 29.1786 36.1941 29.169C36.1307 29.1627 36.076 29.1547 36.0302 29.1451V28.81C36.069 28.8164 36.1148 28.8227 36.1677 28.8291C36.2241 28.8355 36.2823 28.8387 36.3423 28.8387C36.4515 28.8387 36.545 28.8195 36.6225 28.7812C36.7036 28.7462 36.7724 28.6935 36.8288 28.6233C36.8852 28.5562 36.9328 28.4765 36.9716 28.3839L37.1197 28.044L35.9773 25.4684Z" fill="white"/>
<path d="M34.3033 24.6161C34.617 24.6161 34.8797 24.6433 35.0912 24.6975C35.3063 24.7518 35.4668 24.8412 35.5726 24.9656C35.6819 25.0901 35.7365 25.2561 35.7365 25.4635C35.7365 25.5976 35.7083 25.7172 35.6519 25.8226C35.599 25.9247 35.5179 26.0109 35.4086 26.0811C35.3029 26.1481 35.1724 26.1944 35.0173 26.2199V26.2438C35.1759 26.2662 35.3187 26.3077 35.4457 26.3683C35.5761 26.429 35.6783 26.5152 35.7524 26.6268C35.8265 26.7386 35.8635 26.8838 35.8635 27.0625C35.8635 27.27 35.8106 27.4471 35.7048 27.5939C35.599 27.7375 35.4474 27.8476 35.2499 27.9242C35.056 27.9977 34.8233 28.0343 34.5518 28.0343H33.2243V24.6161H34.3033ZM34.3985 26.0715C34.7228 26.0715 34.945 26.0253 35.0649 25.9327C35.1847 25.8369 35.2447 25.6965 35.2447 25.5114C35.2447 25.3231 35.1706 25.1891 35.0225 25.1092C34.8779 25.0263 34.6453 24.9848 34.3244 24.9848H33.7003V26.0715H34.3985ZM33.7003 26.4306V27.6705H34.4619C34.7969 27.6705 35.0296 27.6115 35.1601 27.4934C35.2905 27.3753 35.3557 27.2205 35.3557 27.029C35.3557 26.9077 35.3258 26.8024 35.2658 26.713C35.2094 26.6237 35.1125 26.555 34.9749 26.5072C34.8409 26.4561 34.6576 26.4306 34.4249 26.4306H33.7003Z" fill="white"/>
</g>
</g>
<defs>
<clipPath id="clip0_1_145">
<rect width="79.3333" height="28.7241" fill="white" transform="translate(0 0.666382)"/>
</clipPath>
</defs>
</svg>
