<svg width="482" height="233" viewBox="0 0 482 233" fill="none" xmlns="http://www.w3.org/2000/svg">
<g clip-path="url(#clip0_10_86)">
<g opacity="0.4">
<line x1="34.9526" y1="8.5" x2="50.9526" y2="8.5" stroke="white"/>
<line x1="34.9526" y1="46.5" x2="50.9526" y2="46.5" stroke="white"/>
<line x1="34.9526" y1="84.5" x2="50.9526" y2="84.5" stroke="white"/>
<line x1="34.9526" y1="122.5" x2="50.9526" y2="122.5" stroke="white"/>
<line x1="34.9526" y1="160.5" x2="50.9526" y2="160.5" stroke="white"/>
<line x1="34.9526" y1="198.5" x2="481.953" y2="198.5" stroke="white"/>
</g>
<path opacity="0.4" d="M5.35503 14.14C4.64569 14.14 4.00636 13.9673 3.43703 13.622C2.87703 13.2673 2.45236 12.8007 2.16303 12.222L2.80703 11.746C3.05903 12.2033 3.41369 12.572 3.87103 12.852C4.32836 13.132 4.82769 13.272 5.36903 13.272C5.83569 13.272 6.25103 13.1693 6.61503 12.964C6.98836 12.7587 7.28236 12.4787 7.49703 12.124C7.72103 11.76 7.83303 11.34 7.83303 10.864C7.83303 10.4067 7.72569 10.0053 7.51103 9.66C7.29636 9.30533 7.01169 9.03 6.65703 8.834C6.30236 8.62867 5.90103 8.526 5.45303 8.526C5.02369 8.526 4.61303 8.624 4.22103 8.82C3.82903 9.016 3.51169 9.29133 3.26903 9.646H2.37303L3.49303 4.06L8.29503 4.06V4.942H4.20703L3.50703 8.512C3.74969 8.25067 4.04836 8.05 4.40303 7.91C4.76703 7.76067 5.15436 7.686 5.56503 7.686C6.17169 7.686 6.71769 7.82133 7.20303 8.092C7.69769 8.36267 8.08503 8.736 8.36503 9.212C8.65436 9.67867 8.79903 10.2247 8.79903 10.85C8.79903 11.494 8.64503 12.068 8.33703 12.572C8.02903 13.0667 7.61369 13.454 7.09103 13.734C6.57769 14.0047 5.99903 14.14 5.35503 14.14ZM14.1703 14.14C13.4983 14.1213 12.9057 13.958 12.3923 13.65C11.879 13.342 11.4497 12.9407 11.1043 12.446C10.759 11.942 10.4977 11.4007 10.3203 10.822C10.143 10.234 10.0543 9.66 10.0543 9.1C10.0543 8.50267 10.1477 7.90533 10.3343 7.308C10.5303 6.71067 10.8057 6.16933 11.1603 5.684C11.5243 5.18933 11.9583 4.79733 12.4623 4.508C12.9663 4.20933 13.5357 4.06 14.1703 4.06C14.8517 4.06 15.4443 4.21867 15.9483 4.536C16.4617 4.85333 16.891 5.264 17.2363 5.768C17.5817 6.272 17.8383 6.818 18.0063 7.406C18.1837 7.994 18.2723 8.55867 18.2723 9.1C18.2723 9.70667 18.1743 10.3087 17.9783 10.906C17.7917 11.494 17.521 12.0307 17.1663 12.516C16.8117 13.0013 16.3777 13.3933 15.8643 13.692C15.3603 13.9813 14.7957 14.1307 14.1703 14.14ZM11.0483 9.1C11.067 9.58533 11.1417 10.0753 11.2723 10.57C11.4123 11.0553 11.613 11.5033 11.8743 11.914C12.1357 12.3153 12.453 12.642 12.8263 12.894C13.209 13.1367 13.657 13.258 14.1703 13.258C14.693 13.258 15.1503 13.1273 15.5423 12.866C15.9343 12.6047 16.2563 12.264 16.5083 11.844C16.7697 11.4147 16.9657 10.962 17.0963 10.486C17.227 10.0007 17.2923 9.53867 17.2923 9.1C17.2923 8.61467 17.2223 8.12933 17.0823 7.644C16.9423 7.14933 16.737 6.70133 16.4663 6.3C16.1957 5.88933 15.869 5.56267 15.4863 5.32C15.1037 5.068 14.665 4.942 14.1703 4.942C13.6383 4.942 13.1763 5.07733 12.7843 5.348C12.3923 5.60933 12.0657 5.95 11.8043 6.37C11.5523 6.79 11.361 7.24267 11.2303 7.728C11.109 8.204 11.0483 8.66133 11.0483 9.1Z" fill="white"/>
<path opacity="0.4" d="M6.66162 52L6.66162 49.34H1.77562V48.486L6.95562 42.06H7.61362L7.61362 48.472H8.84562V49.34H7.61362L7.61362 52H6.66162ZM2.79762 48.472H6.74562L6.74562 43.544L2.79762 48.472ZM14.1703 52.14C13.4983 52.1213 12.9057 51.958 12.3923 51.65C11.879 51.342 11.4497 50.9407 11.1043 50.446C10.759 49.942 10.4977 49.4007 10.3203 48.822C10.143 48.234 10.0543 47.66 10.0543 47.1C10.0543 46.5027 10.1477 45.9053 10.3343 45.308C10.5303 44.7107 10.8057 44.1693 11.1603 43.684C11.5243 43.1893 11.9583 42.7973 12.4623 42.508C12.9663 42.2093 13.5357 42.06 14.1703 42.06C14.8517 42.06 15.4443 42.2187 15.9483 42.536C16.4617 42.8533 16.891 43.264 17.2363 43.768C17.5817 44.272 17.8383 44.818 18.0063 45.406C18.1837 45.994 18.2723 46.5587 18.2723 47.1C18.2723 47.7067 18.1743 48.3087 17.9783 48.906C17.7917 49.494 17.521 50.0307 17.1663 50.516C16.8117 51.0013 16.3777 51.3933 15.8643 51.692C15.3603 51.9813 14.7957 52.1307 14.1703 52.14ZM11.0483 47.1C11.067 47.5853 11.1417 48.0753 11.2723 48.57C11.4123 49.0553 11.613 49.5033 11.8743 49.914C12.1357 50.3153 12.453 50.642 12.8263 50.894C13.209 51.1367 13.657 51.258 14.1703 51.258C14.693 51.258 15.1503 51.1273 15.5423 50.866C15.9343 50.6047 16.2563 50.264 16.5083 49.844C16.7697 49.4147 16.9657 48.962 17.0963 48.486C17.227 48.0007 17.2923 47.5387 17.2923 47.1C17.2923 46.6147 17.2223 46.1293 17.0823 45.644C16.9423 45.1493 16.737 44.7013 16.4663 44.3C16.1957 43.8893 15.869 43.5627 15.4863 43.32C15.1037 43.068 14.665 42.942 14.1703 42.942C13.6383 42.942 13.1763 43.0773 12.7843 43.348C12.3923 43.6093 12.0657 43.95 11.8043 44.37C11.5523 44.79 11.361 45.2427 11.2303 45.728C11.109 46.204 11.0483 46.6613 11.0483 47.1Z" fill="white"/>
<path opacity="0.4" d="M5.19654 90.126C4.60854 90.126 4.07654 90.028 3.60054 89.832C3.12454 89.636 2.73721 89.3653 2.43854 89.02C2.13988 88.6747 1.95321 88.2733 1.87854 87.816L2.46654 87.284C2.48521 87.6013 2.61121 87.914 2.84454 88.222C3.07788 88.5207 3.39521 88.7633 3.79654 88.95C4.20721 89.1367 4.67388 89.23 5.19654 89.23C5.66321 89.23 6.08321 89.1507 6.45654 88.992C6.83921 88.824 7.13788 88.6 7.35254 88.32C7.57654 88.0307 7.68854 87.6947 7.68854 87.312C7.68854 86.9013 7.55788 86.5513 7.29654 86.262C7.03521 85.9633 6.66654 85.7347 6.19054 85.576C5.71454 85.4173 5.14988 85.338 4.49654 85.338H4.02054V84.512H4.49654C5.40188 84.512 6.11588 84.3627 6.63854 84.064C7.16121 83.7653 7.42254 83.3173 7.42254 82.72C7.42254 82.328 7.31521 81.9873 7.10054 81.698C6.89521 81.4087 6.61521 81.1847 6.26054 81.026C5.91521 80.8673 5.53721 80.788 5.12654 80.788C4.51054 80.788 3.98321 80.9233 3.54454 81.194C3.10588 81.4647 2.79788 81.8007 2.62054 82.202L1.96254 81.558C2.13988 81.222 2.38721 80.9327 2.70454 80.69C3.03121 80.4473 3.39988 80.2607 3.81054 80.13C4.23054 79.9993 4.66454 79.934 5.11254 79.934C5.74721 79.934 6.31188 80.0553 6.80654 80.298C7.31054 80.5407 7.70254 80.8673 7.98254 81.278C8.27188 81.6887 8.41654 82.16 8.41654 82.692C8.41654 83.0653 8.34188 83.4013 8.19254 83.7C8.04321 83.9893 7.82388 84.2367 7.53454 84.442C7.24521 84.638 6.89054 84.7873 6.47054 84.89C6.90921 84.974 7.29188 85.1373 7.61854 85.38C7.95454 85.6227 8.21121 85.9213 8.38854 86.276C8.57521 86.6213 8.66854 87.004 8.66854 87.424C8.66854 87.984 8.50521 88.4647 8.17854 88.866C7.86121 89.2673 7.44121 89.58 6.91854 89.804C6.39588 90.0187 5.82188 90.126 5.19654 90.126ZM14.1703 90.14C13.4983 90.1213 12.9057 89.958 12.3923 89.65C11.879 89.342 11.4497 88.9407 11.1043 88.446C10.759 87.942 10.4977 87.4007 10.3203 86.822C10.143 86.234 10.0543 85.66 10.0543 85.1C10.0543 84.5027 10.1477 83.9053 10.3343 83.308C10.5303 82.7107 10.8057 82.1693 11.1603 81.684C11.5243 81.1893 11.9583 80.7973 12.4623 80.508C12.9663 80.2093 13.5357 80.06 14.1703 80.06C14.8517 80.06 15.4443 80.2187 15.9483 80.536C16.4617 80.8533 16.891 81.264 17.2363 81.768C17.5817 82.272 17.8383 82.818 18.0063 83.406C18.1837 83.994 18.2723 84.5587 18.2723 85.1C18.2723 85.7067 18.1743 86.3087 17.9783 86.906C17.7917 87.494 17.521 88.0307 17.1663 88.516C16.8117 89.0013 16.3777 89.3933 15.8643 89.692C15.3603 89.9813 14.7957 90.1307 14.1703 90.14ZM11.0483 85.1C11.067 85.5853 11.1417 86.0753 11.2723 86.57C11.4123 87.0553 11.613 87.5033 11.8743 87.914C12.1357 88.3153 12.453 88.642 12.8263 88.894C13.209 89.1367 13.657 89.258 14.1703 89.258C14.693 89.258 15.1503 89.1273 15.5423 88.866C15.9343 88.6047 16.2563 88.264 16.5083 87.844C16.7697 87.4147 16.9657 86.962 17.0963 86.486C17.227 86.0007 17.2923 85.5387 17.2923 85.1C17.2923 84.6147 17.2223 84.1293 17.0823 83.644C16.9423 83.1493 16.737 82.7013 16.4663 82.3C16.1957 81.8893 15.869 81.5627 15.4863 81.32C15.1037 81.068 14.665 80.942 14.1703 80.942C13.6383 80.942 13.1763 81.0773 12.7843 81.348C12.3923 81.6093 12.0657 81.95 11.8043 82.37C11.5523 82.79 11.361 83.2427 11.2303 83.728C11.109 84.204 11.0483 84.6613 11.0483 85.1Z" fill="white"/>
<path opacity="0.4" d="M1.91956 128C1.91023 127.412 1.95689 126.894 2.05956 126.446C2.16223 125.998 2.31623 125.601 2.52156 125.256C2.73623 124.911 2.99289 124.612 3.29156 124.36C3.59023 124.099 3.92623 123.87 4.29956 123.674C4.65423 123.478 5.02289 123.301 5.40556 123.142C5.78823 122.974 6.14289 122.792 6.46956 122.596C6.79623 122.4 7.05756 122.162 7.25356 121.882C7.45889 121.593 7.56156 121.233 7.56156 120.804C7.56156 120.449 7.48223 120.123 7.32356 119.824C7.17423 119.525 6.94089 119.287 6.62356 119.11C6.30623 118.923 5.90489 118.83 5.41956 118.83C4.94356 118.83 4.51889 118.909 4.14556 119.068C3.78156 119.227 3.47356 119.418 3.22156 119.642C2.97889 119.866 2.78289 120.071 2.63356 120.258L2.00356 119.642C2.05956 119.577 2.17156 119.451 2.33956 119.264C2.51689 119.077 2.75023 118.881 3.03956 118.676C3.33823 118.471 3.68823 118.298 4.08956 118.158C4.50023 118.009 4.97623 117.934 5.51756 117.934C6.20823 117.934 6.78223 118.069 7.23956 118.34C7.69689 118.601 8.03756 118.947 8.26156 119.376C8.49489 119.805 8.61156 120.277 8.61156 120.79C8.61156 121.285 8.51356 121.705 8.31756 122.05C8.13089 122.386 7.88356 122.671 7.57556 122.904C7.27689 123.128 6.95023 123.324 6.59556 123.492C6.25023 123.66 5.92356 123.819 5.61556 123.968C5.01823 124.239 4.54223 124.505 4.18756 124.766C3.83289 125.027 3.56689 125.289 3.38956 125.55C3.22156 125.811 3.10956 126.073 3.05356 126.334C2.99756 126.595 2.96489 126.861 2.95556 127.132H8.62556L8.62556 128H1.91956ZM14.1703 128.14C13.4983 128.121 12.9057 127.958 12.3923 127.65C11.879 127.342 11.4497 126.941 11.1043 126.446C10.759 125.942 10.4977 125.401 10.3203 124.822C10.143 124.234 10.0543 123.66 10.0543 123.1C10.0543 122.503 10.1477 121.905 10.3343 121.308C10.5303 120.711 10.8057 120.169 11.1603 119.684C11.5243 119.189 11.9583 118.797 12.4623 118.508C12.9663 118.209 13.5357 118.06 14.1703 118.06C14.8517 118.06 15.4443 118.219 15.9483 118.536C16.4617 118.853 16.891 119.264 17.2363 119.768C17.5817 120.272 17.8383 120.818 18.0063 121.406C18.1837 121.994 18.2723 122.559 18.2723 123.1C18.2723 123.707 18.1743 124.309 17.9783 124.906C17.7917 125.494 17.521 126.031 17.1663 126.516C16.8117 127.001 16.3777 127.393 15.8643 127.692C15.3603 127.981 14.7957 128.131 14.1703 128.14ZM11.0483 123.1C11.067 123.585 11.1417 124.075 11.2723 124.57C11.4123 125.055 11.613 125.503 11.8743 125.914C12.1357 126.315 12.453 126.642 12.8263 126.894C13.209 127.137 13.657 127.258 14.1703 127.258C14.693 127.258 15.1503 127.127 15.5423 126.866C15.9343 126.605 16.2563 126.264 16.5083 125.844C16.7697 125.415 16.9657 124.962 17.0963 124.486C17.227 124.001 17.2923 123.539 17.2923 123.1C17.2923 122.615 17.2223 122.129 17.0823 121.644C16.9423 121.149 16.737 120.701 16.4663 120.3C16.1957 119.889 15.869 119.563 15.4863 119.32C15.1037 119.068 14.665 118.942 14.1703 118.942C13.6383 118.942 13.1763 119.077 12.7843 119.348C12.3923 119.609 12.0657 119.95 11.8043 120.37C11.5523 120.79 11.361 121.243 11.2303 121.728C11.109 122.204 11.0483 122.661 11.0483 123.1Z" fill="white"/>
<path opacity="0.4" d="M9.14312 165.132L9.14312 166H4.50912V165.132H6.39912L6.39912 156.998C6.31512 157.11 6.18912 157.236 6.02112 157.376C5.86245 157.507 5.67579 157.637 5.46112 157.768C5.24645 157.889 5.02712 157.992 4.80312 158.076C4.57912 158.16 4.37379 158.202 4.18712 158.202V157.306C4.43912 157.306 4.69112 157.241 4.94312 157.11C5.19512 156.97 5.42845 156.816 5.64312 156.648C5.86712 156.471 6.04445 156.312 6.17512 156.172C6.31512 156.023 6.38979 155.943 6.39912 155.934H7.36512L7.36512 165.132H9.14312ZM14.1703 166.14C13.4983 166.121 12.9057 165.958 12.3923 165.65C11.879 165.342 11.4497 164.941 11.1043 164.446C10.759 163.942 10.4977 163.401 10.3203 162.822C10.143 162.234 10.0543 161.66 10.0543 161.1C10.0543 160.503 10.1477 159.905 10.3343 159.308C10.5303 158.711 10.8057 158.169 11.1603 157.684C11.5243 157.189 11.9583 156.797 12.4623 156.508C12.9663 156.209 13.5357 156.06 14.1703 156.06C14.8517 156.06 15.4443 156.219 15.9483 156.536C16.4617 156.853 16.891 157.264 17.2363 157.768C17.5817 158.272 17.8383 158.818 18.0063 159.406C18.1837 159.994 18.2723 160.559 18.2723 161.1C18.2723 161.707 18.1743 162.309 17.9783 162.906C17.7917 163.494 17.521 164.031 17.1663 164.516C16.8117 165.001 16.3777 165.393 15.8643 165.692C15.3603 165.981 14.7957 166.131 14.1703 166.14ZM11.0483 161.1C11.067 161.585 11.1417 162.075 11.2723 162.57C11.4123 163.055 11.613 163.503 11.8743 163.914C12.1357 164.315 12.453 164.642 12.8263 164.894C13.209 165.137 13.657 165.258 14.1703 165.258C14.693 165.258 15.1503 165.127 15.5423 164.866C15.9343 164.605 16.2563 164.264 16.5083 163.844C16.7697 163.415 16.9657 162.962 17.0963 162.486C17.227 162.001 17.2923 161.539 17.2923 161.1C17.2923 160.615 17.2223 160.129 17.0823 159.644C16.9423 159.149 16.737 158.701 16.4663 158.3C16.1957 157.889 15.869 157.563 15.4863 157.32C15.1037 157.068 14.665 156.942 14.1703 156.942C13.6383 156.942 13.1763 157.077 12.7843 157.348C12.3923 157.609 12.0657 157.95 11.8043 158.37C11.5523 158.79 11.361 159.243 11.2303 159.728C11.109 160.204 11.0483 160.661 11.0483 161.1Z" fill="white"/>
<path opacity="0.4" d="M14.1703 204.14C13.4983 204.121 12.9057 203.958 12.3923 203.65C11.879 203.342 11.4497 202.941 11.1043 202.446C10.759 201.942 10.4977 201.401 10.3203 200.822C10.143 200.234 10.0543 199.66 10.0543 199.1C10.0543 198.503 10.1477 197.905 10.3343 197.308C10.5303 196.711 10.8057 196.169 11.1603 195.684C11.5243 195.189 11.9583 194.797 12.4623 194.508C12.9663 194.209 13.5357 194.06 14.1703 194.06C14.8517 194.06 15.4443 194.219 15.9483 194.536C16.4617 194.853 16.891 195.264 17.2363 195.768C17.5817 196.272 17.8383 196.818 18.0063 197.406C18.1837 197.994 18.2723 198.559 18.2723 199.1C18.2723 199.707 18.1743 200.309 17.9783 200.906C17.7917 201.494 17.521 202.031 17.1663 202.516C16.8117 203.001 16.3777 203.393 15.8643 203.692C15.3603 203.981 14.7957 204.131 14.1703 204.14ZM11.0483 199.1C11.067 199.585 11.1417 200.075 11.2723 200.57C11.4123 201.055 11.613 201.503 11.8743 201.914C12.1357 202.315 12.453 202.642 12.8263 202.894C13.209 203.137 13.657 203.258 14.1703 203.258C14.693 203.258 15.1503 203.127 15.5423 202.866C15.9343 202.605 16.2563 202.264 16.5083 201.844C16.7697 201.415 16.9657 200.962 17.0963 200.486C17.227 200.001 17.2923 199.539 17.2923 199.1C17.2923 198.615 17.2223 198.129 17.0823 197.644C16.9423 197.149 16.737 196.701 16.4663 196.3C16.1957 195.889 15.869 195.563 15.4863 195.32C15.1037 195.068 14.665 194.942 14.1703 194.942C13.6383 194.942 13.1763 195.077 12.7843 195.348C12.3923 195.609 12.0657 195.95 11.8043 196.37C11.5523 196.79 11.361 197.243 11.2303 197.728C11.109 198.204 11.0483 198.661 11.0483 199.1Z" fill="white"/>
<path opacity="0.4" d="M72.1703 229.14C71.4983 229.121 70.9057 228.958 70.3923 228.65C69.879 228.342 69.4497 227.941 69.1043 227.446C68.759 226.942 68.4977 226.401 68.3203 225.822C68.143 225.234 68.0543 224.66 68.0543 224.1C68.0543 223.503 68.1477 222.905 68.3343 222.308C68.5303 221.711 68.8057 221.169 69.1603 220.684C69.5243 220.189 69.9583 219.797 70.4623 219.508C70.9663 219.209 71.5357 219.06 72.1703 219.06C72.8517 219.06 73.4443 219.219 73.9483 219.536C74.4617 219.853 74.891 220.264 75.2363 220.768C75.5817 221.272 75.8383 221.818 76.0063 222.406C76.1837 222.994 76.2723 223.559 76.2723 224.1C76.2723 224.707 76.1743 225.309 75.9783 225.906C75.7917 226.494 75.521 227.031 75.1663 227.516C74.8117 228.001 74.3777 228.393 73.8643 228.692C73.3603 228.981 72.7957 229.131 72.1703 229.14ZM69.0483 224.1C69.067 224.585 69.1417 225.075 69.2723 225.57C69.4123 226.055 69.613 226.503 69.8743 226.914C70.1357 227.315 70.453 227.642 70.8263 227.894C71.209 228.137 71.657 228.258 72.1703 228.258C72.693 228.258 73.1503 228.127 73.5423 227.866C73.9343 227.605 74.2563 227.264 74.5083 226.844C74.7697 226.415 74.9657 225.962 75.0963 225.486C75.227 225.001 75.2923 224.539 75.2923 224.1C75.2923 223.615 75.2223 223.129 75.0823 222.644C74.9423 222.149 74.737 221.701 74.4663 221.3C74.1957 220.889 73.869 220.563 73.4863 220.32C73.1037 220.068 72.665 219.942 72.1703 219.942C71.6383 219.942 71.1763 220.077 70.7843 220.348C70.3923 220.609 70.0657 220.95 69.8043 221.37C69.5523 221.79 69.361 222.243 69.2303 222.728C69.109 223.204 69.0483 223.661 69.0483 224.1Z" fill="white"/>
<path opacity="0.4" d="M175.922 228.132V229H171.288V228.132H173.178V219.998C173.094 220.11 172.968 220.236 172.8 220.376C172.642 220.507 172.455 220.637 172.24 220.768C172.026 220.889 171.806 220.992 171.582 221.076C171.358 221.16 171.153 221.202 170.966 221.202V220.306C171.218 220.306 171.47 220.241 171.722 220.11C171.974 219.97 172.208 219.816 172.422 219.648C172.646 219.471 172.824 219.312 172.954 219.172C173.094 219.023 173.169 218.943 173.178 218.934H174.144V228.132H175.922Z" fill="white"/>
<path opacity="0.4" d="M270.99 229C270.981 228.412 271.027 227.894 271.13 227.446C271.233 226.998 271.387 226.601 271.592 226.256C271.807 225.911 272.063 225.612 272.362 225.36C272.661 225.099 272.997 224.87 273.37 224.674C273.725 224.478 274.093 224.301 274.476 224.142C274.859 223.974 275.213 223.792 275.54 223.596C275.867 223.4 276.128 223.162 276.324 222.882C276.529 222.593 276.632 222.233 276.632 221.804C276.632 221.449 276.553 221.123 276.394 220.824C276.245 220.525 276.011 220.287 275.694 220.11C275.377 219.923 274.975 219.83 274.49 219.83C274.014 219.83 273.589 219.909 273.216 220.068C272.852 220.227 272.544 220.418 272.292 220.642C272.049 220.866 271.853 221.071 271.704 221.258L271.074 220.642C271.13 220.577 271.242 220.451 271.41 220.264C271.587 220.077 271.821 219.881 272.11 219.676C272.409 219.471 272.759 219.298 273.16 219.158C273.571 219.009 274.047 218.934 274.588 218.934C275.279 218.934 275.853 219.069 276.31 219.34C276.767 219.601 277.108 219.947 277.332 220.376C277.565 220.805 277.682 221.277 277.682 221.79C277.682 222.285 277.584 222.705 277.388 223.05C277.201 223.386 276.954 223.671 276.646 223.904C276.347 224.128 276.021 224.324 275.666 224.492C275.321 224.66 274.994 224.819 274.686 224.968C274.089 225.239 273.613 225.505 273.258 225.766C272.903 226.027 272.637 226.289 272.46 226.55C272.292 226.811 272.18 227.073 272.124 227.334C272.068 227.595 272.035 227.861 272.026 228.132H277.696V229H270.99Z" fill="white"/>
<path opacity="0.4" d="M376.517 229.126C375.929 229.126 375.397 229.028 374.921 228.832C374.445 228.636 374.058 228.365 373.759 228.02C373.46 227.675 373.274 227.273 373.199 226.816L373.787 226.284C373.806 226.601 373.932 226.914 374.165 227.222C374.398 227.521 374.716 227.763 375.117 227.95C375.528 228.137 375.994 228.23 376.517 228.23C376.984 228.23 377.404 228.151 377.777 227.992C378.16 227.824 378.458 227.6 378.673 227.32C378.897 227.031 379.009 226.695 379.009 226.312C379.009 225.901 378.878 225.551 378.617 225.262C378.356 224.963 377.987 224.735 377.511 224.576C377.035 224.417 376.47 224.338 375.817 224.338H375.341V223.512H375.817C376.722 223.512 377.436 223.363 377.959 223.064C378.482 222.765 378.743 222.317 378.743 221.72C378.743 221.328 378.636 220.987 378.421 220.698C378.216 220.409 377.936 220.185 377.581 220.026C377.236 219.867 376.858 219.788 376.447 219.788C375.831 219.788 375.304 219.923 374.865 220.194C374.426 220.465 374.118 220.801 373.941 221.202L373.283 220.558C373.46 220.222 373.708 219.933 374.025 219.69C374.352 219.447 374.72 219.261 375.131 219.13C375.551 218.999 375.985 218.934 376.433 218.934C377.068 218.934 377.632 219.055 378.127 219.298C378.631 219.541 379.023 219.867 379.303 220.278C379.592 220.689 379.737 221.16 379.737 221.692C379.737 222.065 379.662 222.401 379.513 222.7C379.364 222.989 379.144 223.237 378.855 223.442C378.566 223.638 378.211 223.787 377.791 223.89C378.23 223.974 378.612 224.137 378.939 224.38C379.275 224.623 379.532 224.921 379.709 225.276C379.896 225.621 379.989 226.004 379.989 226.424C379.989 226.984 379.826 227.465 379.499 227.866C379.182 228.267 378.762 228.58 378.239 228.804C377.716 229.019 377.142 229.126 376.517 229.126Z" fill="white"/>
<path opacity="0.4" d="M479.232 229V226.34H474.346V225.486L479.526 219.06H480.184V225.472H481.416V226.34H480.184V229H479.232ZM475.368 225.472H479.316V220.544L475.368 225.472Z" fill="white"/>
<g filter="url(#filter0_dd_10_86)">
<path d="M67.0011 146C66.6491 128.354 68.0569 97.0931 76.5038 122.679C87.0623 154.661 81.7831 152.457 103.956 122.679C117.682 106.136 139.855 143.633 165.196 143.633C190.536 143.633 189.48 120.473 206.374 120.473C223.268 120.473 242.273 145.84 265.502 143.633C288.731 141.427 279.228 121.575 296.122 122.678C313.016 123.781 336.244 148.043 355.25 145.838C374.255 143.633 374.255 118.267 390.093 122.678C405.931 127.09 424.936 148.043 438.663 145.838C452.389 143.633 457.668 122.678 466.115 122.678C472.872 122.678 479.489 134.442 481.953 140.324" stroke="#006BD2" stroke-width="2" stroke-linecap="round"/>
</g>
<g filter="url(#filter1_dd_10_86)">
<path d="M67.0011 107C66.6491 89.3544 68.0569 58.0931 76.5038 83.679C87.0623 115.661 81.7831 113.457 103.956 83.679C117.682 67.1356 139.855 104.633 165.196 104.633C190.536 104.633 189.48 81.4726 206.374 81.4726C223.268 81.4726 242.273 106.84 265.502 104.633C288.731 102.427 279.228 82.5754 296.122 83.6782C313.016 84.7811 336.244 109.043 355.25 106.838C374.255 104.633 374.255 79.2669 390.093 83.6782C405.931 88.0896 424.936 109.043 438.663 106.838C452.389 104.633 457.668 83.6782 466.115 83.6782C472.872 83.6782 479.489 95.4419 481.953 101.324" stroke="#006BD2" stroke-width="2" stroke-linecap="round"/>
</g>
<g style="mix-blend-mode:hue">
<path d="M69.928 73.3661C70.4431 73.0203 71.0574 72.8999 71.6917 73.0887C72.2715 73.2616 72.7723 73.6646 73.2073 74.1542C73.6507 74.6534 74.0909 75.3174 74.5344 76.1346C75.422 77.7703 76.3902 80.1447 77.4534 83.3651L77.9866 84.9999H75.8831L75.554 83.9921C74.5056 80.8167 73.5813 78.5707 72.7766 77.0878C72.3742 76.3463 72.0176 75.8261 71.7122 75.4823C71.3985 75.1294 71.1975 75.0288 71.1204 75.0057C71.0979 74.999 71.0978 74.9896 71.0432 75.0262C70.9463 75.0913 70.7767 75.2633 70.5696 75.6415C70.1564 76.3961 69.769 77.6415 69.4329 79.3231C69.1096 80.9404 68.8502 82.8738 68.6428 84.9999H66.635C66.8516 82.7339 67.1255 80.6646 67.4719 78.9315C67.8176 77.2024 68.2506 75.7119 68.8147 74.6815C69.0961 74.1677 69.4548 73.6838 69.928 73.3661ZM109.216 78.8671C111.405 78.247 113.687 78.3811 116.012 79.0087C119.687 80.0007 123.61 82.2719 127.687 84.9999H124.007C120.968 83.1085 118.131 81.6517 115.491 80.9393C113.412 80.3781 111.511 80.2961 109.761 80.7919C108.024 81.2842 106.345 82.3712 104.74 84.3007C104.565 84.5348 104.395 84.7692 104.224 84.9999H101.737C102.197 84.3738 102.668 83.7338 103.154 83.0819L103.169 83.0604L103.186 83.0399C105.007 80.8445 107.02 79.4893 109.216 78.8671ZM206.374 80.4725C210.837 80.4726 215.364 82.1443 219.934 84.5135C220.239 84.672 220.546 84.8348 220.853 84.9999H216.356C212.871 83.4317 209.559 82.4726 206.374 82.4725C203.014 82.4726 200.426 83.4371 198.163 84.9999H194.943C197.92 82.3621 201.436 80.4726 206.374 80.4725ZM287.306 84.9999C289.348 83.3187 292.1 82.4138 296.187 82.6805C299.132 82.8728 302.228 83.7349 305.409 84.9999H298.538C297.693 84.84 296.866 84.7285 296.057 84.6757C294.28 84.5597 292.842 84.6896 291.653 84.9999H287.306ZM380.061 84.3104C382.827 82.3463 386.108 81.53 390.362 82.7147C392.318 83.2597 394.31 84.0477 396.322 84.9999H390.998C390.604 84.8711 390.213 84.7498 389.824 84.6415C386.984 83.8504 384.749 84.0962 382.824 84.9999H379.168C379.46 84.7579 379.756 84.5265 380.061 84.3104ZM466.115 82.6786C468.097 82.6786 469.984 83.539 471.69 84.8055C471.775 84.8687 471.859 84.9344 471.944 84.9999H467.924C467.309 84.7892 466.705 84.6786 466.115 84.6786C465.573 84.6786 465.035 84.7881 464.49 84.9999H460.819C462.406 83.6246 464.146 82.6787 466.115 82.6786Z" fill="#FF5441"/>
</g>
</g>
<defs>
<filter id="filter0_dd_10_86" x="29.9526" y="79.9999" width="497" height="115" filterUnits="userSpaceOnUse" color-interpolation-filters="sRGB">
<feFlood flood-opacity="0" result="BackgroundImageFix"/>
<feColorMatrix in="SourceAlpha" type="matrix" values="0 0 0 0 0 0 0 0 0 0 0 0 0 0 0 0 0 0 127 0" result="hardAlpha"/>
<feOffset dx="4" dy="8"/>
<feGaussianBlur stdDeviation="20"/>
<feComposite in2="hardAlpha" operator="out"/>
<feColorMatrix type="matrix" values="0 0 0 0 0.219608 0 0 0 0 0.737255 0 0 0 0 0.886275 0 0 0 0.4 0"/>
<feBlend mode="normal" in2="BackgroundImageFix" result="effect1_dropShadow_10_86"/>
<feColorMatrix in="SourceAlpha" type="matrix" values="0 0 0 0 0 0 0 0 0 0 0 0 0 0 0 0 0 0 127 0" result="hardAlpha"/>
<feOffset dx="2" dy="4"/>
<feGaussianBlur stdDeviation="4"/>
<feComposite in2="hardAlpha" operator="out"/>
<feColorMatrix type="matrix" values="0 0 0 0 0.219608 0 0 0 0 0.737255 0 0 0 0 0.886275 0 0 0 0.2 0"/>
<feBlend mode="normal" in2="effect1_dropShadow_10_86" result="effect2_dropShadow_10_86"/>
<feBlend mode="normal" in="SourceGraphic" in2="effect2_dropShadow_10_86" result="shape"/>
</filter>
<filter id="filter1_dd_10_86" x="29.9526" y="40.9999" width="497" height="115" filterUnits="userSpaceOnUse" color-interpolation-filters="sRGB">
<feFlood flood-opacity="0" result="BackgroundImageFix"/>
<feColorMatrix in="SourceAlpha" type="matrix" values="0 0 0 0 0 0 0 0 0 0 0 0 0 0 0 0 0 0 127 0" result="hardAlpha"/>
<feOffset dx="4" dy="8"/>
<feGaussianBlur stdDeviation="20"/>
<feComposite in2="hardAlpha" operator="out"/>
<feColorMatrix type="matrix" values="0 0 0 0 0.219608 0 0 0 0 0.737255 0 0 0 0 0.886275 0 0 0 0.4 0"/>
<feBlend mode="normal" in2="BackgroundImageFix" result="effect1_dropShadow_10_86"/>
<feColorMatrix in="SourceAlpha" type="matrix" values="0 0 0 0 0 0 0 0 0 0 0 0 0 0 0 0 0 0 127 0" result="hardAlpha"/>
<feOffset dx="2" dy="4"/>
<feGaussianBlur stdDeviation="4"/>
<feComposite in2="hardAlpha" operator="out"/>
<feColorMatrix type="matrix" values="0 0 0 0 0.219608 0 0 0 0 0.737255 0 0 0 0 0.886275 0 0 0 0.2 0"/>
<feBlend mode="normal" in2="effect1_dropShadow_10_86" result="effect2_dropShadow_10_86"/>
<feBlend mode="normal" in="SourceGraphic" in2="effect2_dropShadow_10_86" result="shape"/>
</filter>
<clipPath id="clip0_10_86">
<rect width="481" height="233" fill="white" transform="translate(0.952637)"/>
</clipPath>
</defs>
</svg>
