<svg xmlns="http://www.w3.org/2000/svg" width="705" height="30" fill="none" viewBox="0 0 705 30"><rect width="47" height="30" fill="#fff" opacity="0.1" rx="8"/><rect width="47" height="30" x="55" fill="#7D9D3B" rx="8"/><path fill="#fff" d="M78.808 20.098a5 5 0 0 1-1.456-.196 3.7 3.7 0 0 1-1.134-.588 3 3 0 0 1-.756-.924l1.008-1.274q.14.308.448.602t.77.476 1.05.182q.574 0 .994-.168t.644-.462q.238-.308.238-.742 0-.462-.294-.784-.28-.322-.84-.49t-1.372-.168h-.462v-1.4h.49q1.008 0 1.61-.35.615-.35.616-.994 0-.391-.21-.672a1.24 1.24 0 0 0-.56-.434 1.9 1.9 0 0 0-.77-.154q-.7 0-1.246.336a2.2 2.2 0 0 0-.812.84l-1.218-1.358q.307-.448.84-.756a4.7 4.7 0 0 1 1.19-.504q.672-.182 1.386-.182.994 0 1.764.35.77.336 1.204.924t.434 1.344q0 .56-.238 1.022-.225.462-.644.77a2.8 2.8 0 0 1-.994.448q.615.098 1.078.462.476.35.728.896.266.532.266 1.162 0 .882-.504 1.498-.49.616-1.344.952-.84.336-1.904.336"/><path fill="#fff" fill-opacity="0.1" d="M110 8a8 8 0 0 1 8-8h30.846a8 8 0 0 1 8 8v14a8 8 0 0 1-8 8H118a8 8 0 0 1-8-8z"/><path fill="url(#a)" d="M110 8a8 8 0 0 1 8-8h30.846a8 8 0 0 1 8 8v14a8 8 0 0 1-8 8H118a8 8 0 0 1-8-8z"/><path fill="#fff" fill-opacity="0.1" d="M164.846 8a8 8 0 0 1 8-8h30.846a8 8 0 0 1 8 8v14a8 8 0 0 1-8 8h-30.846a8 8 0 0 1-8-8z"/><path fill="url(#b)" d="M164.846 8a8 8 0 0 1 8-8h30.846a8 8 0 0 1 8 8v14a8 8 0 0 1-8 8h-30.846a8 8 0 0 1-8-8z"/><path fill="#fff" fill-opacity="0.1" d="M219.692 8a8 8 0 0 1 8-8h30.846a8 8 0 0 1 8 8v14a8 8 0 0 1-8 8h-30.846a8 8 0 0 1-8-8z"/><path fill="url(#c)" d="M219.692 8a8 8 0 0 1 8-8h30.846a8 8 0 0 1 8 8v14a8 8 0 0 1-8 8h-30.846a8 8 0 0 1-8-8z"/><path fill="#fff" fill-opacity="0.1" d="M274.538 8a8 8 0 0 1 8-8h30.847a8 8 0 0 1 8 8v14a8 8 0 0 1-8 8h-30.847a8 8 0 0 1-8-8z"/><path fill="url(#d)" d="M274.538 8a8 8 0 0 1 8-8h30.847a8 8 0 0 1 8 8v14a8 8 0 0 1-8 8h-30.847a8 8 0 0 1-8-8z"/><path fill="#fff" fill-opacity="0.1" d="M329.385 8a8 8 0 0 1 8-8h30.846a8 8 0 0 1 8 8v14a8 8 0 0 1-8 8h-30.846a8 8 0 0 1-8-8z"/><path fill="url(#e)" d="M329.385 8a8 8 0 0 1 8-8h30.846a8 8 0 0 1 8 8v14a8 8 0 0 1-8 8h-30.846a8 8 0 0 1-8-8z"/><path fill="#fff" fill-opacity="0.1" d="M384.231 8a8 8 0 0 1 8-8h30.846a8 8 0 0 1 8 8v14a8 8 0 0 1-8 8h-30.846a8 8 0 0 1-8-8z"/><path fill="url(#f)" d="M384.231 8a8 8 0 0 1 8-8h30.846a8 8 0 0 1 8 8v14a8 8 0 0 1-8 8h-30.846a8 8 0 0 1-8-8z"/><path fill="#fff" fill-opacity="0.1" d="M439.077 8a8 8 0 0 1 8-8h30.846a8 8 0 0 1 8 8v14a8 8 0 0 1-8 8h-30.846a8 8 0 0 1-8-8z"/><path fill="url(#g)" d="M439.077 8a8 8 0 0 1 8-8h30.846a8 8 0 0 1 8 8v14a8 8 0 0 1-8 8h-30.846a8 8 0 0 1-8-8z"/><rect width="47" height="30" x="493.923" fill="#38BCE2" rx="8"/><path fill="#fff" d="M509.497 20q0-.855.112-1.498.112-.658.35-1.162.252-.518.644-.91a5 5 0 0 1 .966-.742q.49-.28 1.008-.546.532-.266.98-.56a2.7 2.7 0 0 0 .742-.672q.294-.378.294-.924 0-.42-.182-.714a1.13 1.13 0 0 0-.504-.476 1.7 1.7 0 0 0-.784-.168q-.532 0-.994.196a3.5 3.5 0 0 0-.812.462 5 5 0 0 0-.602.532l-1.176-1.232q.196-.224.532-.504a6 6 0 0 1 .826-.546 5.2 5.2 0 0 1 1.106-.434 5.2 5.2 0 0 1 1.358-.168q1.092 0 1.834.392.742.378 1.12 1.05.392.658.392 1.526 0 .63-.21 1.12a2.7 2.7 0 0 1-.546.84 5 5 0 0 1-.784.658q-.434.28-.896.546-.727.392-1.176.686a5 5 0 0 0-.714.546 2.3 2.3 0 0 0-.392.504 4 4 0 0 0-.224.504h4.956V20zm12.928-8.232h-4.508V10.06h7.476L520.451 20h-2.128z"/><rect width="47" height="30" x="548.923" fill="#fff" opacity="0.1" rx="8"/><rect width="47" height="30" x="603.923" fill="#fff" opacity="0.1" rx="8"/><rect width="46" height="30" x="658.923" fill="#fff" opacity="0.1" rx="8"/><defs><linearGradient id="a" x1="110" x2="485.923" y1="15" y2="15" gradientUnits="userSpaceOnUse"><stop stop-color="#7D9D3B"/><stop offset="1" stop-color="#38BCE2"/></linearGradient><linearGradient id="b" x1="110" x2="485.923" y1="15" y2="15" gradientUnits="userSpaceOnUse"><stop stop-color="#7D9D3B"/><stop offset="1" stop-color="#38BCE2"/></linearGradient><linearGradient id="c" x1="110" x2="485.923" y1="15" y2="15" gradientUnits="userSpaceOnUse"><stop stop-color="#7D9D3B"/><stop offset="1" stop-color="#38BCE2"/></linearGradient><linearGradient id="d" x1="110" x2="485.923" y1="15" y2="15" gradientUnits="userSpaceOnUse"><stop stop-color="#7D9D3B"/><stop offset="1" stop-color="#38BCE2"/></linearGradient><linearGradient id="e" x1="110" x2="485.923" y1="15" y2="15" gradientUnits="userSpaceOnUse"><stop stop-color="#7D9D3B"/><stop offset="1" stop-color="#38BCE2"/></linearGradient><linearGradient id="f" x1="110" x2="485.923" y1="15" y2="15" gradientUnits="userSpaceOnUse"><stop stop-color="#7D9D3B"/><stop offset="1" stop-color="#38BCE2"/></linearGradient><linearGradient id="g" x1="110" x2="485.923" y1="15" y2="15" gradientUnits="userSpaceOnUse"><stop stop-color="#7D9D3B"/><stop offset="1" stop-color="#38BCE2"/></linearGradient></defs></svg>