<svg xmlns="http://www.w3.org/2000/svg" width="705" height="30" fill="none" viewBox="0 0 705 30"><rect width="47" height="30" fill="#fff" opacity="0.1" rx="8"/><rect width="47" height="30" x="55" fill="#fff" opacity="0.1" rx="8"/><rect width="47" height="30" x="110" fill="#7D9D3B" rx="8"/><path fill="#fff" d="M136.938 16.682q0 .966-.49 1.75a3.5 3.5 0 0 1-1.302 1.246q-.811.462-1.848.462-1.12 0-1.946-.546-.811-.546-1.26-1.568t-.448-2.45q0-1.806.462-3.052.476-1.26 1.344-1.89.868-.645 2.044-.644a3.73 3.73 0 0 1 3.066 1.568l-1.078 1.176a2.4 2.4 0 0 0-.868-.812 2.25 2.25 0 0 0-1.148-.308q-.63 0-1.092.336-.462.335-.714.98-.252.63-.28 1.526a2 2 0 0 1 .504-.574q.308-.252.714-.378.406-.14.868-.14.994 0 1.778.448.784.435 1.232 1.19.462.742.462 1.68m-3.64 1.876q.504 0 .924-.252.42-.266.672-.686.252-.434.252-.938 0-.505-.252-.91-.252-.42-.672-.658a1.7 1.7 0 0 0-.91-.252q-.504 0-.924.252-.42.238-.672.658-.238.406-.238.91t.252.938q.252.42.672.686.42.252.896.252"/><path fill="#fff" fill-opacity="0.1" d="M165 8a8 8 0 0 1 8-8h30.846a8 8 0 0 1 8 8v14a8 8 0 0 1-8 8H173a8 8 0 0 1-8-8z"/><path fill="url(#a)" d="M165 8a8 8 0 0 1 8-8h30.846a8 8 0 0 1 8 8v14a8 8 0 0 1-8 8H173a8 8 0 0 1-8-8z"/><path fill="#fff" fill-opacity="0.1" d="M219.846 8a8 8 0 0 1 8-8h30.846a8 8 0 0 1 8 8v14a8 8 0 0 1-8 8h-30.846a8 8 0 0 1-8-8z"/><path fill="url(#b)" d="M219.846 8a8 8 0 0 1 8-8h30.846a8 8 0 0 1 8 8v14a8 8 0 0 1-8 8h-30.846a8 8 0 0 1-8-8z"/><path fill="#fff" fill-opacity="0.1" d="M274.692 8a8 8 0 0 1 8-8h30.846a8 8 0 0 1 8 8v14a8 8 0 0 1-8 8h-30.846a8 8 0 0 1-8-8z"/><path fill="url(#c)" d="M274.692 8a8 8 0 0 1 8-8h30.846a8 8 0 0 1 8 8v14a8 8 0 0 1-8 8h-30.846a8 8 0 0 1-8-8z"/><path fill="#fff" fill-opacity="0.1" d="M329.538 8a8 8 0 0 1 8-8h30.847a8 8 0 0 1 8 8v14a8 8 0 0 1-8 8h-30.847a8 8 0 0 1-8-8z"/><path fill="url(#d)" d="M329.538 8a8 8 0 0 1 8-8h30.847a8 8 0 0 1 8 8v14a8 8 0 0 1-8 8h-30.847a8 8 0 0 1-8-8z"/><path fill="#fff" fill-opacity="0.1" d="M384.385 8a8 8 0 0 1 8-8h30.846a8 8 0 0 1 8 8v14a8 8 0 0 1-8 8h-30.846a8 8 0 0 1-8-8z"/><path fill="url(#e)" d="M384.385 8a8 8 0 0 1 8-8h30.846a8 8 0 0 1 8 8v14a8 8 0 0 1-8 8h-30.846a8 8 0 0 1-8-8z"/><path fill="#fff" fill-opacity="0.1" d="M439.231 8a8 8 0 0 1 8-8h30.846a8 8 0 0 1 8 8v14a8 8 0 0 1-8 8h-30.846a8 8 0 0 1-8-8z"/><path fill="url(#f)" d="M439.231 8a8 8 0 0 1 8-8h30.846a8 8 0 0 1 8 8v14a8 8 0 0 1-8 8h-30.846a8 8 0 0 1-8-8z"/><path fill="#fff" fill-opacity="0.1" d="M494.077 8a8 8 0 0 1 8-8h30.846a8 8 0 0 1 8 8v14a8 8 0 0 1-8 8h-30.846a8 8 0 0 1-8-8z"/><path fill="url(#g)" d="M494.077 8a8 8 0 0 1 8-8h30.846a8 8 0 0 1 8 8v14a8 8 0 0 1-8 8h-30.846a8 8 0 0 1-8-8z"/><path fill="#fff" fill-opacity="0.1" d="M548.923 8a8 8 0 0 1 8-8h30.846a8 8 0 0 1 8 8v14a8 8 0 0 1-8 8h-30.846a8 8 0 0 1-8-8z"/><path fill="url(#h)" d="M548.923 8a8 8 0 0 1 8-8h30.846a8 8 0 0 1 8 8v14a8 8 0 0 1-8 8h-30.846a8 8 0 0 1-8-8z"/><path fill="#fff" fill-opacity="0.1" d="M603.769 8a8 8 0 0 1 8-8h30.846a8 8 0 0 1 8 8v14a8 8 0 0 1-8 8h-30.846a8 8 0 0 1-8-8z"/><path fill="url(#i)" d="M603.769 8a8 8 0 0 1 8-8h30.846a8 8 0 0 1 8 8v14a8 8 0 0 1-8 8h-30.846a8 8 0 0 1-8-8z"/><rect width="46" height="30" x="658.615" fill="#38BCE2" rx="8"/><path fill="#fff" d="M677.423 20.098a5 5 0 0 1-1.456-.196 3.7 3.7 0 0 1-1.134-.588 3 3 0 0 1-.756-.924l1.008-1.274q.14.308.448.602.309.294.77.476.462.182 1.05.182.574 0 .994-.168a1.47 1.47 0 0 0 .644-.462q.238-.308.238-.742 0-.462-.294-.784-.279-.322-.84-.49t-1.372-.168h-.462v-1.4h.49q1.008 0 1.61-.35.616-.35.616-.994 0-.391-.21-.672a1.23 1.23 0 0 0-.56-.434 1.9 1.9 0 0 0-.77-.154 2.33 2.33 0 0 0-1.246.336 2.2 2.2 0 0 0-.812.84l-1.218-1.358q.309-.448.84-.756a4.7 4.7 0 0 1 1.19-.504q.672-.182 1.386-.182.995 0 1.764.35.77.336 1.204.924t.434 1.344q0 .56-.238 1.022a2.05 2.05 0 0 1-.644.77q-.42.308-.994.448.616.098 1.078.462.476.35.728.896.266.532.266 1.162 0 .882-.504 1.498-.489.616-1.344.952-.84.336-1.904.336m12.32-3.416a3.24 3.24 0 0 1-.49 1.75 3.5 3.5 0 0 1-1.302 1.246q-.813.462-1.848.462-1.12 0-1.946-.546-.813-.546-1.26-1.568t-.448-2.45q0-1.806.462-3.052.475-1.26 1.344-1.89.867-.645 2.044-.644a3.73 3.73 0 0 1 3.066 1.568l-1.078 1.176a2.4 2.4 0 0 0-.868-.812 2.26 2.26 0 0 0-1.148-.308q-.63 0-1.092.336-.462.335-.714.98-.252.63-.28 1.526a2 2 0 0 1 .504-.574q.308-.252.714-.378.406-.14.868-.14.993 0 1.778.448.783.435 1.232 1.19.462.742.462 1.68m-3.64 1.876q.504 0 .924-.252.42-.266.672-.686.252-.434.252-.938 0-.505-.252-.91-.252-.42-.672-.658a1.7 1.7 0 0 0-.91-.252q-.504 0-.924.252-.42.238-.672.658-.238.406-.238.91t.252.938q.252.42.672.686.42.252.896.252"/><defs><linearGradient id="a" x1="165" x2="650.615" y1="15" y2="15" gradientUnits="userSpaceOnUse"><stop stop-color="#7D9D3B"/><stop offset="1" stop-color="#38BCE2"/></linearGradient><linearGradient id="b" x1="165" x2="650.615" y1="15" y2="15" gradientUnits="userSpaceOnUse"><stop stop-color="#7D9D3B"/><stop offset="1" stop-color="#38BCE2"/></linearGradient><linearGradient id="c" x1="165" x2="650.615" y1="15" y2="15" gradientUnits="userSpaceOnUse"><stop stop-color="#7D9D3B"/><stop offset="1" stop-color="#38BCE2"/></linearGradient><linearGradient id="d" x1="165" x2="650.615" y1="15" y2="15" gradientUnits="userSpaceOnUse"><stop stop-color="#7D9D3B"/><stop offset="1" stop-color="#38BCE2"/></linearGradient><linearGradient id="e" x1="165" x2="650.615" y1="15" y2="15" gradientUnits="userSpaceOnUse"><stop stop-color="#7D9D3B"/><stop offset="1" stop-color="#38BCE2"/></linearGradient><linearGradient id="f" x1="165" x2="650.615" y1="15" y2="15" gradientUnits="userSpaceOnUse"><stop stop-color="#7D9D3B"/><stop offset="1" stop-color="#38BCE2"/></linearGradient><linearGradient id="g" x1="165" x2="650.615" y1="15" y2="15" gradientUnits="userSpaceOnUse"><stop stop-color="#7D9D3B"/><stop offset="1" stop-color="#38BCE2"/></linearGradient><linearGradient id="h" x1="165" x2="650.615" y1="15" y2="15" gradientUnits="userSpaceOnUse"><stop stop-color="#7D9D3B"/><stop offset="1" stop-color="#38BCE2"/></linearGradient><linearGradient id="i" x1="165" x2="650.615" y1="15" y2="15" gradientUnits="userSpaceOnUse"><stop stop-color="#7D9D3B"/><stop offset="1" stop-color="#38BCE2"/></linearGradient></defs></svg>