<svg xmlns="http://www.w3.org/2000/svg" width="705" height="30" fill="none" viewBox="0 0 705 30"><rect width="23" height="30" fill="#fff" opacity="0.1" rx="4"/><rect width="23" height="30" x="27" fill="#7D9D3B" rx="4"/><path fill="#fff" d="M35.574 20q0-.855.112-1.498.112-.658.35-1.162.252-.518.644-.91a5.2 5.2 0 0 1 .966-.742q.49-.28 1.008-.546.532-.266.98-.56.462-.294.742-.672.294-.378.294-.924 0-.42-.182-.714a1.13 1.13 0 0 0-.504-.476 1.7 1.7 0 0 0-.784-.168q-.532 0-.994.196-.449.181-.812.462a5 5 0 0 0-.602.532l-1.176-1.232q.195-.224.532-.504a6 6 0 0 1 .826-.546 5.2 5.2 0 0 1 1.106-.434q.615-.168 1.358-.168 1.093 0 1.834.392a2.6 2.6 0 0 1 1.12 1.05q.392.658.392 1.526 0 .63-.21 1.12-.196.476-.546.84a5 5 0 0 1-.784.658q-.434.28-.896.546-.728.392-1.176.686a5 5 0 0 0-.714.546 2.3 2.3 0 0 0-.392.504 4 4 0 0 0-.224.504h4.956V20z"/><path fill="#fff" fill-opacity="0.1" d="M54 4a4 4 0 0 1 4-4h15a4 4 0 0 1 4 4v22a4 4 0 0 1-4 4H58a4 4 0 0 1-4-4z"/><path fill="url(#a)" d="M54 4a4 4 0 0 1 4-4h15a4 4 0 0 1 4 4v22a4 4 0 0 1-4 4H58a4 4 0 0 1-4-4z"/><rect width="23" height="30" x="81" fill="#38BCE2" rx="4"/><path fill="#fff" d="M96.938 16.682q0 .966-.49 1.75a3.5 3.5 0 0 1-1.302 1.246q-.812.462-1.848.462-1.12 0-1.946-.546-.811-.546-1.26-1.568t-.448-2.45q0-1.806.462-3.052.475-1.26 1.344-1.89.868-.645 2.044-.644.938 0 1.722.406.798.406 1.344 1.162l-1.078 1.176a2.4 2.4 0 0 0-.868-.812 2.25 2.25 0 0 0-1.148-.308q-.63 0-1.092.336-.462.335-.714.98-.252.63-.28 1.526a2 2 0 0 1 .504-.574q.307-.252.714-.378.405-.14.868-.14.994 0 1.778.448.784.435 1.232 1.19.462.742.462 1.68m-3.64 1.876q.504 0 .924-.252.42-.266.672-.686.252-.434.252-.938 0-.505-.252-.91-.252-.42-.672-.658a1.7 1.7 0 0 0-.91-.252q-.504 0-.924.252-.42.238-.672.658-.238.406-.238.91t.252.938q.252.42.672.686.42.252.896.252"/><rect width="23" height="30" x="108" fill="#fff" opacity="0.1" rx="4"/><rect width="23" height="30" x="135" fill="#fff" opacity="0.1" rx="4"/><rect width="23" height="30" x="162" fill="#fff" opacity="0.1" rx="4"/><rect width="23" height="30" x="189" fill="#fff" opacity="0.1" rx="4"/><rect width="23" height="30" x="216" fill="#fff" opacity="0.1" rx="4"/><rect width="23" height="30" x="243" fill="#fff" opacity="0.1" rx="4"/><rect width="23" height="30" x="270" fill="#fff" opacity="0.1" rx="4"/><rect width="23" height="30" x="297" fill="#fff" opacity="0.1" rx="4"/><rect width="24" height="30" x="324" fill="#fff" opacity="0.1" rx="4"/><rect width="23" height="30" x="352" fill="#fff" opacity="0.1" rx="4"/><rect width="24" height="30" x="379" fill="#fff" opacity="0.1" rx="4"/><rect width="23" height="30" x="407" fill="#fff" opacity="0.1" rx="4"/><rect width="24" height="30" x="434" fill="#fff" opacity="0.1" rx="4"/><rect width="23" height="30" x="462" fill="#fff" opacity="0.1" rx="4"/><rect width="24" height="30" x="489" fill="#fff" opacity="0.1" rx="4"/><rect width="23" height="30" x="517" fill="#fff" opacity="0.1" rx="4"/><rect width="24" height="30" x="544" fill="#fff" opacity="0.1" rx="4"/><rect width="23" height="30" x="572" fill="#fff" opacity="0.1" rx="4"/><rect width="24" height="30" x="599" fill="#fff" opacity="0.1" rx="4"/><rect width="23" height="30" x="627" fill="#fff" opacity="0.1" rx="4"/><rect width="24" height="30" x="654" fill="#fff" opacity="0.1" rx="4"/><rect width="23" height="30" x="682" fill="#fff" opacity="0.1" rx="4"/><defs><linearGradient id="a" x1="54" x2="77" y1="15" y2="15" gradientUnits="userSpaceOnUse"><stop stop-color="#7D9D3B"/><stop offset="1" stop-color="#38BCE2"/></linearGradient></defs></svg>