<svg xmlns="http://www.w3.org/2000/svg" width="705" height="30" fill="none" viewBox="0 0 705 30"><rect width="25" height="30" fill="#fff" opacity="0.1" rx="4"/><rect width="24" height="30" x="29" fill="#7D9D3B" rx="4"/><path fill="#fff" d="M37.574 20q0-.855.112-1.498.112-.658.35-1.162.252-.518.644-.91a5.2 5.2 0 0 1 .966-.742q.49-.28 1.008-.546.532-.266.98-.56.462-.294.742-.672.294-.378.294-.924 0-.42-.182-.714a1.13 1.13 0 0 0-.504-.476 1.7 1.7 0 0 0-.784-.168q-.532 0-.994.196-.449.181-.812.462a5 5 0 0 0-.602.532l-1.176-1.232q.195-.224.532-.504a6 6 0 0 1 .826-.546 5.2 5.2 0 0 1 1.106-.434q.615-.168 1.358-.168 1.093 0 1.834.392a2.6 2.6 0 0 1 1.12 1.05q.392.658.392 1.526 0 .63-.21 1.12-.196.476-.546.84a5 5 0 0 1-.784.658q-.434.28-.896.546-.728.392-1.176.686a5 5 0 0 0-.714.546 2.3 2.3 0 0 0-.392.504 4 4 0 0 0-.224.504h4.956V20z"/><path fill="#fff" fill-opacity="0.1" d="M57 4a4 4 0 0 1 4-4h15.27a4 4 0 0 1 4 4v22a4 4 0 0 1-4 4H61a4 4 0 0 1-4-4z"/><path fill="url(#a)" d="M57 4a4 4 0 0 1 4-4h15.27a4 4 0 0 1 4 4v22a4 4 0 0 1-4 4H61a4 4 0 0 1-4-4z"/><path fill="#fff" fill-opacity="0.1" d="M84.27 4a4 4 0 0 1 4-4h15.269a4 4 0 0 1 4 4v22a4 4 0 0 1-4 4h-15.27a4 4 0 0 1-4-4z"/><path fill="url(#b)" d="M84.27 4a4 4 0 0 1 4-4h15.269a4 4 0 0 1 4 4v22a4 4 0 0 1-4 4h-15.27a4 4 0 0 1-4-4z"/><path fill="#fff" fill-opacity="0.1" d="M111.539 4a4 4 0 0 1 4-4h15.269a4 4 0 0 1 4 4v22a4 4 0 0 1-4 4h-15.269a4 4 0 0 1-4-4z"/><path fill="url(#c)" d="M111.539 4a4 4 0 0 1 4-4h15.269a4 4 0 0 1 4 4v22a4 4 0 0 1-4 4h-15.269a4 4 0 0 1-4-4z"/><rect width="25" height="30" x="138.808" fill="#38BCE2" rx="4"/><path fill="#fff" d="M150.36 18.306V20h-5.628v-1.694h1.932v-6.468a1.8 1.8 0 0 1-.378.378q-.252.195-.588.392a4.4 4.4 0 0 1-.672.308q-.337.126-.616.126v-1.736q.378 0 .77-.196a4.8 4.8 0 0 0 1.26-.91q.21-.225.224-.238h1.918v8.344zm5.211 1.834q-1.05-.014-1.862-.476a4.25 4.25 0 0 1-1.358-1.218 5.8 5.8 0 0 1-.826-1.624 6 6 0 0 1-.266-1.722q0-.896.294-1.792a5.4 5.4 0 0 1 .854-1.624 4.35 4.35 0 0 1 1.372-1.176 3.6 3.6 0 0 1 1.792-.448q1.078 0 1.876.476.812.476 1.358 1.232t.812 1.638q.28.882.28 1.694a5.8 5.8 0 0 1-.294 1.806 5.3 5.3 0 0 1-.868 1.61 4.4 4.4 0 0 1-1.358 1.176q-.798.435-1.806.448m-2.366-5.04q.014.588.154 1.176.154.574.434 1.064.294.49.742.798.448.294 1.036.294.63 0 1.078-.322t.728-.826q.294-.504.434-1.078t.14-1.106q0-.588-.154-1.162a3.6 3.6 0 0 0-.448-1.078 2.4 2.4 0 0 0-.742-.784q-.434-.308-1.036-.308-.616 0-1.064.322t-.742.826a4.3 4.3 0 0 0-.42 1.078q-.14.574-.14 1.106"/><rect width="24" height="30" x="167.808" fill="#fff" opacity="0.1" rx="4"/><rect width="25" height="30" x="195.808" fill="#fff" opacity="0.1" rx="4"/><rect width="24" height="30" x="224.808" fill="#fff" opacity="0.1" rx="4"/><rect width="25" height="30" x="252.808" fill="#fff" opacity="0.1" rx="4"/><rect width="24" height="30" x="281.808" fill="#fff" opacity="0.1" rx="4"/><rect width="25" height="30" x="309.808" fill="#fff" opacity="0.1" rx="4"/><rect width="24" height="30" x="338.808" fill="#fff" opacity="0.1" rx="4"/><rect width="25" height="30" x="366.808" fill="#fff" opacity="0.1" rx="4"/><rect width="24" height="30" x="395.808" fill="#fff" opacity="0.1" rx="4"/><rect width="25" height="30" x="423.808" fill="#fff" opacity="0.1" rx="4"/><rect width="24" height="30" x="452.808" fill="#fff" opacity="0.1" rx="4"/><rect width="25" height="30" x="480.808" fill="#fff" opacity="0.1" rx="4"/><rect width="24" height="30" x="509.808" fill="#fff" opacity="0.1" rx="4"/><rect width="25" height="30" x="537.808" fill="#fff" opacity="0.1" rx="4"/><rect width="24" height="30" x="566.808" fill="#fff" opacity="0.1" rx="4"/><rect width="25" height="30" x="594.808" fill="#fff" opacity="0.1" rx="4"/><rect width="24" height="30" x="623.808" fill="#fff" opacity="0.1" rx="4"/><rect width="25" height="30" x="651.808" fill="#fff" opacity="0.1" rx="4"/><rect width="24" height="30" x="680.808" fill="#fff" opacity="0.1" rx="4"/><defs><linearGradient id="a" x1="57" x2="134.808" y1="15" y2="15" gradientUnits="userSpaceOnUse"><stop stop-color="#7D9D3B"/><stop offset="1" stop-color="#38BCE2"/></linearGradient><linearGradient id="b" x1="57" x2="134.808" y1="15" y2="15" gradientUnits="userSpaceOnUse"><stop stop-color="#7D9D3B"/><stop offset="1" stop-color="#38BCE2"/></linearGradient><linearGradient id="c" x1="57" x2="134.808" y1="15" y2="15" gradientUnits="userSpaceOnUse"><stop stop-color="#7D9D3B"/><stop offset="1" stop-color="#38BCE2"/></linearGradient></defs></svg>