<svg xmlns="http://www.w3.org/2000/svg" width="706" height="30" fill="none" viewBox="0 0 706 30"><rect width="25" height="30" fill="#7D9D3B" rx="4"/><path fill="#fff" d="M12.9 20.14q-1.05-.014-1.862-.476a4.25 4.25 0 0 1-1.358-1.218 5.8 5.8 0 0 1-.826-1.624 6 6 0 0 1-.266-1.722q0-.896.294-1.792.293-.896.854-1.624.574-.742 1.372-1.176a3.6 3.6 0 0 1 1.792-.448q1.078 0 1.876.476.812.476 1.358 1.232t.812 1.638q.28.882.28 1.694a5.8 5.8 0 0 1-.294 1.806 5.3 5.3 0 0 1-.868 1.61 4.4 4.4 0 0 1-1.358 1.176q-.798.435-1.806.448m-2.366-5.04q.014.588.154 1.176.154.574.434 1.064.294.49.742.798.448.294 1.036.294.63 0 1.078-.322t.728-.826q.293-.504.434-1.078.14-.574.14-1.106 0-.588-.154-1.162a3.6 3.6 0 0 0-.448-1.078 2.4 2.4 0 0 0-.742-.784q-.435-.308-1.036-.308-.615 0-1.064.322-.448.322-.742.826a4.7 4.7 0 0 0-.56 2.184"/><path fill="#fff" fill-opacity="0.1" d="M29 4a4 4 0 0 1 4-4h15.27a4 4 0 0 1 4 4v22a4 4 0 0 1-4 4H33a4 4 0 0 1-4-4z"/><path fill="url(#a)" d="M29 4a4 4 0 0 1 4-4h15.27a4 4 0 0 1 4 4v22a4 4 0 0 1-4 4H33a4 4 0 0 1-4-4z"/><path fill="#fff" fill-opacity="0.1" d="M56.27 4a4 4 0 0 1 4-4h15.268a4 4 0 0 1 4 4v22a4 4 0 0 1-4 4H60.27a4 4 0 0 1-4-4z"/><path fill="url(#b)" d="M56.27 4a4 4 0 0 1 4-4h15.268a4 4 0 0 1 4 4v22a4 4 0 0 1-4 4H60.27a4 4 0 0 1-4-4z"/><path fill="#fff" fill-opacity="0.1" d="M83.539 4a4 4 0 0 1 4-4h15.269a4 4 0 0 1 4 4v22a4 4 0 0 1-4 4h-15.27a4 4 0 0 1-4-4z"/><path fill="url(#c)" d="M83.539 4a4 4 0 0 1 4-4h15.269a4 4 0 0 1 4 4v22a4 4 0 0 1-4 4h-15.27a4 4 0 0 1-4-4z"/><path fill="#fff" fill-opacity="0.1" d="M110.808 4a4 4 0 0 1 4-4h15.269a4 4 0 0 1 4 4v22a4 4 0 0 1-4 4h-15.269a4 4 0 0 1-4-4z"/><path fill="url(#d)" d="M110.808 4a4 4 0 0 1 4-4h15.269a4 4 0 0 1 4 4v22a4 4 0 0 1-4 4h-15.269a4 4 0 0 1-4-4z"/><rect width="25" height="30" x="138.077" fill="#38BCE2" rx="4"/><path fill="#fff" d="M149.629 18.306V20h-5.628v-1.694h1.932v-6.468a1.8 1.8 0 0 1-.378.378q-.252.195-.588.392a4.4 4.4 0 0 1-.672.308 1.8 1.8 0 0 1-.616.126v-1.736q.378 0 .77-.196a4.8 4.8 0 0 0 1.26-.91l.224-.238h1.918v8.344zm5.211 1.834q-1.05-.014-1.862-.476a4.25 4.25 0 0 1-1.358-1.218 5.8 5.8 0 0 1-.826-1.624 6 6 0 0 1-.266-1.722q0-.896.294-1.792a5.4 5.4 0 0 1 .854-1.624 4.35 4.35 0 0 1 1.372-1.176 3.6 3.6 0 0 1 1.792-.448q1.078 0 1.876.476.813.476 1.358 1.232t.812 1.638q.28.882.28 1.694a5.8 5.8 0 0 1-.294 1.806 5.3 5.3 0 0 1-.868 1.61 4.4 4.4 0 0 1-1.358 1.176q-.798.435-1.806.448m-2.366-5.04q.015.588.154 1.176.155.574.434 1.064.294.49.742.798.448.294 1.036.294.63 0 1.078-.322a2.5 2.5 0 0 0 .728-.826q.294-.504.434-1.078a4.45 4.45 0 0 0-.014-2.268 3.5 3.5 0 0 0-.448-1.078 2.4 2.4 0 0 0-.742-.784q-.433-.308-1.036-.308-.615 0-1.064.322-.447.322-.742.826a4.4 4.4 0 0 0-.42 1.078q-.14.574-.14 1.106"/><rect width="25" height="30" x="167.077" fill="#fff" opacity="0.1" rx="4"/><rect width="24" height="30" x="196.077" fill="#fff" opacity="0.1" rx="4"/><rect width="25" height="30" x="224.077" fill="#fff" opacity="0.1" rx="4"/><rect width="24" height="30" x="253.077" fill="#fff" opacity="0.1" rx="4"/><rect width="25" height="30" x="281.077" fill="#fff" opacity="0.1" rx="4"/><rect width="24" height="30" x="310.077" fill="#fff" opacity="0.1" rx="4"/><rect width="25" height="30" x="338.077" fill="#fff" opacity="0.1" rx="4"/><rect width="24" height="30" x="367.077" fill="#fff" opacity="0.1" rx="4"/><rect width="25" height="30" x="395.077" fill="#fff" opacity="0.1" rx="4"/><rect width="24" height="30" x="424.077" fill="#fff" opacity="0.1" rx="4"/><rect width="25" height="30" x="452.077" fill="#fff" opacity="0.1" rx="4"/><rect width="24" height="30" x="481.077" fill="#fff" opacity="0.1" rx="4"/><rect width="25" height="30" x="509.077" fill="#fff" opacity="0.1" rx="4"/><rect width="24" height="30" x="538.077" fill="#fff" opacity="0.1" rx="4"/><rect width="25" height="30" x="566.077" fill="#fff" opacity="0.1" rx="4"/><rect width="24" height="30" x="595.077" fill="#fff" opacity="0.1" rx="4"/><rect width="25" height="30" x="623.077" fill="#fff" opacity="0.1" rx="4"/><rect width="24" height="30" x="652.077" fill="#fff" opacity="0.1" rx="4"/><rect width="25" height="30" x="680.077" fill="#fff" opacity="0.1" rx="4"/><defs><linearGradient id="a" x1="29" x2="134.077" y1="15" y2="15" gradientUnits="userSpaceOnUse"><stop stop-color="#7D9D3B"/><stop offset="1" stop-color="#38BCE2"/></linearGradient><linearGradient id="b" x1="29" x2="134.077" y1="15" y2="15" gradientUnits="userSpaceOnUse"><stop stop-color="#7D9D3B"/><stop offset="1" stop-color="#38BCE2"/></linearGradient><linearGradient id="c" x1="29" x2="134.077" y1="15" y2="15" gradientUnits="userSpaceOnUse"><stop stop-color="#7D9D3B"/><stop offset="1" stop-color="#38BCE2"/></linearGradient><linearGradient id="d" x1="29" x2="134.077" y1="15" y2="15" gradientUnits="userSpaceOnUse"><stop stop-color="#7D9D3B"/><stop offset="1" stop-color="#38BCE2"/></linearGradient></defs></svg>