<svg xmlns="http://www.w3.org/2000/svg" width="706" height="30" fill="none" viewBox="0 0 706 30"><rect width="23" height="30" fill="#fff" opacity="0.1" rx="4"/><rect width="23" height="30" x="27" fill="#7D9D3B" rx="4"/><path fill="#fff" d="M35.574 20q0-.855.112-1.498.112-.658.35-1.162.252-.518.644-.91a5.2 5.2 0 0 1 .966-.742q.49-.28 1.008-.546.532-.266.98-.56.462-.294.742-.672.294-.378.294-.924 0-.42-.182-.714a1.13 1.13 0 0 0-.504-.476 1.7 1.7 0 0 0-.784-.168q-.532 0-.994.196-.449.181-.812.462a5 5 0 0 0-.602.532l-1.176-1.232q.195-.224.532-.504a6 6 0 0 1 .826-.546 5.2 5.2 0 0 1 1.106-.434q.615-.168 1.358-.168 1.093 0 1.834.392a2.6 2.6 0 0 1 1.12 1.05q.392.658.392 1.526 0 .63-.21 1.12-.196.476-.546.84a5 5 0 0 1-.784.658q-.434.28-.896.546-.728.392-1.176.686a5 5 0 0 0-.714.546 2.3 2.3 0 0 0-.392.504 4 4 0 0 0-.224.504h4.956V20z"/><path fill="#fff" fill-opacity="0.1" d="M54 4a4 4 0 0 1 4-4h15.27a4 4 0 0 1 4 4v22a4 4 0 0 1-4 4H58a4 4 0 0 1-4-4z"/><path fill="url(#a)" d="M54 4a4 4 0 0 1 4-4h15.27a4 4 0 0 1 4 4v22a4 4 0 0 1-4 4H58a4 4 0 0 1-4-4z"/><path fill="#fff" fill-opacity="0.1" d="M81.27 4a4 4 0 0 1 4-4h15.268a4 4 0 0 1 4 4v22a4 4 0 0 1-4 4H85.269a4 4 0 0 1-4-4z"/><path fill="url(#b)" d="M81.27 4a4 4 0 0 1 4-4h15.268a4 4 0 0 1 4 4v22a4 4 0 0 1-4 4H85.269a4 4 0 0 1-4-4z"/><path fill="#fff" fill-opacity="0.1" d="M108.538 4a4 4 0 0 1 4-4h15.27a4 4 0 0 1 4 4v22a4 4 0 0 1-4 4h-15.27a4 4 0 0 1-4-4z"/><path fill="url(#c)" d="M108.538 4a4 4 0 0 1 4-4h15.27a4 4 0 0 1 4 4v22a4 4 0 0 1-4 4h-15.27a4 4 0 0 1-4-4z"/><path fill="#fff" fill-opacity="0.1" d="M135.808 4a4 4 0 0 1 4-4h15.269a4 4 0 0 1 4 4v22a4 4 0 0 1-4 4h-15.269a4 4 0 0 1-4-4z"/><path fill="url(#d)" d="M135.808 4a4 4 0 0 1 4-4h15.269a4 4 0 0 1 4 4v22a4 4 0 0 1-4 4h-15.269a4 4 0 0 1-4-4z"/><path fill="#fff" fill-opacity="0.1" d="M163.077 4a4 4 0 0 1 4-4h15.269a4 4 0 0 1 4 4v22a4 4 0 0 1-4 4h-15.269a4 4 0 0 1-4-4z"/><path fill="url(#e)" d="M163.077 4a4 4 0 0 1 4-4h15.269a4 4 0 0 1 4 4v22a4 4 0 0 1-4 4h-15.269a4 4 0 0 1-4-4z"/><path fill="#fff" fill-opacity="0.1" d="M190.346 4a4 4 0 0 1 4-4h15.269a4 4 0 0 1 4 4v22a4 4 0 0 1-4 4h-15.269a4 4 0 0 1-4-4z"/><path fill="url(#f)" d="M190.346 4a4 4 0 0 1 4-4h15.269a4 4 0 0 1 4 4v22a4 4 0 0 1-4 4h-15.269a4 4 0 0 1-4-4z"/><path fill="#fff" fill-opacity="0.1" d="M217.615 4a4 4 0 0 1 4-4h15.27a4 4 0 0 1 4 4v22a4 4 0 0 1-4 4h-15.27a4 4 0 0 1-4-4z"/><path fill="url(#g)" d="M217.615 4a4 4 0 0 1 4-4h15.27a4 4 0 0 1 4 4v22a4 4 0 0 1-4 4h-15.27a4 4 0 0 1-4-4z"/><path fill="#fff" fill-opacity="0.1" d="M244.885 4a4 4 0 0 1 4-4h15.269a4 4 0 0 1 4 4v22a4 4 0 0 1-4 4h-15.269a4 4 0 0 1-4-4z"/><path fill="url(#h)" d="M244.885 4a4 4 0 0 1 4-4h15.269a4 4 0 0 1 4 4v22a4 4 0 0 1-4 4h-15.269a4 4 0 0 1-4-4z"/><path fill="#fff" fill-opacity="0.1" d="M272.154 4a4 4 0 0 1 4-4h15.269a4 4 0 0 1 4 4v22a4 4 0 0 1-4 4h-15.269a4 4 0 0 1-4-4z"/><path fill="url(#i)" d="M272.154 4a4 4 0 0 1 4-4h15.269a4 4 0 0 1 4 4v22a4 4 0 0 1-4 4h-15.269a4 4 0 0 1-4-4z"/><path fill="#fff" fill-opacity="0.1" d="M299.423 4a4 4 0 0 1 4-4h15.269a4 4 0 0 1 4 4v22a4 4 0 0 1-4 4h-15.269a4 4 0 0 1-4-4z"/><path fill="url(#j)" d="M299.423 4a4 4 0 0 1 4-4h15.269a4 4 0 0 1 4 4v22a4 4 0 0 1-4 4h-15.269a4 4 0 0 1-4-4z"/><path fill="#fff" fill-opacity="0.1" d="M326.692 4a4 4 0 0 1 4-4h15.269a4 4 0 0 1 4 4v22a4 4 0 0 1-4 4h-15.269a4 4 0 0 1-4-4z"/><path fill="url(#k)" d="M326.692 4a4 4 0 0 1 4-4h15.269a4 4 0 0 1 4 4v22a4 4 0 0 1-4 4h-15.269a4 4 0 0 1-4-4z"/><path fill="#fff" fill-opacity="0.1" d="M353.961 4a4 4 0 0 1 4-4h15.27a4 4 0 0 1 4 4v22a4 4 0 0 1-4 4h-15.27a4 4 0 0 1-4-4z"/><path fill="url(#l)" d="M353.961 4a4 4 0 0 1 4-4h15.27a4 4 0 0 1 4 4v22a4 4 0 0 1-4 4h-15.27a4 4 0 0 1-4-4z"/><path fill="#fff" fill-opacity="0.1" d="M381.231 4a4 4 0 0 1 4-4H400.5a4 4 0 0 1 4 4v22a4 4 0 0 1-4 4h-15.269a4 4 0 0 1-4-4z"/><path fill="url(#m)" d="M381.231 4a4 4 0 0 1 4-4H400.5a4 4 0 0 1 4 4v22a4 4 0 0 1-4 4h-15.269a4 4 0 0 1-4-4z"/><path fill="#fff" fill-opacity="0.1" d="M408.5 4a4 4 0 0 1 4-4h15.269a4 4 0 0 1 4 4v22a4 4 0 0 1-4 4H412.5a4 4 0 0 1-4-4z"/><path fill="url(#n)" d="M408.5 4a4 4 0 0 1 4-4h15.269a4 4 0 0 1 4 4v22a4 4 0 0 1-4 4H412.5a4 4 0 0 1-4-4z"/><path fill="#fff" fill-opacity="0.1" d="M435.769 4a4 4 0 0 1 4-4h15.269a4 4 0 0 1 4 4v22a4 4 0 0 1-4 4h-15.269a4 4 0 0 1-4-4z"/><path fill="url(#o)" d="M435.769 4a4 4 0 0 1 4-4h15.269a4 4 0 0 1 4 4v22a4 4 0 0 1-4 4h-15.269a4 4 0 0 1-4-4z"/><path fill="#fff" fill-opacity="0.1" d="M463.038 4a4 4 0 0 1 4-4h15.27a4 4 0 0 1 4 4v22a4 4 0 0 1-4 4h-15.27a4 4 0 0 1-4-4z"/><path fill="url(#p)" d="M463.038 4a4 4 0 0 1 4-4h15.27a4 4 0 0 1 4 4v22a4 4 0 0 1-4 4h-15.27a4 4 0 0 1-4-4z"/><path fill="#fff" fill-opacity="0.1" d="M490.308 4a4 4 0 0 1 4-4h15.269a4 4 0 0 1 4 4v22a4 4 0 0 1-4 4h-15.269a4 4 0 0 1-4-4z"/><path fill="url(#q)" d="M490.308 4a4 4 0 0 1 4-4h15.269a4 4 0 0 1 4 4v22a4 4 0 0 1-4 4h-15.269a4 4 0 0 1-4-4z"/><path fill="#fff" fill-opacity="0.1" d="M517.577 4a4 4 0 0 1 4-4h15.269a4 4 0 0 1 4 4v22a4 4 0 0 1-4 4h-15.269a4 4 0 0 1-4-4z"/><path fill="url(#r)" d="M517.577 4a4 4 0 0 1 4-4h15.269a4 4 0 0 1 4 4v22a4 4 0 0 1-4 4h-15.269a4 4 0 0 1-4-4z"/><path fill="#fff" fill-opacity="0.1" d="M544.846 4a4 4 0 0 1 4-4h15.269a4 4 0 0 1 4 4v22a4 4 0 0 1-4 4h-15.269a4 4 0 0 1-4-4z"/><path fill="url(#s)" d="M544.846 4a4 4 0 0 1 4-4h15.269a4 4 0 0 1 4 4v22a4 4 0 0 1-4 4h-15.269a4 4 0 0 1-4-4z"/><path fill="#fff" fill-opacity="0.1" d="M572.115 4a4 4 0 0 1 4-4h15.27a4 4 0 0 1 4 4v22a4 4 0 0 1-4 4h-15.27a4 4 0 0 1-4-4z"/><path fill="url(#t)" d="M572.115 4a4 4 0 0 1 4-4h15.27a4 4 0 0 1 4 4v22a4 4 0 0 1-4 4h-15.27a4 4 0 0 1-4-4z"/><path fill="#fff" fill-opacity="0.1" d="M599.385 4a4 4 0 0 1 4-4h15.269a4 4 0 0 1 4 4v22a4 4 0 0 1-4 4h-15.269a4 4 0 0 1-4-4z"/><path fill="url(#u)" d="M599.385 4a4 4 0 0 1 4-4h15.269a4 4 0 0 1 4 4v22a4 4 0 0 1-4 4h-15.269a4 4 0 0 1-4-4z"/><path fill="#fff" fill-opacity="0.1" d="M626.654 4a4 4 0 0 1 4-4h15.269a4 4 0 0 1 4 4v22a4 4 0 0 1-4 4h-15.269a4 4 0 0 1-4-4z"/><path fill="url(#v)" d="M626.654 4a4 4 0 0 1 4-4h15.269a4 4 0 0 1 4 4v22a4 4 0 0 1-4 4h-15.269a4 4 0 0 1-4-4z"/><path fill="#fff" fill-opacity="0.1" d="M653.923 4a4 4 0 0 1 4-4h15.269a4 4 0 0 1 4 4v22a4 4 0 0 1-4 4h-15.269a4 4 0 0 1-4-4z"/><path fill="url(#w)" d="M653.923 4a4 4 0 0 1 4-4h15.269a4 4 0 0 1 4 4v22a4 4 0 0 1-4 4h-15.269a4 4 0 0 1-4-4z"/><rect width="24" height="30" x="681.192" fill="#38BCE2" rx="4"/><path fill="#fff" d="M688.065 20.14q-1.079 0-1.946-.462a3.4 3.4 0 0 1-1.316-1.274l1.078-1.12q.405.546.98.868.588.322 1.218.322.504 0 .896-.21t.602-.588q.224-.378.224-.868 0-.476-.21-.84a1.4 1.4 0 0 0-.574-.574 1.6 1.6 0 0 0-.826-.21q-.449 0-.854.21-.407.196-.644.574h-1.638l1.148-5.908h4.9v1.708h-3.542l-.392 2.226a1.2 1.2 0 0 1 .49-.294q.321-.126.798-.126.938 0 1.68.42.742.406 1.162 1.12.434.714.434 1.652 0 .994-.49 1.764-.477.755-1.302 1.19-.813.42-1.876.42m9.105 0q-1.05-.014-1.862-.476a4.2 4.2 0 0 1-1.358-1.218 5.8 5.8 0 0 1-.826-1.624 6 6 0 0 1-.266-1.722q0-.896.294-1.792.293-.896.854-1.624a4.3 4.3 0 0 1 1.372-1.176 3.6 3.6 0 0 1 1.792-.448q1.077 0 1.876.476.812.476 1.358 1.232a5.5 5.5 0 0 1 .812 1.638q.28.882.28 1.694a5.8 5.8 0 0 1-.294 1.806 5.3 5.3 0 0 1-.868 1.61 4.45 4.45 0 0 1-1.358 1.176q-.798.435-1.806.448m-2.366-5.04q.013.588.154 1.176.153.574.434 1.064.294.49.742.798.447.294 1.036.294.63 0 1.078-.322.447-.322.728-.826.294-.504.434-1.078t.14-1.106q0-.588-.154-1.162a3.6 3.6 0 0 0-.448-1.078 2.4 2.4 0 0 0-.742-.784 1.75 1.75 0 0 0-1.036-.308q-.617 0-1.064.322t-.742.826a4.3 4.3 0 0 0-.42 1.078 4.6 4.6 0 0 0-.14 1.106"/><defs><linearGradient id="a" x1="54" x2="677.192" y1="15" y2="15" gradientUnits="userSpaceOnUse"><stop stop-color="#7D9D3B"/><stop offset="1" stop-color="#38BCE2"/></linearGradient><linearGradient id="b" x1="54" x2="677.192" y1="15" y2="15" gradientUnits="userSpaceOnUse"><stop stop-color="#7D9D3B"/><stop offset="1" stop-color="#38BCE2"/></linearGradient><linearGradient id="c" x1="54" x2="677.192" y1="15" y2="15" gradientUnits="userSpaceOnUse"><stop stop-color="#7D9D3B"/><stop offset="1" stop-color="#38BCE2"/></linearGradient><linearGradient id="d" x1="54" x2="677.192" y1="15" y2="15" gradientUnits="userSpaceOnUse"><stop stop-color="#7D9D3B"/><stop offset="1" stop-color="#38BCE2"/></linearGradient><linearGradient id="e" x1="54" x2="677.192" y1="15" y2="15" gradientUnits="userSpaceOnUse"><stop stop-color="#7D9D3B"/><stop offset="1" stop-color="#38BCE2"/></linearGradient><linearGradient id="f" x1="54" x2="677.192" y1="15" y2="15" gradientUnits="userSpaceOnUse"><stop stop-color="#7D9D3B"/><stop offset="1" stop-color="#38BCE2"/></linearGradient><linearGradient id="g" x1="54" x2="677.192" y1="15" y2="15" gradientUnits="userSpaceOnUse"><stop stop-color="#7D9D3B"/><stop offset="1" stop-color="#38BCE2"/></linearGradient><linearGradient id="h" x1="54" x2="677.192" y1="15" y2="15" gradientUnits="userSpaceOnUse"><stop stop-color="#7D9D3B"/><stop offset="1" stop-color="#38BCE2"/></linearGradient><linearGradient id="i" x1="54" x2="677.192" y1="15" y2="15" gradientUnits="userSpaceOnUse"><stop stop-color="#7D9D3B"/><stop offset="1" stop-color="#38BCE2"/></linearGradient><linearGradient id="j" x1="54" x2="677.192" y1="15" y2="15" gradientUnits="userSpaceOnUse"><stop stop-color="#7D9D3B"/><stop offset="1" stop-color="#38BCE2"/></linearGradient><linearGradient id="k" x1="54" x2="677.192" y1="15" y2="15" gradientUnits="userSpaceOnUse"><stop stop-color="#7D9D3B"/><stop offset="1" stop-color="#38BCE2"/></linearGradient><linearGradient id="l" x1="54" x2="677.192" y1="15" y2="15" gradientUnits="userSpaceOnUse"><stop stop-color="#7D9D3B"/><stop offset="1" stop-color="#38BCE2"/></linearGradient><linearGradient id="m" x1="54" x2="677.192" y1="15" y2="15" gradientUnits="userSpaceOnUse"><stop stop-color="#7D9D3B"/><stop offset="1" stop-color="#38BCE2"/></linearGradient><linearGradient id="n" x1="54" x2="677.192" y1="15" y2="15" gradientUnits="userSpaceOnUse"><stop stop-color="#7D9D3B"/><stop offset="1" stop-color="#38BCE2"/></linearGradient><linearGradient id="o" x1="54" x2="677.192" y1="15" y2="15" gradientUnits="userSpaceOnUse"><stop stop-color="#7D9D3B"/><stop offset="1" stop-color="#38BCE2"/></linearGradient><linearGradient id="p" x1="54" x2="677.192" y1="15" y2="15" gradientUnits="userSpaceOnUse"><stop stop-color="#7D9D3B"/><stop offset="1" stop-color="#38BCE2"/></linearGradient><linearGradient id="q" x1="54" x2="677.192" y1="15" y2="15" gradientUnits="userSpaceOnUse"><stop stop-color="#7D9D3B"/><stop offset="1" stop-color="#38BCE2"/></linearGradient><linearGradient id="r" x1="54" x2="677.192" y1="15" y2="15" gradientUnits="userSpaceOnUse"><stop stop-color="#7D9D3B"/><stop offset="1" stop-color="#38BCE2"/></linearGradient><linearGradient id="s" x1="54" x2="677.192" y1="15" y2="15" gradientUnits="userSpaceOnUse"><stop stop-color="#7D9D3B"/><stop offset="1" stop-color="#38BCE2"/></linearGradient><linearGradient id="t" x1="54" x2="677.192" y1="15" y2="15" gradientUnits="userSpaceOnUse"><stop stop-color="#7D9D3B"/><stop offset="1" stop-color="#38BCE2"/></linearGradient><linearGradient id="u" x1="54" x2="677.192" y1="15" y2="15" gradientUnits="userSpaceOnUse"><stop stop-color="#7D9D3B"/><stop offset="1" stop-color="#38BCE2"/></linearGradient><linearGradient id="v" x1="54" x2="677.192" y1="15" y2="15" gradientUnits="userSpaceOnUse"><stop stop-color="#7D9D3B"/><stop offset="1" stop-color="#38BCE2"/></linearGradient><linearGradient id="w" x1="54" x2="677.192" y1="15" y2="15" gradientUnits="userSpaceOnUse"><stop stop-color="#7D9D3B"/><stop offset="1" stop-color="#38BCE2"/></linearGradient></defs></svg>