<svg width="706" height="30" viewBox="0 0 706 30" fill="none" xmlns="http://www.w3.org/2000/svg">
<g opacity="0.1">
<rect width="23" height="30" rx="4" fill="white"/>
</g>
<rect x="27" width="23" height="30" rx="4" fill="#7D9D3B"/>
<path d="M35.574 20C35.574 19.4307 35.6113 18.9313 35.686 18.502C35.7607 18.0633 35.8773 17.676 36.036 17.34C36.204 16.9947 36.4187 16.6913 36.68 16.43C36.9413 16.1687 37.2633 15.9213 37.646 15.688C37.9727 15.5013 38.3087 15.3193 38.654 15.142C39.0087 14.9647 39.3353 14.778 39.634 14.582C39.942 14.386 40.1893 14.162 40.376 13.91C40.572 13.658 40.67 13.35 40.67 12.986C40.67 12.706 40.6093 12.468 40.488 12.272C40.376 12.0667 40.208 11.908 39.984 11.796C39.7693 11.684 39.508 11.628 39.2 11.628C38.8453 11.628 38.514 11.6933 38.206 11.824C37.9073 11.9453 37.6367 12.0993 37.394 12.286C37.1607 12.4633 36.96 12.6407 36.792 12.818L35.616 11.586C35.7467 11.4367 35.924 11.2687 36.148 11.082C36.3813 10.8953 36.6567 10.7133 36.974 10.536C37.3007 10.3587 37.6693 10.214 38.08 10.102C38.4907 9.99 38.9433 9.934 39.438 9.934C40.166 9.934 40.7773 10.0647 41.272 10.326C41.7667 10.578 42.14 10.928 42.392 11.376C42.6533 11.8147 42.784 12.3233 42.784 12.902C42.784 13.322 42.714 13.6953 42.574 14.022C42.4433 14.3393 42.2613 14.6193 42.028 14.862C41.7947 15.1047 41.5333 15.324 41.244 15.52C40.9547 15.7067 40.656 15.8887 40.348 16.066C39.8627 16.3273 39.4707 16.556 39.172 16.752C38.8733 16.948 38.6353 17.13 38.458 17.298C38.29 17.466 38.1593 17.634 38.066 17.802C37.982 17.9607 37.9073 18.1287 37.842 18.306H42.798V20H35.574Z" fill="white"/>
<path d="M54 4C54 1.79086 55.7909 0 58 0H73.2692C75.4784 0 77.2692 1.79086 77.2692 4V26C77.2692 28.2091 75.4784 30 73.2692 30H58C55.7909 30 54 28.2091 54 26V4Z" fill="white" fill-opacity="0.1"/>
<path d="M54 4C54 1.79086 55.7909 0 58 0H73.2692C75.4784 0 77.2692 1.79086 77.2692 4V26C77.2692 28.2091 75.4784 30 73.2692 30H58C55.7909 30 54 28.2091 54 26V4Z" fill="url(#paint0_linear_13_288)"/>
<path d="M81.2692 4C81.2692 1.79086 83.0601 0 85.2692 0H100.538C102.748 0 104.538 1.79086 104.538 4V26C104.538 28.2091 102.748 30 100.538 30H85.2692C83.0601 30 81.2692 28.2091 81.2692 26V4Z" fill="white" fill-opacity="0.1"/>
<path d="M81.2692 4C81.2692 1.79086 83.0601 0 85.2692 0H100.538C102.748 0 104.538 1.79086 104.538 4V26C104.538 28.2091 102.748 30 100.538 30H85.2692C83.0601 30 81.2692 28.2091 81.2692 26V4Z" fill="url(#paint1_linear_13_288)"/>
<path d="M108.538 4C108.538 1.79086 110.329 0 112.538 0H127.808C130.017 0 131.808 1.79086 131.808 4V26C131.808 28.2091 130.017 30 127.808 30H112.538C110.329 30 108.538 28.2091 108.538 26V4Z" fill="white" fill-opacity="0.1"/>
<path d="M108.538 4C108.538 1.79086 110.329 0 112.538 0H127.808C130.017 0 131.808 1.79086 131.808 4V26C131.808 28.2091 130.017 30 127.808 30H112.538C110.329 30 108.538 28.2091 108.538 26V4Z" fill="url(#paint2_linear_13_288)"/>
<path d="M135.808 4C135.808 1.79086 137.599 0 139.808 0H155.077C157.286 0 159.077 1.79086 159.077 4V26C159.077 28.2091 157.286 30 155.077 30H139.808C137.599 30 135.808 28.2091 135.808 26V4Z" fill="white" fill-opacity="0.1"/>
<path d="M135.808 4C135.808 1.79086 137.599 0 139.808 0H155.077C157.286 0 159.077 1.79086 159.077 4V26C159.077 28.2091 157.286 30 155.077 30H139.808C137.599 30 135.808 28.2091 135.808 26V4Z" fill="url(#paint3_linear_13_288)"/>
<path d="M163.077 4C163.077 1.79086 164.868 0 167.077 0H182.346C184.555 0 186.346 1.79086 186.346 4V26C186.346 28.2091 184.555 30 182.346 30H167.077C164.868 30 163.077 28.2091 163.077 26V4Z" fill="white" fill-opacity="0.1"/>
<path d="M163.077 4C163.077 1.79086 164.868 0 167.077 0H182.346C184.555 0 186.346 1.79086 186.346 4V26C186.346 28.2091 184.555 30 182.346 30H167.077C164.868 30 163.077 28.2091 163.077 26V4Z" fill="url(#paint4_linear_13_288)"/>
<path d="M190.346 4C190.346 1.79086 192.137 0 194.346 0H209.615C211.824 0 213.615 1.79086 213.615 4V26C213.615 28.2091 211.824 30 209.615 30H194.346C192.137 30 190.346 28.2091 190.346 26V4Z" fill="white" fill-opacity="0.1"/>
<path d="M190.346 4C190.346 1.79086 192.137 0 194.346 0H209.615C211.824 0 213.615 1.79086 213.615 4V26C213.615 28.2091 211.824 30 209.615 30H194.346C192.137 30 190.346 28.2091 190.346 26V4Z" fill="url(#paint5_linear_13_288)"/>
<path d="M217.615 4C217.615 1.79086 219.406 0 221.615 0H236.885C239.094 0 240.885 1.79086 240.885 4V26C240.885 28.2091 239.094 30 236.885 30H221.615C219.406 30 217.615 28.2091 217.615 26V4Z" fill="white" fill-opacity="0.1"/>
<path d="M217.615 4C217.615 1.79086 219.406 0 221.615 0H236.885C239.094 0 240.885 1.79086 240.885 4V26C240.885 28.2091 239.094 30 236.885 30H221.615C219.406 30 217.615 28.2091 217.615 26V4Z" fill="url(#paint6_linear_13_288)"/>
<path d="M244.885 4C244.885 1.79086 246.675 0 248.885 0H264.154C266.363 0 268.154 1.79086 268.154 4V26C268.154 28.2091 266.363 30 264.154 30H248.885C246.675 30 244.885 28.2091 244.885 26V4Z" fill="white" fill-opacity="0.1"/>
<path d="M244.885 4C244.885 1.79086 246.675 0 248.885 0H264.154C266.363 0 268.154 1.79086 268.154 4V26C268.154 28.2091 266.363 30 264.154 30H248.885C246.675 30 244.885 28.2091 244.885 26V4Z" fill="url(#paint7_linear_13_288)"/>
<path d="M272.154 4C272.154 1.79086 273.945 0 276.154 0H291.423C293.632 0 295.423 1.79086 295.423 4V26C295.423 28.2091 293.632 30 291.423 30H276.154C273.945 30 272.154 28.2091 272.154 26V4Z" fill="white" fill-opacity="0.1"/>
<path d="M272.154 4C272.154 1.79086 273.945 0 276.154 0H291.423C293.632 0 295.423 1.79086 295.423 4V26C295.423 28.2091 293.632 30 291.423 30H276.154C273.945 30 272.154 28.2091 272.154 26V4Z" fill="url(#paint8_linear_13_288)"/>
<path d="M299.423 4C299.423 1.79086 301.214 0 303.423 0H318.692C320.901 0 322.692 1.79086 322.692 4V26C322.692 28.2091 320.901 30 318.692 30H303.423C301.214 30 299.423 28.2091 299.423 26V4Z" fill="white" fill-opacity="0.1"/>
<path d="M299.423 4C299.423 1.79086 301.214 0 303.423 0H318.692C320.901 0 322.692 1.79086 322.692 4V26C322.692 28.2091 320.901 30 318.692 30H303.423C301.214 30 299.423 28.2091 299.423 26V4Z" fill="url(#paint9_linear_13_288)"/>
<path d="M326.692 4C326.692 1.79086 328.483 0 330.692 0H345.961C348.171 0 349.961 1.79086 349.961 4V26C349.961 28.2091 348.171 30 345.961 30H330.692C328.483 30 326.692 28.2091 326.692 26V4Z" fill="white" fill-opacity="0.1"/>
<path d="M326.692 4C326.692 1.79086 328.483 0 330.692 0H345.961C348.171 0 349.961 1.79086 349.961 4V26C349.961 28.2091 348.171 30 345.961 30H330.692C328.483 30 326.692 28.2091 326.692 26V4Z" fill="url(#paint10_linear_13_288)"/>
<path d="M353.961 4C353.961 1.79086 355.752 0 357.961 0H373.231C375.44 0 377.231 1.79086 377.231 4V26C377.231 28.2091 375.44 30 373.231 30H357.961C355.752 30 353.961 28.2091 353.961 26V4Z" fill="white" fill-opacity="0.1"/>
<path d="M353.961 4C353.961 1.79086 355.752 0 357.961 0H373.231C375.44 0 377.231 1.79086 377.231 4V26C377.231 28.2091 375.44 30 373.231 30H357.961C355.752 30 353.961 28.2091 353.961 26V4Z" fill="url(#paint11_linear_13_288)"/>
<path d="M381.231 4C381.231 1.79086 383.022 0 385.231 0H400.5C402.709 0 404.5 1.79086 404.5 4V26C404.5 28.2091 402.709 30 400.5 30H385.231C383.022 30 381.231 28.2091 381.231 26V4Z" fill="white" fill-opacity="0.1"/>
<path d="M381.231 4C381.231 1.79086 383.022 0 385.231 0H400.5C402.709 0 404.5 1.79086 404.5 4V26C404.5 28.2091 402.709 30 400.5 30H385.231C383.022 30 381.231 28.2091 381.231 26V4Z" fill="url(#paint12_linear_13_288)"/>
<path d="M408.5 4C408.5 1.79086 410.291 0 412.5 0H427.769C429.978 0 431.769 1.79086 431.769 4V26C431.769 28.2091 429.978 30 427.769 30H412.5C410.291 30 408.5 28.2091 408.5 26V4Z" fill="white" fill-opacity="0.1"/>
<path d="M408.5 4C408.5 1.79086 410.291 0 412.5 0H427.769C429.978 0 431.769 1.79086 431.769 4V26C431.769 28.2091 429.978 30 427.769 30H412.5C410.291 30 408.5 28.2091 408.5 26V4Z" fill="url(#paint13_linear_13_288)"/>
<path d="M435.769 4C435.769 1.79086 437.56 0 439.769 0H455.038C457.248 0 459.038 1.79086 459.038 4V26C459.038 28.2091 457.248 30 455.038 30H439.769C437.56 30 435.769 28.2091 435.769 26V4Z" fill="white" fill-opacity="0.1"/>
<path d="M435.769 4C435.769 1.79086 437.56 0 439.769 0H455.038C457.248 0 459.038 1.79086 459.038 4V26C459.038 28.2091 457.248 30 455.038 30H439.769C437.56 30 435.769 28.2091 435.769 26V4Z" fill="url(#paint14_linear_13_288)"/>
<path d="M463.038 4C463.038 1.79086 464.829 0 467.038 0H482.308C484.517 0 486.308 1.79086 486.308 4V26C486.308 28.2091 484.517 30 482.308 30H467.038C464.829 30 463.038 28.2091 463.038 26V4Z" fill="white" fill-opacity="0.1"/>
<path d="M463.038 4C463.038 1.79086 464.829 0 467.038 0H482.308C484.517 0 486.308 1.79086 486.308 4V26C486.308 28.2091 484.517 30 482.308 30H467.038C464.829 30 463.038 28.2091 463.038 26V4Z" fill="url(#paint15_linear_13_288)"/>
<path d="M490.308 4C490.308 1.79086 492.098 0 494.308 0H509.577C511.786 0 513.577 1.79086 513.577 4V26C513.577 28.2091 511.786 30 509.577 30H494.308C492.098 30 490.308 28.2091 490.308 26V4Z" fill="white" fill-opacity="0.1"/>
<path d="M490.308 4C490.308 1.79086 492.098 0 494.308 0H509.577C511.786 0 513.577 1.79086 513.577 4V26C513.577 28.2091 511.786 30 509.577 30H494.308C492.098 30 490.308 28.2091 490.308 26V4Z" fill="url(#paint16_linear_13_288)"/>
<path d="M517.577 4C517.577 1.79086 519.368 0 521.577 0H536.846C539.055 0 540.846 1.79086 540.846 4V26C540.846 28.2091 539.055 30 536.846 30H521.577C519.368 30 517.577 28.2091 517.577 26V4Z" fill="white" fill-opacity="0.1"/>
<path d="M517.577 4C517.577 1.79086 519.368 0 521.577 0H536.846C539.055 0 540.846 1.79086 540.846 4V26C540.846 28.2091 539.055 30 536.846 30H521.577C519.368 30 517.577 28.2091 517.577 26V4Z" fill="url(#paint17_linear_13_288)"/>
<path d="M544.846 4C544.846 1.79086 546.637 0 548.846 0H564.115C566.324 0 568.115 1.79086 568.115 4V26C568.115 28.2091 566.324 30 564.115 30H548.846C546.637 30 544.846 28.2091 544.846 26V4Z" fill="white" fill-opacity="0.1"/>
<path d="M544.846 4C544.846 1.79086 546.637 0 548.846 0H564.115C566.324 0 568.115 1.79086 568.115 4V26C568.115 28.2091 566.324 30 564.115 30H548.846C546.637 30 544.846 28.2091 544.846 26V4Z" fill="url(#paint18_linear_13_288)"/>
<path d="M572.115 4C572.115 1.79086 573.906 0 576.115 0H591.385C593.594 0 595.385 1.79086 595.385 4V26C595.385 28.2091 593.594 30 591.385 30H576.115C573.906 30 572.115 28.2091 572.115 26V4Z" fill="white" fill-opacity="0.1"/>
<path d="M572.115 4C572.115 1.79086 573.906 0 576.115 0H591.385C593.594 0 595.385 1.79086 595.385 4V26C595.385 28.2091 593.594 30 591.385 30H576.115C573.906 30 572.115 28.2091 572.115 26V4Z" fill="url(#paint19_linear_13_288)"/>
<path d="M599.385 4C599.385 1.79086 601.175 0 603.385 0H618.654C620.863 0 622.654 1.79086 622.654 4V26C622.654 28.2091 620.863 30 618.654 30H603.385C601.175 30 599.385 28.2091 599.385 26V4Z" fill="white" fill-opacity="0.1"/>
<path d="M599.385 4C599.385 1.79086 601.175 0 603.385 0H618.654C620.863 0 622.654 1.79086 622.654 4V26C622.654 28.2091 620.863 30 618.654 30H603.385C601.175 30 599.385 28.2091 599.385 26V4Z" fill="url(#paint20_linear_13_288)"/>
<path d="M626.654 4C626.654 1.79086 628.445 0 630.654 0H645.923C648.132 0 649.923 1.79086 649.923 4V26C649.923 28.2091 648.132 30 645.923 30H630.654C628.445 30 626.654 28.2091 626.654 26V4Z" fill="white" fill-opacity="0.1"/>
<path d="M626.654 4C626.654 1.79086 628.445 0 630.654 0H645.923C648.132 0 649.923 1.79086 649.923 4V26C649.923 28.2091 648.132 30 645.923 30H630.654C628.445 30 626.654 28.2091 626.654 26V4Z" fill="url(#paint21_linear_13_288)"/>
<path d="M653.923 4C653.923 1.79086 655.714 0 657.923 0H673.192C675.401 0 677.192 1.79086 677.192 4V26C677.192 28.2091 675.401 30 673.192 30H657.923C655.714 30 653.923 28.2091 653.923 26V4Z" fill="white" fill-opacity="0.1"/>
<path d="M653.923 4C653.923 1.79086 655.714 0 657.923 0H673.192C675.401 0 677.192 1.79086 677.192 4V26C677.192 28.2091 675.401 30 673.192 30H657.923C655.714 30 653.923 28.2091 653.923 26V4Z" fill="url(#paint22_linear_13_288)"/>
<rect x="681.192" width="24" height="30" rx="4" fill="#38BCE2"/>
<path d="M688.065 20.14C687.346 20.14 686.697 19.986 686.119 19.678C685.549 19.3607 685.111 18.936 684.803 18.404L685.881 17.284C686.151 17.648 686.478 17.9373 686.861 18.152C687.253 18.3667 687.659 18.474 688.079 18.474C688.415 18.474 688.713 18.404 688.975 18.264C689.236 18.124 689.437 17.928 689.577 17.676C689.726 17.424 689.801 17.1347 689.801 16.808C689.801 16.4907 689.731 16.2107 689.591 15.968C689.451 15.716 689.259 15.5247 689.017 15.394C688.774 15.254 688.499 15.184 688.191 15.184C687.892 15.184 687.607 15.254 687.337 15.394C687.066 15.5247 686.851 15.716 686.693 15.968H685.055L686.203 10.06H691.103V11.768H687.561L687.169 13.994C687.281 13.8727 687.444 13.7747 687.659 13.7C687.873 13.616 688.139 13.574 688.457 13.574C689.082 13.574 689.642 13.714 690.137 13.994C690.631 14.2647 691.019 14.638 691.299 15.114C691.588 15.59 691.733 16.1407 691.733 16.766C691.733 17.4287 691.569 18.0167 691.243 18.53C690.925 19.034 690.491 19.4307 689.941 19.72C689.399 20 688.774 20.14 688.065 20.14ZM697.17 20.14C696.47 20.1307 695.849 19.972 695.308 19.664C694.766 19.356 694.314 18.95 693.95 18.446C693.586 17.942 693.31 17.4007 693.124 16.822C692.946 16.234 692.858 15.66 692.858 15.1C692.858 14.5027 692.956 13.9053 693.152 13.308C693.348 12.7107 693.632 12.1693 694.006 11.684C694.388 11.1893 694.846 10.7973 695.378 10.508C695.91 10.2093 696.507 10.06 697.17 10.06C697.888 10.06 698.514 10.2187 699.046 10.536C699.587 10.8533 700.04 11.264 700.404 11.768C700.768 12.272 701.038 12.818 701.216 13.406C701.402 13.994 701.496 14.5587 701.496 15.1C701.496 15.7067 701.398 16.3087 701.202 16.906C701.006 17.494 700.716 18.0307 700.334 18.516C699.96 19.0013 699.508 19.3933 698.976 19.692C698.444 19.9813 697.842 20.1307 697.17 20.14ZM694.804 15.1C694.813 15.492 694.864 15.884 694.958 16.276C695.06 16.6587 695.205 17.0133 695.392 17.34C695.588 17.6667 695.835 17.9327 696.134 18.138C696.432 18.334 696.778 18.432 697.17 18.432C697.59 18.432 697.949 18.3247 698.248 18.11C698.546 17.8953 698.789 17.62 698.976 17.284C699.172 16.948 699.316 16.5887 699.41 16.206C699.503 15.8233 699.55 15.4547 699.55 15.1C699.55 14.708 699.498 14.3207 699.396 13.938C699.302 13.546 699.153 13.1867 698.948 12.86C698.752 12.5333 698.504 12.272 698.206 12.076C697.916 11.8707 697.571 11.768 697.17 11.768C696.759 11.768 696.404 11.8753 696.106 12.09C695.807 12.3047 695.56 12.58 695.364 12.916C695.177 13.252 695.037 13.6113 694.944 13.994C694.85 14.3767 694.804 14.7453 694.804 15.1Z" fill="white"/>
<defs>
<linearGradient id="paint0_linear_13_288" x1="54" y1="15" x2="677.192" y2="15" gradientUnits="userSpaceOnUse">
<stop stop-color="#7D9D3B"/>
<stop offset="1" stop-color="#38BCE2"/>
</linearGradient>
<linearGradient id="paint1_linear_13_288" x1="54" y1="15" x2="677.192" y2="15" gradientUnits="userSpaceOnUse">
<stop stop-color="#7D9D3B"/>
<stop offset="1" stop-color="#38BCE2"/>
</linearGradient>
<linearGradient id="paint2_linear_13_288" x1="54" y1="15" x2="677.192" y2="15" gradientUnits="userSpaceOnUse">
<stop stop-color="#7D9D3B"/>
<stop offset="1" stop-color="#38BCE2"/>
</linearGradient>
<linearGradient id="paint3_linear_13_288" x1="54" y1="15" x2="677.192" y2="15" gradientUnits="userSpaceOnUse">
<stop stop-color="#7D9D3B"/>
<stop offset="1" stop-color="#38BCE2"/>
</linearGradient>
<linearGradient id="paint4_linear_13_288" x1="54" y1="15" x2="677.192" y2="15" gradientUnits="userSpaceOnUse">
<stop stop-color="#7D9D3B"/>
<stop offset="1" stop-color="#38BCE2"/>
</linearGradient>
<linearGradient id="paint5_linear_13_288" x1="54" y1="15" x2="677.192" y2="15" gradientUnits="userSpaceOnUse">
<stop stop-color="#7D9D3B"/>
<stop offset="1" stop-color="#38BCE2"/>
</linearGradient>
<linearGradient id="paint6_linear_13_288" x1="54" y1="15" x2="677.192" y2="15" gradientUnits="userSpaceOnUse">
<stop stop-color="#7D9D3B"/>
<stop offset="1" stop-color="#38BCE2"/>
</linearGradient>
<linearGradient id="paint7_linear_13_288" x1="54" y1="15" x2="677.192" y2="15" gradientUnits="userSpaceOnUse">
<stop stop-color="#7D9D3B"/>
<stop offset="1" stop-color="#38BCE2"/>
</linearGradient>
<linearGradient id="paint8_linear_13_288" x1="54" y1="15" x2="677.192" y2="15" gradientUnits="userSpaceOnUse">
<stop stop-color="#7D9D3B"/>
<stop offset="1" stop-color="#38BCE2"/>
</linearGradient>
<linearGradient id="paint9_linear_13_288" x1="54" y1="15" x2="677.192" y2="15" gradientUnits="userSpaceOnUse">
<stop stop-color="#7D9D3B"/>
<stop offset="1" stop-color="#38BCE2"/>
</linearGradient>
<linearGradient id="paint10_linear_13_288" x1="54" y1="15" x2="677.192" y2="15" gradientUnits="userSpaceOnUse">
<stop stop-color="#7D9D3B"/>
<stop offset="1" stop-color="#38BCE2"/>
</linearGradient>
<linearGradient id="paint11_linear_13_288" x1="54" y1="15" x2="677.192" y2="15" gradientUnits="userSpaceOnUse">
<stop stop-color="#7D9D3B"/>
<stop offset="1" stop-color="#38BCE2"/>
</linearGradient>
<linearGradient id="paint12_linear_13_288" x1="54" y1="15" x2="677.192" y2="15" gradientUnits="userSpaceOnUse">
<stop stop-color="#7D9D3B"/>
<stop offset="1" stop-color="#38BCE2"/>
</linearGradient>
<linearGradient id="paint13_linear_13_288" x1="54" y1="15" x2="677.192" y2="15" gradientUnits="userSpaceOnUse">
<stop stop-color="#7D9D3B"/>
<stop offset="1" stop-color="#38BCE2"/>
</linearGradient>
<linearGradient id="paint14_linear_13_288" x1="54" y1="15" x2="677.192" y2="15" gradientUnits="userSpaceOnUse">
<stop stop-color="#7D9D3B"/>
<stop offset="1" stop-color="#38BCE2"/>
</linearGradient>
<linearGradient id="paint15_linear_13_288" x1="54" y1="15" x2="677.192" y2="15" gradientUnits="userSpaceOnUse">
<stop stop-color="#7D9D3B"/>
<stop offset="1" stop-color="#38BCE2"/>
</linearGradient>
<linearGradient id="paint16_linear_13_288" x1="54" y1="15" x2="677.192" y2="15" gradientUnits="userSpaceOnUse">
<stop stop-color="#7D9D3B"/>
<stop offset="1" stop-color="#38BCE2"/>
</linearGradient>
<linearGradient id="paint17_linear_13_288" x1="54" y1="15" x2="677.192" y2="15" gradientUnits="userSpaceOnUse">
<stop stop-color="#7D9D3B"/>
<stop offset="1" stop-color="#38BCE2"/>
</linearGradient>
<linearGradient id="paint18_linear_13_288" x1="54" y1="15" x2="677.192" y2="15" gradientUnits="userSpaceOnUse">
<stop stop-color="#7D9D3B"/>
<stop offset="1" stop-color="#38BCE2"/>
</linearGradient>
<linearGradient id="paint19_linear_13_288" x1="54" y1="15" x2="677.192" y2="15" gradientUnits="userSpaceOnUse">
<stop stop-color="#7D9D3B"/>
<stop offset="1" stop-color="#38BCE2"/>
</linearGradient>
<linearGradient id="paint20_linear_13_288" x1="54" y1="15" x2="677.192" y2="15" gradientUnits="userSpaceOnUse">
<stop stop-color="#7D9D3B"/>
<stop offset="1" stop-color="#38BCE2"/>
</linearGradient>
<linearGradient id="paint21_linear_13_288" x1="54" y1="15" x2="677.192" y2="15" gradientUnits="userSpaceOnUse">
<stop stop-color="#7D9D3B"/>
<stop offset="1" stop-color="#38BCE2"/>
</linearGradient>
<linearGradient id="paint22_linear_13_288" x1="54" y1="15" x2="677.192" y2="15" gradientUnits="userSpaceOnUse">
<stop stop-color="#7D9D3B"/>
<stop offset="1" stop-color="#38BCE2"/>
</linearGradient>
</defs>
</svg>
