<svg xmlns="http://www.w3.org/2000/svg" width="1920" height="259" fill="none" viewBox="0 0 1920 259"><path fill="#fff" d="M1758.7 259.375V67.949h48.96v60.277h43.47c22.89 0 40.43 5.845 52.6 17.536q18.27 17.535 18.27 46.395c0 12.908-2.56 24.476-7.67 34.705q-7.68 15.344-22.65 24.111-14.985 8.402-37.26 8.402zm48.96-37.262h39.08q9.87 0 16.08-4.019c4.38-2.679 7.55-6.21 9.5-10.594 2.19-4.384 3.28-9.376 3.28-14.978 0-5.358-.97-10.107-2.92-14.247-1.95-4.384-5.11-7.794-9.5-10.229q-6.21-4.019-16.8-4.019h-38.72zm-280.1 39.819v-43.473c5.84-.243 11.08-1.704 15.71-4.383 4.62-2.679 8.64-7.185 12.05-13.517q5.49-9.864 8.4-27.399c2.2-11.69 3.66-26.668 4.39-44.934l2.56-60.277h143.57v191.426h-48.96V110.691h-51.51l-.73 22.285c-.97 25.085-3.41 45.908-7.3 62.469q-5.85 24.841-16.44 39.454c-6.82 9.498-15.35 16.317-25.58 20.457-10.22 4.141-22.28 6.333-36.16 6.576m-359.64-2.557V67.949h126.76v42.742h-77.81v148.684zM468.312 305.77v-89.137h5.115q7.306 0 13.517-4.019 6.575-4.018 11.324-13.516 5.115-9.864 8.037-27.034 3.288-17.17 4.384-43.838l2.192-60.277H656.45v148.684h26.668v89.137h-42.742v-46.395H511.42v46.395zm66.853-89.137h72.333V109.23h-51.875l-1.096 23.746q-1.096 24.11-3.653 40.915-2.191 16.44-6.21 27.033-3.654 10.23-9.499 15.709m-271.259 42.742V67.949h48.953v73.063h77.447V67.949h48.952v191.426h-48.952v-77.447h-77.447v77.447zm1147.614 3.652q-23.01 0-41.64-7.672c-12.42-5.358-23.02-12.542-31.79-21.553-8.76-9.255-15.58-19.728-20.45-31.418-4.63-11.933-6.94-24.476-6.94-37.627 0-18.266 4.01-34.949 12.05-50.049q12.42-22.65 35.07-36.166c15.34-9.255 33.37-13.882 54.07-13.882q31.41 0 53.7 13.882c14.86 9.011 26.18 21.067 33.97 36.166q12.06 22.285 12.06 48.222c0 2.923-.12 5.967-.37 9.133-.24 2.923-.48 5.358-.73 7.306h-147.95c.97 9.742 3.78 18.266 8.4 25.573q7.305 10.959 18.27 16.804c7.55 3.653 15.59 5.48 24.11 5.48 9.74 0 18.87-2.314 27.4-6.941 8.77-4.871 14.73-11.203 17.9-18.997l42.01 11.691c-4.63 9.741-11.33 18.387-20.09 25.937-8.53 7.55-18.63 13.517-30.32 17.9q-17.535 6.211-38.73 6.211m-50.05-114.709h100.1q-1.455-14.613-8.4-25.207c-4.39-7.307-10.23-12.908-17.54-16.805-7.3-4.14-15.46-6.21-24.47-6.21-8.77 0-16.81 2.07-24.11 6.21-7.07 3.897-12.91 9.498-17.54 16.805q-6.57 10.594-8.04 25.207m-326.69 114.709c-15.58 0-29.59-2.557-42.009-7.672q-18.631-8.037-31.783-21.919-12.785-13.882-19.727-31.782-6.94-17.9-6.941-37.628 0-20.092 6.941-37.993 6.942-17.9 19.727-31.782 13.152-13.883 31.783-21.554c12.419-5.358 26.429-8.037 42.009-8.037 15.59 0 29.47 2.68 41.65 8.037 12.42 5.114 23.01 12.3 31.78 21.554s15.34 19.849 19.73 31.782c4.63 11.934 6.94 24.598 6.94 37.993 0 13.152-2.31 25.694-6.94 37.628-4.39 11.933-10.96 22.528-19.73 31.782-8.52 9.255-19 16.561-31.42 21.919-12.42 5.115-26.42 7.672-42.01 7.672m-50.046-99.001q0 16.804 6.576 29.956 6.575 12.787 17.9 20.092c7.55 4.871 16.07 7.307 25.57 7.307 9.26 0 17.66-2.436 25.21-7.307 7.55-5.114 13.52-11.933 17.9-20.457 4.63-8.768 6.94-18.753 6.94-29.956 0-10.96-2.31-20.823-6.94-29.591-4.38-8.767-10.35-15.587-17.9-20.457s-15.95-7.307-25.21-7.307c-9.5 0-18.02 2.557-25.57 7.672q-11.325 7.306-17.9 20.458-6.576 12.786-6.576 29.59m-155.181 99.001q-22.285 0-39.454-9.864-16.805-10.229-26.303-27.398v111.421h-48.952V67.948h42.742v32.878q10.96-16.804 27.764-26.302 16.805-9.864 38.358-9.864 19.362 0 35.436 7.672 16.438 7.671 28.494 21.554 12.056 13.516 18.631 31.417 6.942 17.535 6.941 37.993 0 27.763-10.959 50.413-10.594 22.65-29.591 36.166-18.63 13.152-43.107 13.152m-16.439-41.646q11.325 0 20.457-4.749t15.709-12.786q6.94-8.403 10.229-18.632 3.653-10.594 3.653-21.918 0-12.056-4.018-22.285-3.654-10.229-10.96-17.9-7.306-8.037-17.17-12.421-9.498-4.384-20.823-4.384-6.94 0-14.247 2.557-6.94 2.193-13.517 6.576a58.8 58.8 0 0 0-11.69 10.229q-4.75 5.845-6.941 12.786v44.934a74.7 74.7 0 0 0 11.69 19.362q7.673 8.767 17.535 13.882 9.864 4.749 20.093 4.749M93.713 0h51.144l95.348 259.374H188.33l-24.111-64.66H73.62l-23.745 64.66H-2zm61.373 159.278L119.285 52.24 82.023 159.278z" opacity="0.1"/></svg>