<svg xmlns="http://www.w3.org/2000/svg" width="1140" height="390" fill="none" viewBox="0 0 1140 390"><path fill="#fff" d="M948.574 349.108q-1.188 0-2.196-.36a5.6 5.6 0 0 1-1.764-1.026 6.2 6.2 0 0 1-1.26-1.584l1.692-.954q.36.684.9 1.152t1.206.72q.684.234 1.422.234.936 0 1.71-.36.774-.378 1.332-1.026t.828-1.476a5.1 5.1 0 0 0 .27-1.764l.864.594h-6.138v-1.566h6.084l-.81.54a4.7 4.7 0 0 0-.306-1.566 4.4 4.4 0 0 0-.81-1.368 3.8 3.8 0 0 0-1.278-.972q-.756-.36-1.746-.36-.702 0-1.368.234a3.3 3.3 0 0 0-1.17.684q-.522.45-.864 1.134l-1.638-1.08a6 6 0 0 1 1.962-1.998q1.224-.792 3.078-.792 1.494 0 2.646.558 1.17.54 1.962 1.458.81.9 1.224 2.052t.414 2.376a6.8 6.8 0 0 1-.45 2.448 6.4 6.4 0 0 1-1.26 2.088 6.15 6.15 0 0 1-1.98 1.458q-1.134.522-2.556.522m13.338.072q-1.134 0-1.998-.54a4 4 0 0 1-1.368-1.404v5.598h-1.98v-13.248h1.746v1.692a4.1 4.1 0 0 1 1.404-1.35 3.75 3.75 0 0 1 1.926-.504q.972 0 1.782.396.81.378 1.404 1.062t.918 1.566q.342.864.342 1.836 0 1.35-.54 2.466a4.4 4.4 0 0 1-1.476 1.782q-.936.648-2.16.648m-.648-1.692q.63 0 1.134-.27.522-.27.882-.72.378-.45.576-1.026a3.63 3.63 0 0 0-.018-2.412 2.9 2.9 0 0 0-.63-1.008 3 3 0 0 0-.936-.684 2.6 2.6 0 0 0-1.152-.252 2.4 2.4 0 0 0-.792.144 3.2 3.2 0 0 0-.774.396q-.36.252-.63.594t-.378.72v2.466q.252.576.666 1.044.414.45.954.738.54.27 1.098.27m10.871 1.692q-1.098 0-1.998-.378a4.9 4.9 0 0 1-1.53-1.062 5.1 5.1 0 0 1-1.008-1.548 5.1 5.1 0 0 1-.342-1.872q0-1.332.612-2.43a4.7 4.7 0 0 1 1.71-1.782q1.098-.684 2.574-.684t2.538.684a4.63 4.63 0 0 1 1.674 1.764 4.9 4.9 0 0 1 .576 2.772q-.018.18-.036.306h-7.542q.054.828.45 1.458a3.1 3.1 0 0 0 1.044.972q.63.342 1.35.342.792 0 1.494-.396.72-.396.972-1.044l1.692.486q-.306.684-.936 1.242-.612.54-1.458.864a5.4 5.4 0 0 1-1.836.306m-2.826-5.544h5.688a2.8 2.8 0 0 0-.468-1.422 2.75 2.75 0 0 0-1.026-.972 2.65 2.65 0 0 0-1.368-.36q-.738 0-1.368.36a2.8 2.8 0 0 0-1.008.972 2.9 2.9 0 0 0-.45 1.422m9.265 5.364v-9.414h1.962v3.726h.936l2.772-3.726h2.196l-3.438 4.554 3.834 4.86h-2.286l-3.096-3.906h-.918V349zm12.005 0v-7.668h-3.114v-1.746h8.226v1.746h-3.132V349zm6.592 0v-9.396h1.98v6.75l4.769-6.768h1.8V349h-1.98v-6.606L999.025 349zm10.159.09v-1.764q.45 0 .81-.216.36-.234.63-.756c.18-.36.33-.858.43-1.494.11-.636.18-1.446.22-2.43l.13-2.844h6.71V349h-1.98v-7.668h-2.99l-.03 1.278c-.05 1.26-.17 2.31-.35 3.15q-.27 1.242-.75 1.98c-.31.48-.71.828-1.19 1.044-.47.204-1.01.306-1.64.306m11.3-.09v-9.414h1.98v3.096h2.25c1.12 0 1.97.282 2.54.846.59.564.88 1.308.88 2.232 0 .624-.12 1.182-.37 1.674-.26.492-.63.876-1.12 1.152q-.72.414-1.8.414zm1.98-1.53h2.07q.6 0 .96-.216.36-.234.54-.612.18-.396.18-.846c0-.3-.06-.57-.16-.81q-.165-.378-.54-.594-.36-.234-.99-.234h-2.06zm7.29 1.53v-9.414h1.98v3.744h4.37v-3.744h1.98V349h-1.98v-3.96h-4.37V349zm10.04-2.754c0-.6.16-1.122.5-1.566.35-.456.82-.804 1.42-1.044.6-.252 1.3-.378 2.09-.378.42 0 .85.03 1.28.09q.66.09 1.17.288v-.594q0-.99-.6-1.548-.585-.558-1.71-.558c-.52 0-1.02.096-1.49.288-.47.18-.97.438-1.49.774l-.67-1.332c.62-.42 1.25-.732 1.87-.936.64-.204 1.3-.306 2-.306q1.89 0 2.97 1.008c.73.66 1.1 1.602 1.1 2.826v3.51c0 .228.03.39.11.486s.22.15.41.162V349a4.2 4.2 0 0 1-.85.09c-.42 0-.73-.102-.95-.306a1.18 1.18 0 0 1-.38-.72l-.05-.54c-.41.528-.93.936-1.57 1.224a4.6 4.6 0 0 1-1.92.432q-.945 0-1.68-.378a3 3 0 0 1-1.15-1.062c-.28-.444-.41-.942-.41-1.494m5.99.576c.14-.156.26-.312.34-.468a.84.84 0 0 0 .13-.414v-1.08a5.2 5.2 0 0 0-1.06-.288 6 6 0 0 0-1.1-.108q-1.08 0-1.77.432-.66.432-.66 1.188 0 .414.21.792c.16.252.38.456.65.612.29.156.64.234 1.06.234.44 0 .85-.084 1.25-.252.39-.168.71-.384.95-.648m4.26 2.178 2.52-3.726a2.45 2.45 0 0 1-1.41-.9c-.35-.456-.52-1.068-.52-1.836 0-.588.13-1.104.4-1.548s.66-.792 1.15-1.044q.735-.378 1.71-.378h4.14V349h-1.98v-3.402h-1.55l-2.3 3.402zm4.05-4.842h1.96v-3.06h-1.84q-.75 0-1.2.414c-.29.276-.44.636-.44 1.08s.13.816.38 1.116c.27.3.64.45 1.14.45M947.044 377.25v-3.996h.216q.378 0 .702-.216t.576-.738q.252-.54.414-1.476.162-.954.198-2.394l.108-2.844h6.714v7.668h1.296v3.996h-1.746V375h-6.75v2.25zm2.826-3.996h4.122v-5.958h-2.988l-.054 1.314a21 21 0 0 1-.198 2.304q-.126.936-.36 1.494-.216.558-.522.846m9.078 1.746v-9.396h1.98v6.75l4.77-6.768h1.8V375h-1.98v-6.606L960.802 375zm15.182.18q-1.098 0-1.998-.378a4.8 4.8 0 0 1-1.53-1.08 5 5 0 0 1-1.008-1.566 5.1 5.1 0 0 1-.342-1.872q0-1.332.594-2.43a4.77 4.77 0 0 1 1.692-1.764q1.098-.666 2.592-.666 1.44 0 2.502.648 1.08.63 1.584 1.692l-1.926.612a2.26 2.26 0 0 0-.918-.918 2.46 2.46 0 0 0-1.278-.342 2.6 2.6 0 0 0-1.44.414q-.63.396-1.008 1.116-.36.702-.36 1.638 0 .9.378 1.638.378.72 1.008 1.152a2.6 2.6 0 0 0 1.44.414q.486 0 .936-.162.468-.18.81-.468.342-.306.486-.666l1.944.576q-.306.702-.918 1.242-.594.54-1.422.864-.81.306-1.818.306m10.075 3.654V375h-.324q-1.458 0-2.502-.648a4.4 4.4 0 0 1-1.602-1.71 5 5 0 0 1-.558-2.34q0-1.26.558-2.322a4.5 4.5 0 0 1 1.62-1.728q1.044-.648 2.484-.648h.324v-3.744h1.98v3.744h.324q1.44 0 2.484.648a4.35 4.35 0 0 1 1.602 1.728q.576 1.062.576 2.322t-.558 2.34a4.4 4.4 0 0 1-1.602 1.71q-1.044.648-2.502.648h-.324v3.834zm-.324-5.436h.414v-6.192h-.414q-.792 0-1.404.414a2.94 2.94 0 0 0-.972 1.116 3.6 3.6 0 0 0-.342 1.584q0 .882.342 1.584t.954 1.098 1.422.396m2.196 0h.432q.81 0 1.422-.396t.954-1.098q.36-.702.36-1.584a3.4 3.4 0 0 0-.36-1.584 2.8 2.8 0 0 0-.954-1.116q-.612-.414-1.422-.414h-.432zm7.793 5.598q-.324 0-.684-.09t-.756-.27l.504-1.476q.216.108.414.162t.36.054q.45 0 .81-.378.378-.36.666-1.098l.36-.972-3.978-9.342h2.07l2.88 7.398 2.556-7.398h1.908l-4.14 10.854q-.306.846-.774 1.404-.45.558-1.008.846a2.43 2.43 0 0 1-1.188.306m8.57-3.996v-9.414h1.98v3.744h4.37v-3.744h1.98V375h-1.98v-3.96h-4.37V375zm10.72 0v-9.414h1.96v3.726h.94l2.77-3.726h2.19l-3.43 4.554 3.83 4.86h-2.29l-3.09-3.906h-.92V375zm17.15 2.25V375h-7.38v-9.414h1.98v7.686h3.85v-7.686h1.98v7.686h1.32v3.978zm3.42-2.25v-9.396h1.98v6.75l4.77-6.768h1.8V375h-1.98v-6.606l-4.72 6.606zm10.32 0 2.52-3.726a2.45 2.45 0 0 1-1.41-.9c-.34-.456-.52-1.068-.52-1.836 0-.588.13-1.104.4-1.548s.66-.792 1.15-1.044q.735-.378 1.71-.378h4.14V375h-1.98v-3.402h-1.55l-2.3 3.402zm4.05-4.842h1.96v-3.06h-1.84q-.75 0-1.2.414c-.29.276-.43.636-.43 1.08s.12.816.37 1.116q.405.45 1.14.45m-282.057-18.71v-4.23h.612q.504 0 .864-.396.378-.396.63-1.26.27-.864.414-2.268.162-1.422.234-3.474l.09-3.6h8.226v10.998h1.62v4.23h-1.782V349h-9.126v2.448zm3.168-4.23h5.868v-9.216h-4.32l-.054 2.088q-.054 2.07-.216 3.51-.162 1.422-.468 2.304t-.81 1.314M780.542 349v-9.396h1.98v6.75l4.77-6.768h1.8V349h-1.98v-6.606L782.396 349zm15.182.18q-1.098 0-1.998-.378a4.8 4.8 0 0 1-1.53-1.08 5 5 0 0 1-1.008-1.566 5.1 5.1 0 0 1-.342-1.872q0-1.332.594-2.43a4.77 4.77 0 0 1 1.692-1.764q1.098-.666 2.592-.666 1.44 0 2.502.648 1.08.63 1.584 1.692l-1.926.612a2.26 2.26 0 0 0-.918-.918 2.46 2.46 0 0 0-1.278-.342 2.6 2.6 0 0 0-1.44.414q-.63.396-1.008 1.116-.36.702-.36 1.638 0 .9.378 1.638.378.72 1.008 1.152a2.6 2.6 0 0 0 1.44.414q.486 0 .936-.162.468-.18.81-.468.342-.306.486-.666l1.944.576q-.306.702-.918 1.242-.594.54-1.422.864-.81.306-1.818.306m5.032-.09v-1.764q.45 0 .81-.216.36-.234.63-.756.27-.54.432-1.494t.216-2.43l.126-2.844h6.714V349h-1.98v-7.668h-2.988l-.036 1.278q-.072 1.89-.342 3.15-.27 1.242-.756 1.98-.468.72-1.188 1.044-.702.306-1.638.306m11.303-.09v-9.396h1.98v6.75l4.77-6.768h1.8V349h-1.98v-6.606L813.913 349zm10.916 0v-9.414h8.1V349h-1.98v-7.668h-4.14V349zm10.494 0v-9.396h1.98v6.75l4.77-6.768h1.8V349h-1.98v-6.606L835.323 349zm10.016 2.25v-3.996h.216q.378 0 .702-.216t.576-.738q.252-.54.414-1.476.162-.954.198-2.394l.108-2.844h6.714v7.668h1.296v3.996h-1.746V349h-6.75v2.25zm2.826-3.996h4.122v-5.958h-2.988l-.054 1.314a21 21 0 0 1-.198 2.304q-.126.936-.36 1.494-.216.558-.522.846m13.344 1.926q-1.098 0-1.998-.378a4.9 4.9 0 0 1-1.53-1.062 5.1 5.1 0 0 1-1.008-1.548 5.1 5.1 0 0 1-.342-1.872q0-1.332.612-2.43a4.7 4.7 0 0 1 1.71-1.782q1.098-.684 2.574-.684t2.538.684a4.63 4.63 0 0 1 1.674 1.764 4.9 4.9 0 0 1 .576 2.772q-.018.18-.036.306h-7.542q.054.828.45 1.458a3.1 3.1 0 0 0 1.044.972q.63.342 1.35.342.792 0 1.494-.396.72-.396.972-1.044l1.692.486q-.306.684-.936 1.242-.612.54-1.458.864a5.4 5.4 0 0 1-1.836.306m-2.826-5.544h5.688a2.8 2.8 0 0 0-.468-1.422 2.75 2.75 0 0 0-1.026-.972 2.65 2.65 0 0 0-1.368-.36q-.738 0-1.368.36a2.8 2.8 0 0 0-1.008.972 2.9 2.9 0 0 0-.45 1.422m9.265 5.364v-9.414h2.052l3.24 5.814 3.258-5.814h2.016V349h-1.89v-6.624l-2.772 4.95h-1.242l-2.79-4.95V349zm12.938 0v-9.396h1.98v6.75l4.77-6.768h1.8V349h-1.98v-6.606L880.886 349zm10.322 0 2.52-3.726a2.44 2.44 0 0 1-1.404-.9q-.522-.684-.522-1.836 0-.882.396-1.548.414-.666 1.152-1.044t1.71-.378h4.14V349h-1.98v-3.402h-1.548L891.514 349zm4.05-4.842h1.962v-3.06h-1.836q-.756 0-1.206.414-.432.414-.432 1.08t.378 1.116q.396.45 1.134.45m-287.195-7.938h1.908l4.968 12.78h-2.124l-1.35-3.474h-4.932L603.347 349h-2.142zm3.006 7.812-2.052-5.598-2.124 5.598zm10.545 5.148q-1.134 0-1.998-.54a4 4 0 0 1-1.368-1.404v5.598h-1.98v-13.248h1.746v1.692a4.1 4.1 0 0 1 1.404-1.35 3.75 3.75 0 0 1 1.926-.504q.972 0 1.782.396.81.378 1.404 1.062t.918 1.566q.342.864.342 1.836 0 1.35-.54 2.466a4.4 4.4 0 0 1-1.476 1.782q-.936.648-2.16.648m-.648-1.692q.63 0 1.134-.27.522-.27.882-.72.378-.45.576-1.026a3.63 3.63 0 0 0-.018-2.412 2.9 2.9 0 0 0-.63-1.008 3 3 0 0 0-.936-.684 2.6 2.6 0 0 0-1.152-.252 2.4 2.4 0 0 0-.792.144 3.2 3.2 0 0 0-.774.396q-.36.252-.63.594t-.378.72v2.466q.252.576.666 1.044.414.45.954.738.54.27 1.098.27m8.836 1.512v-7.668h-3.114v-1.746h8.226v1.746h-3.132V349zm10.859.18q-1.098 0-1.998-.378a4.9 4.9 0 0 1-1.53-1.062 5.1 5.1 0 0 1-1.008-1.548 5.1 5.1 0 0 1-.342-1.872q0-1.332.612-2.43a4.7 4.7 0 0 1 1.71-1.782q1.098-.684 2.574-.684t2.538.684a4.63 4.63 0 0 1 1.674 1.764 4.9 4.9 0 0 1 .576 2.772q-.018.18-.036.306h-7.542q.054.828.45 1.458a3.1 3.1 0 0 0 1.044.972q.63.342 1.35.342.792 0 1.494-.396.72-.396.972-1.044l1.692.486q-.306.684-.936 1.242-.612.54-1.458.864a5.4 5.4 0 0 1-1.836.306m-2.826-5.544h5.688a2.8 2.8 0 0 0-.468-1.422 2.75 2.75 0 0 0-1.026-.972 2.65 2.65 0 0 0-1.368-.36q-.738 0-1.368.36a2.8 2.8 0 0 0-1.008.972 2.9 2.9 0 0 0-.45 1.422m14.611 5.544q-1.134 0-1.998-.54a4 4 0 0 1-1.368-1.404v5.598h-1.98v-13.248h1.746v1.692a4.1 4.1 0 0 1 1.404-1.35 3.75 3.75 0 0 1 1.926-.504q.972 0 1.782.396.81.378 1.404 1.062t.918 1.566q.342.864.342 1.836 0 1.35-.54 2.466a4.4 4.4 0 0 1-1.476 1.782q-.936.648-2.16.648m-.648-1.692q.63 0 1.134-.27.522-.27.882-.72.378-.45.576-1.026a3.63 3.63 0 0 0-.018-2.412 2.9 2.9 0 0 0-.63-1.008 3 3 0 0 0-.936-.684 2.6 2.6 0 0 0-1.152-.252 2.4 2.4 0 0 0-.792.144 3.2 3.2 0 0 0-.774.396q-.36.252-.63.594t-.378.72v2.466q.252.576.666 1.044.414.45.954.738.54.27 1.098.27m6.604 1.512v-9.396h1.98v6.75l4.77-6.768h1.8V349h-1.98v-6.606L658.402 349zm10.232-2.754q0-.9.504-1.566.522-.684 1.422-1.044.9-.378 2.088-.378.63 0 1.278.09.666.09 1.17.288v-.594q0-.99-.594-1.548t-1.71-.558q-.792 0-1.494.288-.702.27-1.494.774l-.666-1.332a7.6 7.6 0 0 1 1.872-.936 6.5 6.5 0 0 1 1.998-.306q1.89 0 2.97 1.008 1.098.99 1.098 2.826v3.51q0 .342.108.486.126.144.414.162V349a4.4 4.4 0 0 1-.846.09q-.63 0-.954-.306a1.18 1.18 0 0 1-.378-.72l-.054-.54q-.612.792-1.566 1.224a4.6 4.6 0 0 1-1.926.432q-.936 0-1.674-.378a3 3 0 0 1-1.152-1.062 2.77 2.77 0 0 1-.414-1.494m5.994.576q.216-.234.342-.468a.9.9 0 0 0 .126-.414v-1.08a5 5 0 0 0-1.062-.288 6 6 0 0 0-1.098-.108q-1.08 0-1.764.432-.666.432-.666 1.188 0 .414.216.792.234.378.648.612.432.234 1.062.234.648 0 1.242-.252t.954-.648m4.095 2.268v-1.764q.45 0 .81-.216.36-.234.63-.756.27-.54.432-1.494t.216-2.43l.126-2.844h6.714V349h-1.98v-7.668h-2.988l-.036 1.278q-.072 1.89-.342 3.15-.27 1.242-.756 1.98-.468.72-1.188 1.044-.702.306-1.638.306m11.302-.09v-9.414h1.98v3.096h2.25q1.674 0 2.538.846.882.846.882 2.232 0 .936-.378 1.674a2.7 2.7 0 0 1-1.116 1.152q-.72.414-1.8.414zm1.98-1.53h2.07q.594 0 .954-.216.36-.234.54-.612.18-.396.18-.846t-.162-.81a1.23 1.23 0 0 0-.54-.594q-.36-.234-.99-.234h-2.052zm7.284 1.53v-9.414h1.98v3.744h4.374v-3.744h1.98V349h-1.98v-3.96h-4.374V349zm10.039-2.754q0-.9.504-1.566.522-.684 1.422-1.044.9-.378 2.088-.378.63 0 1.278.09.666.09 1.17.288v-.594q0-.99-.594-1.548t-1.71-.558q-.792 0-1.494.288-.702.27-1.494.774l-.666-1.332a7.6 7.6 0 0 1 1.872-.936 6.5 6.5 0 0 1 1.998-.306q1.89 0 2.97 1.008 1.098.99 1.098 2.826v3.51q0 .342.108.486.126.144.414.162V349a4.4 4.4 0 0 1-.846.09q-.63 0-.954-.306a1.18 1.18 0 0 1-.378-.72l-.054-.54q-.612.792-1.566 1.224a4.6 4.6 0 0 1-1.926.432q-.936 0-1.674-.378a3 3 0 0 1-1.152-1.062 2.77 2.77 0 0 1-.414-1.494m5.994.576q.216-.234.342-.468a.9.9 0 0 0 .126-.414v-1.08a5 5 0 0 0-1.062-.288 6 6 0 0 0-1.098-.108q-1.08 0-1.764.432-.666.432-.666 1.188 0 .414.216.792.234.378.648.612.432.234 1.062.234.648 0 1.242-.252t.954-.648m4.256 2.178 2.52-3.726a2.44 2.44 0 0 1-1.404-.9q-.522-.684-.522-1.836 0-.882.396-1.548.414-.666 1.152-1.044t1.71-.378h4.14V349h-1.98v-3.402h-1.548L719.884 349zm4.05-4.842h1.962v-3.06H721.9q-.756 0-1.206.414-.432.414-.432 1.08t.378 1.116q.396.45 1.134.45M609.896 375v-9.414h6.012v1.746h-4.032V375zm7.506 0v-9.396h1.98v6.75l4.77-6.768h1.8V375h-1.98v-6.606L619.256 375zm10.916 0v-9.414h8.1V375h-1.98v-7.668h-4.14V375zm14.76.18q-1.098 0-1.998-.378a4.9 4.9 0 0 1-1.53-1.062 5.1 5.1 0 0 1-1.008-1.548 5.1 5.1 0 0 1-.342-1.872q0-1.332.612-2.43a4.7 4.7 0 0 1 1.71-1.782q1.098-.684 2.574-.684t2.538.684a4.63 4.63 0 0 1 1.674 1.764 4.9 4.9 0 0 1 .576 2.772q-.018.18-.036.306h-7.542q.054.828.45 1.458a3.1 3.1 0 0 0 1.044.972q.63.342 1.35.342.792 0 1.494-.396.72-.396.972-1.044l1.692.486q-.306.684-.936 1.242-.612.54-1.458.864a5.4 5.4 0 0 1-1.836.306m-2.826-5.544h5.688a2.8 2.8 0 0 0-.468-1.422 2.75 2.75 0 0 0-1.026-.972 2.65 2.65 0 0 0-1.368-.36q-.738 0-1.368.36a2.8 2.8 0 0 0-1.008.972 2.9 2.9 0 0 0-.45 1.422m14.611 5.544q-1.134 0-1.998-.54a4 4 0 0 1-1.368-1.404v5.598h-1.98v-13.248h1.746v1.692a4.1 4.1 0 0 1 1.404-1.35 3.75 3.75 0 0 1 1.926-.504q.972 0 1.782.396.81.378 1.404 1.062t.918 1.566q.342.864.342 1.836 0 1.35-.54 2.466a4.4 4.4 0 0 1-1.476 1.782q-.936.648-2.16.648m-.648-1.692q.63 0 1.134-.27.522-.27.882-.72.378-.45.576-1.026a3.63 3.63 0 0 0-.018-2.412 2.9 2.9 0 0 0-.63-1.008 3 3 0 0 0-.936-.684 2.6 2.6 0 0 0-1.152-.252 2.4 2.4 0 0 0-.792.144 3.2 3.2 0 0 0-.774.396q-.36.252-.63.594t-.378.72v2.466q.252.576.666 1.044.414.45.954.738.54.27 1.098.27m8.837 1.512v-7.668h-3.114v-1.746h8.226v1.746h-3.132V375zm10.858.18q-1.098 0-1.998-.378a4.9 4.9 0 0 1-1.53-1.062 5.1 5.1 0 0 1-1.008-1.548 5.1 5.1 0 0 1-.342-1.872q0-1.332.612-2.43a4.7 4.7 0 0 1 1.71-1.782q1.098-.684 2.574-.684t2.538.684a4.63 4.63 0 0 1 1.674 1.764 4.9 4.9 0 0 1 .576 2.772q-.018.18-.036.306h-7.542q.054.828.45 1.458a3.1 3.1 0 0 0 1.044.972q.63.342 1.35.342.792 0 1.494-.396.72-.396.972-1.044l1.692.486q-.306.684-.936 1.242-.612.54-1.458.864a5.4 5.4 0 0 1-1.836.306m-2.826-5.544h5.688a2.8 2.8 0 0 0-.468-1.422 2.75 2.75 0 0 0-1.026-.972 2.65 2.65 0 0 0-1.368-.36q-.738 0-1.368.36a2.8 2.8 0 0 0-1.008.972 2.9 2.9 0 0 0-.45 1.422m9.265 5.364v-9.414h1.98v3.744h4.374v-3.744h1.98V375h-1.98v-3.96h-4.374V375zm13.873.144q-1.44 0-2.43-.522a3.76 3.76 0 0 1-1.494-1.476l1.602-.72q.306.522.864.828.558.288 1.35.288.954 0 1.476-.396t.522-1.044q0-.594-.432-.954-.432-.378-1.224-.396h-.972v-1.26h1.008q.36 0 .63-.162t.414-.432q.162-.288.162-.648 0-.54-.414-.864-.396-.342-1.206-.342-.702 0-1.152.27-.45.252-.738.756l-1.494-.792a3.3 3.3 0 0 1 1.368-1.35q.9-.486 2.106-.486.954 0 1.692.306.756.288 1.17.864.432.558.432 1.386 0 .648-.306 1.224-.306.558-.954.828.864.252 1.296.882.45.612.45 1.458 0 .864-.486 1.494-.468.612-1.314.936t-1.926.324m5.551-.144v-9.396h1.98v6.75l4.77-6.768h1.8V375h-1.98v-6.606L701.627 375zm10.322 0 2.52-3.726a2.44 2.44 0 0 1-1.404-.9q-.522-.684-.522-1.836 0-.882.396-1.548.414-.666 1.152-1.044t1.71-.378h4.14V375h-1.98v-3.402h-1.548L712.255 375zm4.05-4.842h1.962v-3.06h-1.836q-.756 0-1.206.414-.432.414-.432 1.08t.378 1.116q.396.45 1.134.45M452.641 342.52q0-1.17.414-2.286a6.6 6.6 0 0 1 1.206-2.052 5.8 5.8 0 0 1 1.962-1.476q1.152-.558 2.61-.558 1.728 0 2.988.792 1.26.774 1.872 1.998L462.109 340q-.36-.774-.918-1.224-.54-.45-1.188-.63-.63-.18-1.242-.18-1.008 0-1.764.414a3.9 3.9 0 0 0-1.278 1.062 5 5 0 0 0-.774 1.494 5.7 5.7 0 0 0-.252 1.656 5.3 5.3 0 0 0 .306 1.782q.306.846.846 1.512.558.648 1.314 1.026a3.65 3.65 0 0 0 1.656.378q.612 0 1.278-.216a3.8 3.8 0 0 0 1.224-.666q.576-.468.9-1.224l1.674.954a4 4 0 0 1-1.242 1.62 5.9 5.9 0 0 1-1.872 1.008 6.4 6.4 0 0 1-2.034.342q-1.35 0-2.466-.558a6.4 6.4 0 0 1-1.926-1.512 7.3 7.3 0 0 1-1.26-2.124q-.45-1.188-.45-2.394m12.178 3.726q0-.9.504-1.566.522-.684 1.422-1.044.9-.378 2.088-.378.63 0 1.278.09.666.09 1.17.288v-.594q0-.99-.594-1.548t-1.71-.558q-.792 0-1.494.288-.702.27-1.494.774l-.666-1.332a7.6 7.6 0 0 1 1.872-.936 6.5 6.5 0 0 1 1.998-.306q1.89 0 2.97 1.008 1.098.99 1.098 2.826v3.51q0 .342.108.486.126.144.414.162V349a4.4 4.4 0 0 1-.846.09q-.63 0-.954-.306a1.18 1.18 0 0 1-.378-.72l-.054-.54q-.612.792-1.566 1.224a4.6 4.6 0 0 1-1.926.432q-.936 0-1.674-.378a3 3 0 0 1-1.152-1.062 2.77 2.77 0 0 1-.414-1.494m5.994.576q.216-.234.342-.468a.9.9 0 0 0 .126-.414v-1.08a5 5 0 0 0-1.062-.288 6 6 0 0 0-1.098-.108q-1.08 0-1.764.432-.666.432-.666 1.188 0 .414.216.792.234.378.648.612.432.234 1.062.234.648 0 1.242-.252t.954-.648m5.967-7.236 2.232 3.222.162.306.162-.306 2.214-3.222h2.142l-3.384 4.716 3.42 4.698h-2.142l-2.25-3.204-.162-.288-.162.288-2.25 3.204h-2.142l3.42-4.68-3.384-4.734zm7.498 6.66q0-.9.504-1.566.522-.684 1.422-1.044.9-.378 2.088-.378.63 0 1.278.09.666.09 1.17.288v-.594q0-.99-.594-1.548t-1.71-.558q-.792 0-1.494.288-.702.27-1.494.774l-.666-1.332a7.6 7.6 0 0 1 1.872-.936 6.5 6.5 0 0 1 1.998-.306q1.89 0 2.97 1.008 1.098.99 1.098 2.826v3.51q0 .342.108.486.126.144.414.162V349a4.4 4.4 0 0 1-.846.09q-.63 0-.954-.306a1.18 1.18 0 0 1-.378-.72l-.054-.54q-.612.792-1.566 1.224a4.6 4.6 0 0 1-1.926.432q-.936 0-1.674-.378a3 3 0 0 1-1.152-1.062 2.77 2.77 0 0 1-.414-1.494m5.994.576q.216-.234.342-.468a.9.9 0 0 0 .126-.414v-1.08a5 5 0 0 0-1.062-.288 6 6 0 0 0-1.098-.108q-1.08 0-1.764.432-.666.432-.666 1.188 0 .414.216.792.234.378.648.612.432.234 1.062.234.648 0 1.242-.252t.954-.648m10.197 2.358q-1.134 0-1.998-.54a4 4 0 0 1-1.368-1.404v5.598h-1.98v-13.248h1.746v1.692a4.1 4.1 0 0 1 1.404-1.35 3.75 3.75 0 0 1 1.926-.504q.972 0 1.782.396.81.378 1.404 1.062t.918 1.566q.342.864.342 1.836 0 1.35-.54 2.466a4.4 4.4 0 0 1-1.476 1.782q-.936.648-2.16.648m-.648-1.692q.63 0 1.134-.27.522-.27.882-.72.378-.45.576-1.026a3.63 3.63 0 0 0-.018-2.412 2.9 2.9 0 0 0-.63-1.008 3 3 0 0 0-.936-.684 2.6 2.6 0 0 0-1.152-.252 2.4 2.4 0 0 0-.792.144 3.2 3.2 0 0 0-.774.396q-.36.252-.63.594t-.378.72v2.466q.252.576.666 1.044.414.45.954.738.54.27 1.098.27m6.604 1.512v-9.414h1.98v3.744h4.374v-3.744h1.98V349h-1.98v-3.96h-4.374V349zm10.723 0v-9.414h1.98v3.096h1.782q1.674 0 2.556.846t.882 2.232q0 .936-.378 1.674a2.7 2.7 0 0 1-1.116 1.152q-.72.414-1.8.414zm1.98-1.53h1.62q.594 0 .954-.216.36-.234.522-.612.18-.396.18-.846t-.162-.81a1.23 1.23 0 0 0-.54-.594q-.36-.234-.972-.234h-1.602zm6.768 1.53v-9.396h1.98V349zm4.365 0v-9.396h1.98v6.75l4.77-6.768h1.8V349h-1.98v-6.606L532.115 349zm4.284-10.386q-1.332 0-2.07-.666-.72-.666-.72-1.674h1.296q0 .522.342.864.36.342 1.152.342.774 0 1.098-.324.342-.324.414-.882h1.296a2.16 2.16 0 0 1-.738 1.674q-.72.666-2.07.666m-99.657 38.636v-3.996h.216q.378 0 .702-.216t.576-.738q.252-.54.414-1.476.162-.954.198-2.394l.108-2.844h6.714v7.668h1.296v3.996h-1.746V375h-6.75v2.25zm2.826-3.996h4.122v-5.958h-2.988l-.054 1.314a21 21 0 0 1-.198 2.304q-.126.936-.36 1.494-.216.558-.522.846m9.078 1.746v-9.396h1.98v6.75l4.77-6.768h1.8V375h-1.98v-6.606L448.646 375zm10.232-2.754q0-.9.504-1.566.522-.684 1.422-1.044.9-.378 2.088-.378.63 0 1.278.09.666.09 1.17.288v-.594q0-.99-.594-1.548t-1.71-.558q-.792 0-1.494.288-.702.27-1.494.774l-.666-1.332a7.6 7.6 0 0 1 1.872-.936 6.5 6.5 0 0 1 1.998-.306q1.89 0 2.97 1.008 1.098.99 1.098 2.826v3.51q0 .342.108.486.126.144.414.162V375a4.4 4.4 0 0 1-.846.09q-.63 0-.954-.306a1.18 1.18 0 0 1-.378-.72l-.054-.54q-.612.792-1.566 1.224a4.6 4.6 0 0 1-1.926.432q-.936 0-1.674-.378a3 3 0 0 1-1.152-1.062 2.77 2.77 0 0 1-.414-1.494m5.994.576q.216-.234.342-.468a.9.9 0 0 0 .126-.414v-1.08a5 5 0 0 0-1.062-.288 6 6 0 0 0-1.098-.108q-1.08 0-1.764.432-.666.432-.666 1.188 0 .414.216.792.234.378.648.612.432.234 1.062.234.648 0 1.242-.252t.954-.648m9.404 2.358q-2.358 0-3.582-1.422t-1.224-4.068q0-1.728.288-2.916.306-1.206.882-1.98a4.8 4.8 0 0 1 1.458-1.26 8.5 8.5 0 0 1 2.034-.81l4.014-1.116.072 1.656-3.942 1.116q-.936.288-1.602.756-.648.468-1.026 1.224-.378.738-.504 1.872a3.6 3.6 0 0 1 1.44-1.44q.936-.522 2.214-.522 1.314 0 2.268.558a3.73 3.73 0 0 1 1.476 1.512q.522.972.522 2.232 0 1.368-.558 2.412-.54 1.026-1.62 1.62-1.062.576-2.61.576m0-1.692q1.314 0 2.034-.774.738-.774.738-2.052 0-1.224-.738-1.998-.72-.792-2.034-.792-.774 0-1.404.342-.63.324-.99.954-.36.612-.36 1.494 0 .828.324 1.476.324.63.936.99t1.494.36m10.839 1.692q-1.098 0-1.998-.378a4.9 4.9 0 0 1-1.53-1.062 5.1 5.1 0 0 1-1.008-1.548 5.1 5.1 0 0 1-.342-1.872q0-1.332.612-2.43a4.7 4.7 0 0 1 1.71-1.782q1.098-.684 2.574-.684t2.538.684a4.63 4.63 0 0 1 1.674 1.764 4.9 4.9 0 0 1 .576 2.772q-.018.18-.036.306h-7.542q.054.828.45 1.458a3.1 3.1 0 0 0 1.044.972q.63.342 1.35.342.792 0 1.494-.396.72-.396.972-1.044l1.692.486q-.306.684-.936 1.242-.612.54-1.458.864a5.4 5.4 0 0 1-1.836.306m-2.826-5.544h5.688a2.8 2.8 0 0 0-.468-1.422 2.75 2.75 0 0 0-1.026-.972 2.65 2.65 0 0 0-1.368-.36q-.738 0-1.368.36a2.8 2.8 0 0 0-1.008.972 2.9 2.9 0 0 0-.45 1.422M491.932 375v-7.668h-3.114v-1.746h8.226v1.746h-3.132V375zm10.643 0q0-1.098.162-1.926t.504-1.494.864-1.17 1.206-.918q.666-.396 1.368-.738.72-.342 1.332-.72t.972-.882q.378-.522.378-1.26a2.1 2.1 0 0 0-.252-1.044 1.63 1.63 0 0 0-.72-.702q-.468-.27-1.206-.27-.756 0-1.404.27-.63.252-1.116.63a5 5 0 0 0-.756.738l-1.26-1.314q.18-.216.576-.576a7.3 7.3 0 0 1 1.008-.72q.612-.36 1.404-.594a5.9 5.9 0 0 1 1.782-.252q1.368 0 2.286.504.936.486 1.404 1.35.486.846.486 1.908 0 .864-.306 1.512-.306.63-.81 1.098-.486.45-1.098.81-.594.36-1.188.684a18 18 0 0 0-1.656.936 6 6 0 0 0-.972.792q-.342.378-.486.756a3.5 3.5 0 0 0-.198.81h6.732V375zm17.851 0v-7.668h-3.114v-1.746h8.226v1.746h-3.132V375zm6.592 0v-9.396h1.98v6.75l4.77-6.768h1.8V375h-1.98v-6.606L528.872 375zm10.916 0v-9.414h8.1V375h-1.98v-7.668h-4.14V375zm9.81-2.754q0-.9.504-1.566.522-.684 1.422-1.044.9-.378 2.088-.378.63 0 1.278.09.666.09 1.17.288v-.594q0-.99-.594-1.548t-1.71-.558q-.792 0-1.494.288-.702.27-1.494.774l-.666-1.332a7.6 7.6 0 0 1 1.872-.936 6.5 6.5 0 0 1 1.998-.306q1.89 0 2.97 1.008 1.098.99 1.098 2.826v3.51q0 .342.108.486.126.144.414.162V375a4.4 4.4 0 0 1-.846.09q-.63 0-.954-.306a1.18 1.18 0 0 1-.378-.72l-.054-.54q-.612.792-1.566 1.224a4.6 4.6 0 0 1-1.926.432q-.936 0-1.674-.378a3 3 0 0 1-1.152-1.062 2.77 2.77 0 0 1-.414-1.494m5.994.576q.216-.234.342-.468a.9.9 0 0 0 .126-.414v-1.08a5 5 0 0 0-1.062-.288 6 6 0 0 0-1.098-.108q-1.08 0-1.764.432-.666.432-.666 1.188 0 .414.216.792.234.378.648.612.432.234 1.062.234.648 0 1.242-.252t.954-.648m-265.86-23.732q-1.386 0-2.502-.54a6.1 6.1 0 0 1-1.926-1.458 7.1 7.1 0 0 1-1.26-2.088 6.9 6.9 0 0 1-.432-2.394q0-1.278.468-2.43.468-1.17 1.296-2.07a6 6 0 0 1 1.944-1.44 5.6 5.6 0 0 1 2.448-.54q1.368 0 2.484.558 1.134.558 1.926 1.494.81.936 1.242 2.088.45 1.152.45 2.358 0 1.278-.468 2.448a6.7 6.7 0 0 1-1.278 2.07 6.1 6.1 0 0 1-1.962 1.422 5.7 5.7 0 0 1-2.43.522m-4.068-6.48q0 .9.288 1.746t.81 1.512q.54.648 1.296 1.026a3.7 3.7 0 0 0 1.692.378q.972 0 1.728-.396a3.7 3.7 0 0 0 1.26-1.062q.522-.684.792-1.512.27-.846.27-1.692 0-.9-.288-1.728a4.4 4.4 0 0 0-.81-1.494 3.9 3.9 0 0 0-1.296-1.044 3.6 3.6 0 0 0-1.656-.378q-.972 0-1.728.396a3.9 3.9 0 0 0-1.278 1.062 5.1 5.1 0 0 0-.81 1.494 5.4 5.4 0 0 0-.27 1.692m11.375 6.39 3.384-4.86-3.114-4.554h2.214l2.556 3.744h.882v-3.744h2.034v3.744h.918l2.52-3.744h2.214l-3.114 4.554 3.402 4.86h-2.25l-2.772-3.942h-.918V349h-2.034v-3.942h-.882l-2.79 3.942zm15.607 0v-9.396h1.98v6.75l4.77-6.768h1.8V349h-1.98v-6.606L312.646 349zm16.263.18q-1.134 0-1.998-.54a4 4 0 0 1-1.368-1.404v5.598h-1.98v-13.248h1.746v1.692a4.1 4.1 0 0 1 1.404-1.35 3.75 3.75 0 0 1 1.926-.504q.972 0 1.782.396.81.378 1.404 1.062t.918 1.566q.342.864.342 1.836 0 1.35-.54 2.466a4.4 4.4 0 0 1-1.476 1.782q-.936.648-2.16.648m-.648-1.692q.63 0 1.134-.27.522-.27.882-.72.378-.45.576-1.026a3.63 3.63 0 0 0-.018-2.412 2.9 2.9 0 0 0-.63-1.008 3 3 0 0 0-.936-.684 2.6 2.6 0 0 0-1.152-.252 2.4 2.4 0 0 0-.792.144 3.2 3.2 0 0 0-.774.396q-.36.252-.63.594t-.378.72v2.466q.252.576.666 1.044.414.45.954.738.54.27 1.098.27m10.87 1.692q-1.098 0-1.998-.378a4.9 4.9 0 0 1-1.53-1.062 5.1 5.1 0 0 1-1.008-1.548 5.1 5.1 0 0 1-.342-1.872q0-1.332.612-2.43a4.7 4.7 0 0 1 1.71-1.782q1.098-.684 2.574-.684t2.538.684a4.63 4.63 0 0 1 1.674 1.764 4.9 4.9 0 0 1 .576 2.772q-.018.18-.036.306h-7.542q.054.828.45 1.458a3.1 3.1 0 0 0 1.044.972q.63.342 1.35.342.792 0 1.494-.396.72-.396.972-1.044l1.692.486q-.306.684-.936 1.242-.612.54-1.458.864a5.4 5.4 0 0 1-1.836.306m-2.826-5.544h5.688a2.8 2.8 0 0 0-.468-1.422 2.75 2.75 0 0 0-1.026-.972 2.65 2.65 0 0 0-1.368-.36q-.738 0-1.368.36a2.8 2.8 0 0 0-1.008.972 2.9 2.9 0 0 0-.45 1.422m9.265 5.364v-9.414h1.98v3.744h4.374v-3.744h1.98V349h-1.98v-3.96h-4.374V349zm10.723 0v-9.396h1.98v6.75l4.77-6.768h1.8V349h-1.98v-6.606L356.293 349zm15.182.18q-1.098 0-1.998-.378a4.9 4.9 0 0 1-1.53-1.062 5.1 5.1 0 0 1-1.008-1.548 5.1 5.1 0 0 1-.342-1.872q0-1.332.612-2.43a4.7 4.7 0 0 1 1.71-1.782q1.098-.684 2.574-.684t2.538.684a4.63 4.63 0 0 1 1.674 1.764 4.9 4.9 0 0 1 .576 2.772q-.018.18-.036.306h-7.542q.054.828.45 1.458a3.1 3.1 0 0 0 1.044.972q.63.342 1.35.342.792 0 1.494-.396.72-.396.972-1.044l1.692.486q-.306.684-.936 1.242-.612.54-1.458.864a5.4 5.4 0 0 1-1.836.306m-2.826-5.544h5.688a2.8 2.8 0 0 0-.468-1.422 2.75 2.75 0 0 0-1.026-.972 2.65 2.65 0 0 0-1.368-.36q-.738 0-1.368.36a2.8 2.8 0 0 0-1.008.972 2.9 2.9 0 0 0-.45 1.422m-263.221-7.416 3.528 5.022 3.528-5.022h2.232l-4.608 6.48 4.464 6.3h-2.232l-3.384-4.842-3.384 4.842h-2.25l4.464-6.3-4.608-6.48zm15.815 12.96q-1.134 0-1.998-.54a4 4 0 0 1-1.368-1.404v5.598h-1.98v-13.248h1.746v1.692a4.1 4.1 0 0 1 1.404-1.35 3.75 3.75 0 0 1 1.926-.504q.972 0 1.782.396.81.378 1.404 1.062t.918 1.566q.342.864.342 1.836 0 1.35-.54 2.466a4.4 4.4 0 0 1-1.476 1.782q-.936.648-2.16.648m-.648-1.692q.63 0 1.134-.27.522-.27.882-.72.378-.45.576-1.026a3.63 3.63 0 0 0-.018-2.412 2.9 2.9 0 0 0-.63-1.008 3 3 0 0 0-.936-.684 2.6 2.6 0 0 0-1.152-.252 2.4 2.4 0 0 0-.792.144 3.2 3.2 0 0 0-.774.396q-.36.252-.63.594t-.378.72v2.466q.252.576.666 1.044.414.45.954.738.54.27 1.098.27m10.835 1.692q-1.116 0-1.998-.378a4.8 4.8 0 0 1-1.53-1.08 5 5 0 0 1-.972-1.548 5.1 5.1 0 0 1-.342-1.872q0-.99.342-1.872a4.7 4.7 0 0 1 .972-1.548q.648-.684 1.53-1.062.9-.396 1.998-.396t1.98.396q.9.378 1.53 1.062.648.666.99 1.548t.342 1.872-.342 1.872a4.8 4.8 0 0 1-.99 1.548q-.63.684-1.53 1.08-.882.378-1.98.378m-2.808-4.86q0 .9.378 1.62t1.008 1.134 1.422.414q.774 0 1.404-.414a3.1 3.1 0 0 0 1.026-1.152 3.5 3.5 0 0 0 .378-1.62q0-.9-.378-1.62a2.93 2.93 0 0 0-1.026-1.134 2.43 2.43 0 0 0-1.404-.432q-.792 0-1.422.432t-1.008 1.152q-.378.702-.378 1.62m9.406 4.68v-9.414h1.98v3.744h4.374v-3.744h1.98V349h-1.98v-3.96h-4.374V349zm10.723 0v-9.396h1.98v6.75l4.77-6.768h1.8V349h-1.98v-6.606L148.751 349zm16.208 0v-3.582a5.3 5.3 0 0 1-1.116.378 7 7 0 0 1-1.296.108q-1.512 0-2.34-.792-.81-.81-.81-2.394v-3.132h1.98v2.88q0 .99.414 1.458.414.45 1.332.45.504 0 1.008-.108t.828-.288v-4.392h1.998V349zm8.66.18q-1.098 0-1.998-.378a4.9 4.9 0 0 1-1.53-1.062 5.1 5.1 0 0 1-1.008-1.548 5.1 5.1 0 0 1-.342-1.872q0-1.332.612-2.43a4.7 4.7 0 0 1 1.71-1.782q1.098-.684 2.574-.684t2.538.684a4.63 4.63 0 0 1 1.674 1.764 4.9 4.9 0 0 1 .576 2.772q-.018.18-.036.306h-7.542q.054.828.45 1.458a3.1 3.1 0 0 0 1.044.972q.63.342 1.35.342.792 0 1.494-.396.72-.396.972-1.044l1.692.486q-.306.684-.936 1.242-.612.54-1.458.864a5.4 5.4 0 0 1-1.836.306m-2.826-5.544h5.688a2.8 2.8 0 0 0-.468-1.422 2.75 2.75 0 0 0-1.026-.972 2.65 2.65 0 0 0-1.368-.36q-.738 0-1.368.36a2.8 2.8 0 0 0-1.008.972 2.9 2.9 0 0 0-.45 1.422m13.531 5.544q-1.098 0-1.998-.378a4.8 4.8 0 0 1-1.53-1.08 5 5 0 0 1-1.008-1.566 5.1 5.1 0 0 1-.342-1.872q0-1.332.594-2.43a4.77 4.77 0 0 1 1.692-1.764q1.098-.666 2.592-.666 1.44 0 2.502.648 1.08.63 1.584 1.692l-1.926.612a2.26 2.26 0 0 0-.918-.918 2.46 2.46 0 0 0-1.278-.342 2.6 2.6 0 0 0-1.44.414q-.63.396-1.008 1.116-.36.702-.36 1.638 0 .9.378 1.638.378.72 1.008 1.152a2.6 2.6 0 0 0 1.44.414q.486 0 .936-.162.468-.18.81-.468.342-.306.486-.666l1.944.576q-.306.702-.918 1.242-.594.54-1.422.864-.81.306-1.818.306m5.788-.18v-9.414h1.962v3.726h.936l2.772-3.726h2.196l-3.438 4.554 3.834 4.86h-2.286l-3.096-3.906h-.918V349zm9.774 0v-9.396h1.98v6.75l4.77-6.768h1.8V349h-1.98v-6.606L199.886 349zm10.916 0v-9.396h1.98v6.75l4.77-6.768h1.8V349h-1.98v-6.606L210.802 349zm4.284-10.386q-1.332 0-2.07-.666-.72-.666-.72-1.674h1.296q0 .522.342.864.36.342 1.152.342.774 0 1.098-.324.342-.324.414-.882h1.296a2.16 2.16 0 0 1-.738 1.674q-.72.666-2.07.666M116.135 375v-9.414h8.1V375h-1.98v-7.668h-4.14V375zm15.84.18q-1.134 0-1.998-.54a4 4 0 0 1-1.368-1.404v5.598h-1.98v-13.248h1.746v1.692a4.1 4.1 0 0 1 1.404-1.35 3.75 3.75 0 0 1 1.926-.504q.972 0 1.782.396.81.378 1.404 1.062t.918 1.566q.342.864.342 1.836 0 1.35-.54 2.466a4.4 4.4 0 0 1-1.476 1.782q-.936.648-2.16.648m-.648-1.692q.63 0 1.134-.27.522-.27.882-.72.378-.45.576-1.026a3.63 3.63 0 0 0-.018-2.412 2.9 2.9 0 0 0-.63-1.008 3 3 0 0 0-.936-.684 2.6 2.6 0 0 0-1.152-.252 2.4 2.4 0 0 0-.792.144 3.2 3.2 0 0 0-.774.396q-.36.252-.63.594t-.378.72v2.466q.252.576.666 1.044.414.45.954.738.54.27 1.098.27m10.835 1.692q-1.116 0-1.998-.378a4.8 4.8 0 0 1-1.53-1.08 5 5 0 0 1-.972-1.548 5.1 5.1 0 0 1-.342-1.872q0-.99.342-1.872a4.7 4.7 0 0 1 .972-1.548q.648-.684 1.53-1.062.9-.396 1.998-.396t1.98.396q.9.378 1.53 1.062.648.666.99 1.548t.342 1.872-.342 1.872a4.8 4.8 0 0 1-.99 1.548q-.63.684-1.53 1.08-.882.378-1.98.378m-2.808-4.86q0 .9.378 1.62t1.008 1.134 1.422.414q.774 0 1.404-.414a3.1 3.1 0 0 0 1.026-1.152 3.5 3.5 0 0 0 .378-1.62q0-.9-.378-1.62a2.93 2.93 0 0 0-1.026-1.134 2.43 2.43 0 0 0-1.404-.432q-.792 0-1.422.432t-1.008 1.152q-.378.702-.378 1.62m13.672 4.86q-1.098 0-1.998-.378a4.8 4.8 0 0 1-1.53-1.08 5 5 0 0 1-1.008-1.566 5.1 5.1 0 0 1-.342-1.872q0-1.332.594-2.43a4.77 4.77 0 0 1 1.692-1.764q1.098-.666 2.592-.666 1.44 0 2.502.648 1.08.63 1.584 1.692l-1.926.612a2.26 2.26 0 0 0-.918-.918 2.46 2.46 0 0 0-1.278-.342 2.6 2.6 0 0 0-1.44.414q-.63.396-1.008 1.116-.36.702-.36 1.638 0 .9.378 1.638.378.72 1.008 1.152a2.6 2.6 0 0 0 1.44.414q.486 0 .936-.162.468-.18.81-.468.342-.306.486-.666l1.944.576q-.306.702-.918 1.242-.594.54-1.422.864-.81.306-1.818.306m8.021-.18v-7.668h-3.114v-1.746h8.226v1.746h-3.132V375zm5.891-2.754q0-.9.504-1.566.522-.684 1.422-1.044.9-.378 2.088-.378.63 0 1.278.09.666.09 1.17.288v-.594q0-.99-.594-1.548t-1.71-.558q-.792 0-1.494.288-.702.27-1.494.774l-.666-1.332a7.6 7.6 0 0 1 1.872-.936 6.5 6.5 0 0 1 1.998-.306q1.89 0 2.97 1.008 1.098.99 1.098 2.826v3.51q0 .342.108.486.126.144.414.162V375a4.4 4.4 0 0 1-.846.09q-.63 0-.954-.306a1.18 1.18 0 0 1-.378-.72l-.054-.54q-.612.792-1.566 1.224a4.6 4.6 0 0 1-1.926.432q-.936 0-1.674-.378a3 3 0 0 1-1.152-1.062 2.77 2.77 0 0 1-.414-1.494m5.994.576q.216-.234.342-.468a.9.9 0 0 0 .126-.414v-1.08a5 5 0 0 0-1.062-.288 6 6 0 0 0-1.098-.108q-1.08 0-1.764.432-.666.432-.666 1.188 0 .414.216.792.234.378.648.612.432.234 1.062.234.648 0 1.242-.252t.954-.648m6.976 2.178v-7.668h-3.114v-1.746h8.226v1.746h-3.132V375zm6.592 0v-9.396h1.981v6.75l4.77-6.768h1.8V375h-1.98v-6.606L188.355 375zm13.149 0v-7.668h-3.114v-1.746h8.226v1.746h-3.132V375zM135.657 50.22q-1.695 0-3.036-.748a5.4 5.4 0 0 1-2.046-2.09l1.452-1.386q.615.946 1.584 1.518.967.55 2.068.55.901 0 1.606-.374a2.9 2.9 0 0 0 1.1-1.078q.417-.682.418-1.584 0-.88-.396-1.54a2.6 2.6 0 0 0-1.056-1.056 3 3 0 0 0-1.496-.374q-.837 0-1.584.374-.726.374-1.166 1.056h-2.156l1.782-9.108h7.634v2.222h-5.874l-.792 4.246a2.9 2.9 0 0 1 1.012-.638 4.1 4.1 0 0 1 1.452-.242q1.473 0 2.618.638a4.7 4.7 0 0 1 1.826 1.76q.681 1.122.682 2.596 0 1.562-.748 2.75a5.36 5.36 0 0 1-2.024 1.848q-1.255.66-2.86.66m18.688-4.73q0 1.408-.77 2.464-.747 1.056-2.046 1.65-1.275.572-2.794.572-1.562 0-2.816-.616-1.254-.637-2.002-1.716t-.748-2.464q0-.924.418-1.65a4.7 4.7 0 0 1 1.034-1.276 5.2 5.2 0 0 1 1.254-.814 5 5 0 0 1-1.1-.726 4 4 0 0 1-.792-1.056 2.9 2.9 0 0 1-.286-1.276q0-1.012.44-1.782a4.2 4.2 0 0 1 1.21-1.32 5.3 5.3 0 0 1 1.628-.814 5.9 5.9 0 0 1 1.782-.286q.903 0 1.782.286a5.5 5.5 0 0 1 1.65.792q.77.528 1.21 1.32.462.77.462 1.782 0 .682-.308 1.298-.286.594-.814 1.056-.506.462-1.1.726.705.308 1.32.858.639.55 1.012 1.298.374.748.374 1.694m-2.442-.154a2.3 2.3 0 0 0-.286-1.144 2.35 2.35 0 0 0-.726-.836 3.3 3.3 0 0 0-1.012-.528 3.7 3.7 0 0 0-1.122-.176q-.813 0-1.518.33a2.9 2.9 0 0 0-1.144.946q-.44.594-.44 1.408 0 .616.264 1.122.264.484.704.836.462.352 1.012.528.573.176 1.144.176a3.5 3.5 0 0 0 1.496-.33q.726-.352 1.166-.946.462-.616.462-1.386m-5.764-6.666q0 .682.396 1.166.397.484 1.012.726.616.242 1.21.242.616 0 1.21-.242a2.6 2.6 0 0 0 1.012-.748q.418-.485.418-1.188a1.7 1.7 0 0 0-.374-1.1 2.27 2.27 0 0 0-.99-.726 3.1 3.1 0 0 0-1.276-.264q-.681 0-1.298.264a2.5 2.5 0 0 0-.968.748q-.352.462-.352 1.122m10.837 13.464.528-2.266h-.792v-2.684h2.178v2.684l-.77 2.266zm4.174-12.452q0-1.518.748-2.75a5.34 5.34 0 0 1 2.024-1.936q1.298-.726 2.882-.726 1.737 0 2.992.836 1.275.814 1.98 2.354.726 1.54.726 3.718 0 2.993-.748 4.994-.727 2.002-2.068 3.036-1.32 1.012-3.124 1.012a5.66 5.66 0 0 1-2.75-.682 5.5 5.5 0 0 1-2.024-1.958l1.43-1.496a3.9 3.9 0 0 0 1.408 1.452q.902.55 1.958.55 1.1 0 1.914-.616.813-.615 1.276-1.804.462-1.21.462-2.882-.309.638-.858 1.122a4 4 0 0 1-1.276.748q-.705.264-1.54.264a5.5 5.5 0 0 1-2.75-.704 5.4 5.4 0 0 1-1.958-1.892q-.704-1.188-.704-2.64m5.632-3.366q-.903 0-1.65.462a3.4 3.4 0 0 0-1.21 1.21 3.3 3.3 0 0 0-.44 1.672q0 .901.44 1.65.462.748 1.21 1.21a3.3 3.3 0 0 0 1.672.44q.902 0 1.65-.44a3.4 3.4 0 0 0 1.21-1.21 3.04 3.04 0 0 0 .462-1.628q0-.924-.462-1.672a3.54 3.54 0 0 0-1.232-1.232 3.1 3.1 0 0 0-1.65-.462m11.097 4.378a3.7 3.7 0 0 1-1.782-.44 3.6 3.6 0 0 1-1.276-1.166 3.1 3.1 0 0 1-.462-1.65q0-.924.462-1.65a3.55 3.55 0 0 1 1.276-1.188 3.7 3.7 0 0 1 1.782-.44 3.56 3.56 0 0 1 1.76.44q.792.44 1.254 1.188.462.726.462 1.628t-.462 1.65a3.37 3.37 0 0 1-1.254 1.188 3.56 3.56 0 0 1-1.76.44m-.022-1.254q.507 0 .902-.264.419-.285.638-.748.243-.462.242-.99 0-.572-.242-1.034a1.86 1.86 0 0 0-.66-.726 1.5 1.5 0 0 0-.858-.264q-.506 0-.924.286a1.93 1.93 0 0 0-.638.726 2.1 2.1 0 0 0-.242.99q0 .572.242 1.034.264.44.66.726.418.264.88.264m8.096 10.78a3.56 3.56 0 0 1-3.036-1.628 3.1 3.1 0 0 1-.462-1.65q0-.902.462-1.628a3.56 3.56 0 0 1 3.036-1.628q.99 0 1.782.44.792.418 1.254 1.166.462.749.462 1.65t-.462 1.65a3.37 3.37 0 0 1-1.254 1.188 3.6 3.6 0 0 1-1.782.44m0-1.254a1.5 1.5 0 0 0 .902-.286q.419-.286.638-.726.243-.462.242-.99 0-.572-.242-1.034a1.86 1.86 0 0 0-.66-.726 1.55 1.55 0 0 0-.88-.264q-.483 0-.902.286a1.93 1.93 0 0 0-.638.726 2.1 2.1 0 0 0-.242.99q0 .55.242 1.012.264.462.66.748.397.264.88.264m-10.604.154 6.182-7.326 5.808-7.546 1.144.99-6.072 7.238-5.94 7.656z"/><path fill="#38BCE2" d="M136 74a8 8 0 0 1 8-8h32a8 8 0 0 1 8 8v226h-48z" opacity="0.8"/><path fill="#fff" d="M301.24 76.22q-1.695 0-3.036-.748a5.4 5.4 0 0 1-2.046-2.09l1.452-1.386q.615.946 1.584 1.518.967.55 2.068.55.901 0 1.606-.374a2.9 2.9 0 0 0 1.1-1.078q.418-.683.418-1.584 0-.88-.396-1.54a2.6 2.6 0 0 0-1.056-1.056 3 3 0 0 0-1.496-.374q-.837 0-1.584.374-.726.374-1.166 1.056h-2.156l1.782-9.108h7.634v2.222h-5.874l-.792 4.246a2.9 2.9 0 0 1 1.012-.638 4.1 4.1 0 0 1 1.452-.242q1.473 0 2.618.638a4.7 4.7 0 0 1 1.826 1.76q.681 1.122.682 2.596 0 1.562-.748 2.75a5.36 5.36 0 0 1-2.024 1.848q-1.255.66-2.86.66m7.468-.22q0-1.343.198-2.354a7 7 0 0 1 .616-1.826 5.4 5.4 0 0 1 1.056-1.43q.639-.616 1.474-1.122.814-.484 1.672-.902.88-.418 1.628-.88.749-.462 1.188-1.078.462-.638.462-1.54 0-.726-.308-1.276a2 2 0 0 0-.88-.858q-.571-.33-1.474-.33-.924 0-1.716.33a5.6 5.6 0 0 0-1.364.77 6 6 0 0 0-.924.902l-1.54-1.606a8 8 0 0 1 .704-.704 9 9 0 0 1 1.232-.88 7.7 7.7 0 0 1 1.716-.726q.969-.308 2.178-.308 1.672 0 2.794.616 1.144.594 1.716 1.65.594 1.035.594 2.332 0 1.056-.374 1.848a4.5 4.5 0 0 1-.99 1.342 7.7 7.7 0 0 1-1.342.99q-.726.44-1.452.836-1.254.638-2.024 1.144-.747.506-1.188.968a3 3 0 0 0-.594.924 4.3 4.3 0 0 0-.242.99h8.228V76zm13.808 2.134.528-2.266h-.792v-2.684h2.178v2.684l-.77 2.266zM333.334 76v-3.784h-6.974V70.06l7.722-9.68h1.672v9.658h1.936v2.178h-1.936V76zm-4.51-5.962h4.774v-5.984zm19.472-3.344a3.7 3.7 0 0 1-1.782-.44 3.6 3.6 0 0 1-1.276-1.166 3.1 3.1 0 0 1-.462-1.65q0-.924.462-1.65a3.55 3.55 0 0 1 1.276-1.188 3.7 3.7 0 0 1 1.782-.44 3.56 3.56 0 0 1 1.76.44q.792.44 1.254 1.188.462.726.462 1.628t-.462 1.65a3.37 3.37 0 0 1-1.254 1.188 3.56 3.56 0 0 1-1.76.44m-.022-1.254q.506 0 .902-.264.419-.285.638-.748.242-.462.242-.99 0-.572-.242-1.034a1.86 1.86 0 0 0-.66-.726 1.5 1.5 0 0 0-.858-.264q-.506 0-.924.286a1.93 1.93 0 0 0-.638.726 2.1 2.1 0 0 0-.242.99q0 .572.242 1.034.264.44.66.726.418.264.88.264m8.096 10.78a3.56 3.56 0 0 1-3.036-1.628 3.1 3.1 0 0 1-.462-1.65q0-.902.462-1.628a3.56 3.56 0 0 1 3.036-1.628q.99 0 1.782.44.792.418 1.254 1.166.462.749.462 1.65t-.462 1.65a3.37 3.37 0 0 1-1.254 1.188 3.6 3.6 0 0 1-1.782.44m0-1.254a1.5 1.5 0 0 0 .902-.286q.419-.286.638-.726.242-.462.242-.99 0-.572-.242-1.034a1.86 1.86 0 0 0-.66-.726 1.55 1.55 0 0 0-.88-.264q-.483 0-.902.286a1.93 1.93 0 0 0-.638.726 2.1 2.1 0 0 0-.242.99q0 .55.242 1.012.264.462.66.748.397.264.88.264m-10.604.154 6.182-7.326 5.808-7.546 1.144.99-6.072 7.238-5.94 7.656z"/><path fill="#38BCE2" d="M304 100a8 8 0 0 1 8-8h32a8 8 0 0 1 8 8v200h-48z" opacity="0.7"/><path fill="#fff" d="M469.637 84.22q-1.694 0-3.036-.748a5.4 5.4 0 0 1-2.046-2.09l1.452-1.386q.617.946 1.584 1.518.969.55 2.068.55.903 0 1.606-.374.704-.396 1.1-1.078.418-.683.418-1.584 0-.88-.396-1.54a2.6 2.6 0 0 0-1.056-1.056 3 3 0 0 0-1.496-.374q-.836 0-1.584.374a3 3 0 0 0-1.166 1.056h-2.156l1.782-9.108h7.634v2.222h-5.874l-.792 4.246a2.9 2.9 0 0 1 1.012-.638 4.1 4.1 0 0 1 1.452-.242q1.475 0 2.618.638a4.7 4.7 0 0 1 1.826 1.76q.682 1.122.682 2.596 0 1.562-.748 2.75a5.35 5.35 0 0 1-2.024 1.848q-1.254.66-2.86.66m14.157 0q-1.65-.044-2.904-.77a6.6 6.6 0 0 1-2.09-1.892 9.4 9.4 0 0 1-1.276-2.552 9.3 9.3 0 0 1-.418-2.706q0-1.408.462-2.816a8.5 8.5 0 0 1 1.342-2.552 6.7 6.7 0 0 1 2.112-1.848q1.232-.704 2.772-.704 1.65 0 2.882.748a6.8 6.8 0 0 1 2.09 1.936q.836 1.188 1.254 2.574.44 1.386.44 2.662 0 1.43-.462 2.838a8.6 8.6 0 0 1-1.342 2.53 7.1 7.1 0 0 1-2.112 1.848q-1.21.683-2.75.704m-4.18-7.92a10.6 10.6 0 0 0 .286 2.024q.264.99.792 1.826a4.4 4.4 0 0 0 1.298 1.342q.77.506 1.804.506 1.077 0 1.848-.528.791-.55 1.298-1.408.505-.88.748-1.87.264-.99.264-1.892 0-1.012-.286-2.002a6.5 6.5 0 0 0-.792-1.848 4.4 4.4 0 0 0-1.298-1.342q-.771-.506-1.782-.506-1.078 0-1.87.55a4.14 4.14 0 0 0-1.298 1.408 7.3 7.3 0 0 0-.77 1.848 8 8 0 0 0-.242 1.892m13.427 9.834.528-2.266h-.792v-2.684h2.178v2.684l-.77 2.266zm10.905-1.914q-1.65-.044-2.904-.77a6.6 6.6 0 0 1-2.09-1.892 9.5 9.5 0 0 1-1.276-2.552 9.3 9.3 0 0 1-.418-2.706q0-1.408.462-2.816a8.5 8.5 0 0 1 1.342-2.552 6.7 6.7 0 0 1 2.112-1.848q1.232-.704 2.772-.704 1.65 0 2.882.748a6.8 6.8 0 0 1 2.09 1.936q.836 1.188 1.254 2.574.44 1.386.44 2.662 0 1.43-.462 2.838a8.6 8.6 0 0 1-1.342 2.53 7.1 7.1 0 0 1-2.112 1.848q-1.21.683-2.75.704m-4.18-7.92q.044 1.013.286 2.024.264.99.792 1.826a4.4 4.4 0 0 0 1.298 1.342q.77.506 1.804.506 1.078 0 1.848-.528a4.4 4.4 0 0 0 1.298-1.408q.506-.88.748-1.87.264-.99.264-1.892 0-1.012-.286-2.002a6.5 6.5 0 0 0-.792-1.848 4.4 4.4 0 0 0-1.298-1.342q-.77-.506-1.782-.506-1.078 0-1.87.55a4.14 4.14 0 0 0-1.298 1.408 7.4 7.4 0 0 0-.77 1.848 8 8 0 0 0-.242 1.892m16.133-1.606a3.7 3.7 0 0 1-1.782-.44 3.6 3.6 0 0 1-1.276-1.166 3.1 3.1 0 0 1-.462-1.65q0-.924.462-1.65a3.55 3.55 0 0 1 1.276-1.188 3.7 3.7 0 0 1 1.782-.44q.968 0 1.76.44t1.254 1.188q.462.726.462 1.628t-.462 1.65a3.37 3.37 0 0 1-1.254 1.188 3.56 3.56 0 0 1-1.76.44m-.022-1.254q.506 0 .902-.264.418-.285.638-.748.242-.462.242-.99 0-.572-.242-1.034a1.86 1.86 0 0 0-.66-.726 1.5 1.5 0 0 0-.858-.264q-.505 0-.924.286a1.9 1.9 0 0 0-.638.726 2.1 2.1 0 0 0-.242.99q0 .572.242 1.034.264.44.66.726.418.264.88.264m8.096 10.78a3.56 3.56 0 0 1-3.036-1.628 3.1 3.1 0 0 1-.462-1.65q0-.902.462-1.628a3.56 3.56 0 0 1 3.036-1.628q.99 0 1.782.44.792.418 1.254 1.166.462.749.462 1.65t-.462 1.65a3.37 3.37 0 0 1-1.254 1.188 3.6 3.6 0 0 1-1.782.44m0-1.254q.506 0 .902-.286.418-.286.638-.726.242-.462.242-.99 0-.572-.242-1.034a1.86 1.86 0 0 0-.66-.726 1.55 1.55 0 0 0-.88-.264q-.484 0-.902.286a1.9 1.9 0 0 0-.638.726 2.1 2.1 0 0 0-.242.99q0 .55.242 1.012.264.462.66.748.396.264.88.264m-10.604.154 6.182-7.326 5.808-7.546 1.144.99-6.072 7.238-5.94 7.656z"/><path fill="#38BCE2" d="M472 108a8 8 0 0 1 8-8h32a8 8 0 0 1 8 8v192h-48z" opacity="0.6"/><path fill="#fff" d="M641.436 118v-3.784h-6.974v-2.156l7.722-9.68h1.672v9.658h1.936v2.178h-1.936V118zm-4.51-5.962h4.774v-5.984zM647.619 118q0-1.342.198-2.354a7 7 0 0 1 .616-1.826 5.4 5.4 0 0 1 1.056-1.43 8.3 8.3 0 0 1 1.474-1.122q.814-.484 1.672-.902a17 17 0 0 0 1.628-.88q.749-.462 1.188-1.078.462-.638.462-1.54 0-.726-.308-1.276a2 2 0 0 0-.88-.858q-.571-.33-1.474-.33-.924 0-1.716.33a5.6 5.6 0 0 0-1.364.77 6 6 0 0 0-.924.902l-1.54-1.606a8 8 0 0 1 .704-.704 9 9 0 0 1 1.232-.88 7.7 7.7 0 0 1 1.716-.726q.969-.308 2.178-.308 1.672 0 2.794.616 1.144.594 1.716 1.65.594 1.034.594 2.332 0 1.056-.374 1.848a4.5 4.5 0 0 1-.99 1.342 7.7 7.7 0 0 1-1.342.99q-.726.44-1.452.836-1.254.638-2.024 1.144-.747.506-1.188.968a3 3 0 0 0-.594.924 4.3 4.3 0 0 0-.242.99h8.228V118zm13.808 2.134.528-2.266h-.792v-2.684h2.178v2.684l-.77 2.266zM672.245 118v-3.784h-6.974v-2.156l7.722-9.68h1.672v9.658h1.936v2.178h-1.936V118zm-4.51-5.962h4.774v-5.984zm14.037-3.344a3.7 3.7 0 0 1-1.782-.44 3.6 3.6 0 0 1-1.276-1.166 3.1 3.1 0 0 1-.462-1.65q0-.924.462-1.65a3.54 3.54 0 0 1 1.276-1.188 3.7 3.7 0 0 1 1.782-.44q.968 0 1.76.44t1.254 1.188a2.97 2.97 0 0 1 .462 1.628 3.1 3.1 0 0 1-.462 1.65 3.36 3.36 0 0 1-1.254 1.188 3.57 3.57 0 0 1-1.76.44m-.022-1.254q.506 0 .902-.264a1.86 1.86 0 0 0 .638-.748q.242-.462.242-.99a2.2 2.2 0 0 0-.242-1.034 1.86 1.86 0 0 0-.66-.726 1.5 1.5 0 0 0-.858-.264 1.6 1.6 0 0 0-.924.286 1.9 1.9 0 0 0-.638.726 2.1 2.1 0 0 0-.242.99q0 .572.242 1.034.264.44.66.726.418.264.88.264m8.096 10.78a3.57 3.57 0 0 1-3.036-1.628 3.1 3.1 0 0 1-.462-1.65q0-.902.462-1.628a3.57 3.57 0 0 1 3.036-1.628q.99 0 1.782.44.792.418 1.254 1.166a3.1 3.1 0 0 1 .462 1.65 3.1 3.1 0 0 1-.462 1.65 3.36 3.36 0 0 1-1.254 1.188 3.6 3.6 0 0 1-1.782.44m0-1.254a1.5 1.5 0 0 0 .902-.286q.418-.287.638-.726.242-.462.242-.99a2.2 2.2 0 0 0-.242-1.034 1.86 1.86 0 0 0-.66-.726 1.55 1.55 0 0 0-.88-.264q-.484 0-.902.286a1.9 1.9 0 0 0-.638.726 2.1 2.1 0 0 0-.242.99q0 .55.242 1.012.264.462.66.748.396.264.88.264m-10.604.154 6.182-7.326 5.808-7.546 1.144.99-6.072 7.238-5.94 7.656z"/><path fill="#38BCE2" d="M640 142a8 8 0 0 1 8-8h32a8 8 0 0 1 8 8v158h-48z" opacity="0.5"/><path fill="#fff" d="M808.373 124v-3.784h-6.974v-2.156l7.722-9.68h1.672v9.658h1.936v2.178h-1.936V124zm-4.51-5.962h4.774v-5.984zm17.381 6.182q-1.65-.044-2.904-.77a6.6 6.6 0 0 1-2.09-1.892 9.5 9.5 0 0 1-1.276-2.552 9.3 9.3 0 0 1-.418-2.706q0-1.408.462-2.816a8.5 8.5 0 0 1 1.342-2.552 6.7 6.7 0 0 1 2.112-1.848q1.231-.704 2.772-.704 1.65 0 2.882.748a6.8 6.8 0 0 1 2.09 1.936q.836 1.188 1.254 2.574.44 1.386.44 2.662 0 1.43-.462 2.838a8.6 8.6 0 0 1-1.342 2.53 7.1 7.1 0 0 1-2.112 1.848q-1.21.682-2.75.704m-4.18-7.92q.044 1.012.286 2.024.264.99.792 1.826a4.4 4.4 0 0 0 1.298 1.342q.77.506 1.804.506 1.078 0 1.848-.528a4.4 4.4 0 0 0 1.298-1.408q.506-.88.748-1.87.264-.99.264-1.892 0-1.012-.286-2.002a6.5 6.5 0 0 0-.792-1.848 4.4 4.4 0 0 0-1.298-1.342q-.77-.506-1.782-.506-1.078 0-1.87.55a4.1 4.1 0 0 0-1.298 1.408 7.4 7.4 0 0 0-.77 1.848 8 8 0 0 0-.242 1.892m13.427 9.834.528-2.266h-.792v-2.684h2.178v2.684l-.77 2.266zM841.308 124v-3.784h-6.974v-2.156l7.722-9.68h1.672v9.658h1.936v2.178h-1.936V124zm-4.51-5.962h4.774v-5.984zm14.037-3.344a3.7 3.7 0 0 1-1.782-.44 3.6 3.6 0 0 1-1.276-1.166 3.1 3.1 0 0 1-.462-1.65q0-.924.462-1.65a3.54 3.54 0 0 1 1.276-1.188 3.7 3.7 0 0 1 1.782-.44q.968 0 1.76.44t1.254 1.188a2.97 2.97 0 0 1 .462 1.628 3.1 3.1 0 0 1-.462 1.65 3.36 3.36 0 0 1-1.254 1.188 3.56 3.56 0 0 1-1.76.44m-.022-1.254q.506 0 .902-.264.419-.286.638-.748.243-.462.242-.99 0-.572-.242-1.034a1.86 1.86 0 0 0-.66-.726 1.5 1.5 0 0 0-.858-.264 1.6 1.6 0 0 0-.924.286 1.93 1.93 0 0 0-.638.726 2.1 2.1 0 0 0-.242.99q0 .572.242 1.034.264.44.66.726.418.264.88.264m8.096 10.78a3.57 3.57 0 0 1-3.036-1.628 3.1 3.1 0 0 1-.462-1.65q0-.902.462-1.628a3.57 3.57 0 0 1 3.036-1.628q.99 0 1.782.44.792.418 1.254 1.166a3.1 3.1 0 0 1 .462 1.65 3.1 3.1 0 0 1-.462 1.65 3.36 3.36 0 0 1-1.254 1.188 3.6 3.6 0 0 1-1.782.44m0-1.254q.506 0 .902-.286.419-.287.638-.726.243-.462.242-.99 0-.572-.242-1.034a1.86 1.86 0 0 0-.66-.726 1.55 1.55 0 0 0-.88-.264q-.483 0-.902.286a1.93 1.93 0 0 0-.638.726 2.1 2.1 0 0 0-.242.99q0 .55.242 1.012.264.462.66.748.396.264.88.264m-10.604.154 6.182-7.326 5.808-7.546 1.144.99-6.072 7.238-5.94 7.656z"/><path fill="#38BCE2" d="M808 148a8 8 0 0 1 8-8h32a8 8 0 0 1 8 8v152h-48z" opacity="0.4"/><path fill="#fff" d="M975.049 143.176q-1.298 0-2.376-.374a4.8 4.8 0 0 1-1.782-1.078 4.2 4.2 0 0 1-1.056-1.628l1.32-1.584q.154.572.638 1.144.506.571 1.298.924.814.352 1.892.352.946 0 1.672-.286.748-.308 1.188-.858t.44-1.298q0-.836-.528-1.408t-1.518-.858-2.376-.286h-.748v-1.936h.748q1.826 0 2.904-.594 1.1-.594 1.1-1.76 0-.726-.396-1.254a2.36 2.36 0 0 0-1.034-.814 3.4 3.4 0 0 0-1.408-.286q-1.254 0-2.178.572t-1.342 1.408l-1.584-1.738a4.2 4.2 0 0 1 1.276-1.254 6.7 6.7 0 0 1 1.826-.814 7.8 7.8 0 0 1 2.09-.286q1.54 0 2.75.55t1.892 1.518q.682.946.682 2.156 0 .88-.374 1.584a3.2 3.2 0 0 1-1.034 1.188q-.66.462-1.584.682.99.176 1.738.748a3.7 3.7 0 0 1 1.166 1.408 4 4 0 0 1 .418 1.826q0 1.364-.792 2.332-.77.968-2.068 1.496-1.298.506-2.86.506m12.671.044q-1.694 0-3.036-.748a5.4 5.4 0 0 1-2.046-2.09l1.452-1.386a4.75 4.75 0 0 0 1.584 1.518q.969.55 2.068.55.903 0 1.606-.374a2.87 2.87 0 0 0 1.1-1.078q.418-.683.418-1.584 0-.88-.396-1.54a2.6 2.6 0 0 0-1.056-1.056 3 3 0 0 0-1.496-.374q-.836 0-1.584.374a3 3 0 0 0-1.166 1.056h-2.156l1.782-9.108h7.634v2.222h-5.874l-.792 4.246a2.9 2.9 0 0 1 1.012-.638q.639-.242 1.452-.242 1.475 0 2.618.638a4.7 4.7 0 0 1 1.826 1.76q.682 1.122.682 2.596 0 1.562-.748 2.75a5.35 5.35 0 0 1-2.024 1.848q-1.254.66-2.86.66m8.107 1.914.528-2.266h-.792v-2.684h2.178v2.684l-.77 2.266zm10.903-1.914c-1.1-.029-2.07-.286-2.9-.77a6.6 6.6 0 0 1-2.09-1.892 9.6 9.6 0 0 1-1.28-2.552 9.3 9.3 0 0 1-.42-2.706c0-.939.16-1.877.47-2.816.3-.939.75-1.789 1.34-2.552a6.6 6.6 0 0 1 2.11-1.848c.82-.469 1.75-.704 2.77-.704q1.65 0 2.88.748a6.6 6.6 0 0 1 2.09 1.936q.84 1.188 1.26 2.574c.29.924.44 1.811.44 2.662a9.3 9.3 0 0 1-.46 2.838 8.6 8.6 0 0 1-1.35 2.53 7 7 0 0 1-2.11 1.848c-.8.455-1.72.689-2.75.704m-4.18-7.92c.03.675.13 1.349.29 2.024.17.66.44 1.269.79 1.826a4.3 4.3 0 0 0 1.3 1.342q.765.506 1.8.506c.72 0 1.34-.176 1.85-.528.53-.367.96-.836 1.3-1.408.34-.587.58-1.21.75-1.87s.26-1.291.26-1.892c0-.675-.1-1.342-.29-2.002a6.4 6.4 0 0 0-.79-1.848 4.3 4.3 0 0 0-1.3-1.342c-.51-.337-1.1-.506-1.78-.506-.72 0-1.34.183-1.87.55-.53.352-.96.821-1.3 1.408a7.8 7.8 0 0 0-.77 1.848q-.24.99-.24 1.892m16.14-1.606a3.7 3.7 0 0 1-1.79-.44 3.64 3.64 0 0 1-1.27-1.166 3.06 3.06 0 0 1-.46-1.65c0-.616.15-1.166.46-1.65.32-.499.75-.895 1.27-1.188a3.7 3.7 0 0 1 1.79-.44c.64 0 1.23.147 1.76.44.52.293.94.689 1.25 1.188.31.484.46 1.027.46 1.628s-.15 1.151-.46 1.65-.73.895-1.25 1.188c-.53.293-1.12.44-1.76.44m-.03-1.254c.34 0 .64-.088.91-.264.27-.191.49-.44.63-.748.16-.308.25-.638.25-.99 0-.381-.09-.726-.25-1.034a1.84 1.84 0 0 0-.66-.726 1.5 1.5 0 0 0-.85-.264q-.51 0-.93.286c-.26.176-.48.418-.64.726q-.24.462-.24.99 0 .572.24 1.034.27.44.66.726c.28.176.58.264.88.264m8.1 10.78c-.65 0-1.23-.147-1.76-.44a3.6 3.6 0 0 1-1.28-1.188 3.15 3.15 0 0 1-.46-1.65c0-.601.16-1.144.46-1.628.33-.499.75-.895 1.28-1.188s1.11-.44 1.76-.44c.66 0 1.25.147 1.78.44q.795.418 1.26 1.166c.3.499.46 1.049.46 1.65a3.15 3.15 0 0 1-.46 1.65 3.4 3.4 0 0 1-1.26 1.188c-.53.293-1.12.44-1.78.44m0-1.254q.51 0 .9-.286c.28-.191.49-.433.64-.726q.24-.462.24-.99 0-.572-.24-1.034a1.84 1.84 0 0 0-.66-.726 1.55 1.55 0 0 0-.88-.264q-.48 0-.9.286a1.87 1.87 0 0 0-.64.726q-.24.462-.24.99 0 .55.24 1.012.27.462.66.748c.26.176.56.264.88.264m-10.6.154 6.18-7.326 5.81-7.546 1.14.99-6.07 7.238-5.94 7.656z"/><path fill="#38BCE2" d="M976 167a8 8 0 0 1 8-8h32a8 8 0 0 1 8 8v133h-48z" opacity="0.3"/><path stroke="#fff" d="M0 59.5h16m-16 40h16m-16 40h16m-16 40h16m-16 40h16m-16 40h16m-16 40h1140" opacity="0.4"/><path fill="#fff" d="M3.528 11.386q-.792 0-1.458-.36a2.96 2.96 0 0 1-1.044-.954 2.5 2.5 0 0 1-.378-1.35q0-.756.378-1.35A2.9 2.9 0 0 1 2.07 6.4q.666-.36 1.458-.36t1.44.36 1.026.972q.378.594.378 1.332t-.378 1.35a2.76 2.76 0 0 1-1.026.972q-.648.36-1.44.36M3.51 10.36a1.3 1.3 0 0 0 .738-.216 1.5 1.5 0 0 0 .522-.612 1.7 1.7 0 0 0 .198-.81q0-.468-.198-.846a1.5 1.5 0 0 0-.54-.594 1.24 1.24 0 0 0-.702-.216 1.3 1.3 0 0 0-.756.234q-.324.216-.522.594a1.7 1.7 0 0 0-.198.81q0 .468.198.846.216.36.54.594.342.216.72.216m6.624 8.82a2.92 2.92 0 0 1-2.484-1.332 2.5 2.5 0 0 1-.378-1.35q0-.738.378-1.332a2.92 2.92 0 0 1 2.484-1.332q.81 0 1.458.36a2.6 2.6 0 0 1 1.026.954q.378.612.378 1.35t-.378 1.35a2.76 2.76 0 0 1-1.026.972 2.95 2.95 0 0 1-1.458.36m0-1.026q.414 0 .738-.234.342-.234.522-.594a1.7 1.7 0 0 0 .198-.81q0-.468-.198-.846a1.5 1.5 0 0 0-.54-.594 1.27 1.27 0 0 0-.72-.216q-.396 0-.738.234-.324.216-.522.594a1.7 1.7 0 0 0-.198.81q0 .45.198.828.216.378.54.612.324.216.72.216m-8.676.126 5.058-5.994 4.752-6.174.936.81-4.968 5.922-4.86 6.264z" opacity="0.4"/></svg>