<svg xmlns="http://www.w3.org/2000/svg" width="791" height="222" fill="none" viewBox="0 0 791 222"><path stroke="#fff" d="M746.5 80v62m-35.551-62v62M675.4 80v62m-35.55-62v62m-35.549-62v62M568.75 80v62m-35.551-62v62M497.65 80v62M462.1 80v62m-35.549-62v62M391 80v62m-35.551-62v62M319.9 80v62m-35.55-62v62m-35.549-62v62M213.25 80v62m-35.551-62v62M142.15 80v62M106.6 80v62M71.05 80v62M35.5 80v62" opacity="0.4"/><g filter="url(#a)"><rect width="30" height="498" x="747" y="96" fill="#38BCE2" rx="8" transform="rotate(90 747 96)"/></g><g filter="url(#b)"><rect width="30" height="226" x="262" y="96" fill="#FF5441" rx="8" transform="rotate(90 262 96)"/></g><path fill="#fff" d="M29.39 19V9.586h1.98v3.744h4.373V9.586h1.98V19h-1.98v-3.96H31.37V19zm10.722 0V9.586h2.052l3.24 5.814 3.258-5.814h2.016V19h-1.89v-6.624l-2.772 4.95h-1.242l-2.79-4.95V19zm17.167.18q-1.116 0-1.998-.378a4.8 4.8 0 0 1-1.53-1.08 5 5 0 0 1-.972-1.548 5.1 5.1 0 0 1-.342-1.872q0-.99.342-1.872a4.7 4.7 0 0 1 .972-1.548q.648-.684 1.53-1.062.9-.396 1.998-.396t1.98.396q.9.378 1.53 1.062.648.666.99 1.548t.342 1.872-.342 1.872a4.8 4.8 0 0 1-.99 1.548q-.63.684-1.53 1.08-.882.378-1.98.378m-2.808-4.86q0 .9.378 1.62t1.008 1.134 1.422.414q.774 0 1.404-.414a3.1 3.1 0 0 0 1.026-1.152 3.5 3.5 0 0 0 .378-1.62q0-.9-.378-1.62a2.93 2.93 0 0 0-1.026-1.134 2.43 2.43 0 0 0-1.404-.432q-.792 0-1.422.432T54.85 12.7q-.378.702-.378 1.62m8.65 4.77v-1.764q.45 0 .81-.216.36-.234.63-.756.27-.54.432-1.494.163-.954.217-2.43l.126-2.844h6.713V19h-1.98v-7.668h-2.987l-.036 1.278q-.073 1.89-.343 3.15-.27 1.242-.755 1.98-.468.72-1.188 1.044-.703.306-1.639.306M74.425 19V9.586h1.98v3.096h2.25q1.674 0 2.538.846.882.846.882 2.232 0 .936-.378 1.674a2.7 2.7 0 0 1-1.116 1.152q-.72.414-1.8.414zm1.98-1.53h2.07q.594 0 .954-.216.36-.234.54-.612.18-.396.18-.846t-.162-.81a1.23 1.23 0 0 0-.54-.594q-.36-.234-.99-.234h-2.052zM93.948 6.22 85.182 19h-2.196l8.766-12.78zm.937 12.87v-1.764q.45 0 .81-.216.36-.234.63-.756.27-.54.432-1.494t.216-2.43l.126-2.844h6.714V19h-1.98v-7.668h-2.988l-.036 1.278q-.072 1.89-.342 3.15-.27 1.242-.756 1.98-.468.72-1.188 1.044-.702.306-1.638.306"/><path fill="#fff" d="M740.479 60v-2.66h-4.886v-.854l5.18-6.426h.658v6.412h1.232v.868h-1.232V60zm-3.864-3.528h3.948v-4.928zm11.373 3.668q-1.007-.028-1.778-.49a4.2 4.2 0 0 1-1.288-1.204 6 6 0 0 1-.784-1.624 6 6 0 0 1-.266-1.722 6 6 0 0 1 .28-1.792 5.8 5.8 0 0 1 .826-1.624 4.2 4.2 0 0 1 1.302-1.176 3.3 3.3 0 0 1 1.708-.448q1.023 0 1.778.476.77.476 1.288 1.232t.77 1.638q.266.882.266 1.694a5.8 5.8 0 0 1-.294 1.806 5.5 5.5 0 0 1-.812 1.61 4.2 4.2 0 0 1-1.302 1.176 3.45 3.45 0 0 1-1.694.448m-3.122-5.04q.029.728.224 1.47.21.727.602 1.344.393.602.952.98.575.364 1.344.364.784 0 1.372-.392t.966-1.022q.393-.644.588-1.358.196-.727.196-1.386 0-.727-.21-1.456a4.6 4.6 0 0 0-.616-1.344 3.3 3.3 0 0 0-.98-.98 2.34 2.34 0 0 0-1.316-.378q-.798 0-1.386.406a3.3 3.3 0 0 0-.98 1.022 5.3 5.3 0 0 0-.756 2.73m-75.881 5.026q-.882 0-1.596-.294a3 3 0 0 1-1.162-.812 2.4 2.4 0 0 1-.56-1.204l.588-.532q.029.476.378.938.35.448.952.728.616.28 1.4.28.7 0 1.26-.238.574-.252.896-.672a1.6 1.6 0 0 0 .336-1.008q0-.615-.392-1.05-.392-.448-1.106-.686t-1.694-.238h-.476v-.826h.476q1.357 0 2.142-.448t.784-1.344q0-.588-.322-1.022a2 2 0 0 0-.84-.672 2.7 2.7 0 0 0-1.134-.238q-.924 0-1.582.406t-.924 1.008l-.658-.644q.266-.504.742-.868a3.7 3.7 0 0 1 1.106-.56q.63-.195 1.302-.196.952 0 1.694.364.756.365 1.176.98.434.615.434 1.414 0 .56-.224 1.008-.224.435-.658.742a3.3 3.3 0 0 1-1.064.448q.658.126 1.148.49.504.364.77.896.28.518.28 1.148 0 .84-.49 1.442a3.15 3.15 0 0 1-1.26.938 4.5 4.5 0 0 1-1.722.322m12.012-3.402q0 .938-.476 1.722a3.51 3.51 0 0 1-3.052 1.694q-1.037 0-1.848-.49-.798-.504-1.26-1.442t-.462-2.226q0-2.03.462-3.346.462-1.33 1.288-1.988a3 3 0 0 1 1.918-.658q.994 0 1.778.504.784.49 1.19 1.344l-.616.56a2.43 2.43 0 0 0-.938-1.134 2.43 2.43 0 0 0-1.414-.434q-.826 0-1.442.518t-.966 1.484q-.336.966-.336 2.338.21-.546.616-.952t.952-.63q.56-.224 1.19-.224.952 0 1.722.448.784.448 1.232 1.218.462.756.462 1.694m-3.5 2.576q.7 0 1.288-.35t.938-.938q.364-.588.364-1.288t-.364-1.288a2.65 2.65 0 0 0-.938-.938 2.47 2.47 0 0 0-1.288-.35q-.714 0-1.316.35a2.65 2.65 0 0 0-.938.938q-.35.574-.35 1.288 0 .7.35 1.288.364.588.952.938t1.302.35m-79.063.826q-.882 0-1.596-.294a3 3 0 0 1-1.162-.812 2.4 2.4 0 0 1-.56-1.204l.588-.532q.028.476.378.938.35.448.952.728.617.28 1.4.28.7 0 1.26-.238.575-.252.896-.672a1.6 1.6 0 0 0 .336-1.008q0-.615-.392-1.05-.392-.448-1.106-.686-.713-.238-1.694-.238h-.476v-.826h.476q1.359 0 2.142-.448.784-.448.784-1.344 0-.588-.322-1.022a2 2 0 0 0-.84-.672 2.7 2.7 0 0 0-1.134-.238q-.924 0-1.582.406-.657.406-.924 1.008l-.658-.644q.267-.504.742-.868.49-.365 1.106-.56.63-.195 1.302-.196.953 0 1.694.364.756.365 1.176.98.434.615.434 1.414 0 .56-.224 1.008-.223.435-.658.742a3.3 3.3 0 0 1-1.064.448q.659.126 1.148.49.504.364.77.896.28.518.28 1.148 0 .84-.49 1.442a3.15 3.15 0 0 1-1.26.938 4.5 4.5 0 0 1-1.722.322m4.858-.126a6.5 6.5 0 0 1 .14-1.554q.154-.672.462-1.19a3.8 3.8 0 0 1 .77-.896 5.2 5.2 0 0 1 1.008-.686q.532-.294 1.106-.532.574-.252 1.064-.546a2.5 2.5 0 0 0 .784-.714q.308-.435.308-1.078 0-.532-.238-.98a1.66 1.66 0 0 0-.7-.714q-.476-.28-1.204-.28-.714 0-1.274.238-.546.238-.924.574-.365.337-.588.616l-.63-.616q.084-.097.336-.378a5 5 0 0 1 .7-.588 4.4 4.4 0 0 1 1.05-.518q.616-.224 1.428-.224 1.037 0 1.722.406.686.392 1.022 1.036.35.644.35 1.414 0 .742-.294 1.26-.28.504-.742.854a5.7 5.7 0 0 1-.98.588l-.98.476q-.895.406-1.428.798t-.798.784q-.252.392-.336.784a4.5 4.5 0 0 0-.098.798h5.67V60zm-78.936 0a6.5 6.5 0 0 1 .14-1.554 4 4 0 0 1 .462-1.19q.321-.518.77-.896a5 5 0 0 1 1.008-.686 11 11 0 0 1 1.106-.532q.573-.252 1.064-.546.49-.294.784-.714.308-.435.308-1.078 0-.532-.238-.98a1.67 1.67 0 0 0-.7-.714q-.477-.28-1.204-.28-.714 0-1.274.238-.546.238-.924.574-.365.337-.588.616l-.63-.616q.084-.097.336-.378.265-.28.7-.588a4.4 4.4 0 0 1 1.05-.518q.615-.224 1.428-.224 1.035 0 1.722.406.686.392 1.022 1.036.35.644.35 1.414 0 .742-.294 1.26-.28.504-.742.854-.449.336-.98.588l-.98.476q-.897.406-1.428.798-.533.392-.798.784-.252.392-.336.784a4.5 4.5 0 0 0-.098.798h5.67V60zm15.064-2.758q0 .869-.49 1.512-.476.644-1.274 1.008a4.2 4.2 0 0 1-1.722.35q-.993 0-1.764-.392a3.3 3.3 0 0 1-1.218-1.064 2.6 2.6 0 0 1-.434-1.47q0-.63.294-1.134.309-.518.756-.868.462-.35.938-.504a3.6 3.6 0 0 1-.812-.476 2.4 2.4 0 0 1-.602-.714 1.8 1.8 0 0 1-.224-.896q0-.615.266-1.078.28-.475.728-.798.448-.336.994-.49a3.9 3.9 0 0 1 1.12-.168q.546 0 1.092.168.561.154 1.008.476.462.322.728.798.28.462.28 1.078 0 .49-.238.91-.224.406-.602.714a3.5 3.5 0 0 1-.826.476q.547.182.994.56.462.364.728.868.28.504.28 1.134m-.966-.07q0-.504-.224-.882a1.9 1.9 0 0 0-.588-.658 2.8 2.8 0 0 0-.812-.406 2.77 2.77 0 0 0-2.058.126 2.4 2.4 0 0 0-.924.728q-.35.462-.35 1.106 0 .49.21.868.225.378.588.658.365.266.798.406.449.14.896.14.603 0 1.162-.252.575-.266.938-.742.364-.475.364-1.092m-4.634-4.536q0 .532.322.924.336.378.84.574t.98.196q.505 0 .994-.196.505-.21.826-.588.336-.392.336-.938 0-.532-.308-.91a1.9 1.9 0 0 0-.812-.574 2.8 2.8 0 0 0-2.086.014 1.9 1.9 0 0 0-.798.588 1.44 1.44 0 0 0-.294.91M453.928 60a6.5 6.5 0 0 1 .14-1.554q.154-.672.462-1.19a3.8 3.8 0 0 1 .77-.896 5.2 5.2 0 0 1 1.008-.686q.532-.294 1.106-.532.574-.252 1.064-.546a2.5 2.5 0 0 0 .784-.714q.308-.435.308-1.078 0-.532-.238-.98a1.66 1.66 0 0 0-.7-.714q-.476-.28-1.204-.28-.714 0-1.274.238-.546.238-.924.574-.365.337-.588.616l-.63-.616q.084-.097.336-.378a5 5 0 0 1 .7-.588 4.4 4.4 0 0 1 1.05-.518q.616-.224 1.428-.224 1.036 0 1.722.406.686.392 1.022 1.036.35.644.35 1.414 0 .742-.294 1.26-.28.504-.742.854a5.7 5.7 0 0 1-.98.588l-.98.476q-.895.406-1.428.798t-.798.784q-.252.392-.336.784a4.5 4.5 0 0 0-.098.798h5.67V60zm12.494 0v-2.66h-4.886v-.854l5.18-6.426h.658v6.412h1.232v.868h-1.232V60zm-3.864-3.528h3.948v-4.928zM382.319 60a6.6 6.6 0 0 1 .14-1.554q.155-.672.462-1.19.323-.518.77-.896a5.2 5.2 0 0 1 1.008-.686q.533-.294 1.106-.532.575-.252 1.064-.546a2.5 2.5 0 0 0 .784-.714q.309-.435.308-1.078 0-.532-.238-.98a1.66 1.66 0 0 0-.7-.714q-.475-.28-1.204-.28-.714 0-1.274.238-.546.238-.924.574-.363.337-.588.616l-.63-.616q.084-.097.336-.378.267-.28.7-.588a4.4 4.4 0 0 1 1.05-.518q.616-.224 1.428-.224 1.036 0 1.722.406.687.392 1.022 1.036.35.644.35 1.414 0 .742-.294 1.26-.28.504-.742.854-.447.336-.98.588l-.98.476q-.895.406-1.428.798-.531.392-.798.784-.252.392-.336.784a4.6 4.6 0 0 0-.098.798h5.67V60zm12.251.14q-1.007-.028-1.778-.49a4.2 4.2 0 0 1-1.288-1.204 6 6 0 0 1-.784-1.624 6 6 0 0 1-.266-1.722 6 6 0 0 1 .28-1.792 5.8 5.8 0 0 1 .826-1.624 4.2 4.2 0 0 1 1.302-1.176 3.3 3.3 0 0 1 1.708-.448q1.023 0 1.778.476.77.476 1.288 1.232.519.756.77 1.638.267.882.266 1.694a5.8 5.8 0 0 1-.294 1.806 5.5 5.5 0 0 1-.812 1.61 4.2 4.2 0 0 1-1.302 1.176 3.45 3.45 0 0 1-1.694.448m-3.122-5.04q.029.728.224 1.47.21.727.602 1.344.393.602.952.98.575.364 1.344.364.784 0 1.372-.392t.966-1.022q.393-.644.588-1.358.196-.727.196-1.386 0-.727-.21-1.456a4.6 4.6 0 0 0-.616-1.344 3.3 3.3 0 0 0-.98-.98 2.34 2.34 0 0 0-1.316-.378q-.798 0-1.386.406a3.3 3.3 0 0 0-.98 1.022 5.3 5.3 0 0 0-.756 2.73m-73.233 4.032V60h-4.634v-.868h1.89v-8.134q-.126.168-.378.378-.238.195-.56.392a5 5 0 0 1-.658.308 1.8 1.8 0 0 1-.616.126v-.896q.378 0 .756-.196a5.4 5.4 0 0 0 1.232-.938l.224-.238h.966v9.198zm8.106-2.408q0 .938-.476 1.722a3.51 3.51 0 0 1-3.052 1.694q-1.037 0-1.848-.49-.798-.504-1.26-1.442t-.462-2.226q0-2.03.462-3.346.462-1.33 1.288-1.988a3 3 0 0 1 1.918-.658q.994 0 1.778.504.784.49 1.19 1.344l-.616.56a2.43 2.43 0 0 0-.938-1.134 2.43 2.43 0 0 0-1.414-.434q-.826 0-1.442.518-.617.518-.966 1.484-.336.966-.336 2.338.21-.546.616-.952t.952-.63q.56-.224 1.19-.224.952 0 1.722.448.784.448 1.232 1.218.462.756.462 1.694m-3.5 2.576q.7 0 1.288-.35t.938-.938q.364-.588.364-1.288t-.364-1.288a2.65 2.65 0 0 0-.938-.938 2.47 2.47 0 0 0-1.288-.35q-.714 0-1.316.35a2.65 2.65 0 0 0-.938.938q-.35.574-.35 1.288 0 .7.35 1.288.364.588.952.938t1.302.35" opacity="0.4"/><path fill="#FF5441" d="M247.961 58.306V60h-5.628v-1.694h1.932v-6.468q-.111.168-.378.378-.252.195-.588.392a4.3 4.3 0 0 1-.672.308 1.8 1.8 0 0 1-.616.126v-1.736q.378 0 .77-.196.392-.195.728-.448.336-.252.532-.462l.224-.238h1.918v8.344zm.885 1.694q0-.855.112-1.498.113-.658.35-1.162.252-.518.644-.91.393-.392.966-.742.49-.28 1.008-.546.533-.266.98-.56.463-.294.742-.672.294-.378.294-.924 0-.42-.182-.714a1.13 1.13 0 0 0-.504-.476 1.7 1.7 0 0 0-.784-.168 2.5 2.5 0 0 0-.994.196 3.5 3.5 0 0 0-.812.462 5 5 0 0 0-.602.532l-1.176-1.232q.196-.224.532-.504.35-.28.826-.546a5.2 5.2 0 0 1 1.106-.434 5.2 5.2 0 0 1 1.358-.168q1.093 0 1.834.392.742.378 1.12 1.05.392.658.392 1.526 0 .63-.21 1.12a2.6 2.6 0 0 1-.546.84 5 5 0 0 1-.784.658q-.434.28-.896.546-.728.392-1.176.686a5.3 5.3 0 0 0-.714.546 2.3 2.3 0 0 0-.392.504 4 4 0 0 0-.224.504h4.956V60zm-66.83-2.94q0 .924-.504 1.61a3.35 3.35 0 0 1-1.316 1.078 4.3 4.3 0 0 1-1.806.378q-.995 0-1.82-.406a3.4 3.4 0 0 1-1.302-1.106 2.86 2.86 0 0 1-.476-1.624q0-.56.238-1.008.237-.463.588-.784.363-.336.728-.518a2.6 2.6 0 0 1-.63-.448 2.2 2.2 0 0 1-.448-.644 1.8 1.8 0 0 1-.168-.77q0-.658.294-1.176a2.7 2.7 0 0 1 .784-.868 3.3 3.3 0 0 1 1.064-.532 4 4 0 0 1 1.162-.182q.56 0 1.148.182.588.168 1.078.518t.784.868q.308.504.308 1.176 0 .392-.182.77a2.27 2.27 0 0 1-1.106 1.106q.405.21.77.546.363.336.588.798t.224 1.036m-1.904-.112q0-.364-.14-.63a1.26 1.26 0 0 0-.392-.462 1.8 1.8 0 0 0-.56-.294 2 2 0 0 0-.63-.098q-.448 0-.84.182a1.6 1.6 0 0 0-.616.518 1.32 1.32 0 0 0-.238.784q0 .337.14.616.153.266.392.462.252.195.546.308.308.098.63.098.447 0 .84-.196.391-.196.63-.532.238-.336.238-.756m-3.108-4.074q0 .378.21.644t.532.406q.336.126.658.126.335 0 .644-.14.321-.14.532-.392a1 1 0 0 0 .224-.658.96.96 0 0 0-.196-.602 1.3 1.3 0 0 0-.518-.392 1.7 1.7 0 0 0-.7-.14q-.365 0-.686.14a1.24 1.24 0 0 0-.518.406 1 1 0 0 0-.182.602M108.148 60v-2.254h-4.186v-1.68l4.774-6.006h1.288v5.992h1.232v1.694h-1.232V60zm-2.296-3.948h2.506v-3.164zm-68.86 4.088q-1.05-.014-1.862-.476a4.25 4.25 0 0 1-1.358-1.218 5.8 5.8 0 0 1-.826-1.624 6 6 0 0 1-.266-1.722q0-.896.294-1.792.293-.896.854-1.624.574-.742 1.372-1.176a3.6 3.6 0 0 1 1.792-.448q1.078 0 1.876.476.812.476 1.358 1.232t.812 1.638q.28.882.28 1.694a5.8 5.8 0 0 1-.294 1.806 5.3 5.3 0 0 1-.868 1.61 4.4 4.4 0 0 1-1.358 1.176q-.798.435-1.806.448m-2.366-5.04q.014.588.154 1.176.153.574.434 1.064.294.49.742.798.447.294 1.036.294.63 0 1.078-.322.447-.322.728-.826.294-.504.434-1.078t.14-1.106q0-.589-.154-1.162a3.6 3.6 0 0 0-.448-1.078 2.4 2.4 0 0 0-.742-.784q-.435-.308-1.036-.308-.615 0-1.064.322-.448.322-.742.826a4.7 4.7 0 0 0-.56 2.184"/><path fill="#fff" d="M727.67 171.132V172h-4.634v-.868h1.89v-8.134q-.126.168-.378.378a5 5 0 0 1-.56.392 5 5 0 0 1-.658.308 1.8 1.8 0 0 1-.616.126v-.896q.378 0 .756-.196a5.4 5.4 0 0 0 1.232-.938l.224-.238h.966v9.198zm5.824 0V172h-4.634v-.868h1.89v-8.134q-.126.168-.378.378a5 5 0 0 1-.56.392 5 5 0 0 1-.658.308 1.8 1.8 0 0 1-.616.126v-.896q.378 0 .756-.196a5.3 5.3 0 0 0 1.232-.938l.224-.238h.966v9.198zm5.027 1.008q-1.008-.028-1.778-.49a4.2 4.2 0 0 1-1.288-1.204 6 6 0 0 1-.784-1.624 6 6 0 0 1-.266-1.722 6 6 0 0 1 .28-1.792 5.8 5.8 0 0 1 .826-1.624 4.2 4.2 0 0 1 1.302-1.176 3.3 3.3 0 0 1 1.708-.448q1.023 0 1.778.476a4.25 4.25 0 0 1 1.288 1.232q.519.756.77 1.638a5.8 5.8 0 0 1 .266 1.694q0 .91-.294 1.806a5.5 5.5 0 0 1-.812 1.61 4.2 4.2 0 0 1-1.302 1.176 3.45 3.45 0 0 1-1.694.448m-3.122-5.04q.029.727.224 1.47.21.728.602 1.344.393.602.952.98.575.364 1.344.364.784 0 1.372-.392t.966-1.022q.393-.644.588-1.358.196-.728.196-1.386 0-.728-.21-1.456a4.6 4.6 0 0 0-.616-1.344 3.3 3.3 0 0 0-.98-.98 2.34 2.34 0 0 0-1.316-.378q-.798 0-1.386.406a3.3 3.3 0 0 0-.98 1.022 5.3 5.3 0 0 0-.756 2.73m12.693 5.04q-1.008-.028-1.778-.49a4.2 4.2 0 0 1-1.288-1.204 5.9 5.9 0 0 1-.784-1.624 6 6 0 0 1-.266-1.722q0-.896.28-1.792a5.8 5.8 0 0 1 .826-1.624 4.2 4.2 0 0 1 1.302-1.176 3.3 3.3 0 0 1 1.708-.448q1.022 0 1.778.476.77.476 1.288 1.232a5.6 5.6 0 0 1 .77 1.638q.266.882.266 1.694 0 .91-.294 1.806a5.6 5.6 0 0 1-.812 1.61 4.25 4.25 0 0 1-1.302 1.176 3.45 3.45 0 0 1-1.694.448m-3.122-5.04q.027.727.224 1.47.21.728.602 1.344a3.4 3.4 0 0 0 .952.98q.573.364 1.344.364.784 0 1.372-.392t.966-1.022q.392-.644.588-1.358.196-.728.196-1.386 0-.728-.21-1.456a4.7 4.7 0 0 0-.616-1.344 3.3 3.3 0 0 0-.98-.98 2.34 2.34 0 0 0-1.316-.378q-.798 0-1.386.406a3.3 3.3 0 0 0-.98 1.022q-.379.63-.574 1.358a5.5 5.5 0 0 0-.182 1.372m-88.447 4.032V172h-4.634v-.868h1.89v-8.134q-.126.168-.378.378a5 5 0 0 1-.56.392 5 5 0 0 1-.658.308 1.8 1.8 0 0 1-.616.126v-.896q.378 0 .756-.196a5.3 5.3 0 0 0 1.232-.938l.224-.238h.966v9.198zm5.028 1.008q-1.008-.028-1.778-.49a4.2 4.2 0 0 1-1.288-1.204 5.9 5.9 0 0 1-.784-1.624 6 6 0 0 1-.266-1.722q0-.896.28-1.792a5.8 5.8 0 0 1 .826-1.624 4.2 4.2 0 0 1 1.302-1.176 3.3 3.3 0 0 1 1.708-.448q1.022 0 1.778.476.77.476 1.288 1.232a5.6 5.6 0 0 1 .77 1.638q.266.882.266 1.694 0 .91-.294 1.806a5.6 5.6 0 0 1-.812 1.61 4.25 4.25 0 0 1-1.302 1.176 3.45 3.45 0 0 1-1.694.448m-3.122-5.04q.027.727.224 1.47.21.728.602 1.344a3.4 3.4 0 0 0 .952.98q.573.364 1.344.364.784 0 1.372-.392t.966-1.022q.391-.644.588-1.358.196-.728.196-1.386 0-.728-.21-1.456a4.7 4.7 0 0 0-.616-1.344 3.3 3.3 0 0 0-.98-.98 2.34 2.34 0 0 0-1.316-.378q-.798 0-1.386.406a3.3 3.3 0 0 0-.98 1.022q-.378.63-.574 1.358a5.5 5.5 0 0 0-.182 1.372m12.692 5.04q-1.008-.028-1.778-.49a4.2 4.2 0 0 1-1.288-1.204 6 6 0 0 1-.784-1.624 6 6 0 0 1-.266-1.722q0-.896.28-1.792a5.8 5.8 0 0 1 .826-1.624 4.2 4.2 0 0 1 1.302-1.176 3.3 3.3 0 0 1 1.708-.448q1.022 0 1.778.476.77.476 1.288 1.232a5.6 5.6 0 0 1 .77 1.638q.266.882.266 1.694 0 .91-.294 1.806a5.6 5.6 0 0 1-.812 1.61 4.25 4.25 0 0 1-1.302 1.176 3.45 3.45 0 0 1-1.694.448m-3.122-5.04q.028.727.224 1.47.21.728.602 1.344.392.602.952.98.574.364 1.344.364.784 0 1.372-.392t.966-1.022q.392-.644.588-1.358.196-.728.196-1.386 0-.728-.21-1.456a4.6 4.6 0 0 0-.616-1.344 3.3 3.3 0 0 0-.98-.98 2.34 2.34 0 0 0-1.316-.378q-.798 0-1.386.406a3.3 3.3 0 0 0-.98 1.022 5.3 5.3 0 0 0-.756 2.73m12.692 5.04q-1.008-.028-1.778-.49a4.2 4.2 0 0 1-1.288-1.204 6 6 0 0 1-.784-1.624 6 6 0 0 1-.266-1.722 6 6 0 0 1 .28-1.792 5.8 5.8 0 0 1 .826-1.624 4.2 4.2 0 0 1 1.302-1.176 3.3 3.3 0 0 1 1.708-.448q1.023 0 1.778.476a4.25 4.25 0 0 1 1.288 1.232q.518.756.77 1.638a5.8 5.8 0 0 1 .266 1.694q0 .91-.294 1.806a5.5 5.5 0 0 1-.812 1.61 4.2 4.2 0 0 1-1.302 1.176 3.45 3.45 0 0 1-1.694.448m-3.122-5.04q.029.727.224 1.47.21.728.602 1.344.393.602.952.98.575.364 1.344.364.784 0 1.372-.392t.966-1.022q.393-.644.588-1.358.196-.728.196-1.386 0-.728-.21-1.456a4.6 4.6 0 0 0-.616-1.344 3.3 3.3 0 0 0-.98-.98 2.34 2.34 0 0 0-1.316-.378q-.798 0-1.386.406a3.3 3.3 0 0 0-.98 1.022 5.3 5.3 0 0 0-.756 2.73m-90.286-1.694q0-.952.462-1.722a3.33 3.33 0 0 1 1.26-1.232 3.56 3.56 0 0 1 1.792-.462q1.064 0 1.862.504.798.49 1.246 1.414.462.924.462 2.226 0 2.03-.462 3.36-.448 1.33-1.274 1.988t-1.932.658a3.26 3.26 0 0 1-1.764-.49 3.2 3.2 0 0 1-1.19-1.372l.602-.546q.308.7.938 1.134.644.42 1.428.42.826 0 1.442-.504.616-.518.952-1.484.35-.966.35-2.338a2.6 2.6 0 0 1-.616.952 2.8 2.8 0 0 1-.966.63 3.1 3.1 0 0 1-1.176.224 3.43 3.43 0 0 1-1.736-.448 3.43 3.43 0 0 1-1.232-1.218 3.3 3.3 0 0 1-.448-1.694m3.5-2.59q-.7 0-1.288.35a2.65 2.65 0 0 0-.938.938q-.35.588-.35 1.288 0 .714.35 1.302.35.574.938.938.601.35 1.302.35a2.5 2.5 0 0 0 1.302-.35q.588-.364.938-.938.364-.588.364-1.288t-.364-1.288a2.8 2.8 0 0 0-.952-.938 2.4 2.4 0 0 0-1.302-.364m9.108 9.324q-1.008-.028-1.778-.49a4.2 4.2 0 0 1-1.288-1.204 5.9 5.9 0 0 1-.784-1.624 6 6 0 0 1-.266-1.722q0-.896.28-1.792a5.8 5.8 0 0 1 .826-1.624 4.2 4.2 0 0 1 1.302-1.176 3.3 3.3 0 0 1 1.708-.448q1.022 0 1.778.476.77.476 1.288 1.232a5.6 5.6 0 0 1 .77 1.638q.266.882.266 1.694 0 .91-.294 1.806a5.6 5.6 0 0 1-.812 1.61 4.25 4.25 0 0 1-1.302 1.176 3.45 3.45 0 0 1-1.694.448m-3.122-5.04q.027.727.224 1.47.21.728.602 1.344a3.4 3.4 0 0 0 .952.98q.573.364 1.344.364.784 0 1.372-.392t.966-1.022q.391-.644.588-1.358.196-.728.196-1.386 0-.728-.21-1.456a4.7 4.7 0 0 0-.616-1.344 3.3 3.3 0 0 0-.98-.98 2.34 2.34 0 0 0-1.316-.378q-.798 0-1.386.406a3.3 3.3 0 0 0-.98 1.022q-.379.63-.574 1.358a5.5 5.5 0 0 0-.182 1.372m12.692 5.04q-1.008-.028-1.778-.49a4.2 4.2 0 0 1-1.288-1.204 6 6 0 0 1-.784-1.624 6 6 0 0 1-.266-1.722q0-.896.28-1.792a5.8 5.8 0 0 1 .826-1.624 4.2 4.2 0 0 1 1.302-1.176 3.3 3.3 0 0 1 1.708-.448q1.022 0 1.778.476.77.476 1.288 1.232a5.6 5.6 0 0 1 .77 1.638q.266.882.266 1.694 0 .91-.294 1.806a5.6 5.6 0 0 1-.812 1.61 4.25 4.25 0 0 1-1.302 1.176 3.45 3.45 0 0 1-1.694.448m-3.122-5.04q.028.727.224 1.47.21.728.602 1.344.392.602.952.98.575.364 1.344.364.784 0 1.372-.392t.966-1.022q.391-.644.588-1.358.196-.728.196-1.386 0-.728-.21-1.456a4.6 4.6 0 0 0-.616-1.344 3.3 3.3 0 0 0-.98-.98 2.34 2.34 0 0 0-1.316-.378q-.798 0-1.386.406a3.3 3.3 0 0 0-.98 1.022 5.3 5.3 0 0 0-.756 2.73m-76.275 2.142q0 .869-.49 1.512a3.2 3.2 0 0 1-1.274 1.008 4.2 4.2 0 0 1-1.722.35q-.995 0-1.764-.392a3.3 3.3 0 0 1-1.218-1.064 2.6 2.6 0 0 1-.434-1.47q0-.63.294-1.134.308-.518.756-.868a3.2 3.2 0 0 1 .938-.504 3.6 3.6 0 0 1-.812-.476 2.4 2.4 0 0 1-.602-.714 1.8 1.8 0 0 1-.224-.896q0-.616.266-1.078.28-.475.728-.798.448-.336.994-.49a3.9 3.9 0 0 1 1.12-.168q.546 0 1.092.168.56.154 1.008.476.462.322.728.798.28.462.28 1.078 0 .49-.238.91a2.4 2.4 0 0 1-.602.714 3.4 3.4 0 0 1-.826.476q.546.182.994.56.462.364.728.868.28.504.28 1.134m-.966-.07a1.7 1.7 0 0 0-.224-.882 1.9 1.9 0 0 0-.588-.658 2.8 2.8 0 0 0-.812-.406 2.78 2.78 0 0 0-2.058.126 2.4 2.4 0 0 0-.924.728q-.35.462-.35 1.106 0 .49.21.868.223.378.588.658.365.266.798.406a3 3 0 0 0 .896.14q.602 0 1.162-.252a2.46 2.46 0 0 0 .938-.742q.364-.476.364-1.092m-4.634-4.536q0 .532.322.924.336.378.84.574t.98.196q.504 0 .994-.196.504-.21.826-.588.336-.392.336-.938 0-.532-.308-.91a1.9 1.9 0 0 0-.812-.574 2.8 2.8 0 0 0-2.086.014 1.9 1.9 0 0 0-.798.588 1.44 1.44 0 0 0-.294.91m11.085 7.504q-1.008-.028-1.778-.49a4.2 4.2 0 0 1-1.288-1.204 5.9 5.9 0 0 1-.784-1.624 6 6 0 0 1-.266-1.722q0-.896.28-1.792a5.8 5.8 0 0 1 .826-1.624 4.2 4.2 0 0 1 1.302-1.176 3.3 3.3 0 0 1 1.708-.448q1.022 0 1.778.476.77.476 1.288 1.232a5.6 5.6 0 0 1 .77 1.638q.266.882.266 1.694 0 .91-.294 1.806a5.6 5.6 0 0 1-.812 1.61 4.25 4.25 0 0 1-1.302 1.176 3.45 3.45 0 0 1-1.694.448m-3.122-5.04q.027.727.224 1.47.21.728.602 1.344a3.4 3.4 0 0 0 .952.98q.573.364 1.344.364.784 0 1.372-.392t.966-1.022q.391-.644.588-1.358.196-.728.196-1.386 0-.728-.21-1.456a4.7 4.7 0 0 0-.616-1.344 3.3 3.3 0 0 0-.98-.98 2.34 2.34 0 0 0-1.316-.378q-.798 0-1.386.406a3.3 3.3 0 0 0-.98 1.022q-.378.63-.574 1.358a5.5 5.5 0 0 0-.182 1.372m12.692 5.04q-1.008-.028-1.778-.49a4.2 4.2 0 0 1-1.288-1.204 6 6 0 0 1-.784-1.624 6 6 0 0 1-.266-1.722q0-.896.28-1.792a5.8 5.8 0 0 1 .826-1.624 4.2 4.2 0 0 1 1.302-1.176 3.3 3.3 0 0 1 1.708-.448q1.022 0 1.778.476.77.476 1.288 1.232a5.6 5.6 0 0 1 .77 1.638q.266.882.266 1.694 0 .91-.294 1.806a5.6 5.6 0 0 1-.812 1.61 4.25 4.25 0 0 1-1.302 1.176 3.45 3.45 0 0 1-1.694.448m-3.122-5.04q.028.727.224 1.47.21.728.602 1.344.392.602.952.98.575.364 1.344.364.784 0 1.372-.392t.966-1.022q.392-.644.588-1.358.196-.728.196-1.386 0-.728-.21-1.456a4.6 4.6 0 0 0-.616-1.344 3.3 3.3 0 0 0-.98-.98 2.34 2.34 0 0 0-1.316-.378q-.798 0-1.386.406a3.3 3.3 0 0 0-.98 1.022 5.3 5.3 0 0 0-.756 2.73m-76.931-4.158h-5.362v-.882h6.874l-5.04 9.94h-1.064zm6.128 9.198q-1.007-.028-1.778-.49a4.2 4.2 0 0 1-1.288-1.204 6 6 0 0 1-.784-1.624 6 6 0 0 1-.266-1.722 6 6 0 0 1 .28-1.792 5.8 5.8 0 0 1 .826-1.624 4.2 4.2 0 0 1 1.302-1.176 3.3 3.3 0 0 1 1.708-.448q1.023 0 1.778.476a4.25 4.25 0 0 1 1.288 1.232q.518.756.77 1.638a5.8 5.8 0 0 1 .266 1.694q0 .91-.294 1.806a5.5 5.5 0 0 1-.812 1.61 4.2 4.2 0 0 1-1.302 1.176 3.45 3.45 0 0 1-1.694.448m-3.122-5.04q.029.727.224 1.47.21.728.602 1.344.393.602.952.98.575.364 1.344.364.784 0 1.372-.392t.966-1.022q.393-.644.588-1.358.196-.728.196-1.386 0-.728-.21-1.456a4.6 4.6 0 0 0-.616-1.344 3.3 3.3 0 0 0-.98-.98 2.34 2.34 0 0 0-1.316-.378q-.798 0-1.386.406a3.3 3.3 0 0 0-.98 1.022 5.3 5.3 0 0 0-.756 2.73m12.693 5.04q-1.008-.028-1.778-.49a4.2 4.2 0 0 1-1.288-1.204 5.9 5.9 0 0 1-.784-1.624 6 6 0 0 1-.266-1.722q0-.896.28-1.792a5.8 5.8 0 0 1 .826-1.624 4.2 4.2 0 0 1 1.302-1.176 3.3 3.3 0 0 1 1.708-.448q1.022 0 1.778.476.77.476 1.288 1.232a5.6 5.6 0 0 1 .77 1.638q.266.882.266 1.694 0 .91-.294 1.806a5.6 5.6 0 0 1-.812 1.61 4.25 4.25 0 0 1-1.302 1.176 3.45 3.45 0 0 1-1.694.448m-3.122-5.04q.027.727.224 1.47.21.728.602 1.344a3.4 3.4 0 0 0 .952.98q.573.364 1.344.364.784 0 1.372-.392t.966-1.022q.392-.644.588-1.358.196-.728.196-1.386 0-.728-.21-1.456a4.7 4.7 0 0 0-.616-1.344 3.3 3.3 0 0 0-.98-.98 2.34 2.34 0 0 0-1.316-.378q-.798 0-1.386.406a3.3 3.3 0 0 0-.98 1.022q-.379.63-.574 1.358a5.5 5.5 0 0 0-.182 1.372m-74.968 1.624a3.26 3.26 0 0 1-.476 1.722 3.5 3.5 0 0 1-1.26 1.232 3.5 3.5 0 0 1-1.792.462q-1.036 0-1.848-.49-.798-.504-1.26-1.442t-.462-2.226q0-2.03.462-3.346.462-1.33 1.288-1.988a3 3 0 0 1 1.918-.658q.993 0 1.778.504.783.49 1.19 1.344l-.616.56a2.43 2.43 0 0 0-.938-1.134 2.44 2.44 0 0 0-1.414-.434q-.827 0-1.442.518-.616.518-.966 1.484-.336.966-.336 2.338a2.7 2.7 0 0 1 .616-.952q.406-.406.952-.63a3.2 3.2 0 0 1 1.19-.224q.951 0 1.722.448.783.449 1.232 1.218.462.756.462 1.694m-3.5 2.576q.7 0 1.288-.35t.938-.938q.363-.588.364-1.288 0-.7-.364-1.288a2.66 2.66 0 0 0-.938-.938 2.5 2.5 0 0 0-1.288-.35q-.714 0-1.316.35a2.65 2.65 0 0 0-.938.938 2.4 2.4 0 0 0-.35 1.288q0 .7.35 1.288.363.588.952.938a2.5 2.5 0 0 0 1.302.35m8.897.84q-1.008-.028-1.778-.49a4.2 4.2 0 0 1-1.288-1.204 6 6 0 0 1-.784-1.624 6 6 0 0 1-.266-1.722 6 6 0 0 1 .28-1.792 5.8 5.8 0 0 1 .826-1.624 4.2 4.2 0 0 1 1.302-1.176 3.3 3.3 0 0 1 1.708-.448q1.023 0 1.778.476a4.25 4.25 0 0 1 1.288 1.232q.519.756.77 1.638a5.8 5.8 0 0 1 .266 1.694q0 .91-.294 1.806a5.5 5.5 0 0 1-.812 1.61 4.2 4.2 0 0 1-1.302 1.176 3.45 3.45 0 0 1-1.694.448m-3.122-5.04q.029.727.224 1.47.21.728.602 1.344.393.602.952.98.575.364 1.344.364.784 0 1.372-.392t.966-1.022q.393-.644.588-1.358.196-.728.196-1.386 0-.728-.21-1.456a4.6 4.6 0 0 0-.616-1.344 3.3 3.3 0 0 0-.98-.98 2.34 2.34 0 0 0-1.316-.378q-.798 0-1.386.406a3.3 3.3 0 0 0-.98 1.022 5.3 5.3 0 0 0-.756 2.73m12.692 5.04q-1.008-.028-1.778-.49a4.2 4.2 0 0 1-1.288-1.204 6 6 0 0 1-.784-1.624 6 6 0 0 1-.266-1.722 6 6 0 0 1 .28-1.792 5.8 5.8 0 0 1 .826-1.624 4.2 4.2 0 0 1 1.302-1.176 3.3 3.3 0 0 1 1.708-.448q1.022 0 1.778.476a4.25 4.25 0 0 1 1.288 1.232q.518.756.77 1.638a5.8 5.8 0 0 1 .266 1.694q0 .91-.294 1.806a5.5 5.5 0 0 1-.812 1.61 4.2 4.2 0 0 1-1.302 1.176 3.45 3.45 0 0 1-1.694.448m-3.122-5.04q.029.727.224 1.47.21.728.602 1.344.393.602.952.98.575.364 1.344.364.784 0 1.372-.392t.966-1.022q.393-.644.588-1.358.196-.728.196-1.386 0-.728-.21-1.456a4.6 4.6 0 0 0-.616-1.344 3.3 3.3 0 0 0-.98-.98 2.34 2.34 0 0 0-1.316-.378q-.798 0-1.386.406a3.3 3.3 0 0 0-.98 1.022 5.3 5.3 0 0 0-.756 2.73m-79.365 5.04a3.63 3.63 0 0 1-1.918-.518 3.47 3.47 0 0 1-1.274-1.4l.644-.476q.378.686 1.064 1.106.687.42 1.498.42.7 0 1.246-.308a2.3 2.3 0 0 0 .882-.84q.336-.546.336-1.26a2.23 2.23 0 0 0-.322-1.204 2.26 2.26 0 0 0-.854-.826 2.36 2.36 0 0 0-1.204-.308q-.644 0-1.232.294a2.5 2.5 0 0 0-.952.826h-.896l1.12-5.586h4.802v.882h-4.088l-.7 3.57q.365-.392.896-.602a3 3 0 0 1 1.162-.224 3.3 3.3 0 0 1 1.638.406 3 3 0 0 1 1.162 1.12q.435.7.434 1.638 0 .966-.462 1.722a3.24 3.24 0 0 1-1.246 1.162q-.77.406-1.736.406m8.816 0q-1.008-.028-1.778-.49a4.2 4.2 0 0 1-1.288-1.204 5.9 5.9 0 0 1-.784-1.624 6 6 0 0 1-.266-1.722q0-.896.28-1.792a5.8 5.8 0 0 1 .826-1.624 4.2 4.2 0 0 1 1.302-1.176 3.3 3.3 0 0 1 1.708-.448q1.022 0 1.778.476.77.476 1.288 1.232a5.6 5.6 0 0 1 .77 1.638q.266.882.266 1.694 0 .91-.294 1.806a5.6 5.6 0 0 1-.812 1.61 4.25 4.25 0 0 1-1.302 1.176 3.45 3.45 0 0 1-1.694.448m-3.122-5.04q.027.727.224 1.47.21.728.602 1.344a3.4 3.4 0 0 0 .952.98q.573.364 1.344.364.784 0 1.372-.392t.966-1.022q.392-.644.588-1.358.195-.728.196-1.386 0-.728-.21-1.456a4.7 4.7 0 0 0-.616-1.344 3.3 3.3 0 0 0-.98-.98 2.34 2.34 0 0 0-1.316-.378q-.798 0-1.386.406a3.3 3.3 0 0 0-.98 1.022q-.379.63-.574 1.358a5.5 5.5 0 0 0-.182 1.372m12.692 5.04q-1.008-.028-1.778-.49a4.2 4.2 0 0 1-1.288-1.204 6 6 0 0 1-.784-1.624 6 6 0 0 1-.266-1.722q0-.896.28-1.792a5.8 5.8 0 0 1 .826-1.624 4.2 4.2 0 0 1 1.302-1.176 3.3 3.3 0 0 1 1.708-.448q1.022 0 1.778.476.77.476 1.288 1.232a5.6 5.6 0 0 1 .77 1.638q.266.882.266 1.694 0 .91-.294 1.806a5.6 5.6 0 0 1-.812 1.61 4.25 4.25 0 0 1-1.302 1.176 3.45 3.45 0 0 1-1.694.448m-3.122-5.04q.028.727.224 1.47.21.728.602 1.344.392.602.952.98.575.364 1.344.364.784 0 1.372-.392t.966-1.022q.391-.644.588-1.358.196-.728.196-1.386 0-.728-.21-1.456a4.6 4.6 0 0 0-.616-1.344 3.3 3.3 0 0 0-.98-.98 2.34 2.34 0 0 0-1.316-.378q-.798 0-1.386.406a3.3 3.3 0 0 0-.98 1.022 5.3 5.3 0 0 0-.756 2.73m-77.633 4.9v-2.66H267.9v-.854l5.18-6.426h.658v6.412h1.232v.868h-1.232V172zm-3.864-3.528h3.948v-4.928zm11.373 3.668q-1.008-.028-1.778-.49a4.2 4.2 0 0 1-1.288-1.204 6 6 0 0 1-.784-1.624 6 6 0 0 1-.266-1.722q0-.896.28-1.792a5.8 5.8 0 0 1 .826-1.624 4.2 4.2 0 0 1 1.302-1.176 3.3 3.3 0 0 1 1.708-.448q1.022 0 1.778.476.77.476 1.288 1.232a5.6 5.6 0 0 1 .77 1.638q.266.882.266 1.694 0 .91-.294 1.806a5.6 5.6 0 0 1-.812 1.61 4.25 4.25 0 0 1-1.302 1.176 3.45 3.45 0 0 1-1.694.448m-3.122-5.04q.028.727.224 1.47.21.728.602 1.344.392.602.952.98.575.364 1.344.364.784 0 1.372-.392t.966-1.022q.392-.644.588-1.358.196-.728.196-1.386 0-.728-.21-1.456a4.6 4.6 0 0 0-.616-1.344 3.3 3.3 0 0 0-.98-.98 2.34 2.34 0 0 0-1.316-.378q-.798 0-1.386.406a3.3 3.3 0 0 0-.98 1.022 5.3 5.3 0 0 0-.756 2.73m12.692 5.04q-1.008-.028-1.778-.49a4.2 4.2 0 0 1-1.288-1.204 6 6 0 0 1-.784-1.624 6 6 0 0 1-.266-1.722q0-.896.28-1.792a5.8 5.8 0 0 1 .826-1.624 4.2 4.2 0 0 1 1.302-1.176 3.3 3.3 0 0 1 1.708-.448q1.022 0 1.778.476.77.476 1.288 1.232a5.6 5.6 0 0 1 .77 1.638q.266.882.266 1.694 0 .91-.294 1.806a5.6 5.6 0 0 1-.812 1.61 4.25 4.25 0 0 1-1.302 1.176 3.45 3.45 0 0 1-1.694.448m-3.122-5.04q.028.727.224 1.47.21.728.602 1.344.392.602.952.98.575.364 1.344.364.784 0 1.372-.392t.966-1.022q.392-.644.588-1.358.196-.728.196-1.386 0-.728-.21-1.456a4.6 4.6 0 0 0-.616-1.344 3.3 3.3 0 0 0-.98-.98 2.34 2.34 0 0 0-1.316-.378q-.798 0-1.386.406a3.3 3.3 0 0 0-.98 1.022 5.3 5.3 0 0 0-.756 2.73" opacity="0.4"/><path fill="#FF5441" d="M206.715 172.098a5 5 0 0 1-1.456-.196 3.7 3.7 0 0 1-1.134-.588 3 3 0 0 1-.756-.924l1.008-1.274q.14.308.448.602t.77.476 1.05.182q.574 0 .994-.168a1.47 1.47 0 0 0 .644-.462q.238-.308.238-.742 0-.462-.294-.784-.279-.322-.84-.49t-1.372-.168h-.462v-1.4h.49q1.008 0 1.61-.35.616-.35.616-.994 0-.391-.21-.672a1.23 1.23 0 0 0-.56-.434 1.9 1.9 0 0 0-.77-.154 2.33 2.33 0 0 0-1.246.336 2.2 2.2 0 0 0-.812.84l-1.218-1.358a2.55 2.55 0 0 1 .84-.756 4.7 4.7 0 0 1 1.19-.504q.672-.182 1.386-.182.994 0 1.764.35.77.336 1.204.924.435.588.434 1.344 0 .56-.238 1.022a2.05 2.05 0 0 1-.644.77q-.42.308-.994.448.616.097 1.078.462.476.35.728.896.266.532.266 1.162 0 .882-.504 1.498-.489.616-1.344.952-.84.336-1.904.336m9.282.042q-1.05-.014-1.862-.476a4.2 4.2 0 0 1-1.358-1.218 5.8 5.8 0 0 1-.826-1.624 6 6 0 0 1-.266-1.722q0-.896.294-1.792.293-.896.854-1.624.573-.743 1.372-1.176a3.6 3.6 0 0 1 1.792-.448q1.077 0 1.876.476.812.476 1.358 1.232a5.5 5.5 0 0 1 .812 1.638q.28.882.28 1.694 0 .91-.294 1.806a5.3 5.3 0 0 1-.868 1.61 4.5 4.5 0 0 1-1.358 1.176q-.798.434-1.806.448m-2.366-5.04q.013.588.154 1.176.153.574.434 1.064.294.49.742.798.447.294 1.036.294.63 0 1.078-.322.447-.322.728-.826.293-.504.434-1.078.14-.574.14-1.106 0-.588-.154-1.162a3.6 3.6 0 0 0-.448-1.078 2.4 2.4 0 0 0-.742-.784 1.75 1.75 0 0 0-1.036-.308q-.617 0-1.064.322t-.742.826a4.3 4.3 0 0 0-.42 1.078 4.6 4.6 0 0 0-.14 1.106m12.182 5.04q-1.05-.014-1.862-.476a4.25 4.25 0 0 1-1.358-1.218 5.8 5.8 0 0 1-.826-1.624 6 6 0 0 1-.266-1.722q0-.896.294-1.792a5.4 5.4 0 0 1 .854-1.624q.574-.743 1.372-1.176a3.6 3.6 0 0 1 1.792-.448q1.078 0 1.876.476.812.476 1.358 1.232t.812 1.638q.28.882.28 1.694 0 .91-.294 1.806a5.3 5.3 0 0 1-.868 1.61 4.4 4.4 0 0 1-1.358 1.176q-.798.434-1.806.448m-2.366-5.04q.014.588.154 1.176.154.574.434 1.064.294.49.742.798.448.294 1.036.294.63 0 1.078-.322t.728-.826q.294-.504.434-1.078t.14-1.106q0-.588-.154-1.162a3.6 3.6 0 0 0-.448-1.078 2.4 2.4 0 0 0-.742-.784q-.434-.308-1.036-.308-.616 0-1.064.322t-.742.826a4.3 4.3 0 0 0-.42 1.078q-.14.574-.14 1.106m-84.903 4.9q0-.854.112-1.498a4.4 4.4 0 0 1 .35-1.162 3.3 3.3 0 0 1 .644-.91 5 5 0 0 1 .966-.742q.489-.28 1.008-.546.531-.266.98-.56a2.7 2.7 0 0 0 .742-.672q.294-.378.294-.924 0-.42-.182-.714a1.14 1.14 0 0 0-.504-.476 1.7 1.7 0 0 0-.784-.168q-.532 0-.994.196-.449.181-.812.462a5 5 0 0 0-.602.532l-1.176-1.232q.195-.224.532-.504.35-.28.826-.546a5.15 5.15 0 0 1 2.464-.602q1.092 0 1.834.392.742.378 1.12 1.05.392.658.392 1.526 0 .63-.21 1.12a2.7 2.7 0 0 1-.546.84 5 5 0 0 1-.784.658q-.434.28-.896.546-.729.392-1.176.686a5 5 0 0 0-.714.546 2.3 2.3 0 0 0-.392.504 4 4 0 0 0-.224.504h4.956V172zm12.843.14q-1.05-.014-1.862-.476a4.25 4.25 0 0 1-1.358-1.218 5.8 5.8 0 0 1-.826-1.624 6 6 0 0 1-.266-1.722q0-.896.294-1.792a5.4 5.4 0 0 1 .854-1.624q.574-.743 1.372-1.176a3.6 3.6 0 0 1 1.792-.448q1.078 0 1.876.476a4.4 4.4 0 0 1 1.358 1.232q.546.756.812 1.638.28.882.28 1.694 0 .91-.294 1.806a5.3 5.3 0 0 1-.868 1.61 4.4 4.4 0 0 1-1.358 1.176q-.798.434-1.806.448m-2.366-5.04q.015.588.154 1.176.155.574.434 1.064.294.49.742.798.448.294 1.036.294.63 0 1.078-.322t.728-.826q.294-.504.434-1.078a4.45 4.45 0 0 0-.014-2.268 3.5 3.5 0 0 0-.448-1.078 2.4 2.4 0 0 0-.742-.784q-.433-.308-1.036-.308-.615 0-1.064.322a2.65 2.65 0 0 0-.742.826 4.4 4.4 0 0 0-.42 1.078q-.14.574-.14 1.106m12.183 5.04q-1.05-.014-1.862-.476a4.2 4.2 0 0 1-1.358-1.218 5.8 5.8 0 0 1-.826-1.624 6 6 0 0 1-.266-1.722q0-.896.294-1.792.293-.896.854-1.624.573-.743 1.372-1.176a3.6 3.6 0 0 1 1.792-.448q1.077 0 1.876.476.812.476 1.358 1.232a5.5 5.5 0 0 1 .812 1.638q.28.882.28 1.694 0 .91-.294 1.806a5.3 5.3 0 0 1-.868 1.61 4.5 4.5 0 0 1-1.358 1.176q-.798.434-1.806.448m-2.366-5.04q.013.588.154 1.176.153.574.434 1.064.294.49.742.798.447.294 1.036.294.63 0 1.078-.322.447-.322.728-.826.293-.504.434-1.078.14-.574.14-1.106 0-.588-.154-1.162a3.6 3.6 0 0 0-.448-1.078 2.4 2.4 0 0 0-.742-.784 1.75 1.75 0 0 0-1.036-.308q-.617 0-1.064.322t-.742.826a4.3 4.3 0 0 0-.42 1.078 4.6 4.6 0 0 0-.14 1.106m-77.761 3.206V172H75.45v-1.694h1.932v-6.468q-.111.168-.378.378a5 5 0 0 1-.588.392 4.4 4.4 0 0 1-.672.308q-.336.126-.616.126v-1.736q.379 0 .77-.196a4.8 4.8 0 0 0 1.26-.91l.224-.238H79.3v8.344zm5.212 1.834q-1.05-.014-1.862-.476a4.25 4.25 0 0 1-1.358-1.218 5.8 5.8 0 0 1-.826-1.624 6 6 0 0 1-.266-1.722q0-.896.294-1.792.293-.896.854-1.624.574-.743 1.372-1.176a3.6 3.6 0 0 1 1.792-.448q1.077 0 1.876.476.812.476 1.358 1.232t.812 1.638q.28.882.28 1.694 0 .91-.294 1.806a5.3 5.3 0 0 1-.868 1.61 4.45 4.45 0 0 1-1.358 1.176q-.798.434-1.806.448m-2.366-5.04q.013.588.154 1.176.153.574.434 1.064.294.49.742.798.448.294 1.036.294.63 0 1.078-.322.447-.322.728-.826.293-.504.434-1.078.14-.574.14-1.106a4.5 4.5 0 0 0-.154-1.162 3.6 3.6 0 0 0-.448-1.078 2.4 2.4 0 0 0-.742-.784 1.75 1.75 0 0 0-1.036-.308q-.617 0-1.064.322t-.742.826a4.66 4.66 0 0 0-.56 2.184m12.182 5.04q-1.05-.014-1.862-.476a4.25 4.25 0 0 1-1.358-1.218 5.8 5.8 0 0 1-.826-1.624 6 6 0 0 1-.266-1.722q0-.896.294-1.792t.854-1.624q.574-.743 1.372-1.176a3.6 3.6 0 0 1 1.792-.448q1.078 0 1.876.476.812.476 1.358 1.232t.812 1.638q.28.882.28 1.694 0 .91-.294 1.806a5.3 5.3 0 0 1-.868 1.61 4.45 4.45 0 0 1-1.358 1.176q-.798.434-1.806.448m-2.366-5.04q.014.588.154 1.176.154.574.434 1.064.294.49.742.798.448.294 1.036.294.63 0 1.078-.322t.728-.826q.293-.504.434-1.078.14-.574.14-1.106a4.5 4.5 0 0 0-.154-1.162 3.6 3.6 0 0 0-.448-1.078 2.4 2.4 0 0 0-.742-.784 1.75 1.75 0 0 0-1.036-.308q-.615 0-1.064.322-.448.322-.742.826a4.66 4.66 0 0 0-.56 2.184m-60.747 5.04q-1.05-.014-1.862-.476a4.25 4.25 0 0 1-1.358-1.218 5.8 5.8 0 0 1-.826-1.624 6 6 0 0 1-.266-1.722q0-.896.294-1.792t.854-1.624a4.3 4.3 0 0 1 1.372-1.176 3.6 3.6 0 0 1 1.792-.448q1.078 0 1.876.476.812.476 1.358 1.232t.812 1.638q.28.882.28 1.694 0 .91-.294 1.806a5.3 5.3 0 0 1-.868 1.61 4.45 4.45 0 0 1-1.358 1.176q-.798.434-1.806.448m-2.366-5.04q.014.588.154 1.176.153.574.434 1.064.294.49.742.798.448.294 1.036.294.63 0 1.078-.322.447-.322.728-.826.294-.504.434-1.078t.14-1.106q0-.588-.154-1.162a3.6 3.6 0 0 0-.448-1.078 2.4 2.4 0 0 0-.742-.784 1.75 1.75 0 0 0-1.036-.308q-.615 0-1.064.322-.448.322-.742.826a4.7 4.7 0 0 0-.56 2.184"/><path fill="#fff" d="M29.915 215v-9.414h1.98v3.744h4.374v-3.744h1.98V215h-1.98v-3.96h-4.374V215zm10.722 0v-9.414h6.012v1.746h-4.032V215zm17.766-12.78L49.637 215h-2.196l8.766-12.78zm-.666 15.03v-3.996h.216q.378 0 .702-.216t.576-.738q.252-.54.414-1.476.162-.954.198-2.394l.108-2.844h6.714v7.668h1.296v3.996h-1.746V215h-6.75v2.25zm2.826-3.996h4.122v-5.958h-2.988l-.054 1.314a21 21 0 0 1-.198 2.304q-.126.936-.36 1.494-.216.558-.522.846m8.322 1.836v-1.764q.45 0 .81-.216.36-.234.63-.756.27-.54.432-1.494t.216-2.43l.126-2.844h6.714V215h-1.98v-7.668h-2.988l-.036 1.278q-.072 1.89-.342 3.15-.27 1.242-.756 1.98-.468.72-1.188 1.044-.702.306-1.638.306"/><defs><filter id="a" width="578" height="110" x="213" y="64" color-interpolation-filters="sRGB" filterUnits="userSpaceOnUse"><feFlood flood-opacity="0" result="BackgroundImageFix"/><feColorMatrix in="SourceAlpha" result="hardAlpha" values="0 0 0 0 0 0 0 0 0 0 0 0 0 0 0 0 0 0 127 0"/><feOffset dx="4" dy="8"/><feGaussianBlur stdDeviation="20"/><feComposite in2="hardAlpha" operator="out"/><feColorMatrix values="0 0 0 0 0.219608 0 0 0 0 0.737255 0 0 0 0 0.886275 0 0 0 0.4 0"/><feBlend in2="BackgroundImageFix" result="effect1_dropShadow_3794_6663"/><feColorMatrix in="SourceAlpha" result="hardAlpha" values="0 0 0 0 0 0 0 0 0 0 0 0 0 0 0 0 0 0 127 0"/><feOffset dx="2" dy="4"/><feGaussianBlur stdDeviation="4"/><feComposite in2="hardAlpha" operator="out"/><feColorMatrix values="0 0 0 0 0.219608 0 0 0 0 0.737255 0 0 0 0 0.886275 0 0 0 0.2 0"/><feBlend in2="effect1_dropShadow_3794_6663" result="effect2_dropShadow_3794_6663"/><feBlend in="SourceGraphic" in2="effect2_dropShadow_3794_6663" result="shape"/></filter><filter id="b" width="306" height="110" x="0" y="64" color-interpolation-filters="sRGB" filterUnits="userSpaceOnUse"><feFlood flood-opacity="0" result="BackgroundImageFix"/><feColorMatrix in="SourceAlpha" result="hardAlpha" values="0 0 0 0 0 0 0 0 0 0 0 0 0 0 0 0 0 0 127 0"/><feOffset dx="4" dy="8"/><feGaussianBlur stdDeviation="20"/><feComposite in2="hardAlpha" operator="out"/><feColorMatrix values="0 0 0 0 1 0 0 0 0 0.329412 0 0 0 0 0.254902 0 0 0 0.4 0"/><feBlend in2="BackgroundImageFix" result="effect1_dropShadow_3794_6663"/><feColorMatrix in="SourceAlpha" result="hardAlpha" values="0 0 0 0 0 0 0 0 0 0 0 0 0 0 0 0 0 0 127 0"/><feOffset dx="2" dy="4"/><feGaussianBlur stdDeviation="4"/><feComposite in2="hardAlpha" operator="out"/><feColorMatrix values="0 0 0 0 1 0 0 0 0 0.329412 0 0 0 0 0.254902 0 0 0 0.2 0"/><feBlend in2="effect1_dropShadow_3794_6663" result="effect2_dropShadow_3794_6663"/><feBlend in="SourceGraphic" in2="effect2_dropShadow_3794_6663" result="shape"/></filter></defs></svg>