<svg xmlns="http://www.w3.org/2000/svg" width="790" height="218" fill="none" viewBox="0 0 790 218"><path stroke="#fff" d="M745.5 80v62m-35.449-62v62M674.6 80v62m-35.45-62v62m-35.451-62v62M568.25 80v62m-35.449-62v62M497.35 80v62M461.9 80v62m-35.451-62v62M391 80v62m-35.449-62v62M320.1 80v62m-35.45-62v62m-35.451-62v62M213.75 80v62m-35.449-62v62M142.85 80v62M107.4 80v62M71.95 80v62M36.5 80v62" opacity="0.4"/><g filter="url(#a)"><rect width="30" height="539" x="746" y="96" fill="#38BCE2" rx="8" transform="rotate(90 746 96)"/></g><g filter="url(#b)"><rect width="30" height="185" x="221" y="96" fill="#FF5441" rx="8" transform="rotate(90 221 96)"/></g><path fill="#fff" d="M29.188 19V9.586h8.1V19h-1.98v-7.668h-4.14V19zm10.494 0V9.586h2.052l3.24 5.814 3.258-5.814h2.016V19h-1.89v-6.624l-2.772 4.95h-1.242l-2.79-4.95V19zm17.168.18q-1.116 0-1.998-.378a4.8 4.8 0 0 1-1.53-1.08 5 5 0 0 1-.972-1.548 5.1 5.1 0 0 1-.342-1.872q0-.99.342-1.872a4.7 4.7 0 0 1 .972-1.548q.648-.684 1.53-1.062.9-.396 1.998-.396t1.98.396q.9.378 1.53 1.062.648.666.99 1.548t.342 1.872-.342 1.872a4.8 4.8 0 0 1-.99 1.548q-.63.684-1.53 1.08-.882.378-1.98.378m-2.808-4.86q0 .9.378 1.62t1.008 1.134 1.422.414q.774 0 1.404-.414a3.1 3.1 0 0 0 1.026-1.152 3.5 3.5 0 0 0 .378-1.62q0-.9-.378-1.62a2.93 2.93 0 0 0-1.026-1.134 2.43 2.43 0 0 0-1.404-.432q-.792 0-1.422.432T54.42 12.7q-.378.702-.378 1.62m8.65 4.77v-1.764q.45 0 .81-.216.36-.234.63-.756.27-.54.432-1.494t.216-2.43l.126-2.844h6.714V19h-1.98v-7.668h-2.988l-.036 1.278q-.072 1.89-.342 3.15-.27 1.242-.756 1.98-.468.72-1.188 1.044-.702.306-1.638.306M73.995 19V9.586h1.98v3.096h2.25q1.674 0 2.538.846.882.846.882 2.232 0 .936-.378 1.674a2.7 2.7 0 0 1-1.116 1.152q-.72.414-1.8.414zm1.98-1.53h2.07q.594 0 .954-.216.36-.234.54-.612.18-.396.18-.846t-.162-.81a1.23 1.23 0 0 0-.54-.594q-.36-.234-.99-.234h-2.052zM93.518 6.22 84.752 19h-2.196l8.766-12.78zm.937 12.87v-1.764q.45 0 .81-.216.36-.234.63-.756.27-.54.432-1.494t.216-2.43l.126-2.844h6.714V19h-1.98v-7.668h-2.988l-.036 1.278q-.072 1.89-.342 3.15-.27 1.242-.756 1.98-.468.72-1.188 1.044-.702.306-1.638.306"/><path fill="#fff" d="M723.797 59.132V60h-4.634v-.868h1.89v-8.134q-.126.168-.378.378-.238.195-.56.392a5 5 0 0 1-.658.308 1.8 1.8 0 0 1-.616.126v-.896q.378 0 .756-.196a5.4 5.4 0 0 0 1.232-.938l.224-.238h.966v9.198zm5.027 1.008q-1.008-.028-1.778-.49a4.2 4.2 0 0 1-1.288-1.204 6 6 0 0 1-.784-1.624 6 6 0 0 1-.266-1.722q0-.896.28-1.792a5.8 5.8 0 0 1 .826-1.624 4.2 4.2 0 0 1 1.302-1.176 3.3 3.3 0 0 1 1.708-.448q1.022 0 1.778.476.77.476 1.288 1.232a5.6 5.6 0 0 1 .77 1.638q.266.882.266 1.694a5.8 5.8 0 0 1-.294 1.806 5.6 5.6 0 0 1-.812 1.61 4.2 4.2 0 0 1-1.302 1.176 3.45 3.45 0 0 1-1.694.448m-3.122-5.04q.028.728.224 1.47.21.727.602 1.344.392.602.952.98.574.364 1.344.364.784 0 1.372-.392t.966-1.022q.391-.644.588-1.358.196-.727.196-1.386 0-.727-.21-1.456a4.6 4.6 0 0 0-.616-1.344 3.3 3.3 0 0 0-.98-.98 2.34 2.34 0 0 0-1.316-.378q-.798 0-1.386.406a3.3 3.3 0 0 0-.98 1.022 5.3 5.3 0 0 0-.756 2.73m12.692 5.04q-1.007-.028-1.778-.49a4.2 4.2 0 0 1-1.288-1.204 6 6 0 0 1-.784-1.624 6 6 0 0 1-.266-1.722 6 6 0 0 1 .28-1.792 5.8 5.8 0 0 1 .826-1.624 4.2 4.2 0 0 1 1.302-1.176 3.3 3.3 0 0 1 1.708-.448q1.023 0 1.778.476.77.476 1.288 1.232.519.756.77 1.638.266.882.266 1.694a5.8 5.8 0 0 1-.294 1.806 5.5 5.5 0 0 1-.812 1.61 4.2 4.2 0 0 1-1.302 1.176 3.45 3.45 0 0 1-1.694.448m-3.122-5.04q.029.728.224 1.47.21.727.602 1.344.393.602.952.98.575.364 1.344.364.784 0 1.372-.392t.966-1.022q.393-.644.588-1.358.196-.727.196-1.386 0-.727-.21-1.456a4.6 4.6 0 0 0-.616-1.344 3.3 3.3 0 0 0-.98-.98 2.34 2.34 0 0 0-1.316-.378q-.798 0-1.386.406a3.3 3.3 0 0 0-.98 1.022 5.3 5.3 0 0 0-.756 2.73m12.693 5.04q-1.008-.028-1.778-.49a4.2 4.2 0 0 1-1.288-1.204 5.9 5.9 0 0 1-.784-1.624 6 6 0 0 1-.266-1.722q0-.896.28-1.792a5.8 5.8 0 0 1 .826-1.624 4.2 4.2 0 0 1 1.302-1.176 3.3 3.3 0 0 1 1.708-.448q1.022 0 1.778.476.77.476 1.288 1.232a5.6 5.6 0 0 1 .77 1.638q.266.882.266 1.694a5.8 5.8 0 0 1-.294 1.806 5.6 5.6 0 0 1-.812 1.61 4.2 4.2 0 0 1-1.302 1.176 3.45 3.45 0 0 1-1.694.448m-3.122-5.04q.027.728.224 1.47.21.727.602 1.344.391.602.952.98.573.364 1.344.364.784 0 1.372-.392t.966-1.022q.391-.644.588-1.358.196-.727.196-1.386 0-.727-.21-1.456a4.7 4.7 0 0 0-.616-1.344 3.3 3.3 0 0 0-.98-.98 2.34 2.34 0 0 0-1.316-.378q-.798 0-1.386.406a3.3 3.3 0 0 0-.98 1.022q-.379.63-.574 1.358a5.5 5.5 0 0 0-.182 1.372m-96.214-1.694q0-.953.462-1.722a3.33 3.33 0 0 1 1.26-1.232 3.56 3.56 0 0 1 1.792-.462q1.064 0 1.862.504.798.49 1.246 1.414.462.924.462 2.226 0 2.03-.462 3.36-.449 1.33-1.274 1.988-.827.658-1.932.658a3.26 3.26 0 0 1-1.764-.49 3.2 3.2 0 0 1-1.19-1.372l.602-.546q.308.7.938 1.134.644.42 1.428.42a2.2 2.2 0 0 0 1.442-.504q.615-.518.952-1.484.35-.966.35-2.338a2.6 2.6 0 0 1-.616.952q-.406.405-.966.63-.546.224-1.176.224-.953 0-1.736-.448a3.4 3.4 0 0 1-1.232-1.218 3.3 3.3 0 0 1-.448-1.694m3.5-2.59q-.7 0-1.288.35a2.65 2.65 0 0 0-.938.938q-.35.588-.35 1.288 0 .714.35 1.302.35.574.938.938.601.35 1.302.35.714 0 1.302-.35.587-.364.938-.938.363-.588.364-1.288 0-.7-.364-1.288a2.8 2.8 0 0 0-.952-.938 2.4 2.4 0 0 0-1.302-.364m9.107 9.324q-1.007-.028-1.778-.49a4.2 4.2 0 0 1-1.288-1.204 6 6 0 0 1-.784-1.624 6 6 0 0 1-.266-1.722 6 6 0 0 1 .28-1.792 5.8 5.8 0 0 1 .826-1.624 4.2 4.2 0 0 1 1.302-1.176 3.3 3.3 0 0 1 1.708-.448q1.023 0 1.778.476.77.476 1.288 1.232t.77 1.638q.266.882.266 1.694a5.8 5.8 0 0 1-.294 1.806 5.5 5.5 0 0 1-.812 1.61 4.2 4.2 0 0 1-1.302 1.176 3.45 3.45 0 0 1-1.694.448m-3.122-5.04q.029.728.224 1.47.21.727.602 1.344.393.602.952.98.575.364 1.344.364.784 0 1.372-.392t.966-1.022q.393-.644.588-1.358.196-.727.196-1.386 0-.727-.21-1.456a4.6 4.6 0 0 0-.616-1.344 3.3 3.3 0 0 0-.98-.98 2.34 2.34 0 0 0-1.316-.378q-.798 0-1.386.406a3.3 3.3 0 0 0-.98 1.022 5.3 5.3 0 0 0-.756 2.73m12.693 5.04q-1.008-.028-1.778-.49a4.2 4.2 0 0 1-1.288-1.204 5.9 5.9 0 0 1-.784-1.624 6 6 0 0 1-.266-1.722q0-.896.28-1.792a5.8 5.8 0 0 1 .826-1.624 4.2 4.2 0 0 1 1.302-1.176 3.3 3.3 0 0 1 1.708-.448q1.022 0 1.778.476.77.476 1.288 1.232a5.6 5.6 0 0 1 .77 1.638q.266.882.266 1.694a5.8 5.8 0 0 1-.294 1.806 5.6 5.6 0 0 1-.812 1.61 4.2 4.2 0 0 1-1.302 1.176 3.45 3.45 0 0 1-1.694.448m-3.122-5.04q.027.728.224 1.47.21.727.602 1.344.391.602.952.98.573.364 1.344.364.784 0 1.372-.392t.966-1.022q.391-.644.588-1.358.196-.727.196-1.386 0-.727-.21-1.456a4.7 4.7 0 0 0-.616-1.344 3.3 3.3 0 0 0-.98-.98 2.34 2.34 0 0 0-1.316-.378q-.798 0-1.386.406a3.3 3.3 0 0 0-.98 1.022q-.378.63-.574 1.358a5.5 5.5 0 0 0-.182 1.372m-82.203 2.142q0 .869-.49 1.512-.476.644-1.274 1.008a4.2 4.2 0 0 1-1.722.35q-.995 0-1.764-.392a3.3 3.3 0 0 1-1.218-1.064 2.6 2.6 0 0 1-.434-1.47q0-.63.294-1.134a3.08 3.08 0 0 1 1.694-1.372 3.6 3.6 0 0 1-.812-.476 2.4 2.4 0 0 1-.602-.714 1.8 1.8 0 0 1-.224-.896q0-.615.266-1.078a2.6 2.6 0 0 1 .728-.798q.448-.336.994-.49a3.9 3.9 0 0 1 1.12-.168q.546 0 1.092.168.56.154 1.008.476.462.322.728.798.28.462.28 1.078 0 .49-.238.91-.224.406-.602.714a3.5 3.5 0 0 1-.826.476q.546.182.994.56.462.364.728.868.28.504.28 1.134m-.966-.07a1.7 1.7 0 0 0-.224-.882 1.9 1.9 0 0 0-.588-.658 2.8 2.8 0 0 0-.812-.406 2.77 2.77 0 0 0-2.058.126 2.4 2.4 0 0 0-.924.728q-.35.462-.35 1.106 0 .49.21.868.224.378.588.658.365.266.798.406.448.14.896.14.602 0 1.162-.252a2.46 2.46 0 0 0 .938-.742q.364-.475.364-1.092m-4.634-4.536q0 .532.322.924.336.378.84.574t.98.196q.504 0 .994-.196.504-.21.826-.588.336-.392.336-.938 0-.532-.308-.91a1.9 1.9 0 0 0-.812-.574 2.8 2.8 0 0 0-1.05-.196q-.532 0-1.036.21-.49.196-.798.588a1.44 1.44 0 0 0-.294.91m11.085 7.504q-1.008-.028-1.778-.49a4.2 4.2 0 0 1-1.288-1.204 5.9 5.9 0 0 1-.784-1.624 6 6 0 0 1-.266-1.722q0-.896.28-1.792a5.8 5.8 0 0 1 .826-1.624 4.2 4.2 0 0 1 1.302-1.176 3.3 3.3 0 0 1 1.708-.448q1.022 0 1.778.476.77.476 1.288 1.232a5.6 5.6 0 0 1 .77 1.638q.266.882.266 1.694a5.8 5.8 0 0 1-.294 1.806 5.6 5.6 0 0 1-.812 1.61 4.2 4.2 0 0 1-1.302 1.176 3.45 3.45 0 0 1-1.694.448m-3.122-5.04q.027.728.224 1.47.21.727.602 1.344.391.602.952.98.573.364 1.344.364.784 0 1.372-.392t.966-1.022q.392-.644.588-1.358.196-.727.196-1.386 0-.727-.21-1.456a4.7 4.7 0 0 0-.616-1.344 3.3 3.3 0 0 0-.98-.98 2.34 2.34 0 0 0-1.316-.378q-.798 0-1.386.406a3.3 3.3 0 0 0-.98 1.022q-.379.63-.574 1.358a5.5 5.5 0 0 0-.182 1.372m12.692 5.04q-1.008-.028-1.778-.49a4.2 4.2 0 0 1-1.288-1.204 6 6 0 0 1-.784-1.624 6 6 0 0 1-.266-1.722q0-.896.28-1.792a5.8 5.8 0 0 1 .826-1.624 4.2 4.2 0 0 1 1.302-1.176 3.3 3.3 0 0 1 1.708-.448q1.022 0 1.778.476.77.476 1.288 1.232a5.6 5.6 0 0 1 .77 1.638q.266.882.266 1.694a5.8 5.8 0 0 1-.294 1.806 5.6 5.6 0 0 1-.812 1.61 4.2 4.2 0 0 1-1.302 1.176 3.45 3.45 0 0 1-1.694.448m-3.122-5.04q.028.728.224 1.47.21.727.602 1.344.392.602.952.98.575.364 1.344.364.784 0 1.372-.392t.966-1.022q.391-.644.588-1.358.196-.727.196-1.386 0-.727-.21-1.456a4.6 4.6 0 0 0-.616-1.344 3.3 3.3 0 0 0-.98-.98 2.34 2.34 0 0 0-1.316-.378q-.798 0-1.386.406a3.3 3.3 0 0 0-.98 1.022 5.3 5.3 0 0 0-.756 2.73m-82.857-4.158h-5.362v-.882h6.874L511.03 60h-1.064zm6.128 9.198q-1.008-.028-1.778-.49a4.2 4.2 0 0 1-1.288-1.204 6 6 0 0 1-.784-1.624 6 6 0 0 1-.266-1.722 6 6 0 0 1 .28-1.792 5.8 5.8 0 0 1 .826-1.624 4.2 4.2 0 0 1 1.302-1.176 3.3 3.3 0 0 1 1.708-.448q1.023 0 1.778.476.77.476 1.288 1.232.519.756.77 1.638.266.882.266 1.694a5.8 5.8 0 0 1-.294 1.806 5.5 5.5 0 0 1-.812 1.61 4.2 4.2 0 0 1-1.302 1.176 3.45 3.45 0 0 1-1.694.448m-3.122-5.04q.029.728.224 1.47.21.727.602 1.344.393.602.952.98.575.364 1.344.364.784 0 1.372-.392t.966-1.022q.393-.644.588-1.358.196-.727.196-1.386 0-.727-.21-1.456a4.6 4.6 0 0 0-.616-1.344 3.3 3.3 0 0 0-.98-.98 2.34 2.34 0 0 0-1.316-.378q-.798 0-1.386.406a3.3 3.3 0 0 0-.98 1.022 5.3 5.3 0 0 0-.756 2.73m12.693 5.04q-1.008-.028-1.778-.49a4.2 4.2 0 0 1-1.288-1.204 5.9 5.9 0 0 1-.784-1.624 6 6 0 0 1-.266-1.722q0-.896.28-1.792a5.8 5.8 0 0 1 .826-1.624 4.2 4.2 0 0 1 1.302-1.176 3.3 3.3 0 0 1 1.708-.448q1.022 0 1.778.476.77.476 1.288 1.232a5.6 5.6 0 0 1 .77 1.638q.266.882.266 1.694a5.8 5.8 0 0 1-.294 1.806 5.6 5.6 0 0 1-.812 1.61 4.2 4.2 0 0 1-1.302 1.176 3.45 3.45 0 0 1-1.694.448m-3.122-5.04q.027.728.224 1.47.21.727.602 1.344.391.602.952.98.573.364 1.344.364.784 0 1.372-.392t.966-1.022q.391-.644.588-1.358.196-.727.196-1.386 0-.727-.21-1.456a4.7 4.7 0 0 0-.616-1.344 3.3 3.3 0 0 0-.98-.98 2.34 2.34 0 0 0-1.316-.378q-.798 0-1.386.406a3.3 3.3 0 0 0-.98 1.022q-.379.63-.574 1.358a5.5 5.5 0 0 0-.182 1.372m-80.898 1.624q0 .938-.476 1.722a3.51 3.51 0 0 1-3.052 1.694q-1.036 0-1.848-.49-.798-.504-1.26-1.442t-.462-2.226q0-2.03.462-3.346.462-1.33 1.288-1.988a3 3 0 0 1 1.918-.658q.994 0 1.778.504.784.49 1.19 1.344l-.616.56a2.43 2.43 0 0 0-.938-1.134 2.43 2.43 0 0 0-1.414-.434q-.826 0-1.442.518t-.966 1.484q-.336.966-.336 2.338.21-.546.616-.952t.952-.63q.56-.224 1.19-.224.952 0 1.722.448.784.448 1.232 1.218.462.756.462 1.694m-3.5 2.576q.7 0 1.288-.35t.938-.938q.364-.588.364-1.288t-.364-1.288a2.65 2.65 0 0 0-.938-.938 2.47 2.47 0 0 0-1.288-.35q-.714 0-1.316.35a2.65 2.65 0 0 0-.938.938q-.35.574-.35 1.288 0 .7.35 1.288.364.588.952.938t1.302.35m8.898.84q-1.008-.028-1.778-.49a4.2 4.2 0 0 1-1.288-1.204 5.9 5.9 0 0 1-.784-1.624 6 6 0 0 1-.266-1.722q0-.896.28-1.792a5.8 5.8 0 0 1 .826-1.624 4.2 4.2 0 0 1 1.302-1.176 3.3 3.3 0 0 1 1.708-.448q1.022 0 1.778.476.77.476 1.288 1.232a5.6 5.6 0 0 1 .77 1.638q.266.882.266 1.694a5.8 5.8 0 0 1-.294 1.806 5.6 5.6 0 0 1-.812 1.61 4.2 4.2 0 0 1-1.302 1.176 3.45 3.45 0 0 1-1.694.448m-3.122-5.04q.027.728.224 1.47.21.727.602 1.344.391.602.952.98.573.364 1.344.364.784 0 1.372-.392t.966-1.022q.392-.644.588-1.358.195-.727.196-1.386 0-.727-.21-1.456a4.7 4.7 0 0 0-.616-1.344 3.3 3.3 0 0 0-.98-.98 2.34 2.34 0 0 0-1.316-.378q-.798 0-1.386.406a3.3 3.3 0 0 0-.98 1.022q-.379.63-.574 1.358a5.5 5.5 0 0 0-.182 1.372m12.692 5.04q-1.008-.028-1.778-.49a4.2 4.2 0 0 1-1.288-1.204 6 6 0 0 1-.784-1.624 6 6 0 0 1-.266-1.722q0-.896.28-1.792a5.8 5.8 0 0 1 .826-1.624 4.2 4.2 0 0 1 1.302-1.176 3.3 3.3 0 0 1 1.708-.448q1.022 0 1.778.476.77.476 1.288 1.232a5.6 5.6 0 0 1 .77 1.638q.266.882.266 1.694a5.8 5.8 0 0 1-.294 1.806 5.6 5.6 0 0 1-.812 1.61 4.2 4.2 0 0 1-1.302 1.176 3.45 3.45 0 0 1-1.694.448m-3.122-5.04q.028.728.224 1.47.21.727.602 1.344.392.602.952.98.575.364 1.344.364.784 0 1.372-.392t.966-1.022q.391-.644.588-1.358.196-.727.196-1.386 0-.727-.21-1.456a4.6 4.6 0 0 0-.616-1.344 3.3 3.3 0 0 0-.98-.98 2.34 2.34 0 0 0-1.316-.378q-.798 0-1.386.406a3.3 3.3 0 0 0-.98 1.022 5.3 5.3 0 0 0-.756 2.73m-85.291 5.04a3.63 3.63 0 0 1-1.918-.518 3.47 3.47 0 0 1-1.274-1.4l.644-.476q.378.686 1.064 1.106t1.498.42q.7 0 1.246-.308a2.32 2.32 0 0 0 1.218-2.1 2.23 2.23 0 0 0-.322-1.204 2.27 2.27 0 0 0-.854-.826 2.36 2.36 0 0 0-1.204-.308q-.644 0-1.232.294a2.5 2.5 0 0 0-.952.826h-.896l1.12-5.586h4.802v.882h-4.088l-.7 3.57a2.4 2.4 0 0 1 .896-.602 3 3 0 0 1 1.162-.224q.91 0 1.638.406.742.406 1.162 1.12.434.7.434 1.638 0 .966-.462 1.722a3.24 3.24 0 0 1-1.246 1.162q-.77.405-1.736.406m8.815 0q-1.007-.028-1.778-.49a4.2 4.2 0 0 1-1.288-1.204 6 6 0 0 1-.784-1.624 6 6 0 0 1-.266-1.722 6 6 0 0 1 .28-1.792 5.8 5.8 0 0 1 .826-1.624 4.2 4.2 0 0 1 1.302-1.176 3.3 3.3 0 0 1 1.708-.448q1.023 0 1.778.476.77.476 1.288 1.232t.77 1.638q.266.882.266 1.694a5.8 5.8 0 0 1-.294 1.806 5.5 5.5 0 0 1-.812 1.61 4.2 4.2 0 0 1-1.302 1.176 3.45 3.45 0 0 1-1.694.448m-3.122-5.04q.029.728.224 1.47.21.727.602 1.344.393.602.952.98.575.364 1.344.364.784 0 1.372-.392t.966-1.022q.393-.644.588-1.358.196-.727.196-1.386 0-.727-.21-1.456a4.6 4.6 0 0 0-.616-1.344 3.3 3.3 0 0 0-.98-.98 2.34 2.34 0 0 0-1.316-.378q-.798 0-1.386.406a3.3 3.3 0 0 0-.98 1.022 5.3 5.3 0 0 0-.756 2.73m12.693 5.04q-1.008-.028-1.778-.49a4.2 4.2 0 0 1-1.288-1.204 5.9 5.9 0 0 1-.784-1.624 6 6 0 0 1-.266-1.722q0-.896.28-1.792a5.8 5.8 0 0 1 .826-1.624 4.2 4.2 0 0 1 1.302-1.176 3.3 3.3 0 0 1 1.708-.448q1.022 0 1.778.476.77.476 1.288 1.232a5.6 5.6 0 0 1 .77 1.638q.266.882.266 1.694a5.8 5.8 0 0 1-.294 1.806 5.6 5.6 0 0 1-.812 1.61 4.2 4.2 0 0 1-1.302 1.176 3.45 3.45 0 0 1-1.694.448m-3.122-5.04q.027.728.224 1.47.21.727.602 1.344.391.602.952.98.573.364 1.344.364.784 0 1.372-.392t.966-1.022q.392-.644.588-1.358.196-.727.196-1.386 0-.727-.21-1.456a4.7 4.7 0 0 0-.616-1.344 3.3 3.3 0 0 0-.98-.98 2.34 2.34 0 0 0-1.316-.378q-.798 0-1.386.406a3.3 3.3 0 0 0-.98 1.022q-.379.63-.574 1.358a5.5 5.5 0 0 0-.182 1.372M304.495 60v-2.66h-4.886v-.854l5.18-6.426h.658v6.412h1.232v.868h-1.232V60zm-3.864-3.528h3.948v-4.928zm11.373 3.668q-1.008-.028-1.778-.49a4.2 4.2 0 0 1-1.288-1.204 5.9 5.9 0 0 1-.784-1.624 6 6 0 0 1-.266-1.722q0-.896.28-1.792a5.8 5.8 0 0 1 .826-1.624 4.2 4.2 0 0 1 1.302-1.176 3.3 3.3 0 0 1 1.708-.448q1.022 0 1.778.476.77.476 1.288 1.232a5.6 5.6 0 0 1 .77 1.638q.266.882.266 1.694a5.8 5.8 0 0 1-.294 1.806 5.6 5.6 0 0 1-.812 1.61 4.2 4.2 0 0 1-1.302 1.176 3.45 3.45 0 0 1-1.694.448m-3.122-5.04q.027.728.224 1.47.21.727.602 1.344.391.602.952.98.573.364 1.344.364.784 0 1.372-.392t.966-1.022q.391-.644.588-1.358.196-.727.196-1.386 0-.727-.21-1.456a4.7 4.7 0 0 0-.616-1.344 3.3 3.3 0 0 0-.98-.98 2.34 2.34 0 0 0-1.316-.378q-.798 0-1.386.406a3.3 3.3 0 0 0-.98 1.022q-.378.63-.574 1.358a5.5 5.5 0 0 0-.182 1.372m12.692 5.04q-1.008-.028-1.778-.49a4.2 4.2 0 0 1-1.288-1.204 6 6 0 0 1-.784-1.624 6 6 0 0 1-.266-1.722q0-.896.28-1.792a5.8 5.8 0 0 1 .826-1.624 4.2 4.2 0 0 1 1.302-1.176 3.3 3.3 0 0 1 1.708-.448q1.022 0 1.778.476.77.476 1.288 1.232a5.6 5.6 0 0 1 .77 1.638q.266.882.266 1.694a5.8 5.8 0 0 1-.294 1.806 5.6 5.6 0 0 1-.812 1.61 4.2 4.2 0 0 1-1.302 1.176 3.45 3.45 0 0 1-1.694.448m-3.122-5.04q.028.728.224 1.47.21.727.602 1.344.392.602.952.98.575.364 1.344.364.784 0 1.372-.392t.966-1.022q.392-.644.588-1.358.196-.727.196-1.386 0-.727-.21-1.456a4.6 4.6 0 0 0-.616-1.344 3.3 3.3 0 0 0-.98-.98 2.34 2.34 0 0 0-1.316-.378q-.798 0-1.386.406a3.3 3.3 0 0 0-.98 1.022 5.3 5.3 0 0 0-.756 2.73" opacity="0.4"/><path fill="#FF5441" d="M232.496 60.098a5 5 0 0 1-1.456-.196 3.7 3.7 0 0 1-1.134-.588 3 3 0 0 1-.756-.924l1.008-1.274q.14.308.448.602t.77.476 1.05.182q.574 0 .994-.168a1.47 1.47 0 0 0 .644-.462q.238-.308.238-.742 0-.462-.294-.784-.279-.322-.84-.49t-1.372-.168h-.462v-1.4h.49q1.008 0 1.61-.35.616-.35.616-.994 0-.392-.21-.672a1.23 1.23 0 0 0-.56-.434 1.9 1.9 0 0 0-.77-.154 2.33 2.33 0 0 0-1.246.336 2.2 2.2 0 0 0-.812.84l-1.218-1.358q.309-.448.84-.756a4.7 4.7 0 0 1 1.19-.504 5.3 5.3 0 0 1 1.386-.182q.995 0 1.764.35.77.336 1.204.924t.434 1.344q0 .56-.238 1.022a2.05 2.05 0 0 1-.644.77q-.42.308-.994.448.616.098 1.078.462.477.35.728.896.266.532.266 1.162 0 .882-.504 1.498-.489.615-1.344.952-.84.336-1.904.336m9.282.042q-1.05-.014-1.862-.476a4.25 4.25 0 0 1-1.358-1.218 5.8 5.8 0 0 1-.826-1.624 6 6 0 0 1-.266-1.722q0-.896.294-1.792a5.4 5.4 0 0 1 .854-1.624 4.35 4.35 0 0 1 1.372-1.176 3.6 3.6 0 0 1 1.792-.448q1.078 0 1.876.476.812.476 1.358 1.232t.812 1.638q.28.882.28 1.694a5.8 5.8 0 0 1-.294 1.806 5.3 5.3 0 0 1-.868 1.61 4.4 4.4 0 0 1-1.358 1.176q-.798.435-1.806.448m-2.366-5.04q.014.588.154 1.176.154.574.434 1.064.294.49.742.798.448.294 1.036.294.63 0 1.078-.322t.728-.826q.294-.504.434-1.078t.14-1.106q0-.589-.154-1.162a3.6 3.6 0 0 0-.448-1.078 2.4 2.4 0 0 0-.742-.784q-.434-.308-1.036-.308-.616 0-1.064.322t-.742.826a4.3 4.3 0 0 0-.42 1.078q-.14.574-.14 1.106m12.182 5.04q-1.05-.014-1.862-.476a4.25 4.25 0 0 1-1.358-1.218 5.8 5.8 0 0 1-.826-1.624 6 6 0 0 1-.266-1.722q0-.896.294-1.792a5.4 5.4 0 0 1 .854-1.624 4.35 4.35 0 0 1 1.372-1.176 3.6 3.6 0 0 1 1.792-.448q1.078 0 1.876.476.813.476 1.358 1.232t.812 1.638q.28.882.28 1.694a5.8 5.8 0 0 1-.294 1.806 5.3 5.3 0 0 1-.868 1.61 4.4 4.4 0 0 1-1.358 1.176q-.798.435-1.806.448m-2.366-5.04q.015.588.154 1.176.155.574.434 1.064.294.49.742.798.448.294 1.036.294.63 0 1.078-.322a2.5 2.5 0 0 0 .728-.826q.294-.504.434-1.078a4.45 4.45 0 0 0-.014-2.268 3.5 3.5 0 0 0-.448-1.078 2.4 2.4 0 0 0-.742-.784q-.433-.308-1.036-.308-.615 0-1.064.322-.447.322-.742.826a4.4 4.4 0 0 0-.42 1.078q-.14.574-.14 1.106M158.399 60q0-.855.112-1.498.113-.658.35-1.162.252-.518.644-.91.393-.392.966-.742.49-.28 1.008-.546.533-.266.98-.56.463-.294.742-.672.294-.378.294-.924 0-.42-.182-.714a1.13 1.13 0 0 0-.504-.476 1.7 1.7 0 0 0-.784-.168 2.5 2.5 0 0 0-.994.196 3.5 3.5 0 0 0-.812.462 5 5 0 0 0-.602.532l-1.176-1.232q.196-.224.532-.504.35-.28.826-.546a5.2 5.2 0 0 1 1.106-.434 5.2 5.2 0 0 1 1.358-.168q1.093 0 1.834.392.742.378 1.12 1.05.392.658.392 1.526 0 .63-.21 1.12a2.6 2.6 0 0 1-.546.84 5 5 0 0 1-.784.658q-.434.28-.896.546-.728.392-1.176.686a5.3 5.3 0 0 0-.714.546 2.3 2.3 0 0 0-.392.504 4 4 0 0 0-.224.504h4.956V60zm12.844.14q-1.05-.014-1.862-.476a4.2 4.2 0 0 1-1.358-1.218 5.8 5.8 0 0 1-.826-1.624 6 6 0 0 1-.266-1.722q0-.896.294-1.792.293-.896.854-1.624a4.3 4.3 0 0 1 1.372-1.176 3.6 3.6 0 0 1 1.792-.448q1.077 0 1.876.476.812.476 1.358 1.232a5.5 5.5 0 0 1 .812 1.638q.28.882.28 1.694a5.8 5.8 0 0 1-.294 1.806 5.3 5.3 0 0 1-.868 1.61 4.45 4.45 0 0 1-1.358 1.176q-.798.435-1.806.448m-2.366-5.04q.013.588.154 1.176.153.574.434 1.064.294.49.742.798.447.294 1.036.294.63 0 1.078-.322.447-.322.728-.826.294-.504.434-1.078t.14-1.106q0-.589-.154-1.162a3.6 3.6 0 0 0-.448-1.078 2.4 2.4 0 0 0-.742-.784 1.75 1.75 0 0 0-1.036-.308q-.617 0-1.064.322t-.742.826a4.3 4.3 0 0 0-.42 1.078 4.6 4.6 0 0 0-.14 1.106m12.182 5.04q-1.05-.014-1.862-.476a4.25 4.25 0 0 1-1.358-1.218 5.8 5.8 0 0 1-.826-1.624 6 6 0 0 1-.266-1.722q0-.896.294-1.792a5.4 5.4 0 0 1 .854-1.624 4.35 4.35 0 0 1 1.372-1.176 3.6 3.6 0 0 1 1.792-.448q1.078 0 1.876.476.813.476 1.358 1.232t.812 1.638q.28.882.28 1.694a5.8 5.8 0 0 1-.294 1.806 5.3 5.3 0 0 1-.868 1.61 4.4 4.4 0 0 1-1.358 1.176q-.798.435-1.806.448m-2.366-5.04q.015.588.154 1.176.155.574.434 1.064.294.49.742.798.448.294 1.036.294.63 0 1.078-.322a2.5 2.5 0 0 0 .728-.826q.294-.504.434-1.078a4.45 4.45 0 0 0-.014-2.268 3.5 3.5 0 0 0-.448-1.078 2.4 2.4 0 0 0-.742-.784q-.433-.308-1.036-.308-.615 0-1.064.322-.448.322-.742.826a4.4 4.4 0 0 0-.42 1.078q-.14.574-.14 1.106m-83.69 3.206V60h-5.628v-1.694h1.932v-6.468q-.112.168-.378.378-.252.195-.588.392a4.4 4.4 0 0 1-.672.308q-.337.126-.616.126v-1.736q.378 0 .77-.196.393-.195.728-.448.336-.252.532-.462l.224-.238h1.918v8.344zm5.211 1.834q-1.05-.014-1.861-.476a4.25 4.25 0 0 1-1.358-1.218 5.8 5.8 0 0 1-.827-1.624 6 6 0 0 1-.266-1.722q0-.896.294-1.792.295-.896.855-1.624.574-.742 1.371-1.176a3.6 3.6 0 0 1 1.792-.448q1.078 0 1.876.476.813.476 1.358 1.232t.812 1.638q.28.882.28 1.694a5.8 5.8 0 0 1-.294 1.806 5.3 5.3 0 0 1-.868 1.61 4.4 4.4 0 0 1-1.358 1.176q-.798.435-1.806.448m-2.365-5.04q.013.588.153 1.176.155.574.434 1.064.294.49.742.798.45.294 1.036.294.63 0 1.078-.322a2.5 2.5 0 0 0 .728-.826q.294-.504.434-1.078a4.45 4.45 0 0 0-.014-2.268 3.5 3.5 0 0 0-.448-1.078 2.4 2.4 0 0 0-.742-.784q-.433-.308-1.036-.308-.615 0-1.064.322-.447.322-.742.826a4.66 4.66 0 0 0-.56 2.184m12.182 5.04q-1.05-.014-1.862-.476a4.25 4.25 0 0 1-1.358-1.218 5.8 5.8 0 0 1-.826-1.624 6 6 0 0 1-.266-1.722q0-.896.294-1.792a5.4 5.4 0 0 1 .854-1.624 4.35 4.35 0 0 1 1.372-1.176 3.6 3.6 0 0 1 1.792-.448q1.078 0 1.876.476.812.476 1.358 1.232t.812 1.638q.28.882.28 1.694a5.8 5.8 0 0 1-.294 1.806 5.3 5.3 0 0 1-.868 1.61 4.4 4.4 0 0 1-1.358 1.176q-.798.435-1.806.448m-2.366-5.04q.014.588.154 1.176.154.574.434 1.064.294.49.742.798.448.294 1.036.294.63 0 1.078-.322t.728-.826q.294-.504.434-1.078t.14-1.106q0-.589-.154-1.162a3.6 3.6 0 0 0-.448-1.078 2.4 2.4 0 0 0-.742-.784q-.434-.308-1.036-.308-.616 0-1.064.322t-.742.826a4.3 4.3 0 0 0-.42 1.078q-.14.574-.14 1.106m-70.672 5.04q-1.05-.014-1.862-.476a4.25 4.25 0 0 1-1.358-1.218 5.8 5.8 0 0 1-.826-1.624 6 6 0 0 1-.266-1.722q0-.896.294-1.792.293-.896.854-1.624.574-.742 1.372-1.176a3.6 3.6 0 0 1 1.792-.448q1.078 0 1.876.476.812.476 1.358 1.232t.812 1.638q.28.882.28 1.694a5.8 5.8 0 0 1-.294 1.806 5.3 5.3 0 0 1-.868 1.61 4.4 4.4 0 0 1-1.358 1.176q-.798.435-1.806.448m-2.366-5.04q.014.588.154 1.176.153.574.434 1.064.294.49.742.798.447.294 1.036.294.63 0 1.078-.322.447-.322.728-.826.294-.504.434-1.078t.14-1.106q0-.589-.154-1.162a3.6 3.6 0 0 0-.448-1.078 2.4 2.4 0 0 0-.742-.784q-.435-.308-1.036-.308-.615 0-1.064.322-.448.322-.742.826a4.7 4.7 0 0 0-.56 2.184"/><path fill="#fff" d="M723.443 172a6.6 6.6 0 0 1 .14-1.554q.154-.672.462-1.19.323-.518.77-.896.448-.392 1.008-.686.533-.294 1.106-.532.575-.252 1.064-.546a2.5 2.5 0 0 0 .784-.714q.308-.434.308-1.078 0-.532-.238-.98a1.66 1.66 0 0 0-.7-.714q-.475-.28-1.204-.28-.714 0-1.274.238-.546.238-.924.574a6 6 0 0 0-.588.616l-.63-.616q.084-.098.336-.378.267-.28.7-.588a4.4 4.4 0 0 1 1.05-.518q.616-.224 1.428-.224 1.037 0 1.722.406.686.392 1.022 1.036.35.644.35 1.414 0 .743-.294 1.26a2.7 2.7 0 0 1-.742.854q-.447.336-.98.588l-.98.476q-.895.406-1.428.798-.531.392-.798.784-.252.392-.336.784a4.6 4.6 0 0 0-.098.798h5.67V172zm12.495 0v-2.66h-4.887v-.854l5.181-6.426h.658v6.412h1.232v.868h-1.232V172zm-3.864-3.528h3.948v-4.928zm11.372 3.668q-1.007-.028-1.778-.49a4.2 4.2 0 0 1-1.288-1.204 6 6 0 0 1-.784-1.624 6 6 0 0 1-.266-1.722 6 6 0 0 1 .28-1.792 5.8 5.8 0 0 1 .826-1.624 4.2 4.2 0 0 1 1.302-1.176 3.3 3.3 0 0 1 1.708-.448q1.022 0 1.778.476a4.25 4.25 0 0 1 1.288 1.232q.518.756.77 1.638a5.8 5.8 0 0 1 .266 1.694q0 .91-.294 1.806a5.5 5.5 0 0 1-.812 1.61 4.2 4.2 0 0 1-1.302 1.176 3.45 3.45 0 0 1-1.694.448m-3.122-5.04q.029.727.224 1.47.21.728.602 1.344.393.602.952.98.575.364 1.344.364.784 0 1.372-.392t.966-1.022q.393-.644.588-1.358.196-.728.196-1.386 0-.728-.21-1.456a4.6 4.6 0 0 0-.616-1.344 3.3 3.3 0 0 0-.98-.98 2.34 2.34 0 0 0-1.316-.378q-.798 0-1.386.406a3.3 3.3 0 0 0-.98 1.022 5.3 5.3 0 0 0-.756 2.73m-82.072 4.9a6.5 6.5 0 0 1 .14-1.554q.154-.672.462-1.19.322-.518.77-.896.448-.392 1.008-.686.532-.294 1.106-.532.574-.252 1.064-.546a2.5 2.5 0 0 0 .784-.714q.308-.434.308-1.078 0-.532-.238-.98a1.66 1.66 0 0 0-.7-.714q-.476-.28-1.204-.28-.714 0-1.274.238-.546.238-.924.574a6 6 0 0 0-.588.616l-.63-.616q.084-.098.336-.378.266-.28.7-.588a4.4 4.4 0 0 1 1.05-.518q.616-.224 1.428-.224 1.037 0 1.722.406.686.392 1.022 1.036.35.644.35 1.414 0 .743-.294 1.26a2.7 2.7 0 0 1-.742.854 5.7 5.7 0 0 1-.98.588l-.98.476q-.895.406-1.428.798t-.798.784q-.252.392-.336.784a4.5 4.5 0 0 0-.098.798h5.67V172zm8.135 0a6.5 6.5 0 0 1 .14-1.554q.154-.672.462-1.19.322-.518.77-.896.448-.392 1.008-.686.532-.294 1.106-.532.574-.252 1.064-.546a2.5 2.5 0 0 0 .784-.714q.308-.434.308-1.078 0-.532-.238-.98a1.66 1.66 0 0 0-.7-.714q-.476-.28-1.204-.28-.714 0-1.274.238-.546.238-.924.574a6 6 0 0 0-.588.616l-.63-.616q.084-.098.336-.378.266-.28.7-.588a4.4 4.4 0 0 1 1.05-.518q.616-.224 1.428-.224 1.037 0 1.722.406.686.392 1.022 1.036.35.644.35 1.414 0 .743-.294 1.26a2.7 2.7 0 0 1-.742.854 5.7 5.7 0 0 1-.98.588l-.98.476q-.895.406-1.428.798t-.798.784q-.252.392-.336.784a4.5 4.5 0 0 0-.098.798h5.67V172zm12.251.14q-1.008-.028-1.778-.49a4.2 4.2 0 0 1-1.288-1.204 5.9 5.9 0 0 1-.784-1.624 6 6 0 0 1-.266-1.722q0-.896.28-1.792a5.8 5.8 0 0 1 .826-1.624 4.2 4.2 0 0 1 1.302-1.176 3.3 3.3 0 0 1 1.708-.448q1.022 0 1.778.476.77.476 1.288 1.232a5.6 5.6 0 0 1 .77 1.638q.266.882.266 1.694 0 .91-.294 1.806a5.6 5.6 0 0 1-.812 1.61 4.25 4.25 0 0 1-1.302 1.176 3.45 3.45 0 0 1-1.694.448m-3.122-5.04q.027.727.224 1.47.21.728.602 1.344a3.4 3.4 0 0 0 .952.98q.573.364 1.344.364.784 0 1.372-.392t.966-1.022q.391-.644.588-1.358.196-.728.196-1.386 0-.728-.21-1.456a4.7 4.7 0 0 0-.616-1.344 3.3 3.3 0 0 0-.98-.98 2.34 2.34 0 0 0-1.316-.378q-.798 0-1.386.406a3.3 3.3 0 0 0-.98 1.022q-.378.63-.574 1.358a5.5 5.5 0 0 0-.182 1.372m-82.982 4.9a6.6 6.6 0 0 1 .14-1.554q.154-.672.462-1.19.323-.518.77-.896.448-.392 1.008-.686.533-.294 1.106-.532.575-.252 1.064-.546a2.5 2.5 0 0 0 .784-.714q.309-.434.308-1.078 0-.532-.238-.98a1.66 1.66 0 0 0-.7-.714q-.475-.28-1.204-.28-.713 0-1.274.238-.546.238-.924.574a6 6 0 0 0-.588.616l-.63-.616q.084-.098.336-.378.267-.28.7-.588a4.4 4.4 0 0 1 1.05-.518q.616-.224 1.428-.224 1.037 0 1.722.406.687.392 1.022 1.036.35.644.35 1.414 0 .743-.294 1.26a2.7 2.7 0 0 1-.742.854q-.447.336-.98.588l-.98.476q-.896.406-1.428.798t-.798.784q-.252.392-.336.784a4.6 4.6 0 0 0-.098.798h5.67V172zm12.251.14q-1.008-.028-1.778-.49a4.2 4.2 0 0 1-1.288-1.204 6 6 0 0 1-.784-1.624 6 6 0 0 1-.266-1.722q0-.896.28-1.792a5.8 5.8 0 0 1 .826-1.624 4.2 4.2 0 0 1 1.302-1.176 3.3 3.3 0 0 1 1.708-.448q1.022 0 1.778.476.77.476 1.288 1.232a5.6 5.6 0 0 1 .77 1.638q.266.882.266 1.694 0 .91-.294 1.806a5.6 5.6 0 0 1-.812 1.61 4.25 4.25 0 0 1-1.302 1.176 3.45 3.45 0 0 1-1.694.448m-3.122-5.04q.028.727.224 1.47.21.728.602 1.344.392.602.952.98.575.364 1.344.364.784 0 1.372-.392t.966-1.022q.391-.644.588-1.358.196-.728.196-1.386 0-.728-.21-1.456a4.6 4.6 0 0 0-.616-1.344 3.3 3.3 0 0 0-.98-.98 2.34 2.34 0 0 0-1.316-.378q-.798 0-1.386.406a3.3 3.3 0 0 0-.98 1.022 5.3 5.3 0 0 0-.756 2.73m12.692 5.04q-1.007-.028-1.778-.49a4.2 4.2 0 0 1-1.288-1.204 6 6 0 0 1-.784-1.624 6 6 0 0 1-.266-1.722 6 6 0 0 1 .28-1.792 5.8 5.8 0 0 1 .826-1.624 4.2 4.2 0 0 1 1.302-1.176 3.3 3.3 0 0 1 1.708-.448q1.023 0 1.778.476a4.25 4.25 0 0 1 1.288 1.232q.518.756.77 1.638a5.8 5.8 0 0 1 .266 1.694q0 .91-.294 1.806a5.5 5.5 0 0 1-.812 1.61 4.2 4.2 0 0 1-1.302 1.176 3.45 3.45 0 0 1-1.694.448m-3.122-5.04q.029.727.224 1.47.21.728.602 1.344.393.602.952.98.574.364 1.344.364.784 0 1.372-.392t.966-1.022q.393-.644.588-1.358.196-.728.196-1.386 0-.728-.21-1.456a4.6 4.6 0 0 0-.616-1.344 3.3 3.3 0 0 0-.98-.98 2.34 2.34 0 0 0-1.316-.378q-.798 0-1.386.406a3.3 3.3 0 0 0-.98 1.022 5.3 5.3 0 0 0-.756 2.73m-73.536 4.032V172h-4.634v-.868h1.89v-8.134q-.126.168-.378.378a5 5 0 0 1-.56.392 5 5 0 0 1-.658.308 1.8 1.8 0 0 1-.616.126v-.896q.378 0 .756-.196a5.3 5.3 0 0 0 1.232-.938l.224-.238h.966v9.198zm7.883-1.89q0 .869-.49 1.512a3.2 3.2 0 0 1-1.274 1.008 4.2 4.2 0 0 1-1.722.35q-.995 0-1.764-.392a3.3 3.3 0 0 1-1.218-1.064 2.6 2.6 0 0 1-.434-1.47q0-.63.294-1.134.307-.518.756-.868.462-.35.938-.504-.434-.182-.812-.476a2.4 2.4 0 0 1-.602-.714 1.8 1.8 0 0 1-.224-.896q0-.616.266-1.078.28-.475.728-.798.447-.336.994-.49a3.9 3.9 0 0 1 1.12-.168q.546 0 1.092.168.56.154 1.008.476.462.322.728.798.28.462.28 1.078 0 .49-.238.91-.225.406-.602.714a3.5 3.5 0 0 1-.826.476q.546.182.994.56.462.364.728.868.28.504.28 1.134m-.966-.07a1.7 1.7 0 0 0-.224-.882 1.9 1.9 0 0 0-.588-.658 2.8 2.8 0 0 0-.812-.406 2.77 2.77 0 0 0-2.058.126 2.36 2.36 0 0 0-.924.728q-.35.462-.35 1.106 0 .49.21.868.223.378.588.658.363.266.798.406.447.14.896.14.601 0 1.162-.252.573-.266.938-.742.363-.476.364-1.092m-4.634-4.536q0 .532.322.924.336.378.84.574t.98.196q.504 0 .994-.196.504-.21.826-.588.336-.392.336-.938 0-.532-.308-.91a1.9 1.9 0 0 0-.812-.574 2.8 2.8 0 0 0-2.086.014 1.9 1.9 0 0 0-.798.588 1.44 1.44 0 0 0-.294.91m11.084 7.504q-1.007-.028-1.778-.49a4.2 4.2 0 0 1-1.288-1.204 6 6 0 0 1-.784-1.624 6 6 0 0 1-.266-1.722 6 6 0 0 1 .28-1.792 5.8 5.8 0 0 1 .826-1.624 4.2 4.2 0 0 1 1.302-1.176 3.3 3.3 0 0 1 1.708-.448q1.023 0 1.778.476a4.25 4.25 0 0 1 1.288 1.232q.518.756.77 1.638a5.8 5.8 0 0 1 .266 1.694q0 .91-.294 1.806a5.5 5.5 0 0 1-.812 1.61 4.2 4.2 0 0 1-1.302 1.176 3.45 3.45 0 0 1-1.694.448m-3.122-5.04q.029.727.224 1.47.21.728.602 1.344.393.602.952.98.575.364 1.344.364.784 0 1.372-.392t.966-1.022q.393-.644.588-1.358.196-.728.196-1.386 0-.728-.21-1.456a4.6 4.6 0 0 0-.616-1.344 3.3 3.3 0 0 0-.98-.98 2.34 2.34 0 0 0-1.316-.378q-.798 0-1.386.406a3.3 3.3 0 0 0-.98 1.022 5.3 5.3 0 0 0-.756 2.73m-68.313 4.032V172h-4.634v-.868h1.89v-8.134q-.126.168-.378.378a5 5 0 0 1-.56.392 5 5 0 0 1-.658.308 1.8 1.8 0 0 1-.616.126v-.896q.378 0 .756-.196a5.4 5.4 0 0 0 1.232-.938l.224-.238h.966v9.198zm8.106-2.408q0 .938-.476 1.722a3.51 3.51 0 0 1-3.052 1.694q-1.035 0-1.848-.49-.798-.504-1.26-1.442t-.462-2.226q0-2.03.462-3.346.463-1.33 1.288-1.988a3 3 0 0 1 1.918-.658q.995 0 1.778.504.785.49 1.19 1.344l-.616.56a2.42 2.42 0 0 0-.938-1.134 2.44 2.44 0 0 0-1.414-.434q-.825 0-1.442.518-.615.518-.966 1.484-.336.966-.336 2.338.21-.546.616-.952t.952-.63q.56-.224 1.19-.224.953 0 1.722.448.785.449 1.232 1.218.462.756.462 1.694m-3.5 2.576q.7 0 1.288-.35a2.65 2.65 0 0 0 .938-.938q.364-.588.364-1.288t-.364-1.288a2.65 2.65 0 0 0-.938-.938 2.5 2.5 0 0 0-1.288-.35q-.713 0-1.316.35a2.66 2.66 0 0 0-.938.938q-.35.574-.35 1.288 0 .7.35 1.288.364.588.952.938a2.5 2.5 0 0 0 1.302.35m8.898.84q-1.008-.028-1.778-.49a4.2 4.2 0 0 1-1.288-1.204 5.9 5.9 0 0 1-.784-1.624 6 6 0 0 1-.266-1.722q0-.896.28-1.792a5.8 5.8 0 0 1 .826-1.624 4.2 4.2 0 0 1 1.302-1.176 3.3 3.3 0 0 1 1.708-.448q1.022 0 1.778.476.77.476 1.288 1.232a5.6 5.6 0 0 1 .77 1.638q.266.882.266 1.694 0 .91-.294 1.806a5.6 5.6 0 0 1-.812 1.61 4.25 4.25 0 0 1-1.302 1.176 3.45 3.45 0 0 1-1.694.448m-3.122-5.04q.027.727.224 1.47.21.728.602 1.344a3.4 3.4 0 0 0 .952.98q.573.364 1.344.364.783 0 1.372-.392.588-.392.966-1.022.392-.644.588-1.358.195-.728.196-1.386 0-.728-.21-1.456a4.7 4.7 0 0 0-.616-1.344 3.3 3.3 0 0 0-.98-.98 2.34 2.34 0 0 0-1.316-.378q-.798 0-1.386.406a3.3 3.3 0 0 0-.98 1.022q-.378.63-.574 1.358a5.5 5.5 0 0 0-.182 1.372m-67.622 4.032V172h-4.634v-.868h1.89v-8.134q-.126.168-.378.378a5 5 0 0 1-.56.392 5 5 0 0 1-.658.308q-.337.126-.616.126v-.896q.378 0 .756-.196a5.4 5.4 0 0 0 1.232-.938l.224-.238h.966v9.198zm5.475.868v-2.66h-4.886v-.854l5.18-6.426h.658v6.412h1.232v.868h-1.232V172zM424 168.472h3.948v-4.928zm11.373 3.668q-1.008-.028-1.778-.49a4.2 4.2 0 0 1-1.288-1.204 6 6 0 0 1-.784-1.624 6 6 0 0 1-.266-1.722q0-.896.28-1.792a5.8 5.8 0 0 1 .826-1.624 4.2 4.2 0 0 1 1.302-1.176 3.3 3.3 0 0 1 1.708-.448q1.022 0 1.778.476.77.476 1.288 1.232a5.6 5.6 0 0 1 .77 1.638q.266.882.266 1.694 0 .91-.294 1.806a5.6 5.6 0 0 1-.812 1.61 4.25 4.25 0 0 1-1.302 1.176 3.45 3.45 0 0 1-1.694.448m-3.122-5.04q.028.727.224 1.47.21.728.602 1.344.392.602.952.98.574.364 1.344.364.784 0 1.372-.392t.966-1.022q.392-.644.588-1.358.196-.728.196-1.386 0-.728-.21-1.456a4.6 4.6 0 0 0-.616-1.344 3.3 3.3 0 0 0-.98-.98 2.34 2.34 0 0 0-1.316-.378q-.798 0-1.386.406a3.3 3.3 0 0 0-.98 1.022 5.3 5.3 0 0 0-.756 2.73m-67.472 4.032V172h-4.634v-.868h1.89v-8.134q-.126.168-.378.378a5 5 0 0 1-.56.392 5 5 0 0 1-.658.308 1.8 1.8 0 0 1-.616.126v-.896q.378 0 .756-.196a5.3 5.3 0 0 0 1.232-.938l.224-.238h.966v9.198zm.953.868a6.5 6.5 0 0 1 .14-1.554q.153-.672.462-1.19.321-.518.77-.896.447-.392 1.008-.686.531-.294 1.106-.532.573-.252 1.064-.546.49-.294.784-.714.308-.434.308-1.078 0-.532-.238-.98a1.67 1.67 0 0 0-.7-.714q-.477-.28-1.204-.28-.714 0-1.274.238-.546.238-.924.574a6 6 0 0 0-.588.616l-.63-.616q.084-.098.336-.378a4.7 4.7 0 0 1 .7-.588 4.4 4.4 0 0 1 1.05-.518q.615-.224 1.428-.224 1.035 0 1.722.406.686.392 1.022 1.036.35.644.35 1.414 0 .743-.294 1.26a2.7 2.7 0 0 1-.742.854q-.449.336-.98.588l-.98.476q-.897.406-1.428.798-.532.392-.798.784-.252.392-.336.784a4.5 4.5 0 0 0-.098.798h5.67V172zm12.25.14q-1.007-.028-1.778-.49a4.2 4.2 0 0 1-1.288-1.204 6 6 0 0 1-.784-1.624 6 6 0 0 1-.266-1.722 6 6 0 0 1 .28-1.792 5.8 5.8 0 0 1 .826-1.624 4.2 4.2 0 0 1 1.302-1.176 3.3 3.3 0 0 1 1.708-.448q1.023 0 1.778.476a4.25 4.25 0 0 1 1.288 1.232q.518.756.77 1.638a5.8 5.8 0 0 1 .266 1.694q0 .91-.294 1.806a5.5 5.5 0 0 1-.812 1.61 4.2 4.2 0 0 1-1.302 1.176 3.45 3.45 0 0 1-1.694.448m-3.122-5.04q.029.727.224 1.47.21.728.602 1.344.393.602.952.98.575.364 1.344.364.784 0 1.372-.392t.966-1.022q.393-.644.588-1.358.196-.728.196-1.386 0-.728-.21-1.456a4.6 4.6 0 0 0-.616-1.344 3.3 3.3 0 0 0-.98-.98 2.34 2.34 0 0 0-1.316-.378q-.798 0-1.386.406a3.3 3.3 0 0 0-.98 1.022 5.3 5.3 0 0 0-.756 2.73m-68.278 4.032V172h-4.634v-.868h1.89v-8.134q-.126.168-.378.378a5 5 0 0 1-.56.392 5 5 0 0 1-.658.308 1.8 1.8 0 0 1-.616.126v-.896q.378 0 .756-.196a5.4 5.4 0 0 0 1.232-.938l.224-.238h.966v9.198zm5.027 1.008q-1.007-.028-1.778-.49a4.2 4.2 0 0 1-1.288-1.204 6 6 0 0 1-.784-1.624 6 6 0 0 1-.266-1.722 6 6 0 0 1 .28-1.792 5.8 5.8 0 0 1 .826-1.624 4.2 4.2 0 0 1 1.302-1.176 3.3 3.3 0 0 1 1.708-.448q1.023 0 1.778.476a4.25 4.25 0 0 1 1.288 1.232q.519.756.77 1.638a5.8 5.8 0 0 1 .266 1.694q0 .91-.294 1.806a5.5 5.5 0 0 1-.812 1.61 4.2 4.2 0 0 1-1.302 1.176 3.45 3.45 0 0 1-1.694.448m-3.122-5.04q.029.727.224 1.47.21.728.602 1.344.393.602.952.98.575.364 1.344.364.784 0 1.372-.392t.966-1.022q.393-.644.588-1.358.196-.728.196-1.386 0-.728-.21-1.456a4.6 4.6 0 0 0-.616-1.344 3.3 3.3 0 0 0-.98-.98 2.34 2.34 0 0 0-1.316-.378q-.798 0-1.386.406a3.3 3.3 0 0 0-.98 1.022 5.3 5.3 0 0 0-.756 2.73m12.693 5.04q-1.008-.028-1.778-.49a4.2 4.2 0 0 1-1.288-1.204 5.9 5.9 0 0 1-.784-1.624 6 6 0 0 1-.266-1.722q0-.896.28-1.792a5.8 5.8 0 0 1 .826-1.624 4.2 4.2 0 0 1 1.302-1.176 3.3 3.3 0 0 1 1.708-.448q1.022 0 1.778.476.77.476 1.288 1.232a5.6 5.6 0 0 1 .77 1.638q.266.882.266 1.694 0 .91-.294 1.806a5.6 5.6 0 0 1-.812 1.61 4.25 4.25 0 0 1-1.302 1.176 3.45 3.45 0 0 1-1.694.448m-3.122-5.04q.027.727.224 1.47.21.728.602 1.344a3.4 3.4 0 0 0 .952.98q.573.364 1.344.364.783 0 1.372-.392.588-.392.966-1.022.392-.644.588-1.358.196-.728.196-1.386 0-.728-.21-1.456a4.7 4.7 0 0 0-.616-1.344 3.3 3.3 0 0 0-.98-.98 2.34 2.34 0 0 0-1.316-.378q-.798 0-1.386.406a3.3 3.3 0 0 0-.98 1.022q-.378.63-.574 1.358a5.5 5.5 0 0 0-.182 1.372m-63.391 2.142q0 .869-.49 1.512a3.2 3.2 0 0 1-1.274 1.008 4.2 4.2 0 0 1-1.722.35q-.993 0-1.764-.392a3.3 3.3 0 0 1-1.218-1.064 2.6 2.6 0 0 1-.434-1.47q0-.63.294-1.134.309-.518.756-.868a3.2 3.2 0 0 1 .938-.504 3.6 3.6 0 0 1-.812-.476 2.4 2.4 0 0 1-.602-.714 1.8 1.8 0 0 1-.224-.896q0-.616.266-1.078.28-.475.728-.798.448-.336.994-.49a3.9 3.9 0 0 1 1.12-.168q.546 0 1.092.168.561.154 1.008.476.462.322.728.798.28.462.28 1.078 0 .49-.238.91a2.4 2.4 0 0 1-.602.714 3.4 3.4 0 0 1-.826.476q.547.182.994.56.462.364.728.868.28.504.28 1.134m-.966-.07q0-.504-.224-.882a1.9 1.9 0 0 0-.588-.658 2.8 2.8 0 0 0-.812-.406 2.78 2.78 0 0 0-2.058.126 2.4 2.4 0 0 0-.924.728q-.35.462-.35 1.106 0 .49.21.868.225.378.588.658.364.266.798.406.449.14.896.14.603 0 1.162-.252.575-.266.938-.742.364-.476.364-1.092m-4.634-4.536q0 .532.322.924.336.378.84.574t.98.196q.505 0 .994-.196.505-.21.826-.588.336-.392.336-.938a1.4 1.4 0 0 0-.308-.91 1.9 1.9 0 0 0-.812-.574 2.8 2.8 0 0 0-2.086.014 1.9 1.9 0 0 0-.798.588 1.44 1.44 0 0 0-.294.91m11.085 7.504q-1.008-.028-1.778-.49a4.2 4.2 0 0 1-1.288-1.204 6 6 0 0 1-.784-1.624 6 6 0 0 1-.266-1.722 6 6 0 0 1 .28-1.792 5.8 5.8 0 0 1 .826-1.624 4.2 4.2 0 0 1 1.302-1.176 3.3 3.3 0 0 1 1.708-.448q1.022 0 1.778.476a4.25 4.25 0 0 1 1.288 1.232q.518.756.77 1.638a5.8 5.8 0 0 1 .266 1.694q0 .91-.294 1.806a5.5 5.5 0 0 1-.812 1.61 4.2 4.2 0 0 1-1.302 1.176 3.45 3.45 0 0 1-1.694.448m-3.122-5.04q.029.727.224 1.47.21.728.602 1.344.393.602.952.98.575.364 1.344.364.784 0 1.372-.392t.966-1.022q.393-.644.588-1.358.196-.728.196-1.386 0-.728-.21-1.456a4.6 4.6 0 0 0-.616-1.344 3.3 3.3 0 0 0-.98-.98 2.34 2.34 0 0 0-1.316-.378q-.798 0-1.386.406a3.3 3.3 0 0 0-.98 1.022 5.3 5.3 0 0 0-.756 2.73" opacity="0.4"/><path fill="#FF5441" d="M196.778 168.682q0 .966-.49 1.75a3.5 3.5 0 0 1-1.302 1.246q-.811.462-1.848.462-1.12 0-1.946-.546-.812-.546-1.26-1.568t-.448-2.45q0-1.806.462-3.052.475-1.26 1.344-1.89.868-.644 2.044-.644.938 0 1.722.406.798.406 1.344 1.162l-1.078 1.176a2.4 2.4 0 0 0-.868-.812 2.26 2.26 0 0 0-1.148-.308q-.63 0-1.092.336t-.714.98q-.252.63-.28 1.526.196-.336.504-.574.308-.252.714-.378.406-.14.868-.14.994 0 1.778.448a3.2 3.2 0 0 1 1.232 1.19q.462.743.462 1.68m-3.64 1.876q.504 0 .924-.252a2.05 2.05 0 0 0 .672-.686q.252-.434.252-.938t-.252-.91a1.8 1.8 0 0 0-.672-.658 1.7 1.7 0 0 0-.91-.252q-.504 0-.924.252a1.76 1.76 0 0 0-.91 1.568q0 .504.252.938.252.42.672.686.42.252.896.252m9.106 1.582q-1.05-.014-1.862-.476a4.2 4.2 0 0 1-1.358-1.218 5.8 5.8 0 0 1-.826-1.624 6 6 0 0 1-.266-1.722q0-.896.294-1.792.293-.896.854-1.624.573-.743 1.372-1.176a3.6 3.6 0 0 1 1.792-.448q1.077 0 1.876.476.812.476 1.358 1.232a5.5 5.5 0 0 1 .812 1.638q.28.882.28 1.694 0 .91-.294 1.806a5.3 5.3 0 0 1-.868 1.61 4.5 4.5 0 0 1-1.358 1.176q-.798.434-1.806.448m-2.366-5.04q.013.588.154 1.176.153.574.434 1.064.294.49.742.798.448.294 1.036.294.63 0 1.078-.322.447-.322.728-.826.293-.504.434-1.078.14-.574.14-1.106 0-.588-.154-1.162a3.6 3.6 0 0 0-.448-1.078 2.4 2.4 0 0 0-.742-.784 1.75 1.75 0 0 0-1.036-.308q-.617 0-1.064.322t-.742.826a4.3 4.3 0 0 0-.42 1.078 4.6 4.6 0 0 0-.14 1.106M135.04 172v-2.254h-4.186v-1.68l4.774-6.006h1.288v5.992h1.232v1.694h-1.232V172zm-2.296-3.948h2.506v-3.164zm10.849 4.088q-1.05-.014-1.862-.476a4.25 4.25 0 0 1-1.358-1.218 5.8 5.8 0 0 1-.826-1.624 6 6 0 0 1-.266-1.722q0-.896.294-1.792a5.4 5.4 0 0 1 .854-1.624q.574-.743 1.372-1.176a3.6 3.6 0 0 1 1.792-.448q1.078 0 1.876.476a4.4 4.4 0 0 1 1.358 1.232q.546.756.812 1.638.28.882.28 1.694 0 .91-.294 1.806a5.3 5.3 0 0 1-.868 1.61 4.4 4.4 0 0 1-1.358 1.176q-.798.434-1.806.448m-2.366-5.04q.015.588.154 1.176.155.574.434 1.064.294.49.742.798.448.294 1.036.294.63 0 1.078-.322t.728-.826q.294-.504.434-1.078a4.45 4.45 0 0 0-.014-2.268 3.5 3.5 0 0 0-.448-1.078 2.4 2.4 0 0 0-.742-.784q-.433-.308-1.036-.308-.615 0-1.064.322a2.65 2.65 0 0 0-.742.826 4.4 4.4 0 0 0-.42 1.078q-.14.574-.14 1.106m-68.32 4.9q0-.854.112-1.498.112-.658.35-1.162.252-.518.644-.91a5.2 5.2 0 0 1 .966-.742q.49-.28 1.008-.546.532-.266.98-.56.462-.294.742-.672.294-.378.294-.924 0-.42-.182-.714a1.14 1.14 0 0 0-.504-.476 1.7 1.7 0 0 0-.784-.168q-.532 0-.994.196-.449.181-.812.462a5 5 0 0 0-.602.532l-1.176-1.232q.195-.224.532-.504.35-.28.826-.546a5.2 5.2 0 0 1 1.106-.434q.615-.168 1.358-.168 1.093 0 1.834.392a2.6 2.6 0 0 1 1.12 1.05q.392.658.392 1.526 0 .63-.21 1.12-.196.476-.546.84a5 5 0 0 1-.784.658q-.434.28-.896.546-.728.392-1.176.686a5 5 0 0 0-.714.546 2.3 2.3 0 0 0-.392.504 4 4 0 0 0-.224.504h4.956V172zm12.844.14q-1.05-.014-1.862-.476a4.25 4.25 0 0 1-1.358-1.218 5.8 5.8 0 0 1-.826-1.624 6 6 0 0 1-.266-1.722q0-.896.294-1.792t.854-1.624a4.3 4.3 0 0 1 1.372-1.176 3.6 3.6 0 0 1 1.792-.448q1.077 0 1.876.476.811.476 1.358 1.232.545.756.812 1.638.28.882.28 1.694 0 .91-.294 1.806a5.3 5.3 0 0 1-.868 1.61 4.45 4.45 0 0 1-1.358 1.176q-.798.434-1.806.448m-2.366-5.04q.013.588.154 1.176.153.574.434 1.064.294.49.742.798.447.294 1.036.294.63 0 1.078-.322.447-.322.728-.826.293-.504.434-1.078.14-.574.14-1.106 0-.588-.154-1.162a3.6 3.6 0 0 0-.448-1.078 2.4 2.4 0 0 0-.742-.784 1.75 1.75 0 0 0-1.036-.308q-.617 0-1.064.322-.449.322-.742.826a4.7 4.7 0 0 0-.56 2.184m-50.393 5.04q-1.05-.014-1.862-.476a4.25 4.25 0 0 1-1.358-1.218 5.8 5.8 0 0 1-.826-1.624 6 6 0 0 1-.266-1.722q0-.896.294-1.792t.854-1.624a4.3 4.3 0 0 1 1.372-1.176 3.6 3.6 0 0 1 1.792-.448q1.078 0 1.876.476.812.476 1.358 1.232t.812 1.638q.28.882.28 1.694 0 .91-.294 1.806a5.3 5.3 0 0 1-.868 1.61 4.45 4.45 0 0 1-1.358 1.176q-.798.434-1.806.448m-2.366-5.04q.014.588.154 1.176.153.574.434 1.064.294.49.742.798.448.294 1.036.294.63 0 1.078-.322.447-.322.728-.826.294-.504.434-1.078t.14-1.106q0-.588-.154-1.162a3.6 3.6 0 0 0-.448-1.078 2.4 2.4 0 0 0-.742-.784 1.75 1.75 0 0 0-1.036-.308q-.615 0-1.064.322-.448.322-.742.826a4.7 4.7 0 0 0-.56 2.184"/><path fill="#fff" d="M29.188 211v-9.414h8.1V211h-1.98v-7.668h-4.14V211zm10.494 0v-9.414h6.012v1.746h-4.032V211zm17.766-12.78L48.682 211h-2.196l8.766-12.78zm1.13 12.78v-9.414h2.053l3.24 5.814 3.258-5.814h2.016V211h-1.89v-6.624l-2.772 4.95H63.24l-2.79-4.95V211zm12.182.09v-1.764q.45 0 .81-.216.36-.234.63-.756.27-.54.432-1.494t.216-2.43l.126-2.844h6.714V211h-1.98v-7.668H74.72l-.036 1.278q-.072 1.89-.342 3.15-.27 1.242-.756 1.98-.468.72-1.188 1.044-.702.306-1.638.306"/><defs><filter id="a" width="619" height="110" x="171" y="64" color-interpolation-filters="sRGB" filterUnits="userSpaceOnUse"><feFlood flood-opacity="0" result="BackgroundImageFix"/><feColorMatrix in="SourceAlpha" result="hardAlpha" values="0 0 0 0 0 0 0 0 0 0 0 0 0 0 0 0 0 0 127 0"/><feOffset dx="4" dy="8"/><feGaussianBlur stdDeviation="20"/><feComposite in2="hardAlpha" operator="out"/><feColorMatrix values="0 0 0 0 0.219608 0 0 0 0 0.737255 0 0 0 0 0.886275 0 0 0 0.4 0"/><feBlend in2="BackgroundImageFix" result="effect1_dropShadow_3794_9568"/><feColorMatrix in="SourceAlpha" result="hardAlpha" values="0 0 0 0 0 0 0 0 0 0 0 0 0 0 0 0 0 0 127 0"/><feOffset dx="2" dy="4"/><feGaussianBlur stdDeviation="4"/><feComposite in2="hardAlpha" operator="out"/><feColorMatrix values="0 0 0 0 0.219608 0 0 0 0 0.737255 0 0 0 0 0.886275 0 0 0 0.2 0"/><feBlend in2="effect1_dropShadow_3794_9568" result="effect2_dropShadow_3794_9568"/><feBlend in="SourceGraphic" in2="effect2_dropShadow_3794_9568" result="shape"/></filter><filter id="b" width="265" height="110" x="0" y="64" color-interpolation-filters="sRGB" filterUnits="userSpaceOnUse"><feFlood flood-opacity="0" result="BackgroundImageFix"/><feColorMatrix in="SourceAlpha" result="hardAlpha" values="0 0 0 0 0 0 0 0 0 0 0 0 0 0 0 0 0 0 127 0"/><feOffset dx="4" dy="8"/><feGaussianBlur stdDeviation="20"/><feComposite in2="hardAlpha" operator="out"/><feColorMatrix values="0 0 0 0 1 0 0 0 0 0.329412 0 0 0 0 0.254902 0 0 0 0.4 0"/><feBlend in2="BackgroundImageFix" result="effect1_dropShadow_3794_9568"/><feColorMatrix in="SourceAlpha" result="hardAlpha" values="0 0 0 0 0 0 0 0 0 0 0 0 0 0 0 0 0 0 127 0"/><feOffset dx="2" dy="4"/><feGaussianBlur stdDeviation="4"/><feComposite in2="hardAlpha" operator="out"/><feColorMatrix values="0 0 0 0 1 0 0 0 0 0.329412 0 0 0 0 0.254902 0 0 0 0.2 0"/><feBlend in2="effect1_dropShadow_3794_9568" result="effect2_dropShadow_3794_9568"/><feBlend in="SourceGraphic" in2="effect2_dropShadow_3794_9568" result="shape"/></filter></defs></svg>