<svg width="790" height="218" viewBox="0 0 790 218" fill="none" xmlns="http://www.w3.org/2000/svg">
<g opacity="0.4">
<line x1="745.5" y1="80" x2="745.5" y2="142" stroke="white"/>
<line x1="710.051" y1="80" x2="710.051" y2="142" stroke="white"/>
<line x1="674.6" y1="80" x2="674.6" y2="142" stroke="white"/>
<line x1="639.15" y1="80" x2="639.15" y2="142" stroke="white"/>
<line x1="603.699" y1="80" x2="603.699" y2="142" stroke="white"/>
<line x1="568.25" y1="80" x2="568.25" y2="142" stroke="white"/>
<line x1="532.801" y1="80" x2="532.801" y2="142" stroke="white"/>
<line x1="497.35" y1="80" x2="497.35" y2="142" stroke="white"/>
<line x1="461.9" y1="80" x2="461.9" y2="142" stroke="white"/>
<line x1="426.449" y1="80" x2="426.449" y2="142" stroke="white"/>
<line x1="391" y1="80" x2="391" y2="142" stroke="white"/>
<line x1="355.551" y1="80" x2="355.551" y2="142" stroke="white"/>
<line x1="320.1" y1="80" x2="320.1" y2="142" stroke="white"/>
<line x1="284.65" y1="80" x2="284.65" y2="142" stroke="white"/>
<line x1="249.199" y1="80" x2="249.199" y2="142" stroke="white"/>
<line x1="213.75" y1="80" x2="213.75" y2="142" stroke="white"/>
<line x1="178.301" y1="80" x2="178.301" y2="142" stroke="white"/>
<line x1="142.85" y1="80" x2="142.85" y2="142" stroke="white"/>
<line x1="107.4" y1="80" x2="107.4" y2="142" stroke="white"/>
<line x1="71.9492" y1="80" x2="71.9492" y2="142" stroke="white"/>
<line x1="36.5" y1="80" x2="36.5" y2="142" stroke="white"/>
</g>
<g filter="url(#filter0_dd_3794_9568)">
<rect x="746" y="96" width="30" height="539" rx="8" transform="rotate(90 746 96)" fill="#38BCE2"/>
</g>
<g filter="url(#filter1_dd_3794_9568)">
<rect x="221" y="96" width="30" height="185" rx="8" transform="rotate(90 221 96)" fill="#FF5441"/>
</g>
<path d="M29.188 19L29.188 9.586L37.288 9.586V19H35.308V11.332L31.168 11.332L31.168 19H29.188ZM39.6821 19V9.586H41.7341L44.9741 15.4L48.2321 9.586H50.2481V19H48.3581V12.376L45.5861 17.326H44.3441L41.5541 12.376V19H39.6821ZM56.8496 19.18C56.1056 19.18 55.4396 19.054 54.8516 18.802C54.2636 18.538 53.7536 18.178 53.3216 17.722C52.9016 17.266 52.5776 16.75 52.3496 16.174C52.1216 15.586 52.0076 14.962 52.0076 14.302C52.0076 13.642 52.1216 13.018 52.3496 12.43C52.5776 11.842 52.9016 11.326 53.3216 10.882C53.7536 10.426 54.2636 10.072 54.8516 9.82C55.4516 9.556 56.1176 9.424 56.8496 9.424C57.5816 9.424 58.2416 9.556 58.8296 9.82C59.4296 10.072 59.9396 10.426 60.3596 10.882C60.7916 11.326 61.1216 11.842 61.3496 12.43C61.5776 13.018 61.6916 13.642 61.6916 14.302C61.6916 14.962 61.5776 15.586 61.3496 16.174C61.1216 16.75 60.7916 17.266 60.3596 17.722C59.9396 18.178 59.4296 18.538 58.8296 18.802C58.2416 19.054 57.5816 19.18 56.8496 19.18ZM54.0416 14.32C54.0416 14.92 54.1676 15.46 54.4196 15.94C54.6716 16.42 55.0076 16.798 55.4276 17.074C55.8476 17.35 56.3216 17.488 56.8496 17.488C57.3656 17.488 57.8336 17.35 58.2536 17.074C58.6856 16.786 59.0276 16.402 59.2796 15.922C59.5316 15.43 59.6576 14.89 59.6576 14.302C59.6576 13.702 59.5316 13.162 59.2796 12.682C59.0276 12.202 58.6856 11.824 58.2536 11.548C57.8336 11.26 57.3656 11.116 56.8496 11.116C56.3216 11.116 55.8476 11.26 55.4276 11.548C55.0076 11.836 54.6716 12.22 54.4196 12.7C54.1676 13.168 54.0416 13.708 54.0416 14.32ZM62.6918 19.09V17.326C62.9918 17.326 63.2618 17.254 63.5018 17.11C63.7418 16.954 63.9518 16.702 64.1318 16.354C64.3118 15.994 64.4558 15.496 64.5638 14.86C64.6718 14.224 64.7438 13.414 64.7798 12.43L64.9058 9.586L71.6198 9.586V19H69.6398V11.332L66.6518 11.332L66.6158 12.61C66.5678 13.87 66.4538 14.92 66.2738 15.76C66.0938 16.588 65.8418 17.248 65.5178 17.74C65.2058 18.22 64.8098 18.568 64.3298 18.784C63.8618 18.988 63.3158 19.09 62.6918 19.09ZM73.9946 19V9.586H75.9746V12.682L78.2246 12.682C79.3406 12.682 80.1866 12.964 80.7626 13.528C81.3506 14.092 81.6446 14.836 81.6446 15.76C81.6446 16.384 81.5186 16.942 81.2666 17.434C81.0146 17.926 80.6426 18.31 80.1506 18.586C79.6706 18.862 79.0706 19 78.3506 19H73.9946ZM75.9746 17.47H78.0446C78.4406 17.47 78.7586 17.398 78.9986 17.254C79.2386 17.098 79.4186 16.894 79.5386 16.642C79.6586 16.378 79.7186 16.096 79.7186 15.796C79.7186 15.496 79.6646 15.226 79.5566 14.986C79.4486 14.734 79.2686 14.536 79.0166 14.392C78.7766 14.236 78.4466 14.158 78.0266 14.158L75.9746 14.158V17.47ZM93.5183 6.22L84.7523 19L82.5563 19L91.3223 6.22L93.5183 6.22ZM94.4554 19.09V17.326C94.7554 17.326 95.0254 17.254 95.2654 17.11C95.5054 16.954 95.7154 16.702 95.8954 16.354C96.0754 15.994 96.2194 15.496 96.3274 14.86C96.4354 14.224 96.5074 13.414 96.5434 12.43L96.6694 9.586L103.383 9.586V19H101.403V11.332L98.4154 11.332L98.3794 12.61C98.3314 13.87 98.2174 14.92 98.0374 15.76C97.8574 16.588 97.6054 17.248 97.2814 17.74C96.9694 18.22 96.5734 18.568 96.0934 18.784C95.6254 18.988 95.0794 19.09 94.4554 19.09Z" fill="white"/>
<path opacity="0.4" d="M723.797 59.132L723.797 60L719.163 60L719.163 59.132L721.053 59.132L721.053 50.998C720.969 51.11 720.843 51.236 720.675 51.376C720.516 51.5067 720.33 51.6373 720.115 51.768C719.9 51.8893 719.681 51.992 719.457 52.076C719.233 52.16 719.028 52.202 718.841 52.202L718.841 51.306C719.093 51.306 719.345 51.2407 719.597 51.11C719.849 50.97 720.082 50.816 720.297 50.648C720.521 50.4707 720.698 50.312 720.829 50.172C720.969 50.0227 721.044 49.9433 721.053 49.934L722.019 49.934L722.019 59.132L723.797 59.132ZM728.824 60.14C728.152 60.1213 727.559 59.958 727.046 59.65C726.533 59.342 726.103 58.9407 725.758 58.446C725.413 57.942 725.151 57.4007 724.974 56.822C724.797 56.234 724.708 55.66 724.708 55.1C724.708 54.5027 724.801 53.9053 724.988 53.308C725.184 52.7107 725.459 52.1693 725.814 51.684C726.178 51.1893 726.612 50.7973 727.116 50.508C727.62 50.2093 728.189 50.06 728.824 50.06C729.505 50.06 730.098 50.2187 730.602 50.536C731.115 50.8533 731.545 51.264 731.89 51.768C732.235 52.272 732.492 52.818 732.66 53.406C732.837 53.994 732.926 54.5587 732.926 55.1C732.926 55.7067 732.828 56.3087 732.632 56.906C732.445 57.494 732.175 58.0307 731.82 58.516C731.465 59.0013 731.031 59.3933 730.518 59.692C730.014 59.9813 729.449 60.1307 728.824 60.14ZM725.702 55.1C725.721 55.5853 725.795 56.0753 725.926 56.57C726.066 57.0553 726.267 57.5033 726.528 57.914C726.789 58.3153 727.107 58.642 727.48 58.894C727.863 59.1367 728.311 59.258 728.824 59.258C729.347 59.258 729.804 59.1273 730.196 58.866C730.588 58.6047 730.91 58.264 731.162 57.844C731.423 57.4147 731.619 56.962 731.75 56.486C731.881 56.0007 731.946 55.5387 731.946 55.1C731.946 54.6147 731.876 54.1293 731.736 53.644C731.596 53.1493 731.391 52.7013 731.12 52.3C730.849 51.8893 730.523 51.5627 730.14 51.32C729.757 51.068 729.319 50.942 728.824 50.942C728.292 50.942 727.83 51.0773 727.438 51.348C727.046 51.6093 726.719 51.95 726.458 52.37C726.206 52.79 726.015 53.2427 725.884 53.728C725.763 54.204 725.702 54.6613 725.702 55.1ZM738.394 60.14C737.722 60.1213 737.13 59.958 736.616 59.65C736.103 59.342 735.674 58.9407 735.328 58.446C734.983 57.942 734.722 57.4007 734.544 56.822C734.367 56.234 734.278 55.66 734.278 55.1C734.278 54.5027 734.372 53.9053 734.558 53.308C734.754 52.7107 735.03 52.1693 735.384 51.684C735.748 51.1893 736.182 50.7973 736.686 50.508C737.19 50.2093 737.76 50.06 738.394 50.06C739.076 50.06 739.668 50.2187 740.172 50.536C740.686 50.8533 741.115 51.264 741.46 51.768C741.806 52.272 742.062 52.818 742.23 53.406C742.408 53.994 742.496 54.5587 742.496 55.1C742.496 55.7067 742.398 56.3087 742.202 56.906C742.016 57.494 741.745 58.0307 741.39 58.516C741.036 59.0013 740.602 59.3933 740.088 59.692C739.584 59.9813 739.02 60.1307 738.394 60.14ZM735.272 55.1C735.291 55.5853 735.366 56.0753 735.496 56.57C735.636 57.0553 735.837 57.5033 736.098 57.914C736.36 58.3153 736.677 58.642 737.05 58.894C737.433 59.1367 737.881 59.258 738.394 59.258C738.917 59.258 739.374 59.1273 739.766 58.866C740.158 58.6047 740.48 58.264 740.732 57.844C740.994 57.4147 741.19 56.962 741.32 56.486C741.451 56.0007 741.516 55.5387 741.516 55.1C741.516 54.6147 741.446 54.1293 741.306 53.644C741.166 53.1493 740.961 52.7013 740.69 52.3C740.42 51.8893 740.093 51.5627 739.71 51.32C739.328 51.068 738.889 50.942 738.394 50.942C737.862 50.942 737.4 51.0773 737.008 51.348C736.616 51.6093 736.29 51.95 736.028 52.37C735.776 52.79 735.585 53.2427 735.454 53.728C735.333 54.204 735.272 54.6613 735.272 55.1ZM747.965 60.14C747.293 60.1213 746.7 59.958 746.187 59.65C745.673 59.342 745.244 58.9407 744.899 58.446C744.553 57.942 744.292 57.4007 744.115 56.822C743.937 56.234 743.849 55.66 743.849 55.1C743.849 54.5027 743.942 53.9053 744.129 53.308C744.325 52.7107 744.6 52.1693 744.955 51.684C745.319 51.1893 745.753 50.7973 746.257 50.508C746.761 50.2093 747.33 50.06 747.965 50.06C748.646 50.06 749.239 50.2187 749.743 50.536C750.256 50.8533 750.685 51.264 751.031 51.768C751.376 52.272 751.633 52.818 751.801 53.406C751.978 53.994 752.067 54.5587 752.067 55.1C752.067 55.7067 751.969 56.3087 751.773 56.906C751.586 57.494 751.315 58.0307 750.961 58.516C750.606 59.0013 750.172 59.3933 749.659 59.692C749.155 59.9813 748.59 60.1307 747.965 60.14ZM744.843 55.1C744.861 55.5853 744.936 56.0753 745.067 56.57C745.207 57.0553 745.407 57.5033 745.669 57.914C745.93 58.3153 746.247 58.642 746.621 58.894C747.003 59.1367 747.451 59.258 747.965 59.258C748.487 59.258 748.945 59.1273 749.337 58.866C749.729 58.6047 750.051 58.264 750.303 57.844C750.564 57.4147 750.76 56.962 750.891 56.486C751.021 56.0007 751.087 55.5387 751.087 55.1C751.087 54.6147 751.017 54.1293 750.877 53.644C750.737 53.1493 750.531 52.7013 750.261 52.3C749.99 51.8893 749.663 51.5627 749.281 51.32C748.898 51.068 748.459 50.942 747.965 50.942C747.433 50.942 746.971 51.0773 746.579 51.348C746.187 51.6093 745.86 51.95 745.599 52.37C745.347 52.79 745.155 53.2427 745.025 53.728C744.903 54.204 744.843 54.6613 744.843 55.1Z" fill="white"/>
<path opacity="0.4" d="M648.629 53.406C648.629 52.7713 648.783 52.1973 649.091 51.684C649.399 51.1613 649.819 50.7507 650.351 50.452C650.892 50.144 651.489 49.99 652.143 49.99C652.852 49.99 653.473 50.158 654.005 50.494C654.537 50.8207 654.952 51.292 655.251 51.908C655.559 52.524 655.713 53.266 655.713 54.134C655.713 55.4873 655.559 56.6073 655.251 57.494C654.952 58.3807 654.527 59.0433 653.977 59.482C653.426 59.9207 652.782 60.14 652.045 60.14C651.391 60.14 650.803 59.9767 650.281 59.65C649.758 59.314 649.361 58.8567 649.091 58.278L649.693 57.732C649.898 58.1987 650.211 58.5767 650.631 58.866C651.06 59.146 651.536 59.286 652.059 59.286C652.609 59.286 653.09 59.118 653.501 58.782C653.911 58.4367 654.229 57.942 654.453 57.298C654.686 56.654 654.803 55.8747 654.803 54.96C654.672 55.3147 654.467 55.632 654.187 55.912C653.916 56.1827 653.594 56.3927 653.221 56.542C652.857 56.6913 652.465 56.766 652.045 56.766C651.41 56.766 650.831 56.6167 650.309 56.318C649.795 56.0193 649.385 55.6133 649.077 55.1C648.778 54.5867 648.629 54.022 648.629 53.406ZM652.129 50.816C651.662 50.816 651.233 50.9327 650.841 51.166C650.449 51.3993 650.136 51.712 649.903 52.104C649.669 52.496 649.553 52.9253 649.553 53.392C649.553 53.868 649.669 54.302 649.903 54.694C650.136 55.0767 650.449 55.3893 650.841 55.632C651.242 55.8653 651.676 55.982 652.143 55.982C652.619 55.982 653.053 55.8653 653.445 55.632C653.837 55.3893 654.149 55.0767 654.383 54.694C654.625 54.302 654.747 53.8727 654.747 53.406C654.747 52.9393 654.625 52.51 654.383 52.118C654.14 51.726 653.823 51.4133 653.431 51.18C653.039 50.9373 652.605 50.816 652.129 50.816ZM661.236 60.14C660.564 60.1213 659.972 59.958 659.458 59.65C658.945 59.342 658.516 58.9407 658.17 58.446C657.825 57.942 657.564 57.4007 657.386 56.822C657.209 56.234 657.12 55.66 657.12 55.1C657.12 54.5027 657.214 53.9053 657.4 53.308C657.596 52.7107 657.872 52.1693 658.226 51.684C658.59 51.1893 659.024 50.7973 659.528 50.508C660.032 50.2093 660.602 50.06 661.236 50.06C661.918 50.06 662.51 50.2187 663.014 50.536C663.528 50.8533 663.957 51.264 664.302 51.768C664.648 52.272 664.904 52.818 665.072 53.406C665.25 53.994 665.338 54.5587 665.338 55.1C665.338 55.7067 665.24 56.3087 665.044 56.906C664.858 57.494 664.587 58.0307 664.232 58.516C663.878 59.0013 663.444 59.3933 662.93 59.692C662.426 59.9813 661.862 60.1307 661.236 60.14ZM658.114 55.1C658.133 55.5853 658.208 56.0753 658.338 56.57C658.478 57.0553 658.679 57.5033 658.94 57.914C659.202 58.3153 659.519 58.642 659.892 58.894C660.275 59.1367 660.723 59.258 661.236 59.258C661.759 59.258 662.216 59.1273 662.608 58.866C663 58.6047 663.322 58.264 663.574 57.844C663.836 57.4147 664.032 56.962 664.162 56.486C664.293 56.0007 664.358 55.5387 664.358 55.1C664.358 54.6147 664.288 54.1293 664.148 53.644C664.008 53.1493 663.803 52.7013 663.532 52.3C663.262 51.8893 662.935 51.5627 662.552 51.32C662.17 51.068 661.731 50.942 661.236 50.942C660.704 50.942 660.242 51.0773 659.85 51.348C659.458 51.6093 659.132 51.95 658.87 52.37C658.618 52.79 658.427 53.2427 658.296 53.728C658.175 54.204 658.114 54.6613 658.114 55.1ZM670.807 60.14C670.135 60.1213 669.542 59.958 669.029 59.65C668.515 59.342 668.086 58.9407 667.741 58.446C667.395 57.942 667.134 57.4007 666.957 56.822C666.779 56.234 666.691 55.66 666.691 55.1C666.691 54.5027 666.784 53.9053 666.971 53.308C667.167 52.7107 667.442 52.1693 667.797 51.684C668.161 51.1893 668.595 50.7973 669.099 50.508C669.603 50.2093 670.172 50.06 670.807 50.06C671.488 50.06 672.081 50.2187 672.585 50.536C673.098 50.8533 673.527 51.264 673.873 51.768C674.218 52.272 674.475 52.818 674.643 53.406C674.82 53.994 674.909 54.5587 674.909 55.1C674.909 55.7067 674.811 56.3087 674.615 56.906C674.428 57.494 674.157 58.0307 673.803 58.516C673.448 59.0013 673.014 59.3933 672.501 59.692C671.997 59.9813 671.432 60.1307 670.807 60.14ZM667.685 55.1C667.703 55.5853 667.778 56.0753 667.909 56.57C668.049 57.0553 668.249 57.5033 668.511 57.914C668.772 58.3153 669.089 58.642 669.463 58.894C669.845 59.1367 670.293 59.258 670.807 59.258C671.329 59.258 671.787 59.1273 672.179 58.866C672.571 58.6047 672.893 58.264 673.145 57.844C673.406 57.4147 673.602 56.962 673.733 56.486C673.863 56.0007 673.929 55.5387 673.929 55.1C673.929 54.6147 673.859 54.1293 673.719 53.644C673.579 53.1493 673.373 52.7013 673.103 52.3C672.832 51.8893 672.505 51.5627 672.123 51.32C671.74 51.068 671.301 50.942 670.807 50.942C670.275 50.942 669.813 51.0773 669.421 51.348C669.029 51.6093 668.702 51.95 668.441 52.37C668.189 52.79 667.997 53.2427 667.867 53.728C667.745 54.204 667.685 54.6613 667.685 55.1Z" fill="white"/>
<path opacity="0.4" d="M585.482 57.242C585.482 57.8207 585.319 58.3247 584.992 58.754C584.675 59.1833 584.25 59.5193 583.718 59.762C583.195 59.9953 582.621 60.112 581.996 60.112C581.333 60.112 580.745 59.9813 580.232 59.72C579.719 59.4493 579.313 59.0947 579.014 58.656C578.725 58.2173 578.58 57.7273 578.58 57.186C578.58 56.766 578.678 56.388 578.874 56.052C579.079 55.7067 579.331 55.4173 579.63 55.184C579.938 54.9507 580.251 54.7827 580.568 54.68C580.279 54.5587 580.008 54.4 579.756 54.204C579.504 53.9987 579.303 53.7607 579.154 53.49C579.005 53.2193 578.93 52.9207 578.93 52.594C578.93 52.1833 579.019 51.824 579.196 51.516C579.383 51.1987 579.625 50.9327 579.924 50.718C580.223 50.494 580.554 50.3307 580.918 50.228C581.291 50.116 581.665 50.06 582.038 50.06C582.402 50.06 582.766 50.116 583.13 50.228C583.503 50.3307 583.839 50.4893 584.138 50.704C584.446 50.9187 584.689 51.1847 584.866 51.502C585.053 51.81 585.146 52.1693 585.146 52.58C585.146 52.9067 585.067 53.21 584.908 53.49C584.759 53.7607 584.558 53.9987 584.306 54.204C584.054 54.4 583.779 54.5587 583.48 54.68C583.844 54.8013 584.175 54.988 584.474 55.24C584.782 55.4827 585.025 55.772 585.202 56.108C585.389 56.444 585.482 56.822 585.482 57.242ZM584.516 57.172C584.516 56.836 584.441 56.542 584.292 56.29C584.152 56.0287 583.956 55.8093 583.704 55.632C583.461 55.4547 583.191 55.3193 582.892 55.226C582.603 55.1327 582.309 55.086 582.01 55.086C581.609 55.086 581.217 55.1747 580.834 55.352C580.461 55.52 580.153 55.7627 579.91 56.08C579.677 56.388 579.56 56.7567 579.56 57.186C579.56 57.5127 579.63 57.802 579.77 58.054C579.919 58.306 580.115 58.5253 580.358 58.712C580.601 58.8893 580.867 59.0247 581.156 59.118C581.455 59.2113 581.753 59.258 582.052 59.258C582.453 59.258 582.841 59.174 583.214 59.006C583.597 58.8287 583.909 58.5813 584.152 58.264C584.395 57.9467 584.516 57.5827 584.516 57.172ZM579.882 52.636C579.882 52.9907 579.989 53.2987 580.204 53.56C580.428 53.812 580.708 54.0033 581.044 54.134C581.38 54.2647 581.707 54.33 582.024 54.33C582.36 54.33 582.691 54.2647 583.018 54.134C583.354 53.994 583.629 53.798 583.844 53.546C584.068 53.2847 584.18 52.972 584.18 52.608C584.18 52.2533 584.077 51.95 583.872 51.698C583.667 51.446 583.396 51.2547 583.06 51.124C582.733 50.9933 582.383 50.928 582.01 50.928C581.655 50.928 581.31 50.998 580.974 51.138C580.647 51.2687 580.381 51.4647 580.176 51.726C579.98 51.978 579.882 52.2813 579.882 52.636ZM590.967 60.14C590.295 60.1213 589.702 59.958 589.189 59.65C588.675 59.342 588.246 58.9407 587.901 58.446C587.555 57.942 587.294 57.4007 587.117 56.822C586.939 56.234 586.851 55.66 586.851 55.1C586.851 54.5027 586.944 53.9053 587.131 53.308C587.327 52.7107 587.602 52.1693 587.957 51.684C588.321 51.1893 588.755 50.7973 589.259 50.508C589.763 50.2093 590.332 50.06 590.967 50.06C591.648 50.06 592.241 50.2187 592.745 50.536C593.258 50.8533 593.687 51.264 594.033 51.768C594.378 52.272 594.635 52.818 594.803 53.406C594.98 53.994 595.069 54.5587 595.069 55.1C595.069 55.7067 594.971 56.3087 594.775 56.906C594.588 57.494 594.317 58.0307 593.963 58.516C593.608 59.0013 593.174 59.3933 592.661 59.692C592.157 59.9813 591.592 60.1307 590.967 60.14ZM587.845 55.1C587.863 55.5853 587.938 56.0753 588.069 56.57C588.209 57.0553 588.409 57.5033 588.671 57.914C588.932 58.3153 589.249 58.642 589.623 58.894C590.005 59.1367 590.453 59.258 590.967 59.258C591.489 59.258 591.947 59.1273 592.339 58.866C592.731 58.6047 593.053 58.264 593.305 57.844C593.566 57.4147 593.762 56.962 593.893 56.486C594.023 56.0007 594.089 55.5387 594.089 55.1C594.089 54.6147 594.019 54.1293 593.879 53.644C593.739 53.1493 593.533 52.7013 593.263 52.3C592.992 51.8893 592.665 51.5627 592.283 51.32C591.9 51.068 591.461 50.942 590.967 50.942C590.435 50.942 589.973 51.0773 589.581 51.348C589.189 51.6093 588.862 51.95 588.601 52.37C588.349 52.79 588.157 53.2427 588.027 53.728C587.905 54.204 587.845 54.6613 587.845 55.1ZM600.537 60.14C599.865 60.1213 599.272 59.958 598.759 59.65C598.246 59.342 597.816 58.9407 597.471 58.446C597.126 57.942 596.864 57.4007 596.687 56.822C596.51 56.234 596.421 55.66 596.421 55.1C596.421 54.5027 596.514 53.9053 596.701 53.308C596.897 52.7107 597.172 52.1693 597.527 51.684C597.891 51.1893 598.325 50.7973 598.829 50.508C599.333 50.2093 599.902 50.06 600.537 50.06C601.218 50.06 601.811 50.2187 602.315 50.536C602.828 50.8533 603.258 51.264 603.603 51.768C603.948 52.272 604.205 52.818 604.373 53.406C604.55 53.994 604.639 54.5587 604.639 55.1C604.639 55.7067 604.541 56.3087 604.345 56.906C604.158 57.494 603.888 58.0307 603.533 58.516C603.178 59.0013 602.744 59.3933 602.231 59.692C601.727 59.9813 601.162 60.1307 600.537 60.14ZM597.415 55.1C597.434 55.5853 597.508 56.0753 597.639 56.57C597.779 57.0553 597.98 57.5033 598.241 57.914C598.502 58.3153 598.82 58.642 599.193 58.894C599.576 59.1367 600.024 59.258 600.537 59.258C601.06 59.258 601.517 59.1273 601.909 58.866C602.301 58.6047 602.623 58.264 602.875 57.844C603.136 57.4147 603.332 56.962 603.463 56.486C603.594 56.0007 603.659 55.5387 603.659 55.1C603.659 54.6147 603.589 54.1293 603.449 53.644C603.309 53.1493 603.104 52.7013 602.833 52.3C602.562 51.8893 602.236 51.5627 601.853 51.32C601.47 51.068 601.032 50.942 600.537 50.942C600.005 50.942 599.543 51.0773 599.151 51.348C598.759 51.6093 598.432 51.95 598.171 52.37C597.919 52.79 597.728 53.2427 597.597 53.728C597.476 54.204 597.415 54.6613 597.415 55.1Z" fill="white"/>
<path opacity="0.4" d="M514.558 50.942L509.196 50.942L509.196 50.06L516.07 50.06L511.03 60L509.966 60L514.558 50.942ZM520.686 60.14C520.014 60.1213 519.422 59.958 518.908 59.65C518.395 59.342 517.966 58.9407 517.62 58.446C517.275 57.942 517.014 57.4007 516.836 56.822C516.659 56.234 516.57 55.66 516.57 55.1C516.57 54.5027 516.664 53.9053 516.85 53.308C517.046 52.7107 517.322 52.1693 517.676 51.684C518.04 51.1893 518.474 50.7973 518.978 50.508C519.482 50.2093 520.052 50.06 520.686 50.06C521.368 50.06 521.96 50.2187 522.464 50.536C522.978 50.8533 523.407 51.264 523.752 51.768C524.098 52.272 524.354 52.818 524.522 53.406C524.7 53.994 524.788 54.5587 524.788 55.1C524.788 55.7067 524.69 56.3087 524.494 56.906C524.308 57.494 524.037 58.0307 523.682 58.516C523.328 59.0013 522.894 59.3933 522.38 59.692C521.876 59.9813 521.312 60.1307 520.686 60.14ZM517.564 55.1C517.583 55.5853 517.658 56.0753 517.788 56.57C517.928 57.0553 518.129 57.5033 518.39 57.914C518.652 58.3153 518.969 58.642 519.342 58.894C519.725 59.1367 520.173 59.258 520.686 59.258C521.209 59.258 521.666 59.1273 522.058 58.866C522.45 58.6047 522.772 58.264 523.024 57.844C523.286 57.4147 523.482 56.962 523.612 56.486C523.743 56.0007 523.808 55.5387 523.808 55.1C523.808 54.6147 523.738 54.1293 523.598 53.644C523.458 53.1493 523.253 52.7013 522.982 52.3C522.712 51.8893 522.385 51.5627 522.002 51.32C521.62 51.068 521.181 50.942 520.686 50.942C520.154 50.942 519.692 51.0773 519.3 51.348C518.908 51.6093 518.582 51.95 518.32 52.37C518.068 52.79 517.877 53.2427 517.746 53.728C517.625 54.204 517.564 54.6613 517.564 55.1ZM530.257 60.14C529.585 60.1213 528.992 59.958 528.479 59.65C527.965 59.342 527.536 58.9407 527.191 58.446C526.845 57.942 526.584 57.4007 526.407 56.822C526.229 56.234 526.141 55.66 526.141 55.1C526.141 54.5027 526.234 53.9053 526.421 53.308C526.617 52.7107 526.892 52.1693 527.247 51.684C527.611 51.1893 528.045 50.7973 528.549 50.508C529.053 50.2093 529.622 50.06 530.257 50.06C530.938 50.06 531.531 50.2187 532.035 50.536C532.548 50.8533 532.977 51.264 533.323 51.768C533.668 52.272 533.925 52.818 534.093 53.406C534.27 53.994 534.359 54.5587 534.359 55.1C534.359 55.7067 534.261 56.3087 534.065 56.906C533.878 57.494 533.607 58.0307 533.253 58.516C532.898 59.0013 532.464 59.3933 531.951 59.692C531.447 59.9813 530.882 60.1307 530.257 60.14ZM527.135 55.1C527.153 55.5853 527.228 56.0753 527.359 56.57C527.499 57.0553 527.699 57.5033 527.961 57.914C528.222 58.3153 528.539 58.642 528.913 58.894C529.295 59.1367 529.743 59.258 530.257 59.258C530.779 59.258 531.237 59.1273 531.629 58.866C532.021 58.6047 532.343 58.264 532.595 57.844C532.856 57.4147 533.052 56.962 533.183 56.486C533.313 56.0007 533.379 55.5387 533.379 55.1C533.379 54.6147 533.309 54.1293 533.169 53.644C533.029 53.1493 532.823 52.7013 532.553 52.3C532.282 51.8893 531.955 51.5627 531.573 51.32C531.19 51.068 530.751 50.942 530.257 50.942C529.725 50.942 529.263 51.0773 528.871 51.348C528.479 51.6093 528.152 51.95 527.891 52.37C527.639 52.79 527.447 53.2427 527.317 53.728C527.195 54.204 527.135 54.6613 527.135 55.1Z" fill="white"/>
<path opacity="0.4" d="M446.237 56.724C446.237 57.3493 446.078 57.9233 445.761 58.446C445.453 58.9593 445.033 59.37 444.501 59.678C443.969 59.986 443.372 60.14 442.709 60.14C442.018 60.14 441.402 59.9767 440.861 59.65C440.329 59.314 439.909 58.8333 439.601 58.208C439.293 57.5827 439.139 56.8407 439.139 55.982C439.139 54.6287 439.293 53.5133 439.601 52.636C439.909 51.7493 440.338 51.0867 440.889 50.648C441.44 50.2093 442.079 49.99 442.807 49.99C443.47 49.99 444.062 50.158 444.585 50.494C445.108 50.8207 445.504 51.2687 445.775 51.838L445.159 52.398C444.963 51.922 444.65 51.544 444.221 51.264C443.801 50.9747 443.33 50.83 442.807 50.83C442.256 50.83 441.776 51.0027 441.365 51.348C440.954 51.6933 440.632 52.188 440.399 52.832C440.175 53.476 440.063 54.2553 440.063 55.17C440.203 54.806 440.408 54.4887 440.679 54.218C440.95 53.9473 441.267 53.7373 441.631 53.588C442.004 53.4387 442.401 53.364 442.821 53.364C443.456 53.364 444.03 53.5133 444.543 53.812C445.066 54.1107 445.476 54.5167 445.775 55.03C446.083 55.534 446.237 56.0987 446.237 56.724ZM442.737 59.3C443.204 59.3 443.633 59.1833 444.025 58.95C444.417 58.7167 444.73 58.404 444.963 58.012C445.206 57.62 445.327 57.1907 445.327 56.724C445.327 56.2573 445.206 55.828 444.963 55.436C444.73 55.044 444.417 54.7313 444.025 54.498C443.633 54.2647 443.204 54.148 442.737 54.148C442.261 54.148 441.822 54.2647 441.421 54.498C441.029 54.7313 440.716 55.044 440.483 55.436C440.25 55.8187 440.133 56.248 440.133 56.724C440.133 57.1907 440.25 57.62 440.483 58.012C440.726 58.404 441.043 58.7167 441.435 58.95C441.827 59.1833 442.261 59.3 442.737 59.3ZM451.635 60.14C450.963 60.1213 450.37 59.958 449.857 59.65C449.343 59.342 448.914 58.9407 448.569 58.446C448.223 57.942 447.962 57.4007 447.785 56.822C447.607 56.234 447.519 55.66 447.519 55.1C447.519 54.5027 447.612 53.9053 447.799 53.308C447.995 52.7107 448.27 52.1693 448.625 51.684C448.989 51.1893 449.423 50.7973 449.927 50.508C450.431 50.2093 451 50.06 451.635 50.06C452.316 50.06 452.909 50.2187 453.413 50.536C453.926 50.8533 454.355 51.264 454.701 51.768C455.046 52.272 455.303 52.818 455.471 53.406C455.648 53.994 455.737 54.5587 455.737 55.1C455.737 55.7067 455.639 56.3087 455.443 56.906C455.256 57.494 454.985 58.0307 454.631 58.516C454.276 59.0013 453.842 59.3933 453.329 59.692C452.825 59.9813 452.26 60.1307 451.635 60.14ZM448.513 55.1C448.531 55.5853 448.606 56.0753 448.737 56.57C448.877 57.0553 449.077 57.5033 449.339 57.914C449.6 58.3153 449.917 58.642 450.291 58.894C450.673 59.1367 451.121 59.258 451.635 59.258C452.157 59.258 452.615 59.1273 453.007 58.866C453.399 58.6047 453.721 58.264 453.973 57.844C454.234 57.4147 454.43 56.962 454.561 56.486C454.691 56.0007 454.757 55.5387 454.757 55.1C454.757 54.6147 454.687 54.1293 454.547 53.644C454.407 53.1493 454.201 52.7013 453.931 52.3C453.66 51.8893 453.333 51.5627 452.951 51.32C452.568 51.068 452.129 50.942 451.635 50.942C451.103 50.942 450.641 51.0773 450.249 51.348C449.857 51.6093 449.53 51.95 449.269 52.37C449.017 52.79 448.825 53.2427 448.695 53.728C448.573 54.204 448.513 54.6613 448.513 55.1ZM461.205 60.14C460.533 60.1213 459.94 59.958 459.427 59.65C458.914 59.342 458.484 58.9407 458.139 58.446C457.794 57.942 457.532 57.4007 457.355 56.822C457.178 56.234 457.089 55.66 457.089 55.1C457.089 54.5027 457.182 53.9053 457.369 53.308C457.565 52.7107 457.84 52.1693 458.195 51.684C458.559 51.1893 458.993 50.7973 459.497 50.508C460.001 50.2093 460.57 50.06 461.205 50.06C461.886 50.06 462.479 50.2187 462.983 50.536C463.496 50.8533 463.926 51.264 464.271 51.768C464.616 52.272 464.873 52.818 465.041 53.406C465.218 53.994 465.307 54.5587 465.307 55.1C465.307 55.7067 465.209 56.3087 465.013 56.906C464.826 57.494 464.556 58.0307 464.201 58.516C463.846 59.0013 463.412 59.3933 462.899 59.692C462.395 59.9813 461.83 60.1307 461.205 60.14ZM458.083 55.1C458.102 55.5853 458.176 56.0753 458.307 56.57C458.447 57.0553 458.648 57.5033 458.909 57.914C459.17 58.3153 459.488 58.642 459.861 58.894C460.244 59.1367 460.692 59.258 461.205 59.258C461.728 59.258 462.185 59.1273 462.577 58.866C462.969 58.6047 463.291 58.264 463.543 57.844C463.804 57.4147 464 56.962 464.131 56.486C464.262 56.0007 464.327 55.5387 464.327 55.1C464.327 54.6147 464.257 54.1293 464.117 53.644C463.977 53.1493 463.772 52.7013 463.501 52.3C463.23 51.8893 462.904 51.5627 462.521 51.32C462.138 51.068 461.7 50.942 461.205 50.942C460.673 50.942 460.211 51.0773 459.819 51.348C459.427 51.6093 459.1 51.95 458.839 52.37C458.587 52.79 458.396 53.2427 458.265 53.728C458.144 54.204 458.083 54.6613 458.083 55.1Z" fill="white"/>
<path opacity="0.4" d="M372.792 60.14C372.083 60.14 371.443 59.9673 370.874 59.622C370.314 59.2673 369.889 58.8007 369.6 58.222L370.244 57.746C370.496 58.2033 370.851 58.572 371.308 58.852C371.765 59.132 372.265 59.272 372.806 59.272C373.273 59.272 373.688 59.1693 374.052 58.964C374.425 58.7587 374.719 58.4787 374.934 58.124C375.158 57.76 375.27 57.34 375.27 56.864C375.27 56.4067 375.163 56.0053 374.948 55.66C374.733 55.3053 374.449 55.03 374.094 54.834C373.739 54.6287 373.338 54.526 372.89 54.526C372.461 54.526 372.05 54.624 371.658 54.82C371.266 55.016 370.949 55.2913 370.706 55.646L369.81 55.646L370.93 50.06L375.732 50.06L375.732 50.942L371.644 50.942L370.944 54.512C371.187 54.2507 371.485 54.05 371.84 53.91C372.204 53.7607 372.591 53.686 373.002 53.686C373.609 53.686 374.155 53.8213 374.64 54.092C375.135 54.3627 375.522 54.736 375.802 55.212C376.091 55.6787 376.236 56.2247 376.236 56.85C376.236 57.494 376.082 58.068 375.774 58.572C375.466 59.0667 375.051 59.454 374.528 59.734C374.015 60.0047 373.436 60.14 372.792 60.14ZM381.607 60.14C380.935 60.1213 380.343 59.958 379.829 59.65C379.316 59.342 378.887 58.9407 378.541 58.446C378.196 57.942 377.935 57.4007 377.757 56.822C377.58 56.234 377.491 55.66 377.491 55.1C377.491 54.5027 377.585 53.9053 377.771 53.308C377.967 52.7107 378.243 52.1693 378.597 51.684C378.961 51.1893 379.395 50.7973 379.899 50.508C380.403 50.2093 380.973 50.06 381.607 50.06C382.289 50.06 382.881 50.2187 383.385 50.536C383.899 50.8533 384.328 51.264 384.673 51.768C385.019 52.272 385.275 52.818 385.443 53.406C385.621 53.994 385.709 54.5587 385.709 55.1C385.709 55.7067 385.611 56.3087 385.415 56.906C385.229 57.494 384.958 58.0307 384.603 58.516C384.249 59.0013 383.815 59.3933 383.301 59.692C382.797 59.9813 382.233 60.1307 381.607 60.14ZM378.485 55.1C378.504 55.5853 378.579 56.0753 378.709 56.57C378.849 57.0553 379.05 57.5033 379.311 57.914C379.573 58.3153 379.89 58.642 380.263 58.894C380.646 59.1367 381.094 59.258 381.607 59.258C382.13 59.258 382.587 59.1273 382.979 58.866C383.371 58.6047 383.693 58.264 383.945 57.844C384.207 57.4147 384.403 56.962 384.533 56.486C384.664 56.0007 384.729 55.5387 384.729 55.1C384.729 54.6147 384.659 54.1293 384.519 53.644C384.379 53.1493 384.174 52.7013 383.903 52.3C383.633 51.8893 383.306 51.5627 382.923 51.32C382.541 51.068 382.102 50.942 381.607 50.942C381.075 50.942 380.613 51.0773 380.221 51.348C379.829 51.6093 379.503 51.95 379.241 52.37C378.989 52.79 378.798 53.2427 378.667 53.728C378.546 54.204 378.485 54.6613 378.485 55.1ZM391.178 60.14C390.506 60.1213 389.913 59.958 389.4 59.65C388.886 59.342 388.457 58.9407 388.112 58.446C387.766 57.942 387.505 57.4007 387.328 56.822C387.15 56.234 387.062 55.66 387.062 55.1C387.062 54.5027 387.155 53.9053 387.342 53.308C387.538 52.7107 387.813 52.1693 388.168 51.684C388.532 51.1893 388.966 50.7973 389.47 50.508C389.974 50.2093 390.543 50.06 391.178 50.06C391.859 50.06 392.452 50.2187 392.956 50.536C393.469 50.8533 393.898 51.264 394.244 51.768C394.589 52.272 394.846 52.818 395.014 53.406C395.191 53.994 395.28 54.5587 395.28 55.1C395.28 55.7067 395.182 56.3087 394.986 56.906C394.799 57.494 394.528 58.0307 394.174 58.516C393.819 59.0013 393.385 59.3933 392.872 59.692C392.368 59.9813 391.803 60.1307 391.178 60.14ZM388.056 55.1C388.074 55.5853 388.149 56.0753 388.28 56.57C388.42 57.0553 388.62 57.5033 388.882 57.914C389.143 58.3153 389.46 58.642 389.834 58.894C390.216 59.1367 390.664 59.258 391.178 59.258C391.7 59.258 392.158 59.1273 392.55 58.866C392.942 58.6047 393.264 58.264 393.516 57.844C393.777 57.4147 393.973 56.962 394.104 56.486C394.234 56.0007 394.3 55.5387 394.3 55.1C394.3 54.6147 394.23 54.1293 394.09 53.644C393.95 53.1493 393.744 52.7013 393.474 52.3C393.203 51.8893 392.876 51.5627 392.494 51.32C392.111 51.068 391.672 50.942 391.178 50.942C390.646 50.942 390.184 51.0773 389.792 51.348C389.4 51.6093 389.073 51.95 388.812 52.37C388.56 52.79 388.368 53.2427 388.238 53.728C388.116 54.204 388.056 54.6613 388.056 55.1Z" fill="white"/>
<path opacity="0.4" d="M304.495 60L304.495 57.34L299.609 57.34L299.609 56.486L304.789 50.06L305.447 50.06L305.447 56.472L306.679 56.472L306.679 57.34L305.447 57.34L305.447 60L304.495 60ZM300.631 56.472L304.579 56.472L304.579 51.544L300.631 56.472ZM312.004 60.14C311.332 60.1213 310.739 59.958 310.226 59.65C309.712 59.342 309.283 58.9407 308.938 58.446C308.592 57.942 308.331 57.4007 308.154 56.822C307.976 56.234 307.888 55.66 307.888 55.1C307.888 54.5027 307.981 53.9053 308.168 53.308C308.364 52.7107 308.639 52.1693 308.994 51.684C309.358 51.1893 309.792 50.7973 310.296 50.508C310.8 50.2093 311.369 50.06 312.004 50.06C312.685 50.06 313.278 50.2187 313.782 50.536C314.295 50.8533 314.724 51.264 315.07 51.768C315.415 52.272 315.672 52.818 315.84 53.406C316.017 53.994 316.106 54.5587 316.106 55.1C316.106 55.7067 316.008 56.3087 315.812 56.906C315.625 57.494 315.354 58.0307 315 58.516C314.645 59.0013 314.211 59.3933 313.698 59.692C313.194 59.9813 312.629 60.1307 312.004 60.14ZM308.882 55.1C308.9 55.5853 308.975 56.0753 309.106 56.57C309.246 57.0553 309.446 57.5033 309.708 57.914C309.969 58.3153 310.286 58.642 310.66 58.894C311.042 59.1367 311.49 59.258 312.004 59.258C312.526 59.258 312.984 59.1273 313.376 58.866C313.768 58.6047 314.09 58.264 314.342 57.844C314.603 57.4147 314.799 56.962 314.93 56.486C315.06 56.0007 315.126 55.5387 315.126 55.1C315.126 54.6147 315.056 54.1293 314.916 53.644C314.776 53.1493 314.57 52.7013 314.3 52.3C314.029 51.8893 313.702 51.5627 313.32 51.32C312.937 51.068 312.498 50.942 312.004 50.942C311.472 50.942 311.01 51.0773 310.618 51.348C310.226 51.6093 309.899 51.95 309.638 52.37C309.386 52.79 309.194 53.2427 309.064 53.728C308.942 54.204 308.882 54.6613 308.882 55.1ZM321.574 60.14C320.902 60.1213 320.309 59.958 319.796 59.65C319.283 59.342 318.853 58.9407 318.508 58.446C318.163 57.942 317.901 57.4007 317.724 56.822C317.547 56.234 317.458 55.66 317.458 55.1C317.458 54.5027 317.551 53.9053 317.738 53.308C317.934 52.7107 318.209 52.1693 318.564 51.684C318.928 51.1893 319.362 50.7973 319.866 50.508C320.37 50.2093 320.939 50.06 321.574 50.06C322.255 50.06 322.848 50.2187 323.352 50.536C323.865 50.8533 324.295 51.264 324.64 51.768C324.985 52.272 325.242 52.818 325.41 53.406C325.587 53.994 325.676 54.5587 325.676 55.1C325.676 55.7067 325.578 56.3087 325.382 56.906C325.195 57.494 324.925 58.0307 324.57 58.516C324.215 59.0013 323.781 59.3933 323.268 59.692C322.764 59.9813 322.199 60.1307 321.574 60.14ZM318.452 55.1C318.471 55.5853 318.545 56.0753 318.676 56.57C318.816 57.0553 319.017 57.5033 319.278 57.914C319.539 58.3153 319.857 58.642 320.23 58.894C320.613 59.1367 321.061 59.258 321.574 59.258C322.097 59.258 322.554 59.1273 322.946 58.866C323.338 58.6047 323.66 58.264 323.912 57.844C324.173 57.4147 324.369 56.962 324.5 56.486C324.631 56.0007 324.696 55.5387 324.696 55.1C324.696 54.6147 324.626 54.1293 324.486 53.644C324.346 53.1493 324.141 52.7013 323.87 52.3C323.599 51.8893 323.273 51.5627 322.89 51.32C322.507 51.068 322.069 50.942 321.574 50.942C321.042 50.942 320.58 51.0773 320.188 51.348C319.796 51.6093 319.469 51.95 319.208 52.37C318.956 52.79 318.765 53.2427 318.634 53.728C318.513 54.204 318.452 54.6613 318.452 55.1Z" fill="white"/>
<path d="M232.496 60.098C231.964 60.098 231.479 60.0327 231.04 59.902C230.611 59.762 230.233 59.566 229.906 59.314C229.589 59.0527 229.337 58.7447 229.15 58.39L230.158 57.116C230.252 57.3213 230.401 57.522 230.606 57.718C230.812 57.914 231.068 58.0727 231.376 58.194C231.684 58.3153 232.034 58.376 232.426 58.376C232.809 58.376 233.14 58.32 233.42 58.208C233.7 58.096 233.915 57.942 234.064 57.746C234.223 57.5407 234.302 57.2933 234.302 57.004C234.302 56.696 234.204 56.4347 234.008 56.22C233.822 56.0053 233.542 55.842 233.168 55.73C232.795 55.618 232.338 55.562 231.796 55.562L231.334 55.562L231.334 54.162L231.824 54.162C232.496 54.162 233.033 54.0453 233.434 53.812C233.845 53.5787 234.05 53.2473 234.05 52.818C234.05 52.5567 233.98 52.3327 233.84 52.146C233.7 51.95 233.514 51.8053 233.28 51.712C233.047 51.6093 232.79 51.558 232.51 51.558C232.044 51.558 231.628 51.67 231.264 51.894C230.91 52.1087 230.639 52.3887 230.452 52.734L229.234 51.376C229.44 51.0773 229.72 50.8253 230.074 50.62C230.429 50.4053 230.826 50.2373 231.264 50.116C231.712 49.9947 232.174 49.934 232.65 49.934C233.313 49.934 233.901 50.0507 234.414 50.284C234.928 50.508 235.329 50.816 235.618 51.208C235.908 51.6 236.052 52.048 236.052 52.552C236.052 52.9253 235.973 53.266 235.814 53.574C235.665 53.882 235.45 54.1387 235.17 54.344C234.89 54.5493 234.559 54.6987 234.176 54.792C234.587 54.8573 234.946 55.0113 235.254 55.254C235.572 55.4873 235.814 55.786 235.982 56.15C236.16 56.5047 236.248 56.892 236.248 57.312C236.248 57.9 236.08 58.3993 235.744 58.81C235.418 59.2207 234.97 59.538 234.4 59.762C233.84 59.986 233.206 60.098 232.496 60.098ZM241.778 60.14C241.078 60.1307 240.457 59.972 239.916 59.664C239.375 59.356 238.922 58.95 238.558 58.446C238.194 57.942 237.919 57.4007 237.732 56.822C237.555 56.234 237.466 55.66 237.466 55.1C237.466 54.5027 237.564 53.9053 237.76 53.308C237.956 52.7107 238.241 52.1693 238.614 51.684C238.997 51.1893 239.454 50.7973 239.986 50.508C240.518 50.2093 241.115 50.06 241.778 50.06C242.497 50.06 243.122 50.2187 243.654 50.536C244.195 50.8533 244.648 51.264 245.012 51.768C245.376 52.272 245.647 52.818 245.824 53.406C246.011 53.994 246.104 54.5587 246.104 55.1C246.104 55.7067 246.006 56.3087 245.81 56.906C245.614 57.494 245.325 58.0307 244.942 58.516C244.569 59.0013 244.116 59.3933 243.584 59.692C243.052 59.9813 242.45 60.1307 241.778 60.14ZM239.412 55.1C239.421 55.492 239.473 55.884 239.566 56.276C239.669 56.6587 239.813 57.0133 240 57.34C240.196 57.6667 240.443 57.9327 240.742 58.138C241.041 58.334 241.386 58.432 241.778 58.432C242.198 58.432 242.557 58.3247 242.856 58.11C243.155 57.8953 243.397 57.62 243.584 57.284C243.78 56.948 243.925 56.5887 244.018 56.206C244.111 55.8233 244.158 55.4547 244.158 55.1C244.158 54.708 244.107 54.3207 244.004 53.938C243.911 53.546 243.761 53.1867 243.556 52.86C243.36 52.5333 243.113 52.272 242.814 52.076C242.525 51.8707 242.179 51.768 241.778 51.768C241.367 51.768 241.013 51.8753 240.714 52.09C240.415 52.3047 240.168 52.58 239.972 52.916C239.785 53.252 239.645 53.6113 239.552 53.994C239.459 54.3767 239.412 54.7453 239.412 55.1ZM251.594 60.14C250.894 60.1307 250.274 59.972 249.732 59.664C249.191 59.356 248.738 58.95 248.374 58.446C248.01 57.942 247.735 57.4007 247.548 56.822C247.371 56.234 247.282 55.66 247.282 55.1C247.282 54.5027 247.38 53.9053 247.576 53.308C247.772 52.7107 248.057 52.1693 248.43 51.684C248.813 51.1893 249.27 50.7973 249.802 50.508C250.334 50.2093 250.932 50.06 251.594 50.06C252.313 50.06 252.938 50.2187 253.47 50.536C254.012 50.8533 254.464 51.264 254.828 51.768C255.192 52.272 255.463 52.818 255.64 53.406C255.827 53.994 255.92 54.5587 255.92 55.1C255.92 55.7067 255.822 56.3087 255.626 56.906C255.43 57.494 255.141 58.0307 254.758 58.516C254.385 59.0013 253.932 59.3933 253.4 59.692C252.868 59.9813 252.266 60.1307 251.594 60.14ZM249.228 55.1C249.238 55.492 249.289 55.884 249.382 56.276C249.485 56.6587 249.63 57.0133 249.816 57.34C250.012 57.6667 250.26 57.9327 250.558 58.138C250.857 58.334 251.202 58.432 251.594 58.432C252.014 58.432 252.374 58.3247 252.672 58.11C252.971 57.8953 253.214 57.62 253.4 57.284C253.596 56.948 253.741 56.5887 253.834 56.206C253.928 55.8233 253.974 55.4547 253.974 55.1C253.974 54.708 253.923 54.3207 253.82 53.938C253.727 53.546 253.578 53.1867 253.372 52.86C253.176 52.5333 252.929 52.272 252.63 52.076C252.341 51.8707 251.996 51.768 251.594 51.768C251.184 51.768 250.829 51.8753 250.53 52.09C250.232 52.3047 249.984 52.58 249.788 52.916C249.602 53.252 249.462 53.6113 249.368 53.994C249.275 54.3767 249.228 54.7453 249.228 55.1Z" fill="#FF5441"/>
<path d="M158.399 60C158.399 59.4307 158.437 58.9313 158.511 58.502C158.586 58.0633 158.703 57.676 158.861 57.34C159.029 56.9947 159.244 56.6913 159.505 56.43C159.767 56.1687 160.089 55.9213 160.471 55.688C160.798 55.5013 161.134 55.3193 161.479 55.142C161.834 54.9647 162.161 54.778 162.459 54.582C162.767 54.386 163.015 54.162 163.201 53.91C163.397 53.658 163.495 53.35 163.495 52.986C163.495 52.706 163.435 52.468 163.313 52.272C163.201 52.0667 163.033 51.908 162.809 51.796C162.595 51.684 162.333 51.628 162.025 51.628C161.671 51.628 161.339 51.6933 161.031 51.824C160.733 51.9453 160.462 52.0993 160.219 52.286C159.986 52.4633 159.785 52.6407 159.617 52.818L158.441 51.586C158.572 51.4367 158.749 51.2687 158.973 51.082C159.207 50.8953 159.482 50.7133 159.799 50.536C160.126 50.3587 160.495 50.214 160.905 50.102C161.316 49.99 161.769 49.934 162.263 49.934C162.991 49.934 163.603 50.0647 164.097 50.326C164.592 50.578 164.965 50.928 165.217 51.376C165.479 51.8147 165.609 52.3233 165.609 52.902C165.609 53.322 165.539 53.6953 165.399 54.022C165.269 54.3393 165.087 54.6193 164.853 54.862C164.62 55.1047 164.359 55.324 164.069 55.52C163.78 55.7067 163.481 55.8887 163.173 56.066C162.688 56.3273 162.296 56.556 161.997 56.752C161.699 56.948 161.461 57.13 161.283 57.298C161.115 57.466 160.985 57.634 160.891 57.802C160.807 57.9607 160.733 58.1287 160.667 58.306L165.623 58.306L165.623 60L158.399 60ZM171.243 60.14C170.543 60.1307 169.922 59.972 169.381 59.664C168.839 59.356 168.387 58.95 168.023 58.446C167.659 57.942 167.383 57.4007 167.197 56.822C167.019 56.234 166.931 55.66 166.931 55.1C166.931 54.5027 167.029 53.9053 167.225 53.308C167.421 52.7107 167.705 52.1693 168.079 51.684C168.461 51.1893 168.919 50.7973 169.451 50.508C169.983 50.2093 170.58 50.06 171.243 50.06C171.961 50.06 172.587 50.2187 173.119 50.536C173.66 50.8533 174.113 51.264 174.477 51.768C174.841 52.272 175.111 52.818 175.289 53.406C175.475 53.994 175.569 54.5587 175.569 55.1C175.569 55.7067 175.471 56.3087 175.275 56.906C175.079 57.494 174.789 58.0307 174.407 58.516C174.033 59.0013 173.581 59.3933 173.049 59.692C172.517 59.9813 171.915 60.1307 171.243 60.14ZM168.877 55.1C168.886 55.492 168.937 55.884 169.031 56.276C169.133 56.6587 169.278 57.0133 169.465 57.34C169.661 57.6667 169.908 57.9327 170.207 58.138C170.505 58.334 170.851 58.432 171.243 58.432C171.663 58.432 172.022 58.3247 172.321 58.11C172.619 57.8953 172.862 57.62 173.049 57.284C173.245 56.948 173.389 56.5887 173.483 56.206C173.576 55.8233 173.623 55.4547 173.623 55.1C173.623 54.708 173.571 54.3207 173.469 53.938C173.375 53.546 173.226 53.1867 173.021 52.86C172.825 52.5333 172.577 52.272 172.279 52.076C171.989 51.8707 171.644 51.768 171.243 51.768C170.832 51.768 170.477 51.8753 170.179 52.09C169.88 52.3047 169.633 52.58 169.437 52.916C169.25 53.252 169.11 53.6113 169.017 53.994C168.923 54.3767 168.877 54.7453 168.877 55.1ZM181.059 60.14C180.359 60.1307 179.739 59.972 179.197 59.664C178.656 59.356 178.203 58.95 177.839 58.446C177.475 57.942 177.2 57.4007 177.013 56.822C176.836 56.234 176.747 55.66 176.747 55.1C176.747 54.5027 176.845 53.9053 177.041 53.308C177.237 52.7107 177.522 52.1693 177.895 51.684C178.278 51.1893 178.735 50.7973 179.267 50.508C179.799 50.2093 180.397 50.06 181.059 50.06C181.778 50.06 182.403 50.2187 182.935 50.536C183.477 50.8533 183.929 51.264 184.293 51.768C184.657 52.272 184.928 52.818 185.105 53.406C185.292 53.994 185.385 54.5587 185.385 55.1C185.385 55.7067 185.287 56.3087 185.091 56.906C184.895 57.494 184.606 58.0307 184.223 58.516C183.85 59.0013 183.397 59.3933 182.865 59.692C182.333 59.9813 181.731 60.1307 181.059 60.14ZM178.693 55.1C178.703 55.492 178.754 55.884 178.847 56.276C178.95 56.6587 179.095 57.0133 179.281 57.34C179.477 57.6667 179.725 57.9327 180.023 58.138C180.322 58.334 180.667 58.432 181.059 58.432C181.479 58.432 181.839 58.3247 182.137 58.11C182.436 57.8953 182.679 57.62 182.865 57.284C183.061 56.948 183.206 56.5887 183.299 56.206C183.393 55.8233 183.439 55.4547 183.439 55.1C183.439 54.708 183.388 54.3207 183.285 53.938C183.192 53.546 183.043 53.1867 182.837 52.86C182.641 52.5333 182.394 52.272 182.095 52.076C181.806 51.8707 181.461 51.768 181.059 51.768C180.649 51.768 180.294 51.8753 179.995 52.09C179.697 52.3047 179.449 52.58 179.253 52.916C179.067 53.252 178.927 53.6113 178.833 53.994C178.74 54.3767 178.693 54.7453 178.693 55.1Z" fill="#FF5441"/>
<path d="M95.0032 58.306L95.0032 60L89.3752 60L89.3752 58.306L91.3072 58.306L91.3072 51.838C91.2325 51.95 91.1065 52.076 90.9292 52.216C90.7612 52.3467 90.5652 52.4773 90.3412 52.608C90.1265 52.7293 89.9025 52.832 89.6692 52.916C89.4452 53 89.2398 53.042 89.0532 53.042L89.0532 51.306C89.3052 51.306 89.5618 51.2407 89.8232 51.11C90.0845 50.9793 90.3272 50.83 90.5512 50.662C90.7752 50.494 90.9525 50.34 91.0832 50.2C91.2232 50.0507 91.2978 49.9713 91.3072 49.962L93.2252 49.962L93.2252 58.306L95.0032 58.306ZM100.214 60.14C99.5145 60.1307 98.8938 59.972 98.3525 59.664C97.8111 59.356 97.3585 58.95 96.9945 58.446C96.6305 57.942 96.3551 57.4007 96.1685 56.822C95.9911 56.234 95.9025 55.66 95.9025 55.1C95.9025 54.5027 96.0005 53.9053 96.1965 53.308C96.3925 52.7107 96.6771 52.1693 97.0505 51.684C97.4331 51.1893 97.8905 50.7973 98.4225 50.508C98.9545 50.2093 99.5518 50.06 100.214 50.06C100.933 50.06 101.558 50.2187 102.09 50.536C102.632 50.8533 103.084 51.264 103.448 51.768C103.812 52.272 104.083 52.818 104.26 53.406C104.447 53.994 104.54 54.5587 104.54 55.1C104.54 55.7067 104.442 56.3087 104.246 56.906C104.05 57.494 103.761 58.0307 103.378 58.516C103.005 59.0013 102.552 59.3933 102.02 59.692C101.488 59.9813 100.886 60.1307 100.214 60.14ZM97.8485 55.1C97.8578 55.492 97.9091 55.884 98.0025 56.276C98.1051 56.6587 98.2498 57.0133 98.4365 57.34C98.6325 57.6667 98.8798 57.9327 99.1785 58.138C99.4771 58.334 99.8225 58.432 100.214 58.432C100.634 58.432 100.994 58.3247 101.292 58.11C101.591 57.8953 101.834 57.62 102.02 57.284C102.216 56.948 102.361 56.5887 102.454 56.206C102.548 55.8233 102.594 55.4547 102.594 55.1C102.594 54.708 102.543 54.3207 102.44 53.938C102.347 53.546 102.198 53.1867 101.992 52.86C101.796 52.5333 101.549 52.272 101.25 52.076C100.961 51.8707 100.616 51.768 100.214 51.768C99.8038 51.768 99.4491 51.8753 99.1505 52.09C98.8518 52.3047 98.6045 52.58 98.4085 52.916C98.2218 53.252 98.0818 53.6113 97.9885 53.994C97.8951 54.3767 97.8485 54.7453 97.8485 55.1ZM110.031 60.14C109.331 60.1307 108.71 59.972 108.169 59.664C107.628 59.356 107.175 58.95 106.811 58.446C106.447 57.942 106.172 57.4007 105.985 56.822C105.808 56.234 105.719 55.66 105.719 55.1C105.719 54.5027 105.817 53.9053 106.013 53.308C106.209 52.7107 106.494 52.1693 106.867 51.684C107.25 51.1893 107.707 50.7973 108.239 50.508C108.771 50.2093 109.368 50.06 110.031 50.06C110.75 50.06 111.375 50.2187 111.907 50.536C112.448 50.8533 112.901 51.264 113.265 51.768C113.629 52.272 113.9 52.818 114.077 53.406C114.264 53.994 114.357 54.5587 114.357 55.1C114.357 55.7067 114.259 56.3087 114.063 56.906C113.867 57.494 113.578 58.0307 113.195 58.516C112.822 59.0013 112.369 59.3933 111.837 59.692C111.305 59.9813 110.703 60.1307 110.031 60.14ZM107.665 55.1C107.674 55.492 107.726 55.884 107.819 56.276C107.922 56.6587 108.066 57.0133 108.253 57.34C108.449 57.6667 108.696 57.9327 108.995 58.138C109.294 58.334 109.639 58.432 110.031 58.432C110.451 58.432 110.81 58.3247 111.109 58.11C111.408 57.8953 111.65 57.62 111.837 57.284C112.033 56.948 112.178 56.5887 112.271 56.206C112.364 55.8233 112.411 55.4547 112.411 55.1C112.411 54.708 112.36 54.3207 112.257 53.938C112.164 53.546 112.014 53.1867 111.809 52.86C111.613 52.5333 111.366 52.272 111.067 52.076C110.778 51.8707 110.432 51.768 110.031 51.768C109.62 51.768 109.266 51.8753 108.967 52.09C108.668 52.3047 108.421 52.58 108.225 52.916C108.038 53.252 107.898 53.6113 107.805 53.994C107.712 54.3767 107.665 54.7453 107.665 55.1Z" fill="#FF5441"/>
<path d="M36.9918 60.14C36.2918 60.1307 35.6711 59.972 35.1298 59.664C34.5885 59.356 34.1358 58.95 33.7718 58.446C33.4078 57.942 33.1325 57.4007 32.9458 56.822C32.7685 56.234 32.6798 55.66 32.6798 55.1C32.6798 54.5027 32.7778 53.9053 32.9738 53.308C33.1698 52.7107 33.4545 52.1693 33.8278 51.684C34.2105 51.1893 34.6678 50.7973 35.1998 50.508C35.7318 50.2093 36.3291 50.06 36.9918 50.06C37.7105 50.06 38.3358 50.2187 38.8678 50.536C39.4091 50.8533 39.8618 51.264 40.2258 51.768C40.5898 52.272 40.8605 52.818 41.0378 53.406C41.2245 53.994 41.3178 54.5587 41.3178 55.1C41.3178 55.7067 41.2198 56.3087 41.0238 56.906C40.8278 57.494 40.5385 58.0307 40.1558 58.516C39.7825 59.0013 39.3298 59.3933 38.7978 59.692C38.2658 59.9813 37.6638 60.1307 36.9918 60.14ZM34.6258 55.1C34.6351 55.492 34.6865 55.884 34.7798 56.276C34.8825 56.6587 35.0271 57.0133 35.2138 57.34C35.4098 57.6667 35.6571 57.9327 35.9558 58.138C36.2545 58.334 36.5998 58.432 36.9918 58.432C37.4118 58.432 37.7711 58.3247 38.0698 58.11C38.3685 57.8953 38.6111 57.62 38.7978 57.284C38.9938 56.948 39.1385 56.5887 39.2318 56.206C39.3251 55.8233 39.3718 55.4547 39.3718 55.1C39.3718 54.708 39.3205 54.3207 39.2178 53.938C39.1245 53.546 38.9751 53.1867 38.7698 52.86C38.5738 52.5333 38.3265 52.272 38.0278 52.076C37.7385 51.8707 37.3931 51.768 36.9918 51.768C36.5811 51.768 36.2265 51.8753 35.9278 52.09C35.6291 52.3047 35.3818 52.58 35.1858 52.916C34.9991 53.252 34.8591 53.6113 34.7658 53.994C34.6725 54.3767 34.6258 54.7453 34.6258 55.1Z" fill="#FF5441"/>
<path opacity="0.4" d="M723.443 172C723.434 171.412 723.481 170.894 723.583 170.446C723.686 169.998 723.84 169.601 724.045 169.256C724.26 168.911 724.517 168.612 724.815 168.36C725.114 168.099 725.45 167.87 725.823 167.674C726.178 167.478 726.547 167.301 726.929 167.142C727.312 166.974 727.667 166.792 727.993 166.596C728.32 166.4 728.581 166.162 728.777 165.882C728.983 165.593 729.085 165.233 729.085 164.804C729.085 164.449 729.006 164.123 728.847 163.824C728.698 163.525 728.465 163.287 728.147 163.11C727.83 162.923 727.429 162.83 726.943 162.83C726.467 162.83 726.043 162.909 725.669 163.068C725.305 163.227 724.997 163.418 724.745 163.642C724.503 163.866 724.307 164.071 724.157 164.258L723.527 163.642C723.583 163.577 723.695 163.451 723.863 163.264C724.041 163.077 724.274 162.881 724.563 162.676C724.862 162.471 725.212 162.298 725.613 162.158C726.024 162.009 726.5 161.934 727.041 161.934C727.732 161.934 728.306 162.069 728.763 162.34C729.221 162.601 729.561 162.947 729.785 163.376C730.019 163.805 730.135 164.277 730.135 164.79C730.135 165.285 730.037 165.705 729.841 166.05C729.655 166.386 729.407 166.671 729.099 166.904C728.801 167.128 728.474 167.324 728.119 167.492C727.774 167.66 727.447 167.819 727.139 167.968C726.542 168.239 726.066 168.505 725.711 168.766C725.357 169.027 725.091 169.289 724.913 169.55C724.745 169.811 724.633 170.073 724.577 170.334C724.521 170.595 724.489 170.861 724.479 171.132L730.149 171.132L730.149 172L723.443 172ZM735.938 172L735.938 169.34L731.051 169.34L731.051 168.486L736.232 162.06L736.89 162.06L736.89 168.472L738.122 168.472L738.122 169.34L736.89 169.34L736.89 172L735.938 172ZM732.074 168.472L736.022 168.472L736.022 163.544L732.074 168.472ZM743.446 172.14C742.774 172.121 742.182 171.958 741.668 171.65C741.155 171.342 740.726 170.941 740.38 170.446C740.035 169.942 739.774 169.401 739.596 168.822C739.419 168.234 739.33 167.66 739.33 167.1C739.33 166.503 739.424 165.905 739.61 165.308C739.806 164.711 740.082 164.169 740.436 163.684C740.8 163.189 741.234 162.797 741.738 162.508C742.242 162.209 742.812 162.06 743.446 162.06C744.128 162.06 744.72 162.219 745.224 162.536C745.738 162.853 746.167 163.264 746.512 163.768C746.858 164.272 747.114 164.818 747.282 165.406C747.46 165.994 747.548 166.559 747.548 167.1C747.548 167.707 747.45 168.309 747.254 168.906C747.068 169.494 746.797 170.031 746.442 170.516C746.088 171.001 745.654 171.393 745.14 171.692C744.636 171.981 744.072 172.131 743.446 172.14ZM740.324 167.1C740.343 167.585 740.418 168.075 740.548 168.57C740.688 169.055 740.889 169.503 741.15 169.914C741.412 170.315 741.729 170.642 742.102 170.894C742.485 171.137 742.933 171.258 743.446 171.258C743.969 171.258 744.426 171.127 744.818 170.866C745.21 170.605 745.532 170.264 745.784 169.844C746.046 169.415 746.242 168.962 746.372 168.486C746.503 168.001 746.568 167.539 746.568 167.1C746.568 166.615 746.498 166.129 746.358 165.644C746.218 165.149 746.013 164.701 745.742 164.3C745.472 163.889 745.145 163.563 744.762 163.32C744.38 163.068 743.941 162.942 743.446 162.942C742.914 162.942 742.452 163.077 742.06 163.348C741.668 163.609 741.342 163.95 741.08 164.37C740.828 164.79 740.637 165.243 740.506 165.728C740.385 166.204 740.324 166.661 740.324 167.1Z" fill="white"/>
<path opacity="0.4" d="M658.252 172C658.243 171.412 658.289 170.894 658.392 170.446C658.495 169.998 658.649 169.601 658.854 169.256C659.069 168.911 659.325 168.612 659.624 168.36C659.923 168.099 660.259 167.87 660.632 167.674C660.987 167.478 661.355 167.301 661.738 167.142C662.121 166.974 662.475 166.792 662.802 166.596C663.129 166.4 663.39 166.162 663.586 165.882C663.791 165.593 663.894 165.233 663.894 164.804C663.894 164.449 663.815 164.123 663.656 163.824C663.507 163.525 663.273 163.287 662.956 163.11C662.639 162.923 662.237 162.83 661.752 162.83C661.276 162.83 660.851 162.909 660.478 163.068C660.114 163.227 659.806 163.418 659.554 163.642C659.311 163.866 659.115 164.071 658.966 164.258L658.336 163.642C658.392 163.577 658.504 163.451 658.672 163.264C658.849 163.077 659.083 162.881 659.372 162.676C659.671 162.471 660.021 162.298 660.422 162.158C660.833 162.009 661.309 161.934 661.85 161.934C662.541 161.934 663.115 162.069 663.572 162.34C664.029 162.601 664.37 162.947 664.594 163.376C664.827 163.805 664.944 164.277 664.944 164.79C664.944 165.285 664.846 165.705 664.65 166.05C664.463 166.386 664.216 166.671 663.908 166.904C663.609 167.128 663.283 167.324 662.928 167.492C662.583 167.66 662.256 167.819 661.948 167.968C661.351 168.239 660.875 168.505 660.52 168.766C660.165 169.027 659.899 169.289 659.722 169.55C659.554 169.811 659.442 170.073 659.386 170.334C659.33 170.595 659.297 170.861 659.288 171.132L664.958 171.132L664.958 172L658.252 172ZM666.387 172C666.378 171.412 666.424 170.894 666.527 170.446C666.63 169.998 666.784 169.601 666.989 169.256C667.204 168.911 667.46 168.612 667.759 168.36C668.058 168.099 668.394 167.87 668.767 167.674C669.122 167.478 669.49 167.301 669.873 167.142C670.256 166.974 670.61 166.792 670.937 166.596C671.264 166.4 671.525 166.162 671.721 165.882C671.926 165.593 672.029 165.233 672.029 164.804C672.029 164.449 671.95 164.123 671.791 163.824C671.642 163.525 671.408 163.287 671.091 163.11C670.774 162.923 670.372 162.83 669.887 162.83C669.411 162.83 668.986 162.909 668.613 163.068C668.249 163.227 667.941 163.418 667.689 163.642C667.446 163.866 667.25 164.071 667.101 164.258L666.471 163.642C666.527 163.577 666.639 163.451 666.807 163.264C666.984 163.077 667.218 162.881 667.507 162.676C667.806 162.471 668.156 162.298 668.557 162.158C668.968 162.009 669.444 161.934 669.985 161.934C670.676 161.934 671.25 162.069 671.707 162.34C672.164 162.601 672.505 162.947 672.729 163.376C672.962 163.805 673.079 164.277 673.079 164.79C673.079 165.285 672.981 165.705 672.785 166.05C672.598 166.386 672.351 166.671 672.043 166.904C671.744 167.128 671.418 167.324 671.063 167.492C670.718 167.66 670.391 167.819 670.083 167.968C669.486 168.239 669.01 168.505 668.655 168.766C668.3 169.027 668.034 169.289 667.857 169.55C667.689 169.811 667.577 170.073 667.521 170.334C667.465 170.595 667.432 170.861 667.423 171.132L673.093 171.132L673.093 172L666.387 172ZM678.638 172.14C677.966 172.121 677.373 171.958 676.86 171.65C676.346 171.342 675.917 170.941 675.572 170.446C675.226 169.942 674.965 169.401 674.788 168.822C674.61 168.234 674.522 167.66 674.522 167.1C674.522 166.503 674.615 165.905 674.802 165.308C674.998 164.711 675.273 164.169 675.628 163.684C675.992 163.189 676.426 162.797 676.93 162.508C677.434 162.209 678.003 162.06 678.638 162.06C679.319 162.06 679.912 162.219 680.416 162.536C680.929 162.853 681.358 163.264 681.704 163.768C682.049 164.272 682.306 164.818 682.474 165.406C682.651 165.994 682.74 166.559 682.74 167.1C682.74 167.707 682.642 168.309 682.446 168.906C682.259 169.494 681.988 170.031 681.634 170.516C681.279 171.001 680.845 171.393 680.332 171.692C679.828 171.981 679.263 172.131 678.638 172.14ZM675.516 167.1C675.534 167.585 675.609 168.075 675.74 168.57C675.88 169.055 676.08 169.503 676.342 169.914C676.603 170.315 676.92 170.642 677.294 170.894C677.676 171.137 678.124 171.258 678.638 171.258C679.16 171.258 679.618 171.127 680.01 170.866C680.402 170.605 680.724 170.264 680.976 169.844C681.237 169.415 681.433 168.962 681.564 168.486C681.694 168.001 681.76 167.539 681.76 167.1C681.76 166.615 681.69 166.129 681.55 165.644C681.41 165.149 681.204 164.701 680.934 164.3C680.663 163.889 680.336 163.563 679.954 163.32C679.571 163.068 679.132 162.942 678.638 162.942C678.106 162.942 677.644 163.077 677.252 163.348C676.86 163.609 676.533 163.95 676.272 164.37C676.02 164.79 675.828 165.243 675.698 165.728C675.576 166.204 675.516 166.661 675.516 167.1Z" fill="white"/>
<path opacity="0.4" d="M592.534 172C592.525 171.412 592.572 170.894 592.674 170.446C592.777 169.998 592.931 169.601 593.136 169.256C593.351 168.911 593.608 168.612 593.906 168.36C594.205 168.099 594.541 167.87 594.914 167.674C595.269 167.478 595.638 167.301 596.02 167.142C596.403 166.974 596.758 166.792 597.084 166.596C597.411 166.4 597.672 166.162 597.868 165.882C598.074 165.593 598.176 165.233 598.176 164.804C598.176 164.449 598.097 164.123 597.938 163.824C597.789 163.525 597.556 163.287 597.238 163.11C596.921 162.923 596.52 162.83 596.034 162.83C595.558 162.83 595.134 162.909 594.76 163.068C594.396 163.227 594.088 163.418 593.836 163.642C593.594 163.866 593.398 164.071 593.248 164.258L592.618 163.642C592.674 163.577 592.786 163.451 592.954 163.264C593.132 163.077 593.365 162.881 593.654 162.676C593.953 162.471 594.303 162.298 594.704 162.158C595.115 162.009 595.591 161.934 596.132 161.934C596.823 161.934 597.397 162.069 597.854 162.34C598.312 162.601 598.652 162.947 598.876 163.376C599.11 163.805 599.226 164.277 599.226 164.79C599.226 165.285 599.128 165.705 598.932 166.05C598.746 166.386 598.498 166.671 598.19 166.904C597.892 167.128 597.565 167.324 597.21 167.492C596.865 167.66 596.538 167.819 596.23 167.968C595.633 168.239 595.157 168.505 594.802 168.766C594.448 169.027 594.182 169.289 594.004 169.55C593.836 169.811 593.724 170.073 593.668 170.334C593.612 170.595 593.58 170.861 593.57 171.132L599.24 171.132L599.24 172L592.534 172ZM604.785 172.14C604.113 172.121 603.52 171.958 603.007 171.65C602.494 171.342 602.064 170.941 601.719 170.446C601.374 169.942 601.112 169.401 600.935 168.822C600.758 168.234 600.669 167.66 600.669 167.1C600.669 166.503 600.762 165.905 600.949 165.308C601.145 164.711 601.42 164.169 601.775 163.684C602.139 163.189 602.573 162.797 603.077 162.508C603.581 162.209 604.15 162.06 604.785 162.06C605.466 162.06 606.059 162.219 606.563 162.536C607.076 162.853 607.506 163.264 607.851 163.768C608.196 164.272 608.453 164.818 608.621 165.406C608.798 165.994 608.887 166.559 608.887 167.1C608.887 167.707 608.789 168.309 608.593 168.906C608.406 169.494 608.136 170.031 607.781 170.516C607.426 171.001 606.992 171.393 606.479 171.692C605.975 171.981 605.41 172.131 604.785 172.14ZM601.663 167.1C601.682 167.585 601.756 168.075 601.887 168.57C602.027 169.055 602.228 169.503 602.489 169.914C602.75 170.315 603.068 170.642 603.441 170.894C603.824 171.137 604.272 171.258 604.785 171.258C605.308 171.258 605.765 171.127 606.157 170.866C606.549 170.605 606.871 170.264 607.123 169.844C607.384 169.415 607.58 168.962 607.711 168.486C607.842 168.001 607.907 167.539 607.907 167.1C607.907 166.615 607.837 166.129 607.697 165.644C607.557 165.149 607.352 164.701 607.081 164.3C606.81 163.889 606.484 163.563 606.101 163.32C605.718 163.068 605.28 162.942 604.785 162.942C604.253 162.942 603.791 163.077 603.399 163.348C603.007 163.609 602.68 163.95 602.419 164.37C602.167 164.79 601.976 165.243 601.845 165.728C601.724 166.204 601.663 166.661 601.663 167.1ZM614.355 172.14C613.683 172.121 613.091 171.958 612.577 171.65C612.064 171.342 611.635 170.941 611.289 170.446C610.944 169.942 610.683 169.401 610.505 168.822C610.328 168.234 610.239 167.66 610.239 167.1C610.239 166.503 610.333 165.905 610.519 165.308C610.715 164.711 610.991 164.169 611.345 163.684C611.709 163.189 612.143 162.797 612.647 162.508C613.151 162.209 613.721 162.06 614.355 162.06C615.037 162.06 615.629 162.219 616.133 162.536C616.647 162.853 617.076 163.264 617.421 163.768C617.767 164.272 618.023 164.818 618.191 165.406C618.369 165.994 618.457 166.559 618.457 167.1C618.457 167.707 618.359 168.309 618.163 168.906C617.977 169.494 617.706 170.031 617.351 170.516C616.997 171.001 616.563 171.393 616.049 171.692C615.545 171.981 614.981 172.131 614.355 172.14ZM611.233 167.1C611.252 167.585 611.327 168.075 611.457 168.57C611.597 169.055 611.798 169.503 612.059 169.914C612.321 170.315 612.638 170.642 613.011 170.894C613.394 171.137 613.842 171.258 614.355 171.258C614.878 171.258 615.335 171.127 615.727 170.866C616.119 170.605 616.441 170.264 616.693 169.844C616.955 169.415 617.151 168.962 617.281 168.486C617.412 168.001 617.477 167.539 617.477 167.1C617.477 166.615 617.407 166.129 617.267 165.644C617.127 165.149 616.922 164.701 616.651 164.3C616.381 163.889 616.054 163.563 615.671 163.32C615.289 163.068 614.85 162.942 614.355 162.942C613.823 162.942 613.361 163.077 612.969 163.348C612.577 163.609 612.251 163.95 611.989 164.37C611.737 164.79 611.546 165.243 611.415 165.728C611.294 166.204 611.233 166.661 611.233 167.1Z" fill="white"/>
<path opacity="0.4" d="M537.697 171.132L537.697 172L533.063 172L533.063 171.132L534.953 171.132L534.953 162.998C534.869 163.11 534.743 163.236 534.575 163.376C534.417 163.507 534.23 163.637 534.015 163.768C533.801 163.889 533.581 163.992 533.357 164.076C533.133 164.16 532.928 164.202 532.741 164.202L532.741 163.306C532.993 163.306 533.245 163.241 533.497 163.11C533.749 162.97 533.983 162.816 534.197 162.648C534.421 162.471 534.599 162.312 534.729 162.172C534.869 162.023 534.944 161.943 534.953 161.934L535.919 161.934L535.919 171.132L537.697 171.132ZM545.58 169.242C545.58 169.821 545.416 170.325 545.09 170.754C544.772 171.183 544.348 171.519 543.816 171.762C543.293 171.995 542.719 172.112 542.094 172.112C541.431 172.112 540.843 171.981 540.33 171.72C539.816 171.449 539.41 171.095 539.112 170.656C538.822 170.217 538.678 169.727 538.678 169.186C538.678 168.766 538.776 168.388 538.972 168.052C539.177 167.707 539.429 167.417 539.728 167.184C540.036 166.951 540.348 166.783 540.666 166.68C540.376 166.559 540.106 166.4 539.854 166.204C539.602 165.999 539.401 165.761 539.252 165.49C539.102 165.219 539.028 164.921 539.028 164.594C539.028 164.183 539.116 163.824 539.294 163.516C539.48 163.199 539.723 162.933 540.022 162.718C540.32 162.494 540.652 162.331 541.016 162.228C541.389 162.116 541.762 162.06 542.136 162.06C542.5 162.06 542.864 162.116 543.228 162.228C543.601 162.331 543.937 162.489 544.236 162.704C544.544 162.919 544.786 163.185 544.964 163.502C545.15 163.81 545.244 164.169 545.244 164.58C545.244 164.907 545.164 165.21 545.006 165.49C544.856 165.761 544.656 165.999 544.404 166.204C544.152 166.4 543.876 166.559 543.578 166.68C543.942 166.801 544.273 166.988 544.572 167.24C544.88 167.483 545.122 167.772 545.3 168.108C545.486 168.444 545.58 168.822 545.58 169.242ZM544.614 169.172C544.614 168.836 544.539 168.542 544.39 168.29C544.25 168.029 544.054 167.809 543.802 167.632C543.559 167.455 543.288 167.319 542.99 167.226C542.7 167.133 542.406 167.086 542.108 167.086C541.706 167.086 541.314 167.175 540.932 167.352C540.558 167.52 540.25 167.763 540.008 168.08C539.774 168.388 539.658 168.757 539.658 169.186C539.658 169.513 539.728 169.802 539.868 170.054C540.017 170.306 540.213 170.525 540.456 170.712C540.698 170.889 540.964 171.025 541.254 171.118C541.552 171.211 541.851 171.258 542.15 171.258C542.551 171.258 542.938 171.174 543.312 171.006C543.694 170.829 544.007 170.581 544.25 170.264C544.492 169.947 544.614 169.583 544.614 169.172ZM539.98 164.636C539.98 164.991 540.087 165.299 540.302 165.56C540.526 165.812 540.806 166.003 541.142 166.134C541.478 166.265 541.804 166.33 542.122 166.33C542.458 166.33 542.789 166.265 543.116 166.134C543.452 165.994 543.727 165.798 543.942 165.546C544.166 165.285 544.278 164.972 544.278 164.608C544.278 164.253 544.175 163.95 543.97 163.698C543.764 163.446 543.494 163.255 543.158 163.124C542.831 162.993 542.481 162.928 542.108 162.928C541.753 162.928 541.408 162.998 541.072 163.138C540.745 163.269 540.479 163.465 540.274 163.726C540.078 163.978 539.98 164.281 539.98 164.636ZM551.064 172.14C550.392 172.121 549.8 171.958 549.286 171.65C548.773 171.342 548.344 170.941 547.998 170.446C547.653 169.942 547.392 169.401 547.214 168.822C547.037 168.234 546.948 167.66 546.948 167.1C546.948 166.503 547.042 165.905 547.228 165.308C547.424 164.711 547.7 164.169 548.054 163.684C548.418 163.189 548.852 162.797 549.356 162.508C549.86 162.209 550.43 162.06 551.064 162.06C551.746 162.06 552.338 162.219 552.842 162.536C553.356 162.853 553.785 163.264 554.13 163.768C554.476 164.272 554.732 164.818 554.9 165.406C555.078 165.994 555.166 166.559 555.166 167.1C555.166 167.707 555.068 168.309 554.872 168.906C554.686 169.494 554.415 170.031 554.06 170.516C553.706 171.001 553.272 171.393 552.758 171.692C552.254 171.981 551.69 172.131 551.064 172.14ZM547.942 167.1C547.961 167.585 548.036 168.075 548.166 168.57C548.306 169.055 548.507 169.503 548.768 169.914C549.03 170.315 549.347 170.642 549.72 170.894C550.103 171.137 550.551 171.258 551.064 171.258C551.587 171.258 552.044 171.127 552.436 170.866C552.828 170.605 553.15 170.264 553.402 169.844C553.664 169.415 553.86 168.962 553.99 168.486C554.121 168.001 554.186 167.539 554.186 167.1C554.186 166.615 554.116 166.129 553.976 165.644C553.836 165.149 553.631 164.701 553.36 164.3C553.09 163.889 552.763 163.563 552.38 163.32C551.998 163.068 551.559 162.942 551.064 162.942C550.532 162.942 550.07 163.077 549.678 163.348C549.286 163.609 548.96 163.95 548.698 164.37C548.446 164.79 548.255 165.243 548.124 165.728C548.003 166.204 547.942 166.661 547.942 167.1Z" fill="white"/>
<path opacity="0.4" d="M479.629 171.132L479.629 172L474.995 172L474.995 171.132L476.885 171.132L476.885 162.998C476.801 163.11 476.675 163.236 476.507 163.376C476.348 163.507 476.162 163.637 475.947 163.768C475.732 163.889 475.513 163.992 475.289 164.076C475.065 164.16 474.86 164.202 474.673 164.202L474.673 163.306C474.925 163.306 475.177 163.241 475.429 163.11C475.681 162.97 475.914 162.816 476.129 162.648C476.353 162.471 476.53 162.312 476.661 162.172C476.801 162.023 476.876 161.943 476.885 161.934L477.851 161.934L477.851 171.132L479.629 171.132ZM487.735 168.724C487.735 169.349 487.577 169.923 487.259 170.446C486.951 170.959 486.531 171.37 485.999 171.678C485.467 171.986 484.87 172.14 484.207 172.14C483.517 172.14 482.901 171.977 482.359 171.65C481.827 171.314 481.407 170.833 481.099 170.208C480.791 169.583 480.637 168.841 480.637 167.982C480.637 166.629 480.791 165.513 481.099 164.636C481.407 163.749 481.837 163.087 482.387 162.648C482.938 162.209 483.577 161.99 484.305 161.99C484.968 161.99 485.561 162.158 486.083 162.494C486.606 162.821 487.003 163.269 487.273 163.838L486.657 164.398C486.461 163.922 486.149 163.544 485.719 163.264C485.299 162.975 484.828 162.83 484.305 162.83C483.755 162.83 483.274 163.003 482.863 163.348C482.453 163.693 482.131 164.188 481.897 164.832C481.673 165.476 481.561 166.255 481.561 167.17C481.701 166.806 481.907 166.489 482.177 166.218C482.448 165.947 482.765 165.737 483.129 165.588C483.503 165.439 483.899 165.364 484.319 165.364C484.954 165.364 485.528 165.513 486.041 165.812C486.564 166.111 486.975 166.517 487.273 167.03C487.581 167.534 487.735 168.099 487.735 168.724ZM484.235 171.3C484.702 171.3 485.131 171.183 485.523 170.95C485.915 170.717 486.228 170.404 486.461 170.012C486.704 169.62 486.825 169.191 486.825 168.724C486.825 168.257 486.704 167.828 486.461 167.436C486.228 167.044 485.915 166.731 485.523 166.498C485.131 166.265 484.702 166.148 484.235 166.148C483.759 166.148 483.321 166.265 482.919 166.498C482.527 166.731 482.215 167.044 481.981 167.436C481.748 167.819 481.631 168.248 481.631 168.724C481.631 169.191 481.748 169.62 481.981 170.012C482.224 170.404 482.541 170.717 482.933 170.95C483.325 171.183 483.759 171.3 484.235 171.3ZM493.133 172.14C492.461 172.121 491.868 171.958 491.355 171.65C490.841 171.342 490.412 170.941 490.067 170.446C489.721 169.942 489.46 169.401 489.283 168.822C489.105 168.234 489.017 167.66 489.017 167.1C489.017 166.503 489.11 165.905 489.297 165.308C489.493 164.711 489.768 164.169 490.123 163.684C490.487 163.189 490.921 162.797 491.425 162.508C491.929 162.209 492.498 162.06 493.133 162.06C493.814 162.06 494.407 162.219 494.911 162.536C495.424 162.853 495.853 163.264 496.199 163.768C496.544 164.272 496.801 164.818 496.969 165.406C497.146 165.994 497.235 166.559 497.235 167.1C497.235 167.707 497.137 168.309 496.941 168.906C496.754 169.494 496.483 170.031 496.129 170.516C495.774 171.001 495.34 171.393 494.827 171.692C494.323 171.981 493.758 172.131 493.133 172.14ZM490.011 167.1C490.029 167.585 490.104 168.075 490.235 168.57C490.375 169.055 490.575 169.503 490.837 169.914C491.098 170.315 491.415 170.642 491.789 170.894C492.171 171.137 492.619 171.258 493.133 171.258C493.655 171.258 494.113 171.127 494.505 170.866C494.897 170.605 495.219 170.264 495.471 169.844C495.732 169.415 495.928 168.962 496.059 168.486C496.189 168.001 496.255 167.539 496.255 167.1C496.255 166.615 496.185 166.129 496.045 165.644C495.905 165.149 495.699 164.701 495.429 164.3C495.158 163.889 494.831 163.563 494.449 163.32C494.066 163.068 493.627 162.942 493.133 162.942C492.601 162.942 492.139 163.077 491.747 163.348C491.355 163.609 491.028 163.95 490.767 164.37C490.515 164.79 490.323 165.243 490.193 165.728C490.071 166.204 490.011 166.661 490.011 167.1Z" fill="white"/>
<path opacity="0.4" d="M422.389 171.132L422.389 172L417.755 172L417.755 171.132L419.645 171.132L419.645 162.998C419.561 163.11 419.435 163.236 419.267 163.376C419.108 163.507 418.921 163.637 418.707 163.768C418.492 163.889 418.273 163.992 418.049 164.076C417.825 164.16 417.619 164.202 417.433 164.202L417.433 163.306C417.685 163.306 417.937 163.241 418.189 163.11C418.441 162.97 418.674 162.816 418.889 162.648C419.113 162.471 419.29 162.312 419.421 162.172C419.561 162.023 419.635 161.943 419.645 161.934L420.611 161.934L420.611 171.132L422.389 171.132ZM427.864 172L427.864 169.34L422.978 169.34L422.978 168.486L428.158 162.06L428.816 162.06L428.816 168.472L430.048 168.472L430.048 169.34L428.816 169.34L428.816 172L427.864 172ZM424 168.472L427.948 168.472L427.948 163.544L424 168.472ZM435.373 172.14C434.701 172.121 434.108 171.958 433.595 171.65C433.082 171.342 432.652 170.941 432.307 170.446C431.962 169.942 431.7 169.401 431.523 168.822C431.346 168.234 431.257 167.66 431.257 167.1C431.257 166.503 431.35 165.905 431.537 165.308C431.733 164.711 432.008 164.169 432.363 163.684C432.727 163.189 433.161 162.797 433.665 162.508C434.169 162.209 434.738 162.06 435.373 162.06C436.054 162.06 436.647 162.219 437.151 162.536C437.664 162.853 438.094 163.264 438.439 163.768C438.784 164.272 439.041 164.818 439.209 165.406C439.386 165.994 439.475 166.559 439.475 167.1C439.475 167.707 439.377 168.309 439.181 168.906C438.994 169.494 438.724 170.031 438.369 170.516C438.014 171.001 437.58 171.393 437.067 171.692C436.563 171.981 435.998 172.131 435.373 172.14ZM432.251 167.1C432.27 167.585 432.344 168.075 432.475 168.57C432.615 169.055 432.816 169.503 433.077 169.914C433.338 170.315 433.656 170.642 434.029 170.894C434.412 171.137 434.86 171.258 435.373 171.258C435.896 171.258 436.353 171.127 436.745 170.866C437.137 170.605 437.459 170.264 437.711 169.844C437.972 169.415 438.168 168.962 438.299 168.486C438.43 168.001 438.495 167.539 438.495 167.1C438.495 166.615 438.425 166.129 438.285 165.644C438.145 165.149 437.94 164.701 437.669 164.3C437.398 163.889 437.072 163.563 436.689 163.32C436.306 163.068 435.868 162.942 435.373 162.942C434.841 162.942 434.379 163.077 433.987 163.348C433.595 163.609 433.268 163.95 433.007 164.37C432.755 164.79 432.564 165.243 432.433 165.728C432.312 166.204 432.251 166.661 432.251 167.1Z" fill="white"/>
<path opacity="0.4" d="M364.779 171.132L364.779 172L360.145 172L360.145 171.132L362.035 171.132L362.035 162.998C361.951 163.11 361.825 163.236 361.657 163.376C361.499 163.507 361.312 163.637 361.097 163.768C360.883 163.889 360.663 163.992 360.439 164.076C360.215 164.16 360.01 164.202 359.823 164.202L359.823 163.306C360.075 163.306 360.327 163.241 360.579 163.11C360.831 162.97 361.065 162.816 361.279 162.648C361.503 162.471 361.681 162.312 361.811 162.172C361.951 162.023 362.026 161.943 362.035 161.934L363.001 161.934L363.001 171.132L364.779 171.132ZM365.732 172C365.722 171.412 365.769 170.894 365.872 170.446C365.974 169.998 366.128 169.601 366.334 169.256C366.548 168.911 366.805 168.612 367.104 168.36C367.402 168.099 367.738 167.87 368.112 167.674C368.466 167.478 368.835 167.301 369.218 167.142C369.6 166.974 369.955 166.792 370.282 166.596C370.608 166.4 370.87 166.162 371.066 165.882C371.271 165.593 371.374 165.233 371.374 164.804C371.374 164.449 371.294 164.123 371.136 163.824C370.986 163.525 370.753 163.287 370.436 163.11C370.118 162.923 369.717 162.83 369.232 162.83C368.756 162.83 368.331 162.909 367.958 163.068C367.594 163.227 367.286 163.418 367.034 163.642C366.791 163.866 366.595 164.071 366.446 164.258L365.816 163.642C365.872 163.577 365.984 163.451 366.152 163.264C366.329 163.077 366.562 162.881 366.852 162.676C367.15 162.471 367.5 162.298 367.902 162.158C368.312 162.009 368.788 161.934 369.33 161.934C370.02 161.934 370.594 162.069 371.052 162.34C371.509 162.601 371.85 162.947 372.074 163.376C372.307 163.805 372.424 164.277 372.424 164.79C372.424 165.285 372.326 165.705 372.13 166.05C371.943 166.386 371.696 166.671 371.388 166.904C371.089 167.128 370.762 167.324 370.408 167.492C370.062 167.66 369.736 167.819 369.428 167.968C368.83 168.239 368.354 168.505 368 168.766C367.645 169.027 367.379 169.289 367.202 169.55C367.034 169.811 366.922 170.073 366.866 170.334C366.81 170.595 366.777 170.861 366.768 171.132L372.438 171.132L372.438 172L365.732 172ZM377.982 172.14C377.31 172.121 376.718 171.958 376.204 171.65C375.691 171.342 375.262 170.941 374.916 170.446C374.571 169.942 374.31 169.401 374.132 168.822C373.955 168.234 373.866 167.66 373.866 167.1C373.866 166.503 373.96 165.905 374.146 165.308C374.342 164.711 374.618 164.169 374.972 163.684C375.336 163.189 375.77 162.797 376.274 162.508C376.778 162.209 377.348 162.06 377.982 162.06C378.664 162.06 379.256 162.219 379.76 162.536C380.274 162.853 380.703 163.264 381.048 163.768C381.394 164.272 381.65 164.818 381.818 165.406C381.996 165.994 382.084 166.559 382.084 167.1C382.084 167.707 381.986 168.309 381.79 168.906C381.604 169.494 381.333 170.031 380.978 170.516C380.624 171.001 380.19 171.393 379.676 171.692C379.172 171.981 378.608 172.131 377.982 172.14ZM374.86 167.1C374.879 167.585 374.954 168.075 375.084 168.57C375.224 169.055 375.425 169.503 375.686 169.914C375.948 170.315 376.265 170.642 376.638 170.894C377.021 171.137 377.469 171.258 377.982 171.258C378.505 171.258 378.962 171.127 379.354 170.866C379.746 170.605 380.068 170.264 380.32 169.844C380.582 169.415 380.778 168.962 380.908 168.486C381.039 168.001 381.104 167.539 381.104 167.1C381.104 166.615 381.034 166.129 380.894 165.644C380.754 165.149 380.549 164.701 380.278 164.3C380.008 163.889 379.681 163.563 379.298 163.32C378.916 163.068 378.477 162.942 377.982 162.942C377.45 162.942 376.988 163.077 376.596 163.348C376.204 163.609 375.878 163.95 375.616 164.37C375.364 164.79 375.173 165.243 375.042 165.728C374.921 166.204 374.86 166.661 374.86 167.1Z" fill="white"/>
<path opacity="0.4" d="M306.582 171.132L306.582 172L301.948 172L301.948 171.132L303.838 171.132L303.838 162.998C303.754 163.11 303.628 163.236 303.46 163.376C303.301 163.507 303.115 163.637 302.9 163.768C302.685 163.889 302.466 163.992 302.242 164.076C302.018 164.16 301.813 164.202 301.626 164.202L301.626 163.306C301.878 163.306 302.13 163.241 302.382 163.11C302.634 162.97 302.867 162.816 303.082 162.648C303.306 162.471 303.483 162.312 303.614 162.172C303.754 162.023 303.829 161.943 303.838 161.934L304.804 161.934L304.804 171.132L306.582 171.132ZM311.609 172.14C310.937 172.121 310.345 171.958 309.831 171.65C309.318 171.342 308.889 170.941 308.543 170.446C308.198 169.942 307.937 169.401 307.759 168.822C307.582 168.234 307.493 167.66 307.493 167.1C307.493 166.503 307.587 165.905 307.773 165.308C307.969 164.711 308.245 164.169 308.599 163.684C308.963 163.189 309.397 162.797 309.901 162.508C310.405 162.209 310.975 162.06 311.609 162.06C312.291 162.06 312.883 162.219 313.387 162.536C313.901 162.853 314.33 163.264 314.675 163.768C315.021 164.272 315.277 164.818 315.445 165.406C315.623 165.994 315.711 166.559 315.711 167.1C315.711 167.707 315.613 168.309 315.417 168.906C315.231 169.494 314.96 170.031 314.605 170.516C314.251 171.001 313.817 171.393 313.303 171.692C312.799 171.981 312.235 172.131 311.609 172.14ZM308.487 167.1C308.506 167.585 308.581 168.075 308.711 168.57C308.851 169.055 309.052 169.503 309.313 169.914C309.575 170.315 309.892 170.642 310.265 170.894C310.648 171.137 311.096 171.258 311.609 171.258C312.132 171.258 312.589 171.127 312.981 170.866C313.373 170.605 313.695 170.264 313.947 169.844C314.209 169.415 314.405 168.962 314.535 168.486C314.666 168.001 314.731 167.539 314.731 167.1C314.731 166.615 314.661 166.129 314.521 165.644C314.381 165.149 314.176 164.701 313.905 164.3C313.635 163.889 313.308 163.563 312.925 163.32C312.543 163.068 312.104 162.942 311.609 162.942C311.077 162.942 310.615 163.077 310.223 163.348C309.831 163.609 309.505 163.95 309.243 164.37C308.991 164.79 308.8 165.243 308.669 165.728C308.548 166.204 308.487 166.661 308.487 167.1ZM321.18 172.14C320.508 172.121 319.915 171.958 319.402 171.65C318.888 171.342 318.459 170.941 318.114 170.446C317.768 169.942 317.507 169.401 317.33 168.822C317.152 168.234 317.064 167.66 317.064 167.1C317.064 166.503 317.157 165.905 317.344 165.308C317.54 164.711 317.815 164.169 318.17 163.684C318.534 163.189 318.968 162.797 319.472 162.508C319.976 162.209 320.545 162.06 321.18 162.06C321.861 162.06 322.454 162.219 322.958 162.536C323.471 162.853 323.9 163.264 324.246 163.768C324.591 164.272 324.848 164.818 325.016 165.406C325.193 165.994 325.282 166.559 325.282 167.1C325.282 167.707 325.184 168.309 324.988 168.906C324.801 169.494 324.53 170.031 324.176 170.516C323.821 171.001 323.387 171.393 322.874 171.692C322.37 171.981 321.805 172.131 321.18 172.14ZM318.058 167.1C318.076 167.585 318.151 168.075 318.282 168.57C318.422 169.055 318.622 169.503 318.884 169.914C319.145 170.315 319.462 170.642 319.836 170.894C320.218 171.137 320.666 171.258 321.18 171.258C321.702 171.258 322.16 171.127 322.552 170.866C322.944 170.605 323.266 170.264 323.518 169.844C323.779 169.415 323.975 168.962 324.106 168.486C324.236 168.001 324.302 167.539 324.302 167.1C324.302 166.615 324.232 166.129 324.092 165.644C323.952 165.149 323.746 164.701 323.476 164.3C323.205 163.889 322.878 163.563 322.496 163.32C322.113 163.068 321.674 162.942 321.18 162.942C320.648 162.942 320.186 163.077 319.794 163.348C319.402 163.609 319.075 163.95 318.814 164.37C318.562 164.79 318.37 165.243 318.24 165.728C318.118 166.204 318.058 166.661 318.058 167.1Z" fill="white"/>
<path opacity="0.4" d="M254.667 169.242C254.667 169.821 254.504 170.325 254.177 170.754C253.86 171.183 253.435 171.519 252.903 171.762C252.381 171.995 251.807 172.112 251.181 172.112C250.519 172.112 249.931 171.981 249.417 171.72C248.904 171.449 248.498 171.095 248.199 170.656C247.91 170.217 247.765 169.727 247.765 169.186C247.765 168.766 247.863 168.388 248.059 168.052C248.265 167.707 248.517 167.417 248.815 167.184C249.123 166.951 249.436 166.783 249.753 166.68C249.464 166.559 249.193 166.4 248.941 166.204C248.689 165.999 248.489 165.761 248.339 165.49C248.19 165.219 248.115 164.921 248.115 164.594C248.115 164.183 248.204 163.824 248.381 163.516C248.568 163.199 248.811 162.933 249.109 162.718C249.408 162.494 249.739 162.331 250.103 162.228C250.477 162.116 250.85 162.06 251.223 162.06C251.587 162.06 251.951 162.116 252.315 162.228C252.689 162.331 253.025 162.489 253.323 162.704C253.631 162.919 253.874 163.185 254.051 163.502C254.238 163.81 254.331 164.169 254.331 164.58C254.331 164.907 254.252 165.21 254.093 165.49C253.944 165.761 253.743 165.999 253.491 166.204C253.239 166.4 252.964 166.559 252.665 166.68C253.029 166.801 253.361 166.988 253.659 167.24C253.967 167.483 254.21 167.772 254.387 168.108C254.574 168.444 254.667 168.822 254.667 169.242ZM253.701 169.172C253.701 168.836 253.627 168.542 253.477 168.29C253.337 168.029 253.141 167.809 252.889 167.632C252.647 167.455 252.376 167.319 252.077 167.226C251.788 167.133 251.494 167.086 251.195 167.086C250.794 167.086 250.402 167.175 250.019 167.352C249.646 167.52 249.338 167.763 249.095 168.08C248.862 168.388 248.745 168.757 248.745 169.186C248.745 169.513 248.815 169.802 248.955 170.054C249.105 170.306 249.301 170.525 249.543 170.712C249.786 170.889 250.052 171.025 250.341 171.118C250.64 171.211 250.939 171.258 251.237 171.258C251.639 171.258 252.026 171.174 252.399 171.006C252.782 170.829 253.095 170.581 253.337 170.264C253.58 169.947 253.701 169.583 253.701 169.172ZM249.067 164.636C249.067 164.991 249.175 165.299 249.389 165.56C249.613 165.812 249.893 166.003 250.229 166.134C250.565 166.265 250.892 166.33 251.209 166.33C251.545 166.33 251.877 166.265 252.203 166.134C252.539 165.994 252.815 165.798 253.029 165.546C253.253 165.285 253.365 164.972 253.365 164.608C253.365 164.253 253.263 163.95 253.057 163.698C252.852 163.446 252.581 163.255 252.245 163.124C251.919 162.993 251.569 162.928 251.195 162.928C250.841 162.928 250.495 162.998 250.159 163.138C249.833 163.269 249.567 163.465 249.361 163.726C249.165 163.978 249.067 164.281 249.067 164.636ZM260.152 172.14C259.48 172.121 258.888 171.958 258.374 171.65C257.861 171.342 257.432 170.941 257.086 170.446C256.741 169.942 256.48 169.401 256.302 168.822C256.125 168.234 256.036 167.66 256.036 167.1C256.036 166.503 256.13 165.905 256.316 165.308C256.512 164.711 256.788 164.169 257.142 163.684C257.506 163.189 257.94 162.797 258.444 162.508C258.948 162.209 259.518 162.06 260.152 162.06C260.834 162.06 261.426 162.219 261.93 162.536C262.444 162.853 262.873 163.264 263.218 163.768C263.564 164.272 263.82 164.818 263.988 165.406C264.166 165.994 264.254 166.559 264.254 167.1C264.254 167.707 264.156 168.309 263.96 168.906C263.774 169.494 263.503 170.031 263.148 170.516C262.794 171.001 262.36 171.393 261.846 171.692C261.342 171.981 260.778 172.131 260.152 172.14ZM257.03 167.1C257.049 167.585 257.124 168.075 257.254 168.57C257.394 169.055 257.595 169.503 257.856 169.914C258.118 170.315 258.435 170.642 258.808 170.894C259.191 171.137 259.639 171.258 260.152 171.258C260.675 171.258 261.132 171.127 261.524 170.866C261.916 170.605 262.238 170.264 262.49 169.844C262.752 169.415 262.948 168.962 263.078 168.486C263.209 168.001 263.274 167.539 263.274 167.1C263.274 166.615 263.204 166.129 263.064 165.644C262.924 165.149 262.719 164.701 262.448 164.3C262.178 163.889 261.851 163.563 261.468 163.32C261.086 163.068 260.647 162.942 260.152 162.942C259.62 162.942 259.158 163.077 258.766 163.348C258.374 163.609 258.048 163.95 257.786 164.37C257.534 164.79 257.343 165.243 257.212 165.728C257.091 166.204 257.03 166.661 257.03 167.1Z" fill="white"/>
<path d="M196.778 168.682C196.778 169.326 196.615 169.909 196.288 170.432C195.971 170.955 195.537 171.37 194.986 171.678C194.445 171.986 193.829 172.14 193.138 172.14C192.391 172.14 191.743 171.958 191.192 171.594C190.651 171.23 190.231 170.707 189.932 170.026C189.633 169.345 189.484 168.528 189.484 167.576C189.484 166.372 189.638 165.355 189.946 164.524C190.263 163.684 190.711 163.054 191.29 162.634C191.869 162.205 192.55 161.99 193.334 161.99C193.959 161.99 194.533 162.125 195.056 162.396C195.588 162.667 196.036 163.054 196.4 163.558L195.322 164.734C195.098 164.389 194.809 164.118 194.454 163.922C194.099 163.717 193.717 163.614 193.306 163.614C192.886 163.614 192.522 163.726 192.214 163.95C191.906 164.174 191.668 164.501 191.5 164.93C191.332 165.35 191.239 165.859 191.22 166.456C191.351 166.232 191.519 166.041 191.724 165.882C191.929 165.714 192.167 165.588 192.438 165.504C192.709 165.411 192.998 165.364 193.306 165.364C193.969 165.364 194.561 165.513 195.084 165.812C195.607 166.101 196.017 166.498 196.316 167.002C196.624 167.497 196.778 168.057 196.778 168.682ZM193.138 170.558C193.474 170.558 193.782 170.474 194.062 170.306C194.342 170.129 194.566 169.9 194.734 169.62C194.902 169.331 194.986 169.018 194.986 168.682C194.986 168.346 194.902 168.043 194.734 167.772C194.566 167.492 194.342 167.273 194.062 167.114C193.791 166.946 193.488 166.862 193.152 166.862C192.816 166.862 192.508 166.946 192.228 167.114C191.948 167.273 191.724 167.492 191.556 167.772C191.397 168.043 191.318 168.346 191.318 168.682C191.318 169.018 191.402 169.331 191.57 169.62C191.738 169.9 191.962 170.129 192.242 170.306C192.522 170.474 192.821 170.558 193.138 170.558ZM202.244 172.14C201.544 172.131 200.923 171.972 200.382 171.664C199.84 171.356 199.388 170.95 199.024 170.446C198.66 169.942 198.384 169.401 198.198 168.822C198.02 168.234 197.932 167.66 197.932 167.1C197.932 166.503 198.03 165.905 198.226 165.308C198.422 164.711 198.706 164.169 199.08 163.684C199.462 163.189 199.92 162.797 200.452 162.508C200.984 162.209 201.581 162.06 202.244 162.06C202.962 162.06 203.588 162.219 204.12 162.536C204.661 162.853 205.114 163.264 205.478 163.768C205.842 164.272 206.112 164.818 206.29 165.406C206.476 165.994 206.57 166.559 206.57 167.1C206.57 167.707 206.472 168.309 206.276 168.906C206.08 169.494 205.79 170.031 205.408 170.516C205.034 171.001 204.582 171.393 204.05 171.692C203.518 171.981 202.916 172.131 202.244 172.14ZM199.878 167.1C199.887 167.492 199.938 167.884 200.032 168.276C200.134 168.659 200.279 169.013 200.466 169.34C200.662 169.667 200.909 169.933 201.208 170.138C201.506 170.334 201.852 170.432 202.244 170.432C202.664 170.432 203.023 170.325 203.322 170.11C203.62 169.895 203.863 169.62 204.05 169.284C204.246 168.948 204.39 168.589 204.484 168.206C204.577 167.823 204.624 167.455 204.624 167.1C204.624 166.708 204.572 166.321 204.47 165.938C204.376 165.546 204.227 165.187 204.022 164.86C203.826 164.533 203.578 164.272 203.28 164.076C202.99 163.871 202.645 163.768 202.244 163.768C201.833 163.768 201.478 163.875 201.18 164.09C200.881 164.305 200.634 164.58 200.438 164.916C200.251 165.252 200.111 165.611 200.018 165.994C199.924 166.377 199.878 166.745 199.878 167.1Z" fill="#FF5441"/>
<path d="M135.04 172L135.04 169.746L130.854 169.746L130.854 168.066L135.628 162.06L136.916 162.06L136.916 168.052L138.148 168.052L138.148 169.746L136.916 169.746L136.916 172L135.04 172ZM132.744 168.052L135.25 168.052L135.25 164.888L132.744 168.052ZM143.593 172.14C142.893 172.131 142.273 171.972 141.731 171.664C141.19 171.356 140.737 170.95 140.373 170.446C140.009 169.942 139.734 169.401 139.547 168.822C139.37 168.234 139.281 167.66 139.281 167.1C139.281 166.503 139.379 165.905 139.575 165.308C139.771 164.711 140.056 164.169 140.429 163.684C140.812 163.189 141.269 162.797 141.801 162.508C142.333 162.209 142.931 162.06 143.593 162.06C144.312 162.06 144.937 162.219 145.469 162.536C146.011 162.853 146.463 163.264 146.827 163.768C147.191 164.272 147.462 164.818 147.639 165.406C147.826 165.994 147.919 166.559 147.919 167.1C147.919 167.707 147.821 168.309 147.625 168.906C147.429 169.494 147.14 170.031 146.757 170.516C146.384 171.001 145.931 171.393 145.399 171.692C144.867 171.981 144.265 172.131 143.593 172.14ZM141.227 167.1C141.237 167.492 141.288 167.884 141.381 168.276C141.484 168.659 141.629 169.013 141.815 169.34C142.011 169.667 142.259 169.933 142.557 170.138C142.856 170.334 143.201 170.432 143.593 170.432C144.013 170.432 144.373 170.325 144.671 170.11C144.97 169.895 145.213 169.62 145.399 169.284C145.595 168.948 145.74 168.589 145.833 168.206C145.927 167.823 145.973 167.455 145.973 167.1C145.973 166.708 145.922 166.321 145.819 165.938C145.726 165.546 145.577 165.187 145.371 164.86C145.175 164.533 144.928 164.272 144.629 164.076C144.34 163.871 143.995 163.768 143.593 163.768C143.183 163.768 142.828 163.875 142.529 164.09C142.231 164.305 141.983 164.58 141.787 164.916C141.601 165.252 141.461 165.611 141.367 165.994C141.274 166.377 141.227 166.745 141.227 167.1Z" fill="#FF5441"/>
<path d="M72.907 172C72.907 171.431 72.9443 170.931 73.019 170.502C73.0937 170.063 73.2103 169.676 73.369 169.34C73.537 168.995 73.7517 168.691 74.013 168.43C74.2743 168.169 74.5963 167.921 74.979 167.688C75.3057 167.501 75.6417 167.319 75.987 167.142C76.3417 166.965 76.6683 166.778 76.967 166.582C77.275 166.386 77.5223 166.162 77.709 165.91C77.905 165.658 78.003 165.35 78.003 164.986C78.003 164.706 77.9423 164.468 77.821 164.272C77.709 164.067 77.541 163.908 77.317 163.796C77.1023 163.684 76.841 163.628 76.533 163.628C76.1783 163.628 75.847 163.693 75.539 163.824C75.2403 163.945 74.9697 164.099 74.727 164.286C74.4937 164.463 74.293 164.641 74.125 164.818L72.949 163.586C73.0797 163.437 73.257 163.269 73.481 163.082C73.7143 162.895 73.9897 162.713 74.307 162.536C74.6337 162.359 75.0023 162.214 75.413 162.102C75.8237 161.99 76.2763 161.934 76.771 161.934C77.499 161.934 78.1103 162.065 78.605 162.326C79.0997 162.578 79.473 162.928 79.725 163.376C79.9863 163.815 80.117 164.323 80.117 164.902C80.117 165.322 80.047 165.695 79.907 166.022C79.7763 166.339 79.5943 166.619 79.361 166.862C79.1277 167.105 78.8663 167.324 78.577 167.52C78.2877 167.707 77.989 167.889 77.681 168.066C77.1957 168.327 76.8037 168.556 76.505 168.752C76.2063 168.948 75.9683 169.13 75.791 169.298C75.623 169.466 75.4923 169.634 75.399 169.802C75.315 169.961 75.2403 170.129 75.175 170.306L80.131 170.306L80.131 172L72.907 172ZM85.7506 172.14C85.0506 172.131 84.4299 171.972 83.8886 171.664C83.3473 171.356 82.8946 170.95 82.5306 170.446C82.1666 169.942 81.8913 169.401 81.7046 168.822C81.5273 168.234 81.4386 167.66 81.4386 167.1C81.4386 166.503 81.5366 165.905 81.7326 165.308C81.9286 164.711 82.2133 164.169 82.5866 163.684C82.9693 163.189 83.4266 162.797 83.9586 162.508C84.4906 162.209 85.0879 162.06 85.7506 162.06C86.4693 162.06 87.0946 162.219 87.6266 162.536C88.1679 162.853 88.6206 163.264 88.9846 163.768C89.3486 164.272 89.6193 164.818 89.7966 165.406C89.9833 165.994 90.0766 166.559 90.0766 167.1C90.0766 167.707 89.9786 168.309 89.7826 168.906C89.5866 169.494 89.2973 170.031 88.9146 170.516C88.5413 171.001 88.0886 171.393 87.5566 171.692C87.0246 171.981 86.4226 172.131 85.7506 172.14ZM83.3846 167.1C83.3939 167.492 83.4453 167.884 83.5386 168.276C83.6413 168.659 83.7859 169.013 83.9726 169.34C84.1686 169.667 84.4159 169.933 84.7146 170.138C85.0133 170.334 85.3586 170.432 85.7506 170.432C86.1706 170.432 86.5299 170.325 86.8286 170.11C87.1273 169.895 87.3699 169.62 87.5566 169.284C87.7526 168.948 87.8973 168.589 87.9906 168.206C88.0839 167.823 88.1306 167.455 88.1306 167.1C88.1306 166.708 88.0793 166.321 87.9766 165.938C87.8833 165.546 87.7339 165.187 87.5286 164.86C87.3326 164.533 87.0853 164.272 86.7866 164.076C86.4973 163.871 86.1519 163.768 85.7506 163.768C85.3399 163.768 84.9853 163.875 84.6866 164.09C84.3879 164.305 84.1406 164.58 83.9446 164.916C83.7579 165.252 83.6179 165.611 83.5246 165.994C83.4313 166.377 83.3846 166.745 83.3846 167.1Z" fill="#FF5441"/>
<path d="M32.9918 172.14C32.2918 172.131 31.6711 171.972 31.1298 171.664C30.5885 171.356 30.1358 170.95 29.7718 170.446C29.4078 169.942 29.1325 169.401 28.9458 168.822C28.7685 168.234 28.6798 167.66 28.6798 167.1C28.6798 166.503 28.7778 165.905 28.9738 165.308C29.1698 164.711 29.4545 164.169 29.8278 163.684C30.2105 163.189 30.6678 162.797 31.1998 162.508C31.7318 162.209 32.3291 162.06 32.9918 162.06C33.7105 162.06 34.3358 162.219 34.8678 162.536C35.4091 162.853 35.8618 163.264 36.2258 163.768C36.5898 164.272 36.8605 164.818 37.0378 165.406C37.2245 165.994 37.3178 166.559 37.3178 167.1C37.3178 167.707 37.2198 168.309 37.0238 168.906C36.8278 169.494 36.5385 170.031 36.1558 170.516C35.7825 171.001 35.3298 171.393 34.7978 171.692C34.2658 171.981 33.6638 172.131 32.9918 172.14ZM30.6258 167.1C30.6351 167.492 30.6865 167.884 30.7798 168.276C30.8825 168.659 31.0271 169.013 31.2138 169.34C31.4098 169.667 31.6571 169.933 31.9558 170.138C32.2545 170.334 32.5998 170.432 32.9918 170.432C33.4118 170.432 33.7711 170.325 34.0698 170.11C34.3685 169.895 34.6111 169.62 34.7978 169.284C34.9938 168.948 35.1385 168.589 35.2318 168.206C35.3251 167.823 35.3718 167.455 35.3718 167.1C35.3718 166.708 35.3205 166.321 35.2178 165.938C35.1245 165.546 34.9751 165.187 34.7698 164.86C34.5738 164.533 34.3265 164.272 34.0278 164.076C33.7385 163.871 33.3931 163.768 32.9918 163.768C32.5811 163.768 32.2265 163.875 31.9278 164.09C31.6291 164.305 31.3818 164.58 31.1858 164.916C30.9991 165.252 30.8591 165.611 30.7658 165.994C30.6725 166.377 30.6258 166.745 30.6258 167.1Z" fill="#FF5441"/>
<path d="M29.188 211L29.188 201.586H37.288V211H35.308V203.332H31.168L31.168 211H29.188ZM39.6821 211V201.586H45.6941V203.332H41.6621V211H39.6821ZM57.448 198.22L48.682 211H46.486L55.252 198.22H57.448ZM58.5786 211V201.586H60.6306L63.8706 207.4L67.1286 201.586H69.1446V211H67.2546V204.376L64.4826 209.326H63.2406L60.4506 204.376V211H58.5786ZM70.7601 211.09V209.326C71.0601 209.326 71.3301 209.254 71.5701 209.11C71.8101 208.954 72.0201 208.702 72.2001 208.354C72.3801 207.994 72.5241 207.496 72.6321 206.86C72.7401 206.224 72.8121 205.414 72.8481 204.43L72.9741 201.586H79.6881V211H77.7081V203.332H74.7201L74.6841 204.61C74.6361 205.87 74.5221 206.92 74.3421 207.76C74.1621 208.588 73.9101 209.248 73.5861 209.74C73.2741 210.22 72.8781 210.568 72.3981 210.784C71.9301 210.988 71.3841 211.09 70.7601 211.09Z" fill="white"/>
<defs>
<filter id="filter0_dd_3794_9568" x="171" y="64" width="619" height="110" filterUnits="userSpaceOnUse" color-interpolation-filters="sRGB">
<feFlood flood-opacity="0" result="BackgroundImageFix"/>
<feColorMatrix in="SourceAlpha" type="matrix" values="0 0 0 0 0 0 0 0 0 0 0 0 0 0 0 0 0 0 127 0" result="hardAlpha"/>
<feOffset dx="4" dy="8"/>
<feGaussianBlur stdDeviation="20"/>
<feComposite in2="hardAlpha" operator="out"/>
<feColorMatrix type="matrix" values="0 0 0 0 0.219608 0 0 0 0 0.737255 0 0 0 0 0.886275 0 0 0 0.4 0"/>
<feBlend mode="normal" in2="BackgroundImageFix" result="effect1_dropShadow_3794_9568"/>
<feColorMatrix in="SourceAlpha" type="matrix" values="0 0 0 0 0 0 0 0 0 0 0 0 0 0 0 0 0 0 127 0" result="hardAlpha"/>
<feOffset dx="2" dy="4"/>
<feGaussianBlur stdDeviation="4"/>
<feComposite in2="hardAlpha" operator="out"/>
<feColorMatrix type="matrix" values="0 0 0 0 0.219608 0 0 0 0 0.737255 0 0 0 0 0.886275 0 0 0 0.2 0"/>
<feBlend mode="normal" in2="effect1_dropShadow_3794_9568" result="effect2_dropShadow_3794_9568"/>
<feBlend mode="normal" in="SourceGraphic" in2="effect2_dropShadow_3794_9568" result="shape"/>
</filter>
<filter id="filter1_dd_3794_9568" x="0" y="64" width="265" height="110" filterUnits="userSpaceOnUse" color-interpolation-filters="sRGB">
<feFlood flood-opacity="0" result="BackgroundImageFix"/>
<feColorMatrix in="SourceAlpha" type="matrix" values="0 0 0 0 0 0 0 0 0 0 0 0 0 0 0 0 0 0 127 0" result="hardAlpha"/>
<feOffset dx="4" dy="8"/>
<feGaussianBlur stdDeviation="20"/>
<feComposite in2="hardAlpha" operator="out"/>
<feColorMatrix type="matrix" values="0 0 0 0 1 0 0 0 0 0.329412 0 0 0 0 0.254902 0 0 0 0.4 0"/>
<feBlend mode="normal" in2="BackgroundImageFix" result="effect1_dropShadow_3794_9568"/>
<feColorMatrix in="SourceAlpha" type="matrix" values="0 0 0 0 0 0 0 0 0 0 0 0 0 0 0 0 0 0 127 0" result="hardAlpha"/>
<feOffset dx="2" dy="4"/>
<feGaussianBlur stdDeviation="4"/>
<feComposite in2="hardAlpha" operator="out"/>
<feColorMatrix type="matrix" values="0 0 0 0 1 0 0 0 0 0.329412 0 0 0 0 0.254902 0 0 0 0.2 0"/>
<feBlend mode="normal" in2="effect1_dropShadow_3794_9568" result="effect2_dropShadow_3794_9568"/>
<feBlend mode="normal" in="SourceGraphic" in2="effect2_dropShadow_3794_9568" result="shape"/>
</filter>
</defs>
</svg>
