<svg width="161" height="160" viewBox="0 0 161 160" fill="none" xmlns="http://www.w3.org/2000/svg">
<rect x="0.5" width="160" height="160" rx="80" fill="url(#paint0_linear_3845_11663)"/>
<path d="M90.9645 91.192V97H71.6685V91.192H78.2925V69.016C78.0365 69.4 77.6045 69.832 76.9965 70.312C76.4205 70.76 75.7485 71.208 74.9805 71.656C74.2445 72.072 73.4765 72.424 72.6765 72.712C71.9085 73 71.2045 73.144 70.5645 73.144V67.192C71.4285 67.192 72.3085 66.968 73.2045 66.52C74.1005 66.072 74.9325 65.56 75.7005 64.984C76.4685 64.408 77.0765 63.88 77.5245 63.4C78.0045 62.888 78.2605 62.616 78.2925 62.584H84.8685V91.192H90.9645Z" fill="white"/>
<g opacity="0.6">
<path d="M120.892 124.144L120.337 124.67C120.016 124.992 119.548 125.371 119.08 125.78C118.613 126.189 118.175 126.569 117.824 126.832L117.239 127.3L122.207 133.552C122.412 133.143 122.645 132.734 122.821 132.296C122.996 131.857 123.113 131.448 123.23 131.01C123.492 130.19 123.601 129.328 123.551 128.468C123.496 127.585 123.225 126.729 122.761 125.975C122.297 125.221 121.656 124.592 120.892 124.144Z" fill="white"/>
<path d="M111.249 119.82L116.246 126.043L116.801 125.605C117.152 125.342 117.59 124.933 118.029 124.553L119.256 123.502L119.782 122.976C119.35 122.241 118.772 121.602 118.084 121.099C117.395 120.597 116.61 120.241 115.778 120.054C115.035 119.857 114.268 119.759 113.499 119.762H112.36L111.249 119.82Z" fill="white"/>
<path d="M129.98 128.965C129.98 128.965 130.535 128.205 131.207 127.037C131.593 126.364 131.944 125.671 132.259 124.962C132.259 124.553 132.581 124.174 132.727 123.765C132.873 123.356 132.99 122.888 133.107 122.45C133.357 121.595 133.494 120.711 133.516 119.821C133.546 118.981 133.438 118.142 133.195 117.337C132.933 116.519 132.477 115.775 131.867 115.17C131.256 114.565 130.509 114.116 129.688 113.861L127.905 116.344L126.62 117.98L126.211 118.506L126.035 118.71C126.032 119.913 126.23 121.108 126.62 122.245C126.986 123.377 127.436 124.481 127.964 125.547C128.555 126.732 129.229 127.874 129.98 128.965Z" fill="white"/>
<path d="M114.756 114.182C115.795 114.967 116.9 115.661 118.058 116.256C119.091 116.782 120.179 117.194 121.301 117.483C122.445 117.783 123.637 117.852 124.808 117.688L124.954 117.483C124.954 117.483 125.188 117.162 125.363 116.957L126.649 115.351L128.344 112.955C127.777 112.323 127.09 111.811 126.322 111.45C125.554 111.089 124.721 110.885 123.873 110.851C123.117 110.816 122.36 110.885 121.623 111.056C120.905 111.198 120.201 111.404 119.519 111.669L118.555 112.078L117.649 112.517C117.132 112.752 116.634 113.025 116.158 113.335C115.674 113.588 115.205 113.871 114.756 114.182Z" fill="white"/>
<path d="M139.623 116.519C139.623 116.519 139.974 115.643 140.383 114.357C140.383 114.036 140.587 113.685 140.704 113.306C140.821 112.926 140.85 112.517 140.938 112.108C141.096 111.239 141.194 110.361 141.23 109.478C141.348 107.739 140.984 106 140.178 104.453C139.734 103.714 139.122 103.09 138.39 102.633C137.659 102.176 136.83 101.899 135.97 101.824L135.62 102.73L135.24 103.635L134.802 104.658C134.48 105.33 134.188 106.031 133.925 106.528L133.487 107.375C134.136 109.685 135.294 111.822 136.876 113.627C137.607 114.503 138.279 115.204 138.776 115.701L139.623 116.519Z" fill="white"/>
<path d="M121.506 105.476C121.846 105.647 122.197 105.793 122.558 105.914C123.414 106.256 124.293 106.54 125.188 106.761C127.419 107.491 129.824 107.491 132.055 106.761L132.464 105.943C132.727 105.447 133.019 104.775 133.311 104.103C133.604 103.431 133.633 103.431 133.75 103.109L134.13 102.233L134.451 101.386C133.762 100.889 132.979 100.54 132.15 100.359C131.32 100.178 130.462 100.17 129.629 100.334C128.172 100.63 126.796 101.238 125.597 102.116C125.015 102.477 124.459 102.878 123.931 103.314L123.259 103.898L122.645 104.453C122.243 104.768 121.862 105.109 121.506 105.476Z" fill="white"/>
<path d="M146.227 102.204C146.227 102.204 146.227 101.97 146.227 101.59C146.227 101.21 146.227 101.152 146.227 100.86C146.227 100.568 146.227 100.275 146.227 99.9249C146.227 99.5743 146.227 98.4641 146.227 97.6168C146.186 96.735 146.088 95.8568 145.935 94.9875C145.935 94.5492 145.73 94.1111 145.614 93.6728C145.478 93.2521 145.312 92.842 145.117 92.4457C144.791 91.6735 144.337 90.9622 143.773 90.3422C143.171 89.7215 142.432 89.2523 141.614 88.9729C140.796 88.6936 139.923 88.6122 139.068 88.7354C139.074 88.823 139.074 88.9108 139.068 88.9984C139.088 89.2219 139.088 89.4467 139.068 89.6703C139.068 90.2253 138.834 90.985 138.688 91.7154C138.542 92.4457 138.542 92.475 138.454 92.8256C138.367 93.1761 138.308 93.4975 138.25 93.7605L138.016 94.6953C138.563 95.7643 139.261 96.7484 140.091 97.6168C140.904 98.4929 141.794 99.2946 142.75 100.013C143.849 100.835 145.011 101.567 146.227 102.204Z" fill="white"/>
<path d="M126.123 95.5133C127.403 95.7701 128.704 95.907 130.009 95.9224C131.166 95.9668 132.324 95.8686 133.457 95.6302C134.61 95.4252 135.706 94.9771 136.672 94.3156L136.876 93.4099C136.876 93.1469 137.022 92.8256 137.081 92.475C137.139 92.1244 137.256 91.7738 137.315 91.4232C137.373 91.0726 137.578 89.9624 137.665 89.4073C137.753 88.8522 137.665 88.9106 137.665 88.7646C137.653 88.6774 137.653 88.5888 137.665 88.5016C136.885 88.1665 136.045 87.9936 135.196 87.9936C134.347 87.9936 133.507 88.1665 132.727 88.5016C132.03 88.7999 131.373 89.1826 130.769 89.6411L129.951 90.3715C129.674 90.6099 129.411 90.8634 129.162 91.131C128.665 91.6569 128.256 92.1828 127.847 92.7087C127.482 93.141 127.15 93.6 126.853 94.0818L126.473 94.6369L126.21 95.0751C126.164 95.2172 126.135 95.3643 126.123 95.5133Z" fill="white"/>
<path d="M149.5 86.7779C149.463 86.0535 149.385 85.3317 149.266 84.616C149.232 84.2619 149.173 83.9105 149.091 83.5642C149.091 83.2137 149.003 82.8339 148.828 82.4249C148.594 81.6361 148.331 80.818 148.01 80H140.003V81.2563C140.776 82.1728 141.67 82.9788 142.662 83.6519C143.653 84.3151 144.699 84.8919 145.789 85.3757C146.983 85.9497 148.225 86.4188 149.5 86.7779Z" fill="white"/>
<path d="M138.396 81.227V80H130.418C130.068 80.6135 129.776 81.1978 129.513 81.7529L129.162 82.5709C129.162 82.8339 128.957 83.0676 128.87 83.2722C128.676 83.7591 128.51 84.2565 128.373 84.7621C129.669 84.7135 130.96 84.5572 132.23 84.2946C133.368 84.0736 134.476 83.7207 135.532 83.2429C136.619 82.7815 137.595 82.0943 138.396 81.227Z" fill="white"/>
<path d="M137.811 88.5016C137.799 88.5888 137.799 88.6774 137.811 88.7646C137.811 88.9106 137.811 89.1444 137.811 89.4073C137.811 89.6702 137.578 90.6928 137.461 91.4232C137.344 92.1536 137.315 92.1536 137.227 92.475C137.139 92.7963 137.081 93.1469 137.022 93.4099L136.818 94.3156L136.526 95.3965C136.321 96.0685 136.117 96.9449 135.824 97.8213C135.532 98.6978 135.24 99.545 135.006 100.188L134.276 102.116L133.896 102.993C133.896 103.314 133.604 103.635 133.457 103.986C133.311 104.336 132.873 105.33 132.61 105.826L132.201 106.644C132.201 106.644 131.967 107.053 131.675 107.667C131.383 108.28 131.324 108.31 131.12 108.689L130.448 109.858C130.009 110.647 129.483 111.406 129.133 111.991L128.49 112.955L126.795 115.351L125.509 116.957C125.334 117.162 125.217 117.366 125.1 117.483L124.954 117.688C124.954 117.688 124.633 118.009 124.194 118.535L123.434 119.412C123.142 119.762 122.821 120.054 122.499 120.405C122.178 120.755 121.243 121.749 120.746 122.187L119.928 122.976L119.402 123.502L118.175 124.553C117.736 124.933 117.298 125.342 116.947 125.605L116.392 126.043L117.386 127.3L117.97 126.832C118.321 126.569 118.788 126.16 119.227 125.78C119.665 125.401 120.162 124.992 120.483 124.67L121.038 124.144L121.886 123.356C122.412 122.888 123.025 122.187 123.668 121.515C124.311 120.843 124.34 120.843 124.633 120.492L125.422 119.587L126.181 118.71L126.357 118.506L126.766 117.98L128.051 116.344L129.834 113.861L130.477 112.867C130.857 112.283 131.383 111.494 131.821 110.676L132.522 109.478L133.107 108.427L133.633 107.375L134.071 106.528C134.334 106.031 134.626 105.33 134.948 104.658L135.386 103.635L135.766 102.729L136.117 101.824L136.526 100.743C136.759 100.071 137.052 99.1945 137.373 98.318C137.695 97.4416 137.87 96.5067 138.074 95.8347C138.279 95.1628 138.367 94.6953 138.367 94.6953L138.6 93.7605C138.6 93.4975 138.6 93.1761 138.805 92.8255C139.009 92.475 138.98 92.0951 139.039 91.7153C139.097 91.3355 139.302 90.2253 139.419 89.6702C139.438 89.4467 139.438 89.2219 139.419 88.9983C139.425 88.9108 139.425 88.8229 139.419 88.7354C139.419 88.7354 139.419 88.268 139.594 87.5668C139.769 86.8656 139.594 86.8072 139.594 86.369C139.594 85.9307 139.594 85.4633 139.594 84.9958C139.594 84.061 139.74 83.1261 139.74 82.4249C139.74 81.7237 139.74 81.2563 139.74 81.2563V80H138.133V81.227C138.133 81.227 138.133 81.6652 138.133 82.3664C138.133 83.0676 138.133 83.9441 137.987 84.879C137.987 85.3172 137.987 85.7847 137.987 86.1937C137.987 86.6027 137.987 87.0409 137.841 87.3623L137.811 88.5016Z" fill="white"/>
<path d="M70.7774 139.891H70.0176L68.3812 139.599L66.7741 139.307L66.0143 139.132L64.261 146.903L65.6052 146.611L66.891 146.144C67.6822 145.791 68.4199 145.328 69.0826 144.77C69.7037 144.226 70.1763 143.532 70.456 142.755C70.7825 141.838 70.8925 140.858 70.7774 139.891Z" fill="white"/>
<path d="M68.1475 129.666L66.3942 137.437L67.0955 137.583C67.6153 137.719 68.1421 137.826 68.6734 137.905L70.2807 138.197H70.982C71.3392 137.402 71.5239 136.541 71.5239 135.67C71.5239 134.799 71.3392 133.937 70.982 133.143C70.6632 132.444 70.2609 131.787 69.7839 131.185L69.0241 130.338L68.1475 129.666Z" fill="white"/>
<path d="M72.7937 150C72.7937 150 73.7288 150 75.073 149.737L76.1541 149.562L77.323 149.27C78.1726 149.043 79.0031 148.75 79.8068 148.393C80.615 148.015 81.3876 147.565 82.1153 147.049C82.4561 146.8 82.7783 146.527 83.0796 146.231C83.3672 145.92 83.631 145.588 83.8686 145.238C84.3444 144.522 84.6405 143.702 84.7321 142.848C84.8236 141.994 84.7079 141.13 84.3946 140.33H83.4595C82.8751 140.33 82.1445 140.33 81.3556 140.33H78.3166C77.3861 141.088 76.5779 141.984 75.9204 142.988C75.2745 143.979 74.6984 145.014 74.1964 146.085C73.6319 147.353 73.163 148.662 72.7937 150Z" fill="white"/>
<path d="M74.7223 128.877C74.7689 130.174 74.9253 131.464 75.1899 132.734C75.42 133.878 75.7726 134.995 76.2418 136.064C76.696 137.172 77.3838 138.168 78.2581 138.986H79.1932C79.7484 138.986 80.5082 138.986 81.2387 138.986C81.9693 138.986 82.6997 138.986 83.2549 138.986H84.19C84.3284 138.147 84.299 137.289 84.1034 136.461C83.9077 135.634 83.5499 134.853 83.0504 134.165C82.5746 133.583 82.0464 133.045 81.4725 132.558C80.9089 132.084 80.3023 131.664 79.6607 131.302C79.0471 130.952 78.4335 130.601 77.849 130.338L77.0308 130.017L76.271 129.695C75.7725 129.39 75.2552 129.117 74.7223 128.877Z" fill="white"/>
<path d="M88.4272 149.737L89.0408 149.562C89.571 149.418 90.0889 149.233 90.5895 149.007C92.1377 148.411 93.6014 147.615 94.9435 146.64C96.3806 145.651 97.5058 144.273 98.1871 142.667C98.4938 141.864 98.6034 140.999 98.5068 140.145C98.4101 139.291 98.1102 138.473 97.6319 137.759H97.3689L96.7261 137.934L94.7098 138.518L91.7876 139.19C91.0138 140.119 90.4104 141.177 90.0052 142.316C89.8006 142.871 89.596 143.485 89.4207 144.069C89.2454 144.654 89.1284 145.209 89.0116 145.734C88.717 147.052 88.5217 148.39 88.4272 149.737Z" fill="white"/>
<path d="M85.7388 128.702C86.071 129.964 86.5109 131.196 87.0538 132.383C87.2875 132.88 87.5505 133.406 87.8427 133.902C88.1349 134.399 88.4564 134.896 88.8071 135.392C89.5111 136.328 90.3954 137.112 91.4077 137.7L94.3299 137.058L96.2878 136.473L96.9306 136.298H97.1644C97.1203 135.452 96.903 134.624 96.526 133.865C96.1491 133.106 95.6204 132.433 94.9728 131.886C93.8215 130.937 92.4894 130.231 91.0571 129.812C89.8646 129.438 88.6428 129.164 87.4044 128.994C86.9369 128.994 86.5278 128.848 86.2356 128.848L85.7388 128.702Z" fill="white"/>
<path d="M103.739 146.027C103.739 146.027 104.557 145.588 105.697 144.829L106.574 144.186C106.898 143.939 107.211 143.676 107.509 143.397C108.189 142.834 108.815 142.208 109.379 141.527C110.565 140.247 111.366 138.657 111.687 136.941C111.801 136.085 111.709 135.215 111.419 134.402C111.13 133.589 110.651 132.857 110.022 132.266L109.204 132.734L108.356 133.23L107.363 133.727L105.493 134.691L104.616 135.071C103.689 137.277 103.27 139.663 103.389 142.053C103.421 143.384 103.538 144.711 103.739 146.027Z" fill="white"/>
<path d="M96.4338 126.131C97.0324 127.284 97.7367 128.38 98.5378 129.403C99.8407 131.343 101.737 132.809 103.944 133.581L104.937 133.172C105.463 132.938 106.106 132.588 106.778 132.237L107.743 131.74L108.561 131.273L109.35 130.805C109.114 129.989 108.716 129.229 108.179 128.572C107.641 127.914 106.976 127.372 106.223 126.978C104.889 126.328 103.439 125.95 101.957 125.868H98.2164C97.0767 126.014 96.4338 126.131 96.4338 126.131Z" fill="white"/>
<path d="M117.824 139.015L118.292 138.606C118.69 138.255 119.061 137.874 119.402 137.467C119.84 136.999 120.337 136.415 120.834 135.772C121.342 135.085 121.801 134.362 122.207 133.61L117.24 127.358L116.246 128.147C116.246 128.439 116.246 128.731 116.1 129.023C116.071 129.315 116.071 129.608 116.1 129.9C116.056 130.503 116.056 131.108 116.1 131.711C116.221 132.902 116.426 134.084 116.714 135.246C116.979 136.531 117.35 137.792 117.824 139.015Z" fill="white"/>
<path d="M115.282 126.803L116.246 126.043L111.249 119.82L109.321 120.23L107.743 120.668L106.661 121.048H106.252C107.102 122.037 108.03 122.955 109.028 123.794C109.937 124.531 110.915 125.177 111.95 125.722C112.473 125.991 113.021 126.206 113.587 126.365C113.863 126.457 114.146 126.525 114.434 126.569L115.282 126.803Z" fill="white"/>
<path d="M109.204 130.864L108.415 131.331L107.596 131.799L106.632 132.296C105.96 132.646 105.317 132.997 104.791 133.23L103.944 133.581L102.921 134.078L102.424 134.282L101.84 134.516L100.583 135.013C99.7359 135.363 98.8593 135.626 98.2164 135.86L97.1351 136.21H96.9014L96.2585 136.386L94.3006 136.97L91.3785 137.613H91.0863L90.2682 137.759L89.0992 137.963H87.7843L85.3005 138.285H83.2258C82.6706 138.285 81.94 138.285 81.2095 138.285C80.4789 138.285 79.7191 138.285 79.1639 138.285H77.0892C76.4171 138.285 75.5113 138.285 74.6054 138.109H73.2612L72.0924 137.963H70.2514L68.6442 137.671C68.1128 137.593 67.5861 137.485 67.0663 137.35L66.3649 137.204L65.9851 138.781L66.7448 138.957L68.3521 139.249L69.9885 139.541H70.7481L71.8878 139.687H74.4593C75.3944 139.687 76.3295 139.862 77.0308 139.862H81.2387C82.0277 139.862 82.7582 139.862 83.3426 139.862H85.4465L88.018 139.541H89.3915L90.5603 139.336L91.4077 139.161H91.7292L94.6514 138.489L96.6677 137.905L97.3105 137.73H97.5735L98.6839 137.35C99.3559 137.116 100.233 136.853 101.109 136.473L102.395 135.977L102.979 135.743L104.557 135.042L105.434 134.662L107.304 133.698L108.298 133.201L109.145 132.704L109.963 132.237L110.226 132.091L110.957 131.653L113.149 130.25L115.252 128.76L115.925 128.264L116.188 128.059L117.181 127.27L116.188 126.014L115.223 126.774L114.96 126.978L114.288 127.475C113.733 127.855 113.002 128.41 112.243 128.907L110.139 130.28L109.408 130.689L109.204 130.864Z" fill="white"/>
<path d="M27.2082 110.53L26.8576 109.858C26.5586 109.386 26.2855 108.899 26.0394 108.397L24.9289 106.265L17.7405 109.8C19.0733 111 20.694 111.835 22.4451 112.224C23.317 112.352 24.2068 112.264 25.037 111.968C25.8672 111.673 26.6125 111.179 27.2082 110.53Z" fill="white"/>
<path d="M33.5785 102.087L26.39 105.563L27.4712 107.638C27.6992 108.128 27.9528 108.606 28.231 109.069L28.6109 109.712C29.4441 109.471 30.2189 109.061 30.8874 108.508C31.5559 107.955 32.1038 107.271 32.4973 106.498C33.1428 105.113 33.5101 103.614 33.5785 102.087Z" fill="white"/>
<path d="M20.5165 118.331L20.9549 118.798L22.1237 119.967C22.6497 120.405 23.2341 120.931 23.9062 121.427C24.6302 121.935 25.3814 122.403 26.1563 122.83C26.9486 123.236 27.781 123.559 28.6401 123.794C29.4485 124.014 30.2886 124.093 31.1239 124.027C31.987 123.954 32.8198 123.674 33.5521 123.211C34.2844 122.749 34.8947 122.117 35.3318 121.369L34.6597 120.697C34.2798 120.259 33.8123 119.674 33.2863 119.119C32.7603 118.564 32.322 117.951 31.9713 117.483C31.6207 117.016 31.3868 116.753 31.3868 116.753L30.5395 116.578H29.6336C29.0305 116.534 28.4249 116.534 27.8218 116.578C26.6292 116.675 25.4466 116.87 24.2861 117.162C23.0013 117.454 21.741 117.844 20.5165 118.331Z" fill="white"/>
<path d="M38.3124 106.878C37.3023 107.768 36.3733 108.746 35.5363 109.8C34.8036 110.705 34.167 111.684 33.6369 112.721C33.3705 113.258 33.1458 113.815 32.9648 114.386C32.9648 114.679 32.8187 114.942 32.7602 115.234C32.7315 115.515 32.7315 115.799 32.7602 116.081L33.3447 116.811C33.6661 117.25 34.1337 117.834 34.6304 118.389L35.9454 119.908L36.5882 120.58C37.3101 120.16 37.9407 119.6 38.4426 118.933C38.9444 118.266 39.3075 117.504 39.5104 116.694C39.7096 115.961 39.8079 115.205 39.8026 114.445C39.8131 113.721 39.7642 112.998 39.6565 112.283C39.574 111.601 39.4371 110.927 39.2474 110.267C39.1334 109.714 38.9871 109.167 38.8091 108.631L38.4292 107.492L38.3124 106.878Z" fill="white"/>
<path d="M30.5395 130.455C30.5395 130.455 31.27 131.01 32.4389 131.711C33.0525 132.033 33.7538 132.383 34.5428 132.734C34.9324 132.922 35.3324 133.088 35.7409 133.23L37.0266 133.61C37.8879 133.832 38.7687 133.969 39.6566 134.019C40.4958 134.035 41.3329 133.927 42.1404 133.698C42.9592 133.436 43.7028 132.98 44.3081 132.37C44.9134 131.76 45.3627 131.013 45.6178 130.192L43.1631 128.41L41.5267 127.124L40.9715 126.715L40.767 126.54C39.5658 126.528 38.371 126.716 37.2311 127.095C36.1085 127.462 35.0146 127.911 33.9583 128.439C32.7683 129.022 31.6253 129.696 30.5395 130.455Z" fill="white"/>
<path d="M45.2963 115.263C44.5193 116.302 43.8349 117.406 43.2509 118.564C42.7148 119.596 42.2934 120.684 41.9943 121.807C41.6888 122.94 41.629 124.126 41.8189 125.284L41.9943 125.459L42.5203 125.868L44.1275 127.124L46.5236 128.848C47.1673 128.285 47.6866 127.594 48.0488 126.82C48.411 126.045 48.6082 125.204 48.6276 124.349C48.6722 123.604 48.6132 122.857 48.4523 122.129C48.2912 121.412 48.0763 120.709 47.8094 120.025C47.6633 119.674 47.5464 119.353 47.4002 119.061C47.2541 118.769 47.1081 118.447 46.9912 118.155C46.8743 117.863 46.4068 117.074 46.173 116.636C45.9392 116.198 45.2963 115.263 45.2963 115.263Z" fill="white"/>
<path d="M42.9878 140.125C42.9878 140.125 43.8352 140.476 45.1502 140.885L46.2021 141.177C46.5942 141.288 46.995 141.367 47.4002 141.411C48.2562 141.593 49.1264 141.701 50.001 141.732C51.7452 141.858 53.489 141.483 55.0271 140.651C55.7728 140.214 56.4016 139.604 56.8597 138.871C57.3177 138.138 57.5913 137.306 57.657 136.444L56.7803 136.093L55.8453 135.743L54.8517 135.305L52.9523 134.399L52.1049 133.961C49.787 134.608 47.648 135.778 45.8515 137.379C45.1238 137.971 44.4311 138.605 43.7768 139.278C43.4925 139.54 43.2286 139.823 42.9878 140.125Z" fill="white"/>
<path d="M54.0043 122.012C53.8332 122.351 53.6868 122.703 53.566 123.063C53.2476 123.915 52.9745 124.783 52.7478 125.664C52.0182 127.894 52.0182 130.299 52.7478 132.529L53.566 132.967C54.0628 133.23 54.7348 133.493 55.4069 133.815L56.4005 134.253L58.1537 134.954C58.6424 134.262 58.9873 133.478 59.168 132.65C59.3487 131.822 59.3615 130.967 59.2057 130.134C58.8874 128.67 58.2707 127.287 57.394 126.073C57.0325 125.501 56.6322 124.954 56.1959 124.437L55.6115 123.765L55.0563 123.151C54.7325 122.747 54.381 122.367 54.0043 122.012Z" fill="white"/>
<path d="M57.2771 146.728H59.4687C60.1116 146.728 60.9006 146.728 61.6896 146.728C62.5525 146.711 63.4125 146.623 64.261 146.465L66.0143 138.694L64.787 138.402C63.7124 138.927 62.7265 139.617 61.8649 140.447C61.0029 141.284 60.2021 142.182 59.4687 143.134C58.6464 144.274 57.9137 145.475 57.2771 146.728Z" fill="white"/>
<path d="M65.1961 137.145L66.3942 137.437L68.1475 129.666C67.6703 129.213 67.1626 128.793 66.628 128.41C66.1604 128.03 65.6929 127.709 65.313 127.446L64.7578 127.095L64.3486 126.832L63.9688 126.598C63.7294 127.881 63.5925 129.18 63.5597 130.484C63.5141 131.641 63.6122 132.799 63.8519 133.932C64.0428 135.093 64.5032 136.194 65.1961 137.145Z" fill="white"/>
<path d="M58.183 134.954L56.4297 134.253L55.4361 133.815C54.764 133.493 54.0919 133.23 53.5952 132.967L52.777 132.529L51.7542 132.003L50.7315 131.448L49.5626 130.776C48.7736 130.338 48.0139 129.812 47.4295 129.462L46.4651 128.848L44.069 127.124L42.4618 125.868L41.9358 125.459L41.7605 125.284L40.0072 123.765C39.6858 123.502 39.3644 123.151 39.0429 122.859C38.7215 122.567 37.6987 121.603 37.2311 121.106L36.4422 120.259L35.7993 119.587L34.4844 118.068C33.9876 117.512 33.5201 116.928 33.1986 116.49L32.6142 115.76L32.4389 115.526L31.9421 114.854L30.481 112.809L29.1368 110.676C28.9323 110.384 28.8154 110.15 28.6985 109.975L28.5524 109.712L28.1726 109.069C27.8944 108.606 27.6408 108.128 27.4128 107.638L26.3316 105.563L24.8705 106.265L25.9809 108.397C26.2271 108.899 26.5002 109.386 26.7991 109.858L27.1498 110.53L27.3251 110.793C27.4532 111.047 27.5997 111.291 27.7634 111.523L29.1368 113.715L30.6271 115.818L31.1239 116.49C31.2046 116.567 31.2735 116.656 31.3284 116.753C31.3284 116.753 31.5915 117.045 31.9129 117.483C32.2343 117.922 32.731 118.535 33.2278 119.119C33.7246 119.704 34.2213 120.259 34.6012 120.697L35.2733 121.369L36.0623 122.216C36.5591 122.742 37.2312 123.385 37.9033 124.028C38.5754 124.67 38.5754 124.7 38.926 124.962L39.8319 125.751L40.7085 126.54L40.9131 126.715L41.4683 127.124L43.1047 128.41L45.5593 130.192L46.5528 130.806C47.1664 131.185 47.9262 131.74 48.7444 132.179L49.9425 132.851C50.2811 133.066 50.6324 133.261 50.9945 133.435L52.0464 133.961L52.8939 134.399L54.7933 135.305L55.7868 135.743L56.7219 136.093L57.5985 136.444L58.6798 136.882L61.1344 137.7L63.6181 138.431L64.7285 138.723L65.9559 139.015L66.3358 137.437L65.1377 137.145L64.0272 136.853L61.6019 136.181L59.2349 135.363L58.183 134.954Z" fill="white"/>
<path d="M23.1172 58.1469C23.1172 58.1469 23.1172 57.8839 23.3802 57.4457C23.6432 57.0075 23.7601 56.4816 24.0231 55.9265L25.0166 53.7354L17.8281 50.2588C17.7018 52.0522 18.0548 53.847 18.8509 55.4591C19.29 56.22 19.908 56.8624 20.6514 57.3308C21.3948 57.7991 22.2411 58.0793 23.1172 58.1469Z" fill="white"/>
<path d="M33.5785 57.884L26.39 54.4365C26.39 54.4365 25.8933 55.4883 25.4257 56.5693C25.1627 57.0952 24.9873 57.6503 24.812 58.0593C24.6367 58.4683 24.549 58.7312 24.549 58.7312C25.251 59.2345 26.0493 59.5878 26.894 59.7687C27.7387 59.9497 28.6117 59.9545 29.4583 59.783C30.9459 59.4348 32.3475 58.7888 33.5785 57.884Z" fill="white"/>
<path d="M12.7728 57.7964C12.7728 57.7964 12.7728 58.0301 12.7728 58.4099C12.7728 58.7897 12.7728 58.8481 12.7728 59.1402C12.7554 59.4516 12.7554 59.7638 12.7728 60.0752C12.7728 60.7471 12.7728 61.5359 12.7728 62.3831C12.824 63.2655 12.9314 64.1438 13.0942 65.0126C13.0942 65.4508 13.2988 65.8889 13.4156 66.298C13.536 66.7291 13.6924 67.1494 13.8832 67.5543C14.2299 68.322 14.6932 69.0315 15.2566 69.6578C15.8519 70.2781 16.5867 70.7474 17.3999 71.0268C18.213 71.3063 19.0811 71.3878 19.9321 71.2646C19.9257 71.1771 19.9257 71.0892 19.9321 71.0017C19.9321 70.8556 19.9321 70.6218 19.9321 70.3297C19.9321 70.0375 20.1658 69.015 20.2827 68.2847C20.3996 67.5543 20.458 67.5251 20.5164 67.1745C20.5749 66.8239 20.6918 66.5025 20.7503 66.2396L20.9548 65.3046C20.4293 64.2302 19.7392 63.2445 18.9093 62.3831C18.0891 61.514 17.1998 60.7129 16.2501 59.9875C15.1514 59.1654 13.9886 58.4327 12.7728 57.7964Z" fill="white"/>
<path d="M32.8772 64.4867C31.5969 64.2279 30.2965 64.0813 28.9907 64.0484C27.833 64.0276 26.6765 64.1354 25.5425 64.3699C24.388 64.5686 23.291 65.0173 22.3283 65.6845L22.1237 66.5902C22.1237 66.8823 21.9775 67.1745 21.8899 67.5251C21.8022 67.8757 21.7438 68.2263 21.6854 68.5769C21.6269 68.9275 21.4224 70.0376 21.3347 70.5927C21.2471 71.1477 21.3347 71.0893 21.3347 71.2354V71.4984C22.113 71.8404 22.9537 72.017 23.8039 72.017C24.654 72.017 25.4948 71.8404 26.2731 71.4984C26.9673 71.2008 27.6165 70.8073 28.2017 70.3297C28.4971 70.112 28.78 69.878 29.0492 69.6286C29.3121 69.3657 29.5751 69.132 29.8381 68.8398C30.1011 68.5477 30.744 67.8172 31.1531 67.3206C31.5622 66.8239 31.8836 66.3273 32.1466 65.9183C32.2777 65.7426 32.3949 65.557 32.4973 65.3632L32.7895 64.925L32.8772 64.4867Z" fill="white"/>
<path d="M9.5 73.1928C9.53675 73.9561 9.61484 74.7168 9.73382 75.4716L9.90914 76.5526C9.90914 76.9324 10.1137 77.3414 10.2305 77.7504C10.4604 78.5952 10.7434 79.4246 11.078 80.2337C11.456 81.0417 11.9059 81.8142 12.4221 82.5418C12.6807 82.8834 12.9639 83.2056 13.2696 83.5058C13.5571 83.7993 13.8812 84.0546 14.2339 84.2655C14.9482 84.7436 15.7668 85.0435 16.6209 85.1401C17.4751 85.2367 18.3401 85.1271 19.1431 84.8206C19.1431 84.8206 19.1431 84.4407 19.1431 83.8564C19.1431 83.2721 19.1431 82.5417 19.1431 81.7821C19.1431 81.0225 19.1431 80.2629 19.1431 79.6786C19.1431 79.0943 19.1431 78.7437 19.1431 78.7437C18.3762 77.8111 17.4692 77.003 16.4547 76.348C15.4743 75.6762 14.438 75.0898 13.3573 74.5952C12.1093 74.0297 10.8197 73.5609 9.5 73.1928Z" fill="white"/>
<path d="M30.5979 75.2379C29.3014 75.2865 28.0112 75.4427 26.7406 75.7053C25.5944 75.9301 24.477 76.283 23.4094 76.7571C22.2958 77.2002 21.2969 77.8893 20.4873 78.773C20.4873 78.773 20.4873 79.1528 20.4873 79.7079C20.4873 80.263 20.4873 80.9934 20.4873 81.7237C20.4873 82.4541 20.4873 83.2137 20.4873 83.7688C20.4873 84.3239 20.4873 84.7037 20.4873 84.7037C21.3236 84.8457 22.18 84.8152 23.0041 84.6143C23.8282 84.4133 24.6026 84.0461 25.2796 83.5351C25.5822 83.316 25.8657 83.0717 26.127 82.8047C26.412 82.5541 26.6758 82.2805 26.916 81.9867C27.3713 81.4156 27.7817 80.8099 28.1433 80.1752C28.5039 79.5931 28.826 78.9881 29.1076 78.3639L29.4583 77.5167C29.4583 77.2538 29.6628 77.0201 29.7797 76.7863C30.4226 75.8514 30.5979 75.2379 30.5979 75.2379Z" fill="white"/>
<path d="M9.73382 88.9399L9.90914 89.5534C9.90914 89.9332 10.1721 90.4591 10.4644 91.1019C11.0724 92.6408 11.8778 94.0942 12.8604 95.4257C13.8449 96.8624 15.2112 97.9958 16.8054 98.6979C17.6107 99.0002 18.4769 99.1049 19.3311 99.0032C20.1854 98.9016 21.0027 98.5965 21.7145 98.1135V97.8798C21.6695 97.6526 21.6109 97.4282 21.5392 97.2078C21.3931 96.6528 21.1594 95.9224 20.9549 95.192C20.6334 93.7312 20.2827 92.2704 20.2827 92.2704C19.345 91.5167 18.2883 90.9243 17.156 90.5175C16.6008 90.2838 15.9872 90.1086 15.432 89.9333L13.7371 89.4949C12.4203 89.1999 11.0813 89.0143 9.73382 88.9399Z" fill="white"/>
<path d="M30.7732 86.2521C29.5106 86.5842 28.2787 87.0241 27.0913 87.5668C26.5945 87.8005 26.0686 88.0342 25.5718 88.3263C25.0669 88.6304 24.5792 88.962 24.1107 89.3197C23.1647 90.0206 22.3697 90.905 21.773 91.9199C21.773 91.9199 22.0944 93.3514 22.4451 94.8414C22.6496 95.5426 22.8542 96.2437 23.0003 96.7988C23.075 97.0083 23.1336 97.2231 23.1756 97.4415V97.6753C24.0255 97.6284 24.8571 97.41 25.6204 97.0334C26.3837 96.6569 27.063 96.1299 27.6173 95.4842C28.5694 94.3392 29.2666 93.0046 29.6628 91.5693C30.0314 90.3755 30.305 89.1544 30.481 87.9174C30.481 87.4207 30.6271 87.0116 30.6563 86.7487C30.6855 86.4858 30.7732 86.2521 30.7732 86.2521Z" fill="white"/>
<path d="M13.4449 104.249C13.4449 104.249 13.8832 105.008 14.6138 106.118C14.7891 106.381 14.9936 106.674 15.2274 106.966C15.4538 107.298 15.708 107.611 15.9872 107.901C16.5329 108.55 17.1184 109.165 17.7405 109.741L24.9289 106.265L24.403 105.125C22.1962 104.199 19.8095 103.779 17.419 103.898C16.0872 103.913 14.7586 104.03 13.4449 104.249Z" fill="white"/>
<path d="M26.0394 104.453L26.5362 105.563L33.7246 102.087C33.7246 101.415 33.7246 100.743 33.7246 100.129C33.7246 99.5159 33.7246 99.5451 33.7246 99.253C33.7398 99 33.7398 98.7463 33.7246 98.4933C33.6996 97.9724 33.6312 97.4545 33.52 96.9449C32.3778 97.5359 31.2921 98.2302 30.2765 99.0192C28.3206 100.332 26.8359 102.237 26.0394 104.453Z" fill="white"/>
<path d="M23.2633 97.6461V97.4124C23.2212 97.194 23.1626 96.9791 23.088 96.7696C23.088 96.2145 22.7373 95.5133 22.5327 94.8122C22.1821 93.3514 21.8607 91.8906 21.8607 91.8906V90.7804C21.8607 90.4299 21.8607 90.0209 21.6561 89.6118C21.4516 89.2028 21.6561 89.2028 21.6561 88.9691V88.2972C21.6561 87.3915 21.4223 86.4858 21.3639 85.7846V84.6744C21.3639 84.6744 21.3639 84.2946 21.3639 83.7395C21.3639 83.1844 21.3639 82.4541 21.3639 81.6945C21.3639 80.9349 21.3639 80.2337 21.3639 79.6786C21.3639 79.1235 21.3639 78.7437 21.3639 78.7437C21.3639 78.7437 21.3639 78.3055 21.3639 77.6044C21.3639 76.9032 21.364 76.0267 21.5101 75.0918C21.5101 74.6536 21.5101 74.1862 21.5101 73.7772C21.5101 73.3682 21.51 72.9299 21.6561 72.6085V71.2062C21.6561 71.0601 21.6561 70.8264 21.6561 70.5635C21.6561 70.3005 21.8607 69.278 22.0068 68.5476C22.1529 67.8172 22.1529 67.8172 22.2114 67.4958C22.2698 67.1744 22.3574 66.8531 22.4451 66.561L22.6497 65.6553C22.6497 65.6553 22.6497 65.217 22.9419 64.5743C23.2341 63.9315 23.351 63.0259 23.6432 62.1494C23.9354 61.273 24.2277 60.4257 24.4322 59.783L24.8705 58.702C24.8705 58.702 24.8705 58.4391 25.1335 58.03C25.3965 57.621 25.4841 57.0659 25.7471 56.54C26.2147 55.4591 26.7115 54.4074 26.7115 54.4074L25.2504 53.7061L24.2569 55.8973C23.9939 56.4524 23.7893 57.0075 23.614 57.4166C23.4387 57.8256 23.3509 58.1177 23.3509 58.1177L22.9126 59.2279C22.7081 59.8998 22.3867 60.7763 22.0944 61.6527C21.8022 62.5292 21.5685 63.4641 21.3639 64.1361L21.0717 65.2755L20.8672 66.2103C20.8672 66.4732 20.721 66.7946 20.6334 67.1452C20.5457 67.4958 20.4873 67.8756 20.3996 68.2554C20.312 68.6352 20.1659 69.7454 20.049 70.3005C19.9321 70.8556 20.049 70.8264 20.049 70.9724C20.0426 71.06 20.0426 71.1478 20.049 71.2354L19.9028 72.404C19.9028 72.7546 19.9029 73.1636 19.7568 73.6018C19.6107 74.04 19.7568 74.5075 19.7568 74.9749C19.7568 75.9098 19.5814 76.8447 19.5814 77.5459V78.7145C19.5814 78.7145 19.5814 79.0943 19.5814 79.6494C19.5814 80.2045 19.5814 80.9933 19.5814 81.7529C19.5814 82.5125 19.5814 83.2721 19.5814 83.8272C19.5814 84.3823 19.5814 84.7913 19.5814 84.7913C19.5814 84.7913 19.5814 85.2588 19.5814 85.9599C19.5814 86.6611 19.786 87.596 19.8737 88.5016C19.8596 88.7352 19.8596 88.9694 19.8737 89.2029C19.8572 89.4266 19.8572 89.6511 19.8737 89.8748C19.8737 90.313 20.0197 90.722 20.0782 91.0726C20.1366 91.4232 20.0782 91.6861 20.2243 91.8906C20.3704 92.0951 20.2243 92.2121 20.2243 92.2121C20.2243 92.2121 20.5749 93.702 20.8964 95.1336C21.1009 95.864 21.3347 96.5944 21.4808 97.1495C21.5525 97.3698 21.6111 97.5941 21.6561 97.8214V98.0551C21.6561 98.0551 21.8023 98.5225 22.036 99.1652C22.2698 99.808 22.5328 100.743 22.9126 101.619C23.088 102.028 23.2341 102.496 23.4094 102.905C23.5049 103.092 23.5831 103.288 23.6432 103.489L23.877 103.986C24.1692 104.629 24.3446 105.067 24.3446 105.067L24.8705 106.206L26.3316 105.505L25.8348 104.395C25.8348 104.395 25.6302 103.986 25.3672 103.343C25.272 103.186 25.1937 103.02 25.1335 102.846C25.1335 102.671 25.1334 102.467 24.8997 102.262L24.403 101.035C24.0523 100.188 23.7893 99.3114 23.5555 98.6686L23.2633 97.6461Z" fill="white"/>
<path d="M61.3681 22.1536H62.0986L63.6766 21.6861L65.2837 21.2772L66.0143 21.1019L64.261 13.3306C63.5137 13.8562 62.8276 14.4637 62.2155 15.1419C61.6519 15.8004 61.189 16.5388 60.8421 17.3331C60.5436 18.1212 60.4356 18.9687 60.527 19.8064C60.6184 20.6442 60.9066 21.4484 61.3681 22.1536Z" fill="white"/>
<path d="M68.1475 30.3339L66.3942 22.5627L65.6636 22.7379C65.1409 22.8363 64.6239 22.963 64.1149 23.1177L62.5369 23.556H61.8356C61.887 24.4262 62.1156 25.2767 62.5076 26.0554C62.8995 26.8341 63.4465 27.5246 64.1149 28.0843C64.7028 28.5739 65.351 28.9863 66.0435 29.3114C66.7183 29.7044 67.4216 30.0461 68.1475 30.3339Z" fill="white"/>
<path d="M55.2608 13.9733C54.5865 14.3361 53.9329 14.7359 53.3029 15.1711L52.397 15.8138L51.462 16.6027C50.7885 17.1737 50.163 17.799 49.5918 18.4724C48.4249 19.7629 47.6363 21.35 47.3125 23.0593C47.1916 23.915 47.28 24.7873 47.5701 25.6014C47.8602 26.4155 48.3433 27.1472 48.9782 27.7337L49.7964 27.2663L50.6438 26.7696L51.6373 26.273C52.3094 25.9224 52.9815 25.5425 53.5075 25.3088L54.3549 24.9291C55.2817 22.7228 55.7011 20.3366 55.5822 17.9466C55.5675 16.6163 55.4601 15.2887 55.2608 13.9733Z" fill="white"/>
<path d="M62.5662 33.8397C61.9544 32.694 61.2508 31.5997 60.4622 30.5676C59.1412 28.6259 57.2383 27.1529 55.0271 26.3606L54.2089 26.7696C53.6829 26.9741 53.04 27.3248 52.3679 27.6753L51.4036 28.172L50.5854 28.6394L49.7964 29.1069C50.0314 29.9191 50.4264 30.6761 50.9584 31.3333C51.4903 31.9906 52.1484 32.5349 52.8939 32.9341C54.2392 33.5819 55.6987 33.9591 57.1894 34.0443C57.8706 34.0872 58.5537 34.0872 59.2349 34.0443H60.9298C61.9233 33.9858 62.5662 33.8397 62.5662 33.8397Z" fill="white"/>
<path d="M41.1469 21.0434L40.6793 21.4525C40.2721 21.8248 39.8913 22.2251 39.5396 22.6503C39.0087 23.2149 38.511 23.8099 38.0493 24.4324C37.5343 25.1458 37.0752 25.8979 36.676 26.6819C36.2445 27.4627 35.9201 28.298 35.7116 29.1653C35.4675 29.9689 35.3782 30.8116 35.4486 31.6486C35.5292 32.5058 35.8123 33.3316 36.2746 34.0579C36.7369 34.7843 37.3652 35.3904 38.1078 35.8264L38.8091 35.1836L40.3871 33.8105C40.9423 33.3138 41.5559 32.8464 41.9942 32.4959L42.754 31.9115C42.754 31.6194 42.754 31.3272 42.754 31.0351C42.7827 30.7436 42.7827 30.45 42.754 30.1586C42.7978 29.5556 42.7978 28.9502 42.754 28.3472C42.6567 27.1548 42.4612 25.9725 42.1695 24.8122C41.9254 23.5317 41.5835 22.2717 41.1469 21.0434Z" fill="white"/>
<path d="M52.7186 38.8064C51.8784 37.8087 50.9492 36.8895 49.9425 36.0601C49.0479 35.3044 48.0671 34.6572 47.0203 34.1319C46.4855 33.8605 45.9282 33.6356 45.3547 33.4599L44.5073 33.2554H43.6599L42.9294 33.8105C42.491 34.1611 41.9066 34.5993 41.3514 35.096L39.8319 36.4399L39.1598 37.0826C39.5757 37.8075 40.1346 38.4404 40.8028 38.9426C41.4709 39.4449 42.2342 39.806 43.0463 40.0041C43.7782 40.2128 44.5352 40.321 45.2963 40.3256C46.0291 40.3215 46.761 40.2728 47.4879 40.1795C48.1393 40.049 48.7831 39.8832 49.4165 39.6828L51.0529 39.2446L52.1926 38.8355L52.7186 38.8064Z" fill="white"/>
<path d="M28.9615 30.9182C28.9615 30.9182 28.4063 31.6778 27.705 32.8464C27.3835 33.4307 27.0329 34.1611 26.6822 34.9207C26.4962 35.3076 26.3399 35.708 26.2146 36.1185C26.0685 36.5568 25.9225 36.995 25.8056 37.404C25.5792 38.2731 25.4517 39.1649 25.4257 40.0626C25.3829 40.903 25.4918 41.7442 25.7471 42.5459C26.0023 43.3681 26.4555 44.1151 27.0669 44.7212C27.6783 45.3274 28.4292 45.7743 29.2537 46.0226L31.007 43.5684L32.2928 41.9032L32.7311 41.3773L32.9064 41.1728C32.9096 39.9702 32.7121 38.7753 32.3219 37.6377C31.9604 36.504 31.511 35.4003 30.9778 34.3364C30.3867 33.1512 29.7129 32.0089 28.9615 30.9182Z" fill="white"/>
<path d="M44.2444 45.8181C43.2051 45.0334 42.1004 44.3394 40.9423 43.7438C39.9141 43.2515 38.8367 42.8696 37.7279 42.6044C36.5966 42.2893 35.411 42.2195 34.2506 42.3999L34.1045 42.6044L33.6661 43.1302L32.4096 44.7371L30.6856 47.1327C31.2575 47.7655 31.9503 48.2776 32.7232 48.6389C33.496 49.0001 34.3332 49.2032 35.1857 49.2362C35.9415 49.2713 36.6986 49.2026 37.4357 49.0318C38.1492 48.8718 38.852 48.6668 39.5397 48.4182L40.504 47.98L41.4099 47.571C41.9651 47.3081 42.4618 47.0159 42.9001 46.753C43.3668 46.4691 43.8158 46.1569 44.2444 45.8181Z" fill="white"/>
<path d="M19.3769 43.4808C19.3769 43.4808 19.0262 44.2989 18.6171 45.5551C18.1531 47.0861 17.8591 48.6634 17.7405 50.2588L24.9289 53.7354L25.5134 52.596C24.8586 50.2901 23.6897 48.1626 22.0944 46.3731C21.5011 45.6371 20.867 44.9348 20.1951 44.2696L19.3769 43.4808Z" fill="white"/>
<path d="M26.9452 53.3556L26.39 54.4365L33.5785 57.884C34.6032 57.2024 35.5796 56.4506 36.5006 55.6343C36.8944 55.2783 37.2653 54.8978 37.611 54.495L36.5591 54.0859C35.7014 53.7478 34.823 53.4649 33.9292 53.2388C31.6499 52.5214 29.1993 52.5623 26.9452 53.3556Z" fill="white"/>
<path d="M30.6271 47.045L32.3512 44.6495L33.6077 43.0426L34.046 42.5167L34.1922 42.3122L34.9519 41.4649L35.7116 40.5885C35.9746 40.2379 36.3253 39.9165 36.6175 39.5952C36.9097 39.2738 37.8741 38.2804 38.3708 37.813L39.2183 37.0242L39.8903 36.3815L41.4099 35.0376C41.9651 34.5409 42.5494 34.1027 42.9878 33.7521L43.7183 33.197L43.9814 32.9925L44.6242 32.4959L46.6989 31.0642L48.8029 29.6911L49.5042 29.2822L49.7964 29.1361L50.5854 28.6687L51.4036 28.2012L52.3679 27.7045C53.04 27.3539 53.6829 27.0033 54.2089 26.7988L55.0271 26.3899L56.079 25.9224L56.5758 25.6886L57.1602 25.4842L58.4167 24.9875C59.2349 24.6369 60.1116 24.3739 60.7837 24.1402L61.8356 23.7604H62.5369L64.1149 23.3222C64.6239 23.1675 65.1409 23.0407 65.6636 22.9424L66.3942 22.7671L66.0143 21.1895L65.2837 21.3648L63.6766 21.7738L62.0986 22.2412H61.3681L60.2577 22.6211C59.5856 22.8256 58.6797 23.1177 57.8323 23.4683L56.5466 23.9942L55.9621 24.2279C55.7773 24.2823 55.6004 24.3609 55.4361 24.4616L54.3549 24.9291L53.5075 25.3088C52.9815 25.5425 52.3094 25.9224 51.6373 26.273L50.6438 26.7696L49.7964 27.2663L48.9782 27.7337L48.686 27.7337L47.9554 28.172L45.7931 29.5743C45.0041 30.1002 44.2736 30.6552 43.6891 31.0642L42.9878 31.5609L42.754 31.7655L41.9942 32.3497C41.5559 32.7003 40.9423 33.1678 40.3871 33.6645L38.8091 35.0376L38.1078 35.6803L37.2604 36.4983C36.7344 36.9658 36.0915 37.667 35.4487 38.3389C34.8058 39.0109 34.8058 39.0109 34.5136 39.3615L33.7246 40.2672L32.9648 41.1436L32.7895 41.3481L32.3512 41.874L31.0654 43.5393L29.3121 45.9933L28.6693 46.9866C28.2894 47.571 27.7634 48.3598 27.2959 49.1778C26.8283 49.9958 26.8576 49.9958 26.6238 50.3756C26.4081 50.7142 26.2129 51.0653 26.0394 51.4273L25.5134 52.4499L24.9289 53.5893L26.39 54.2905L27.4712 52.187C27.6173 51.8656 27.8218 51.515 28.0264 51.1644L28.6985 49.9958C29.1368 49.207 29.6628 48.4474 30.0134 47.8631L30.6271 47.045Z" fill="white"/>
<path d="M113.353 29.808L115.311 31.2103C115.837 31.5609 116.275 31.9407 116.655 32.2037L117.239 32.6711L122.207 26.4482C121.328 26.2077 120.428 26.0512 119.519 25.9808C118.652 25.9411 117.784 26.0398 116.947 26.2729C116.106 26.5258 115.339 26.9799 114.713 27.5959C114.086 28.2118 113.62 28.9711 113.353 29.808Z" fill="white"/>
<path d="M111.249 40.1795L116.246 33.9566L115.662 33.4892L114.376 32.525L112.447 31.1519C111.801 31.7317 111.281 32.438 110.919 33.227C110.557 34.016 110.361 34.8709 110.343 35.7387C110.331 36.5049 110.41 37.2698 110.577 38.0175C110.752 38.7524 110.977 39.4747 111.249 40.1795Z" fill="white"/>
<path d="M116.012 19.8748C116.012 19.8748 115.165 19.5242 113.85 19.1151L112.798 18.823L111.6 18.56C110.731 18.4002 109.852 18.3027 108.97 18.268C107.226 18.1485 105.484 18.5232 103.944 19.3489C103.206 19.7843 102.584 20.3915 102.131 21.1189C101.678 21.8463 101.408 22.6724 101.343 23.5267L102.22 23.9065L103.126 24.2571L104.148 24.6953C104.82 25.0459 105.551 25.338 106.048 25.601L106.895 26.01C109.2 25.3659 111.328 24.2071 113.119 22.621C113.996 21.9199 114.697 21.2187 115.223 20.722C115.749 20.2254 116.012 19.8748 116.012 19.8748Z" fill="white"/>
<path d="M104.937 37.9884C104.937 37.9884 105.113 37.6085 105.376 36.9366C105.694 36.0849 105.967 35.217 106.194 34.3364C106.923 32.106 106.923 29.7012 106.194 27.4708L105.376 27.0326L103.505 26.1853L102.512 25.7471L101.635 25.3965L100.788 25.0459C100.298 25.7376 99.9518 26.5209 99.7711 27.3491C99.5903 28.1773 99.5784 29.0335 99.7358 29.8665C100.038 31.3212 100.646 32.6952 101.518 33.8981C101.899 34.4736 102.309 35.0294 102.746 35.5634C102.925 35.8007 103.12 36.0252 103.33 36.2354C103.491 36.4518 103.667 36.6568 103.856 36.8489C104.193 37.25 104.554 37.6305 104.937 37.9884Z" fill="white"/>
<path d="M101.694 13.389H99.4437C98.7423 13.389 97.9534 13.389 97.106 13.389C96.2222 13.4258 95.3427 13.5332 94.4761 13.7103C93.602 13.878 92.7492 14.1427 91.9337 14.4992C91.1613 14.8247 90.4498 15.2791 89.8298 15.8431C89.2089 16.4442 88.7396 17.1839 88.4602 18.0016C88.1808 18.8193 88.0994 19.6916 88.2226 20.5468H88.4856C88.7092 20.526 88.9342 20.526 89.1577 20.5468L91.2324 20.8974L92.3136 21.131L93.2487 21.3648L94.1838 21.5693C95.2625 21.0508 96.2495 20.3601 97.106 19.5242C97.9759 18.6944 98.7772 17.7955 99.5022 16.8364C100.332 15.7534 101.065 14.5999 101.694 13.389Z" fill="white"/>
<path d="M95.002 33.4015C95.2582 32.1211 95.4048 30.8211 95.4403 29.5158C95.4713 28.3594 95.3733 27.2032 95.1481 26.0684C94.9391 24.9032 94.4806 23.797 93.8039 22.8256L92.8981 22.6211L91.963 22.4165L90.911 22.1828L88.9239 21.8323H87.9889C87.6602 22.6138 87.4908 23.453 87.4908 24.3009C87.4908 25.1487 87.6602 25.988 87.9889 26.7696C88.2916 27.4702 88.6845 28.1282 89.1577 28.7271C89.3857 29.0132 89.6295 29.2864 89.8883 29.5451C90.1189 29.8289 90.373 30.0927 90.6479 30.3339C91.1348 30.8056 91.6523 31.2448 92.1968 31.6486C92.6935 32.0576 93.161 32.379 93.5701 32.6711L94.1546 33.0217L94.5637 33.3139L95.002 33.4015Z" fill="white"/>
<path d="M86.294 10C86.294 10 85.3589 9.99999 84.0147 10.2629L82.9335 10.4382L81.7354 10.7304C80.901 10.9751 80.0815 11.2678 79.2808 11.6069C78.4669 11.9737 77.6932 12.4241 76.9723 12.9508C76.6316 13.1999 76.3094 13.4733 76.008 13.7688C75.7204 14.0796 75.4566 14.4116 75.219 14.7621C74.7363 15.4747 74.436 16.2949 74.3443 17.1507C74.2526 18.0064 74.3723 18.8716 74.693 19.6703H75.6282C76.1834 19.6703 76.9431 19.6703 77.7029 19.6703H80.7419C81.6806 18.921 82.4901 18.0229 83.1381 17.0117C83.8165 16.0252 84.4034 14.9789 84.8914 13.8857C85.4584 12.6285 85.9273 11.3294 86.294 10Z" fill="white"/>
<path d="M84.2485 31.0935C84.2207 29.807 84.0739 28.5258 83.8102 27.2663C83.58 26.1216 83.2274 25.0049 82.7582 23.9357C82.3039 22.8209 81.6048 21.8225 80.7127 21.0142H77.7614C77.0308 21.0142 76.271 21.0142 75.7158 21.0142H74.81C74.6632 21.8529 74.6885 22.7128 74.8844 23.5415C75.0804 24.3702 75.4427 25.1504 75.9496 25.8348C76.4047 26.426 76.9242 26.9649 77.4983 27.4416C78.067 27.9226 78.684 28.3436 79.3393 28.6978C79.9529 29.0484 80.5666 29.399 81.1218 29.662L81.9693 29.9833L82.6998 30.3047C83.1961 30.6051 83.7137 30.8687 84.2485 31.0935Z" fill="white"/>
<path d="M70.5728 10.2629L69.9885 10.4091L68.4689 10.9349C66.9836 11.5309 65.5717 12.2955 64.261 13.2137L66.0143 20.985L67.2416 20.6928C68.0049 19.7675 68.6073 18.7207 69.0241 17.596C69.2286 17.0117 69.4332 16.4274 69.5793 15.8431C69.7254 15.2588 69.9007 14.7036 70.0176 14.1778C70.298 12.8881 70.4836 11.5797 70.5728 10.2629Z" fill="white"/>
<path d="M67.563 22.2996L66.3942 22.5627L68.1475 30.3339C69.3057 30.6741 70.4875 30.928 71.6833 31.0935C72.1508 31.0935 72.5307 31.2395 72.8229 31.2395H73.232C72.8998 29.9771 72.4599 28.7456 71.9171 27.5585C71.6992 27.0351 71.4453 26.5274 71.1573 26.0392C70.8706 25.5143 70.5381 25.0158 70.1638 24.5493C69.4736 23.6167 68.5854 22.8484 67.563 22.2996Z" fill="white"/>
<path d="M74.81 21.2772H75.7158C76.271 21.2772 77.0308 21.2772 77.7614 21.2772H81.8524C82.5537 21.2772 83.4595 21.2772 84.3654 21.4525H85.7096L86.8784 21.5985H88.9239L90.911 21.9491L91.963 22.1828L92.8981 22.3873L93.8039 22.5918L94.9144 22.884L97.3105 23.5851L99.7066 24.4031L100.759 24.8122L101.606 25.1628L102.483 25.5133L103.476 25.9516L105.346 26.7988L106.165 27.237L107.158 27.7337C107.48 27.909 107.83 28.0843 108.181 28.318L109.35 28.99C110.168 29.4282 110.898 29.9541 111.483 30.3047L112.447 30.9182L114.376 32.2913L115.662 33.2554L116.246 33.7229L117.24 32.4374L116.655 31.9699C116.275 31.707 115.837 31.3272 115.311 30.9766L113.353 29.5743L112.36 28.9607C111.654 28.465 110.922 28.0066 110.168 27.5876L108.97 26.9157C108.635 26.6939 108.283 26.4985 107.918 26.3314L106.895 25.7763L106.048 25.3673C105.551 25.1044 104.82 24.8122 104.148 24.4616L103.126 24.0234L102.22 23.6728L101.343 23.293L100.233 22.884L97.8073 22.066L95.3234 21.3356C94.6513 21.1311 94.1838 21.0434 94.1838 21.0434L93.2487 20.8389L92.3136 20.6052L91.2324 20.3715L89.1577 20.0208C88.9342 20 88.7091 20 88.4856 20.0208H88.2226L87.0538 19.8748L85.8557 19.7288H84.4823C83.5472 19.7288 82.6413 19.5534 81.9108 19.5534H77.7029C76.9431 19.5534 76.1834 19.5534 75.6282 19.5534H73.5242L70.9527 19.8748H69.5793L68.4105 20.0793L67.563 20.2546H67.2416L66.0143 20.5468L66.3942 22.1244L67.563 21.8614H68.7027L69.8423 21.6277H71.1573L73.6703 21.3063L74.81 21.2772Z" fill="white"/>
<path d="M139.828 75.1794C139.828 75.1794 139.828 75.4716 139.828 75.9391C139.828 76.4065 139.828 76.9908 139.828 77.6044V79.9999H147.805C147.439 79.1583 146.988 78.3558 146.461 77.6044C146.212 77.2547 145.938 76.9228 145.643 76.611C145.34 76.3058 145.007 76.0317 144.649 75.7929C143.951 75.3171 143.15 75.0135 142.312 74.9069C141.474 74.8002 140.623 74.8936 139.828 75.1794Z" fill="white"/>
<path d="M130.448 80H138.425V77.6628C138.425 77.0493 138.425 76.4942 138.425 76.056C138.425 75.6178 138.425 75.2964 138.425 75.2964C137.571 75.1554 136.697 75.1916 135.857 75.4026C135.018 75.6137 134.231 75.9952 133.545 76.5234C133.24 76.7608 132.947 77.0144 132.668 77.283C132.4 77.5514 132.146 77.8343 131.909 78.1303C131.363 78.7051 130.873 79.3312 130.448 80Z" fill="white"/>
<path d="M149.266 71.0893C149.209 70.8812 149.141 70.6764 149.062 70.4758C148.913 69.9413 148.738 69.4148 148.536 68.8982C147.928 67.3592 147.122 65.9057 146.14 64.5743C145.155 63.1375 143.789 62.0042 142.195 61.3021C141.392 60.9956 140.527 60.886 139.672 60.9826C138.818 61.0792 138 61.3791 137.285 61.8573V62.1202C137.285 62.2663 137.285 62.5 137.49 62.7922L138.045 64.7788L138.747 67.7003C139.678 68.4478 140.724 69.0397 141.844 69.4533C142.428 69.687 143.013 69.8623 143.597 70.0376C144.182 70.2129 144.737 70.3297 145.292 70.4466C146.597 70.767 147.926 70.9819 149.266 71.0893Z" fill="white"/>
<path d="M128.314 73.7479C129.576 73.4107 130.807 72.971 131.996 72.4332C132.464 72.1995 132.99 71.9658 133.516 71.6737C134.021 71.3696 134.509 71.0379 134.977 70.6803C135.923 69.9793 136.718 69.095 137.315 68.0801C137.315 68.0801 136.964 66.6486 136.643 65.1586C136.438 64.4574 136.233 63.7562 136.087 63.2011L135.883 62.5584V62.3247C135.033 62.3716 134.201 62.5899 133.438 62.9665C132.675 63.343 131.996 63.8701 131.441 64.5159C130.497 65.6708 129.792 67.0014 129.366 68.4307C128.998 69.6245 128.724 70.8457 128.548 72.0826C128.548 72.5793 128.548 72.9883 128.548 73.2512C128.548 73.5142 128.314 73.7479 128.314 73.7479Z" fill="white"/>
<path d="M145.526 55.7513C145.526 55.7513 145.088 54.9332 144.328 53.8231L143.685 52.9174C143.439 52.5916 143.176 52.2795 142.896 51.9825C142.327 51.3164 141.712 50.6916 141.055 50.1127C139.752 48.9419 138.157 48.1445 136.438 47.8047C135.583 47.7006 134.715 47.7969 133.904 48.0859C133.092 48.3749 132.359 48.8488 131.763 49.47L132.259 50.3173C132.259 50.551 132.552 50.8431 132.727 51.1353L133.253 52.1578C133.574 52.8297 133.954 53.5017 134.188 53.9983L134.568 54.8749C136.785 55.801 139.181 56.2202 141.581 56.1019C142.903 56.0863 144.222 55.9691 145.526 55.7513Z" fill="white"/>
<path d="M125.626 63.0551C126.776 62.461 127.871 61.7669 128.899 60.9808C130.844 59.663 132.318 57.7594 133.107 55.5467L132.727 54.6995L131.821 52.8881C131.646 52.5667 131.47 52.2454 131.324 51.924L130.827 51.106L130.389 50.288C129.574 50.5248 128.814 50.9236 128.156 51.4608C127.499 51.9979 126.956 52.6623 126.561 53.4141C125.901 54.7562 125.514 56.2159 125.422 57.7087C125.379 58.38 125.379 59.0532 125.422 59.7245C125.422 60.0459 125.422 60.3673 125.422 60.6303C125.422 60.8932 125.422 61.1853 125.422 61.4483C125.458 61.9874 125.527 62.5239 125.626 63.0551Z" fill="white"/>
<path d="M138.454 41.6694L138.045 41.202C137.667 40.7915 137.267 40.4014 136.847 40.0334C136.35 39.5951 135.737 39.0693 135.065 38.5726C134.356 38.0416 133.603 37.5725 132.815 37.1703C132.024 36.7589 131.192 36.4356 130.331 36.2062C129.521 35.9906 128.683 35.9019 127.847 35.9432C126.987 36.0292 126.161 36.3176 125.434 36.7848C124.708 37.252 124.103 37.8848 123.668 38.6311L124.311 39.303L125.685 40.8806C126.181 41.4649 126.649 42.0785 126.999 42.5167L127.584 43.2471L128.461 43.4224H129.337C129.951 43.4224 130.565 43.4224 131.178 43.4224C132.371 43.3132 133.554 43.108 134.714 42.8089C135.985 42.5156 137.235 42.1348 138.454 41.6694Z" fill="white"/>
<path d="M120.688 53.2388C121.686 52.3988 122.605 51.4698 123.434 50.4633C124.192 49.5702 124.84 48.5894 125.363 47.5417C125.634 47.0171 125.859 46.4696 126.035 45.9057C126.035 45.6135 126.035 45.3506 126.24 45.0584C126.254 44.7762 126.254 44.4934 126.24 44.2112L125.685 43.4808C125.334 43.0425 124.896 42.4583 124.399 41.9032L122.47 39.6828C121.748 40.1026 121.118 40.6626 120.616 41.33C120.114 41.9974 119.751 42.7585 119.548 43.5684C119.357 44.304 119.25 45.0586 119.227 45.8181C119.227 46.5776 119.227 47.308 119.373 48.0092C119.519 48.7104 119.636 49.4115 119.782 49.9958C119.928 50.5801 120.103 51.1937 120.249 51.6611L120.629 52.8005L120.688 53.2388Z" fill="white"/>
<path d="M128.461 29.5451C127.873 29.0985 127.258 28.6887 126.62 28.318C126.064 27.9966 125.363 27.6753 124.633 27.3247L123.464 26.8572L122.207 26.4482L117.239 32.6711L117.736 33.0801L118.204 33.4599C119.405 33.4737 120.6 33.286 121.74 32.9048C122.874 32.5434 123.978 32.0941 125.042 31.5609C126.227 30.97 127.37 30.2964 128.461 29.5451Z" fill="white"/>
<path d="M117.181 34.7162L116.714 34.3072L116.246 33.9566L111.249 40.1795C111.249 40.5009 111.512 40.793 111.658 41.0852C111.804 41.3773 111.921 41.6987 112.067 41.9616C112.213 42.2245 112.623 42.9841 112.856 43.3931C113.108 43.8598 113.391 44.3089 113.704 44.7371C114.473 43.693 115.157 42.589 115.749 41.4357C116.285 40.4039 116.707 39.3164 117.006 38.1928C117.296 37.0573 117.356 35.8751 117.181 34.7162Z" fill="white"/>
<path d="M122.47 39.6828L123.113 40.3548L124.457 41.9032C124.954 42.4583 125.392 43.0425 125.743 43.4808L126.298 44.2112L126.503 44.4449C126.684 44.6568 126.85 44.8813 126.999 45.1168L128.461 47.1619L129.805 49.2947L130.243 49.9958V50.2588L130.681 51.0768L131.178 51.8948C131.324 52.2162 131.5 52.5376 131.675 52.859L132.581 54.6703L132.961 55.5176L133.428 56.54C133.494 56.7205 133.572 56.8963 133.662 57.066L133.867 57.6211C134.042 58.0301 134.217 58.4683 134.363 58.8773C134.691 59.6492 134.974 60.4393 135.211 61.2438L135.591 62.3247V62.5584L135.795 63.2011C135.941 63.7562 136.146 64.4574 136.35 65.1586C136.672 66.6194 137.022 68.0801 137.022 68.0801C137.009 68.177 137.009 68.2754 137.022 68.3723C137.022 68.5768 137.022 68.869 137.169 69.1903C137.315 69.5117 137.169 69.9207 137.344 70.3589C137.358 70.573 137.358 70.7876 137.344 71.0017C137.344 71.2354 137.344 71.4399 137.344 71.6737C137.344 72.5793 137.578 73.485 137.636 74.1861C137.695 74.8873 137.636 75.2963 137.636 75.2963C137.636 75.2963 137.636 75.6177 137.636 76.056C137.636 76.4942 137.636 77.0492 137.636 77.6628V80H140.003L140.003 77.6044C140.003 76.9908 140.003 76.3773 140.003 75.9391C140.003 75.5008 140.003 75.1794 140.003 75.1794C140.003 75.1794 140.003 74.712 140.003 74.0108C140.003 73.3097 139.799 72.3748 139.682 71.4399V70.768C139.698 70.5443 139.698 70.3197 139.682 70.096C139.682 69.6578 139.536 69.2487 139.477 68.8982C139.419 68.5476 139.477 68.2846 139.331 68.0801C139.185 67.8756 139.331 67.7587 139.331 67.7587L138.63 64.8372L138.074 62.8506C138.074 62.5584 137.928 62.3247 137.87 62.1787V61.9156L137.49 60.8347C137.256 60.1627 136.964 59.2571 136.613 58.3806L136.117 57.0951C136.026 56.9056 135.948 56.7105 135.883 56.5109L135.649 55.9849L135.152 54.9332L134.772 54.0568C134.539 53.5601 134.159 52.8882 133.837 52.2162L133.311 51.1937C133.136 50.9015 132.961 50.6094 132.844 50.3756L132.347 49.5284L132.201 49.2654C132.201 49.0901 131.967 48.8272 131.763 48.5351L130.389 46.3439C129.863 45.5843 129.279 44.8247 128.87 44.2404C128.72 44.0048 128.554 43.7803 128.373 43.5684L128.168 43.3055L127.584 42.5751C127.233 42.1369 126.766 41.5234 126.269 40.939L124.896 39.3615L124.253 38.6895L123.434 37.8422C122.967 37.3163 122.266 36.6736 121.594 36.0309C120.921 35.3881 120.921 35.3589 120.6 35.096L118.788 33.5184L118.321 33.1386L117.824 32.7295L116.83 34.015L117.298 34.3656L117.766 34.7747L118.613 35.505L119.519 36.2938C119.84 36.5568 120.162 36.8781 120.483 37.1995C120.805 37.5209 121.827 38.4558 122.295 38.9524L122.47 39.6828Z" fill="white"/>
</g>
<defs>
<linearGradient id="paint0_linear_3845_11663" x1="0.999994" y1="4.83816e-06" x2="161" y2="170.5" gradientUnits="userSpaceOnUse">
<stop stop-color="#F9EA40"/>
<stop offset="1" stop-color="#D67813"/>
</linearGradient>
</defs>
</svg>
