<svg xmlns="http://www.w3.org/2000/svg" width="161" height="160" fill="none" viewBox="0 0 161 160"><rect width="160" height="160" x="0.5" fill="url(#a)" rx="80"/><path fill="#fff" d="M90.965 91.192V97H71.668v-5.808h6.624V69.016q-.383.576-1.296 1.296-.863.672-2.015 1.344-1.104.624-2.304 1.056-1.153.432-2.113.432v-5.952q1.297 0 2.64-.672a16.3 16.3 0 0 0 2.497-1.536q1.152-.864 1.824-1.584.72-.768.767-.816h6.576v28.608z"/><g fill="#fff" opacity="0.6"><path d="m120.892 124.144-.555.526c-.321.322-.789.701-1.257 1.11s-.905.789-1.256 1.052l-.585.468 4.968 6.252c.205-.409.438-.818.614-1.256.175-.439.292-.848.409-1.286.262-.82.371-1.682.321-2.542a5.4 5.4 0 0 0-2.659-4.324m-9.643-4.324 4.997 6.223.555-.438c.351-.263.789-.672 1.228-1.052l1.227-1.051.526-.526a6.25 6.25 0 0 0-1.698-1.877 6.2 6.2 0 0 0-2.306-1.045 8.8 8.8 0 0 0-2.279-.292h-1.139zm18.731 9.145s.555-.76 1.227-1.928q.58-1.01 1.052-2.075c0-.409.322-.788.468-1.197s.263-.877.38-1.315c.25-.855.387-1.739.409-2.629a7.7 7.7 0 0 0-.321-2.484 5.35 5.35 0 0 0-3.507-3.476l-1.783 2.483-1.285 1.636-.409.526-.176.204a10.8 10.8 0 0 0 .585 3.535 24 24 0 0 0 1.344 3.302 28 28 0 0 0 2.016 3.418m-15.224-14.783a22.7 22.7 0 0 0 3.302 2.074c1.033.526 2.121.938 3.243 1.227 1.144.3 2.336.369 3.507.205l.146-.205s.234-.321.409-.526l1.286-1.606 1.695-2.396a6.34 6.34 0 0 0-4.471-2.104 8.3 8.3 0 0 0-2.25.205q-1.079.214-2.104.613l-.964.409-.906.439q-.776.353-1.491.818-.727.38-1.402.847m24.867 2.337s.351-.876.76-2.162c0-.321.204-.672.321-1.051.117-.38.146-.789.234-1.198a19 19 0 0 0 .292-2.63 9.5 9.5 0 0 0-1.052-5.025 5.46 5.46 0 0 0-4.208-2.629l-.35.906-.38.905-.438 1.023c-.322.672-.614 1.373-.877 1.87l-.438.847a16.1 16.1 0 0 0 3.389 6.252 31 31 0 0 0 1.9 2.074zm-18.117-11.043q.51.257 1.052.438a20 20 0 0 0 2.63.847c2.231.73 4.636.73 6.867 0l.409-.818c.263-.496.555-1.168.847-1.84.293-.672.322-.672.439-.994l.38-.876.321-.847a6.2 6.2 0 0 0-4.822-1.052 10.3 10.3 0 0 0-4.032 1.782q-.873.543-1.666 1.198l-.672.584-.614.555q-.604.472-1.139 1.023m24.721-3.272v-4.587a21 21 0 0 0-.292-2.63c0-.438-.205-.876-.321-1.314a9 9 0 0 0-.497-1.227 7.4 7.4 0 0 0-1.344-2.104 5.47 5.47 0 0 0-4.705-1.607q.009.132 0 .263.03.337 0 .672c0 .555-.234 1.315-.38 2.045s-.146.76-.234 1.11c-.087.351-.146.672-.204.935l-.234.935a12.4 12.4 0 0 0 2.075 2.922 20 20 0 0 0 2.659 2.396 26 26 0 0 0 3.477 2.191m-20.104-6.691c1.28.257 2.581.394 3.886.41a14 14 0 0 0 3.448-.293 8.2 8.2 0 0 0 3.215-1.314l.204-.906c0-.263.146-.584.205-.935.058-.35.175-.701.234-1.052.058-.35.263-1.46.35-2.016.088-.555 0-.496 0-.642a1 1 0 0 1 0-.263 6.26 6.26 0 0 0-4.938 0 9.3 9.3 0 0 0-1.958 1.14l-.818.73a10 10 0 0 0-.789.759c-.497.526-.906 1.052-1.315 1.578q-.548.649-.994 1.373l-.38.555-.263.438q-.069.215-.087.438m23.377-8.735a19 19 0 0 0-.234-2.162 8 8 0 0 0-.175-1.052q0-.525-.263-1.14A30 30 0 0 0 148.01 80h-8.007v1.256a13 13 0 0 0 2.659 2.396 21 21 0 0 0 3.127 1.724 23 23 0 0 0 3.711 1.402m-11.104-5.551V80h-7.978a26 26 0 0 0-.905 1.753l-.351.818c0 .263-.205.497-.292.701q-.291.73-.497 1.49a23.4 23.4 0 0 0 3.857-.467 15 15 0 0 0 3.302-1.052 8.3 8.3 0 0 0 2.864-2.016"/><path d="M137.811 88.502a1 1 0 0 0 0 .263v.642c0 .263-.233 1.286-.35 2.016s-.146.73-.234 1.052c-.088.321-.146.672-.205.935l-.204.906-.292 1.08c-.205.672-.409 1.549-.702 2.425a97 97 0 0 1-.818 2.367l-.73 1.928-.38.877c0 .321-.292.642-.439.993-.146.35-.584 1.344-.847 1.84l-.409.818s-.234.409-.526 1.023-.351.643-.555 1.022l-.672 1.169c-.439.789-.965 1.548-1.315 2.133l-.643.964-1.695 2.396-1.286 1.606c-.175.205-.292.409-.409.526l-.146.205s-.321.321-.76.847l-.76.877c-.292.35-.613.642-.935.993-.321.35-1.256 1.344-1.753 1.782l-.818.789-.526.526-1.227 1.051c-.439.38-.877.789-1.228 1.052l-.555.438.994 1.257.584-.468c.351-.263.818-.672 1.257-1.052.438-.379.935-.788 1.256-1.11l.555-.526.848-.788c.526-.468 1.139-1.169 1.782-1.841s.672-.672.965-1.023l.789-.905.759-.877.176-.204.409-.526 1.285-1.636 1.783-2.483.643-.994c.38-.584.906-1.373 1.344-2.191l.701-1.198.585-1.051.526-1.052.438-.847c.263-.497.555-1.198.877-1.87l.438-1.023.38-.906.351-.905.409-1.081c.233-.672.526-1.548.847-2.425.322-.876.497-1.811.701-2.483.205-.672.293-1.14.293-1.14l.233-.934c0-.263 0-.585.205-.935.204-.351.175-.73.234-1.11.058-.38.263-1.49.38-2.046a4 4 0 0 0 0-.672 2 2 0 0 0 0-.263s0-.467.175-1.168 0-.76 0-1.198v-1.373c0-.935.146-1.87.146-2.571V80h-1.607v2.367c0 .7 0 1.577-.146 2.512v1.315c0 .409 0 .847-.146 1.168zm-67.034 51.389h-.76l-1.636-.292-1.607-.292-.76-.175-1.753 7.771 1.344-.292 1.286-.467a9.3 9.3 0 0 0 2.192-1.374 4.9 4.9 0 0 0 1.373-2.015 6.3 6.3 0 0 0 .321-2.864m-2.629-10.225-1.754 7.771.701.146q.78.204 1.578.322l1.608.292h.701a6.17 6.17 0 0 0 0-5.054 9.5 9.5 0 0 0-1.198-1.958l-.76-.847zM72.794 150s.935 0 2.279-.263l1.081-.175 1.169-.292q1.277-.341 2.484-.877 1.214-.569 2.308-1.344.512-.374.965-.818.431-.467.789-.993a5.35 5.35 0 0 0 .526-4.908h-6.079a11.7 11.7 0 0 0-2.396 2.658 25.5 25.5 0 0 0-1.724 3.097A28 28 0 0 0 72.794 150m1.928-21.123c.047 1.297.203 2.587.468 3.857a16.3 16.3 0 0 0 1.052 3.33 8.3 8.3 0 0 0 2.016 2.922h5.932a6.43 6.43 0 0 0-1.14-4.821 12.4 12.4 0 0 0-1.578-1.607 12 12 0 0 0-1.811-1.256c-.614-.35-1.228-.701-1.812-.964l-.818-.321-.76-.322a14 14 0 0 0-1.549-.818m13.705 20.86.614-.175q.796-.216 1.549-.555a19 19 0 0 0 4.353-2.367 9.17 9.17 0 0 0 3.244-3.973 5.38 5.38 0 0 0-.555-4.908h-.263l-.643.175-2.016.584-2.922.672a10.3 10.3 0 0 0-1.783 3.126 31 31 0 0 0-.584 1.753c-.176.585-.293 1.14-.41 1.665a27 27 0 0 0-.584 4.003m-2.688-21.035a23 23 0 0 0 1.315 3.681c.233.497.496 1.023.789 1.519q.438.746.964 1.49a8.8 8.8 0 0 0 2.6 2.308l2.923-.642 1.958-.585.643-.175h.233a6.2 6.2 0 0 0-2.191-4.412 11 11 0 0 0-3.916-2.074 22.4 22.4 0 0 0-3.653-.818c-.467 0-.876-.146-1.168-.146zm18 17.325s.818-.439 1.958-1.198l.877-.643q.487-.37.935-.789a14 14 0 0 0 1.87-1.87 9.25 9.25 0 0 0 2.308-4.586 5.4 5.4 0 0 0-.268-2.539 5.4 5.4 0 0 0-1.397-2.136l-.818.468-.848.496-.993.497-1.87.964-.877.38a16 16 0 0 0-1.227 6.982 31 31 0 0 0 .35 3.974m-7.305-19.896a21 21 0 0 0 2.104 3.272 10.8 10.8 0 0 0 5.406 4.178l.993-.409c.526-.234 1.169-.584 1.841-.935l.965-.497.818-.467.789-.468a6.3 6.3 0 0 0-3.127-3.827 11.15 11.15 0 0 0-4.266-1.11h-3.74c-1.14.146-1.783.263-1.783.263m21.39 12.884.468-.409q.598-.528 1.11-1.139c.438-.468.935-1.052 1.432-1.695a18 18 0 0 0 1.373-2.162l-4.967-6.252-.994.789c0 .292 0 .584-.146.876a4.4 4.4 0 0 0 0 .877 12.4 12.4 0 0 0 0 1.811c.121 1.191.326 2.373.614 3.535a23.7 23.7 0 0 0 1.11 3.769m-2.542-12.212.964-.76-4.997-6.223-1.928.41-1.578.438-1.082.38h-.409c.85.989 1.778 1.907 2.776 2.746a18 18 0 0 0 2.922 1.928 9 9 0 0 0 1.637.643q.414.138.847.204z"/><path d="m109.204 130.864-.789.467-.819.468-.964.497c-.672.35-1.315.701-1.841.934l-.847.351-1.023.497-.497.204-.584.234-1.257.497c-.847.35-1.724.613-2.367.847l-1.08.35H96.9l-.642.176-1.958.584-2.922.643h-.293l-.818.146-1.169.204h-1.315l-2.484.322H77.09c-.672 0-1.578 0-2.484-.176h-1.344l-1.169-.146h-1.84l-1.608-.292a15 15 0 0 1-1.578-.321l-.701-.146-.38 1.577.76.176 1.607.292 1.636.292h.76l1.14.146h2.571c.935 0 1.87.175 2.572.175h8.415l2.572-.321h1.373l1.17-.205.847-.175h.321l2.922-.672 2.017-.584.642-.175h.263l1.11-.38c.673-.234 1.55-.497 2.426-.877l1.286-.496.584-.234 1.578-.701.877-.38 1.87-.964.994-.497.847-.497.818-.467.263-.146.731-.438 2.192-1.403 2.103-1.49.673-.496.263-.205.993-.789-.993-1.256-.965.76-.263.204-.672.497c-.555.38-1.286.935-2.045 1.432l-2.104 1.373-.731.409zM27.208 110.53l-.35-.672a15 15 0 0 1-.819-1.461l-1.11-2.132-7.188 3.535a10.4 10.4 0 0 0 4.704 2.424 5.4 5.4 0 0 0 4.763-1.694m6.371-8.443-7.189 3.476 1.081 2.075q.343.736.76 1.431l.38.643a6.33 6.33 0 0 0 3.886-3.214 11.7 11.7 0 0 0 1.081-4.411m-13.061 16.244.438.467 1.169 1.169c.526.438 1.11.964 1.782 1.46q1.087.762 2.25 1.403c.793.406 1.625.729 2.484.964.808.22 1.649.299 2.484.233a5.4 5.4 0 0 0 4.208-2.658l-.672-.672c-.38-.438-.848-1.023-1.374-1.578s-.964-1.168-1.315-1.636c-.35-.467-.584-.73-.584-.73l-.848-.175h-.905a12.5 12.5 0 0 0-1.812 0 21.7 21.7 0 0 0-3.536.584 25.5 25.5 0 0 0-3.77 1.169m17.796-11.453a23 23 0 0 0-2.776 2.922 16.8 16.8 0 0 0-1.9 2.921 12 12 0 0 0-.671 1.665c0 .293-.146.556-.205.848a4 4 0 0 0 0 .847l.585.73c.321.439.789 1.023 1.285 1.578l1.315 1.519.643.672a6.26 6.26 0 0 0 2.922-3.886 8.4 8.4 0 0 0 .293-2.249q.015-1.088-.146-2.162a13 13 0 0 0-.41-2.016q-.171-.83-.438-1.636l-.38-1.139zm-7.772 23.577s.73.555 1.899 1.256c.614.322 1.315.672 2.104 1.023q.585.282 1.198.496l1.286.38a13.6 13.6 0 0 0 2.63.409 8.5 8.5 0 0 0 2.483-.321 5.35 5.35 0 0 0 3.478-3.506l-2.455-1.782-1.636-1.286-.556-.409-.204-.175a10.9 10.9 0 0 0-3.536.555 24 24 0 0 0-3.273 1.344 26 26 0 0 0-3.418 2.016m14.756-15.192a22 22 0 0 0-2.045 3.301 16 16 0 0 0-1.257 3.243 8.2 8.2 0 0 0-.175 3.477l.175.175.526.409 1.607 1.256 2.397 1.724a6.17 6.17 0 0 0 2.104-4.499 8 8 0 0 0-.176-2.22 14.6 14.6 0 0 0-.643-2.104c-.146-.351-.263-.672-.409-.964a12 12 0 0 1-.409-.906c-.117-.292-.584-1.081-.818-1.519s-.877-1.373-.877-1.373m-2.308 24.862s.847.351 2.162.76l1.052.292q.59.167 1.198.234c.856.182 1.726.29 2.601.321a9.17 9.17 0 0 0 5.026-1.081 5.35 5.35 0 0 0 2.63-4.207l-.877-.351-.935-.35-.993-.438-1.9-.906-.847-.438a15.8 15.8 0 0 0-6.253 3.418 24 24 0 0 0-2.075 1.899 7.6 7.6 0 0 0-.79.847m11.017-18.113a8 8 0 0 0-.438 1.051q-.478 1.279-.818 2.601a11.04 11.04 0 0 0 0 6.865l.818.438c.497.263 1.169.526 1.84.848l.995.438 1.753.701a6.34 6.34 0 0 0 1.052-4.82 10.9 10.9 0 0 0-1.812-4.061 15 15 0 0 0-1.198-1.636l-.584-.672-.556-.614a11 11 0 0 0-1.052-1.139"/><path d="M57.277 146.728h4.412a16 16 0 0 0 2.572-.263l1.753-7.771-1.227-.292a11.5 11.5 0 0 0-2.922 2.045 25 25 0 0 0-2.396 2.687 27 27 0 0 0-2.192 3.594m7.919-9.583 1.198.292 1.753-7.771a14 14 0 0 0-1.519-1.256c-.468-.38-.935-.701-1.315-.964l-.555-.351-.41-.263-.38-.234a24.6 24.6 0 0 0-.408 3.886 14 14 0 0 0 .292 3.448 7.5 7.5 0 0 0 1.344 3.213"/><path d="m58.183 134.954-1.753-.701-.994-.438c-.672-.322-1.344-.585-1.84-.848l-.819-.438-1.023-.526-1.023-.555-1.168-.672c-.79-.438-1.55-.964-2.134-1.314l-.964-.614-2.396-1.724-1.607-1.256-.526-.409-.175-.175-1.754-1.519c-.321-.263-.643-.614-.964-.906-.322-.292-1.344-1.256-1.812-1.753l-.789-.847-.643-.672-1.315-1.519a22 22 0 0 1-1.285-1.578l-.585-.73-.175-.234-.497-.672-1.461-2.045-1.344-2.133c-.205-.292-.322-.526-.439-.701l-.146-.263-.38-.643a15 15 0 0 1-.76-1.431l-1.08-2.075-1.462.702 1.11 2.132q.37.753.82 1.461l.35.672.175.263q.193.382.438.73l1.374 2.192 1.49 2.103.497.672q.121.116.204.263s.264.292.585.73a32 32 0 0 0 1.315 1.636c.497.585.993 1.14 1.373 1.578l.672.672.79.847c.496.526 1.168 1.169 1.84 1.812.672.642.672.672 1.023.934l.906.789.877.789.204.175.555.409 1.637 1.286 2.454 1.782.994.614c.613.379 1.373.934 2.191 1.373l1.199.672q.508.323 1.052.584l1.051.526.848.438 1.9.906.993.438.935.35.877.351 1.08.438 2.455.818 2.484.731 1.11.292 1.228.292.38-1.578-1.198-.292-1.11-.292-2.426-.672-2.367-.818zM23.117 58.147s0-.263.263-.701.38-.964.643-1.52l.994-2.19-7.189-3.477a10.14 10.14 0 0 0 1.023 5.2 5.4 5.4 0 0 0 4.266 2.688m10.462-.263-7.189-3.447s-.497 1.051-.964 2.132c-.263.526-.439 1.081-.614 1.49s-.263.672-.263.672a6.28 6.28 0 0 0 4.91 1.052 11.3 11.3 0 0 0 4.12-1.899m-20.806-.088v1.344a8 8 0 0 0 0 .935v2.308q.076 1.325.321 2.63c0 .438.205.876.322 1.285q.18.648.467 1.256c.347.768.81 1.477 1.374 2.104a5.4 5.4 0 0 0 4.675 1.607 2 2 0 0 1 0-.263v-.672c0-.293.234-1.315.35-2.045.118-.73.176-.76.234-1.11s.176-.672.234-.935l.205-.935a11.5 11.5 0 0 0-2.046-2.922 22 22 0 0 0-2.659-2.396 26 26 0 0 0-3.477-2.19m20.104 6.69a22.5 22.5 0 0 0-3.886-.439 15.6 15.6 0 0 0-3.448.322 8 8 0 0 0-3.215 1.314l-.204.906c0 .292-.146.584-.234.935-.088.35-.146.701-.205 1.052-.058.35-.263 1.46-.35 2.016-.088.555 0 .496 0 .642v.263a6.14 6.14 0 0 0 4.938 0 8 8 0 0 0 1.929-1.168q.443-.327.847-.701c.263-.263.526-.497.79-.79a58 58 0 0 0 1.314-1.518c.41-.497.73-.994.994-1.403q.196-.263.35-.555l.292-.438zM9.5 73.193q.056 1.145.234 2.279l.175 1.08c0 .38.205.79.321 1.198q.345 1.269.848 2.484.569 1.214 1.344 2.308.389.513.848.964.433.442.964.76a5.38 5.38 0 0 0 4.91.555v-6.077a11.7 11.7 0 0 0-2.69-2.396 21 21 0 0 0-3.097-1.753A27 27 0 0 0 9.5 73.193m21.098 2.045a23.4 23.4 0 0 0-3.857.467 15.6 15.6 0 0 0-3.332 1.052 7.95 7.95 0 0 0-2.922 2.016v5.931a6.23 6.23 0 0 0 4.793-1.169q.454-.329.847-.73a7 7 0 0 0 .789-.818q.684-.858 1.227-1.812.541-.874.965-1.811l.35-.847c0-.263.205-.497.322-.73.643-.936.818-1.55.818-1.55M9.734 88.94l.175.613c0 .38.263.906.555 1.549a19 19 0 0 0 2.396 4.324 9.35 9.35 0 0 0 3.945 3.272 5.38 5.38 0 0 0 4.91-.584v-.234a6 6 0 0 0-.176-.672c-.146-.555-.38-1.286-.584-2.016-.322-1.46-.672-2.922-.672-2.922a10.8 10.8 0 0 0-3.127-1.752c-.555-.234-1.169-.41-1.724-.585l-1.695-.438a24.5 24.5 0 0 0-4.003-.555m21.039-2.688a23 23 0 0 0-3.682 1.315c-.497.234-1.022.467-1.52.76q-.757.455-1.46.993a8.8 8.8 0 0 0-2.338 2.6s.321 1.431.672 2.921c.205.702.41 1.403.555 1.958q.113.315.176.642v.234a6.3 6.3 0 0 0 4.441-2.19 10.5 10.5 0 0 0 2.046-3.916 24 24 0 0 0 .818-3.652c0-.496.146-.905.175-1.168.03-.263.117-.497.117-.497"/><path d="M13.445 104.249s.438.759 1.169 1.869a12 12 0 0 0 .613.848q.341.499.76.935a20 20 0 0 0 1.754 1.84l7.188-3.476-.526-1.14a16 16 0 0 0-6.984-1.227c-1.332.015-2.66.132-3.974.351m12.595.204.496 1.11 7.189-3.476v-2.834a6 6 0 0 0 0-.76 9.4 9.4 0 0 0-.205-1.548 21 21 0 0 0-3.244 2.074 11.04 11.04 0 0 0-4.237 5.434"/><path d="M23.263 97.646v-.234a4.4 4.4 0 0 0-.175-.642c0-.555-.35-1.257-.555-1.958-.35-1.46-.672-2.921-.672-2.921v-1.11c0-.351 0-.76-.205-1.17-.204-.408 0-.408 0-.642v-.672c0-.906-.234-1.811-.292-2.512v-8.181c0-.7 0-1.577.146-2.512v-1.315c0-.409 0-.847.146-1.168v-2.045c0-.263.205-1.286.35-2.016.147-.73.147-.73.205-1.052.059-.322.146-.643.234-.935l.205-.906s0-.438.292-1.08c.292-.644.409-1.55.701-2.426s.585-1.723.79-2.366l.438-1.081s0-.263.263-.672c.262-.409.35-.964.613-1.49.468-1.08.965-2.133.965-2.133l-1.462-.7-.993 2.19c-.263.555-.468 1.11-.643 1.52a7 7 0 0 0-.263.7l-.438 1.11c-.205.673-.526 1.55-.819 2.426s-.526 1.811-.73 2.483l-.292 1.14-.205.934c0 .263-.146.585-.234.935-.087.35-.146.73-.233 1.11s-.234 1.49-.351 2.046 0 .525 0 .671a2 2 0 0 0 0 .263l-.146 1.169c0 .35 0 .76-.146 1.198s0 .905 0 1.373c0 .935-.176 1.87-.176 2.57v8.415c0 .701.205 1.636.293 2.542a6 6 0 0 0 0 .7 5 5 0 0 0 0 .673c0 .438.146.847.204 1.198.059.35 0 .613.146.818s0 .321 0 .321.35 1.49.672 2.922c.205.73.439 1.46.585 2.016q.107.33.175.671v.234s.146.467.38 1.11.497 1.578.877 2.454c.175.409.321.877.496 1.286q.144.281.234.584l.234.497c.292.643.468 1.081.468 1.081l.526 1.139 1.46-.701-.496-1.11s-.205-.409-.468-1.052a2.6 2.6 0 0 1-.233-.497c0-.175 0-.379-.234-.584l-.497-1.227c-.35-.847-.614-1.724-.848-2.366zm38.105-75.492h.73l1.579-.468 1.607-.409.73-.175-1.753-7.771a12.2 12.2 0 0 0-2.045 1.81 8.8 8.8 0 0 0-1.374 2.192 5.35 5.35 0 0 0 .526 4.82m6.78 8.181-1.754-7.771-.73.175q-.785.147-1.55.38l-1.577.438h-.701a6.4 6.4 0 0 0 2.279 4.528c.588.49 1.236.902 1.928 1.227a16 16 0 0 0 2.104 1.023M55.26 13.973q-1.01.545-1.957 1.198l-.906.643-.935.789a16 16 0 0 0-1.87 1.87 9.47 9.47 0 0 0-2.28 4.586 5.35 5.35 0 0 0 1.666 4.675l.818-.468.848-.496.993-.497c.672-.35 1.344-.73 1.87-.964l.848-.38a16 16 0 0 0 1.227-6.982 29 29 0 0 0-.321-3.974m7.305 19.867a24 24 0 0 0-2.104-3.272 11.1 11.1 0 0 0-5.435-4.207l-.818.409c-.526.204-1.169.555-1.841.905l-.964.497-.819.467-.789.468a6.34 6.34 0 0 0 3.098 3.827 11.4 11.4 0 0 0 4.295 1.11q1.024.065 2.046 0h1.695c.993-.058 1.636-.204 1.636-.204M41.147 21.043l-.468.41q-.611.559-1.14 1.197-.796.848-1.49 1.782a17 17 0 0 0-1.373 2.25 10 10 0 0 0-.964 2.483 6.6 6.6 0 0 0-.263 2.484 5.43 5.43 0 0 0 2.659 4.177l.701-.642 1.578-1.373c.555-.497 1.169-.965 1.607-1.315l.76-.585v-.876a4.5 4.5 0 0 0 0-.876q.066-.906 0-1.812a22 22 0 0 0-.584-3.535 25.5 25.5 0 0 0-1.023-3.769m11.572 17.763a21.5 21.5 0 0 0-2.776-2.746 15 15 0 0 0-2.923-1.928 10.4 10.4 0 0 0-1.665-.672l-.848-.205h-.847l-.73.555c-.439.351-1.023.79-1.579 1.286l-1.52 1.344-.671.643a6.16 6.16 0 0 0 3.886 2.921 8.4 8.4 0 0 0 2.25.322 18 18 0 0 0 2.192-.147 18 18 0 0 0 1.928-.496l1.637-.438 1.14-.41zm-23.757-7.888s-.556.76-1.257 1.928a35 35 0 0 0-1.023 2.075 8.5 8.5 0 0 0-.467 1.197c-.146.439-.293.877-.41 1.286-.226.87-.353 1.76-.38 2.659a7 7 0 0 0 .322 2.483 5.26 5.26 0 0 0 3.507 3.477l1.753-2.455 1.286-1.665.438-.526.175-.204a10.8 10.8 0 0 0-.584-3.535 23 23 0 0 0-1.344-3.302 28 28 0 0 0-2.017-3.418m15.283 14.9a23 23 0 0 0-3.302-2.074 16 16 0 0 0-3.214-1.14 8.2 8.2 0 0 0-3.477-.204l-.146.204-.439.526-1.256 1.607-1.724 2.396a6.4 6.4 0 0 0 4.5 2.103 8.3 8.3 0 0 0 2.25-.204q1.07-.24 2.104-.614l.964-.438.906-.409a17 17 0 0 0 1.49-.818q.701-.426 1.344-.935M19.377 43.48s-.35.819-.76 2.075a21.8 21.8 0 0 0-.876 4.704l7.188 3.476.584-1.139a15.9 15.9 0 0 0-3.419-6.223 25 25 0 0 0-1.899-2.103z"/><path d="m26.945 53.356-.555 1.08 7.188 3.448a27 27 0 0 0 2.923-2.25q.59-.534 1.11-1.139l-1.052-.41a22 22 0 0 0-2.63-.846 11.05 11.05 0 0 0-6.984.117"/><path d="m30.627 47.045 1.724-2.395 1.257-1.607.438-.526.146-.205.76-.847.76-.876c.263-.351.613-.672.905-.994a48 48 0 0 1 1.754-1.782l.847-.789.672-.642 1.52-1.344c.555-.497 1.14-.935 1.578-1.286l.73-.555.263-.205.643-.496 2.075-1.432 2.104-1.373.701-.409.292-.146.79-.467.818-.468.964-.497c.672-.35 1.315-.7 1.84-.905l.82-.41 1.051-.467.497-.233.584-.205 1.257-.497c.818-.35 1.695-.613 2.367-.847l1.052-.38h.7l1.579-.438a15 15 0 0 1 1.549-.38l.73-.175-.38-1.578-.73.176-1.607.409-1.578.467h-.73l-1.111.38c-.672.205-1.578.497-2.426.847l-1.285.526-.585.234a2.2 2.2 0 0 0-.526.234l-1.081.467-.847.38c-.527.233-1.199.613-1.87.964l-.994.497-.848.496-.818.468h-.292l-.73.438-2.163 1.402c-.789.526-1.52 1.081-2.104 1.49l-.701.497-.234.204-.76.585c-.438.35-1.052.818-1.607 1.314l-1.578 1.374-.701.642-.848.818c-.526.468-1.168 1.169-1.811 1.84-.643.673-.643.673-.935 1.023l-.79.906-.76.877-.175.204-.438.526-1.286 1.665-1.753 2.454-.643.994c-.38.584-.906 1.373-1.373 2.19-.468.819-.438.819-.672 1.199q-.324.508-.585 1.051l-.526 1.023-.584 1.14 1.461.7 1.081-2.103c.146-.321.35-.672.555-1.023l.672-1.168c.439-.789.965-1.549 1.315-2.133zm82.726-17.237 1.958 1.402c.526.35.964.73 1.344.994l.584.467 4.968-6.223a14.4 14.4 0 0 0-2.688-.467 8.2 8.2 0 0 0-2.572.292 5.4 5.4 0 0 0-3.594 3.535m-2.104 10.372 4.997-6.223-.584-.468-1.286-.964-1.929-1.373a6.34 6.34 0 0 0-2.104 4.587 9.8 9.8 0 0 0 .234 2.279q.263 1.103.672 2.161m4.763-20.304s-.847-.35-2.162-.76l-1.052-.292-1.198-.263a19 19 0 0 0-2.63-.292 9.3 9.3 0 0 0-5.026 1.08 5.32 5.32 0 0 0-2.601 4.179l.877.38.906.35 1.022.438c.672.35 1.403.643 1.9.906l.847.409a15.8 15.8 0 0 0 6.224-3.389c.877-.701 1.578-1.402 2.104-1.899s.789-.847.789-.847m-11.075 18.113s.176-.38.439-1.051q.477-1.279.818-2.6a11.05 11.05 0 0 0 0-6.866l-.818-.438-1.871-.848-.993-.438-.877-.35-.847-.351a6.3 6.3 0 0 0-1.052 4.82c.302 1.455.91 2.83 1.782 4.032q.572.864 1.228 1.665.269.357.584.672.242.326.526.614.506.602 1.081 1.14m-3.243-24.6h-4.588a16.6 16.6 0 0 0-2.63.321c-.874.168-1.727.433-2.542.79a7.4 7.4 0 0 0-2.104 1.343 5.46 5.46 0 0 0-1.607 4.704h.263q.335-.032.672 0l2.074.35 1.082.234.935.234.935.204a11 11 0 0 0 2.922-2.045c.87-.83 1.671-1.729 2.396-2.688a23.4 23.4 0 0 0 2.192-3.447m-6.692 20.013c.256-1.28.403-2.58.438-3.886a15.6 15.6 0 0 0-.292-3.448 8.2 8.2 0 0 0-1.344-3.242l-.906-.205-.935-.204-1.052-.234-1.987-.35h-.935a6.37 6.37 0 0 0 0 4.937 8.8 8.8 0 0 0 1.169 1.957q.342.43.73.818.346.427.76.789.731.708 1.549 1.315c.496.409.964.73 1.373 1.022l.585.35.409.293zM86.294 10s-.935 0-2.28.263l-1.08.175-1.199.292a23 23 0 0 0-2.454.877c-.814.367-1.588.817-2.309 1.344q-.511.374-.964.818-.432.467-.789.993a5.26 5.26 0 0 0-.526 4.908h6.049a11 11 0 0 0 2.396-2.658 19.7 19.7 0 0 0 1.753-3.126A27 27 0 0 0 86.294 10m-2.045 21.094a21 21 0 0 0-.439-3.828 16.3 16.3 0 0 0-1.052-3.33 8 8 0 0 0-2.045-2.922H74.81a6.28 6.28 0 0 0 1.14 4.82c.455.592.974 1.13 1.548 1.608.569.48 1.186.902 1.841 1.256.614.35 1.228.701 1.783.964l.847.321.73.322q.747.451 1.55.788m-13.676-20.83-.584.146-1.52.526a21 21 0 0 0-4.208 2.279l1.753 7.771 1.228-.292a10.7 10.7 0 0 0 1.782-3.097c.205-.584.41-1.169.555-1.753s.322-1.14.439-1.665c.28-1.29.466-2.598.555-3.915M67.563 22.3l-1.169.263 1.753 7.77q1.74.512 3.536.76c.468 0 .848.146 1.14.146h.409a23 23 0 0 0-1.315-3.68 12 12 0 0 0-.76-1.52 10 10 0 0 0-.993-1.49 7.9 7.9 0 0 0-2.601-2.25"/><path d="M74.81 21.277h7.042c.702 0 1.608 0 2.513.175h1.345l1.168.146h2.046l1.987.351 1.052.234.935.204.906.205 1.11.292 2.397.701 2.396.818 1.052.41.847.35.877.35.993.439 1.87.847.819.438.993.497c.322.175.672.35 1.023.584l1.169.672c.818.438 1.548.964 2.133 1.315l.964.613 1.929 1.373 1.286.964.584.468.994-1.286-.585-.467c-.38-.263-.818-.643-1.344-.993l-1.958-1.403-.993-.613a25 25 0 0 0-2.192-1.373l-1.198-.672a8 8 0 0 0-1.052-.585l-1.023-.555-.847-.409c-.497-.263-1.228-.555-1.9-.905l-1.022-.439-.906-.35-.877-.38-1.11-.409-2.426-.818-2.484-.73a12 12 0 0 0-1.14-.293l-.934-.204-.935-.234-1.082-.233-2.074-.351a3.6 3.6 0 0 0-.672 0h-.263l-1.17-.146-1.197-.146h-1.374c-.935 0-1.84-.176-2.571-.176h-8.387l-2.571.322h-1.374l-1.168.204-.848.176h-.321l-1.228.292.38 1.577 1.169-.263h1.14l1.14-.233h1.314l2.513-.322zm65.018 53.903V80h7.977a13.7 13.7 0 0 0-1.344-2.396 9 9 0 0 0-.818-.993 6.4 6.4 0 0 0-.994-.818 5.35 5.35 0 0 0-4.821-.614M130.448 80h7.977v-4.704a6.32 6.32 0 0 0-4.88 1.227q-.458.357-.877.76a10 10 0 0 0-.759.847 12.3 12.3 0 0 0-1.461 1.87m18.818-8.91a6 6 0 0 0-.204-.614 17 17 0 0 0-.526-1.578 19 19 0 0 0-2.396-4.324 9.36 9.36 0 0 0-3.945-3.272 5.38 5.38 0 0 0-4.91.555v.263c0 .146 0 .38.205.672l.555 1.987.702 2.921c.931.748 1.977 1.34 3.097 1.753.584.234 1.169.41 1.753.585.585.175 1.14.292 1.695.409 1.305.32 2.634.535 3.974.642m-20.952 2.659a24 24 0 0 0 3.682-1.315c.468-.234.994-.467 1.52-.76q.758-.455 1.461-.993a8.8 8.8 0 0 0 2.338-2.6s-.351-1.431-.672-2.921a82 82 0 0 1-.556-1.958l-.204-.643v-.233a6.3 6.3 0 0 0-4.442 2.19 11.3 11.3 0 0 0-2.075 3.916 24 24 0 0 0-.818 3.652v1.168c0 .263-.234.497-.234.497m17.212-17.997s-.438-.818-1.198-1.928l-.643-.906a11 11 0 0 0-.789-.934 19 19 0 0 0-1.841-1.87 9.73 9.73 0 0 0-4.617-2.308 5.55 5.55 0 0 0-4.675 1.665l.496.847c0 .234.293.526.468.818l.526 1.023c.321.672.701 1.344.935 1.84l.38.877a16.1 16.1 0 0 0 7.013 1.227 26 26 0 0 0 3.945-.35m-19.9 7.303a22 22 0 0 0 3.273-2.074 11.05 11.05 0 0 0 4.208-5.434l-.38-.847-.906-1.812c-.175-.321-.351-.643-.497-.964l-.497-.818-.438-.818a6.32 6.32 0 0 0-3.828 3.126 11.3 11.3 0 0 0-1.139 4.295 16 16 0 0 0 0 2.015v1.724q.055.81.204 1.607m12.828-21.385-.409-.468q-.567-.615-1.198-1.169a27 27 0 0 0-1.782-1.46 15.6 15.6 0 0 0-2.25-1.403 12.2 12.2 0 0 0-2.484-.964 8.1 8.1 0 0 0-2.484-.263 5.47 5.47 0 0 0-4.179 2.688l.643.672 1.374 1.578c.496.584.964 1.197 1.314 1.636l.585.73.877.175h2.717a22 22 0 0 0 3.536-.613 28 28 0 0 0 3.74-1.14m-17.766 11.57a21.5 21.5 0 0 0 2.746-2.776 14.6 14.6 0 0 0 1.929-2.921q.407-.789.672-1.636c0-.292 0-.555.205-.848a9 9 0 0 0 0-.847l-.555-.73c-.351-.439-.789-1.023-1.286-1.578l-1.929-2.22a6.25 6.25 0 0 0-2.922 3.885c-.191.736-.298 1.49-.321 2.25 0 .76 0 1.49.146 2.191s.263 1.402.409 1.987c.146.584.321 1.198.467 1.665l.38 1.14zm7.773-23.694a18 18 0 0 0-1.841-1.227c-.556-.321-1.257-.643-1.987-.993l-1.169-.468-1.257-.409-4.968 6.223.497.41.468.379a10.8 10.8 0 0 0 3.536-.555 23 23 0 0 0 3.302-1.344 28 28 0 0 0 3.419-2.016m-11.28 5.171-.467-.409-.468-.35-4.997 6.222c0 .322.263.614.409.906s.263.614.409.877c.146.262.556 1.022.789 1.431q.378.701.848 1.344a24 24 0 0 0 2.045-3.301c.536-1.032.958-2.12 1.257-3.243.29-1.136.35-2.318.175-3.477"/><path d="m122.47 39.683.643.672 1.344 1.548c.497.555.935 1.14 1.286 1.578l.555.73.205.234q.272.318.496.672l1.462 2.045 1.344 2.133.438.7v.264l.438.818.497.818c.146.321.322.643.497.964l.906 1.811.38.848.467 1.022q.099.27.234.526l.205.555c.175.41.35.847.496 1.256q.492 1.159.848 2.367l.38 1.08v.234l.204.643c.146.555.351 1.256.555 1.958.322 1.46.672 2.921.672 2.921a1 1 0 0 0 0 .292c0 .205 0 .497.147.818.146.322 0 .73.175 1.169q.021.322 0 .643v.672c0 .905.234 1.811.292 2.512.059.701 0 1.11 0 1.11V80h2.367v-5.989c0-.701-.204-1.636-.321-2.571v-.672a5 5 0 0 0 0-.672c0-.438-.146-.847-.205-1.198-.058-.35 0-.613-.146-.818s0-.321 0-.321l-.701-2.922-.556-1.986c0-.293-.146-.526-.204-.672v-.263l-.38-1.081c-.234-.672-.526-1.578-.877-2.454l-.496-1.286a5 5 0 0 1-.234-.584l-.234-.526-.497-1.052-.38-.876c-.233-.497-.613-1.169-.935-1.84l-.526-1.023c-.175-.293-.35-.585-.467-.818l-.497-.848-.146-.263c0-.175-.234-.438-.438-.73l-1.374-2.191c-.526-.76-1.11-1.52-1.519-2.104a6 6 0 0 0-.497-.672l-.205-.262-.584-.73c-.351-.44-.818-1.053-1.315-1.637l-1.373-1.578-.643-.671-.819-.848c-.467-.526-1.168-1.168-1.84-1.811s-.673-.672-.994-.935l-1.812-1.578-.467-.38-.497-.408-.994 1.285.468.35.468.41.847.73.906.789c.321.263.643.584.964.906.322.32 1.344 1.256 1.812 1.752z"/></g><defs><linearGradient id="a" x1="0.999994" x2="161" y1="4.83816e-06" y2="170.5" gradientUnits="userSpaceOnUse"><stop stop-color="#F9EA40"/><stop offset="1" stop-color="#D67813"/></linearGradient></defs></svg>