<svg width="632" height="338" viewBox="0 0 632 338" fill="none" xmlns="http://www.w3.org/2000/svg">
<path d="M449.454 327.18C448.722 327.18 448.056 327.054 447.456 326.802C446.868 326.538 446.358 326.178 445.926 325.722C445.494 325.266 445.158 324.744 444.918 324.156C444.69 323.568 444.576 322.944 444.576 322.284C444.576 321.396 444.774 320.586 445.17 319.854C445.578 319.122 446.142 318.534 446.862 318.09C447.594 317.646 448.458 317.424 449.454 317.424C450.414 317.424 451.248 317.64 451.956 318.072C452.676 318.492 453.204 319.056 453.54 319.764L451.614 320.376C451.398 319.98 451.092 319.674 450.696 319.458C450.312 319.23 449.886 319.116 449.418 319.116C448.89 319.116 448.41 319.254 447.978 319.53C447.558 319.794 447.222 320.166 446.97 320.646C446.73 321.114 446.61 321.66 446.61 322.284C446.61 322.884 446.736 323.43 446.988 323.922C447.24 324.402 447.576 324.786 447.996 325.074C448.428 325.35 448.908 325.488 449.436 325.488C449.76 325.488 450.072 325.434 450.372 325.326C450.684 325.206 450.954 325.05 451.182 324.858C451.41 324.654 451.572 324.432 451.668 324.192L453.612 324.768C453.408 325.236 453.102 325.65 452.694 326.01C452.298 326.37 451.824 326.658 451.272 326.874C450.732 327.078 450.126 327.18 449.454 327.18ZM457.475 327V319.332H454.361V317.586H462.587V319.332H459.455V327H457.475ZM463.365 324.246C463.365 323.646 463.533 323.124 463.869 322.68C464.217 322.224 464.691 321.876 465.291 321.636C465.891 321.384 466.587 321.258 467.379 321.258C467.799 321.258 468.225 321.288 468.657 321.348C469.101 321.408 469.491 321.504 469.827 321.636V321.042C469.827 320.382 469.629 319.866 469.233 319.494C468.837 319.122 468.267 318.936 467.523 318.936C466.995 318.936 466.497 319.032 466.029 319.224C465.561 319.404 465.063 319.662 464.535 319.998L463.869 318.666C464.493 318.246 465.117 317.934 465.741 317.73C466.377 317.526 467.043 317.424 467.739 317.424C468.999 317.424 469.989 317.76 470.709 318.432C471.441 319.092 471.807 320.034 471.807 321.258V324.768C471.807 324.996 471.843 325.158 471.915 325.254C471.999 325.35 472.137 325.404 472.329 325.416V327C472.149 327.036 471.987 327.06 471.843 327.072C471.699 327.084 471.579 327.09 471.483 327.09C471.063 327.09 470.745 326.988 470.529 326.784C470.313 326.58 470.187 326.34 470.151 326.064L470.097 325.524C469.689 326.052 469.167 326.46 468.531 326.748C467.895 327.036 467.253 327.18 466.605 327.18C465.981 327.18 465.423 327.054 464.931 326.802C464.439 326.538 464.055 326.184 463.779 325.74C463.503 325.296 463.365 324.798 463.365 324.246ZM469.359 324.822C469.503 324.666 469.617 324.51 469.701 324.354C469.785 324.198 469.827 324.06 469.827 323.94V322.86C469.491 322.728 469.137 322.632 468.765 322.572C468.393 322.5 468.027 322.464 467.667 322.464C466.947 322.464 466.359 322.608 465.903 322.896C465.459 323.184 465.237 323.58 465.237 324.084C465.237 324.36 465.309 324.624 465.453 324.876C465.609 325.128 465.825 325.332 466.101 325.488C466.389 325.644 466.743 325.722 467.163 325.722C467.595 325.722 468.009 325.638 468.405 325.47C468.801 325.302 469.119 325.086 469.359 324.822ZM479.555 327.18C478.799 327.18 478.133 327 477.557 326.64C476.981 326.28 476.525 325.812 476.189 325.236V330.834H474.209V317.586H475.955V319.278C476.315 318.714 476.783 318.264 477.359 317.928C477.935 317.592 478.577 317.424 479.285 317.424C479.933 317.424 480.527 317.556 481.067 317.82C481.607 318.072 482.075 318.426 482.471 318.882C482.867 319.338 483.173 319.86 483.389 320.448C483.617 321.024 483.731 321.636 483.731 322.284C483.731 323.184 483.551 324.006 483.191 324.75C482.843 325.494 482.351 326.088 481.715 326.532C481.091 326.964 480.371 327.18 479.555 327.18ZM478.907 325.488C479.327 325.488 479.705 325.398 480.041 325.218C480.389 325.038 480.683 324.798 480.923 324.498C481.175 324.198 481.367 323.856 481.499 323.472C481.631 323.088 481.697 322.692 481.697 322.284C481.697 321.852 481.625 321.444 481.481 321.06C481.337 320.676 481.127 320.34 480.851 320.052C480.587 319.764 480.275 319.536 479.915 319.368C479.567 319.2 479.183 319.116 478.763 319.116C478.511 319.116 478.247 319.164 477.971 319.26C477.695 319.356 477.437 319.488 477.197 319.656C476.957 319.824 476.747 320.022 476.567 320.25C476.387 320.478 476.261 320.718 476.189 320.97V323.436C476.357 323.82 476.579 324.168 476.855 324.48C477.131 324.78 477.449 325.026 477.809 325.218C478.169 325.398 478.535 325.488 478.907 325.488ZM485.512 327V317.586H487.492V325.272H490.858V317.586H492.856V325.272H496.204V317.586H498.184V327H485.512ZM504.843 327.18C504.111 327.18 503.445 327.054 502.845 326.802C502.257 326.538 501.747 326.184 501.315 325.74C500.883 325.284 500.547 324.768 500.307 324.192C500.079 323.604 499.965 322.98 499.965 322.32C499.965 321.432 500.169 320.622 500.577 319.89C500.985 319.146 501.555 318.552 502.287 318.108C503.019 317.652 503.877 317.424 504.861 317.424C505.845 317.424 506.691 317.652 507.399 318.108C508.119 318.552 508.677 319.14 509.073 319.872C509.469 320.604 509.667 321.39 509.667 322.23C509.667 322.374 509.661 322.512 509.649 322.644C509.637 322.764 509.625 322.866 509.613 322.95H502.071C502.107 323.502 502.257 323.988 502.521 324.408C502.797 324.816 503.145 325.14 503.565 325.38C503.985 325.608 504.435 325.722 504.915 325.722C505.443 325.722 505.941 325.59 506.409 325.326C506.889 325.062 507.213 324.714 507.381 324.282L509.073 324.768C508.869 325.224 508.557 325.638 508.137 326.01C507.729 326.37 507.243 326.658 506.679 326.874C506.115 327.078 505.503 327.18 504.843 327.18ZM502.017 321.636H507.705C507.669 321.096 507.513 320.622 507.237 320.214C506.973 319.794 506.631 319.47 506.211 319.242C505.803 319.002 505.347 318.882 504.843 318.882C504.351 318.882 503.895 319.002 503.475 319.242C503.067 319.47 502.731 319.794 502.467 320.214C502.203 320.622 502.053 321.096 502.017 321.636ZM524.513 323.31C524.513 324.078 524.303 324.75 523.883 325.326C523.475 325.902 522.917 326.352 522.209 326.676C521.513 326.988 520.751 327.144 519.923 327.144C519.071 327.144 518.303 326.976 517.619 326.64C516.935 326.292 516.389 325.824 515.981 325.236C515.573 324.648 515.369 323.976 515.369 323.22C515.369 322.716 515.483 322.266 515.711 321.87C515.939 321.462 516.221 321.114 516.557 320.826C516.893 320.538 517.235 320.316 517.583 320.16C517.259 320.004 516.959 319.806 516.683 319.566C516.419 319.314 516.203 319.026 516.035 318.702C515.879 318.378 515.801 318.03 515.801 317.658C515.801 317.106 515.921 316.62 516.161 316.2C516.413 315.768 516.743 315.408 517.151 315.12C517.559 314.82 518.003 314.598 518.483 314.454C518.975 314.298 519.461 314.22 519.941 314.22C520.433 314.22 520.919 314.298 521.399 314.454C521.891 314.598 522.341 314.814 522.749 315.102C523.169 315.39 523.499 315.75 523.739 316.182C523.991 316.602 524.117 317.088 524.117 317.64C524.117 318.012 524.033 318.366 523.865 318.702C523.709 319.026 523.487 319.314 523.199 319.566C522.923 319.818 522.623 320.016 522.299 320.16C522.683 320.328 523.043 320.562 523.379 320.862C523.727 321.162 524.003 321.516 524.207 321.924C524.411 322.332 524.513 322.794 524.513 323.31ZM522.515 323.184C522.515 322.836 522.437 322.524 522.281 322.248C522.137 321.972 521.939 321.744 521.687 321.564C521.435 321.372 521.159 321.228 520.859 321.132C520.559 321.036 520.253 320.988 519.941 320.988C519.497 320.988 519.083 321.078 518.699 321.258C518.315 321.438 518.003 321.696 517.763 322.032C517.523 322.356 517.403 322.74 517.403 323.184C517.403 323.52 517.475 323.826 517.619 324.102C517.763 324.366 517.955 324.594 518.195 324.786C518.447 324.978 518.723 325.122 519.023 325.218C519.335 325.314 519.647 325.362 519.959 325.362C520.391 325.362 520.799 325.272 521.183 325.092C521.579 324.9 521.897 324.642 522.137 324.318C522.389 323.982 522.515 323.604 522.515 323.184ZM517.799 317.73C517.799 318.102 517.907 318.42 518.123 318.684C518.339 318.948 518.615 319.146 518.951 319.278C519.287 319.41 519.617 319.476 519.941 319.476C520.277 319.476 520.607 319.41 520.931 319.278C521.267 319.134 521.543 318.93 521.759 318.666C521.987 318.402 522.101 318.078 522.101 317.694C522.101 317.346 521.999 317.046 521.795 316.794C521.591 316.53 521.321 316.332 520.985 316.2C520.661 316.056 520.313 315.984 519.941 315.984C519.569 315.984 519.215 316.056 518.879 316.2C518.555 316.344 518.291 316.548 518.087 316.812C517.895 317.064 517.799 317.37 517.799 317.73ZM531.616 327.18C530.716 327.156 529.924 326.946 529.24 326.55C528.556 326.154 527.986 325.638 527.53 325.002C527.074 324.354 526.726 323.658 526.486 322.914C526.258 322.158 526.144 321.42 526.144 320.7C526.144 319.932 526.27 319.164 526.522 318.396C526.774 317.628 527.14 316.932 527.62 316.308C528.1 315.672 528.676 315.168 529.348 314.796C530.02 314.412 530.776 314.22 531.616 314.22C532.516 314.22 533.302 314.424 533.974 314.832C534.658 315.24 535.228 315.768 535.684 316.416C536.14 317.064 536.482 317.766 536.71 318.522C536.95 319.278 537.07 320.004 537.07 320.7C537.07 321.48 536.944 322.254 536.692 323.022C536.44 323.778 536.074 324.468 535.594 325.092C535.114 325.716 534.538 326.22 533.866 326.604C533.206 326.976 532.456 327.168 531.616 327.18ZM528.196 320.7C528.22 321.252 528.298 321.804 528.43 322.356C528.574 322.896 528.79 323.394 529.078 323.85C529.366 324.306 529.72 324.672 530.14 324.948C530.56 325.224 531.052 325.362 531.616 325.362C532.204 325.362 532.708 325.218 533.128 324.93C533.56 324.63 533.914 324.246 534.19 323.778C534.466 323.298 534.67 322.788 534.802 322.248C534.946 321.708 535.018 321.192 535.018 320.7C535.018 320.148 534.94 319.602 534.784 319.062C534.64 318.51 534.424 318.006 534.136 317.55C533.848 317.094 533.494 316.728 533.074 316.452C532.654 316.176 532.168 316.038 531.616 316.038C531.028 316.038 530.518 316.188 530.086 316.488C529.654 316.776 529.3 317.16 529.024 317.64C528.748 318.108 528.538 318.612 528.394 319.152C528.262 319.692 528.196 320.208 528.196 320.7Z" fill="white"/>
<path d="M304.824 327.18C303.9 327.18 303.072 326.976 302.34 326.568C301.62 326.148 301.062 325.578 300.666 324.858L301.854 323.724C302.19 324.24 302.622 324.654 303.15 324.966C303.678 325.266 304.242 325.416 304.842 325.416C305.334 325.416 305.772 325.314 306.156 325.11C306.54 324.894 306.84 324.6 307.056 324.228C307.284 323.856 307.398 323.424 307.398 322.932C307.398 322.452 307.29 322.032 307.074 321.672C306.87 321.3 306.582 321.012 306.21 320.808C305.85 320.604 305.442 320.502 304.986 320.502C304.53 320.502 304.098 320.604 303.69 320.808C303.294 321.012 302.976 321.3 302.736 321.672H300.972L302.43 314.22H308.676V316.038H303.87L303.222 319.512C303.438 319.296 303.714 319.122 304.05 318.99C304.398 318.858 304.794 318.792 305.238 318.792C306.042 318.792 306.756 318.966 307.38 319.314C308.016 319.662 308.514 320.142 308.874 320.754C309.246 321.366 309.432 322.074 309.432 322.878C309.432 323.73 309.228 324.48 308.82 325.128C308.412 325.764 307.86 326.268 307.164 326.64C306.48 327 305.7 327.18 304.824 327.18ZM316.407 327.18C315.507 327.156 314.715 326.946 314.031 326.55C313.347 326.154 312.777 325.638 312.321 325.002C311.865 324.354 311.517 323.658 311.277 322.914C311.049 322.158 310.935 321.42 310.935 320.7C310.935 319.932 311.061 319.164 311.313 318.396C311.565 317.628 311.931 316.932 312.411 316.308C312.891 315.672 313.467 315.168 314.139 314.796C314.811 314.412 315.567 314.22 316.407 314.22C317.307 314.22 318.093 314.424 318.765 314.832C319.449 315.24 320.019 315.768 320.475 316.416C320.931 317.064 321.273 317.766 321.501 318.522C321.741 319.278 321.861 320.004 321.861 320.7C321.861 321.48 321.735 322.254 321.483 323.022C321.231 323.778 320.865 324.468 320.385 325.092C319.905 325.716 319.329 326.22 318.657 326.604C317.997 326.976 317.247 327.168 316.407 327.18ZM312.987 320.7C313.011 321.252 313.089 321.804 313.221 322.356C313.365 322.896 313.581 323.394 313.869 323.85C314.157 324.306 314.511 324.672 314.931 324.948C315.351 325.224 315.843 325.362 316.407 325.362C316.995 325.362 317.499 325.218 317.919 324.93C318.351 324.63 318.705 324.246 318.981 323.778C319.257 323.298 319.461 322.788 319.593 322.248C319.737 321.708 319.809 321.192 319.809 320.7C319.809 320.148 319.731 319.602 319.575 319.062C319.431 318.51 319.215 318.006 318.927 317.55C318.639 317.094 318.285 316.728 317.865 316.452C317.445 316.176 316.959 316.038 316.407 316.038C315.819 316.038 315.309 316.188 314.877 316.488C314.445 316.776 314.091 317.16 313.815 317.64C313.539 318.108 313.329 318.612 313.185 319.152C313.053 319.692 312.987 320.208 312.987 320.7ZM323.756 322.968V321.186H329.138V322.968H323.756ZM336.616 316.038H330.424V314.22H339.748L333.34 327H331.108L336.616 316.038ZM340.447 318.558C340.447 317.73 340.651 316.98 341.059 316.308C341.467 315.636 342.019 315.108 342.715 314.724C343.423 314.328 344.209 314.13 345.073 314.13C346.021 314.13 346.837 314.358 347.521 314.814C348.217 315.258 348.757 315.9 349.141 316.74C349.537 317.58 349.735 318.594 349.735 319.782C349.735 321.414 349.531 322.776 349.123 323.868C348.727 324.96 348.163 325.788 347.431 326.352C346.711 326.904 345.859 327.18 344.875 327.18C344.059 327.18 343.309 326.994 342.625 326.622C341.941 326.238 341.389 325.704 340.969 325.02L342.139 323.796C342.415 324.288 342.799 324.684 343.291 324.984C343.783 325.284 344.317 325.434 344.893 325.434C345.493 325.434 346.015 325.266 346.459 324.93C346.903 324.594 347.251 324.102 347.503 323.454C347.755 322.794 347.881 322.008 347.881 321.096C347.713 321.444 347.479 321.75 347.179 322.014C346.879 322.278 346.531 322.482 346.135 322.626C345.751 322.77 345.331 322.842 344.875 322.842C344.059 322.842 343.309 322.65 342.625 322.266C341.953 321.882 341.419 321.366 341.023 320.718C340.639 320.07 340.447 319.35 340.447 318.558ZM345.055 315.804C344.563 315.804 344.113 315.93 343.705 316.182C343.297 316.422 342.967 316.752 342.715 317.172C342.475 317.592 342.355 318.048 342.355 318.54C342.355 319.032 342.475 319.482 342.715 319.89C342.967 320.298 343.297 320.628 343.705 320.88C344.125 321.12 344.581 321.24 345.073 321.24C345.565 321.24 346.015 321.12 346.423 320.88C346.843 320.628 347.173 320.298 347.413 319.89C347.665 319.482 347.791 319.038 347.791 318.558C347.791 318.054 347.665 317.598 347.413 317.19C347.161 316.77 346.825 316.434 346.405 316.182C345.997 315.93 345.547 315.804 345.055 315.804Z" fill="white"/>
<path d="M135.986 327.144C135.278 327.144 134.63 327.042 134.042 326.838C133.466 326.634 132.98 326.34 132.584 325.956C132.188 325.572 131.9 325.128 131.72 324.624L132.8 323.328C132.884 323.64 133.058 323.952 133.322 324.264C133.598 324.576 133.952 324.828 134.384 325.02C134.828 325.212 135.344 325.308 135.932 325.308C136.448 325.308 136.904 325.23 137.3 325.074C137.708 324.906 138.032 324.672 138.272 324.372C138.512 324.072 138.632 323.718 138.632 323.31C138.632 322.854 138.488 322.47 138.2 322.158C137.912 321.846 137.498 321.612 136.958 321.456C136.418 321.3 135.77 321.222 135.014 321.222H134.402V319.638H135.014C136.01 319.638 136.802 319.476 137.39 319.152C137.99 318.828 138.29 318.348 138.29 317.712C138.29 317.316 138.182 316.974 137.966 316.686C137.75 316.386 137.468 316.164 137.12 316.02C136.772 315.864 136.388 315.786 135.968 315.786C135.284 315.786 134.69 315.942 134.186 316.254C133.682 316.566 133.316 316.95 133.088 317.406L131.792 315.984C132.044 315.588 132.392 315.246 132.836 314.958C133.28 314.67 133.778 314.448 134.33 314.292C134.894 314.136 135.464 314.058 136.04 314.058C136.88 314.058 137.63 314.208 138.29 314.508C138.95 314.808 139.466 315.222 139.838 315.75C140.21 316.266 140.396 316.854 140.396 317.514C140.396 317.994 140.294 318.426 140.09 318.81C139.898 319.194 139.616 319.518 139.244 319.782C138.884 320.034 138.452 320.22 137.948 320.34C138.488 320.436 138.962 320.64 139.37 320.952C139.79 321.264 140.108 321.648 140.324 322.104C140.552 322.56 140.666 323.058 140.666 323.598C140.666 324.342 140.45 324.978 140.018 325.506C139.598 326.034 139.034 326.442 138.326 326.73C137.618 327.006 136.838 327.144 135.986 327.144ZM147.793 327.18C146.893 327.156 146.101 326.946 145.417 326.55C144.733 326.154 144.163 325.638 143.707 325.002C143.251 324.354 142.903 323.658 142.663 322.914C142.435 322.158 142.321 321.42 142.321 320.7C142.321 319.932 142.447 319.164 142.699 318.396C142.951 317.628 143.317 316.932 143.797 316.308C144.277 315.672 144.853 315.168 145.525 314.796C146.197 314.412 146.953 314.22 147.793 314.22C148.693 314.22 149.479 314.424 150.151 314.832C150.835 315.24 151.405 315.768 151.861 316.416C152.317 317.064 152.659 317.766 152.887 318.522C153.127 319.278 153.247 320.004 153.247 320.7C153.247 321.48 153.121 322.254 152.869 323.022C152.617 323.778 152.251 324.468 151.771 325.092C151.291 325.716 150.715 326.22 150.043 326.604C149.383 326.976 148.633 327.168 147.793 327.18ZM144.373 320.7C144.397 321.252 144.475 321.804 144.607 322.356C144.751 322.896 144.967 323.394 145.255 323.85C145.543 324.306 145.897 324.672 146.317 324.948C146.737 325.224 147.229 325.362 147.793 325.362C148.381 325.362 148.885 325.218 149.305 324.93C149.737 324.63 150.091 324.246 150.367 323.778C150.643 323.298 150.847 322.788 150.979 322.248C151.123 321.708 151.195 321.192 151.195 320.7C151.195 320.148 151.117 319.602 150.961 319.062C150.817 318.51 150.601 318.006 150.313 317.55C150.025 317.094 149.671 316.728 149.251 316.452C148.831 316.176 148.345 316.038 147.793 316.038C147.205 316.038 146.695 316.188 146.263 316.488C145.831 316.776 145.477 317.16 145.201 317.64C144.925 318.108 144.715 318.612 144.571 319.152C144.439 319.692 144.373 320.208 144.373 320.7ZM155.143 322.968V321.186H160.525V322.968H155.143ZM167.813 327V323.904H162.107V322.14L168.425 314.22H169.793V322.122H171.377V323.904H169.793V327H167.813ZM164.123 322.122H168.029V317.226L164.123 322.122ZM172.836 318.558C172.836 317.73 173.04 316.98 173.448 316.308C173.856 315.636 174.408 315.108 175.104 314.724C175.812 314.328 176.598 314.13 177.462 314.13C178.41 314.13 179.226 314.358 179.91 314.814C180.606 315.258 181.146 315.9 181.53 316.74C181.926 317.58 182.124 318.594 182.124 319.782C182.124 321.414 181.92 322.776 181.512 323.868C181.116 324.96 180.552 325.788 179.82 326.352C179.1 326.904 178.248 327.18 177.264 327.18C176.448 327.18 175.698 326.994 175.014 326.622C174.33 326.238 173.778 325.704 173.358 325.02L174.528 323.796C174.804 324.288 175.188 324.684 175.68 324.984C176.172 325.284 176.706 325.434 177.282 325.434C177.882 325.434 178.404 325.266 178.848 324.93C179.292 324.594 179.64 324.102 179.892 323.454C180.144 322.794 180.27 322.008 180.27 321.096C180.102 321.444 179.868 321.75 179.568 322.014C179.268 322.278 178.92 322.482 178.524 322.626C178.14 322.77 177.72 322.842 177.264 322.842C176.448 322.842 175.698 322.65 175.014 322.266C174.342 321.882 173.808 321.366 173.412 320.718C173.028 320.07 172.836 319.35 172.836 318.558ZM177.444 315.804C176.952 315.804 176.502 315.93 176.094 316.182C175.686 316.422 175.356 316.752 175.104 317.172C174.864 317.592 174.744 318.048 174.744 318.54C174.744 319.032 174.864 319.482 175.104 319.89C175.356 320.298 175.686 320.628 176.094 320.88C176.514 321.12 176.97 321.24 177.462 321.24C177.954 321.24 178.404 321.12 178.812 320.88C179.232 320.628 179.562 320.298 179.802 319.89C180.054 319.482 180.18 319.038 180.18 318.558C180.18 318.054 180.054 317.598 179.802 317.19C179.55 316.77 179.214 316.434 178.794 316.182C178.386 315.93 177.936 315.804 177.444 315.804Z" fill="white"/>
<path opacity="0.4" d="M9.738 327V316.002H5.472L5.4 318.378C5.328 320.094 5.19 321.516 4.986 322.644C4.782 323.76 4.488 324.642 4.104 325.29C3.72 325.926 3.24 326.382 2.664 326.658C2.088 326.922 1.398 327.054 0.594 327.054V325.29C1.038 325.29 1.428 325.188 1.764 324.984C2.1 324.768 2.382 324.39 2.61 323.85C2.85 323.31 3.036 322.554 3.168 321.582C3.312 320.598 3.408 319.344 3.456 317.82L3.582 314.22H11.772V327H9.738ZM18.6728 327.18C17.9408 327.18 17.2748 327.054 16.6748 326.802C16.0868 326.538 15.5768 326.184 15.1448 325.74C14.7128 325.284 14.3768 324.768 14.1368 324.192C13.9088 323.604 13.7948 322.98 13.7948 322.32C13.7948 321.432 13.9988 320.622 14.4067 319.89C14.8148 319.146 15.3848 318.552 16.1168 318.108C16.8488 317.652 17.7068 317.424 18.6908 317.424C19.6748 317.424 20.5208 317.652 21.2288 318.108C21.9488 318.552 22.5068 319.14 22.9028 319.872C23.2988 320.604 23.4968 321.39 23.4968 322.23C23.4968 322.374 23.4908 322.512 23.4788 322.644C23.4668 322.764 23.4548 322.866 23.4428 322.95H15.9008C15.9368 323.502 16.0868 323.988 16.3508 324.408C16.6268 324.816 16.9748 325.14 17.3948 325.38C17.8148 325.608 18.2648 325.722 18.7448 325.722C19.2728 325.722 19.7708 325.59 20.2388 325.326C20.7188 325.062 21.0428 324.714 21.2108 324.282L22.9028 324.768C22.6988 325.224 22.3868 325.638 21.9668 326.01C21.5588 326.37 21.0728 326.658 20.5088 326.874C19.9448 327.078 19.3328 327.18 18.6728 327.18ZM15.8468 321.636H21.5348C21.4988 321.096 21.3428 320.622 21.0668 320.214C20.8028 319.794 20.4608 319.47 20.0408 319.242C19.6328 319.002 19.1768 318.882 18.6728 318.882C18.1808 318.882 17.7248 319.002 17.3048 319.242C16.8968 319.47 16.5608 319.794 16.2968 320.214C16.0328 320.622 15.8828 321.096 15.8468 321.636ZM27.3438 327V319.332H24.2298V317.586H32.4558V319.332H29.3238V327H27.3438Z" fill="white"/>
<g opacity="0.4">
<line y1="61.5" x2="16" y2="61.5" stroke="white"/>
<line y1="85.5" x2="16" y2="85.5" stroke="white"/>
<line y1="109.5" x2="16" y2="109.5" stroke="white"/>
<line y1="133.5" x2="16" y2="133.5" stroke="white"/>
<line y1="157.5" x2="16" y2="157.5" stroke="white"/>
<line y1="181.5" x2="16" y2="181.5" stroke="white"/>
<line y1="205.5" x2="16" y2="205.5" stroke="white"/>
<line y1="229.5" x2="16" y2="229.5" stroke="white"/>
<line y1="253.5" x2="16" y2="253.5" stroke="white"/>
<line y1="277.5" x2="632" y2="277.5" stroke="white"/>
</g>
<path d="M138.714 74.968C138.714 74.8293 138.766 74.5953 138.87 74.266C138.991 73.9193 139.182 73.564 139.442 73.2C139.702 72.8187 140.04 72.4893 140.456 72.212C140.872 71.9347 141.392 71.796 142.016 71.796C142.605 71.796 143.134 71.9173 143.602 72.16C144.087 72.3853 144.555 72.6193 145.006 72.862C145.474 73.1047 145.951 73.226 146.436 73.226C146.904 73.226 147.268 73.122 147.528 72.914C147.788 72.706 147.97 72.498 148.074 72.29C148.178 72.0647 148.23 71.9347 148.23 71.9H149.868C149.868 71.9693 149.807 72.16 149.686 72.472C149.582 72.784 149.391 73.1393 149.114 73.538C148.854 73.9193 148.499 74.2573 148.048 74.552C147.615 74.8293 147.069 74.968 146.41 74.968C145.821 74.968 145.275 74.8467 144.772 74.604C144.269 74.3613 143.801 74.1273 143.368 73.902C142.935 73.6593 142.475 73.538 141.99 73.538C141.557 73.538 141.219 73.6507 140.976 73.876C140.733 74.1013 140.56 74.3353 140.456 74.578C140.369 74.8207 140.326 74.9507 140.326 74.968H138.714ZM157.801 81C157.801 80.1053 157.867 79.3207 157.999 78.646C158.131 77.9713 158.336 77.3627 158.615 76.82C158.894 76.2773 159.246 75.8007 159.671 75.39C160.096 74.9793 160.588 74.6053 161.145 74.268C161.688 73.9453 162.245 73.6447 162.817 73.366C163.404 73.0873 163.946 72.794 164.445 72.486C164.944 72.178 165.34 71.8187 165.633 71.408C165.941 70.9827 166.095 70.4693 166.095 69.868C166.095 69.384 165.992 68.9587 165.787 68.592C165.596 68.2253 165.303 67.9393 164.907 67.734C164.526 67.514 164.034 67.404 163.433 67.404C162.817 67.404 162.245 67.514 161.717 67.734C161.204 67.9393 160.749 68.196 160.353 68.504C159.972 68.812 159.664 69.1127 159.429 69.406L157.889 67.8C158.036 67.624 158.27 67.3893 158.593 67.096C158.93 66.8027 159.341 66.5093 159.825 66.216C160.324 65.9227 160.896 65.6807 161.541 65.49C162.186 65.2847 162.912 65.182 163.719 65.182C164.834 65.182 165.765 65.3873 166.513 65.798C167.276 66.194 167.848 66.744 168.229 67.448C168.625 68.1373 168.823 68.9147 168.823 69.78C168.823 70.484 168.698 71.1 168.449 71.628C168.2 72.1413 167.87 72.5887 167.459 72.97C167.063 73.3367 166.616 73.6667 166.117 73.96C165.633 74.2533 165.149 74.532 164.665 74.796C163.829 75.2213 163.154 75.6027 162.641 75.94C162.142 76.2773 161.746 76.6 161.453 76.908C161.174 77.216 160.976 77.524 160.859 77.832C160.742 78.14 160.661 78.47 160.617 78.822H168.845V81H157.801ZM176.097 81.176C175.232 81.176 174.44 81.0513 173.721 80.802C173.017 80.5527 172.423 80.1933 171.939 79.724C171.455 79.2547 171.103 78.712 170.883 78.096L172.203 76.512C172.306 76.8933 172.518 77.2747 172.841 77.656C173.178 78.0373 173.611 78.3453 174.139 78.58C174.682 78.8147 175.312 78.932 176.031 78.932C176.662 78.932 177.219 78.8367 177.703 78.646C178.202 78.4407 178.598 78.1547 178.891 77.788C179.184 77.4213 179.331 76.9887 179.331 76.49C179.331 75.9327 179.155 75.4633 178.803 75.082C178.451 74.7007 177.945 74.4147 177.285 74.224C176.625 74.0333 175.833 73.938 174.909 73.938H174.161V72.002H174.909C176.126 72.002 177.094 71.804 177.813 71.408C178.546 71.012 178.913 70.4253 178.913 69.648C178.913 69.164 178.781 68.746 178.517 68.394C178.253 68.0273 177.908 67.756 177.483 67.58C177.058 67.3893 176.588 67.294 176.075 67.294C175.239 67.294 174.513 67.4847 173.897 67.866C173.281 68.2473 172.834 68.7167 172.555 69.274L170.971 67.536C171.279 67.052 171.704 66.634 172.247 66.282C172.79 65.93 173.398 65.6587 174.073 65.468C174.762 65.2773 175.459 65.182 176.163 65.182C177.19 65.182 178.106 65.3653 178.913 65.732C179.72 66.0987 180.35 66.6047 180.805 67.25C181.26 67.8807 181.487 68.5993 181.487 69.406C181.487 69.9927 181.362 70.5207 181.113 70.99C180.878 71.4593 180.534 71.8553 180.079 72.178C179.639 72.486 179.111 72.7133 178.495 72.86C179.155 72.9773 179.734 73.2267 180.233 73.608C180.746 73.9893 181.135 74.4587 181.399 75.016C181.678 75.5733 181.817 76.182 181.817 76.842C181.817 77.7513 181.553 78.5287 181.025 79.174C180.512 79.8193 179.822 80.318 178.957 80.67C178.092 81.0073 177.138 81.176 176.097 81.176Z" fill="white"/>
<path opacity="0.8" d="M136 106C136 101.582 139.582 98 144 98H176C180.418 98 184 101.582 184 106V278H136V106Z" fill="#38BCE2"/>
<path d="M308.594 136.968C308.594 136.829 308.646 136.595 308.75 136.266C308.871 135.919 309.062 135.564 309.322 135.2C309.582 134.819 309.92 134.489 310.336 134.212C310.752 133.935 311.272 133.796 311.896 133.796C312.485 133.796 313.014 133.917 313.482 134.16C313.967 134.385 314.435 134.619 314.886 134.862C315.354 135.105 315.83 135.226 316.316 135.226C316.784 135.226 317.148 135.122 317.408 134.914C317.668 134.706 317.85 134.498 317.954 134.29C318.058 134.065 318.11 133.935 318.11 133.9H319.748C319.748 133.969 319.687 134.16 319.566 134.472C319.462 134.784 319.271 135.139 318.994 135.538C318.734 135.919 318.378 136.257 317.928 136.552C317.494 136.829 316.948 136.968 316.29 136.968C315.7 136.968 315.154 136.847 314.652 136.604C314.149 136.361 313.681 136.127 313.248 135.902C312.814 135.659 312.355 135.538 311.87 135.538C311.436 135.538 311.098 135.651 310.856 135.876C310.613 136.101 310.44 136.335 310.336 136.578C310.249 136.821 310.206 136.951 310.206 136.968H308.594ZM336.459 140.822V143H328.165V140.822H331.179V129.69C331.062 129.866 330.864 130.064 330.585 130.284C330.321 130.489 330.02 130.695 329.683 130.9C329.346 131.091 328.994 131.252 328.627 131.384C328.275 131.516 327.952 131.582 327.659 131.582V129.338C328.055 129.338 328.451 129.235 328.847 129.03C329.258 128.825 329.639 128.59 329.991 128.326C330.343 128.047 330.622 127.798 330.827 127.578C331.047 127.358 331.164 127.241 331.179 127.226H333.665V140.822H336.459ZM345.233 129.602H337.665V127.38H349.061L341.229 143H338.501L345.233 129.602Z" fill="white"/>
<path opacity="0.6" d="M304 168C304 163.582 307.582 160 312 160H344C348.418 160 352 163.582 352 168V278H304V168Z" fill="#38BCE2"/>
<path d="M475.928 146.968C475.928 146.829 475.98 146.595 476.084 146.266C476.205 145.919 476.396 145.564 476.656 145.2C476.916 144.819 477.254 144.489 477.67 144.212C478.086 143.935 478.606 143.796 479.23 143.796C479.819 143.796 480.348 143.917 480.816 144.16C481.301 144.385 481.769 144.619 482.22 144.862C482.688 145.105 483.164 145.226 483.65 145.226C484.118 145.226 484.482 145.122 484.742 144.914C485.002 144.706 485.184 144.498 485.288 144.29C485.392 144.065 485.444 143.935 485.444 143.9H487.082C487.082 143.969 487.021 144.16 486.9 144.472C486.796 144.784 486.605 145.139 486.328 145.538C486.068 145.919 485.712 146.257 485.262 146.552C484.828 146.829 484.282 146.968 483.624 146.968C483.034 146.968 482.488 146.847 481.986 146.604C481.483 146.361 481.015 146.127 480.582 145.902C480.148 145.659 479.689 145.538 479.204 145.538C478.77 145.538 478.432 145.651 478.19 145.876C477.947 146.101 477.774 146.335 477.67 146.578C477.583 146.821 477.54 146.951 477.54 146.968H475.928ZM504.781 150.822V153H496.487V150.822H499.501V139.69C499.384 139.866 499.186 140.064 498.907 140.284C498.643 140.489 498.342 140.695 498.005 140.9C497.668 141.091 497.316 141.252 496.949 141.384C496.597 141.516 496.274 141.582 495.981 141.582V139.338C496.377 139.338 496.773 139.235 497.169 139.03C497.58 138.825 497.961 138.59 498.313 138.326C498.665 138.047 498.944 137.798 499.149 137.578C499.369 137.358 499.486 137.241 499.501 137.226H501.987V150.822H504.781ZM511.158 153.22C510.028 153.22 509.016 152.971 508.122 152.472C507.242 151.959 506.56 151.262 506.076 150.382L507.528 148.996C507.938 149.627 508.466 150.133 509.112 150.514C509.757 150.881 510.446 151.064 511.18 151.064C511.781 151.064 512.316 150.939 512.786 150.69C513.255 150.426 513.622 150.067 513.886 149.612C514.164 149.157 514.304 148.629 514.304 148.028C514.304 147.441 514.172 146.928 513.908 146.488C513.658 146.033 513.306 145.681 512.852 145.432C512.412 145.183 511.913 145.058 511.356 145.058C510.798 145.058 510.27 145.183 509.772 145.432C509.288 145.681 508.899 146.033 508.606 146.488H506.45L508.232 137.38H515.866V139.602H509.992L509.2 143.848C509.464 143.584 509.801 143.371 510.212 143.21C510.637 143.049 511.121 142.968 511.664 142.968C512.646 142.968 513.519 143.181 514.282 143.606C515.059 144.031 515.668 144.618 516.108 145.366C516.562 146.114 516.79 146.979 516.79 147.962C516.79 149.003 516.54 149.92 516.042 150.712C515.543 151.489 514.868 152.105 514.018 152.56C513.182 153 512.228 153.22 511.158 153.22Z" fill="white"/>
<path opacity="0.4" d="M472 178C472 173.582 475.582 170 480 170H512C516.418 170 520 173.582 520 178V278H472V178Z" fill="#38BCE2"/>
<path opacity="0.4" d="M11.934 8.22L11.934 21L9.9 21L9.9 15.366L3.456 15.366L3.456 21H1.44L1.44 8.22H3.456L3.456 13.566L9.9 13.566V8.22H11.934ZM14.565 21L14.565 11.586L16.617 11.586L19.857 17.4L23.115 11.586H25.131L25.131 21H23.241V14.376L20.469 19.326H19.227L16.437 14.376V21H14.565ZM31.7325 21.18C30.9885 21.18 30.3225 21.054 29.7345 20.802C29.1465 20.538 28.6365 20.178 28.2045 19.722C27.7845 19.266 27.4605 18.75 27.2325 18.174C27.0045 17.586 26.8905 16.962 26.8905 16.302C26.8905 15.642 27.0045 15.018 27.2325 14.43C27.4605 13.842 27.7845 13.326 28.2045 12.882C28.6365 12.426 29.1465 12.072 29.7345 11.82C30.3345 11.556 31.0005 11.424 31.7325 11.424C32.4645 11.424 33.1245 11.556 33.7125 11.82C34.3125 12.072 34.8225 12.426 35.2425 12.882C35.6745 13.326 36.0045 13.842 36.2325 14.43C36.4605 15.018 36.5745 15.642 36.5745 16.302C36.5745 16.962 36.4605 17.586 36.2325 18.174C36.0045 18.75 35.6745 19.266 35.2425 19.722C34.8225 20.178 34.3125 20.538 33.7125 20.802C33.1245 21.054 32.4645 21.18 31.7325 21.18ZM28.9245 16.32C28.9245 16.92 29.0505 17.46 29.3025 17.94C29.5545 18.42 29.8905 18.798 30.3105 19.074C30.7305 19.35 31.2045 19.488 31.7325 19.488C32.2485 19.488 32.7165 19.35 33.1365 19.074C33.5685 18.786 33.9105 18.402 34.1625 17.922C34.4145 17.43 34.5405 16.89 34.5405 16.302C34.5405 15.702 34.4145 15.162 34.1625 14.682C33.9105 14.202 33.5685 13.824 33.1365 13.548C32.7165 13.26 32.2485 13.116 31.7325 13.116C31.2045 13.116 30.7305 13.26 30.3105 13.548C29.8905 13.836 29.5545 14.22 29.3025 14.7C29.0505 15.168 28.9245 15.708 28.9245 16.32ZM37.5746 21.09V19.326C37.8746 19.326 38.1446 19.254 38.3846 19.11C38.6246 18.954 38.8346 18.702 39.0146 18.354C39.1946 17.994 39.3386 17.496 39.4466 16.86C39.5546 16.224 39.6266 15.414 39.6626 14.43L39.7886 11.586H46.5026V21H44.5226V13.332H41.5346L41.4986 14.61C41.4506 15.87 41.3366 16.92 41.1566 17.76C40.9766 18.588 40.7246 19.248 40.4006 19.74C40.0886 20.22 39.6926 20.568 39.2126 20.784C38.7446 20.988 38.1986 21.09 37.5746 21.09ZM48.8775 21V11.586L50.8575 11.586V14.682H53.1075C54.2235 14.682 55.0695 14.964 55.6455 15.528C56.2335 16.092 56.5275 16.836 56.5275 17.76C56.5275 18.384 56.4015 18.942 56.1495 19.434C55.8975 19.926 55.5255 20.31 55.0335 20.586C54.5535 20.862 53.9535 21 53.2335 21H48.8775ZM50.8575 19.47H52.9275C53.3235 19.47 53.6415 19.398 53.8815 19.254C54.1215 19.098 54.3015 18.894 54.4215 18.642C54.5415 18.378 54.6015 18.096 54.6015 17.796C54.6015 17.496 54.5475 17.226 54.4395 16.986C54.3315 16.734 54.1515 16.536 53.8995 16.392C53.6595 16.236 53.3295 16.158 52.9095 16.158H50.8575V19.47ZM68.4011 8.22L59.6351 21H57.4391L66.2051 8.22H68.4011ZM69.3383 21.09V19.326C69.6383 19.326 69.9083 19.254 70.1483 19.11C70.3883 18.954 70.5983 18.702 70.7783 18.354C70.9583 17.994 71.1023 17.496 71.2103 16.86C71.3183 16.224 71.3903 15.414 71.4263 14.43L71.5522 11.586L78.2663 11.586V21L76.2863 21V13.332H73.2983L73.2623 14.61C73.2143 15.87 73.1003 16.92 72.9203 17.76C72.7403 18.588 72.4883 19.248 72.1643 19.74C71.8523 20.22 71.4563 20.568 70.9763 20.784C70.5083 20.988 69.9623 21.09 69.3383 21.09Z" fill="white"/>
</svg>
