<svg xmlns="http://www.w3.org/2000/svg" width="632" height="338" fill="none" viewBox="0 0 632 338"><path fill="#fff" d="M449.454 327.18q-1.098 0-1.998-.378a4.8 4.8 0 0 1-1.53-1.08 5 5 0 0 1-1.008-1.566 5.1 5.1 0 0 1-.342-1.872q0-1.332.594-2.43a4.77 4.77 0 0 1 1.692-1.764q1.098-.666 2.592-.666 1.44 0 2.502.648 1.08.63 1.584 1.692l-1.926.612a2.26 2.26 0 0 0-.918-.918 2.46 2.46 0 0 0-1.278-.342 2.6 2.6 0 0 0-1.44.414q-.63.396-1.008 1.116-.36.702-.36 1.638 0 .9.378 1.638.378.72 1.008 1.152a2.6 2.6 0 0 0 1.44.414q.486 0 .936-.162.468-.18.81-.468.342-.306.486-.666l1.944.576q-.306.702-.918 1.242-.594.54-1.422.864-.81.306-1.818.306m8.021-.18v-7.668h-3.114v-1.746h8.226v1.746h-3.132V327zm5.89-2.754q0-.9.504-1.566.522-.684 1.422-1.044.9-.378 2.088-.378.63 0 1.278.09.666.09 1.17.288v-.594q0-.99-.594-1.548t-1.71-.558q-.792 0-1.494.288-.702.27-1.494.774l-.666-1.332a7.6 7.6 0 0 1 1.872-.936 6.5 6.5 0 0 1 1.998-.306q1.89 0 2.97 1.008 1.098.99 1.098 2.826v3.51q0 .342.108.486.126.144.414.162V327a4.4 4.4 0 0 1-.846.09q-.63 0-.954-.306a1.18 1.18 0 0 1-.378-.72l-.054-.54q-.612.792-1.566 1.224a4.6 4.6 0 0 1-1.926.432q-.936 0-1.674-.378a3 3 0 0 1-1.152-1.062 2.77 2.77 0 0 1-.414-1.494m5.994.576q.216-.234.342-.468a.9.9 0 0 0 .126-.414v-1.08a5 5 0 0 0-1.062-.288 6 6 0 0 0-1.098-.108q-1.08 0-1.764.432-.666.432-.666 1.188 0 .414.216.792.234.378.648.612.432.234 1.062.234.648 0 1.242-.252t.954-.648m10.196 2.358q-1.134 0-1.998-.54a4 4 0 0 1-1.368-1.404v5.598h-1.98v-13.248h1.746v1.692a4.1 4.1 0 0 1 1.404-1.35 3.75 3.75 0 0 1 1.926-.504q.972 0 1.782.396.81.378 1.404 1.062t.918 1.566q.342.864.342 1.836 0 1.35-.54 2.466a4.4 4.4 0 0 1-1.476 1.782q-.936.648-2.16.648m-.648-1.692q.63 0 1.134-.27.522-.27.882-.72.378-.45.576-1.026a3.63 3.63 0 0 0-.018-2.412 2.9 2.9 0 0 0-.63-1.008 3 3 0 0 0-.936-.684 2.6 2.6 0 0 0-1.152-.252 2.4 2.4 0 0 0-.792.144 3.2 3.2 0 0 0-.774.396q-.36.252-.63.594t-.378.72v2.466q.252.576.666 1.044.414.45.954.738.54.27 1.098.27m6.605 1.512v-9.414h1.98v7.686h3.366v-7.686h1.998v7.686h3.348v-7.686h1.98V327zm19.331.18q-1.098 0-1.998-.378a4.9 4.9 0 0 1-1.53-1.062 5.1 5.1 0 0 1-1.008-1.548 5.1 5.1 0 0 1-.342-1.872q0-1.332.612-2.43a4.7 4.7 0 0 1 1.71-1.782q1.098-.684 2.574-.684t2.538.684a4.63 4.63 0 0 1 1.674 1.764 4.9 4.9 0 0 1 .576 2.772q-.018.18-.036.306h-7.542q.054.828.45 1.458a3.1 3.1 0 0 0 1.044.972q.63.342 1.35.342.792 0 1.494-.396.72-.396.972-1.044l1.692.486q-.306.684-.936 1.242-.612.54-1.458.864a5.4 5.4 0 0 1-1.836.306m-2.826-5.544h5.688a2.8 2.8 0 0 0-.468-1.422 2.75 2.75 0 0 0-1.026-.972 2.65 2.65 0 0 0-1.368-.36q-.738 0-1.368.36a2.8 2.8 0 0 0-1.008.972 2.9 2.9 0 0 0-.45 1.422m22.496 1.674q0 1.152-.63 2.016-.612.864-1.674 1.35a5.5 5.5 0 0 1-2.286.468q-1.278 0-2.304-.504a4.35 4.35 0 0 1-1.638-1.404q-.612-.882-.612-2.016 0-.756.342-1.35.342-.612.846-1.044a4.3 4.3 0 0 1 1.026-.666 4 4 0 0 1-.9-.594 3.3 3.3 0 0 1-.648-.864 2.4 2.4 0 0 1-.234-1.044q0-.828.36-1.458a3.4 3.4 0 0 1 .99-1.08q.612-.45 1.332-.666a4.8 4.8 0 0 1 1.458-.234q.738 0 1.458.234.738.216 1.35.648.63.432.99 1.08.378.63.378 1.458 0 .558-.252 1.062a2.7 2.7 0 0 1-.666.864q-.414.378-.9.594.576.252 1.08.702.522.45.828 1.062t.306 1.386m-1.998-.126q0-.522-.234-.936a1.9 1.9 0 0 0-.594-.684 2.7 2.7 0 0 0-.828-.432 3 3 0 0 0-.918-.144q-.666 0-1.242.27a2.36 2.36 0 0 0-.936.774q-.36.486-.36 1.152 0 .504.216.918.216.396.576.684.378.288.828.432.468.144.936.144.648 0 1.224-.27.594-.288.954-.774.378-.504.378-1.134m-4.716-5.454q0 .558.324.954t.828.594.99.198q.504 0 .99-.198.504-.216.828-.612.342-.396.342-.972 0-.522-.306-.9a1.86 1.86 0 0 0-.81-.594 2.5 2.5 0 0 0-1.044-.216q-.558 0-1.062.216a2 2 0 0 0-.792.612q-.288.378-.288.918m13.817 9.45q-1.35-.036-2.376-.63a5.4 5.4 0 0 1-1.71-1.548 7.7 7.7 0 0 1-1.044-2.088 7.7 7.7 0 0 1-.342-2.214q0-1.152.378-2.304a7 7 0 0 1 1.098-2.088 5.5 5.5 0 0 1 1.728-1.512q1.008-.576 2.268-.576 1.35 0 2.358.612a5.5 5.5 0 0 1 1.71 1.584q.684.972 1.026 2.106.36 1.134.36 2.178 0 1.17-.378 2.322a7 7 0 0 1-1.098 2.07 5.8 5.8 0 0 1-1.728 1.512q-.99.558-2.25.576m-3.42-6.48q.036.828.234 1.656.216.81.648 1.494t1.062 1.098 1.476.414q.882 0 1.512-.432.648-.45 1.062-1.152.414-.72.612-1.53.216-.81.216-1.548 0-.828-.234-1.638a5.3 5.3 0 0 0-.648-1.512 3.6 3.6 0 0 0-1.062-1.098q-.63-.414-1.458-.414-.882 0-1.53.45a3.4 3.4 0 0 0-1.062 1.152 6 6 0 0 0-.63 1.512 6.5 6.5 0 0 0-.198 1.548m-223.372 6.48q-1.386 0-2.484-.612a4.4 4.4 0 0 1-1.674-1.71l1.188-1.134q.504.774 1.296 1.242.792.45 1.692.45.738 0 1.314-.306.576-.324.9-.882.342-.558.342-1.296 0-.72-.324-1.26a2.14 2.14 0 0 0-.864-.864 2.44 2.44 0 0 0-1.224-.306 2.86 2.86 0 0 0-1.296.306 2.45 2.45 0 0 0-.954.864h-1.764l1.458-7.452h6.246v1.818h-4.806l-.648 3.474q.324-.324.828-.522a3.3 3.3 0 0 1 1.188-.198q1.206 0 2.142.522a3.83 3.83 0 0 1 1.494 1.44q.558.918.558 2.124 0 1.278-.612 2.25a4.4 4.4 0 0 1-1.656 1.512q-1.026.54-2.34.54m11.583 0q-1.35-.036-2.376-.63a5.4 5.4 0 0 1-1.71-1.548 7.7 7.7 0 0 1-1.044-2.088 7.7 7.7 0 0 1-.342-2.214q0-1.152.378-2.304a7 7 0 0 1 1.098-2.088 5.5 5.5 0 0 1 1.728-1.512q1.008-.576 2.268-.576 1.35 0 2.358.612a5.5 5.5 0 0 1 1.71 1.584q.684.972 1.026 2.106.36 1.134.36 2.178 0 1.17-.378 2.322a7 7 0 0 1-1.098 2.07 5.8 5.8 0 0 1-1.728 1.512q-.99.558-2.25.576m-3.42-6.48q.036.828.234 1.656.216.81.648 1.494t1.062 1.098 1.476.414q.882 0 1.512-.432.648-.45 1.062-1.152.414-.72.612-1.53.216-.81.216-1.548 0-.828-.234-1.638a5.3 5.3 0 0 0-.648-1.512 3.6 3.6 0 0 0-1.062-1.098q-.63-.414-1.458-.414-.882 0-1.53.45a3.4 3.4 0 0 0-1.062 1.152 6 6 0 0 0-.63 1.512 6.5 6.5 0 0 0-.198 1.548m10.769 2.268v-1.782h5.382v1.782zm12.86-6.93h-6.192v-1.818h9.324L333.34 327h-2.232zm3.831 2.52q0-1.242.612-2.25t1.656-1.584a4.75 4.75 0 0 1 2.358-.594q1.422 0 2.448.684 1.044.666 1.62 1.926.594 1.26.594 3.042 0 2.448-.612 4.086-.594 1.638-1.692 2.484-1.08.828-2.556.828a4.6 4.6 0 0 1-2.25-.558 4.5 4.5 0 0 1-1.656-1.602l1.17-1.224q.414.738 1.152 1.188t1.602.45q.9 0 1.566-.504t1.044-1.476q.378-.99.378-2.358a2.9 2.9 0 0 1-.702.918q-.45.396-1.044.612a3.6 3.6 0 0 1-1.26.216 4.5 4.5 0 0 1-2.25-.576 4.4 4.4 0 0 1-1.602-1.548 4.16 4.16 0 0 1-.576-2.16m4.608-2.754q-.738 0-1.35.378-.612.36-.99.99-.36.63-.36 1.368t.36 1.35q.378.612.99.99.63.36 1.368.36t1.35-.36q.63-.378.99-.99.378-.612.378-1.332 0-.756-.378-1.368a2.9 2.9 0 0 0-1.008-1.008 2.5 2.5 0 0 0-1.35-.378m-209.069 11.34a5.9 5.9 0 0 1-1.944-.306 4 4 0 0 1-1.458-.882 3.45 3.45 0 0 1-.864-1.332l1.08-1.296q.126.468.522.936.414.468 1.062.756.666.288 1.548.288.774 0 1.368-.234.612-.252.972-.702t.36-1.062q0-.684-.432-1.152t-1.242-.702-1.944-.234h-.612v-1.584h.612q1.494 0 2.376-.486.9-.486.9-1.44 0-.594-.324-1.026a1.93 1.93 0 0 0-.846-.666 2.8 2.8 0 0 0-1.152-.234q-1.026 0-1.782.468t-1.098 1.152l-1.296-1.422q.378-.594 1.044-1.026t1.494-.666a6.4 6.4 0 0 1 1.71-.234q1.26 0 2.25.45t1.548 1.242a2.94 2.94 0 0 1 .558 1.764q0 .72-.306 1.296a2.6 2.6 0 0 1-.846.972q-.54.378-1.296.558.81.144 1.422.612.63.468.954 1.152.342.684.342 1.494 0 1.116-.648 1.908-.63.792-1.692 1.224-1.062.414-2.34.414m11.807.036q-1.35-.036-2.376-.63a5.4 5.4 0 0 1-1.71-1.548 7.7 7.7 0 0 1-1.044-2.088 7.7 7.7 0 0 1-.342-2.214q0-1.152.378-2.304a7 7 0 0 1 1.098-2.088 5.5 5.5 0 0 1 1.728-1.512q1.008-.576 2.268-.576 1.35 0 2.358.612a5.5 5.5 0 0 1 1.71 1.584q.684.972 1.026 2.106.36 1.134.36 2.178 0 1.17-.378 2.322a7 7 0 0 1-1.098 2.07 5.8 5.8 0 0 1-1.728 1.512q-.99.558-2.25.576m-3.42-6.48q.036.828.234 1.656.216.81.648 1.494t1.062 1.098 1.476.414q.882 0 1.512-.432.648-.45 1.062-1.152.414-.72.612-1.53.216-.81.216-1.548 0-.828-.234-1.638a5.3 5.3 0 0 0-.648-1.512 3.6 3.6 0 0 0-1.062-1.098q-.63-.414-1.458-.414-.882 0-1.53.45a3.4 3.4 0 0 0-1.062 1.152 6 6 0 0 0-.63 1.512 6.5 6.5 0 0 0-.198 1.548m10.77 2.268v-1.782h5.382v1.782zm12.67 4.032v-3.096h-5.706v-1.764l6.318-7.92h1.368v7.902h1.584v1.782h-1.584V327zm-3.69-4.878h3.906v-4.896zm8.713-3.564q0-1.242.612-2.25t1.656-1.584a4.75 4.75 0 0 1 2.358-.594q1.422 0 2.448.684 1.044.666 1.62 1.926.594 1.26.594 3.042 0 2.448-.612 4.086-.594 1.638-1.692 2.484-1.08.828-2.556.828a4.6 4.6 0 0 1-2.25-.558 4.5 4.5 0 0 1-1.656-1.602l1.17-1.224q.414.738 1.152 1.188t1.602.45q.9 0 1.566-.504t1.044-1.476q.378-.99.378-2.358a2.9 2.9 0 0 1-.702.918q-.45.396-1.044.612a3.6 3.6 0 0 1-1.26.216 4.5 4.5 0 0 1-2.25-.576 4.4 4.4 0 0 1-1.602-1.548 4.16 4.16 0 0 1-.576-2.16m4.608-2.754q-.738 0-1.35.378-.612.36-.99.99-.36.63-.36 1.368t.36 1.35q.378.612.99.99.63.36 1.368.36t1.35-.36q.63-.378.99-.99.378-.612.378-1.332 0-.756-.378-1.368a2.9 2.9 0 0 0-1.008-1.008 2.5 2.5 0 0 0-1.35-.378"/><path fill="#fff" d="M9.738 327v-10.998H5.472l-.072 2.376q-.108 2.574-.414 4.266-.306 1.674-.882 2.646-.576.954-1.44 1.368-.864.396-2.07.396v-1.764a2.2 2.2 0 0 0 1.17-.306q.504-.324.846-1.134.36-.81.558-2.268.216-1.476.288-3.762l.126-3.6h8.19V327zm8.935.18q-1.098 0-1.998-.378a4.9 4.9 0 0 1-1.53-1.062 5.1 5.1 0 0 1-1.008-1.548 5.1 5.1 0 0 1-.342-1.872q0-1.332.612-2.43a4.7 4.7 0 0 1 1.71-1.782q1.098-.684 2.574-.684t2.538.684a4.63 4.63 0 0 1 1.674 1.764 4.9 4.9 0 0 1 .576 2.772q-.018.18-.036.306H15.9q.054.828.45 1.458a3.1 3.1 0 0 0 1.044.972q.63.342 1.35.342.792 0 1.494-.396.72-.396.972-1.044l1.692.486q-.306.684-.936 1.242-.612.54-1.458.864a5.4 5.4 0 0 1-1.836.306m-2.826-5.544h5.688a2.8 2.8 0 0 0-.468-1.422 2.75 2.75 0 0 0-1.026-.972 2.65 2.65 0 0 0-1.368-.36q-.738 0-1.368.36a2.8 2.8 0 0 0-1.008.972 2.9 2.9 0 0 0-.45 1.422M27.344 327v-7.668H24.23v-1.746h8.226v1.746h-3.132V327z" opacity="0.4"/><path stroke="#fff" d="M0 61.5h16m-16 24h16m-16 24h16m-16 24h16m-16 24h16m-16 24h16m-16 24h16m-16 24h16m-16 24h16m-16 24h632" opacity="0.4"/><path fill="#fff" d="M138.714 74.968q0-.209.156-.702.182-.52.572-1.066.39-.571 1.014-.988.624-.416 1.56-.416.884 0 1.586.364.728.338 1.404.702.702.364 1.43.364.702 0 1.092-.312t.546-.624q.156-.337.156-.39h1.638q0 .105-.182.572-.156.468-.572 1.066-.39.572-1.066 1.014-.65.416-1.638.416a3.7 3.7 0 0 1-1.638-.364 52 52 0 0 1-1.404-.702 2.8 2.8 0 0 0-1.378-.364q-.65 0-1.014.338a2.1 2.1 0 0 0-.52.702q-.13.364-.13.39zM157.801 81q0-1.343.198-2.354a7 7 0 0 1 .616-1.826 5.4 5.4 0 0 1 1.056-1.43q.638-.616 1.474-1.122.814-.484 1.672-.902a17 17 0 0 0 1.628-.88q.749-.462 1.188-1.078.462-.638.462-1.54 0-.727-.308-1.276a2 2 0 0 0-.88-.858q-.572-.33-1.474-.33-.924 0-1.716.33a5.6 5.6 0 0 0-1.364.77 6 6 0 0 0-.924.902l-1.54-1.606q.22-.263.704-.704a9 9 0 0 1 1.232-.88 7.7 7.7 0 0 1 1.716-.726q.968-.308 2.178-.308 1.672 0 2.794.616 1.145.594 1.716 1.65.594 1.035.594 2.332 0 1.056-.374 1.848a4.5 4.5 0 0 1-.99 1.342 7.7 7.7 0 0 1-1.342.99q-.726.44-1.452.836-1.254.638-2.024 1.144-.749.506-1.188.968a3 3 0 0 0-.594.924 4.3 4.3 0 0 0-.242.99h8.228V81zm18.296.176q-1.298 0-2.376-.374-1.056-.375-1.782-1.078a4.2 4.2 0 0 1-1.056-1.628l1.32-1.584q.154.572.638 1.144.506.572 1.298.924.814.352 1.892.352.946 0 1.672-.286.749-.307 1.188-.858.44-.55.44-1.298 0-.836-.528-1.408t-1.518-.858-2.376-.286h-.748v-1.936h.748q1.826 0 2.904-.594 1.1-.594 1.1-1.76 0-.726-.396-1.254a2.36 2.36 0 0 0-1.034-.814 3.4 3.4 0 0 0-1.408-.286q-1.254 0-2.178.572-.924.571-1.342 1.408l-1.584-1.738a4.2 4.2 0 0 1 1.276-1.254 6.7 6.7 0 0 1 1.826-.814 7.8 7.8 0 0 1 2.09-.286q1.54 0 2.75.55t1.892 1.518q.682.946.682 2.156 0 .88-.374 1.584-.352.704-1.034 1.188-.66.462-1.584.682.99.176 1.738.748.77.571 1.166 1.408.418.836.418 1.826 0 1.365-.792 2.332-.77.968-2.068 1.496-1.298.506-2.86.506"/><path fill="#38BCE2" d="M136 106a8 8 0 0 1 8-8h32a8 8 0 0 1 8 8v172h-48z" opacity="0.8"/><path fill="#fff" d="M308.594 136.968q0-.208.156-.702.182-.52.572-1.066.39-.572 1.014-.988t1.56-.416q.884 0 1.586.364.728.338 1.404.702.702.364 1.43.364.702 0 1.092-.312t.546-.624q.156-.338.156-.39h1.638q0 .104-.182.572-.156.468-.572 1.066-.39.572-1.066 1.014-.651.416-1.638.416-.885 0-1.638-.364a54 54 0 0 1-1.404-.702 2.8 2.8 0 0 0-1.378-.364q-.651 0-1.014.338a2.1 2.1 0 0 0-.52.702q-.13.364-.13.39zm27.865 3.854V143h-8.294v-2.178h3.014V129.69q-.176.264-.594.594a10 10 0 0 1-.902.616 7 7 0 0 1-1.056.484 2.8 2.8 0 0 1-.968.198v-2.244q.594 0 1.188-.308.616-.308 1.144-.704.528-.418.836-.748l.352-.352h2.486v13.596zm8.774-11.22h-7.568v-2.222h11.396L341.229 143h-2.728z"/><path fill="#38BCE2" d="M304 168a8 8 0 0 1 8-8h32a8 8 0 0 1 8 8v110h-48z" opacity="0.6"/><path fill="#fff" d="M475.928 146.968q0-.208.156-.702.182-.52.572-1.066.39-.572 1.014-.988t1.56-.416q.884 0 1.586.364.727.338 1.404.702.702.364 1.43.364.702 0 1.092-.312t.546-.624q.156-.338.156-.39h1.638q0 .104-.182.572-.156.468-.572 1.066-.39.572-1.066 1.014-.651.416-1.638.416-.885 0-1.638-.364a54 54 0 0 1-1.404-.702 2.8 2.8 0 0 0-1.378-.364q-.651 0-1.014.338a2.1 2.1 0 0 0-.52.702q-.13.364-.13.39zm28.853 3.854V153h-8.294v-2.178h3.014V139.69q-.175.264-.594.594a10 10 0 0 1-.902.616 7 7 0 0 1-1.056.484 2.8 2.8 0 0 1-.968.198v-2.244q.594 0 1.188-.308.616-.308 1.144-.704.528-.418.836-.748l.352-.352h2.486v13.596zm6.377 2.398q-1.695 0-3.036-.748a5.4 5.4 0 0 1-2.046-2.09l1.452-1.386q.615.946 1.584 1.518.967.55 2.068.55.901 0 1.606-.374a2.9 2.9 0 0 0 1.1-1.078q.418-.683.418-1.584 0-.88-.396-1.54a2.6 2.6 0 0 0-1.056-1.056 3 3 0 0 0-1.496-.374q-.837 0-1.584.374a3 3 0 0 0-1.166 1.056h-2.156l1.782-9.108h7.634v2.222h-5.874l-.792 4.246a2.9 2.9 0 0 1 1.012-.638 4.1 4.1 0 0 1 1.452-.242q1.473 0 2.618.638a4.7 4.7 0 0 1 1.826 1.76q.681 1.122.682 2.596 0 1.562-.748 2.75a5.37 5.37 0 0 1-2.024 1.848q-1.255.66-2.86.66"/><path fill="#38BCE2" d="M472 178a8 8 0 0 1 8-8h32a8 8 0 0 1 8 8v100h-48z" opacity="0.4"/><path fill="#fff" d="M11.934 8.22V21H9.9v-5.634H3.456V21H1.44V8.22h2.016v5.346H9.9V8.22zM14.565 21v-9.414h2.052l3.24 5.814 3.258-5.814h2.016V21h-1.89v-6.624l-2.772 4.95h-1.242l-2.79-4.95V21zm17.168.18q-1.117 0-1.998-.378a4.8 4.8 0 0 1-1.53-1.08 5 5 0 0 1-.972-1.548 5.1 5.1 0 0 1-.343-1.872q0-.99.343-1.872a4.7 4.7 0 0 1 .971-1.548q.649-.684 1.53-1.062.9-.396 1.999-.396 1.097 0 1.98.396.9.378 1.53 1.062.646.666.99 1.548.342.882.342 1.872t-.343 1.872a4.8 4.8 0 0 1-.99 1.548q-.63.684-1.53 1.08-.882.378-1.98.378m-2.809-4.86q0 .9.378 1.62.379.72 1.009 1.134t1.422.414q.773 0 1.403-.414a3.1 3.1 0 0 0 1.026-1.152 3.5 3.5 0 0 0 .379-1.62q0-.9-.378-1.62a2.93 2.93 0 0 0-1.026-1.134 2.43 2.43 0 0 0-1.404-.432q-.794 0-1.422.432-.63.432-1.009 1.152-.378.702-.378 1.62m8.65 4.77v-1.764q.45 0 .81-.216.36-.234.63-.756.27-.54.433-1.494t.216-2.43l.126-2.844h6.714V21h-1.98v-7.668h-2.988l-.036 1.278q-.072 1.89-.342 3.15-.27 1.242-.756 1.98-.468.72-1.188 1.044-.702.306-1.638.306M48.879 21v-9.414h1.98v3.096h2.25q1.674 0 2.538.846.881.846.882 2.232 0 .936-.378 1.674a2.7 2.7 0 0 1-1.117 1.152q-.72.414-1.8.414zm1.98-1.53h2.07q.594 0 .954-.216.36-.234.54-.612.18-.396.18-.846t-.162-.81a1.23 1.23 0 0 0-.54-.594q-.36-.234-.99-.234h-2.052zM68.4 8.22 59.635 21H57.44l8.766-12.78zm.937 12.87v-1.764q.45 0 .81-.216.36-.234.63-.756.27-.54.432-1.494t.216-2.43l.126-2.844h6.714V21h-1.98v-7.668h-2.988l-.036 1.278q-.072 1.89-.342 3.15-.27 1.242-.756 1.98-.468.72-1.188 1.044-.702.306-1.638.306" opacity="0.4"/></svg>