<svg xmlns="http://www.w3.org/2000/svg" width="397" height="531" fill="none" viewBox="0 0 397 531"><g filter="url(#a)"><path fill="#38BCE2" d="M89.602 404.389c-4.125 1.583-8.767-.474-10.21-4.65a236.174 236.174 0 0 1 369.47-262.568c3.469 2.736 3.886 7.796 1.034 11.17l-50.649 59.935c-2.852 3.374-7.887 3.778-11.417 1.121a141.71 141.71 0 0 0-167.297-2.285 141.7 141.7 0 0 0-52.86 158.743c1.348 4.208-.689 8.83-4.814 10.413z"/></g><g filter="url(#b)"><path fill="#9BBB5A" d="M463.962 161.276c3.125-3.124 8.201-3.133 11.217.095a236.175 236.175 0 0 1-16.375 338.404 236.17 236.17 0 0 1-178.41 57.969 236.17 236.17 0 0 1-159.378-84.135c-2.825-3.398-2.18-8.433 1.312-11.141l62.002-48.094c3.491-2.708 8.5-2.057 11.401 1.276a141.71 141.71 0 0 0 150.678 41.738 141.7 141.7 0 0 0 97.845-130.318 141.7 141.7 0 0 0-35.94-98.837c-2.943-3.296-2.962-8.346.162-11.471z"/></g><g filter="url(#c)"><path fill="#FF5441" d="M111.257 446.891c-3.705 2.406-8.672 1.36-10.952-2.425a236 236 0 0 1-6.713-11.915c-2.057-3.91-.379-8.701 3.599-10.624l70.647-34.152c3.978-1.923 8.742-.245 10.886 3.619q.439.79.887 1.574c2.194 3.835 1.162 8.779-2.544 11.186z"/></g><defs><filter id="a" width="465.334" height="398.477" x="30.4473" y="54.4458" color-interpolation-filters="sRGB" filterUnits="userSpaceOnUse"><feFlood flood-opacity="0" result="BackgroundImageFix"/><feColorMatrix in="SourceAlpha" result="hardAlpha" values="0 0 0 0 0 0 0 0 0 0 0 0 0 0 0 0 0 0 127 0"/><feOffset dx="4" dy="8"/><feGaussianBlur stdDeviation="20"/><feComposite in2="hardAlpha" operator="out"/><feColorMatrix values="0 0 0 0 0.219608 0 0 0 0 0.737255 0 0 0 0 0.886275 0 0 0 0.4 0"/><feBlend in2="BackgroundImageFix" result="effect1_dropShadow_3794_2446"/><feColorMatrix in="SourceAlpha" result="hardAlpha" values="0 0 0 0 0 0 0 0 0 0 0 0 0 0 0 0 0 0 127 0"/><feOffset dx="2" dy="4"/><feGaussianBlur stdDeviation="4"/><feComposite in2="hardAlpha" operator="out"/><feColorMatrix values="0 0 0 0 0.219608 0 0 0 0 0.737255 0 0 0 0 0.886275 0 0 0 0.2 0"/><feBlend in2="effect1_dropShadow_3794_2446" result="effect2_dropShadow_3794_2446"/><feBlend in="SourceGraphic" in2="effect2_dropShadow_3794_2446" result="shape"/></filter><filter id="b" width="499.547" height="479.851" x="83.2461" y="126.941" color-interpolation-filters="sRGB" filterUnits="userSpaceOnUse"><feFlood flood-opacity="0" result="BackgroundImageFix"/><feColorMatrix in="SourceAlpha" result="hardAlpha" values="0 0 0 0 0 0 0 0 0 0 0 0 0 0 0 0 0 0 127 0"/><feOffset dx="4" dy="8"/><feGaussianBlur stdDeviation="20"/><feComposite in2="hardAlpha" operator="out"/><feColorMatrix values="0 0 0 0 0.607843 0 0 0 0 0.733333 0 0 0 0 0.352941 0 0 0 0.4 0"/><feBlend in2="BackgroundImageFix" result="effect1_dropShadow_3794_2446"/><feColorMatrix in="SourceAlpha" result="hardAlpha" values="0 0 0 0 0 0 0 0 0 0 0 0 0 0 0 0 0 0 127 0"/><feOffset dx="2" dy="4"/><feGaussianBlur stdDeviation="4"/><feComposite in2="hardAlpha" operator="out"/><feColorMatrix values="0 0 0 0 0.607843 0 0 0 0 0.733333 0 0 0 0 0.352941 0 0 0 0.2 0"/><feBlend in2="effect1_dropShadow_3794_2446" result="effect2_dropShadow_3794_2446"/><feBlend in="SourceGraphic" in2="effect2_dropShadow_3794_2446" result="shape"/></filter><filter id="c" width="168.043" height="141.206" x="56.709" y="354.976" color-interpolation-filters="sRGB" filterUnits="userSpaceOnUse"><feFlood flood-opacity="0" result="BackgroundImageFix"/><feColorMatrix in="SourceAlpha" result="hardAlpha" values="0 0 0 0 0 0 0 0 0 0 0 0 0 0 0 0 0 0 127 0"/><feOffset dx="4" dy="8"/><feGaussianBlur stdDeviation="20"/><feComposite in2="hardAlpha" operator="out"/><feColorMatrix values="0 0 0 0 1 0 0 0 0 0.329412 0 0 0 0 0.254902 0 0 0 0.4 0"/><feBlend in2="BackgroundImageFix" result="effect1_dropShadow_3794_2446"/><feColorMatrix in="SourceAlpha" result="hardAlpha" values="0 0 0 0 0 0 0 0 0 0 0 0 0 0 0 0 0 0 127 0"/><feOffset dx="2" dy="4"/><feGaussianBlur stdDeviation="4"/><feComposite in2="hardAlpha" operator="out"/><feColorMatrix values="0 0 0 0 1 0 0 0 0 0.329412 0 0 0 0 0.254902 0 0 0 0.2 0"/><feBlend in2="effect1_dropShadow_3794_2446" result="effect2_dropShadow_3794_2446"/><feBlend in="SourceGraphic" in2="effect2_dropShadow_3794_2446" result="shape"/></filter></defs></svg>