<svg xmlns="http://www.w3.org/2000/svg" width="25" height="25" fill="none" viewBox="0 0 25 25"><path fill="#fff" d="M7.648 12.084c.087 2.752 2.26 5.212 5.015 5.212 2.804 0 4.917-2.416 5.013-5.217a46 46 0 0 0 .028-1.598c0-2.182-.146-4.404-.384-6.375-1.498-.334-3.038-.44-4.657-.44s-3.19.093-4.657.44a51.5 51.5 0 0 0-.358 7.978"/><path fill="#fff" d="M18.199 12.666v.858a1 1 0 0 0 .173-.018zM7.12 12.664l-.176.838a1 1 0 0 0 .176.019zm6.396 4.643a.857.857 0 0 0-1.714 0zm-1.714 4.36a.857.857 0 0 0 1.714 0zm-2.61-.858a.857.857 0 1 0 0 1.715zm6.928 1.715a.857.857 0 0 0 0-1.715zm1.2-18.418.851-.103-.073-.601-.591-.132zm-9.314 0-.197-.834-.578.137-.075.588zM20.81 7.654c0 1.17-.382 2.266-1.024 3.051l1.326 1.086c.918-1.121 1.412-2.611 1.412-4.137zm-1.024 3.051c-.505.617-1.126.992-1.76 1.122l.346 1.679c1.06-.218 2.014-.827 2.74-1.715zm-1.587 1.104-11.078-.003v1.715l11.078.003zm-10.903.016c-.63-.133-1.247-.507-1.748-1.12L4.22 11.791c.722.883 1.67 1.49 2.723 1.711zm-1.748-1.12c-.642-.785-1.024-1.88-1.024-3.051H2.81c0 1.526.494 3.016 1.41 4.137zM4.524 7.654V5.498H2.81v2.156zm0-2.156a.26.26 0 0 1-.184.247l-.489-1.643A1.46 1.46 0 0 0 2.81 5.498zm-.184.247a29.2 29.2 0 0 1 16.653 0l.489-1.643a30.9 30.9 0 0 0-17.63 0zm16.653 0a.26.26 0 0 1-.183-.247h1.714c0-.645-.424-1.213-1.042-1.396zm-.183-.247v2.156h1.714V5.498zm-9.008 11.809v4.36h1.714v-4.36zm-2.61 5.217h6.928v-1.715H9.191zM6.79 12.11c.1 3.136 2.579 6.043 5.872 6.043v-1.715c-2.218 0-4.083-2.014-4.159-4.382zm5.872 6.043c3.346 0 5.76-2.868 5.87-6.045l-1.713-.06c-.084 2.424-1.894 4.39-4.157 4.39zm5.87-6.045q.027-.806.028-1.628h-1.714q0 .791-.027 1.569zm.028-1.628c0-2.217-.148-4.474-.39-6.478l-1.702.206a53 53 0 0 1 .378 6.272zm-1.053-7.21c-1.581-.353-3.19-.46-4.844-.46v1.714c1.584 0 3.056.103 4.47.419zm-4.844-.46c-1.645 0-3.293.093-4.854.462l.395 1.668c1.372-.324 2.866-.416 4.46-.416zM7.156 3.996a52 52 0 0 0-.39 6.484h1.713c0-2.15.131-4.343.378-6.266zm-.39 6.484q0 .825.025 1.63l1.713-.054a50 50 0 0 1-.025-1.576z"/></svg>