<svg xmlns="http://www.w3.org/2000/svg" width="24" height="25" fill="none" viewBox="0 0 24 25"><g clip-path="url(#a)"><mask id="b" width="24" height="25" x="0" y="0" maskUnits="userSpaceOnUse" style="mask-type:luminance"><path fill="#fff" d="M24 .666H0v24h24z"/></mask><g fill="#fff" mask="url(#b)"><path d="M1.96 8.356c1.177.785 2.728 1.217 4.368 1.217s3.191-.432 4.368-1.217c1.264-.843 1.96-1.992 1.96-3.236s-.696-2.394-1.96-3.237C9.519 1.098 7.968.666 6.328.666s-3.19.432-4.367 1.217C.696 2.726 0 3.875 0 5.12c0 1.244.696 2.393 1.96 3.236m1.17-3.802a.703.703 0 0 1 .984.147c.086.106.826.653 2.214.653 1.389 0 2.128-.547 2.216-.655a.7.7 0 0 1 .983-.146c.312.23.377.672.146.984C9.31 6.03 8.12 6.76 6.328 6.76c-1.79 0-2.981-.731-3.345-1.222a.703.703 0 0 1 .148-.984m5.504 11.478c-1.16-1.16-2.561-1.95-3.948-2.228-1.49-.298-2.795.022-3.675.902s-1.2 2.185-.902 3.675c.277 1.387 1.068 2.79 2.228 3.949 1.16 1.16 2.561 1.95 3.948 2.228 1.49.298 2.795-.023 3.675-.902.88-.88 1.2-2.185.902-3.676-.277-1.386-1.068-2.788-2.228-3.948m-1.079 5.81c-.604.09-1.963-.234-3.23-1.501s-1.59-2.625-1.5-3.23a.703.703 0 0 1 1.39.209c-.013.135.123 1.045 1.105 2.027s1.892 1.117 2.03 1.104a.7.7 0 0 1 .798.59.705.705 0 0 1-.593.8" opacity="0.4"/><path d="M22.788 6.565c-1.057-1.057-2.632-1.44-4.435-1.08-1.7.34-3.42 1.312-4.846 2.737-1.425 1.425-2.397 3.146-2.737 4.846-.36 1.803.023 3.378 1.08 4.435s2.632 1.44 4.435 1.08c1.7-.34 3.42-1.313 4.846-2.738C22.556 14.42 23.528 12.7 23.868 11c.36-1.803-.023-3.378-1.08-4.434m-1.767 4.247c-.206.738-.7 1.865-1.879 3.045s-2.306 1.673-3.044 1.88c-.997.278-1.841.195-2.26-.223a.703.703 0 0 1 .94-1.045c.107.03.496.068 1.132-.146.534-.18 1.355-.578 2.238-1.46.882-.883 1.28-1.704 1.46-2.238.214-.636.176-1.025.147-1.133a.703.703 0 0 1 1.044-.939c.418.418.501 1.263.223 2.26"/></g></g><defs><clipPath id="a"><path fill="#fff" d="M0 .666h24v24H0z"/></clipPath></defs></svg>