<svg xmlns="http://www.w3.org/2000/svg" width="24" height="25" fill="none" viewBox="0 0 24 25"><path fill="#fff" d="M19.348 8.074a.156.156 0 0 0 0-.27L13.38 4.338a2.5 2.5 0 0 0-2.513 0L4.903 7.804a.157.157 0 0 0 0 .27l7.144 4.202a.16.16 0 0 0 .159 0zM4.234 9.137A.156.156 0 0 0 4 9.273v6.793a1.88 1.88 0 0 0 .931 1.616l6.335 3.799a.156.156 0 0 0 .234-.136v-7.88a.16.16 0 0 0-.078-.136zm8.516 4.355v7.851a.156.156 0 0 0 .234.136l6.334-3.799a1.87 1.87 0 0 0 .932-1.614V9.273a.157.157 0 0 0-.156-.156.16.16 0 0 0-.078.021l-7.188 4.219a.16.16 0 0 0-.078.135"/></svg>