<svg width="24" height="25" viewBox="0 0 24 25" fill="none" xmlns="http://www.w3.org/2000/svg">
<path d="M21 5.66638C21.5523 5.66638 22 6.1141 22 6.66638C22 7.21867 21.5523 7.66638 21 7.66638H3C2.44772 7.66638 2 7.21867 2 6.66638C2 6.1141 2.44772 5.66638 3 5.66638H21Z" fill="white"/>
<path d="M21 11.6664C21.5523 11.6664 22 12.1141 22 12.6664C22 13.2187 21.5523 13.6664 21 13.6664H3C2.44772 13.6664 2 13.2187 2 12.6664C2 12.1141 2.44772 11.6664 3 11.6664H21Z" fill="white"/>
<path d="M21 17.6664C21.5523 17.6664 22 18.1141 22 18.6664C22 19.2187 21.5523 19.6664 21 19.6664H3C2.44772 19.6664 2 19.2187 2 18.6664C2 18.1141 2.44772 17.6664 3 17.6664H21Z" fill="white"/>
</svg>
