<svg xmlns="http://www.w3.org/2000/svg" width="25" height="25" fill="none" viewBox="0 0 25 25"><path fill="#fff" d="M17 4.986c1.105 0 2 .86 2 1.92v11.52c0 1.06-.895 1.92-2 1.92H8.333c-1.104 0-2-.86-2-1.92V6.906c0-1.06.896-1.92 2-1.92zm-7.667 12.16c-.552 0-1 .43-1 .96s.448.96 1 .96c.553 0 1-.43 1-.96s-.447-.96-1-.96m3.334 0c-.553 0-1 .43-1 .96s.447.96 1 .96 1-.43 1-.96-.448-.96-1-.96m3.333 0c-.552 0-1 .43-1 .96s.448.96 1 .96 1-.43 1-.96-.448-.96-1-.96m-6.667-3.2c-.552 0-1 .43-1 .96s.448.96 1 .96c.553 0 1-.43 1-.96s-.447-.96-1-.96m3.334 0c-.553 0-1 .43-1 .96s.447.96 1 .96 1-.43 1-.96-.448-.96-1-.96m3.333 0c-.552 0-1 .43-1 .96s.448.96 1 .96 1-.43 1-.96-.448-.96-1-.96m-7-7.68c-.736 0-1.333.573-1.333 1.28v3.84c0 .707.597 1.28 1.333 1.28h7.333c.737 0 1.334-.573 1.334-1.28v-3.84c0-.707-.597-1.28-1.334-1.28z"/></svg>