<svg xmlns="http://www.w3.org/2000/svg" width="25" height="25" fill="none" viewBox="0 0 25 25"><g clip-path="url(#a)"><mask id="b" width="25" height="25" x="0" y="0" maskUnits="userSpaceOnUse" style="mask-type:luminance"><path fill="#fff" d="M24.667.666h-24v24h24z"/></mask><g fill="#fff" mask="url(#b)"><path d="M7.042 12.01a6.335 6.335 0 0 0-6.328 6.328 6.335 6.335 0 0 0 6.328 6.328 6.335 6.335 0 0 0 6.328-6.328 6.335 6.335 0 0 0-6.328-6.328m2.794 5.56-3.282 3.28a.7.7 0 0 1-.994 0l-1.406-1.406a.703.703 0 1 1 .994-.994l.91.909 2.783-2.784a.703.703 0 1 1 .995.994"/><path d="M19.23 6.76a.703.703 0 0 1-.704-.703V.667H8.448c-1.163 0-2.11.946-2.11 2.109v7.86q.348-.031.704-.032a7.72 7.72 0 0 1 5.962 2.812h7.631a.703.703 0 0 1 0 1.407H13.93c.45.876.725 1.831.814 2.812h5.891a.703.703 0 0 1 0 1.406h-5.891a7.74 7.74 0 0 1-3.26 5.625H22.51c1.163 0 2.11-.946 2.11-2.109V6.76zm1.405 3.844H10.323a.703.703 0 0 1 0-1.406h10.312a.703.703 0 0 1 0 1.406"/><path d="M19.932 1.078v4.276h4.276z"/></g></g><defs><clipPath id="a"><path fill="#fff" d="M.667.666h24v24h-24z"/></clipPath></defs></svg>