<svg xmlns="http://www.w3.org/2000/svg" width="24" height="25" fill="none" viewBox="0 0 24 25"><path fill="#fff" d="M2 19.666v-4a1 1 0 1 1 2 0v4a1 1 0 0 0 .293.707l.073.067a1 1 0 0 0 .634.226h14a1 1 0 0 0 1-1v-4a1 1 0 1 1 2 0v4a3 3 0 0 1-3 3H5a3 3 0 0 1-1.901-.68l-.22-.198A3 3 0 0 1 2 19.666"/><path fill="#fff" d="M16.37 9.891a1 1 0 0 1 1.405 1.406l-.068.076-5 5a1 1 0 0 1-1.414 0l-5-5-.068-.076A1 1 0 0 1 7.63 9.891l.076.068L12 14.252l4.293-4.293z"/><path fill="#fff" d="M11 15.666v-12a1 1 0 1 1 2 0v12a1 1 0 1 1-2 0"/></svg>