<svg xmlns="http://www.w3.org/2000/svg" width="24" height="25" fill="none" viewBox="0 0 24 25"><path fill="#fff" d="M20.648 14.541c.607 0 1.102.563 1.102 1.17q0 .097-.015.188l-.004.011-.015.079-1.286 5.899-.011.056a1.1 1.1 0 0 1-1.324.817 1 1 0 0 1-.311-.12l-5.378-2.11-.015-.008c-.424-.154-.641-.56-.641-1.035 0-.608.405-1.103 1.016-1.103.094 0 .184.015.274.034v.004a1 1 0 0 1 .251.098l.004.003 2.508.986c-.712-2.265-2.07-3.956-3.337-5.126l-.038.004a6.75 6.75 0 1 1 2.322-5.097 6.7 6.7 0 0 1-.765 3.117l.038.019c1.398 1.192 3.146 3.15 3.918 5.921l.664-3v-.004c.15-.428.563-.803 1.043-.803M9 4.791a4.5 4.5 0 0 0-4.5 4.5c0 2.487 2.014 4.5 4.5 4.5s4.5-2.013 4.5-4.5-2.014-4.5-4.5-4.5"/></svg>