<svg xmlns="http://www.w3.org/2000/svg" width="24" height="25" fill="none" viewBox="0 0 24 25"><path fill="#fff" d="M10.978 4.734a.46.46 0 0 0-.48 0 .326.326 0 0 0-.072.418c1.07 1.896 1.527 4.29.932 6.211-.386 1.244-1.95 1.316-2.6.192a7 7 0 0 1-.358-.716 4.7 4.7 0 0 0-1.785 1.807A4.87 4.87 0 0 0 6 15.139c.127 3.195 2.135 5.527 5.996 5.527s5.864-2.456 5.996-5.527c.156-3.686-2.398-8.218-7.015-10.405"/><path fill="#fff" d="M10.87 3.243c.267.018.527.095.762.221 5.053 2.414 7.97 7.429 7.789 11.735-.078 1.826-.72 3.57-2.018 4.866-1.309 1.306-3.16 2.03-5.406 2.03-2.225 0-4.08-.679-5.4-1.974-1.23-1.209-1.866-2.828-2.002-4.575l-.02-.351-.002-.02a6.3 6.3 0 0 1 .794-3.225 6.15 6.15 0 0 1 2.326-2.352l.136-.068a1.43 1.43 0 0 1 1.883.745q.126.293.284.566l.018.024c.414-1.44.086-3.384-.832-5.012v-.001a1.75 1.75 0 0 1-.204-1.165l.033-.153c.093-.353.296-.673.587-.909l.155-.109.112-.064c.268-.14.567-.214.873-.214zm1.983 4.378c.282 1.392.28 2.84-.13 4.166h-.001c-.373 1.2-1.376 1.916-2.475 1.986a2.9 2.9 0 0 1-2.156-.786 3.44 3.44 0 0 0-.661 2.112c.055 1.306.484 2.31 1.17 2.982.681.67 1.761 1.157 3.397 1.157 1.615 0 2.697-.505 3.388-1.195.702-.7 1.128-1.72 1.181-2.965.1-2.37-1.189-5.33-3.713-7.457"/></svg>