<svg xmlns="http://www.w3.org/2000/svg" width="25" height="25" fill="none" viewBox="0 0 25 25"><path fill="#fff" d="m7.483 23.141.386-.108a.7.7 0 0 0 .485-.86L3.937 6.364a.873.873 0 0 0-1.076-.606l-.05.014a.873.873 0 0 0-.606 1.076l4.417 15.807a.7.7 0 0 0 .86.485m15.555-11.046a16.7 16.7 0 0 1-3.85-2.649.34.34 0 0 1-.097-.35c.571-2.162.995-4.36 1.27-6.579.043-.369-.156-.477-.366-.224-4.117 4.924-11.241-.9-15.482 3.575q.075.143.12.3L7.498 16.43c4.248-4.421 11.347 1.368 15.457-3.545.21-.254.25-.717.083-.79"/></svg>