<svg xmlns="http://www.w3.org/2000/svg" width="25" height="25" fill="none" viewBox="0 0 25 25"><path fill="#fff" d="M12.643 9.66c-2.523 0-4.919 1.91-4.617 4.545q.034.306.084.648c.096.68.66 1.174 1.313 1.174h.748l.545 3.56c.154 1.006.98 1.746 1.948 1.746.97 0 1.795-.74 1.949-1.746l.545-3.56h.757c.649 0 1.211-.488 1.31-1.163q.048-.322.082-.614c.309-2.655-2.122-4.59-4.664-4.59m.021 0c1.486 0 2.69-1.267 2.69-2.83S14.15 4 12.664 4s-2.69 1.267-2.69 2.83 1.204 2.83 2.69 2.83"/><path fill="#fff" d="M12.644 7.946c3.11 0 6.605 2.35 6.397 6.132l-.031.37q-.038.321-.09.666a3.065 3.065 0 0 1-2.276 2.535l-.336 2.197c-.273 1.78-1.765 3.201-3.644 3.201-1.761 0-3.183-1.25-3.578-2.872l-.065-.329-.337-2.2a3.07 3.07 0 0 1-2.22-2.277l-.052-.275a26 26 0 0 1-.09-.694l-.03-.368c-.2-3.758 3.256-6.086 6.352-6.086m0 3.427c-1.794 0-2.987 1.257-2.925 2.515l.01.122.039.303h.403l.156.007c.777.07 1.418.662 1.538 1.447l.545 3.56.019.08c.055.167.183.212.235.212.06 0 .218-.058.254-.291l.545-3.56.031-.154a1.714 1.714 0 0 1 1.664-1.301h.411q.02-.135.034-.262l.011-.123c.064-1.272-1.155-2.554-2.97-2.555"/><path fill="#fff" d="M13.64 6.83c0-.7-.518-1.116-.976-1.116s-.976.417-.976 1.116.518 1.115.976 1.115.976-.416.976-1.115m3.428 0c0 2.426-1.89 4.544-4.404 4.544-2.513 0-4.404-2.117-4.404-4.544s1.89-4.544 4.404-4.544c2.513 0 4.405 2.117 4.405 4.544"/></svg>