<svg xmlns="http://www.w3.org/2000/svg" width="25" height="25" fill="none" viewBox="0 0 25 25"><path fill="#fff" d="M12.308 9.544c-2.703 0-5.27 1.983-4.947 4.72q.037.318.09.673c.103.706.707 1.22 1.407 1.22h.8l.585 3.696c.165 1.045 1.05 1.813 2.088 1.813s1.923-.768 2.088-1.813l.584-3.697h.81a1.42 1.42 0 0 0 1.404-1.207q.05-.335.088-.638c.33-2.757-2.273-4.767-4.997-4.767m.022 0c1.592 0 2.883-1.316 2.883-2.939s-1.29-2.939-2.883-2.939c-1.591 0-2.882 1.316-2.882 2.94 0 1.622 1.29 2.938 2.882 2.938"/><path fill="#fff" d="M12.308 7.83c1.764 0 3.507.645 4.785 1.784 1.221 1.089 2.048 2.67 1.946 4.527l-.032.374q-.04.333-.095.691a3.13 3.13 0 0 1-2.434 2.59l-.366 2.324c-.293 1.854-1.876 3.26-3.782 3.26-1.846 0-3.389-1.319-3.75-3.087l-.03-.173-.369-2.327a3.14 3.14 0 0 1-2.371-2.321l-.056-.287-.095-.72c-.237-2.003.606-3.712 1.9-4.866 1.269-1.132 2.998-1.769 4.749-1.769m0 3.428c-.952 0-1.857.356-2.467.9-.585.52-.864 1.17-.777 1.905l.05.38h.545l.157.006c.774.07 1.412.659 1.536 1.44l.584 3.697.02.083a.41.41 0 0 0 .374.283c.17 0 .357-.13.395-.366l.584-3.697.032-.154c.19-.753.87-1.292 1.661-1.293h.555q.025-.174.046-.336l.012-.137c.04-.684-.244-1.296-.804-1.796-.622-.555-1.543-.915-2.503-.915"/><path fill="#fff" d="M13.498 6.605c0-.708-.554-1.225-1.168-1.225s-1.168.517-1.168 1.225c0 .707.554 1.224 1.168 1.224s1.168-.516 1.168-1.224m3.429 0c0 2.538-2.027 4.653-4.597 4.653S7.734 9.143 7.734 6.605 9.76 1.953 12.33 1.953s4.596 2.114 4.597 4.652"/></svg>