<svg xmlns="http://www.w3.org/2000/svg" width="24" height="25" fill="none" viewBox="0 0 24 25"><path fill="#fff" d="M21 12.666a9 9 0 1 0-18 0 9 9 0 0 0 18 0m2 0c0 6.075-4.925 11-11 11s-11-4.925-11-11 4.925-11 11-11 11 4.925 11 11"/><path fill="#fff" d="M22 11.666a1 1 0 1 1 0 2H2a1 1 0 1 1 0-2z"/><path fill="#fff" d="M12 1.666a1 1 0 0 1 .738.326A16.3 16.3 0 0 1 17 12.646v.04a16.3 16.3 0 0 1-4.262 10.655 1 1 0 0 1-1.476 0 16.3 16.3 0 0 1-4.25-10.284L7 12.687v-.041l.012-.37a16.3 16.3 0 0 1 4.25-10.284l.074-.074A1 1 0 0 1 12 1.666m0 2.555a14.3 14.3 0 0 0-3 8.445 14.3 14.3 0 0 0 3 8.445 14.3 14.3 0 0 0 2.999-8.445A14.3 14.3 0 0 0 12 4.221"/></svg>