<svg xmlns="http://www.w3.org/2000/svg" width="24" height="25" fill="none" viewBox="0 0 24 25"><path fill="#fff" d="M19.44 5.494c-.048.003-4.888.414-7.19-1.728a.36.36 0 0 0-.5 0C9.449 5.908 4.612 5.497 4.56 5.494a.36.36 0 0 0-.277.093.35.35 0 0 0-.12.263v3.337c0 11.15 7.704 12.463 7.78 12.474q.03.005.059.004.027.001.054-.004c.077-.01 7.78-1.325 7.78-12.474V5.85a.36.36 0 0 0-.247-.34.4.4 0 0 0-.15-.016m-3.548 8.085c0 .198-.164.36-.364.36h-2.244v2.218c0 .198-.164.36-.364.36h-1.843a.363.363 0 0 1-.365-.36v-2.218H8.47a.363.363 0 0 1-.365-.36v-1.822c0-.197.164-.36.365-.36h2.243V9.18c0-.198.164-.36.365-.36h1.843c.2 0 .364.162.364.36v2.218h2.244c.2 0 .364.162.364.36z"/></svg>