<svg xmlns="http://www.w3.org/2000/svg" width="24" height="25" fill="none" viewBox="0 0 24 25"><path fill="#fff" d="M14.805 3.666c-1.395 0-2.678.578-3.555 1.553-.878-.975-2.16-1.553-3.555-1.553C5.107 3.666 3 5.684 3 8.166c0 6.353 7.545 10.95 7.867 11.145a.75.75 0 0 0 .383.105.6.6 0 0 0 .195-.03c-.57-.945-.945-2.047-.945-3.307V13.07c0-.885.562-1.672 1.402-1.957l3.93-1.335c.428-.15.908-.15 1.335 0l2.01.682a8.6 8.6 0 0 0 .323-2.295c0-2.482-2.108-4.5-4.695-4.5"/><path fill="#fff" d="m20.618 12.536-3.937-1.34a.55.55 0 0 0-.362 0l-3.937 1.34a.56.56 0 0 0-.382.532v3.014c0 3.678 4.105 5.466 4.28 5.54a.57.57 0 0 0 .44 0c.175-.075 4.28-1.862 4.28-5.54v-3.014a.56.56 0 0 0-.382-.532m-1.653 2.844-2.063 2.625a.75.75 0 0 1-1.078.106l-1.312-1.125a.751.751 0 0 1 .425-1.331.75.75 0 0 1 .55.193l.719.615 1.579-2.009a.75.75 0 1 1 1.18.926"/></svg>