<svg xmlns="http://www.w3.org/2000/svg" width="25" height="25" fill="none" viewBox="0 0 25 25"><path fill="#fff" d="M20.465 7.433a4.66 4.66 0 0 0-2.532-1.623 4.8 4.8 0 0 0-3.031.233c-.855.355-1.617.955-2.235 1.75-.618-.797-1.38-1.397-2.235-1.75A4.8 4.8 0 0 0 7.4 5.81a4.66 4.66 0 0 0-2.532 1.623c-.666.841-1.018 1.892-1.018 3.039 0 1.65 1.022 3.462 3.035 5.384 1.641 1.567 3.58 2.85 4.59 3.474.356.22.77.336 1.192.336a2.27 2.27 0 0 0 1.191-.336c1.009-.625 2.949-1.907 4.59-3.474 2.014-1.922 3.035-3.733 3.035-5.384 0-1.147-.352-2.198-1.018-3.039"/></svg>