<svg xmlns="http://www.w3.org/2000/svg" width="25" height="25" fill="none" viewBox="0 0 25 25"><path fill="#fff" d="M10.052 6.043c.872.353 1.65.953 2.281 1.75l1.933 1.87a.67.67 0 0 1 .135.772L11.667 16c-.445.777-.934 2.6.666 3.666a2.35 2.35 0 0 1-1.216-.336c-1.03-.625-3.01-1.907-4.685-3.474-2.056-1.922-3.099-3.733-3.099-5.384 0-1.147.36-2.198 1.04-3.039A4.77 4.77 0 0 1 6.956 5.81a5 5 0 0 1 3.095.233"/><path fill="#fff" d="M17.71 5.81a4.77 4.77 0 0 1 2.584 1.623c.68.841 1.04 1.892 1.04 3.039 0 1.65-1.043 3.462-3.1 5.384-1.674 1.567-3.655 2.85-4.684 3.474-.364.22-.786.336-1.217.336-1.6-1.066-1.11-2.889-.666-3.666l4.34-5.892a.67.67 0 0 0-.045-.846L13.55 6.63a5.3 5.3 0 0 1 1.065-.587 5 5 0 0 1 3.094-.233" opacity="0.4"/></svg>