<svg xmlns="http://www.w3.org/2000/svg" width="25" height="25" fill="none" viewBox="0 0 25 25"><g clip-path="url(#a)"><mask id="b" width="25" height="25" x="0" y="0" maskUnits="userSpaceOnUse" style="mask-type:luminance"><path fill="#fff" d="M24.667.666h-24v24h24z"/></mask><g mask="url(#b)"><path fill="#fff" fill-rule="evenodd" d="M19.579 3.85a6.13 6.13 0 0 1 3.323 2.087c.874 1.081 1.336 2.432 1.336 3.907 0 2.122-1.34 4.452-3.984 6.923-2.154 2.014-4.7 3.663-6.024 4.467a3.03 3.03 0 0 1-1.564.432c-.555 0-1.097-.15-1.564-.432-1.325-.804-3.87-2.453-6.025-4.467-2.643-2.472-3.983-4.8-3.983-6.923 0-1.475.462-2.826 1.335-3.907a6.13 6.13 0 0 1 3.324-2.088 6.44 6.44 0 0 1 3.98.3c1.121.455 2.121 1.225 2.933 2.25.811-1.022 1.812-1.793 2.933-2.25a6.44 6.44 0 0 1 3.98-.3m-1.25 3.582a.666.666 0 0 0-1.032.114l-2.885 4.507-2.24-1.856a.67.67 0 0 0-.425-.154H7.904a.667.667 0 0 0 0 1.334h3.603l2.635 2.184a.667.667 0 0 0 .987-.154l2.845-4.447 3.175 3.158a.667.667 0 1 0 .94-.945z" clip-rule="evenodd"/></g></g><defs><clipPath id="a"><path fill="#fff" d="M.667.666h24v24h-24z"/></clipPath></defs></svg>