<svg xmlns="http://www.w3.org/2000/svg" width="80" height="30" fill="none" viewBox="0 0 80 30"><g clip-path="url(#a)"><mask id="b" width="80" height="30" x="0" y="0" maskUnits="userSpaceOnUse" style="mask-type:luminance"><path fill="#fff" d="M79.333.666H0v28.725h79.333z"/></mask><g fill="#fff" mask="url(#b)"><path fill-rule="evenodd" d="M0 27.954h8.827V1.145H0zm20.087 0h8.827V1.145h-8.827zM15.9 1.145h-5.668v12.473H15.9c1.838 0 2.784-1.57 2.784-3.006V4.154c0-1.438-.946-3.009-2.784-3.009m0 14.006h-5.668v12.803H15.9c1.838 0 2.784-1.611 2.784-3.086V18.24c0-1.476-.946-3.089-2.784-3.089m19.595-6.007c.934 0 1.593-.038 1.995-.285s.647-.676.647-1.183c0-.585-.274-1.039-.79-1.286-.388-.182-.848-.207-1.35-.207h-1.075v2.961zm.058-4.105c1.507 0 2.182-.312 2.182-1.286 0-1.156-.704-1.377-2.182-1.377h-.631V5.04zm-2.269-3.923h2.584c1.09 0 1.909.04 2.54.467.633.416 1.005 1.131 1.005 1.962 0 .988-.516 1.676-1.478 1.936 1.191.169 1.923 1.04 1.923 2.287 0 .766-.315 1.467-.832 1.935-.732.663-1.708.701-3.143.701h-2.599zm8.271 0h5.727v1.286H43.22v2.325h4.062v1.325H43.22v3.001h4.062v1.351h-5.727zm8.382 6.871c.244.832.933 1.274 1.98 1.274 1.006 0 1.622-.545 1.622-1.377 0-.91-.76-1.13-1.821-1.598-1.824-.805-2.828-1.43-2.828-2.832 0-1.494 1.219-2.547 3.085-2.547 1.521 0 2.57.56 2.957 1.533l-1.306.611c-.402-.572-.875-.844-1.521-.844-.905 0-1.464.467-1.464 1.169 0 .896.804 1.169 1.951 1.65 1.81.753 2.656 1.416 2.656 2.754 0 1.728-1.277 2.871-3.401 2.871-1.752 0-2.9-.754-3.244-2.105zm7.161 2.417h1.665V1.116h-1.665zM61.16.752l6.516 5.677c.417.364.776.74 1.12 1.13V1.116h1.536v9.652l-6.645-5.781a7.7 7.7 0 0 1-.99-1.04v6.457H61.16zm12.271 7.235c.244.832.932 1.274 1.98 1.274 1.005 0 1.622-.545 1.622-1.377 0-.91-.76-1.13-1.822-1.598-1.824-.805-2.828-1.43-2.828-2.832 0-1.494 1.22-2.547 3.087-2.547 1.521 0 2.569.56 2.956 1.533l-1.306.611c-.403-.572-.877-.844-1.52-.844-.906 0-1.466.467-1.466 1.169 0 .896.805 1.169 1.953 1.65 1.809.753 2.654 1.416 2.654 2.754 0 1.728-1.277 2.871-3.4 2.871-1.751 0-2.9-.754-3.245-2.105zm-36.432 7.952v-2.188h.664v5.394h-.664v-2.648h-3.05v2.648h-.665V13.75h.665v2.188zm1.896-2.189h3.09v.559H39.56v1.602h2.354v.558H39.56v2.117h2.427v.559h-3.091zm6.4 1.145-1.02 2.16h2.015zm-1.289 2.718-.719 1.532h-.727l2.75-5.652 2.679 5.652h-.735l-.703-1.532zm5.296.973h1.645v.559h-2.308V13.75h.663zm3.25.559h-.664v-4.836H50.45v-.558h3.556v.558h-1.454zm5.878-3.206v-2.188h.663v5.394h-.664v-2.648h-3.05v2.648h-.664V13.75h.664v2.188zm6.44-1.009a2.68 2.68 0 0 0-1.819-.715c-1.327 0-2.402 1.045-2.402 2.232s1.083 2.231 2.419 2.231c.672 0 1.327-.286 1.801-.715v.744a3.3 3.3 0 0 1-1.778.53c-1.683 0-3.105-1.238-3.105-2.768 0-1.546 1.399-2.811 3.105-2.811.664 0 1.249.172 1.778.529zm3.303-.035-1.02 2.16h2.016zm-1.288 2.718-.719 1.531h-.727l2.75-5.651 2.678 5.651h-.734l-.704-1.531zm5.295-1.366h.207c.75 0 1.51-.128 1.51-.966 0-.887-.72-.972-1.518-.972h-.199zm0 2.898h-.662V13.75h.861c1.13 0 2.18.271 2.18 1.487 0 .83-.575 1.417-1.492 1.488l1.896 2.419h-.814l-1.802-2.368h-.167zm3.557-5.402h3.09v.558h-2.426v1.602h2.354v.558h-2.354v2.117h2.426v.558h-3.09zm-42.453 8.143h45.473v-.384H33.284z" clip-rule="evenodd"/><path d="M77.604 25.42q.364 0 .624.144a.96.96 0 0 1 .402.407q.143.258.143.608v.254h-1.941q.01.435.243.665.238.225.661.225.27 0 .476-.043.212-.047.434-.134v.369a2.2 2.2 0 0 1-.428.124 2.6 2.6 0 0 1-.503.043q-.402 0-.714-.148a1.1 1.1 0 0 1-.481-.44 1.44 1.44 0 0 1-.17-.724q0-.42.154-.722.158-.302.44-.465.285-.162.66-.162m-.005.345q-.333 0-.53.197-.19.19-.227.536h1.444a.9.9 0 0 0-.074-.383.55.55 0 0 0-.227-.254.7.7 0 0 0-.386-.096m-1.475.028h-.714v2.24h-.466v-2.24h-.497v-.196l.497-.144v-.148q0-.33.106-.537a.68.68 0 0 1 .317-.301q.206-.096.498-.096.168 0 .307.029.142.024.242.057l-.121.33a3 3 0 0 0-.196-.047 1 1 0 0 0-.227-.024q-.233 0-.35.143-.11.14-.11.44v.168h.714zm-2.079-.326v2.566h-.465v-2.566zm-.227-.962q.105 0 .185.067.084.062.085.201 0 .134-.085.201a.28.28 0 0 1-.185.067.3.3 0 0 1-.196-.067q-.08-.068-.08-.2 0-.14.08-.202a.3.3 0 0 1 .196-.067m-.956 3.528h-.465v-3.638h.465zm-2.44-2.614q.08 0 .17.01.095.005.164.02l-.058.387a1.6 1.6 0 0 0-.307-.034q-.165 0-.312.063-.149.062-.265.177a.8.8 0 0 0-.185.268 1 1 0 0 0-.063.354v1.37H69.1v-2.567h.381l.053.47h.02q.091-.144.218-.259a1 1 0 0 1 .291-.187.9.9 0 0 1 .359-.072m-1.881 1.327q0 .32-.095.57a1.12 1.12 0 0 1-.682.68 1.6 1.6 0 0 1-.545.085q-.28 0-.518-.086a1.18 1.18 0 0 1-.687-.68 1.6 1.6 0 0 1-.096-.57q0-.426.159-.717.159-.297.455-.45.296-.159.703-.159.386 0 .677.158.297.154.46.45.17.292.17.719m-2.141 0q0 .3.084.526.09.22.275.34t.47.12.472-.12a.7.7 0 0 0 .27-.34q.09-.225.09-.526 0-.307-.09-.522a.7.7 0 0 0-.276-.33.84.84 0 0 0-.47-.12q-.435 0-.63.258-.195.259-.195.714m-.761-.953h-.713v2.24h-.466v-2.24h-.497v-.196l.497-.144v-.148q0-.33.106-.537a.68.68 0 0 1 .317-.301q.207-.096.498-.096.169 0 .306.029.144.024.243.057l-.121.33a3 3 0 0 0-.196-.047 1 1 0 0 0-.227-.024q-.233 0-.35.143-.11.14-.11.44v.168h.714zm-5.497-.374q.365 0 .624.144a.96.96 0 0 1 .402.407q.143.258.143.608v.254H59.37q.01.435.243.665.239.225.661.225.27 0 .476-.043.212-.047.434-.134v.369a2.2 2.2 0 0 1-.428.124 2.6 2.6 0 0 1-.503.043q-.402 0-.714-.148a1.1 1.1 0 0 1-.481-.44 1.44 1.44 0 0 1-.17-.724q0-.42.154-.722.159-.302.439-.465.285-.162.661-.162m-.005.345q-.333 0-.53.197-.19.19-.227.536h1.444a.9.9 0 0 0-.074-.383.56.56 0 0 0-.227-.254.7.7 0 0 0-.386-.096m-3.262 2.316q-.528 0-.846-.33-.317-.334-.317-.996 0-.66.317-.996.323-.34.852-.34.222 0 .386.053a.95.95 0 0 1 .492.326h.031a4 4 0 0 0-.02-.182 2 2 0 0 1-.011-.197v-1.024h.465v3.638h-.375l-.07-.344h-.02q-.085.11-.207.2a1 1 0 0 1-.29.14q-.165.052-.387.052m.074-.35q.45 0 .63-.22.185-.225.185-.675v-.076q0-.479-.175-.733-.174-.258-.645-.258-.375 0-.566.273-.185.268-.185.723 0 .46.185.713.191.255.571.254m-1.798-2.265v2.566h-.465v-2.566zm-.227-.962q.105 0 .185.067.084.063.084.201 0 .135-.084.201a.28.28 0 0 1-.185.067.3.3 0 0 1-.196-.067q-.08-.066-.08-.2 0-.14.08-.202a.3.3 0 0 1 .196-.067m-.797 2.82a.64.64 0 0 1-.138.416.84.84 0 0 1-.391.254q-.254.086-.603.086-.296 0-.513-.043a1.7 1.7 0 0 1-.376-.12v-.383q.17.077.408.144.243.063.492.062.354 0 .513-.1a.32.32 0 0 0 .158-.278.28.28 0 0 0-.058-.172.6.6 0 0 0-.211-.153 3 3 0 0 0-.429-.173 4 4 0 0 1-.47-.191.9.9 0 0 1-.302-.23.54.54 0 0 1-.106-.345q0-.325.291-.502.297-.177.772-.177.26 0 .482.047.227.044.423.125l-.159.335a2 2 0 0 0-.248-.081 2 2 0 0 0-.26-.058 1.5 1.5 0 0 0-.27-.024q-.285 0-.438.086-.15.082-.149.225 0 .105.07.182a.7.7 0 0 0 .227.144q.164.067.433.163.27.09.46.186a.8.8 0 0 1 .291.235q.1.135.1.34m-3.872-1.906q.08 0 .169.01.095.005.164.02l-.058.387a1.6 1.6 0 0 0-.307-.034.8.8 0 0 0-.577.24.8.8 0 0 0-.185.268.9.9 0 0 0-.063.354v1.37h-.465v-2.567h.38l.053.47h.021q.09-.144.217-.259a.9.9 0 0 1 .291-.187.9.9 0 0 1 .36-.072m-2.01.048v2.566h-.38l-.07-.34h-.02a.7.7 0 0 1-.233.22q-.143.087-.312.125-.17.043-.355.043-.338 0-.57-.096a.7.7 0 0 1-.344-.306 1.1 1.1 0 0 1-.117-.531v-1.68h.47v1.651q0 .306.154.46.154.153.476.153.318 0 .497-.105a.6.6 0 0 0 .26-.317q.078-.21.079-.507v-1.336zm-2.981 1.279q0 .32-.095.57a1.12 1.12 0 0 1-.682.68 1.6 1.6 0 0 1-.545.085q-.28 0-.518-.086a1.18 1.18 0 0 1-.688-.68 1.6 1.6 0 0 1-.095-.57q0-.426.159-.717.158-.297.455-.45.295-.159.703-.159.386 0 .677.158.295.154.46.45.17.292.17.719m-2.142 0q0 .3.085.526.09.22.275.34t.47.12q.287 0 .471-.12a.7.7 0 0 0 .27-.34q.09-.225.09-.526 0-.307-.09-.522a.7.7 0 0 0-.275-.33.84.84 0 0 0-.47-.12q-.435 0-.63.258-.196.259-.196.714m-3.336-1.279h.497l.613 1.46q.053.13.095.25.048.12.085.234.037.11.058.216h.021q.032-.12.1-.312.07-.195.144-.392l.576-1.456h.503l-1.222 2.92q-.101.24-.238.417a.9.9 0 0 1-.328.278 1 1 0 0 1-.465.1q-.128 0-.223-.014a2 2 0 0 1-.163-.024v-.335l.137.02q.084.009.175.009.163 0 .28-.058a.53.53 0 0 0 .206-.158 1 1 0 0 0 .143-.24l.148-.339zm-3.809 0h.498l.613 1.46q.053.13.095.25.048.12.085.234.036.11.058.216h.021q.032-.12.1-.312.07-.195.143-.392l.577-1.456h.502l-1.221 2.92a1.8 1.8 0 0 1-.238.417.9.9 0 0 1-.328.278 1 1 0 0 1-.466.1q-.126 0-.222-.014a2 2 0 0 1-.164-.024v-.335l.138.02q.084.009.174.009.165 0 .28-.058a.53.53 0 0 0 .207-.158 1 1 0 0 0 .143-.24l.148-.339zm-1.674-.852q.471 0 .788.082.323.08.482.268.163.186.163.497a.75.75 0 0 1-.084.36.7.7 0 0 1-.243.258 1 1 0 0 1-.392.139v.024q.238.033.429.124.195.091.306.259a.8.8 0 0 1 .111.436.9.9 0 0 1-.158.53 1 1 0 0 1-.455.331q-.291.11-.698.11h-1.328v-3.418zm.096 1.456q.486 0 .666-.14.18-.142.18-.42 0-.283-.222-.403-.218-.124-.699-.124H33.7v1.087zm-.699.359v1.24h.762q.503 0 .698-.178a.6.6 0 0 0 .196-.464.55.55 0 0 0-.09-.316.54.54 0 0 0-.291-.206 1.6 1.6 0 0 0-.55-.076z"/></g></g><defs><clipPath id="a"><path fill="#fff" d="M0 .666h79.333V29.39H0z"/></clipPath></defs></svg>