<svg xmlns="http://www.w3.org/2000/svg" width="24" height="25" fill="none" viewBox="0 0 24 25"><g clip-path="url(#a)"><mask id="b" width="24" height="25" x="0" y="0" maskUnits="userSpaceOnUse" style="mask-type:luminance"><path fill="#fff" d="M24 .666H0v24h24z"/></mask><g fill="#fff" mask="url(#b)"><path d="M3.053 8.147a11.76 11.76 0 0 0-3.024 7.89c0 .37.301.672.673.672h3.39a.673.673 0 0 0 .672-.673l.005-.263a7 7 0 0 1 .295-1.784l-1.58-.646a.73.73 0 0 1-.424-.883l.025-.07.032-.069a.73.73 0 0 1 .85-.356l.071.024 1.588.649q.334-.617.78-1.158zm.963 3.896a.673.673 0 0 0-.848.306l-.03.062a.673.673 0 0 0 .306.849l.063.029 1.574.643c.083-.27.284-.842.515-1.243z"/><path d="m4.72 16.036.005-.263v-.001l.031-.455q.067-.661.255-1.302l-1.543-.632a.775.775 0 0 1-.45-.935v-.002l.025-.072.001-.003.04.018-.039-.018.032-.068v-.002l.075-.114c.165-.21.43-.32.695-.291l.133.026.002.001.071.025h.002l1.55.635a7.3 7.3 0 0 1 .742-1.1L3.056 8.21a11.72 11.72 0 0 0-2.983 7.827l.012.126a.63.63 0 0 0 .617.503h3.39a.63.63 0 0 0 .628-.63M4 12.084a.63.63 0 0 0-.794.286l-.028.057.001.001a.63.63 0 0 0 .284.792l.06.029 1.531.624c.087-.276.27-.782.48-1.162zm.793 4.097a.72.72 0 0 1-.702.572H.701A.72.72 0 0 1 0 16.181l-.014-.144c0-2.942 1.073-5.727 3.036-7.92l.03-.033.033.032 3.353 3.333.028.028-.025.031a7 7 0 0 0-.776 1.15l-.018.036-.002-.001-.01.018c-.228.397-.428.965-.51 1.234l-.014.046-.001-.001-.003.011a7 7 0 0 0-.293 1.774l-.005.262z"/><path fill-rule="evenodd" d="M7.444 10.491A7.2 7.2 0 0 1 12 8.875a7.2 7.2 0 0 1 4.555 1.617l3.394-3.377A11.94 11.94 0 0 0 12 4.1a11.94 11.94 0 0 0-7.95 3.016z" clip-rule="evenodd" opacity="0.6"/><path fill-rule="evenodd" d="M23.298 16.739a.7.7 0 0 0 .702-.703c0-2.949-1.08-5.74-3.053-7.932l-3.392 3.375a7.1 7.1 0 0 1 1.651 4.558c0 .387.315.702.703.702z" clip-rule="evenodd" opacity="0.2"/><path d="M12 21.333a5.333 5.333 0 1 0 0-10.667 5.333 5.333 0 0 0 0 10.667"/></g></g><defs><clipPath id="a"><path fill="#fff" d="M0 .666h24v24H0z"/></clipPath></defs></svg>