<svg xmlns="http://www.w3.org/2000/svg" width="24" height="25" fill="none" viewBox="0 0 24 25"><g clip-path="url(#a)"><mask id="b" width="24" height="25" x="0" y="0" maskUnits="userSpaceOnUse" style="mask-type:luminance"><path fill="#fff" d="M23.755.666H.245v24h23.51z"/></mask><g mask="url(#b)"><mask id="c" width="24" height="25" x="0" y="0" maskUnits="userSpaceOnUse" style="mask-type:luminance"><path fill="#fff" d="M23.755.666H.245v24h23.51z"/></mask><g fill="#fff" mask="url(#c)"><path d="M.245 16.037c0 .387.308.702.688.702h3.32c.38 0 .688-.315.688-.702 0-1.73.608-3.32 1.618-4.558L3.236 8.104a11.93 11.93 0 0 0-2.991 7.933m20.52-7.932-3.324 3.374q.454.557.791 1.196l1.578-.659a.683.683 0 0 1 .897.384.707.707 0 0 1-.376.916l-1.571.656c.199.67.3 1.365.3 2.065 0 .387.307.702.687.702h3.32c.38 0 .688-.315.688-.703a11.93 11.93 0 0 0-2.99-7.931M12 8.875c1.691 0 3.245.607 4.462 1.617l3.326-3.376C17.63 5.166 14.891 4.1 12 4.1S6.37 5.166 4.213 7.115l3.324 3.377A6.97 6.97 0 0 1 12 8.875"/><path d="M16.407 13.438C15.525 11.886 13.88 10.84 12 10.84c-2.807 0-5.09 2.33-5.09 5.196 0 2.864 2.283 5.195 5.09 5.195s5.09-2.33 5.09-5.195a5.3 5.3 0 0 0-.162-1.3l1.832-.765a7 7 0 0 0-.529-1.297zm-3.306.54c.38 0 .688.313.688.701a.695.695 0 0 1-.688.702.695.695 0 0 1-.688-.702c0-.388.308-.702.688-.702m-2.201 0c.38 0 .688.313.688.701a.695.695 0 0 1-.688.702.695.695 0 0 1-.688-.702c0-.388.308-.702.688-.702m3.027 3.647a2.85 2.85 0 0 1-1.926.752 2.85 2.85 0 0 1-1.927-.752.713.713 0 0 1-.053-.991.68.68 0 0 1 .971-.055 1.49 1.49 0 0 0 2.017 0 .68.68 0 0 1 .971.055.71.71 0 0 1-.053.991"/></g></g></g><defs><clipPath id="a"><path fill="#fff" d="M0 .666h24v24H0z"/></clipPath></defs></svg>