<svg xmlns="http://www.w3.org/2000/svg" width="35" height="22" fill="none" viewBox="0 0 35 22"><path fill="#fff" d="M6.523 5.368c.982 0 1.778-.781 1.778-1.744S7.505 1.88 6.523 1.88s-1.778.78-1.778 1.744c0 .963.796 1.744 1.778 1.744m4.737 5.975L9.278 6.887a1.45 1.45 0 0 0-1.103-.828c-.073-.02-3.23-.02-3.306 0a1.45 1.45 0 0 0-1.1.828l-1.982 4.456a.85.85 0 0 0 .07.82.9.9 0 0 0 1.253.23.87.87 0 0 0 .295-.358l.747-1.68v8.788c0 .522.431.944.963.944a.954.954 0 0 0 .964-.944v-5.927h.89v5.927c0 .522.43.944.962.944a.954.954 0 0 0 .963-.943v-8.789l.747 1.68a.87.87 0 0 0 .326.378.896.896 0 0 0 1.222-.25.86.86 0 0 0 .07-.82"/><path fill="#fff" d="M13.952 1.468c1.202 0 2.19.957 2.19 2.156l-.002.112a2.16 2.16 0 0 1-1.396 1.898l.708.006.19.008.03.004c.604.1 1.15.479 1.411 1.067l1.983 4.457.03.074q.083.226.078.468l-.004.08a1.29 1.29 0 0 1-.608.978l-.07.04a1.31 1.31 0 0 1-1.28-.03l-.04-.025a1.3 1.3 0 0 1-.437-.472v6.855c0 .757-.623 1.356-1.375 1.356s-1.376-.6-1.376-1.357V13.63h-.064v5.514c0 .758-.624 1.357-1.376 1.357s-1.376-.6-1.376-1.357V12.29q-.122.227-.322.389l-.07.052a1.3 1.3 0 0 1-.557.223l-.086.01a1.3 1.3 0 0 1-.593-.089l-.08-.035a1.3 1.3 0 0 1-.466-.376l-.051-.07a1.27 1.27 0 0 1-.105-1.218L10.82 6.72a1.86 1.86 0 0 1 1.464-1.073l.046-.002.12-.004.383-.004.326-.002a2.16 2.16 0 0 1-1.398-2.01l.003-.112c.059-1.146 1.023-2.044 2.188-2.044"/><path fill="#182E16" d="M10.755 19.143v-5.926q-.226.106-.475.144h-.007l-.093.011-.013.002a1.7 1.7 0 0 1-.78-.117l-.006-.002-.006-.003-.08-.034-.013-.006a1.7 1.7 0 0 1-.615-.497l-.005-.006-.004-.006-.05-.07-.004-.006-.004-.006a1.7 1.7 0 0 1-.272-.735l-.005-.053a1.7 1.7 0 0 1 .138-.825l1.982-4.456.031-.068a2.27 2.27 0 0 1 1.494-1.198 2.53 2.53 0 0 1-.62-1.662v-.011l.003-.111V3.49c.071-1.372 1.223-2.436 2.6-2.436h.067c1.393.035 2.537 1.157 2.537 2.569v.01l-.003.112v.011a2.53 2.53 0 0 1-.616 1.53A2.26 2.26 0 0 1 17.46 6.55l1.983 4.457.002.006.033.08.002.006.003.006c.073.198.109.41.104.621v.014l-.005.08v.012a1.7 1.7 0 0 1-.116.481l.026.026-.188.282a1.7 1.7 0 0 1-.527.506l-.006.003-.005.003-.075.043-.006.003a1.72 1.72 0 0 1-1.537.037v5.927l-.003.092a1.78 1.78 0 0 1-1.785 1.677 1.8 1.8 0 0 1-1.408-.679 1.8 1.8 0 0 1-1.318.677l-.09.002c-.972 0-1.789-.776-1.789-1.77m.826 0c0 .521.43.944.963.944h.05a.953.953 0 0 0 .913-.944v-5.927h.89v5.927c0 .521.43.944.963.944a.955.955 0 0 0 .961-.895l.002-.048v-6.855l.776-.195c.069.128.17.237.294.317l.031.02a.9.9 0 0 0 .875.02l.05-.029a.9.9 0 0 0 .26-.247l.008-.012a.85.85 0 0 0 .141-.396l.004-.065a.9.9 0 0 0-.053-.309l-.023-.054-1.98-4.452a1.45 1.45 0 0 0-1.102-.828h-.002l-.004-.001h-.009l-.001-.001-.033-.001-.111-.003a36 36 0 0 0-.701-.007l-.146-.798a1.75 1.75 0 0 0 1.13-1.531l.003-.093-.002-.09c-.046-.891-.775-1.606-1.685-1.652l-.091-.002c-.95 0-1.727.732-1.776 1.65l-.002.1c.002.736.47 1.365 1.133 1.618l-.146.799-.325.001-.377.005-.145.005h-.01l-.004.001h-.002a1.45 1.45 0 0 0-1.1.828l-1.983 4.456a.85.85 0 0 0-.07.419l.006.053q.029.186.133.344l.04.055a.9.9 0 0 0 .31.25l.062.028a.9.9 0 0 0 .398.06l.07-.009a.9.9 0 0 0 .372-.149l.053-.04a.9.9 0 0 0 .216-.26l.776.195z"/><path fill="#fff" d="M21.38 1.468c1.203 0 2.191.957 2.191 2.156l-.003.112a2.16 2.16 0 0 1-1.395 1.898l.707.006.191.008.029.004c.605.1 1.15.479 1.412 1.067l1.982 4.457.03.074q.084.226.079.468l-.005.08a1.27 1.27 0 0 1-.608.978l-.07.04a1.31 1.31 0 0 1-1.279-.03l-.04-.025a1.3 1.3 0 0 1-.437-.472v6.855c0 .757-.624 1.356-1.376 1.356s-1.375-.6-1.375-1.357V13.63h-.064v5.514c0 .758-.624 1.357-1.377 1.357-.752 0-1.375-.6-1.375-1.357V12.29q-.123.227-.323.389l-.07.052a1.3 1.3 0 0 1-.556.223l-.087.01a1.3 1.3 0 0 1-.593-.089l-.08-.035a1.3 1.3 0 0 1-.466-.376l-.05-.07a1.27 1.27 0 0 1-.105-1.218l1.982-4.456a1.86 1.86 0 0 1 1.464-1.073l.046-.002.12-.004.382-.004.327-.002a2.16 2.16 0 0 1-1.399-2.01l.003-.112c.06-1.146 1.024-2.044 2.189-2.044"/><path fill="#182E16" d="M18.184 19.143v-5.926q-.226.106-.475.144h-.007l-.094.011-.012.002a1.7 1.7 0 0 1-.78-.117l-.007-.002-.006-.003-.08-.034-.012-.006a1.7 1.7 0 0 1-.616-.497l-.004-.006-.004-.006-.05-.07-.005-.006-.004-.006a1.7 1.7 0 0 1-.271-.735l-.006-.053a1.7 1.7 0 0 1 .139-.825l1.982-4.456.03-.068a2.27 2.27 0 0 1 1.494-1.198 2.53 2.53 0 0 1-.62-1.662v-.005l.001-.006.003-.111V3.49c.071-1.372 1.223-2.436 2.6-2.436h.067c1.392.035 2.537 1.157 2.537 2.569v.01l-.003.111v.012a2.53 2.53 0 0 1-.616 1.53 2.26 2.26 0 0 1 1.524 1.264l1.982 4.457.003.006.002.006.03.074.003.006.002.006c.074.198.11.409.105.621v.007l-.001.007-.004.08v.006l-.001.006a1.68 1.68 0 0 1-.805 1.295l-.005.003-.005.003-.07.04-.005.003-.006.003a1.7 1.7 0 0 1-.754.199h-.052a1.7 1.7 0 0 1-.732-.162v5.927c0 .993-.817 1.769-1.788 1.769a1.8 1.8 0 0 1-1.408-.678c-.312.393-.788.65-1.317.676l-.09.002c-.972 0-1.79-.776-1.79-1.77m.825 0c0 .521.43.944.963.944h.05a.953.953 0 0 0 .914-.944v-5.927h.89v5.927c0 .521.43.944.962.944a.954.954 0 0 0 .963-.943v-6.855l.776-.196c.07.13.171.24.296.32l.028.017.053.029a.9.9 0 0 0 .404.095l.055-.001a.9.9 0 0 0 .362-.101l.054-.031a.9.9 0 0 0 .267-.258l.029-.046a.85.85 0 0 0 .112-.35l.003-.062a.9.9 0 0 0-.052-.31l-.026-.064-1.977-4.444a1.45 1.45 0 0 0-1.103-.828h-.002l-.003-.001h-.009l-.002-.001-.032-.002-.112-.002a36 36 0 0 0-.7-.007l-.146-.798a1.75 1.75 0 0 0 1.13-1.531l.003-.093-.003-.09c-.046-.891-.774-1.606-1.684-1.652l-.091-.002c-.951 0-1.727.732-1.776 1.65l-.003.099c.003.737.47 1.366 1.133 1.62l-.145.798-.325.001-.378.005-.144.005h-.011l-.003.001h-.003a1.45 1.45 0 0 0-1.1.828l-1.982 4.456a.85.85 0 0 0-.07.419l.006.053q.028.186.132.344l.04.055a.9.9 0 0 0 .31.25l.062.028a.9.9 0 0 0 .399.06l.07-.009a.9.9 0 0 0 .371-.149l.054-.04a.9.9 0 0 0 .215-.26l.776.195z"/><path fill="#E86921" d="M28.81 1.468c1.201 0 2.19.957 2.19 2.156l-.003.112a2.16 2.16 0 0 1-1.395 1.898l.707.006.191.008.028.004c.606.1 1.15.479 1.413 1.067l1.982 4.457.03.074q.083.226.079.468l-.005.08a1.27 1.27 0 0 1-.608.978l-.07.04a1.31 1.31 0 0 1-1.28-.03l-.04-.025a1.3 1.3 0 0 1-.437-.472v6.855c0 .757-.623 1.356-1.375 1.356s-1.376-.6-1.376-1.357V13.63h-.064v5.514c0 .758-.624 1.357-1.376 1.357s-1.376-.6-1.376-1.357V12.29c-.08.15-.19.282-.322.389l-.07.052a1.3 1.3 0 0 1-.557.223l-.086.01a1.3 1.3 0 0 1-.593-.089l-.08-.035a1.3 1.3 0 0 1-.466-.376l-.05-.07a1.27 1.27 0 0 1-.106-1.218l1.982-4.456a1.86 1.86 0 0 1 1.465-1.073l.045-.002.12-.004.383-.004.326-.002a2.16 2.16 0 0 1-1.398-2.01l.003-.112c.059-1.146 1.024-2.044 2.188-2.044"/><path fill="#182E16" d="M25.613 19.143v-5.926q-.226.106-.476.144h-.007l-.093.011-.013.002a1.7 1.7 0 0 1-.78-.117l-.006-.002-.006-.003-.08-.034-.013-.006a1.7 1.7 0 0 1-.552-.42l-.063-.077-.004-.006-.005-.006-.05-.07-.004-.006-.004-.006a1.68 1.68 0 0 1-.139-1.613L25.3 6.552l.031-.068a2.27 2.27 0 0 1 1.494-1.198 2.53 2.53 0 0 1-.62-1.662v-.011l.003-.111v-.01l.005-.065c.103-1.34 1.24-2.372 2.596-2.372h.067c1.392.035 2.537 1.157 2.537 2.569v.01l-.003.111v.012a2.53 2.53 0 0 1-.617 1.53c.65.165 1.23.603 1.525 1.264l1.982 4.457.002.006.003.006.03.074.002.006.003.006c.073.198.109.409.104.621v.014l-.005.08v.012a1.7 1.7 0 0 1-.804 1.295l-.006.003-.005.003-.07.04-.006.003-.006.003a1.7 1.7 0 0 1-.753.199h-.053c-.253 0-.502-.055-.73-.162v5.927c0 .993-.818 1.769-1.79 1.769a1.8 1.8 0 0 1-1.407-.678c-.313.393-.788.65-1.317.676l-.091.002a1.78 1.78 0 0 1-1.788-1.77m.825 0c0 .521.43.944.963.944h.05a.953.953 0 0 0 .913-.944v-5.927h.89v5.927c0 .521.43.944.963.944a.954.954 0 0 0 .963-.943v-6.855l.776-.196c.07.13.17.24.295.32l.029.017.052.029a.9.9 0 0 0 .404.095l.055-.001a.9.9 0 0 0 .362-.101l.055-.031a.9.9 0 0 0 .266-.258l.03-.046a.85.85 0 0 0 .111-.35l.004-.062a.9.9 0 0 0-.052-.31l-.027-.064-1.977-4.444a1.45 1.45 0 0 0-1.102-.828h-.002l-.003-.001h-.01l-.001-.001-.032-.002-.112-.002-.377-.005-.324-.002-.146-.798a1.75 1.75 0 0 0 1.13-1.531l.003-.098c-.003-.93-.748-1.69-1.686-1.737l-.092-.002c-.95 0-1.727.732-1.776 1.65l-.002.099c.002.737.47 1.366 1.133 1.62l-.146.798-.325.001-.377.005-.145.005h-.01l-.004.001h-.002a1.46 1.46 0 0 0-1.06.746l-.04.082-1.982 4.456a.85.85 0 0 0 .069.817l.038.053a.9.9 0 0 0 .312.252l.06.026a.9.9 0 0 0 .4.06l.07-.008a.9.9 0 0 0 .37-.148l.054-.041a.9.9 0 0 0 .216-.26l.776.195z"/></svg>