<svg width="35" height="22" viewBox="0 0 35 22" fill="none" xmlns="http://www.w3.org/2000/svg">
<path d="M6.52349 5.36754C7.50526 5.36754 8.30133 4.58675 8.30133 3.62393C8.30129 2.66075 7.50526 1.88025 6.52349 1.88025C5.54139 1.88025 4.74497 2.66075 4.74497 3.62389C4.74492 4.58675 5.54135 5.36754 6.52349 5.36754ZM11.2598 11.3433L9.27765 6.88664C9.07791 6.43725 8.65743 6.13906 8.17521 6.05879C8.10225 6.03993 4.94465 6.03962 4.86921 6.05943C4.38765 6.13994 3.96806 6.43812 3.76867 6.88693L1.78672 11.343C1.72823 11.4747 1.70409 11.6186 1.71646 11.7618C1.72883 11.9049 1.77733 12.0428 1.85758 12.163C1.94478 12.2935 2.06635 12.3985 2.20943 12.4669C2.35251 12.5352 2.51177 12.5644 2.67037 12.5512C2.82895 12.5381 2.98097 12.4832 3.11035 12.3923C3.23971 12.3014 3.3416 12.1779 3.40524 12.0349L4.15216 10.3557V19.1433C4.15216 19.6649 4.58335 20.0875 5.11534 20.0875C5.64762 20.0875 6.07877 19.6649 6.07877 19.1433V13.2157H6.96809V19.1433C6.96809 19.6649 7.39926 20.0875 7.9312 20.0875C8.46284 20.0875 8.89405 19.6649 8.89405 19.1436V10.3551L9.64134 12.0352C9.71004 12.1896 9.8232 12.321 9.96694 12.4133C10.1107 12.5055 10.2788 12.5547 10.4506 12.5547C10.5971 12.5547 10.7414 12.5189 10.8703 12.4506C10.9992 12.3823 11.1087 12.2836 11.189 12.1634C11.2693 12.0432 11.3178 11.9053 11.3302 11.7621C11.3426 11.619 11.3184 11.475 11.2598 11.3433Z" fill="white"/>
<path d="M13.952 1.46756C15.1541 1.46756 16.1426 2.42532 16.1426 3.62396L16.1398 3.73559C16.0949 4.60672 15.5263 5.33453 14.7445 5.63363C14.8609 5.63415 14.9706 5.63468 15.0702 5.63545C15.2244 5.63665 15.3559 5.63807 15.4516 5.63989C15.4992 5.64079 15.5401 5.64193 15.5711 5.6431C15.5864 5.64368 15.602 5.64436 15.6161 5.64533C15.623 5.64579 15.6326 5.64661 15.6429 5.64775C15.6454 5.64802 15.6562 5.64919 15.6713 5.65177C16.2764 5.75251 16.8217 6.13056 17.0833 6.71899L19.0656 11.1756L19.0956 11.2496C19.1512 11.3994 19.178 11.5582 19.1744 11.7179L19.17 11.7977C19.1516 12.0105 19.0793 12.2148 18.9606 12.3924L18.9608 12.3926C18.857 12.548 18.7205 12.6785 18.5616 12.7756L18.4921 12.8154C18.3034 12.9153 18.0928 12.9671 17.8793 12.9671C17.6445 12.9671 17.414 12.9045 17.2125 12.7851L17.1726 12.7605C16.9888 12.6426 16.8383 12.4805 16.7353 12.2892V19.1437C16.7353 19.9005 16.1115 20.5002 15.3598 20.5002C14.6077 20.5002 13.984 19.9004 13.984 19.1433V13.6285H13.92V19.1433C13.92 19.9005 13.2962 20.5002 12.5438 20.5002C11.7917 20.5002 11.1681 19.9004 11.1681 19.1433V12.289C11.0874 12.4387 10.9778 12.5708 10.8455 12.6777L10.7761 12.7299C10.6101 12.8466 10.4192 12.9226 10.2192 12.9526L10.1329 12.9625C9.93067 12.9792 9.7275 12.9488 9.53966 12.874L9.46007 12.8393C9.27689 12.7518 9.11701 12.6228 8.99358 12.4627L8.94298 12.3922C8.82437 12.2145 8.75221 12.0101 8.73382 11.7973C8.71542 11.5845 8.75151 11.3707 8.83819 11.1755L10.8201 6.71919C11.0812 6.13164 11.6251 5.75346 12.2297 5.65237C12.2442 5.64985 12.2546 5.64865 12.2573 5.64835C12.2678 5.64717 12.2774 5.64643 12.2845 5.64593C12.2989 5.6449 12.3148 5.64412 12.3302 5.64352C12.3616 5.64228 12.4026 5.64123 12.4503 5.64028C12.5464 5.63838 12.6782 5.63689 12.8326 5.63566C12.9326 5.63485 13.0426 5.63438 13.1594 5.63384C12.3443 5.32211 11.7609 4.54429 11.7609 3.62396L11.7638 3.5123C11.8229 2.36627 12.7873 1.46759 13.952 1.46756Z" fill="white"/>
<path d="M10.7553 19.1432V13.2172C10.605 13.2876 10.445 13.336 10.2804 13.3606L10.2731 13.3618L10.1798 13.3725L10.1669 13.3737C9.9012 13.3957 9.63404 13.3559 9.38687 13.2575L9.38083 13.255L9.37478 13.2524L9.29519 13.2178L9.28229 13.2117C9.04104 13.0965 8.82987 12.9263 8.66667 12.7146L8.66244 12.7091L8.6582 12.7033L8.60762 12.6328L8.60359 12.6271L8.59976 12.6213C8.45267 12.401 8.35933 12.1491 8.32813 11.8856L8.32268 11.8328C8.29825 11.5501 8.34613 11.2665 8.46092 11.008L8.46112 11.0078L10.443 6.55151L10.4742 6.4842C10.7769 5.86022 11.3397 5.44544 11.9676 5.28601C11.5829 4.84023 11.3482 4.26188 11.3482 3.62393V3.61869L11.3484 3.61345L11.3512 3.50181L11.3516 3.49093C11.4224 2.11911 12.5742 1.05489 13.9519 1.05484L14.0184 1.05565C15.4106 1.09034 16.5552 2.21181 16.5553 3.62393V3.63441L16.5525 3.74605L16.5523 3.75149L16.5519 3.75693C16.5216 4.34246 16.2939 4.87178 15.9362 5.28621C16.5859 5.45154 17.1664 5.88977 17.4605 6.55131L19.4426 11.008L19.4454 11.014L19.478 11.0944L19.4803 11.1001L19.4825 11.1059C19.5562 11.3044 19.5919 11.5152 19.5871 11.7274L19.5869 11.734L19.5864 11.7407L19.582 11.8205L19.5816 11.8269L19.5812 11.8332C19.5668 11.9993 19.5275 12.1612 19.4659 12.3142L19.4919 12.3402L19.3041 12.6217C19.1668 12.8275 18.9863 12.9996 18.777 13.1277L18.7715 13.1309L18.7663 13.1339L18.6911 13.1769L18.6853 13.1801C18.4364 13.3119 18.1594 13.3796 17.8792 13.3796C17.6261 13.3796 17.3763 13.3242 17.1479 13.2172V19.1436L17.1455 19.2361C17.0966 20.1846 16.3006 20.9129 15.3597 20.9129C14.7945 20.9129 14.2821 20.6498 13.9519 20.2344C13.6395 20.6275 13.1638 20.8843 12.6345 20.9107L12.5438 20.9129C11.5722 20.9129 10.7554 20.1366 10.7553 19.1432ZM11.5807 19.1432C11.5808 19.6641 12.0112 20.0875 12.5438 20.0875L12.5935 20.0863C13.1033 20.061 13.5072 19.6478 13.5072 19.1432V13.2157H14.3967V19.1432C14.3967 19.6641 14.8272 20.0875 15.3597 20.0875C15.8754 20.0875 16.2955 19.6903 16.3213 19.1922L16.3225 19.1436V12.2892L17.0986 12.0935C17.1677 12.2218 17.269 12.3311 17.393 12.4113L17.4242 12.4308C17.5612 12.5116 17.7185 12.5544 17.8792 12.5544C18.0261 12.5544 18.1703 12.5187 18.2988 12.4506L18.3482 12.4224C18.4517 12.3587 18.5404 12.2744 18.6091 12.1751L18.6174 12.163C18.697 12.0439 18.7453 11.9078 18.7582 11.7667L18.7619 11.7024C18.7635 11.5972 18.7455 11.4924 18.7087 11.3933L18.6865 11.3389L16.7062 6.88662C16.5066 6.43762 16.0862 6.13916 15.6035 6.05881L15.6019 6.05861L15.5981 6.058H15.5977C15.5955 6.05776 15.5934 6.05756 15.5917 6.0574C15.5903 6.05727 15.5893 6.05722 15.589 6.0572L15.5878 6.057C15.5803 6.05648 15.5698 6.05613 15.5554 6.05558L15.4437 6.05256C15.3504 6.05079 15.2208 6.04932 15.0669 6.04813C14.968 6.04737 14.859 6.04683 14.7427 6.04632L14.597 5.24812C15.2339 5.00442 15.6904 4.41491 15.7275 3.71683L15.7299 3.62393L15.7277 3.53426C15.6816 2.64286 14.9528 1.92763 14.0434 1.88245L13.9519 1.88024C13.0015 1.88029 12.2249 2.61181 12.176 3.53063L12.1738 3.62917C12.176 4.36612 12.6435 4.99461 13.3069 5.24832L13.1614 6.04652L12.836 6.04833L12.4585 6.05297C12.4116 6.0539 12.3738 6.05471 12.3465 6.05579C12.3336 6.05629 12.3223 6.05701 12.3141 6.0576H12.3134C12.3092 6.0579 12.3062 6.05797 12.304 6.0582L12.3042 6.05841L12.2999 6.05901L12.2977 6.05941C11.8159 6.13999 11.3965 6.43839 11.1973 6.88683L9.21519 11.3427L9.21539 11.3429C9.15685 11.4747 9.13271 11.6187 9.14506 11.7616L9.15131 11.8152C9.16974 11.9375 9.21473 12.0548 9.2835 12.159L9.3232 12.2142C9.4055 12.3199 9.51164 12.4057 9.63353 12.4647L9.69559 12.4917C9.82177 12.5414 9.95813 12.5619 10.0942 12.5514L10.1639 12.5433C10.2975 12.5224 10.4247 12.4715 10.5357 12.3942L10.5891 12.3539C10.6773 12.2819 10.7506 12.1935 10.8047 12.0931L11.5807 12.289V19.1432Z" fill="#182E16"/>
<path d="M21.3806 1.46756C22.5827 1.46756 23.5712 2.42532 23.5712 3.62396L23.5685 3.73559C23.5235 4.60672 22.9548 5.33453 22.1731 5.63363C22.2895 5.63415 22.3991 5.63468 22.4988 5.63545C22.6529 5.63665 22.7843 5.63807 22.8803 5.63989C22.9278 5.64079 22.9686 5.64193 22.9998 5.6431C23.0148 5.64368 23.0305 5.64436 23.0446 5.64533C23.0516 5.64579 23.0611 5.64661 23.0714 5.64775C23.0741 5.64802 23.0848 5.64919 23.0999 5.65177C23.7051 5.75251 24.2503 6.13056 24.5119 6.71899L26.4941 11.1756L26.5242 11.2496C26.5797 11.3994 26.6066 11.5582 26.603 11.7179L26.5985 11.7977C26.5801 12.0105 26.5079 12.2148 26.3893 12.3924C26.2857 12.5478 26.1491 12.6785 25.9902 12.7756L25.9207 12.8154C25.732 12.9153 25.5214 12.9671 25.3078 12.9671C25.0732 12.9671 24.8425 12.9045 24.6411 12.7851L24.601 12.7605C24.4174 12.6426 24.267 12.4805 24.1638 12.2892V19.1437C24.1638 19.9005 23.54 20.5002 22.7883 20.5002C22.0361 20.5002 21.4125 19.9004 21.4125 19.1433V13.6285H21.3486V19.1433C21.3486 19.9005 20.7248 20.5002 19.9724 20.5002C19.2203 20.5002 18.5967 19.9004 18.5967 19.1433V12.289C18.516 12.4387 18.4064 12.5708 18.2741 12.6777L18.2047 12.7299C18.0387 12.8466 17.8478 12.9226 17.6477 12.9526L17.5615 12.9625C17.3592 12.9792 17.1561 12.9488 16.9682 12.874L16.8886 12.8393C16.7055 12.7518 16.5456 12.6228 16.4221 12.4627L16.3716 12.3922C16.2529 12.2145 16.1808 12.0101 16.1624 11.7973C16.144 11.5845 16.1801 11.3707 16.2668 11.1755L18.2486 6.71919C18.5097 6.13164 19.0537 5.75346 19.6582 5.65237C19.6728 5.64985 19.6831 5.64865 19.6859 5.64835C19.6964 5.64717 19.706 5.64643 19.713 5.64593C19.7275 5.6449 19.7434 5.64412 19.7588 5.64352C19.7902 5.64228 19.8312 5.64123 19.8789 5.64028C19.975 5.63838 20.1068 5.63689 20.2612 5.63566C20.3612 5.63485 20.4712 5.63438 20.588 5.63384C19.7728 5.32211 19.1895 4.54429 19.1895 3.62396L19.1923 3.5123C19.2514 2.36627 20.2159 1.46759 21.3806 1.46756Z" fill="white"/>
<path d="M18.1839 19.1432V13.2172C18.0336 13.2876 17.8736 13.336 17.709 13.3606L17.7017 13.3618L17.6084 13.3725L17.5955 13.3737C17.3298 13.3957 17.0626 13.3559 16.8154 13.2575L16.8094 13.255L16.8034 13.2524L16.7238 13.2178L16.7109 13.2117C16.4696 13.0965 16.2584 12.9263 16.0952 12.7146L16.091 12.7091L16.0868 12.7033L16.0362 12.6328L16.0322 12.6271L16.0283 12.6213C15.8812 12.401 15.7879 12.1491 15.7567 11.8856L15.7513 11.8328C15.7268 11.5501 15.7747 11.2665 15.8895 11.008L15.8897 11.0078L17.8716 6.55151L17.9028 6.4842C18.2054 5.86022 18.7682 5.44544 19.3962 5.28601C19.0115 4.84023 18.7768 4.26188 18.7768 3.62393V3.61869L18.777 3.61345L18.7798 3.50181L18.7802 3.49093C18.851 2.11911 20.0028 1.05489 21.3805 1.05484L21.447 1.05565C22.8392 1.09034 23.9839 2.2118 23.9839 3.62393V3.62897L23.9837 3.6338L23.981 3.74544L23.9808 3.75108L23.9806 3.75693C23.9504 4.34248 23.7225 4.87179 23.3648 5.28621C24.0146 5.45155 24.5949 5.88983 24.8891 6.55131L26.8711 11.008L26.8738 11.0138L26.8764 11.0199L26.9064 11.0938L26.9088 11.1001L26.9112 11.1061C26.9847 11.3044 27.0203 11.515 27.0156 11.727L27.0154 11.7342L27.015 11.7413L27.0106 11.8211L27.0102 11.8271L27.0096 11.8332C26.9852 12.1159 26.8894 12.3868 26.7325 12.6217C26.5953 12.8274 26.4148 12.9997 26.2055 13.1277L26.2003 13.1309L26.1949 13.1339L26.1253 13.1738L26.1197 13.1769L26.1139 13.1799C25.8805 13.3036 25.6224 13.371 25.3602 13.379L25.3078 13.3798C25.0548 13.3798 24.805 13.3242 24.5765 13.2172V19.1436C24.5765 20.1368 23.7594 20.9129 22.7883 20.9129C22.223 20.9129 21.7104 20.65 21.3803 20.2346C21.0678 20.6276 20.5923 20.8843 20.063 20.9107L19.9723 20.9129C19.0008 20.9129 18.1839 20.1366 18.1839 19.1432ZM19.0093 19.1432C19.0093 19.6641 19.4398 20.0875 19.9723 20.0875L20.0221 20.0863C20.5319 20.061 20.9358 19.6478 20.9358 19.1432V13.2157H21.8253V19.1432C21.8253 19.6642 22.2557 20.0875 22.7883 20.0875C23.3206 20.0875 23.7511 19.6641 23.7511 19.1436V12.2892L24.5269 12.0933C24.5965 12.2223 24.6981 12.3321 24.8226 12.4123L24.8514 12.43L24.9038 12.4587C25.0281 12.5214 25.1667 12.5544 25.3078 12.5544L25.3628 12.5528C25.4897 12.5451 25.6131 12.5105 25.7247 12.4518L25.7791 12.4206C25.8856 12.3546 25.9768 12.2669 26.0457 12.1634L26.0462 12.163L26.0748 12.1171C26.1372 12.0096 26.1755 11.8903 26.1868 11.7671L26.1904 11.7048C26.1922 11.5996 26.1744 11.495 26.138 11.3959L26.1118 11.3314L24.1348 6.88662C23.9351 6.43756 23.5148 6.13915 23.0321 6.05881L23.0301 6.05861C23.0287 6.05837 23.0277 6.05809 23.0271 6.058H23.0263C23.0239 6.05774 23.0217 6.05755 23.02 6.0574C23.0187 6.05728 23.0179 6.05721 23.0178 6.0572L23.016 6.057C23.0087 6.05649 22.9985 6.05593 22.9842 6.05538C22.9562 6.05433 22.918 6.05344 22.8723 6.05256C22.7788 6.05079 22.6492 6.04932 22.4955 6.04813C22.3966 6.04737 22.2876 6.04683 22.1713 6.04632L22.0256 5.24812C22.6625 5.00439 23.119 4.41477 23.1561 3.71662L23.1585 3.62393L23.1561 3.53426C23.11 2.64286 22.3815 1.92763 21.472 1.88245L21.3805 1.88024C20.43 1.88029 19.6535 2.61181 19.6046 3.53063L19.6024 3.62897C19.6045 4.366 20.072 4.99459 20.7355 5.24832L20.59 6.04652L20.2645 6.04833L19.8871 6.05297C19.8401 6.0539 19.8023 6.05471 19.7751 6.05579C19.7621 6.05629 19.7509 6.05701 19.7426 6.0576H19.742C19.7378 6.0579 19.7348 6.05797 19.7325 6.0582L19.7328 6.05841L19.7285 6.05901L19.7263 6.05941C19.2445 6.13999 18.8251 6.43839 18.6258 6.88683L16.6438 11.3427L16.644 11.3429C16.5854 11.4747 16.5613 11.6187 16.5736 11.7616L16.5799 11.8152C16.5983 11.9375 16.6433 12.0548 16.7121 12.159L16.7518 12.2142C16.8341 12.3199 16.9402 12.4057 17.0621 12.4647L17.1242 12.4917C17.2504 12.5414 17.3868 12.5619 17.523 12.5514L17.5921 12.5433C17.7258 12.5224 17.8532 12.4715 17.9643 12.3942L18.0177 12.3539C18.1059 12.2819 18.1792 12.1935 18.2333 12.0931L19.0093 12.289V19.1432Z" fill="#182E16"/>
<path d="M28.8091 1.46756C30.0113 1.46756 30.9997 2.42532 30.9997 3.62396L30.997 3.73559C30.9521 4.60672 30.3834 5.33453 29.6017 5.63363C29.7181 5.63415 29.8277 5.63468 29.9273 5.63545C30.0815 5.63665 30.2129 5.63807 30.3089 5.63989C30.3563 5.64079 30.3972 5.64193 30.4283 5.6431C30.4434 5.64368 30.4591 5.64436 30.4731 5.64533C30.4801 5.64579 30.4896 5.64661 30.5 5.64775C30.5026 5.64802 30.5134 5.64919 30.5284 5.65177C31.1337 5.75251 31.6788 6.13056 31.9405 6.71899L33.9227 11.1756L33.9528 11.2496C34.0083 11.3994 34.0351 11.5582 34.0316 11.7179L34.0271 11.7977C34.0087 12.0105 33.9365 12.2148 33.8178 12.3924C33.7143 12.5478 33.5777 12.6785 33.4188 12.7756L33.3492 12.8154C33.1606 12.9153 32.9499 12.9671 32.7364 12.9671C32.5017 12.9671 32.271 12.9045 32.0696 12.7851L32.0296 12.7605C31.846 12.6426 31.6955 12.4805 31.5924 12.2892V19.1437C31.5924 19.9005 30.9686 20.5002 30.2168 20.5002C29.4647 20.5002 28.8411 19.9004 28.8411 19.1433V13.6285H28.7771V19.1433C28.7771 19.9005 28.1533 20.5002 27.401 20.5002C26.6489 20.5002 26.0253 19.9004 26.0253 19.1433V12.289C25.9446 12.4387 25.835 12.5708 25.7025 12.6777L25.6332 12.7299C25.4673 12.8466 25.2764 12.9226 25.0763 12.9526L24.99 12.9625C24.7878 12.9792 24.5845 12.9488 24.3968 12.874L24.3171 12.8393C24.1341 12.7518 23.9742 12.6228 23.8508 12.4627L23.8002 12.3922C23.6816 12.2145 23.6093 12.0101 23.591 11.7973C23.5726 11.5845 23.6087 11.3707 23.6954 11.1755L25.6772 6.71919C25.9384 6.13164 26.4823 5.75346 27.0867 5.65237C27.1014 5.64985 27.1117 5.64865 27.1144 5.64835C27.1249 5.64717 27.1346 5.64643 27.1416 5.64593C27.1561 5.6449 27.172 5.64412 27.1874 5.64352C27.2188 5.64228 27.2596 5.64123 27.3075 5.64028C27.4037 5.63838 27.5353 5.63689 27.6897 5.63566C27.7898 5.63485 27.8997 5.63438 28.0165 5.63384C27.2015 5.32211 26.6181 4.54429 26.6181 3.62396L26.621 3.5123C26.68 2.36627 27.6445 1.46759 28.8091 1.46756Z" fill="#E86921"/>
<path d="M25.6125 19.1432V13.2172C25.4622 13.2876 25.3021 13.336 25.1373 13.3606L25.1303 13.3618L25.037 13.3725L25.0241 13.3737C24.7584 13.3957 24.4912 13.3559 24.244 13.2575L24.238 13.255L24.2321 13.2524L24.1523 13.2178L24.139 13.2117C23.9282 13.1109 23.7403 12.968 23.5873 12.792L23.5238 12.7146L23.5196 12.7089L23.5154 12.7031L23.4648 12.6326L23.4608 12.6271L23.4569 12.6215C23.3 12.3865 23.2042 12.1155 23.1798 11.8328C23.1555 11.5501 23.2033 11.2665 23.3181 11.008L23.3183 11.0078L25.3 6.55151L25.3314 6.4842C25.6341 5.86025 26.1968 5.44544 26.8248 5.28601C26.4401 4.84023 26.2054 4.26188 26.2054 3.62393V3.61869L26.2056 3.61325L26.2084 3.50161L26.2088 3.49113L26.213 3.42705C26.3156 2.0862 27.4529 1.05488 28.8091 1.05484L28.8756 1.05565C30.2678 1.09035 31.4125 2.21181 31.4125 3.62393V3.62897L31.4123 3.6338L31.4096 3.74544L31.4094 3.75108L31.4092 3.75693C31.379 4.34247 31.1511 4.87179 30.7934 5.28621C31.4431 5.45155 32.0235 5.88984 32.3176 6.55131L34.2997 11.008L34.3024 11.0138L34.3048 11.0199L34.335 11.0938L34.3374 11.1001L34.3398 11.1061C34.4133 11.3044 34.4489 11.515 34.4442 11.727L34.444 11.7342L34.4436 11.7413L34.4392 11.8211L34.4388 11.8271L34.4382 11.8332C34.4138 12.1158 34.3178 12.3863 34.1611 12.6211L34.1613 12.6213C34.0241 12.8272 33.8435 12.9996 33.6341 13.1277L33.6287 13.1309L33.6235 13.1341L33.5539 13.1738L33.5483 13.1769L33.5424 13.1799C33.3091 13.3036 33.051 13.371 32.7888 13.379L32.7364 13.3798C32.4834 13.3798 32.2335 13.3242 32.0051 13.2172V19.1436C32.0051 20.1368 31.188 20.9129 30.2169 20.9129C29.6516 20.9129 29.139 20.65 28.8089 20.2346C28.4964 20.6276 28.0208 20.8843 27.4916 20.9107L27.4009 20.9129C26.4293 20.9129 25.6125 20.1366 25.6125 19.1432ZM26.4379 19.1432C26.4379 19.6641 26.8683 20.0875 27.4009 20.0875L27.4507 20.0863C27.9605 20.061 28.3644 19.6478 28.3644 19.1432V13.2157H29.2538V19.1432C29.2539 19.6642 29.6843 20.0875 30.2169 20.0875C30.7492 20.0875 31.1797 19.6641 31.1797 19.1436V12.2892L31.9555 12.0933C32.0251 12.2223 32.1267 12.3321 32.2512 12.4123L32.28 12.43L32.3324 12.4587C32.4566 12.5213 32.5951 12.5544 32.7362 12.5544L32.7914 12.5528C32.9183 12.5451 33.0417 12.5105 33.1533 12.4518L33.2077 12.4206C33.3142 12.3546 33.4054 12.2669 33.4743 12.1634L33.4747 12.163L33.5034 12.1171C33.5658 12.0096 33.604 11.8903 33.6154 11.7671L33.619 11.7048C33.6208 11.5996 33.603 11.495 33.5666 11.3959L33.5404 11.3314L31.5634 6.88662C31.3637 6.43756 30.9434 6.13916 30.4607 6.05881L30.4587 6.05861C30.4573 6.05837 30.4563 6.05809 30.4557 6.058H30.4549C30.4525 6.05774 30.4503 6.05755 30.4486 6.0574C30.4473 6.05728 30.4466 6.05721 30.4464 6.0572L30.4446 6.057C30.4373 6.05649 30.4271 6.05593 30.4127 6.05538C30.3848 6.05433 30.3466 6.05344 30.3009 6.05256L29.9241 6.04813C29.8252 6.04737 29.7162 6.04683 29.5998 6.04632L29.4542 5.24812C30.0911 5.00441 30.5476 4.41488 30.5846 3.71683L30.5869 3.61869C30.5841 2.68842 29.8386 1.92906 28.9006 1.88245L28.8091 1.88024C27.8586 1.88028 27.0822 2.61182 27.0334 3.53063L27.031 3.62897C27.0331 4.36598 27.5005 4.99457 28.1639 5.24832L28.0184 6.04652L27.6929 6.04833L27.3157 6.05297C27.2686 6.0539 27.2309 6.05471 27.2037 6.05579C27.1907 6.05629 27.1794 6.057 27.171 6.0576H27.1706C27.1666 6.05788 27.1637 6.05799 27.1615 6.0582L27.1613 6.05841C27.1605 6.05852 27.1588 6.05864 27.1567 6.05901L27.1549 6.05941C26.7033 6.13495 26.3063 6.4019 26.0941 6.80461L26.0542 6.88683L24.0725 11.3431C24.014 11.4749 23.9899 11.6189 24.0022 11.7618C24.0145 11.9037 24.0623 12.0407 24.1417 12.1604L24.1796 12.213C24.2622 12.3195 24.3691 12.4058 24.4919 12.4651L24.5515 12.4911C24.678 12.5411 24.8148 12.5619 24.9513 12.5514L25.0211 12.5433C25.1546 12.5224 25.2816 12.4716 25.3923 12.3946L25.4463 12.3539C25.5345 12.282 25.6079 12.1935 25.6621 12.0931L26.4379 12.289V19.1432Z" fill="#182E16"/>
</svg>
