<svg xmlns="http://www.w3.org/2000/svg" width="25" height="25" fill="none" viewBox="0 0 25 25"><path fill="#fff" d="m19.858 4.42-.413-.136a21.7 21.7 0 0 0-6.795-1.09A21.7 21.7 0 0 0 5.544 4.39l-.075.026a.505.505 0 0 0-.34.52c.187 2.149 1.642 3.614 4.589 4.613a2.6 2.6 0 0 1 1.572.848c.622.7.885 1.75.742 2.96-.123 1.042-.028 2.003.056 2.851.06.607.116 1.18.056 1.627a.8.8 0 0 0 .002.258q.099.566.108 1.14l.041 2.72a.19.19 0 0 0 .189.187h.4a.187.187 0 0 0 .188-.19l-.028-2.727a9 9 0 0 1 .059-1.103.8.8 0 0 0-.01-.264c-.086-.425-.038-.915.024-1.535l.011-.112c.084-.848.18-1.809.056-2.852-.143-1.21.12-2.26.742-2.96.45-.506 1.067-.81 1.786-.876l.013-.003c2.828-.962 4.294-2.458 4.481-4.574a.51.51 0 0 0-.348-.523"/><path fill="#fff" d="M11.15 13.997c.137-1.147-.108-2.138-.688-2.791-.515-.58-1.26-.864-2.149-.813-.515.03-.952.257-1.3.676-.701.843-.985 2.406-.76 4.181.305 2.407 2.296 4.084 3.892 4.084q.145 0 .283-.018c.96-.122.927-.914.778-2.42-.08-.817-.181-1.833-.055-2.9m5.752-3.604c-.889-.051-1.634.233-2.149.812-.58.653-.825 1.645-.689 2.792.127 1.066.026 2.082-.055 2.898-.15 1.507-.182 2.299.778 2.42q.139.018.283.018c1.596 0 3.587-1.677 3.892-4.083.225-1.775-.058-3.338-.76-4.181-.348-.42-.785-.647-1.3-.676" opacity="0.4"/></svg>