<svg xmlns="http://www.w3.org/2000/svg" width="24" height="25" fill="none" viewBox="0 0 24 25"><g clip-path="url(#a)"><path fill="#fff" d="M9.047 15.19a.39.39 0 0 1-.06-.415c.789-1.813-.068-2.828.018-6.925a.37.37 0 0 1 .381-.375c.2.004.358.182.353.391a25 25 0 0 0-.005.548c0 .213.166.386.37.383.597-.008 1.76-.214 2.21-1.623l.223-.701c.414-1.298-.293-2.698-1.565-3.064L8.684 2.75c-.912-.262-1.899.097-2.457.893a31.05 31.05 0 0 0-5.206 12.863c-.207 1.278.374 2.568 1.448 3.21 6.025 3.6 13.169 3.95 19.642.8.552-.27.91-.855.91-1.493v-6.857c0-.547-.258-1.056-.69-1.362-2.323-1.644-5.28-1.447-7.26.736a.392.392 0 0 0 .127.617c.895.39 1.74.959 2.447 1.63a.38.38 0 0 1 .12.275.4.4 0 0 1-.109.282.36.36 0 0 1-.505.013c-1.85-1.746-4.351-2.54-6.84-1.71a.38.38 0 0 0-.252.37c.01.696-.101 1.37-.405 2.076a.36.36 0 0 1-.607.096"/></g><defs><clipPath id="a"><path fill="#fff" d="M0 .666h24v24H0z"/></clipPath></defs></svg>