<svg xmlns="http://www.w3.org/2000/svg" width="24" height="25" fill="none" viewBox="0 0 24 25"><g clip-path="url(#a)"><mask id="b" width="24" height="25" x="0" y="0" maskUnits="userSpaceOnUse" style="mask-type:luminance"><path fill="#fff" d="M24 12.666c0-6.627-5.373-12-12-12s-12 5.373-12 12c0 6.628 5.373 12 12 12s12-5.372 12-12"/></mask><g mask="url(#b)"><path fill="#fff" fill-rule="evenodd" d="M12 24.666c6.627 0 12-5.372 12-12 0-2.614-.836-5.034-2.256-7.005-5.155 5.782-10.076 14.661-10.132 14.762a.5.5 0 0 1-.169.177.45.45 0 0 1-.232.066h-.003a.46.46 0 0 1-.402-.237c-1.548-2.724-5.674-8.525-5.715-8.583a.49.49 0 0 1 .047-.628l1.27-1.295a.455.455 0 0 1 .594-.052l4.109 2.964c2.75-3.643 5.304-6.16 6.984-7.645a35 35 0 0 1 1.842-1.524 11.96 11.96 0 0 0-7.937-3c-6.627 0-12 5.373-12 12 0 6.628 5.373 12 12 12" clip-rule="evenodd"/></g></g><defs><clipPath id="a"><path fill="#fff" d="M0 .666h24v24H0z"/></clipPath></defs></svg>