<svg xmlns="http://www.w3.org/2000/svg" width="24" height="25" fill="none" viewBox="0 0 24 25"><g clip-path="url(#a)"><mask id="b" width="24" height="25" x="0" y="0" maskUnits="userSpaceOnUse" style="mask-type:luminance"><path fill="#fff" d="M24 .666H0v24h24z"/></mask><g fill="#fff" mask="url(#b)"><path d="M9.394 23.806c-.368-.02-.907-.061-1.473-.236-.567-.17-1.108-.53-1.223-1.02-.142-.48.018-1.116.298-1.724l.236-.48a3.3 3.3 0 0 0 .245-.754 3.1 3.1 0 0 0-.117-1.622 4.7 4.7 0 0 0-1.025-1.648c-.151-.785-.733-1.584-1.654-2.134-1.555-.93-3.483-.802-4.309.287-.825 1.089-.233 2.726 1.321 3.657.897.536 1.919.72 2.78.57q.159.114.279.242c.14.144.239.302.293.516.029.105.035.224.032.352l-.077.62c-.047.443-.04.89.024 1.332.075.448.225.91.518 1.304.27.372.658.664 1.114.841.411.155.805.207 1.152.222.697.02 1.235-.09 1.604-.167.37-.082.573-.143.573-.143s-.218.004-.59-.015" opacity="0.4"/><path d="M23.411 15.016c-.367-.035-.903-.098-1.46-.295-.557-.193-1.08-.574-1.17-1.067-.118-.485.073-1.116.383-1.71l.26-.47q.188-.359.282-.745a3.1 3.1 0 0 0-.036-1.624 4.6 4.6 0 0 0-.94-1.686c-.113-.791-.655-1.612-1.546-2.198-1.506-.99-3.44-.939-4.318.118-.88 1.054-.37 2.713 1.136 3.704.87.572 1.882.796 2.749.68q.151.12.265.252c.133.15.225.314.268.527.024.106.024.225.016.353l-.11.616c-.07.44-.084.887-.042 1.331.051.451.177.918.451 1.324.251.382.624.69 1.071.883.358.15.744.241 1.14.267a6.6 6.6 0 0 0 1.61-.101c.372-.068.58-.121.58-.121s-.217-.006-.589-.038" opacity="0.6"/><path d="M15.123 19.607c-.466-.104-.948-.267-1.354-.52a2.24 2.24 0 0 1-.899-1.003c-.364-.814-.217-1.904.127-2.937l.294-.809a4.6 4.6 0 0 0-.103-3.49A6.4 6.4 0 0 0 12 9.057c.066-1.537-1.034-3.22-2.95-4.234-2.567-1.358-5.624-1-6.828.797s-.1 4.354 2.466 5.712c1.722.912 3.664 1.051 5.12.5q.18.159.326.335c.25.29.418.619.497 1.016.044.198.047.414.038.64-.032.32-.068.597-.093.965a8 8 0 0 0 .099 2.036c.137.68.386 1.37.848 1.945a3.76 3.76 0 0 0 1.72 1.214 5.7 5.7 0 0 0 1.784.298c1.088.01 1.933-.177 2.516-.31.583-.14.903-.243.903-.243s-.34.037-.935.058c-.587.017-1.446.022-2.388-.18"/></g></g><defs><clipPath id="a"><path fill="#fff" d="M0 .666h24v24H0z"/></clipPath></defs></svg>